<svg width="106" height="54" viewBox="0 0 106 54" fill="none" xmlns="http://www.w3.org/2000/svg">
<path d="M91.6437 17.1136C91.4052 16.5737 91.0673 16.1485 90.6168 15.7773L90.5506 15.7165C89.6238 14.9403 88.1331 14.5488 86.086 14.5488C85.1983 14.5488 84.3105 14.6568 83.4426 14.8661C82.5615 15.0821 81.7334 15.4938 81.0185 16.0675C80.197 16.7424 79.5213 17.5861 79.031 18.5378C78.3685 19.8269 77.9048 21.2174 77.6663 22.655C77.4477 23.6539 77.335 24.6663 77.3284 25.6922C77.3218 26.4819 77.4278 27.2648 77.6464 28.0276C77.8584 28.716 78.2228 29.3504 78.7197 29.8701C79.2828 30.4169 79.9585 30.8285 80.6939 31.0715C81.687 31.382 82.7205 31.5237 83.754 31.4968C84.7544 31.4968 87.1858 31.4293 88.3451 31.3685L88.8619 28.689C88.8619 28.689 86.0728 28.7767 85.6289 28.7767L84.0323 28.7767C81.0185 28.7767 80.7535 27.2851 80.6144 26.8666C80.4753 26.4549 80.3759 25.3278 80.5018 24.6258L84.602 24.6258C85.609 24.6393 86.6094 24.5516 87.6031 24.3558C88.3451 24.2141 89.0606 23.9441 89.7158 23.5662L89.9013 23.4447C90.3717 23.1342 90.7626 22.7225 91.0541 22.2365C91.6305 21.1971 91.9485 20.0294 91.9683 18.828C92.0015 18.2408 91.8889 17.6536 91.6437 17.1136ZM88.8354 19.0035C88.8354 19.098 88.8354 19.1857 88.8288 19.2667C88.8023 19.6312 88.6499 20.3264 88.4776 20.6841C88.418 20.8124 88.3451 20.9406 88.2723 21.0621C88.1 21.3253 87.8549 21.5345 87.57 21.6628C87.2056 21.8315 86.8081 21.9395 86.4106 21.98C85.8144 22.0475 85.2049 22.0813 84.602 22.0745L80.9987 22.0745C81.1643 21.278 81.4088 20.4951 81.7334 19.7459C81.9719 19.179 82.3164 18.6661 82.7404 18.2408C83.1313 17.8628 83.595 17.5794 84.1051 17.4174C84.7014 17.2351 85.291 17.1811 85.927 17.1541C86.7021 17.1271 87.5104 17.2554 88.1994 17.6469C88.4048 17.7684 88.577 17.9978 88.6896 18.2341C88.8023 18.4771 88.8486 18.7402 88.8354 19.0035Z" fill="#252525"/>
<path d="M20.8744 17.1136C20.6359 16.5737 20.298 16.1485 19.8476 15.7773L19.7814 15.7165C18.8539 14.9403 17.3634 14.5488 15.3164 14.5488C14.4288 14.5488 13.5411 14.6568 12.6733 14.8661C11.7922 15.0821 10.9642 15.4938 10.2487 16.0675C9.42729 16.7424 8.7516 17.5861 8.26135 18.5378C7.59892 19.8269 7.13523 21.2174 6.89673 22.655C6.67811 23.6539 6.56551 24.6663 6.55889 25.6922C6.55226 26.4819 6.65823 27.2648 6.87686 28.0276C7.08886 28.716 7.45317 29.3504 7.95004 29.8701C8.5131 30.4169 9.18879 30.8285 9.92409 31.0715C10.9178 31.382 11.9512 31.5237 12.9846 31.4968C13.985 31.4968 16.4161 31.4293 17.5754 31.3685L18.0921 28.689C18.0921 28.689 15.3032 28.7767 14.8593 28.7767L13.2628 28.7767C10.2487 28.7767 9.98372 27.2851 9.8446 26.8666C9.70554 26.4549 9.60616 25.3278 9.73204 24.6258L13.8326 24.6258C14.8395 24.6393 15.8398 24.5516 16.8334 24.3558C17.5754 24.2141 18.2908 23.9441 18.9467 23.5662L19.1321 23.4447C19.6025 23.1342 19.9933 22.7225 20.2848 22.2365C20.8611 21.1971 21.1791 20.0294 21.199 18.828C21.2321 18.2408 21.1129 17.6536 20.8744 17.1136ZM18.0656 19.0035C18.0656 19.098 18.0656 19.1857 18.059 19.2667C18.0325 19.6312 17.8801 20.3264 17.7079 20.6841C17.6482 20.8124 17.5754 20.9406 17.5025 21.0621C17.3303 21.3253 17.0852 21.5345 16.8003 21.6628C16.436 21.8315 16.0385 21.9395 15.6411 21.98C15.0448 22.0475 14.4354 22.0813 13.8326 22.0745L10.2288 22.0745C10.3945 21.278 10.6396 20.4951 10.9642 19.7459C11.2027 19.179 11.5471 18.6661 11.9711 18.2408C12.3619 17.8628 12.8256 17.5794 13.3357 17.4174C13.932 17.2351 14.5215 17.1811 15.1574 17.1541C15.9325 17.1271 16.7407 17.2554 17.4296 17.6469C17.635 17.7684 17.8072 17.9978 17.9199 18.2341C18.0325 18.4771 18.0789 18.7402 18.0656 19.0035Z" fill="#252525"/>
<path d="M31.3082 17.7465L31.8315 14.9994L27.2342 14.9994L27.3269 14.5269C27.4528 13.825 27.6383 13.1366 27.8834 12.4684C28.049 12.0026 28.3206 11.5842 28.6783 11.2467C29.0227 10.9498 29.4401 10.7743 29.8773 10.6798C30.4471 10.5583 31.8779 10.4908 32.6729 10.5313L33.2028 7.76397L31.911 7.76397C30.8577 7.74372 29.8574 7.85847 28.8373 8.16897C28.0225 8.41197 27.2474 8.7629 26.5783 9.29615C25.9424 9.81584 25.4323 10.4705 25.0746 11.213C24.6506 12.1241 24.3525 13.0893 24.1935 14.0815L20.8945 31.3736L24.0941 31.3736L26.4128 19.3056L24.7434 17.7532L31.3082 17.7532L31.3082 17.7465Z" fill="#252525"/>
<path d="M41.1519 17.7465L41.6752 14.9994L37.0779 14.9994L37.1706 14.5269C37.2965 13.825 37.482 13.1366 37.7271 12.4684C37.8927 12.0026 38.1643 11.5842 38.522 11.2467C38.8665 10.9498 39.2838 10.7743 39.7211 10.6798C40.2907 10.5583 41.7216 10.4908 42.5165 10.5313L43.0465 7.76397L41.7547 7.76397C40.7015 7.74372 39.7012 7.85847 38.681 8.16897C37.8662 8.41197 37.0911 8.7629 36.4221 9.29615C35.7861 9.81584 35.276 10.4705 34.9183 11.213C34.4943 12.1241 34.1962 13.0893 34.0373 14.0815L30.7383 31.3669L33.9379 31.3669L36.2564 19.2988L34.5871 17.7465L41.1519 17.7465Z" fill="#252525"/>
<path d="M66.5157 14.9941C65.0783 14.9941 64.1509 15.0751 63.3427 15.2506C62.5345 15.4261 61.7462 15.7028 61.0705 16.1955C60.3816 16.722 59.8251 17.4104 59.4409 18.1934C58.9242 19.2463 58.5731 20.3667 58.4008 21.5276L56.5195 31.4426L59.7191 31.4426L61.5541 21.8111C61.6601 21.1227 61.8389 20.4409 62.0841 19.7862C62.2563 19.3003 62.5411 18.8616 62.9121 18.5106C63.2698 18.1866 63.7004 17.9706 64.1641 17.8694C64.3562 17.8357 64.7604 17.7614 65.2307 17.7277C65.542 17.7007 65.8865 17.6939 66.2177 17.7007C67.0192 17.7142 67.7214 17.7547 67.7214 17.7547L68.2448 15.0144C68.2382 15.0211 67.463 14.9941 66.5157 14.9941Z" fill="#252525"/>
<path d="M71.5377 28.3301C71.3456 28.1748 71.2264 27.9454 71.1469 27.7159C71.0674 27.4864 71.0409 27.2367 71.0607 26.987C71.0939 26.528 71.1336 26.0758 71.2197 25.6235L72.4189 19.3466L70.7494 17.7942L77.4996 17.7942L78.0296 15.0472L73.2463 15.0472L74.0877 10.5723L70.8289 10.9233L68.0927 25.2389C68.0331 25.6033 67.9735 25.9408 67.9337 26.2648C67.894 26.5752 67.8741 26.8857 67.8741 27.1962C67.841 27.7699 67.9271 28.3436 68.1259 28.8768C68.3246 29.41 68.6294 29.9027 69.0269 30.3077C69.7887 31.0434 71.0475 31.4079 72.7899 31.4146L74.9224 31.4146L75.4392 28.7216L73.1933 28.7216C72.6044 28.7216 71.9882 28.6878 71.5377 28.3301Z" fill="#252525"/>
<path d="M96.1347 7.89258L91.6562 31.4213L94.8628 31.4213L99.334 7.89258L96.1347 7.89258Z" fill="#252525"/>
<path d="M54.5053 15.8907C53.3791 14.9931 51.776 14.5408 49.7026 14.5408C48.5698 14.5206 47.4437 14.6758 46.3572 15.0133C45.443 15.3171 44.615 15.8165 43.9194 16.4914C43.1974 17.2204 42.621 18.091 42.2236 19.0495C41.7333 20.2374 41.369 21.4725 41.1504 22.7414C41.0444 23.3826 40.9715 23.9226 40.9053 24.4491C40.8456 24.9552 40.8125 25.4615 40.8125 25.9677C40.8125 28.168 41.3756 29.7137 42.5084 30.6046C43.6346 31.5023 45.2377 31.9477 47.3045 31.9545C48.4307 31.9747 49.5568 31.8127 50.6366 31.482C51.5508 31.185 52.3921 30.6788 53.0877 30.0038C53.8098 29.2749 54.3861 28.4042 54.7836 27.4458C55.2738 26.2579 55.6381 25.0227 55.8568 23.7539C55.9627 23.1126 56.0422 22.5727 56.1084 22.0463C56.1681 21.54 56.2012 21.0338 56.2012 20.5276C56.2012 18.334 55.6315 16.7884 54.5053 15.8907ZM52.8889 22.0665C52.8227 22.6064 52.7167 23.2071 52.5974 23.8889C52.4319 24.7527 52.2133 25.6099 51.935 26.4469C51.7363 27.0476 51.425 27.601 51.0142 28.0735C50.6433 28.4852 50.1729 28.789 49.6496 28.9577C49.007 29.1602 48.3313 29.2479 47.6622 29.2344C46.695 29.3087 45.7279 29.0589 44.9065 28.519C44.3169 28.0465 44.0254 27.1624 44.0254 25.8799C44.0321 25.394 44.0652 24.9147 44.1314 24.4356C44.2042 23.8956 44.3102 23.2949 44.4229 22.6132C44.5885 21.7493 44.8137 20.8921 45.0919 20.0551C45.2907 19.4545 45.602 18.901 46.0061 18.4285C46.3771 18.0168 46.8474 17.7131 47.3708 17.5444C48.02 17.3419 48.689 17.2541 49.3647 17.2676C50.3319 17.1934 51.2991 17.4431 52.1139 17.983C52.7035 18.4555 53.0016 19.3397 53.0016 20.6221C52.9949 21.1081 52.9552 21.5873 52.8889 22.0665Z" fill="#252525"/>
<path fill-rule="evenodd" clip-rule="evenodd" d="M50.097 39.9374C49.4387 39.8095 48.7804 39.7742 48.1308 40.0521C48.1843 39.7414 48.2383 39.4307 48.2925 39.1191L48.2926 39.1185L48.2927 39.1178L48.2929 39.1171L48.2934 39.1142L48.2951 39.1046L48.2961 39.0986L48.2965 39.0961L48.297 39.0935C48.3905 38.5554 48.4846 38.0148 48.5769 37.4673C48.5206 37.4673 47.6155 37.4629 47.6155 37.4629C47.6155 37.4629 46.8792 41.7151 46.6887 42.8619C46.6367 43.1795 46.602 43.5014 46.5977 43.8234C46.5934 44.1366 46.7623 44.3704 47.0351 44.5027C47.1737 44.5733 47.334 44.6263 47.4899 44.635C47.9489 44.6571 48.4123 44.6792 48.8714 44.6615C49.6726 44.6263 50.2486 44.2337 50.5388 43.4529C50.7076 42.9986 50.7986 42.5266 50.8809 42.0459C50.9458 41.6533 50.9847 41.2607 50.9285 40.8637C50.8635 40.3653 50.5863 40.0344 50.097 39.9374ZM49.8111 42.4781C49.7592 42.7427 49.6856 43.003 49.6076 43.2632C49.482 43.6823 49.1918 43.8764 48.7674 43.8896C48.6722 43.8896 48.1005 43.8808 47.9143 43.8499C47.6891 43.8102 47.5851 43.7 47.5895 43.4661C47.5938 43.25 47.6241 43.0295 47.6588 42.8133C47.7409 42.3243 47.8318 41.8353 47.9226 41.3463L47.9229 41.3445C47.9276 41.3186 47.9347 41.2939 47.9416 41.2699C47.9476 41.2489 47.9535 41.2283 47.9576 41.2078C48.0312 40.899 48.2218 40.7138 48.5293 40.6741C48.8714 40.6299 49.2135 40.6167 49.5513 40.6828C49.8025 40.7358 49.9324 40.9034 49.9497 41.1593C49.9757 41.6091 49.8934 42.0459 49.8111 42.4781Z" fill="#252525"/>
<path d="M19.4722 40.5364L19.4711 40.5375L19.4708 40.5379L19.4707 40.5382C19.0475 41.0302 18.6236 41.5228 18.1973 42.0105C18.1453 42.0678 18.1367 42.1473 18.1669 42.2222C18.5307 42.9941 19.2843 44.613 19.306 44.6615L18.2146 44.6615C18.2146 44.6615 17.5866 43.3294 17.2965 42.7075C17.2358 42.5796 17.1232 42.5972 17.1232 42.5972L16.6599 42.5972L16.3047 44.6571C16.3047 44.6571 15.6421 44.6527 15.3477 44.6527C15.4342 44.1674 16.5949 37.4805 16.5949 37.4805L17.5477 37.4805C17.3051 38.9008 16.8201 41.7282 16.8201 41.7282L17.2229 41.7238C17.2229 41.7238 17.3484 41.7415 17.4697 41.6179C17.9331 41.0886 18.9248 39.9506 18.9248 39.9506L19.9685 39.9506C19.9514 39.9719 19.9369 39.9906 19.9237 40.0075C19.9068 40.0292 19.8922 40.048 19.8776 40.0653C19.7425 40.2221 19.6073 40.3792 19.4722 40.5364Z" fill="#252525"/>
<path d="M29.7423 43.3153C29.8246 42.9844 29.8895 42.6448 29.9502 42.3052C30.0628 41.7053 30.3703 39.9498 30.3703 39.9498C30.3703 39.9498 31.0112 39.9453 31.3274 39.9453C31.3172 39.9983 31.2304 40.4978 31.1143 41.1663L31.1132 41.1726C30.8812 42.5073 30.5332 44.5102 30.4439 44.9826L30.4398 45.0046C30.3935 45.2536 30.3458 45.51 30.249 45.7457C30.0022 46.35 29.5258 46.6588 28.9021 46.6896C28.2915 46.7205 27.0399 46.7073 27.0096 46.7029C27.0529 46.4603 27.1569 45.9177 27.1569 45.9177C27.1569 45.9177 28.114 45.9177 28.5427 45.9133C28.6683 45.9133 28.8026 45.9045 28.9281 45.8824C29.1317 45.8427 29.2963 45.7193 29.3526 45.5164C29.4125 45.3138 29.4541 45.1043 29.4957 44.8945L29.4957 44.8944L29.4959 44.8932L29.4962 44.8921C29.5115 44.8148 29.5268 44.7375 29.5431 44.6606C29.5568 44.6011 29.5679 44.5278 29.5783 44.4581C29.581 44.4399 29.5837 44.4221 29.5864 44.4048C29.5786 44.4088 29.5699 44.4136 29.5619 44.4182L29.5552 44.422C29.5483 44.426 29.5424 44.4294 29.5387 44.4312C29.2616 44.5944 28.9585 44.6474 28.6466 44.6474C28.5813 44.6474 28.5158 44.6484 28.4503 44.6494C28.1768 44.6535 27.9022 44.6576 27.6333 44.5901C27.1049 44.4577 26.832 44.1313 26.832 43.5799C26.832 43.3553 26.8679 43.1308 26.9036 42.9062C26.9072 42.8837 26.9108 42.8613 26.9143 42.8389C27.0659 41.9126 27.3994 39.9983 27.408 39.9585L28.3608 39.9585C28.3543 40.0004 28.2724 40.479 28.1742 41.0527L28.1698 41.0787L28.1697 41.0794C28.072 41.6499 27.9593 42.3085 27.8888 42.7242C27.8541 42.9139 27.8281 43.108 27.8195 43.302C27.8021 43.6505 27.9277 43.8181 28.2699 43.8446C28.56 43.871 28.8588 43.8578 29.1534 43.8357C29.4651 43.8093 29.6687 43.6196 29.7423 43.3153Z" fill="#252525"/>
<path fill-rule="evenodd" clip-rule="evenodd" d="M23.7026 40.1446C23.512 40.0123 23.3042 39.9284 23.079 39.9152L22.9996 39.911C22.6098 39.89 22.2167 39.8689 21.8274 39.902C21.0911 39.9593 20.5498 40.3386 20.2813 41.0576C19.9781 41.8648 19.8396 42.7073 19.8569 43.5719C19.8612 43.7439 19.9045 43.9247 19.9781 44.0835C20.1514 44.4629 20.4892 44.6216 20.8703 44.679C21.39 44.754 21.914 44.7363 22.4337 44.6878C22.594 44.6746 22.7542 44.6349 22.9101 44.5908C23.1742 44.5114 23.3908 44.357 23.5943 44.1673C23.5164 44.0636 23.4406 43.9622 23.3648 43.8607L23.3643 43.8601L23.3626 43.8578C23.2875 43.7574 23.2125 43.6569 23.1353 43.5542C22.8538 43.8189 22.5247 43.9203 22.1695 43.9203C21.8664 43.9247 21.5632 43.9247 21.2644 43.885C21.0002 43.8542 20.853 43.6601 20.84 43.391C20.8357 43.2101 20.8487 42.9808 20.8617 42.844C20.866 42.8088 20.8833 42.6941 20.8833 42.6941C20.8833 42.6941 22.2995 42.6985 22.9317 42.6941C23.0487 42.6941 23.1613 42.6897 23.2782 42.672C23.6247 42.6235 23.8802 42.4427 23.9625 42.0942C24.0404 41.7678 24.101 41.4325 24.1227 41.0973C24.1486 40.7136 24.0317 40.3739 23.7026 40.1446ZM23.1569 41.1899C23.1483 41.3928 23.1179 41.5914 23.0877 41.7898C23.0747 41.8736 23.014 41.9354 22.9274 41.9486C22.8798 41.9575 22.8278 41.9575 22.7758 41.9575L21.0089 41.9575C21.0122 41.942 21.0156 41.9266 21.0188 41.9113C21.0216 41.8978 21.0244 41.8843 21.0273 41.8708C21.0318 41.8485 21.0364 41.8262 21.041 41.8039L21.0412 41.803C21.1033 41.4996 21.1633 41.2059 21.3597 40.9606C21.4853 40.8018 21.6585 40.7048 21.8533 40.6959C22.1565 40.6783 22.464 40.6783 22.7672 40.7091C23.04 40.7401 23.1656 40.9165 23.1569 41.1899Z" fill="#252525"/>
<path fill-rule="evenodd" clip-rule="evenodd" d="M96.5396 39.9152C96.7648 39.9284 96.9728 40.0123 97.1636 40.1446C97.4922 40.3739 97.6095 40.7136 97.5837 41.0973C97.5618 41.4325 97.5015 41.7678 97.4233 42.0942C97.3412 42.4427 97.0855 42.6235 96.739 42.672C96.6224 42.6897 96.5098 42.6941 96.3925 42.6941C95.7605 42.6985 94.344 42.6941 94.344 42.6941C94.344 42.6941 94.3268 42.8088 94.3222 42.844C94.3096 42.9808 94.2963 43.2101 94.301 43.391C94.3136 43.6601 94.4613 43.8542 94.725 43.885C95.0238 43.9247 95.3272 43.9247 95.6306 43.9203C95.9857 43.9203 96.3143 43.8189 96.5959 43.5542C96.6741 43.6579 96.7496 43.7593 96.8258 43.8607L96.894 43.9522C96.9198 43.987 96.9457 44.0218 96.9722 44.0568C96.9993 44.0934 97.0272 44.1302 97.055 44.1673C96.8516 44.357 96.635 44.5114 96.3706 44.5908C96.2149 44.6349 96.0546 44.6746 95.8943 44.6878C95.3749 44.7363 94.8509 44.754 94.3308 44.679C93.9499 44.6216 93.612 44.4629 93.4391 44.0835C93.3655 43.9247 93.3218 43.7439 93.3178 43.5719C93.3006 42.7073 93.4391 41.8648 93.7418 41.0576C94.0108 40.3386 94.5521 39.9593 95.2881 39.902C95.6777 39.8689 96.0705 39.89 96.4601 39.911L96.5396 39.9152ZM96.5482 41.7895C96.5787 41.5912 96.6091 41.3928 96.6177 41.1899C96.631 40.9165 96.5005 40.7401 96.2282 40.7091C95.9248 40.6783 95.6174 40.6783 95.3139 40.6959C95.1192 40.7048 94.9463 40.8018 94.8204 40.9606C94.6243 41.2059 94.564 41.4996 94.5017 41.803C94.4918 41.8543 94.4812 41.9058 94.4699 41.9575L96.2368 41.9575C96.2885 41.9575 96.3408 41.9575 96.3885 41.9486C96.4746 41.9354 96.5356 41.8736 96.5482 41.7898V41.7895Z" fill="#252525"/>
<path fill-rule="evenodd" clip-rule="evenodd" d="M14.4078 40.069C14.2649 39.994 14.1003 39.9367 13.9401 39.9147C13.3944 39.8397 12.8444 39.8573 12.2987 39.919C11.9783 39.9587 11.6838 40.0734 11.4239 40.2763C11.3979 40.294 11.359 40.3293 11.359 40.3293C11.359 40.3293 11.6145 40.7792 11.7271 40.9777C11.781 40.9518 11.8328 40.9237 11.8838 40.8962C11.9803 40.8439 12.074 40.7933 12.1732 40.7616C12.6019 40.6204 13.0436 40.6424 13.481 40.6866C13.7885 40.7174 13.9055 40.8763 13.8924 41.1938C13.8867 41.3036 13.871 41.4134 13.8548 41.5271C13.8469 41.5825 13.8389 41.6389 13.8318 41.6966C13.6586 41.6966 12.5542 41.7231 12.1645 41.7716C11.7141 41.8246 11.3243 42.0275 11.0211 42.3804C10.7656 42.6759 10.6747 43.0332 10.6271 43.4125C10.5448 44.0786 10.8306 44.5329 11.4716 44.652C12.1341 44.7755 12.8098 44.7711 13.4724 44.6299C13.8881 44.5417 14.1783 44.277 14.3386 43.8712C14.3992 43.7212 14.4511 43.5669 14.4815 43.4125C14.5854 42.892 14.6807 42.3671 14.7673 41.8423C14.8193 41.5291 14.8625 41.2115 14.8712 40.8939C14.8755 40.5322 14.7239 40.2366 14.4078 40.069ZM13.4897 43.5007C13.4291 43.7257 13.2601 43.8801 13.0306 43.8977C12.6885 43.9198 12.3377 43.9286 11.9956 43.8977C11.7011 43.8712 11.5755 43.6728 11.5971 43.3728C11.6015 43.311 11.6058 43.2493 11.6145 43.1875C11.6881 42.7685 11.922 42.5171 12.342 42.4818C12.6627 42.4527 12.9857 42.4497 13.3075 42.4466C13.4248 42.4456 13.5418 42.4445 13.6586 42.4421C13.6629 42.4421 13.6715 42.4465 13.7061 42.4641L13.7063 42.4642C13.6868 42.5607 13.6684 42.6576 13.65 42.7546L13.6499 42.7548C13.6026 43.0035 13.5551 43.2533 13.4897 43.5007Z" fill="#252525"/>
<path fill-rule="evenodd" clip-rule="evenodd" d="M57.858 39.9147C58.0183 39.9367 58.1829 39.994 58.3258 40.069C58.6419 40.2366 58.7935 40.5322 58.7892 40.8939C58.7805 41.2115 58.7372 41.5291 58.6852 41.8423C58.5986 42.3671 58.5033 42.892 58.3994 43.4125C58.3691 43.5669 58.3171 43.7212 58.2565 43.8712C58.0963 44.277 57.8061 44.5417 57.3903 44.6299C56.7277 44.7711 56.0521 44.7755 55.3896 44.652C54.7486 44.5329 54.4628 44.0786 54.5451 43.4125C54.5927 43.0332 54.6836 42.6759 54.9391 42.3804C55.2423 42.0275 55.632 41.8246 56.0825 41.7716C56.4722 41.7231 57.5765 41.6966 57.7498 41.6966C57.7569 41.6389 57.7649 41.5825 57.7728 41.5272C57.789 41.4134 57.8046 41.3036 57.8104 41.1938C57.8234 40.8763 57.7064 40.7174 57.399 40.6866C56.9616 40.6424 56.5198 40.6204 56.0911 40.7616C55.992 40.7933 55.8983 40.8439 55.8018 40.8962C55.7507 40.9237 55.6989 40.9518 55.645 40.9777C55.5325 40.7792 55.2769 40.3293 55.2769 40.3293C55.2769 40.3293 55.3159 40.294 55.3419 40.2763C55.6018 40.0734 55.8962 39.9587 56.2167 39.919C56.7624 39.8573 57.3124 39.8397 57.858 39.9147ZM56.9486 43.8977C57.1781 43.8801 57.347 43.7257 57.4077 43.5007C57.4731 43.2533 57.5206 43.0035 57.5679 42.7548L57.5679 42.7543C57.5863 42.6574 57.6048 42.5606 57.6242 42.4642C57.5896 42.4465 57.5809 42.4421 57.5765 42.4421C57.4598 42.4445 57.3427 42.4456 57.2255 42.4466C56.9036 42.4497 56.5807 42.4527 56.26 42.4818C55.8399 42.5171 55.6061 42.7685 55.5325 43.1875C55.5238 43.2492 55.5195 43.3108 55.5152 43.3723L55.5151 43.3728C55.4934 43.6728 55.619 43.8712 55.9135 43.8977C56.2557 43.9286 56.6065 43.9198 56.9486 43.8977Z" fill="#252525"/>
<path fill-rule="evenodd" clip-rule="evenodd" d="M35.8709 40.4128C35.6717 40.0997 35.3685 39.9453 35.0177 39.9188C34.6106 39.8836 34.1949 39.8747 33.7878 39.8968C33.0083 39.932 32.4453 40.3114 32.1421 41.0612C31.9602 41.5112 31.8693 41.9787 31.7913 42.4551C31.7263 42.8565 31.6787 43.2579 31.7263 43.6593C31.7784 44.1136 32.0035 44.44 32.4366 44.5944C32.6185 44.6605 32.8004 44.687 32.9866 44.7047C33.1425 44.7179 33.8267 44.7135 34.013 44.6958C34.7709 44.6341 35.3382 44.2768 35.6067 43.5313C35.741 43.1564 35.8319 42.7682 35.9185 42.3757C36.0095 41.9522 36.0744 41.5244 36.0528 41.0877C36.0398 40.8495 36.0008 40.6157 35.8709 40.4128ZM34.7146 43.2932C34.576 43.7122 34.2902 43.9151 33.8614 43.9195C33.7791 43.9195 33.2941 43.9195 33.1382 43.8887C32.8653 43.8357 32.7354 43.6858 32.7311 43.4034C32.7268 43.1344 32.7311 42.8653 32.7787 42.6051C32.8523 42.1816 32.9433 41.7582 33.0602 41.3391C33.1555 40.9907 33.3764 40.7304 33.7575 40.6907C33.9914 40.6687 34.2252 40.6643 34.4591 40.6775C34.9095 40.7084 35.0524 40.8628 35.0481 41.3259C35.0394 41.9964 34.9224 42.6536 34.7146 43.2932Z" fill="#252525"/>
<path fill-rule="evenodd" clip-rule="evenodd" d="M82.6274 39.9188C82.9779 39.9453 83.2813 40.0997 83.48 40.4128C83.6099 40.6157 83.649 40.8495 83.6622 41.0877C83.6841 41.5244 83.6192 41.9522 83.5277 42.3757C83.441 42.7682 83.3502 43.1564 83.2164 43.5313C82.9474 44.2768 82.3803 44.6341 81.6224 44.6958C81.4362 44.7135 80.7519 44.7179 80.5962 44.7047C80.41 44.687 80.2278 44.6605 80.0463 44.5944C79.613 44.44 79.3878 44.1136 79.3355 43.6593C79.2884 43.2579 79.3354 42.8565 79.401 42.4551C79.4785 41.9787 79.5693 41.5112 79.7515 41.0612C80.0549 40.3114 80.6174 39.932 81.3971 39.8968C81.8046 39.8747 82.22 39.8836 82.6274 39.9188ZM81.4667 43.9195C81.8953 43.9151 82.1809 43.7122 82.3193 43.2932C82.532 42.6536 82.6486 41.9964 82.6532 41.3259C82.6572 40.8628 82.5148 40.7084 82.0643 40.6775C81.8304 40.6643 81.5966 40.6687 81.3627 40.6907C80.9811 40.7304 80.7605 40.9907 80.6651 41.3391C80.5485 41.7582 80.4577 42.1816 80.3835 42.6051C80.3358 42.8653 80.3318 43.1344 80.3358 43.4034C80.3405 43.6858 80.4703 43.8357 80.7433 43.8887C80.8989 43.9195 81.3839 43.9195 81.4667 43.9195Z" fill="#252525"/>
<path d="M39.8011 42.4566C39.7448 42.7742 39.6842 43.0917 39.6019 43.4005C39.5326 43.6652 39.3507 43.8592 39.0736 43.8857C38.7747 43.9121 38.4672 43.9166 38.1684 43.8989C37.835 43.8769 37.6964 43.696 37.7137 43.3564C37.7267 43.1755 37.744 42.9991 37.7743 42.8227C37.8296 42.497 37.9126 42.0125 37.9948 41.5334C38.1251 40.7733 38.2531 40.0269 38.2637 39.9512C37.9519 39.9512 37.3066 39.9556 37.3066 39.9556C37.3066 39.9556 36.8822 42.408 36.7566 43.1535C36.7133 43.4137 36.6916 43.674 36.7522 43.9298C36.8476 44.3532 37.1507 44.5738 37.5448 44.6444C38.1684 44.7591 38.7964 44.7634 39.4157 44.6268C39.8141 44.5385 40.1389 44.3224 40.3598 43.9607C40.5113 43.7092 40.598 43.4269 40.6456 43.1358C40.6726 42.9808 40.7099 42.7667 40.7527 42.522L40.7686 42.4304C40.9305 41.5024 41.1568 40.2047 41.1999 39.9512C40.8882 39.9512 40.2428 39.9556 40.2428 39.9556C40.2428 39.9556 39.9483 41.6538 39.8011 42.4566Z" fill="#252525"/>
<path d="M61.0929 39.9411C61.7122 39.8043 62.3401 39.8088 62.9637 39.9234C63.3579 39.9984 63.6566 40.2146 63.7606 40.6424C63.8213 40.8982 63.7996 41.1585 63.7563 41.4187C63.6307 42.1642 63.2063 44.6166 63.2063 44.6166C63.2063 44.6166 62.561 44.6255 62.2492 44.6255C62.26 44.548 62.3937 43.7672 62.527 42.9881L62.5485 42.8629C62.6203 42.4432 62.6901 42.035 62.7386 41.7495C62.7689 41.5731 62.7862 41.3967 62.7992 41.2158C62.8165 40.8762 62.6779 40.6953 62.3444 40.6733C62.0456 40.6556 61.7382 40.6601 61.4393 40.6865C61.1622 40.713 60.9803 40.907 60.911 41.1717C60.8287 41.4805 60.7681 41.798 60.7118 42.1156C60.5646 42.9184 60.2657 44.621 60.2657 44.621L59.3086 44.621C59.3649 44.2902 59.7331 42.1774 59.863 41.4319C59.9106 41.1408 59.9972 40.8585 60.1488 40.6071C60.3697 40.2454 60.6945 40.0293 61.0929 39.9411Z" fill="#252525"/>
<path d="M11.8349 37.8945L7.32229 37.8945C7.30878 37.8945 7.29572 37.8935 7.28327 37.8924C7.25975 37.8906 7.23815 37.8888 7.21835 37.8945C7.19668 37.9034 7.16634 37.9254 7.16203 37.9431C7.12679 38.1324 7.09386 38.3194 7.05981 38.5128L7.05954 38.5144L7.05941 38.5154L7.05881 38.5186C7.04722 38.5846 7.0355 38.6514 7.02344 38.7194L8.84233 38.7194C8.50022 40.6999 8.16241 42.6716 7.8246 44.6476L8.83372 44.6476C8.99067 43.7293 9.14861 42.8118 9.30661 41.894L9.30741 41.8893C9.48913 40.8338 9.67085 39.7779 9.85139 38.7194L11.6876 38.7194C11.7153 38.5714 11.7406 38.4271 11.7659 38.282C11.7882 38.1546 11.8106 38.0265 11.8349 37.8945Z" fill="#252525"/>
<path d="M42.0546 41.1327C42.1715 40.6916 42.4011 40.3254 42.8081 40.1005C43.0204 39.9814 43.2499 39.9108 43.488 39.8932C43.8172 39.8755 44.5274 39.8711 44.5274 39.8711L44.4019 40.6651L44.3109 40.6651C44.3109 40.6651 43.8605 40.6651 43.6396 40.6827C43.2975 40.7048 43.0897 40.8724 43.003 41.212C42.9267 41.5114 42.8705 41.8108 42.8138 42.1131L42.7908 42.2353C42.7128 42.6765 42.6392 43.1176 42.5656 43.5587C42.5375 43.7241 42.5093 43.8884 42.4812 44.0526C42.453 44.217 42.4248 44.3813 42.3967 44.5467C42.3924 44.5776 42.3794 44.6481 42.3794 44.6481L41.418 44.6481C41.4353 44.5335 41.4526 44.4232 41.4699 44.3129C41.5118 44.0745 41.5533 43.8362 41.5947 43.5978L41.5947 43.5974L41.5948 43.5968C41.6775 43.1209 41.7602 42.6451 41.8467 42.1692C41.8624 42.0848 41.8774 42.0003 41.8924 41.916L41.8925 41.9156C41.9392 41.6521 41.9857 41.3898 42.0546 41.1327Z" fill="#252525"/>
<path d="M52.8121 40.1005C52.405 40.3254 52.1754 40.6916 52.0585 41.1327C51.9896 41.3898 51.9431 41.6521 51.8964 41.9156L51.8963 41.916C51.8813 42.0003 51.8663 42.0848 51.8506 42.1692C51.7641 42.6451 51.6814 43.121 51.5986 43.5969L51.5986 43.5974L51.5986 43.5978C51.5572 43.8362 51.5158 44.0745 51.4738 44.3129L51.4731 44.3178L51.473 44.3181C51.456 44.4267 51.4389 44.5353 51.4219 44.6481L52.3833 44.6481C52.3833 44.6481 52.3963 44.5776 52.4007 44.5467L52.433 44.3571C52.4503 44.2555 52.4677 44.1541 52.4851 44.0526C52.5132 43.8884 52.5414 43.7241 52.5695 43.5587C52.6431 43.1176 52.7168 42.6765 52.7947 42.2353C52.8024 42.1946 52.8101 42.1538 52.8177 42.1131C52.8744 41.8108 52.9306 41.5114 53.0069 41.212C53.0936 40.8724 53.3014 40.7048 53.6436 40.6827C53.8644 40.6651 54.3148 40.6651 54.3148 40.6651L54.4058 40.6651L54.5313 39.8711C54.5313 39.8711 53.8211 39.8755 53.492 39.8932C53.2494 39.9108 53.0243 39.9814 52.8121 40.1005Z" fill="#252525"/>
<path d="M77.7472 39.8939C77.8817 39.9071 78.0592 39.9512 78.1891 40.0042C78.5574 40.1585 78.739 40.4585 78.739 40.8466C78.739 41.1113 78.7092 41.3804 78.6654 41.6406C78.527 42.4919 78.1805 44.4724 78.1546 44.6136L77.1973 44.6136C77.2079 44.546 77.2636 44.2274 77.3325 43.8313L77.3338 43.8228L77.3351 43.8156L77.3378 43.8014L77.3378 43.7981L77.3418 43.7778C77.4372 43.2257 77.5564 42.5423 77.6173 42.1744L77.6313 42.0898C77.679 41.799 77.728 41.5019 77.7518 41.2084C77.7863 40.8422 77.626 40.6658 77.2622 40.6526C76.9635 40.6393 76.6607 40.6482 76.3659 40.679C76.1188 40.7055 75.9412 40.8731 75.8763 41.1201C75.7988 41.4333 75.7339 41.7465 75.6776 42.0641C75.5258 42.8889 75.2271 44.618 75.2271 44.618L74.2697 44.618C74.3347 44.243 74.6772 42.267 74.8196 41.4333C74.8282 41.3804 74.8547 41.1731 74.8547 41.1201C74.8547 40.8643 74.7507 40.7011 74.5082 40.679C74.1657 40.6482 73.8153 40.6526 73.4728 40.6746C73.2217 40.6923 73.0441 40.8687 72.9752 41.1069C72.8924 41.3892 72.8321 41.6803 72.7798 41.9715C72.6771 42.5534 72.5015 43.5577 72.3988 44.1477L72.3969 44.1605C72.3498 44.4308 72.318 44.611 72.3167 44.618L71.3594 44.618C71.3945 44.4062 71.7536 42.2758 71.9139 41.4245C71.9569 41.1995 72.0312 40.9702 72.1219 40.7584C72.3558 40.2291 72.8016 39.9777 73.3429 39.8939C73.8457 39.8189 74.3519 39.8277 74.8547 39.8851C75.123 39.9203 75.3569 40.0218 75.5126 40.26C75.5152 40.2648 75.5199 40.2669 75.5252 40.2694C75.5298 40.2714 75.5351 40.2736 75.5391 40.2776C75.816 39.9865 76.1711 39.8718 76.5567 39.8674C76.5918 39.867 76.6263 39.8666 76.6614 39.8662C77.031 39.8619 77.3914 39.8576 77.7472 39.8939Z" fill="#252525"/>
<path fill-rule="evenodd" clip-rule="evenodd" d="M85.733 40.0521C86.3822 39.7742 87.0408 39.8095 87.6986 39.9374C88.1882 40.0344 88.4651 40.3653 88.53 40.8637C88.5864 41.2607 88.5479 41.6533 88.483 42.0459C88.4002 42.5266 88.3094 42.9986 88.1405 43.4529C87.8503 44.2337 87.2746 44.6263 86.473 44.6615C86.0139 44.6792 85.5508 44.6571 85.0917 44.635C84.936 44.6263 84.7757 44.5733 84.6372 44.5027C84.3643 44.3704 84.1953 44.1366 84.1993 43.8234C84.2039 43.5014 84.2384 43.1795 84.2907 42.8619C84.4809 41.7151 85.2175 37.4629 85.2175 37.4629C85.2175 37.4629 86.1225 37.4673 86.1788 37.4673C86.0284 38.3322 85.8827 39.1799 85.737 40.0274L85.7363 40.0318L85.733 40.0521ZM87.205 43.2632C87.2832 43.003 87.3568 42.7427 87.4084 42.4781C87.4952 42.0459 87.5774 41.6091 87.5476 41.1593C87.5297 40.9034 87.3998 40.7358 87.1487 40.6828C86.8109 40.6167 86.469 40.6299 86.1265 40.6741C85.8191 40.7138 85.629 40.899 85.5554 41.2078C85.5508 41.2283 85.5455 41.2488 85.5389 41.2698C85.5322 41.2939 85.525 41.3186 85.5203 41.3445C85.4296 41.8341 85.3388 42.3237 85.256 42.8133C85.2215 43.0295 85.1911 43.25 85.1871 43.4661C85.1824 43.7 85.2865 43.8102 85.5117 43.8499C85.6979 43.8808 86.2696 43.8896 86.365 43.8896C86.7897 43.8764 87.0798 43.6823 87.205 43.2632Z" fill="#252525"/>
<path fill-rule="evenodd" clip-rule="evenodd" d="M68.1559 39.063C68.1328 39.1973 68.1096 39.3315 68.0864 39.4649L68.0857 39.4661C68.0519 39.661 68.0181 39.8539 67.987 40.0423C67.8485 39.9716 67.6664 39.9055 67.5021 39.8923C67.147 39.8658 66.7872 39.8482 66.4321 39.8746C65.6874 39.9232 65.1417 40.2892 64.8385 41.0039C64.648 41.4537 64.5527 41.9257 64.4748 42.4021C64.4098 42.8167 64.3535 43.2357 64.4098 43.6592C64.4575 44.0341 64.6263 44.3429 64.9771 44.4973C65.172 44.5811 65.3885 44.6472 65.6008 44.6605C66.0035 44.6869 66.4063 44.6782 66.8137 44.6649C67.1125 44.6561 67.4027 44.5943 67.6624 44.4399C68.0387 44.2194 68.2427 43.8709 68.3289 43.4563C68.4408 42.9086 69.0013 39.7109 69.2623 38.223L69.2636 38.2162C69.3359 37.8026 69.3849 37.5225 69.3948 37.4707C69.0828 37.4707 68.4375 37.4751 68.4375 37.4751C68.4375 37.4751 68.2427 38.5558 68.1559 39.063ZM67.7531 41.1847C67.7313 41.4626 67.6836 41.7449 67.6365 42.0183C67.5623 42.4418 67.4888 42.8609 67.398 43.2799C67.3113 43.6857 67.1211 43.8488 66.7137 43.8709C66.4321 43.8886 66.1508 43.8841 65.8736 43.8665C65.5835 43.8488 65.4276 43.6989 65.4102 43.4033C65.3972 43.1564 65.3972 42.9049 65.4362 42.6623C65.5098 42.2124 65.6008 41.7625 65.7177 41.3258C65.8086 40.9818 66.0252 40.726 66.3977 40.673C66.4977 40.6585 66.5991 40.6535 66.7117 40.6481C66.7693 40.6452 66.8303 40.6423 66.8959 40.6377C66.9363 40.6417 66.98 40.6449 67.0264 40.6482C67.133 40.656 67.253 40.6647 67.3676 40.6863C67.6319 40.7347 67.775 40.9156 67.7531 41.1847Z" fill="#252525"/>
<path d="M90.0043 44.6205L89.043 44.6205C89.086 44.3646 89.8572 39.9361 89.8572 39.9361C89.8572 39.9361 90.5025 39.9316 90.8185 39.9316C90.7794 40.1434 90.0043 44.6205 90.0043 44.6205Z" fill="#252525"/>
<path d="M90.8438 37.7444C90.4629 37.6474 90.0906 37.9165 90.017 38.3311C89.9607 38.6619 90.1681 38.9133 90.4973 38.9133C90.8743 38.9133 91.1949 38.5914 91.1989 38.2076C91.2035 37.9606 91.0823 37.8062 90.8438 37.7444Z" fill="#252525"/>
<path d="M93.0728 37.4679C93.1397 37.4675 93.2066 37.4673 93.2735 37.4673C93.2954 37.4673 93.3173 37.4717 93.3477 37.4761C93.3212 37.6393 93.2954 37.7981 93.2696 37.9569C93.196 38.387 93.1212 38.8159 93.0463 39.2449C92.9714 39.6739 92.8972 40.1028 92.8237 40.5329C92.6806 41.3533 92.2645 43.8058 92.1261 44.6263L91.1602 44.6263L91.1734 44.5468C91.2946 43.8146 91.6974 41.4592 91.8233 40.7314C91.9008 40.2814 91.979 39.8303 92.0572 39.3792C92.1347 38.9282 92.2129 38.4773 92.291 38.0275C92.3169 37.8687 92.3427 37.7143 92.3686 37.56C92.3818 37.4982 92.399 37.4629 92.4726 37.4629C92.674 37.4695 92.8727 37.4687 93.0728 37.4679Z" fill="#252525"/>
</svg>
