<svg width="3392" height="741" viewBox="0 0 3392 741" fill="none" xmlns="http://www.w3.org/2000/svg">
<path fill-rule="evenodd" clip-rule="evenodd" d="M624.44 370.262C647.105 370.262 668.766 352.236 673.561 329.961C692.865 240.153 714.342 193.998 787.696 185.132H995.791C1018.54 185.132 1040.38 167.006 1044.58 144.649L1071.78 0H703.501C680.826 0 659.165 18.0266 654.38 40.3013C635.065 130.109 613.589 176.264 540.245 185.131H332.15C309.403 185.131 287.547 203.257 283.346 225.613L256.162 370.262H624.44Z" fill="url(#paint0_linear_1094_4336)"/>
<g style="mix-blend-mode:multiply" opacity="0.9">
<path fill-rule="evenodd" clip-rule="evenodd" d="M335.541 370.262C393.229 286.752 500.437 182.3 675.856 182.3C845.968 182.3 942.161 82.9951 992.84 0H703.501C680.826 0 659.165 18.0266 654.38 40.3013C635.065 130.11 613.589 176.264 540.245 185.131H332.15C309.403 185.131 287.547 203.257 283.346 225.613L256.162 370.262H335.541Z" fill="url(#paint1_linear_1094_4336)"/>
</g>
<path fill-rule="evenodd" clip-rule="evenodd" d="M1204.39 370.262C1227.05 370.262 1248.71 352.236 1253.51 329.961C1272.81 240.153 1294.29 193.998 1367.64 185.132H1575.74C1598.49 185.132 1620.33 167.006 1624.53 144.649L1651.73 0H1283.45C1260.77 0 1239.11 18.0266 1234.33 40.3013C1215.01 130.109 1193.54 176.264 1120.19 185.131H912.097C889.35 185.131 867.494 203.257 863.293 225.613L836.109 370.262H1204.39Z" fill="url(#paint2_linear_1094_4336)"/>
<g style="mix-blend-mode:multiply" opacity="0.9">
<path fill-rule="evenodd" clip-rule="evenodd" d="M915.489 370.262C973.176 286.752 1080.38 182.3 1255.8 182.3C1425.91 182.3 1522.11 82.9951 1572.79 0H1283.45C1260.77 0 1239.11 18.0266 1234.33 40.3013C1215.01 130.11 1193.54 176.264 1120.19 185.131H912.097C889.35 185.131 867.494 203.257 863.293 225.613L836.109 370.262H915.489Z" fill="url(#paint3_linear_1094_4336)"/>
</g>
<path fill-rule="evenodd" clip-rule="evenodd" d="M1784.34 370.262C1807 370.262 1828.66 352.236 1833.46 329.961C1852.76 240.153 1874.24 193.998 1947.59 185.132H2155.69C2178.43 185.132 2200.28 167.006 2204.48 144.649L2231.67 0H1863.4C1840.72 0 1819.06 18.0266 1814.28 40.3013C1794.96 130.109 1773.49 176.264 1700.14 185.131H1492.05C1469.3 185.131 1447.44 203.257 1443.24 225.613L1416.06 370.262H1784.34Z" fill="url(#paint4_linear_1094_4336)"/>
<g style="mix-blend-mode:multiply" opacity="0.9">
<path fill-rule="evenodd" clip-rule="evenodd" d="M1495.44 370.262C1553.13 286.752 1660.33 182.3 1835.75 182.3C2005.86 182.3 2102.06 82.9951 2152.74 0H1863.4C1840.72 0 1819.06 18.0266 1814.28 40.3013C1794.96 130.11 1773.49 176.264 1700.14 185.131H1492.05C1469.3 185.131 1447.44 203.257 1443.24 225.613L1416.06 370.262H1495.44Z" fill="url(#paint5_linear_1094_4336)"/>
</g>
<path fill-rule="evenodd" clip-rule="evenodd" d="M2364.29 370.262C2386.95 370.262 2408.61 352.236 2413.41 329.961C2432.71 240.153 2454.19 193.998 2527.54 185.132H2735.64C2758.38 185.132 2780.23 167.006 2784.43 144.649L2811.62 0H2443.35C2420.67 0 2399.01 18.0266 2394.23 40.3013C2374.91 130.109 2353.43 176.264 2280.09 185.131H2072C2049.25 185.131 2027.39 203.257 2023.19 225.613L1996.01 370.262H2364.29Z" fill="url(#paint6_linear_1094_4336)"/>
<g style="mix-blend-mode:multiply" opacity="0.9">
<path fill-rule="evenodd" clip-rule="evenodd" d="M2075.39 370.262C2133.07 286.752 2240.28 182.3 2415.7 182.3C2585.81 182.3 2682.01 82.9951 2732.69 0H2443.35C2420.67 0 2399.01 18.0266 2394.23 40.3013C2374.91 130.11 2353.43 176.264 2280.09 185.131H2072C2049.25 185.131 2027.39 203.257 2023.19 225.613L1996.01 370.262H2075.39Z" fill="url(#paint7_linear_1094_4336)"/>
</g>
<path fill-rule="evenodd" clip-rule="evenodd" d="M2944.23 370.262C2966.9 370.262 2988.56 352.236 2993.35 329.961C3012.66 240.153 3034.13 193.998 3107.49 185.132H3315.58C3338.33 185.132 3360.18 167.006 3364.38 144.649L3391.57 0H3023.29C3000.62 0 2978.96 18.0266 2974.17 40.3013C2954.86 130.109 2933.38 176.264 2860.04 185.131H2651.94C2629.2 185.131 2607.34 203.257 2603.14 225.613L2575.96 370.262H2944.23Z" fill="url(#paint8_linear_1094_4336)"/>
<g style="mix-blend-mode:multiply" opacity="0.9">
<path fill-rule="evenodd" clip-rule="evenodd" d="M2655.33 370.262C2713.02 286.752 2820.23 182.3 2995.65 182.3C3165.76 182.3 3261.95 82.9951 3312.63 0H3023.29C3000.62 0 2978.96 18.0266 2974.17 40.3013C2954.86 130.11 2933.38 176.264 2860.04 185.131H2651.94C2629.2 185.131 2607.34 203.257 2603.14 225.613L2575.96 370.262H2655.33Z" fill="url(#paint9_linear_1094_4336)"/>
</g>
<path fill-rule="evenodd" clip-rule="evenodd" d="M368.277 740.524C390.943 740.524 412.604 722.498 417.399 700.223C436.703 610.415 458.18 564.26 531.534 555.394H739.629C762.376 555.394 784.221 537.268 788.422 514.911L815.616 370.262H447.339C424.664 370.262 403.003 388.289 398.217 410.563C378.903 500.371 357.426 546.526 284.082 555.393H75.9876C53.2405 555.393 31.3849 573.519 27.1838 595.875L0 740.524H368.277Z" fill="url(#paint10_linear_1094_4336)"/>
<g style="mix-blend-mode:multiply" opacity="0.9">
<path fill-rule="evenodd" clip-rule="evenodd" d="M79.3792 740.524C137.067 657.014 244.275 552.563 419.694 552.563C589.805 552.563 685.999 453.257 736.678 370.262H447.339C424.664 370.262 403.003 388.289 398.217 410.563C378.903 500.372 357.426 546.526 284.082 555.393H75.9876C53.2405 555.393 31.3849 573.519 27.1838 595.875L0 740.524H79.3792Z" fill="url(#paint11_linear_1094_4336)"/>
</g>
<path fill-rule="evenodd" clip-rule="evenodd" d="M948.227 740.524C970.892 740.524 992.553 722.498 997.348 700.223C1016.65 610.415 1038.13 564.26 1111.48 555.394H1319.58C1342.33 555.394 1364.17 537.268 1368.37 514.911L1395.57 370.262H1027.29C1004.61 370.262 982.952 388.289 978.167 410.563C958.852 500.371 937.376 546.526 864.032 555.393H655.937C633.19 555.393 611.334 573.519 607.133 595.875L579.949 740.524H948.227Z" fill="url(#paint12_linear_1094_4336)"/>
<g style="mix-blend-mode:multiply" opacity="0.9">
<path fill-rule="evenodd" clip-rule="evenodd" d="M659.328 740.524C717.016 657.014 824.224 552.563 999.643 552.563C1169.75 552.563 1265.95 453.257 1316.63 370.262H1027.29C1004.61 370.262 982.952 388.289 978.167 410.563C958.852 500.372 937.376 546.526 864.032 555.393H655.937C633.19 555.393 611.334 573.519 607.133 595.875L579.949 740.524H659.328Z" fill="url(#paint13_linear_1094_4336)"/>
</g>
<path fill-rule="evenodd" clip-rule="evenodd" d="M1528.17 740.524C1550.84 740.524 1572.5 722.498 1577.3 700.223C1596.6 610.415 1618.08 564.26 1691.43 555.394H1899.53C1922.27 555.394 1944.12 537.268 1948.32 514.911L1975.51 370.262H1607.24C1584.56 370.262 1562.9 388.289 1558.11 410.563C1538.8 500.371 1517.32 546.526 1443.98 555.393H1235.88C1213.14 555.393 1191.28 573.519 1187.08 595.875L1159.9 740.524H1528.17Z" fill="url(#paint14_linear_1094_4336)"/>
<g style="mix-blend-mode:multiply" opacity="0.9">
<path fill-rule="evenodd" clip-rule="evenodd" d="M1239.28 740.524C1296.96 657.014 1404.17 552.563 1579.59 552.563C1749.7 552.563 1845.9 453.257 1896.57 370.262H1607.24C1584.56 370.262 1562.9 388.289 1558.11 410.563C1538.8 500.372 1517.32 546.526 1443.98 555.393H1235.88C1213.14 555.393 1191.28 573.519 1187.08 595.875L1159.9 740.524H1239.28Z" fill="url(#paint15_linear_1094_4336)"/>
</g>
<path fill-rule="evenodd" clip-rule="evenodd" d="M2108.12 740.524C2130.79 740.524 2152.45 722.498 2157.24 700.223C2176.55 610.415 2198.02 564.26 2271.38 555.394H2479.47C2502.22 555.394 2524.06 537.268 2528.27 514.911L2555.46 370.262H2187.18C2164.51 370.262 2142.85 388.289 2138.06 410.563C2118.75 500.371 2097.27 546.526 2023.93 555.393H1815.83C1793.08 555.393 1771.23 573.519 1767.03 595.875L1739.84 740.524H2108.12Z" fill="url(#paint16_linear_1094_4336)"/>
<g style="mix-blend-mode:multiply" opacity="0.9">
<path fill-rule="evenodd" clip-rule="evenodd" d="M1819.22 740.524C1876.91 657.014 1984.12 552.563 2159.54 552.563C2329.65 552.563 2425.84 453.257 2476.52 370.262H2187.18C2164.51 370.262 2142.85 388.289 2138.06 410.563C2118.75 500.372 2097.27 546.526 2023.93 555.393H1815.83C1793.08 555.393 1771.23 573.519 1767.03 595.875L1739.84 740.524H1819.22Z" fill="url(#paint17_linear_1094_4336)"/>
</g>
<path fill-rule="evenodd" clip-rule="evenodd" d="M2688.07 740.524C2710.74 740.524 2732.4 722.498 2737.19 700.223C2756.5 610.415 2777.97 564.26 2851.33 555.394H3059.42C3082.17 555.394 3104.01 537.268 3108.22 514.911L3135.41 370.262H2767.13C2744.46 370.262 2722.8 388.289 2718.01 410.563C2698.7 500.371 2677.22 546.526 2603.88 555.393H2395.78C2373.03 555.393 2351.18 573.519 2346.98 595.875L2319.79 740.524H2688.07Z" fill="url(#paint18_linear_1094_4336)"/>
<g style="mix-blend-mode:multiply" opacity="0.9">
<path fill-rule="evenodd" clip-rule="evenodd" d="M2399.17 740.524C2456.86 657.014 2564.07 552.563 2739.49 552.563C2909.6 552.563 3005.79 453.257 3056.47 370.262H2767.13C2744.46 370.262 2722.8 388.289 2718.01 410.563C2698.7 500.372 2677.22 546.526 2603.88 555.393H2395.78C2373.03 555.393 2351.18 573.519 2346.98 595.875L2319.79 740.524H2399.17Z" fill="url(#paint19_linear_1094_4336)"/>
</g>
<defs>
<linearGradient id="paint0_linear_1094_4336" x1="256.162" y1="185.132" x2="1071.78" y2="185.132" gradientUnits="userSpaceOnUse">
<stop stop-color="#00DFEA"/>
<stop offset="1" stop-color="#DBF7A3"/>
</linearGradient>
<linearGradient id="paint1_linear_1094_4336" x1="623.702" y1="199.341" x2="602.41" y2="127.095" gradientUnits="userSpaceOnUse">
<stop stop-color="#00DFEA"/>
<stop offset="1" stop-color="#DBF7A3" stop-opacity="0"/>
</linearGradient>
<linearGradient id="paint2_linear_1094_4336" x1="836.109" y1="185.132" x2="1651.73" y2="185.132" gradientUnits="userSpaceOnUse">
<stop stop-color="#00DFEA"/>
<stop offset="1" stop-color="#DBF7A3"/>
</linearGradient>
<linearGradient id="paint3_linear_1094_4336" x1="1203.65" y1="199.341" x2="1182.36" y2="127.095" gradientUnits="userSpaceOnUse">
<stop stop-color="#00DFEA"/>
<stop offset="1" stop-color="#DBF7A3" stop-opacity="0"/>
</linearGradient>
<linearGradient id="paint4_linear_1094_4336" x1="1416.06" y1="185.132" x2="2231.67" y2="185.132" gradientUnits="userSpaceOnUse">
<stop stop-color="#00DFEA"/>
<stop offset="1" stop-color="#DBF7A3"/>
</linearGradient>
<linearGradient id="paint5_linear_1094_4336" x1="1783.6" y1="199.341" x2="1762.31" y2="127.095" gradientUnits="userSpaceOnUse">
<stop stop-color="#00DFEA"/>
<stop offset="1" stop-color="#DBF7A3" stop-opacity="0"/>
</linearGradient>
<linearGradient id="paint6_linear_1094_4336" x1="1996.01" y1="185.132" x2="2811.62" y2="185.132" gradientUnits="userSpaceOnUse">
<stop stop-color="#00DFEA"/>
<stop offset="1" stop-color="#DBF7A3"/>
</linearGradient>
<linearGradient id="paint7_linear_1094_4336" x1="2363.55" y1="199.341" x2="2342.26" y2="127.095" gradientUnits="userSpaceOnUse">
<stop stop-color="#00DFEA"/>
<stop offset="1" stop-color="#DBF7A3" stop-opacity="0"/>
</linearGradient>
<linearGradient id="paint8_linear_1094_4336" x1="2575.96" y1="185.132" x2="3391.57" y2="185.132" gradientUnits="userSpaceOnUse">
<stop stop-color="#00DFEA"/>
<stop offset="1" stop-color="#DBF7A3"/>
</linearGradient>
<linearGradient id="paint9_linear_1094_4336" x1="2943.49" y1="199.341" x2="2922.2" y2="127.095" gradientUnits="userSpaceOnUse">
<stop stop-color="#00DFEA"/>
<stop offset="1" stop-color="#DBF7A3" stop-opacity="0"/>
</linearGradient>
<linearGradient id="paint10_linear_1094_4336" x1="0" y1="555.394" x2="815.616" y2="555.394" gradientUnits="userSpaceOnUse">
<stop stop-color="#00DFEA"/>
<stop offset="1" stop-color="#DBF7A3"/>
</linearGradient>
<linearGradient id="paint11_linear_1094_4336" x1="367.54" y1="569.604" x2="346.248" y2="497.357" gradientUnits="userSpaceOnUse">
<stop stop-color="#00DFEA"/>
<stop offset="1" stop-color="#DBF7A3" stop-opacity="0"/>
</linearGradient>
<linearGradient id="paint12_linear_1094_4336" x1="579.949" y1="555.394" x2="1395.57" y2="555.394" gradientUnits="userSpaceOnUse">
<stop stop-color="#00DFEA"/>
<stop offset="1" stop-color="#DBF7A3"/>
</linearGradient>
<linearGradient id="paint13_linear_1094_4336" x1="947.489" y1="569.604" x2="926.197" y2="497.357" gradientUnits="userSpaceOnUse">
<stop stop-color="#00DFEA"/>
<stop offset="1" stop-color="#DBF7A3" stop-opacity="0"/>
</linearGradient>
<linearGradient id="paint14_linear_1094_4336" x1="1159.9" y1="555.394" x2="1975.51" y2="555.394" gradientUnits="userSpaceOnUse">
<stop stop-color="#00DFEA"/>
<stop offset="1" stop-color="#DBF7A3"/>
</linearGradient>
<linearGradient id="paint15_linear_1094_4336" x1="1527.44" y1="569.604" x2="1506.14" y2="497.357" gradientUnits="userSpaceOnUse">
<stop stop-color="#00DFEA"/>
<stop offset="1" stop-color="#DBF7A3" stop-opacity="0"/>
</linearGradient>
<linearGradient id="paint16_linear_1094_4336" x1="1739.84" y1="555.394" x2="2555.46" y2="555.394" gradientUnits="userSpaceOnUse">
<stop stop-color="#00DFEA"/>
<stop offset="1" stop-color="#DBF7A3"/>
</linearGradient>
<linearGradient id="paint17_linear_1094_4336" x1="2107.38" y1="569.604" x2="2086.09" y2="497.357" gradientUnits="userSpaceOnUse">
<stop stop-color="#00DFEA"/>
<stop offset="1" stop-color="#DBF7A3" stop-opacity="0"/>
</linearGradient>
<linearGradient id="paint18_linear_1094_4336" x1="2319.79" y1="555.394" x2="3135.41" y2="555.394" gradientUnits="userSpaceOnUse">
<stop stop-color="#00DFEA"/>
<stop offset="1" stop-color="#DBF7A3"/>
</linearGradient>
<linearGradient id="paint19_linear_1094_4336" x1="2687.33" y1="569.604" x2="2666.04" y2="497.357" gradientUnits="userSpaceOnUse">
<stop stop-color="#00DFEA"/>
<stop offset="1" stop-color="#DBF7A3" stop-opacity="0"/>
</linearGradient>
</defs>
</svg>
