<svg width="530" height="181" viewBox="0 0 530 181" fill="none" xmlns="http://www.w3.org/2000/svg">
<path d="M26.9928 112.068L39.5373 112.068L39.1643 107.695L27.3996 107.695L26.9928 112.068ZM33.1973 101.626L36.5537 109.322L36.3503 110.781L39.1982 116.645L45.7077 116.645L33.1973 91.4209L20.7207 116.645L27.1962 116.645L30.1459 110.543L29.8746 109.288L33.1973 101.626Z" fill="#252525"/>
<path d="M58.8365 107.151L58.8365 116.645L64.1594 116.645L64.1594 106.61C64.1594 104.733 63.7187 103.276 62.8371 102.237C61.9556 101.196 60.543 100.676 58.5992 100.676C57.4464 100.676 56.4745 100.914 55.6834 101.389C54.9149 101.862 54.3046 102.53 53.8527 103.389L53.8527 101.049L48.6992 101.049L48.6992 116.645L53.8527 116.645L53.8527 107.151C53.8527 106.542 53.9657 106.021 54.1916 105.592C54.4177 105.162 54.7342 104.835 55.141 104.61C55.5478 104.383 56.0225 104.271 56.565 104.271C57.3787 104.271 57.955 104.519 58.294 105.016C58.6556 105.514 58.8365 106.226 58.8365 107.151Z" fill="#252525"/>
<path d="M79.358 107.151L79.358 116.645L84.6809 116.645L84.6809 106.61C84.6809 104.733 84.2401 103.276 83.3585 102.237C82.4771 101.196 81.0645 100.676 79.1207 100.676C77.9679 100.676 76.996 100.914 76.2049 101.389C75.4364 101.862 74.8261 102.53 74.374 103.389L74.374 101.049L69.2207 101.049L69.2207 116.645L74.374 116.645L74.374 107.151C74.374 106.542 74.4872 106.021 74.7131 105.592C74.9392 105.162 75.2556 104.835 75.6625 104.61C76.0693 104.383 76.5439 104.271 77.0864 104.271C77.9001 104.271 78.4764 104.519 78.8155 105.016C79.1771 105.514 79.358 106.226 79.358 107.151Z" fill="#252525"/>
<path d="M95.095 110.539L95.095 101.045L89.7383 101.045L89.7383 111.082C89.7383 112.935 90.179 114.393 91.0606 115.455C91.9646 116.494 93.3886 117.014 95.3323 117.014C96.4851 117.014 97.4457 116.778 98.2143 116.303C98.9828 115.805 99.6042 115.139 100.079 114.303L100.079 116.642L105.198 116.642L105.198 101.045L100.079 101.045L100.079 110.539C100.079 111.15 99.9659 111.669 99.7399 112.098C99.5139 112.528 99.1974 112.855 98.7905 113.082C98.4064 113.308 97.9316 113.421 97.3666 113.421C96.5303 113.421 95.9426 113.173 95.6037 112.675C95.2646 112.155 95.095 111.443 95.095 110.539Z" fill="#252525"/>
<path d="M114.222 111.763C114.222 111.379 114.312 111.063 114.493 110.814C114.674 110.543 114.945 110.34 115.307 110.204C115.668 110.068 116.154 110 116.765 110C117.556 110 118.302 110.113 119.002 110.34C119.725 110.543 120.358 110.848 120.901 111.254L120.901 108.984C120.63 108.69 120.223 108.407 119.68 108.136C119.138 107.865 118.482 107.638 117.714 107.458C116.968 107.277 116.12 107.186 115.171 107.186C113.227 107.186 111.724 107.627 110.662 108.509C109.6 109.368 109.068 110.543 109.068 112.034C109.068 113.097 109.317 114.002 109.814 114.747C110.334 115.493 111.012 116.059 111.849 116.443C112.707 116.804 113.634 116.984 114.629 116.984C115.623 116.984 116.55 116.816 117.409 116.477C118.268 116.114 118.968 115.595 119.511 114.916C120.053 114.216 120.324 113.368 120.324 112.374L119.782 110.34C119.782 111.063 119.624 111.673 119.307 112.17C118.991 112.668 118.584 113.041 118.087 113.289C117.59 113.538 117.047 113.662 116.459 113.662C116.053 113.662 115.68 113.595 115.341 113.459C115.002 113.3 114.73 113.086 114.527 112.815C114.323 112.52 114.222 112.17 114.222 111.763ZM111.95 105.831C112.176 105.695 112.538 105.525 113.035 105.322C113.532 105.097 114.109 104.904 114.764 104.745C115.442 104.588 116.132 104.508 116.832 104.508C117.307 104.508 117.725 104.554 118.087 104.644C118.471 104.734 118.787 104.881 119.036 105.085C119.285 105.288 119.465 105.536 119.579 105.831C119.714 106.102 119.782 106.429 119.782 106.813L119.782 116.646L124.698 116.646L124.698 105.661C124.698 104.576 124.382 103.661 123.749 102.915C123.116 102.169 122.257 101.604 121.172 101.219C120.087 100.813 118.855 100.61 117.476 100.61C116.007 100.61 114.651 100.801 113.408 101.185C112.165 101.57 111.103 101.976 110.221 102.406L111.95 105.831Z" fill="#252525"/>
<path d="M129.551 90.1987L129.551 116.644L134.704 116.644L134.704 90.1987L129.551 90.1987Z" fill="#252525"/>
<path d="M40.5664 51.1625L53.374 47.979L53.374 88.0299L65.4412 88.0299L65.4412 35.2456L40.5664 40.2797L40.5664 51.1625Z" fill="#252525"/>
<path d="M81.8635 69.8191C81.8635 68.0917 82.2336 66.5617 82.9738 65.2292C83.7636 63.8965 84.8 62.8601 86.0832 62.1198C87.4158 61.3794 88.9212 61.0093 90.5992 61.0093C92.228 61.0093 93.6838 61.3794 94.9672 62.1198C96.2997 62.8601 97.3361 63.8965 98.0765 65.2292C98.8661 66.5617 99.261 68.0917 99.261 69.8191C99.261 71.5959 98.8661 73.1506 98.0765 74.4831C97.3361 75.7663 96.2997 76.7782 94.9672 77.5185C93.6838 78.2094 92.228 78.5549 90.5992 78.5549C88.9212 78.5549 87.4158 78.2094 86.0832 77.5185C84.8 76.7782 83.7636 75.7663 82.9738 74.4831C82.2336 73.1506 81.8635 71.5959 81.8635 69.8191ZM90.4512 36.4307L75.4967 55.4569C73.8185 57.5298 72.3873 59.7508 71.2028 62.1198C70.0676 64.4887 69.5 67.0553 69.5 69.8191C69.5 74.0637 70.4377 77.6418 72.3132 80.5538C74.2381 83.4163 76.7799 85.5879 79.9385 87.0693C83.1466 88.4996 86.7001 89.2155 90.5992 89.2155C94.4489 89.2155 97.953 88.4996 101.112 87.0693C104.32 85.5879 106.862 83.4163 108.737 80.5538C110.662 77.6418 111.624 74.0637 111.624 69.8191C111.624 67.2033 111.156 64.859 110.218 62.7861C109.329 60.7132 108.096 58.961 106.516 57.5298C104.986 56.0492 103.259 54.9386 101.334 54.1984C99.4584 53.4086 97.5582 53.0138 95.6334 53.0138C93.758 53.0138 92.1785 53.2112 90.8953 53.6061C89.6614 54.0009 88.3536 54.8893 86.9716 56.2712L89.5628 55.1608L106.294 36.4307L90.4512 36.4307Z" fill="#252525"/>
<path d="M117.371 44.3281L117.371 46.1974L123.104 46.1974L123.104 44.3281L117.371 44.3281ZM119.24 40.3403L119.24 55.793L121.234 55.793L121.234 40.3403L119.24 40.3403Z" fill="#252525"/>
<path d="M127.841 36.353L125.848 36.353L125.848 55.7935L127.841 55.7935L127.841 36.353ZM133.2 48.8149L133.2 55.7935L135.194 55.7935L135.194 48.5657C135.194 47.5687 135.028 46.738 134.696 46.0733C134.38 45.4087 133.923 44.9101 133.325 44.5778C132.743 44.2456 132.054 44.0794 131.256 44.0794C130.458 44.0794 129.752 44.2871 129.138 44.7025C128.539 45.1179 128.066 45.6829 127.717 46.3973C127.368 47.0952 127.194 47.9011 127.194 48.8149L127.841 48.8149C127.841 48.2665 127.958 47.7765 128.19 47.3444C128.44 46.9125 128.78 46.5718 129.212 46.3225C129.661 46.0733 130.176 45.9487 130.758 45.9487C131.572 45.9487 132.178 46.1896 132.577 46.6715C132.992 47.1533 133.2 47.8678 133.2 48.8149Z" fill="#252525"/>
<path d="M190.018 83.7438L184.834 70.0356L179.75 83.7438L175.115 70.908L172.746 70.908L179.6 89.2273L184.834 75.6684L190.069 89.2273L196.923 70.908L194.554 70.908L190.018 83.7438Z" fill="#252525"/>
<path d="M196.801 82.6224C196.801 83.7688 197.059 84.7991 197.575 85.7129C198.106 86.6106 198.821 87.3166 199.718 87.8312C200.614 88.3472 201.621 88.6037 202.733 88.6037C203.863 88.6037 204.868 88.3472 205.749 87.8312C206.646 87.3166 207.352 86.6106 207.868 85.7129C208.399 84.7991 208.665 83.7688 208.665 82.6224C208.665 81.4593 208.399 80.4291 207.868 79.5318C207.352 78.6346 206.646 77.9284 205.749 77.4133C204.868 76.8982 203.863 76.6406 202.733 76.6406C201.621 76.6406 200.614 76.8982 199.718 77.4133C198.821 77.9284 198.106 78.6346 197.575 79.5318C197.059 80.4291 196.801 81.4593 196.801 82.6224ZM198.821 82.6224C198.821 81.8249 198.987 81.1186 199.318 80.5038C199.667 79.8724 200.134 79.3822 200.715 79.0334C201.313 78.6844 201.985 78.51 202.733 78.51C203.48 78.51 204.145 78.6844 204.726 79.0334C205.325 79.3822 205.791 79.8724 206.123 80.5038C206.472 81.1186 206.646 81.8249 206.646 82.6224C206.646 83.4199 206.472 84.126 206.123 84.7408C205.791 85.3556 205.325 85.8458 204.726 86.2114C204.145 86.561 203.48 86.7354 202.733 86.7354C201.985 86.7354 201.313 86.561 200.715 86.2114C200.134 85.8458 199.667 85.3556 199.318 84.7408C198.987 84.126 198.821 83.4199 198.821 82.6224Z" fill="#252525"/>
<path d="M214.147 76.89L212.152 76.89L212.152 88.3543L214.147 88.3543L214.147 76.89ZM217.611 79.0833L218.707 77.4383C218.408 77.1225 218.076 76.9148 217.711 76.8151C217.362 76.6989 216.979 76.6406 216.564 76.6406C216.032 76.6406 215.509 76.8483 214.993 77.2638C214.479 77.6791 214.055 78.244 213.723 78.9585C213.407 79.6564 213.25 80.4623 213.25 81.3762L214.147 81.3762C214.147 80.8279 214.197 80.3377 214.296 79.9057C214.412 79.4737 214.612 79.133 214.894 78.8838C215.176 78.6346 215.567 78.51 216.065 78.51C216.398 78.51 216.672 78.5597 216.888 78.6595C217.104 78.7426 217.345 78.8838 217.611 79.0833Z" fill="#252525"/>
<path d="M221.441 68.9131L221.441 88.353L223.436 88.353L223.436 68.9131L221.441 68.9131Z" fill="#252525"/>
<path d="M236.533 68.9131L236.533 88.353L238.528 88.353L238.528 68.9131L236.533 68.9131ZM226.937 82.6211C226.937 83.8506 227.195 84.9141 227.71 85.8114C228.226 86.7086 228.915 87.3975 229.78 87.8795C230.643 88.3615 231.59 88.6025 232.621 88.6025C233.585 88.6025 234.424 88.3615 235.138 87.8795C235.853 87.3975 236.408 86.7086 236.808 85.8114C237.223 84.9141 237.43 83.8506 237.43 82.6211C237.43 81.3749 237.223 80.3115 236.808 79.4308C236.408 78.5337 235.853 77.844 235.138 77.3622C234.424 76.8803 233.585 76.6393 232.621 76.6393C231.59 76.6393 230.643 76.8803 229.78 77.3622C228.915 77.844 228.226 78.5337 227.71 79.4308C227.195 80.3115 226.937 81.3749 226.937 82.6211ZM228.958 82.6211C228.958 81.7405 229.132 80.9927 229.481 80.3779C229.846 79.7631 230.328 79.2979 230.925 78.9822C231.523 78.6665 232.173 78.5087 232.87 78.5087C233.451 78.5087 234.024 78.6665 234.59 78.9822C235.155 79.2979 235.62 79.7631 235.986 80.3779C236.35 80.9927 236.533 81.7405 236.533 82.6211C236.533 83.5017 236.35 84.2495 235.986 84.8642C235.62 85.479 235.155 85.9442 234.59 86.2599C234.024 86.5753 233.451 86.7341 232.87 86.7341C232.173 86.7341 231.523 86.5753 230.925 86.2599C230.328 85.9442 229.846 85.479 229.481 84.8642C229.132 84.2495 228.958 83.5017 228.958 82.6211Z" fill="#252525"/>
<path d="M175.729 108.152C175.729 106.789 176.028 105.601 176.626 104.587C177.242 103.558 178.038 102.752 179.019 102.17C179.999 101.589 181.063 101.298 182.209 101.298C183.039 101.298 183.796 101.406 184.477 101.622C185.176 101.839 185.807 102.145 186.372 102.545C186.936 102.926 187.418 103.375 187.817 103.89L187.817 101.099C187.087 100.451 186.289 99.9688 185.424 99.6527C184.56 99.3366 183.489 99.1792 182.209 99.1792C180.997 99.1792 179.858 99.4032 178.795 99.8525C177.748 100.285 176.826 100.907 176.028 101.721C175.23 102.519 174.608 103.466 174.158 104.563C173.71 105.659 173.486 106.855 173.486 108.152C173.486 109.448 173.71 110.645 174.158 111.74C174.608 112.838 175.23 113.793 176.028 114.607C176.826 115.405 177.748 116.027 178.795 116.477C179.858 116.909 180.997 117.124 182.209 117.124C183.489 117.124 184.56 116.967 185.424 116.651C186.289 116.335 187.087 115.853 187.817 115.205L187.817 112.414C187.418 112.928 186.936 113.386 186.372 113.785C185.807 114.167 185.176 114.466 184.477 114.682C183.796 114.897 183.039 115.007 182.209 115.007C181.063 115.007 179.999 114.714 179.019 114.133C178.038 113.552 177.242 112.747 176.626 111.716C176.028 110.686 175.729 109.498 175.729 108.152Z" fill="#252525"/>
<path d="M191.172 111.145C191.172 112.292 191.43 113.322 191.944 114.237C192.476 115.134 193.191 115.84 194.088 116.354C194.985 116.869 195.99 117.127 197.104 117.127C198.234 117.127 199.239 116.869 200.12 116.354C201.017 115.84 201.723 115.134 202.239 114.237C202.771 113.322 203.036 112.292 203.036 111.145C203.036 109.982 202.771 108.952 202.239 108.055C201.723 107.157 201.017 106.451 200.12 105.937C199.239 105.421 198.234 105.164 197.104 105.164C195.99 105.164 194.985 105.421 194.088 105.937C193.191 106.451 192.476 107.157 191.944 108.055C191.43 108.952 191.172 109.982 191.172 111.145ZM193.191 111.145C193.191 110.348 193.358 109.642 193.69 109.027C194.038 108.396 194.503 107.906 195.086 107.557C195.684 107.207 196.356 107.032 197.104 107.032C197.852 107.032 198.516 107.207 199.098 107.557C199.696 107.906 200.161 108.396 200.494 109.027C200.843 109.642 201.017 110.348 201.017 111.145C201.017 111.943 200.843 112.649 200.494 113.264C200.161 113.879 199.696 114.368 199.098 114.734C198.516 115.083 197.852 115.257 197.104 115.257C196.356 115.257 195.684 115.083 195.086 114.734C194.503 114.368 194.038 113.879 193.69 113.264C193.358 112.649 193.191 111.943 193.191 111.145Z" fill="#252525"/>
<path d="M213.876 109.899L213.876 116.878L215.87 116.878L215.87 109.649C215.87 108.271 215.512 107.183 214.798 106.385C214.1 105.571 213.145 105.164 211.932 105.164C211.184 105.164 210.52 105.33 209.938 105.662C209.373 105.995 208.899 106.509 208.517 107.207L208.517 105.414L206.523 105.414L206.523 116.878L208.517 116.878L208.517 109.899C208.517 109.335 208.633 108.836 208.867 108.403C209.115 107.972 209.456 107.639 209.887 107.407C210.337 107.157 210.851 107.032 211.433 107.032C212.231 107.032 212.837 107.273 213.253 107.755C213.668 108.237 213.876 108.952 213.876 109.899Z" fill="#252525"/>
<path d="M219.585 117.626C219.585 118.606 219.826 119.47 220.306 120.217C220.788 120.981 221.453 121.571 222.301 121.988C223.166 122.403 224.154 122.61 225.266 122.61C226.23 122.61 227.145 122.386 228.008 121.937C228.873 121.489 229.579 120.816 230.127 119.918C230.676 119.038 230.95 117.941 230.95 116.628L230.95 105.414L228.955 105.414L228.955 116.628C228.955 117.592 228.765 118.373 228.382 118.971C228.017 119.587 227.552 120.035 226.986 120.318C226.422 120.6 225.849 120.74 225.266 120.74C224.519 120.74 223.872 120.592 223.323 120.293C222.774 120.01 222.35 119.628 222.051 119.146C221.752 118.681 221.603 118.173 221.603 117.626L219.585 117.626ZM219.359 111.145C219.359 112.375 219.617 113.438 220.132 114.336C220.648 115.233 221.337 115.922 222.202 116.404C223.065 116.886 224.012 117.127 225.042 117.127C226.006 117.127 226.846 116.886 227.56 116.404C228.275 115.922 228.83 115.233 229.23 114.336C229.645 113.438 229.852 112.375 229.852 111.145C229.852 109.899 229.645 108.836 229.23 107.955C228.83 107.058 228.275 106.369 227.56 105.887C226.846 105.405 226.006 105.164 225.042 105.164C224.012 105.164 223.065 105.405 222.202 105.887C221.337 106.369 220.648 107.058 220.132 107.955C219.617 108.836 219.359 109.899 219.359 111.145ZM221.379 111.145C221.379 110.265 221.554 109.517 221.903 108.902C222.268 108.287 222.75 107.822 223.347 107.506C223.945 107.191 224.595 107.032 225.292 107.032C225.724 107.032 226.155 107.125 226.588 107.307C227.02 107.49 227.41 107.755 227.759 108.104C228.124 108.454 228.415 108.885 228.632 109.401C228.847 109.899 228.955 110.481 228.955 111.145C228.955 112.027 228.772 112.774 228.408 113.389C228.042 114.003 227.577 114.469 227.011 114.784C226.446 115.1 225.873 115.257 225.292 115.257C224.595 115.257 223.945 115.1 223.347 114.784C222.75 114.469 222.268 114.003 221.903 113.389C221.554 112.774 221.379 112.027 221.379 111.145Z" fill="#252525"/>
<path d="M237.325 105.414L235.33 105.414L235.33 116.878L237.325 116.878L237.325 105.414ZM240.789 107.607L241.885 105.961C241.586 105.646 241.254 105.438 240.888 105.338C240.54 105.222 240.157 105.164 239.742 105.164C239.21 105.164 238.687 105.371 238.172 105.786C237.656 106.202 237.232 106.767 236.901 107.482C236.585 108.179 236.427 108.986 236.427 109.899L237.325 109.899C237.325 109.352 237.374 108.861 237.473 108.429C237.59 107.996 237.79 107.656 238.072 107.407C238.355 107.157 238.745 107.032 239.244 107.032C239.576 107.032 239.849 107.083 240.066 107.183C240.282 107.266 240.523 107.407 240.789 107.607Z" fill="#252525"/>
<path d="M248.688 117.127C249.918 117.127 250.981 116.886 251.878 116.404C252.791 115.907 253.548 115.175 254.147 114.211L252.526 113.189C252.111 113.886 251.603 114.411 251.005 114.76C250.407 115.091 249.718 115.257 248.937 115.257C248.156 115.257 247.491 115.091 246.944 114.76C246.395 114.427 245.98 113.945 245.698 113.314C245.414 112.683 245.274 111.917 245.274 111.02C245.29 110.14 245.44 109.401 245.722 108.803C246.021 108.188 246.436 107.723 246.968 107.407C247.517 107.075 248.173 106.908 248.937 106.908C249.585 106.908 250.15 107.049 250.632 107.332C251.114 107.615 251.487 108.005 251.754 108.504C252.036 109.001 252.178 109.591 252.178 110.273C252.178 110.389 252.152 110.54 252.102 110.722C252.053 110.888 252.003 111.013 251.954 111.095L252.75 109.948L244.525 109.948L244.525 111.644L254.321 111.644C254.321 111.611 254.321 111.536 254.321 111.42C254.338 111.287 254.345 111.162 254.345 111.046C254.345 109.832 254.13 108.786 253.697 107.906C253.266 107.025 252.643 106.352 251.829 105.887C251.031 105.405 250.067 105.164 248.937 105.164C247.807 105.164 246.811 105.414 245.946 105.911C245.1 106.41 244.435 107.108 243.953 108.005C243.488 108.902 243.254 109.948 243.254 111.145C243.254 112.326 243.479 113.363 243.927 114.261C244.392 115.158 245.033 115.864 245.847 116.38C246.677 116.878 247.624 117.127 248.688 117.127Z" fill="#252525"/>
<path d="M258.303 113.363L256.732 114.336C256.948 114.784 257.264 115.225 257.679 115.657C258.112 116.088 258.635 116.445 259.25 116.729C259.865 116.994 260.554 117.127 261.318 117.127C262.498 117.127 263.445 116.795 264.159 116.13C264.891 115.466 265.256 114.635 265.256 113.638C265.256 112.957 265.091 112.399 264.757 111.968C264.443 111.536 264.01 111.17 263.462 110.871C262.913 110.555 262.308 110.265 261.643 109.999C261.243 109.832 260.862 109.658 260.496 109.475C260.13 109.292 259.831 109.085 259.599 108.853C259.366 108.62 259.25 108.354 259.25 108.055C259.25 107.673 259.399 107.39 259.698 107.207C259.997 107.025 260.354 106.933 260.77 106.933C261.368 106.933 261.9 107.075 262.366 107.357C262.846 107.639 263.246 107.996 263.562 108.429L265.157 107.407C264.925 106.974 264.6 106.593 264.185 106.26C263.769 105.928 263.287 105.662 262.739 105.463C262.207 105.263 261.634 105.164 261.019 105.164C260.404 105.164 259.807 105.272 259.225 105.487C258.66 105.704 258.195 106.036 257.83 106.485C257.481 106.933 257.305 107.499 257.305 108.179C257.305 108.844 257.472 109.401 257.804 109.849C258.153 110.282 258.577 110.639 259.076 110.921C259.59 111.187 260.098 111.42 260.595 111.618C261.045 111.786 261.469 111.968 261.867 112.167C262.265 112.35 262.59 112.582 262.839 112.866C263.104 113.131 263.238 113.464 263.238 113.862C263.238 114.31 263.072 114.668 262.739 114.934C262.424 115.184 261.983 115.308 261.418 115.308C260.953 115.308 260.522 115.225 260.122 115.059C259.741 114.876 259.399 114.635 259.1 114.336C258.801 114.037 258.536 113.712 258.303 113.363Z" fill="#252525"/>
<path d="M269.099 113.363L267.529 114.336C267.745 114.784 268.061 115.225 268.476 115.657C268.909 116.088 269.432 116.445 270.046 116.729C270.661 116.994 271.351 117.127 272.115 117.127C273.295 117.127 274.242 116.795 274.956 116.13C275.687 115.466 276.053 114.635 276.053 113.638C276.053 112.957 275.886 112.399 275.554 111.968C275.238 111.536 274.807 111.17 274.259 110.871C273.71 110.555 273.103 110.265 272.438 109.999C272.04 109.832 271.657 109.658 271.292 109.475C270.927 109.292 270.628 109.085 270.396 108.853C270.162 108.62 270.046 108.354 270.046 108.055C270.046 107.673 270.196 107.39 270.495 107.207C270.794 107.025 271.151 106.933 271.567 106.933C272.165 106.933 272.696 107.075 273.161 107.357C273.643 107.639 274.042 107.996 274.358 108.429L275.953 107.407C275.72 106.974 275.397 106.593 274.982 106.26C274.566 105.928 274.084 105.662 273.536 105.463C273.004 105.263 272.43 105.164 271.816 105.164C271.201 105.164 270.603 105.272 270.021 105.487C269.456 105.704 268.991 106.036 268.625 106.485C268.276 106.933 268.102 107.499 268.102 108.179C268.102 108.844 268.268 109.401 268.601 109.849C268.95 110.282 269.374 110.639 269.871 110.921C270.387 111.187 270.893 111.42 271.392 111.618C271.84 111.786 272.264 111.968 272.664 112.167C273.062 112.35 273.385 112.582 273.635 112.866C273.901 113.131 274.035 113.464 274.035 113.862C274.035 114.31 273.867 114.668 273.536 114.934C273.219 115.184 272.78 115.308 272.214 115.308C271.749 115.308 271.317 115.225 270.919 115.059C270.536 114.876 270.196 114.635 269.897 114.336C269.598 114.037 269.331 113.712 269.099 113.363Z" fill="#252525"/>
<path d="M176.9 46.2821L182.583 56.4509L188.266 46.2821L189.562 58.071L191.68 58.071L189.562 39.752L182.583 52.3883L175.604 39.752L173.486 58.071L175.604 58.071L176.9 46.2821Z" fill="#252525"/>
<path d="M201.637 54.1357L195.904 40.627L193.537 40.627L201.637 58.946L209.737 40.627L207.368 40.627L201.637 54.1357Z" fill="#252525"/>
<path d="M225.822 40.6243L225.822 53.6097L212.611 39.752L212.611 58.071L214.731 58.071L214.731 45.0858L227.94 58.9433L227.94 40.6243L225.822 40.6243Z" fill="#252525"/>
<path d="M233.926 49.3495C233.926 48.0369 234.208 46.8654 234.772 45.8352C235.355 44.8051 236.143 43.9909 237.141 43.3927C238.137 42.7945 239.267 42.4955 240.53 42.4955C241.809 42.4955 242.939 42.7945 243.92 43.3927C244.916 43.9909 245.697 44.8051 246.263 45.8352C246.844 46.8654 247.135 48.0369 247.135 49.3495C247.135 50.6621 246.844 51.8336 246.263 52.8637C245.697 53.8939 244.916 54.7081 243.92 55.3062C242.939 55.9044 241.809 56.2036 240.53 56.2036C239.267 56.2036 238.137 55.9044 237.141 55.3062C236.143 54.7081 235.355 53.8939 234.772 52.8637C234.208 51.8336 233.926 50.6621 233.926 49.3495ZM231.682 49.3495C231.682 50.6123 231.899 51.792 232.329 52.8887C232.779 53.9853 233.401 54.9408 234.199 55.7549C234.997 56.5524 235.936 57.1838 237.016 57.6491C238.096 58.0977 239.267 58.322 240.53 58.322C241.809 58.322 242.981 58.0977 244.044 57.6491C245.125 57.1838 246.063 56.5524 246.861 55.7549C247.658 54.9408 248.273 53.9853 248.705 52.8887C249.153 51.792 249.377 50.6123 249.377 49.3495C249.377 48.07 249.153 46.8903 248.705 45.8103C248.273 44.7136 247.658 43.7665 246.861 42.969C246.063 42.1549 245.125 41.5235 244.044 41.0748C242.981 40.6096 241.809 40.377 240.53 40.377C239.267 40.377 238.096 40.6096 237.016 41.0748C235.936 41.5235 234.997 42.1549 234.199 42.969C233.401 43.7665 232.779 44.7136 232.329 45.8103C231.899 46.8903 231.682 48.07 231.682 49.3495Z" fill="#252525"/>
<path d="M253.471 54.5584L251.9 55.5304C252.116 55.979 252.432 56.4193 252.847 56.8513C253.28 57.2833 253.803 57.6405 254.418 57.923C255.032 58.189 255.722 58.3218 256.486 58.3218C257.666 58.3218 258.613 57.9895 259.327 57.3248C260.059 56.6603 260.424 55.8294 260.424 54.8326C260.424 54.1513 260.258 53.5946 259.925 53.1627C259.611 52.7306 259.178 52.3651 258.63 52.066C258.081 51.7503 257.474 51.4596 256.811 51.1936C256.411 51.0275 256.03 50.853 255.664 50.6703C255.298 50.4875 254.999 50.2797 254.767 50.0472C254.534 49.8146 254.418 49.5487 254.418 49.2496C254.418 48.8674 254.567 48.585 254.866 48.4021C255.165 48.2194 255.522 48.128 255.938 48.128C256.536 48.128 257.067 48.2693 257.532 48.5517C258.014 48.8342 258.414 49.1914 258.729 49.6235L260.325 48.6016C260.091 48.1696 259.768 47.7875 259.353 47.455C258.937 47.1228 258.455 46.857 257.907 46.6575C257.375 46.4582 256.802 46.3584 256.187 46.3584C255.572 46.3584 254.974 46.4664 254.393 46.6825C253.828 46.8985 253.362 47.2308 252.998 47.6794C252.647 48.128 252.473 48.693 252.473 49.3742C252.473 50.0389 252.64 50.5956 252.972 51.0441C253.321 51.4762 253.745 51.8334 254.244 52.1158C254.758 52.3817 255.264 52.6143 255.763 52.8137C256.213 52.9798 256.635 53.1627 257.035 53.362C257.433 53.5448 257.758 53.7775 258.006 54.0598C258.272 54.3258 258.406 54.6581 258.406 55.0568C258.406 55.5055 258.24 55.8627 257.907 56.1285C257.591 56.3777 257.151 56.5023 256.586 56.5023C256.121 56.5023 255.688 56.4193 255.29 56.2531C254.907 56.0704 254.567 55.8294 254.268 55.5304C253.969 55.2313 253.704 54.9073 253.471 54.5584Z" fill="#252525"/>
<path d="M304.309 104.57L310.784 114.471L317.294 104.57L318.717 116.675L324.752 116.675L320.922 91.7554L310.784 106.232L300.681 91.7554L296.85 116.675L302.884 116.675L304.309 104.57Z" fill="#252525"/>
<path d="M339.351 107.115L333.553 92.9434L326.873 92.9434L339.351 118.168L351.861 92.9434L345.147 92.9434L339.351 107.115Z" fill="#252525"/>
<path d="M371.74 92.9419L371.74 106.3L355.365 91.7554L355.365 116.675L360.857 116.675L360.857 103.316L377.267 117.862L377.267 92.9419L371.74 92.9419Z" fill="#252525"/>
<path d="M387.099 116.677L399.067 116.677L399.067 111.963L387.099 111.963L387.099 116.677ZM387.099 97.6554L399.067 97.6554L399.067 92.9434L387.099 92.9434L387.099 97.6554ZM387.099 106.505L398.388 106.505L398.388 101.894L387.099 101.894L387.099 106.505ZM383.301 92.9434L383.301 116.677L388.794 116.677L388.794 92.9434L383.301 92.9434Z" fill="#252525"/>
<path d="M306.252 55.0203L311.605 55.0203C313.592 55.0203 315.336 54.7478 316.834 54.203C318.36 53.631 319.558 52.8139 320.429 51.7516C321.328 50.6893 321.778 49.4091 321.778 47.911C321.778 46.2766 321.328 44.9282 320.429 43.866C319.558 42.7765 318.36 41.9728 316.834 41.4553C315.336 40.9105 313.592 40.6382 311.605 40.6382L301.104 40.6382L301.104 69.2389L312.298 69.2389C314.559 69.2389 316.521 68.9666 318.183 68.4218C319.844 67.8498 321.124 66.9782 322.023 65.8068C322.95 64.6356 323.412 63.0967 323.412 61.1899C323.412 59.7462 323.086 58.5204 322.431 57.5127C321.806 56.4776 320.961 55.6331 319.898 54.9794C318.836 54.2984 317.651 53.8081 316.344 53.5086C315.037 53.2089 313.687 53.059 312.298 53.059L306.252 53.059L306.252 56.818L311.523 56.818C312.203 56.818 312.817 56.8861 313.361 57.0223C313.933 57.1313 314.437 57.322 314.873 57.5943C315.309 57.8668 315.649 58.2209 315.895 58.6567C316.14 59.0924 316.262 59.61 316.262 60.2093C316.262 61.1354 316.045 61.8709 315.608 62.4157C315.2 62.9332 314.641 63.3145 313.933 63.5596C313.225 63.7775 312.421 63.8866 311.523 63.8866L308.009 63.8866L308.009 45.9905L310.869 45.9905C312.067 45.9905 312.993 46.2358 313.648 46.726C314.301 47.2163 314.627 47.9518 314.627 48.9323C314.627 49.5861 314.478 50.1445 314.178 50.6076C313.879 51.0434 313.444 51.3839 312.871 51.629C312.327 51.8742 311.659 51.9967 310.869 51.9967L306.252 51.9967L306.252 55.0203Z" fill="#252525"/>
<path d="M334.037 69.2389L348.459 69.2389L348.459 63.5596L334.037 63.5596L334.037 69.2389ZM334.037 46.3175L348.459 46.3175L348.459 40.6382L334.037 40.6382L334.037 46.3175ZM334.037 56.9815L347.643 56.9815L347.643 51.4247L334.037 51.4247L334.037 56.9815ZM329.461 40.6382L329.461 69.2389L336.08 69.2389L336.08 40.6382L329.461 40.6382Z" fill="#252525"/>
<path d="M358.448 59.1873L353.627 62.6603C354.282 64.0223 355.193 65.2753 356.366 66.4193C357.537 67.5633 358.912 68.4758 360.492 69.1568C362.098 69.8105 363.828 70.1373 365.681 70.1373C367.016 70.1373 368.309 69.933 369.562 69.5245C370.842 69.1432 371.973 68.5712 372.953 67.8084C373.961 67.0457 374.752 66.106 375.323 64.9892C375.923 63.8452 376.222 62.5514 376.222 61.1077C376.222 59.9092 376.032 58.8468 375.651 57.9207C375.269 56.9946 374.738 56.1774 374.057 55.4692C373.404 54.7611 372.64 54.1617 371.769 53.6715C370.897 53.1539 369.958 52.7044 368.95 52.3231C367.614 51.8601 366.47 51.4242 365.518 51.0157C364.591 50.6071 363.869 50.1576 363.352 49.6673C362.861 49.1771 362.616 48.6051 362.616 47.9513C362.616 47.3248 362.875 46.8073 363.393 46.3986C363.91 45.9628 364.659 45.7449 365.64 45.7449C366.375 45.7449 367.056 45.8948 367.682 46.1943C368.337 46.4668 368.923 46.8617 369.44 47.3793C369.984 47.8696 370.461 48.4552 370.87 49.1362L376.141 46.1943C375.651 45.2138 374.942 44.2468 374.016 43.2934C373.09 42.3401 371.918 41.5502 370.502 40.9236C369.113 40.2972 367.465 39.9839 365.559 39.9839C363.706 39.9839 362.018 40.3108 360.492 40.9646C358.994 41.591 357.795 42.5171 356.896 43.7429C356.024 44.9687 355.589 46.426 355.589 48.1147C355.589 49.5312 355.847 50.7432 356.366 51.7511C356.883 52.7317 357.537 53.5761 358.326 54.2843C359.116 54.9653 359.947 55.5237 360.818 55.9595C361.717 56.3954 362.507 56.7358 363.189 56.981C364.578 57.4986 365.695 57.9615 366.538 58.3701C367.383 58.7788 367.996 59.2145 368.377 59.6777C368.758 60.1134 368.95 60.699 368.95 61.4345C368.95 62.3062 368.622 63.0008 367.969 63.5183C367.315 64.0087 366.484 64.2538 365.477 64.2538C364.522 64.2538 363.611 64.0495 362.739 63.6409C361.894 63.2323 361.105 62.6467 360.369 61.884C359.662 61.1213 359.021 60.2224 358.448 59.1873Z" fill="#252525"/>
<path d="M379.203 46.8078L387.048 46.8078L387.048 69.2389L393.953 69.2389L393.953 46.8078L401.839 46.8078L401.839 40.6382L379.203 40.6382L379.203 46.8078Z" fill="#252525"/>
</svg>
