<svg width="400" height="165" viewBox="0 0 536 181" fill="none" xmlns="http://www.w3.org/2000/svg">
<path d="M128.587 114.381L137.715 114.381L137.444 111.198L128.883 111.198L128.587 114.381ZM133.102 106.783L135.544 112.383L135.396 113.444L137.468 117.711L142.205 117.711L133.102 99.3569L124.023 117.711L128.735 117.711L130.882 113.271L130.684 112.358L133.102 106.783Z" fill="#252525"/>
<path d="M151.759 110.803L151.759 117.711L155.632 117.711L155.632 110.409C155.632 109.043 155.311 107.983 154.67 107.227C154.029 106.47 153.001 106.091 151.586 106.091C150.748 106.091 150.04 106.265 149.465 106.61C148.906 106.955 148.462 107.44 148.133 108.066L148.133 106.363L144.383 106.363L144.383 117.711L148.133 117.711L148.133 110.803C148.133 110.36 148.215 109.981 148.379 109.668C148.544 109.356 148.774 109.118 149.07 108.954C149.366 108.789 149.711 108.707 150.106 108.707C150.698 108.707 151.118 108.888 151.364 109.25C151.627 109.612 151.759 110.13 151.759 110.803Z" fill="#252525"/>
<path d="M166.691 110.803L166.691 117.711L170.564 117.711L170.564 110.409C170.564 109.043 170.243 107.983 169.602 107.227C168.96 106.47 167.932 106.091 166.518 106.091C165.679 106.091 164.972 106.265 164.396 106.61C163.837 106.955 163.393 107.44 163.064 108.066L163.064 106.363L159.314 106.363L159.314 117.711L163.064 117.711L163.064 110.803C163.064 110.36 163.147 109.981 163.311 109.668C163.475 109.356 163.706 109.118 164.002 108.954C164.298 108.789 164.643 108.707 165.038 108.707C165.63 108.707 166.049 108.888 166.296 109.25C166.559 109.612 166.691 110.13 166.691 110.803Z" fill="#252525"/>
<path d="M178.142 113.268L178.142 106.36L174.244 106.36L174.244 113.663C174.244 115.011 174.565 116.073 175.206 116.845C175.864 117.601 176.9 117.98 178.315 117.98C179.153 117.98 179.852 117.808 180.412 117.462C180.971 117.1 181.423 116.615 181.768 116.007L181.768 117.709L185.494 117.709L185.494 106.36L181.768 106.36L181.768 113.268C181.768 113.713 181.686 114.09 181.522 114.403C181.357 114.715 181.127 114.954 180.831 115.119C180.551 115.283 180.206 115.365 179.795 115.365C179.186 115.365 178.759 115.185 178.512 114.823C178.265 114.444 178.142 113.926 178.142 113.268Z" fill="#252525"/>
<path d="M192.058 114.159C192.058 113.88 192.124 113.65 192.256 113.468C192.387 113.271 192.585 113.124 192.848 113.025C193.111 112.926 193.465 112.876 193.909 112.876C194.484 112.876 195.027 112.959 195.537 113.124C196.063 113.271 196.524 113.493 196.918 113.789L196.918 112.136C196.721 111.923 196.425 111.717 196.03 111.52C195.635 111.323 195.159 111.158 194.599 111.027C194.057 110.895 193.44 110.829 192.749 110.829C191.335 110.829 190.241 111.149 189.468 111.791C188.695 112.416 188.309 113.271 188.309 114.356C188.309 115.13 188.49 115.788 188.851 116.33C189.23 116.873 189.723 117.285 190.332 117.564C190.957 117.827 191.631 117.958 192.354 117.958C193.078 117.958 193.752 117.835 194.377 117.589C195.002 117.325 195.512 116.947 195.907 116.453C196.302 115.944 196.499 115.327 196.499 114.604L196.104 113.124C196.104 113.65 195.989 114.093 195.759 114.455C195.529 114.817 195.233 115.089 194.871 115.269C194.509 115.451 194.114 115.54 193.687 115.54C193.391 115.54 193.119 115.492 192.872 115.393C192.626 115.277 192.428 115.122 192.28 114.925C192.132 114.71 192.058 114.455 192.058 114.159ZM190.406 109.842C190.57 109.743 190.833 109.62 191.195 109.472C191.557 109.308 191.976 109.168 192.453 109.052C192.946 108.938 193.448 108.88 193.958 108.88C194.303 108.88 194.608 108.913 194.871 108.979C195.15 109.044 195.381 109.151 195.561 109.3C195.742 109.447 195.874 109.628 195.956 109.842C196.055 110.039 196.104 110.278 196.104 110.557L196.104 117.712L199.681 117.712L199.681 109.719C199.681 108.93 199.451 108.263 198.991 107.721C198.53 107.178 197.905 106.767 197.116 106.487C196.326 106.191 195.43 106.043 194.427 106.043C193.358 106.043 192.371 106.183 191.466 106.462C190.562 106.742 189.789 107.038 189.147 107.35L190.406 109.842Z" fill="#252525"/>
<path d="M203.213 98.4678L203.213 117.71L206.963 117.71L206.963 98.4678L203.213 98.4678Z" fill="#252525"/>
<path d="M138.465 70.0636L147.784 67.7472L147.784 96.8897L156.565 96.8897L156.565 58.4819L138.465 62.1449L138.465 70.0636Z" fill="#252525"/>
<path d="M168.514 83.6389C168.514 82.3819 168.783 81.2686 169.322 80.299C169.896 79.3293 170.65 78.5752 171.584 78.0366C172.554 77.4978 173.649 77.2285 174.87 77.2285C176.055 77.2285 177.115 77.4978 178.048 78.0366C179.018 78.5752 179.772 79.3293 180.311 80.299C180.885 81.2686 181.173 82.3819 181.173 83.6389C181.173 84.9317 180.885 86.063 180.311 87.0326C179.772 87.9663 179.018 88.7025 178.048 89.2412C177.115 89.7439 176.055 89.9953 174.87 89.9953C173.649 89.9953 172.554 89.7439 171.584 89.2412C170.65 88.7025 169.896 87.9663 169.322 87.0326C168.783 86.063 168.514 84.9317 168.514 83.6389ZM174.762 59.3442L163.881 73.1884C162.66 74.6967 161.619 76.3128 160.757 78.0366C159.931 79.7603 159.518 81.6278 159.518 83.6389C159.518 86.7274 160.2 89.3309 161.565 91.4498C162.965 93.5327 164.815 95.1128 167.113 96.1907C169.447 97.2315 172.033 97.7524 174.87 97.7524C177.671 97.7524 180.221 97.2315 182.519 96.1907C184.854 95.1128 186.703 93.5327 188.068 91.4498C189.468 89.3309 190.169 86.7274 190.169 83.6389C190.169 81.7355 189.828 80.0297 189.145 78.5214C188.499 77.013 187.601 75.7381 186.452 74.6967C185.339 73.6194 184.082 72.8113 182.681 72.2727C181.316 71.698 179.934 71.4107 178.533 71.4107C177.169 71.4107 176.019 71.5543 175.086 71.8417C174.188 72.129 173.236 72.7754 172.231 73.7809L174.116 72.9729L186.29 59.3442L174.762 59.3442Z" fill="#252525"/>
<path d="M194.35 65.0906L194.35 66.4507L198.521 66.4507L198.521 65.0906L194.35 65.0906ZM195.71 62.189L195.71 73.4329L197.161 73.4329L197.161 62.189L195.71 62.189Z" fill="#252525"/>
<path d="M201.968 59.2876L200.518 59.2876L200.518 73.4332L201.968 73.4332L201.968 59.2876ZM205.867 68.3553L205.867 73.4332L207.318 73.4332L207.318 68.1739C207.318 67.4485 207.197 66.844 206.956 66.3604C206.726 65.8768 206.393 65.514 205.958 65.2723C205.535 65.0305 205.033 64.9096 204.453 64.9096C203.873 64.9096 203.359 65.0607 202.911 65.3629C202.476 65.6653 202.132 66.0763 201.878 66.5962C201.624 67.104 201.497 67.6904 201.497 68.3553L201.968 68.3553C201.968 67.9563 202.053 67.5997 202.222 67.2853C202.404 66.971 202.652 66.7232 202.966 66.5417C203.292 66.3604 203.667 66.2697 204.09 66.2697C204.683 66.2697 205.124 66.4451 205.414 66.7957C205.716 67.1463 205.867 67.6661 205.867 68.3553Z" fill="#252525"/>
<path d="M247.21 93.7709L243.438 83.7964L239.739 93.7709L236.366 84.4312L234.643 84.4312L239.63 97.7609L243.438 87.895L247.247 97.7609L252.235 84.4312L250.511 84.4312L247.21 93.7709Z" fill="#252525"/>
<path d="M252.146 92.9551C252.146 93.7892 252.334 94.5389 252.71 95.2038C253.096 95.8571 253.616 96.3707 254.269 96.7452C254.921 97.1206 255.654 97.3073 256.463 97.3073C257.285 97.3073 258.017 97.1206 258.657 96.7452C259.31 96.3707 259.824 95.8571 260.199 95.2038C260.586 94.5389 260.779 93.7892 260.779 92.9551C260.779 92.1088 260.586 91.3592 260.199 90.7062C259.824 90.0534 259.31 89.5395 258.657 89.1648C258.017 88.79 257.285 88.6025 256.463 88.6025C255.654 88.6025 254.921 88.79 254.269 89.1648C253.616 89.5395 253.096 90.0534 252.71 90.7062C252.334 91.3592 252.146 92.1088 252.146 92.9551ZM253.616 92.9551C253.616 92.3748 253.737 91.8609 253.978 91.4135C254.232 90.9541 254.572 90.5974 254.994 90.3436C255.43 90.0896 255.919 89.9628 256.463 89.9628C257.007 89.9628 257.491 90.0896 257.914 90.3436C258.349 90.5974 258.688 90.9541 258.93 91.4135C259.183 91.8609 259.31 92.3748 259.31 92.9551C259.31 93.5354 259.183 94.0492 258.93 94.4965C258.688 94.9439 258.349 95.3006 257.914 95.5666C257.491 95.821 257.007 95.9478 256.463 95.9478C255.919 95.9478 255.43 95.821 254.994 95.5666C254.572 95.3006 254.232 94.9439 253.978 94.4965C253.737 94.0492 253.616 93.5354 253.616 92.9551Z" fill="#252525"/>
<path d="M264.768 88.784L263.316 88.784L263.316 97.1258L264.768 97.1258L264.768 88.784ZM267.289 90.3799L268.086 89.183C267.868 88.9531 267.627 88.802 267.361 88.7295C267.107 88.6449 266.829 88.6025 266.526 88.6025C266.14 88.6025 265.759 88.7536 265.383 89.056C265.009 89.3582 264.701 89.7692 264.459 90.2891C264.229 90.7969 264.115 91.3833 264.115 92.0483L264.768 92.0483C264.768 91.6493 264.804 91.2926 264.876 90.9784C264.961 90.664 265.106 90.4161 265.311 90.2348C265.517 90.0534 265.801 89.9628 266.163 89.9628C266.406 89.9628 266.605 89.999 266.763 90.0716C266.919 90.132 267.095 90.2348 267.289 90.3799Z" fill="#252525"/>
<path d="M270.076 82.9795L270.076 97.1246L271.527 97.1246L271.527 82.9795L270.076 82.9795Z" fill="#252525"/>
<path d="M281.056 82.9795L281.056 97.1246L282.508 97.1246L282.508 82.9795L281.056 82.9795ZM274.074 92.9539C274.074 93.8485 274.262 94.6224 274.636 95.2753C275.012 95.9281 275.513 96.4294 276.142 96.7801C276.771 97.1308 277.46 97.3062 278.209 97.3062C278.911 97.3062 279.521 97.1308 280.041 96.7801C280.561 96.4294 280.966 95.9281 281.256 95.2753C281.559 94.6224 281.709 93.8485 281.709 92.9539C281.709 92.0472 281.559 91.2733 281.256 90.6326C280.966 89.9798 280.561 89.4779 280.041 89.1273C279.521 88.7767 278.911 88.6014 278.209 88.6014C277.46 88.6014 276.771 88.7767 276.142 89.1273C275.513 89.4779 275.012 89.9798 274.636 90.6326C274.262 91.2733 274.074 92.0472 274.074 92.9539ZM275.544 92.9539C275.544 92.3132 275.671 91.7691 275.925 91.3217C276.191 90.8744 276.542 90.5358 276.976 90.3061C277.411 90.0764 277.883 89.9616 278.391 89.9616C278.814 89.9616 279.231 90.0764 279.642 90.3061C280.054 90.5358 280.392 90.8744 280.658 91.3217C280.923 91.7691 281.056 92.3132 281.056 92.9539C281.056 93.5947 280.923 94.1388 280.658 94.5861C280.392 95.0334 280.054 95.3719 279.642 95.6017C279.231 95.8312 278.814 95.9467 278.391 95.9467C277.883 95.9467 277.411 95.8312 276.976 95.6017C276.542 95.3719 276.191 95.0334 275.925 94.5861C275.671 94.1388 275.544 93.5947 275.544 92.9539Z" fill="#252525"/>
<path d="M236.813 111.532C236.813 110.539 237.031 109.675 237.466 108.938C237.914 108.189 238.494 107.602 239.208 107.179C239.92 106.756 240.695 106.545 241.528 106.545C242.133 106.545 242.684 106.623 243.179 106.78C243.687 106.938 244.146 107.16 244.558 107.451C244.968 107.729 245.319 108.056 245.609 108.43L245.609 106.399C245.078 105.928 244.497 105.577 243.868 105.347C243.24 105.117 242.46 105.002 241.528 105.002C240.646 105.002 239.818 105.165 239.045 105.492C238.282 105.807 237.612 106.26 237.031 106.852C236.45 107.433 235.998 108.122 235.671 108.92C235.345 109.717 235.182 110.588 235.182 111.532C235.182 112.475 235.345 113.345 235.671 114.142C235.998 114.941 236.45 115.636 237.031 116.228C237.612 116.809 238.282 117.262 239.045 117.589C239.818 117.903 240.646 118.06 241.528 118.06C242.46 118.06 243.24 117.945 243.868 117.715C244.497 117.485 245.078 117.135 245.609 116.663L245.609 114.632C245.319 115.007 244.968 115.34 244.558 115.63C244.146 115.908 243.687 116.126 243.179 116.283C242.684 116.44 242.133 116.519 241.528 116.519C240.695 116.519 239.92 116.306 239.208 115.884C238.494 115.461 237.914 114.875 237.466 114.125C237.031 113.375 236.813 112.511 236.813 111.532Z" fill="#252525"/>
<path d="M248.051 113.709C248.051 114.543 248.239 115.293 248.613 115.958C249 116.611 249.52 117.125 250.173 117.499C250.825 117.874 251.557 118.062 252.368 118.062C253.19 118.062 253.921 117.874 254.562 117.499C255.214 117.125 255.728 116.611 256.104 115.958C256.49 115.293 256.683 114.543 256.683 113.709C256.683 112.863 256.49 112.113 256.104 111.46C255.728 110.807 255.214 110.294 254.562 109.919C253.921 109.544 253.19 109.357 252.368 109.357C251.557 109.357 250.825 109.544 250.173 109.919C249.52 110.294 249 110.807 248.613 111.46C248.239 112.113 248.051 112.863 248.051 113.709ZM249.52 113.709C249.52 113.129 249.641 112.615 249.883 112.168C250.136 111.709 250.475 111.352 250.899 111.098C251.334 110.843 251.823 110.716 252.368 110.716C252.911 110.716 253.395 110.843 253.818 111.098C254.253 111.352 254.591 111.709 254.834 112.168C255.088 112.615 255.214 113.129 255.214 113.709C255.214 114.289 255.088 114.803 254.834 115.251C254.591 115.699 254.253 116.054 253.818 116.32C253.395 116.574 252.911 116.701 252.368 116.701C251.823 116.701 251.334 116.574 250.899 116.32C250.475 116.054 250.136 115.699 249.883 115.251C249.641 114.803 249.52 114.289 249.52 113.709Z" fill="#252525"/>
<path d="M264.571 112.802L264.571 117.88L266.021 117.88L266.021 112.621C266.021 111.618 265.761 110.826 265.241 110.245C264.734 109.653 264.039 109.357 263.156 109.357C262.612 109.357 262.128 109.478 261.706 109.719C261.294 109.961 260.949 110.336 260.671 110.843L260.671 109.538L259.221 109.538L259.221 117.88L260.671 117.88L260.671 112.802C260.671 112.392 260.756 112.028 260.926 111.714C261.106 111.4 261.355 111.158 261.668 110.989C261.995 110.807 262.37 110.716 262.793 110.716C263.373 110.716 263.815 110.892 264.117 111.242C264.419 111.593 264.571 112.113 264.571 112.802Z" fill="#252525"/>
<path d="M268.725 118.425C268.725 119.137 268.9 119.767 269.25 120.31C269.6 120.866 270.084 121.295 270.701 121.599C271.33 121.901 272.049 122.051 272.859 122.051C273.56 122.051 274.225 121.888 274.854 121.561C275.483 121.236 275.997 120.746 276.396 120.093C276.795 119.452 276.994 118.654 276.994 117.699L276.994 109.538L275.543 109.538L275.543 117.699C275.543 118.4 275.404 118.968 275.126 119.404C274.86 119.851 274.521 120.177 274.11 120.383C273.699 120.589 273.283 120.691 272.859 120.691C272.315 120.691 271.844 120.583 271.445 120.365C271.045 120.16 270.737 119.881 270.519 119.53C270.302 119.192 270.193 118.823 270.193 118.425L268.725 118.425ZM268.561 113.709C268.561 114.604 268.748 115.378 269.123 116.031C269.498 116.684 269.999 117.185 270.629 117.536C271.257 117.886 271.946 118.062 272.696 118.062C273.397 118.062 274.008 117.886 274.528 117.536C275.048 117.185 275.452 116.684 275.743 116.031C276.045 115.378 276.196 114.604 276.196 113.709C276.196 112.802 276.045 112.028 275.743 111.388C275.452 110.735 275.048 110.234 274.528 109.883C274.008 109.532 273.397 109.357 272.696 109.357C271.946 109.357 271.257 109.532 270.629 109.883C269.999 110.234 269.498 110.735 269.123 111.388C268.748 112.028 268.561 112.802 268.561 113.709ZM270.03 113.709C270.03 113.068 270.157 112.525 270.411 112.077C270.677 111.629 271.028 111.291 271.462 111.061C271.897 110.832 272.37 110.716 272.877 110.716C273.192 110.716 273.505 110.783 273.82 110.917C274.135 111.05 274.418 111.242 274.672 111.496C274.938 111.751 275.15 112.065 275.307 112.44C275.464 112.802 275.543 113.226 275.543 113.709C275.543 114.35 275.41 114.894 275.145 115.342C274.878 115.788 274.54 116.128 274.128 116.357C273.717 116.587 273.3 116.701 272.877 116.701C272.37 116.701 271.897 116.587 271.462 116.357C271.028 116.128 270.677 115.788 270.411 115.342C270.157 114.894 270.03 114.35 270.03 113.709Z" fill="#252525"/>
<path d="M281.633 109.538L280.182 109.538L280.182 117.88L281.633 117.88L281.633 109.538ZM284.154 111.134L284.951 109.937C284.734 109.708 284.492 109.556 284.226 109.484C283.972 109.399 283.694 109.357 283.392 109.357C283.005 109.357 282.624 109.508 282.25 109.81C281.874 110.112 281.566 110.524 281.325 111.043C281.095 111.551 280.98 112.138 280.98 112.802L281.633 112.802C281.633 112.404 281.669 112.047 281.741 111.732C281.826 111.418 281.971 111.17 282.177 110.989C282.383 110.807 282.666 110.716 283.03 110.716C283.271 110.716 283.47 110.754 283.628 110.826C283.785 110.887 283.96 110.989 284.154 111.134Z" fill="#252525"/>
<path d="M289.901 118.062C290.796 118.062 291.57 117.886 292.223 117.536C292.887 117.174 293.438 116.641 293.873 115.94L292.694 115.196C292.392 115.704 292.023 116.085 291.587 116.339C291.152 116.58 290.651 116.701 290.082 116.701C289.514 116.701 289.03 116.58 288.632 116.339C288.233 116.097 287.931 115.746 287.726 115.287C287.519 114.828 287.417 114.271 287.417 113.618C287.428 112.977 287.538 112.44 287.743 112.005C287.961 111.557 288.263 111.219 288.65 110.989C289.049 110.747 289.527 110.626 290.082 110.626C290.554 110.626 290.965 110.729 291.316 110.934C291.667 111.14 291.938 111.424 292.132 111.787C292.337 112.149 292.44 112.578 292.44 113.074C292.44 113.159 292.422 113.268 292.386 113.401C292.35 113.522 292.314 113.613 292.277 113.673L292.857 112.838L286.873 112.838L286.873 114.072L294 114.072C294 114.048 294 113.993 294 113.909C294.012 113.812 294.018 113.721 294.018 113.637C294.018 112.754 293.861 111.992 293.546 111.352C293.233 110.711 292.779 110.221 292.187 109.883C291.606 109.532 290.905 109.357 290.082 109.357C289.26 109.357 288.535 109.538 287.906 109.901C287.29 110.264 286.807 110.771 286.456 111.424C286.117 112.077 285.947 112.838 285.947 113.709C285.947 114.568 286.111 115.323 286.437 115.976C286.776 116.629 287.242 117.143 287.834 117.518C288.438 117.88 289.127 118.062 289.901 118.062Z" fill="#252525"/>
<path d="M296.897 115.323L295.754 116.031C295.911 116.357 296.141 116.677 296.443 116.992C296.758 117.306 297.138 117.565 297.586 117.772C298.033 117.965 298.535 118.062 299.091 118.062C299.949 118.062 300.638 117.82 301.158 117.336C301.69 116.853 301.956 116.248 301.956 115.523C301.956 115.027 301.836 114.622 301.593 114.308C301.364 113.993 301.05 113.727 300.65 113.51C300.251 113.28 299.811 113.068 299.327 112.875C299.036 112.754 298.759 112.627 298.493 112.494C298.226 112.361 298.009 112.21 297.84 112.041C297.67 111.872 297.586 111.678 297.586 111.46C297.586 111.183 297.694 110.976 297.912 110.843C298.129 110.711 298.389 110.644 298.692 110.644C299.127 110.644 299.514 110.747 299.853 110.953C300.203 111.158 300.494 111.418 300.724 111.732L301.884 110.989C301.715 110.674 301.479 110.397 301.176 110.154C300.874 109.913 300.524 109.719 300.124 109.575C299.738 109.429 299.321 109.357 298.873 109.357C298.425 109.357 297.991 109.435 297.567 109.592C297.157 109.75 296.818 109.991 296.552 110.318C296.299 110.644 296.171 111.056 296.171 111.551C296.171 112.035 296.292 112.44 296.534 112.766C296.787 113.081 297.096 113.341 297.459 113.546C297.833 113.74 298.203 113.909 298.565 114.053C298.892 114.175 299.2 114.308 299.49 114.452C299.78 114.586 300.016 114.755 300.198 114.961C300.39 115.154 300.487 115.396 300.487 115.686C300.487 116.012 300.367 116.272 300.124 116.466C299.895 116.647 299.575 116.738 299.163 116.738C298.825 116.738 298.511 116.677 298.22 116.557C297.943 116.424 297.694 116.248 297.476 116.031C297.259 115.813 297.066 115.577 296.897 115.323Z" fill="#252525"/>
<path d="M304.753 115.323L303.611 116.031C303.768 116.357 303.998 116.677 304.3 116.992C304.615 117.306 304.996 117.565 305.442 117.772C305.89 117.965 306.392 118.062 306.948 118.062C307.806 118.062 308.495 117.82 309.015 117.336C309.548 116.853 309.814 116.248 309.814 115.523C309.814 115.027 309.692 114.622 309.451 114.308C309.221 113.993 308.907 113.727 308.508 113.51C308.109 113.28 307.667 113.068 307.183 112.875C306.894 112.754 306.615 112.627 306.349 112.494C306.084 112.361 305.866 112.21 305.697 112.041C305.527 111.872 305.442 111.678 305.442 111.46C305.442 111.183 305.552 110.976 305.769 110.843C305.987 110.711 306.247 110.644 306.549 110.644C306.984 110.644 307.371 110.747 307.709 110.953C308.06 111.158 308.35 111.418 308.58 111.732L309.74 110.989C309.571 110.674 309.336 110.397 309.034 110.154C308.732 109.913 308.381 109.719 307.982 109.575C307.595 109.429 307.177 109.357 306.731 109.357C306.283 109.357 305.848 109.435 305.425 109.592C305.013 109.75 304.675 109.991 304.409 110.318C304.155 110.644 304.028 111.056 304.028 111.551C304.028 112.035 304.149 112.44 304.391 112.766C304.645 113.081 304.953 113.341 305.315 113.546C305.691 113.74 306.059 113.909 306.422 114.053C306.748 114.175 307.056 114.308 307.347 114.452C307.637 114.586 307.872 114.755 308.054 114.961C308.248 115.154 308.345 115.396 308.345 115.686C308.345 116.012 308.223 116.272 307.982 116.466C307.752 116.647 307.432 116.738 307.02 116.738C306.682 116.738 306.367 116.677 306.078 116.557C305.799 116.424 305.552 116.248 305.334 116.031C305.116 115.813 304.922 115.577 304.753 115.323Z" fill="#252525"/>
<path d="M237.665 66.5123L241.801 73.9115L245.936 66.5123L246.879 75.0903L248.42 75.0903L246.879 61.7607L241.801 70.9554L236.723 61.7607L235.182 75.0903L236.723 75.0903L237.665 66.5123Z" fill="#252525"/>
<path d="M255.665 72.2269L251.494 62.3975L249.771 62.3975L255.665 75.727L261.559 62.3975L259.836 62.3975L255.665 72.2269Z" fill="#252525"/>
<path d="M273.263 62.3955L273.263 71.8441L263.65 61.7607L263.65 75.0903L265.192 75.0903L265.192 65.6418L274.804 75.7251L274.804 62.3955L273.263 62.3955Z" fill="#252525"/>
<path d="M279.16 68.7446C279.16 67.7894 279.365 66.937 279.776 66.1874C280.2 65.4379 280.773 64.8455 281.5 64.4102C282.225 63.9749 283.047 63.7574 283.966 63.7574C284.896 63.7574 285.718 63.9749 286.432 64.4102C287.157 64.8455 287.726 65.4379 288.137 66.1874C288.56 66.937 288.772 67.7894 288.772 68.7446C288.772 69.6996 288.56 70.5521 288.137 71.3016C287.726 72.0512 287.157 72.6437 286.432 73.0789C285.718 73.5142 284.896 73.7318 283.966 73.7318C283.047 73.7318 282.225 73.5142 281.5 73.0789C280.773 72.6437 280.2 72.0512 279.776 71.3016C279.365 70.5521 279.16 69.6996 279.16 68.7446ZM277.527 68.7446C277.527 69.6634 277.685 70.5218 277.999 71.3198C278.326 72.1178 278.779 72.813 279.359 73.4054C279.94 73.9857 280.623 74.4451 281.409 74.7836C282.195 75.1101 283.047 75.2733 283.966 75.2733C284.896 75.2733 285.749 75.1101 286.523 74.7836C287.309 74.4451 287.992 73.9857 288.572 73.4054C289.152 72.813 289.6 72.1178 289.914 71.3198C290.24 70.5218 290.403 69.6634 290.403 68.7446C290.403 67.8136 290.24 66.9552 289.914 66.1693C289.6 65.3713 289.152 64.6822 288.572 64.1019C287.992 63.5095 287.309 63.0501 286.523 62.7236C285.749 62.3851 284.896 62.2158 283.966 62.2158C283.047 62.2158 282.195 62.3851 281.409 62.7236C280.623 63.0501 279.94 63.5095 279.359 64.1019C278.779 64.6822 278.326 65.3713 277.999 66.1693C277.685 66.9552 277.527 67.8136 277.527 68.7446Z" fill="#252525"/>
<path d="M293.381 72.5345L292.238 73.2418C292.395 73.5681 292.625 73.8885 292.927 74.2029C293.242 74.5172 293.623 74.7771 294.07 74.9827C294.517 75.1762 295.019 75.2729 295.575 75.2729C296.433 75.2729 297.122 75.0311 297.642 74.5474C298.174 74.0639 298.441 73.4593 298.441 72.734C298.441 72.2382 298.32 71.8332 298.078 71.5189C297.849 71.2045 297.534 70.9386 297.135 70.7209C296.736 70.4912 296.294 70.2797 295.811 70.0862C295.52 69.9653 295.243 69.8383 294.977 69.7053C294.711 69.5724 294.493 69.4212 294.324 69.252C294.155 69.0827 294.07 68.8892 294.07 68.6716C294.07 68.3935 294.179 68.188 294.396 68.055C294.614 67.922 294.874 67.8555 295.176 67.8555C295.611 67.8555 295.998 67.9583 296.336 68.1638C296.687 68.3694 296.978 68.6293 297.207 68.9437L298.368 68.2001C298.198 67.8858 297.963 67.6077 297.661 67.3658C297.359 67.124 297.008 66.9306 296.609 66.7855C296.222 66.6405 295.805 66.5679 295.357 66.5679C294.91 66.5679 294.475 66.6465 294.052 66.8037C293.641 66.9609 293.302 67.2026 293.037 67.5291C292.782 67.8555 292.655 68.2666 292.655 68.7623C292.655 69.2459 292.777 69.651 293.018 69.9773C293.272 70.2917 293.58 70.5517 293.943 70.7571C294.318 70.9506 294.686 71.1199 295.049 71.2649C295.376 71.3858 295.683 71.5189 295.974 71.6639C296.264 71.797 296.5 71.9662 296.681 72.1717C296.875 72.3652 296.972 72.607 296.972 72.8972C296.972 73.2236 296.851 73.4836 296.609 73.677C296.379 73.8583 296.059 73.949 295.647 73.949C295.309 73.949 294.994 73.8885 294.705 73.7676C294.426 73.6347 294.179 73.4593 293.961 73.2418C293.743 73.0241 293.55 72.7883 293.381 72.5345Z" fill="#252525"/>
<path d="M330.373 108.925L335.085 116.129L339.821 108.925L340.857 117.733L345.248 117.733L342.461 99.6006L335.085 110.134L327.733 99.6006L324.945 117.733L329.336 117.733L330.373 108.925Z" fill="#252525"/>
<path d="M355.87 110.777L351.651 100.465L346.791 100.465L355.87 118.819L364.973 100.465L360.088 100.465L355.87 110.777Z" fill="#252525"/>
<path d="M379.438 100.464L379.438 110.184L367.523 99.6006L367.523 117.733L371.519 117.733L371.519 108.012L383.46 118.596L383.46 100.464L379.438 100.464Z" fill="#252525"/>
<path d="M390.613 117.734L399.322 117.734L399.322 114.304L390.613 114.304L390.613 117.734ZM390.613 103.893L399.322 103.893L399.322 100.465L390.613 100.465L390.613 103.893ZM390.613 110.333L398.828 110.333L398.828 106.978L390.613 106.978L390.613 110.333ZM387.85 100.465L387.85 117.734L391.847 117.734L391.847 100.465L387.85 100.465Z" fill="#252525"/>
<path d="M331.787 72.8707L335.682 72.8707C337.128 72.8707 338.397 72.6724 339.487 72.276C340.597 71.8598 341.469 71.2653 342.103 70.4923C342.757 69.7193 343.084 68.7878 343.084 67.6977C343.084 66.5085 342.757 65.5273 342.103 64.7545C341.469 63.9617 340.597 63.3769 339.487 63.0003C338.397 62.6039 337.128 62.4058 335.682 62.4058L328.041 62.4058L328.041 83.2167L336.187 83.2167C337.832 83.2167 339.259 83.0185 340.468 82.6221C341.677 82.2059 342.609 81.5717 343.263 80.7193C343.937 79.8671 344.273 78.7474 344.273 77.3599C344.273 76.3094 344.036 75.4175 343.56 74.6842C343.105 73.931 342.49 73.3166 341.716 72.841C340.944 72.3454 340.082 71.9887 339.13 71.7707C338.179 71.5527 337.198 71.4436 336.187 71.4436L331.787 71.4436L331.787 74.1788L335.622 74.1788C336.118 74.1788 336.564 74.2283 336.96 74.3274C337.376 74.4068 337.743 74.5455 338.06 74.7436C338.378 74.9419 338.625 75.1996 338.804 75.5166C338.982 75.8337 339.071 76.2103 339.071 76.6464C339.071 77.3203 338.913 77.8554 338.595 78.2518C338.298 78.6284 337.892 78.9059 337.376 79.0842C336.861 79.2428 336.276 79.3221 335.622 79.3221L333.065 79.3221L333.065 66.3003L335.147 66.3003C336.019 66.3003 336.692 66.4788 337.169 66.8355C337.644 67.1923 337.881 67.7274 337.881 68.4409C337.881 68.9166 337.773 69.3229 337.554 69.6599C337.337 69.977 337.02 70.2247 336.603 70.4031C336.207 70.5815 335.721 70.6706 335.147 70.6706L331.787 70.6706L331.787 72.8707Z" fill="#252525"/>
<path d="M352.003 83.2167L362.498 83.2167L362.498 79.0842L352.003 79.0842L352.003 83.2167ZM352.003 66.5382L362.498 66.5382L362.498 62.4058L352.003 62.4058L352.003 66.5382ZM352.003 74.2977L361.904 74.2977L361.904 70.2544L352.003 70.2544L352.003 74.2977ZM348.674 62.4058L348.674 83.2167L353.49 83.2167L353.49 62.4058L348.674 62.4058Z" fill="#252525"/>
<path d="M369.766 75.9028L366.258 78.4298C366.734 79.4209 367.398 80.3326 368.251 81.165C369.103 81.9974 370.103 82.6614 371.253 83.1569C372.422 83.6326 373.68 83.8704 375.029 83.8704C376 83.8704 376.941 83.7217 377.853 83.4245C378.784 83.147 379.607 82.7308 380.32 82.1758C381.053 81.6208 381.629 80.9371 382.045 80.1245C382.481 79.292 382.699 78.3506 382.699 77.3001C382.699 76.428 382.56 75.655 382.283 74.9812C382.005 74.3073 381.619 73.7126 381.124 73.1973C380.648 72.6821 380.092 72.246 379.459 71.8893C378.824 71.5127 378.141 71.1856 377.407 70.9081C376.435 70.5713 375.603 70.2541 374.91 69.9568C374.235 69.6595 373.71 69.3324 373.334 68.9757C372.977 68.619 372.798 68.2028 372.798 67.727C372.798 67.2712 372.987 66.8946 373.364 66.5973C373.74 66.2802 374.285 66.1216 374.999 66.1216C375.534 66.1216 376.029 66.2307 376.485 66.4486C376.962 66.6469 377.388 66.9342 377.764 67.3108C378.16 67.6676 378.507 68.0937 378.805 68.5893L382.64 66.4486C382.283 65.7351 381.767 65.0316 381.094 64.3378C380.42 63.6441 379.567 63.0694 378.537 62.6135C377.526 62.1576 376.327 61.9297 374.94 61.9297C373.592 61.9297 372.363 62.1676 371.253 62.6433C370.163 63.0991 369.29 63.773 368.636 64.6649C368.002 65.5568 367.685 66.6172 367.685 67.846C367.685 68.8766 367.873 69.7586 368.251 70.4919C368.627 71.2054 369.103 71.8199 369.677 72.3352C370.252 72.8307 370.856 73.237 371.491 73.5541C372.144 73.8713 372.719 74.1189 373.215 74.2974C374.226 74.674 375.039 75.0109 375.653 75.3081C376.267 75.6055 376.713 75.9226 376.99 76.2596C377.268 76.5767 377.407 77.0028 377.407 77.5379C377.407 78.1722 377.169 78.6776 376.693 79.0542C376.218 79.411 375.613 79.5893 374.88 79.5893C374.186 79.5893 373.523 79.4407 372.888 79.1434C372.273 78.846 371.699 78.4199 371.164 77.865C370.649 77.31 370.183 76.656 369.766 75.9028Z" fill="#252525"/>
<path d="M384.869 66.895L390.577 66.895L390.577 83.2167L395.602 83.2167L395.602 66.895L401.34 66.895L401.34 62.4058L384.869 62.4058L384.869 66.895Z" fill="#252525"/>
</svg>
