<svg width="456" height="186" viewBox="0 0 456 186" fill="none" xmlns="http://www.w3.org/2000/svg">
<path d="M13.4928 114.568L26.0373 114.568L25.6643 110.195L13.8996 110.195L13.4928 114.568ZM19.6973 104.126L23.0537 111.822L22.8503 113.281L25.6982 119.145L32.2077 119.145L19.6973 93.9209L7.2207 119.145L13.6962 119.145L16.6459 113.043L16.3746 111.788L19.6973 104.126Z" fill="#252525"/>
<path d="M45.3365 109.651L45.3365 119.145L50.6594 119.145L50.6594 109.11C50.6594 107.233 50.2187 105.776 49.3371 104.737C48.4556 103.696 47.043 103.176 45.0992 103.176C43.9464 103.176 42.9745 103.414 42.1834 103.889C41.4149 104.362 40.8046 105.03 40.3527 105.889L40.3527 103.549L35.1992 103.549L35.1992 119.145L40.3527 119.145L40.3527 109.651C40.3527 109.042 40.4657 108.521 40.6916 108.092C40.9177 107.662 41.2342 107.335 41.641 107.11C42.0478 106.883 42.5225 106.771 43.065 106.771C43.8787 106.771 44.455 107.019 44.794 107.516C45.1556 108.014 45.3365 108.726 45.3365 109.651Z" fill="#252525"/>
<path d="M65.858 109.651L65.858 119.145L71.1809 119.145L71.1809 109.11C71.1809 107.233 70.7401 105.776 69.8585 104.737C68.9771 103.696 67.5645 103.176 65.6207 103.176C64.4679 103.176 63.496 103.414 62.7049 103.889C61.9364 104.362 61.3261 105.03 60.874 105.889L60.874 103.549L55.7207 103.549L55.7207 119.145L60.874 119.145L60.874 109.651C60.874 109.042 60.9872 108.521 61.2131 108.092C61.4392 107.662 61.7556 107.335 62.1625 107.11C62.5693 106.883 63.0439 106.771 63.5864 106.771C64.4001 106.771 64.9764 107.019 65.3155 107.516C65.6771 108.014 65.858 108.726 65.858 109.651Z" fill="#252525"/>
<path d="M81.595 113.039L81.595 103.545L76.2383 103.545L76.2383 113.582C76.2383 115.435 76.679 116.893 77.5606 117.955C78.4646 118.994 79.8886 119.514 81.8323 119.514C82.9851 119.514 83.9457 119.278 84.7143 118.803C85.4828 118.305 86.1042 117.639 86.579 116.803L86.579 119.142L91.6984 119.142L91.6984 103.545L86.579 103.545L86.579 113.039C86.579 113.65 86.4659 114.169 86.2399 114.598C86.0139 115.028 85.6974 115.355 85.2905 115.582C84.9064 115.808 84.4316 115.921 83.8666 115.921C83.0303 115.921 82.4426 115.673 82.1037 115.175C81.7646 114.655 81.595 113.943 81.595 113.039Z" fill="#252525"/>
<path d="M100.722 114.263C100.722 113.879 100.812 113.563 100.993 113.314C101.174 113.043 101.445 112.84 101.807 112.704C102.168 112.568 102.654 112.5 103.265 112.5C104.056 112.5 104.802 112.613 105.502 112.84C106.225 113.043 106.858 113.348 107.401 113.754L107.401 111.484C107.13 111.19 106.723 110.907 106.18 110.636C105.638 110.365 104.982 110.138 104.214 109.958C103.468 109.777 102.62 109.686 101.671 109.686C99.7273 109.686 98.2242 110.127 97.1619 111.009C96.0995 111.868 95.5684 113.043 95.5684 114.534C95.5684 115.597 95.817 116.502 96.3143 117.247C96.8341 117.993 97.5122 118.559 98.3485 118.943C99.2074 119.304 100.134 119.484 101.129 119.484C102.123 119.484 103.05 119.316 103.909 118.977C104.768 118.614 105.468 118.095 106.011 117.416C106.553 116.716 106.824 115.868 106.824 114.874L106.282 112.84C106.282 113.563 106.124 114.173 105.807 114.67C105.491 115.168 105.084 115.541 104.587 115.789C104.09 116.038 103.547 116.162 102.959 116.162C102.553 116.162 102.18 116.095 101.841 115.959C101.502 115.8 101.23 115.586 101.027 115.315C100.823 115.02 100.722 114.67 100.722 114.263ZM98.4502 108.331C98.6763 108.195 99.0379 108.025 99.5352 107.822C100.032 107.597 100.609 107.404 101.264 107.245C101.942 107.088 102.632 107.008 103.332 107.008C103.807 107.008 104.225 107.054 104.587 107.144C104.971 107.234 105.287 107.381 105.536 107.585C105.785 107.788 105.965 108.036 106.079 108.331C106.214 108.602 106.282 108.929 106.282 109.313L106.282 119.146L111.198 119.146L111.198 108.161C111.198 107.076 110.882 106.161 110.249 105.415C109.616 104.669 108.757 104.104 107.672 103.719C106.587 103.313 105.355 103.11 103.976 103.11C102.507 103.11 101.151 103.301 99.908 103.685C98.6649 104.07 97.6026 104.476 96.7211 104.906L98.4502 108.331Z" fill="#252525"/>
<path d="M116.051 92.6987L116.051 119.144L121.204 119.144L121.204 92.6987L116.051 92.6987Z" fill="#252525"/>
<path d="M27.0664 53.6625L39.874 50.479L39.874 90.5299L51.9412 90.5299L51.9412 37.7456L27.0664 42.7797L27.0664 53.6625Z" fill="#252525"/>
<path d="M68.3635 72.3191C68.3635 70.5917 68.7336 69.0617 69.4738 67.7292C70.2636 66.3965 71.3 65.3601 72.5832 64.6198C73.9158 63.8794 75.4212 63.5093 77.0992 63.5093C78.728 63.5093 80.1838 63.8794 81.4672 64.6198C82.7997 65.3601 83.8361 66.3965 84.5765 67.7292C85.3661 69.0617 85.761 70.5917 85.761 72.3191C85.761 74.0959 85.3661 75.6506 84.5765 76.9831C83.8361 78.2663 82.7997 79.2782 81.4672 80.0185C80.1838 80.7094 78.728 81.0549 77.0992 81.0549C75.4212 81.0549 73.9158 80.7094 72.5832 80.0185C71.3 79.2782 70.2636 78.2663 69.4738 76.9831C68.7336 75.6506 68.3635 74.0959 68.3635 72.3191ZM76.9512 38.9307L61.9967 57.9569C60.3185 60.0298 58.8873 62.2508 57.7028 64.6198C56.5676 66.9887 56 69.5553 56 72.3191C56 76.5637 56.9377 80.1418 58.8132 83.0538C60.7381 85.9163 63.2799 88.0879 66.4385 89.5693C69.6466 90.9996 73.2001 91.7155 77.0992 91.7155C80.9489 91.7155 84.453 90.9996 87.6118 89.5693C90.8198 88.0879 93.3615 85.9163 95.2371 83.0538C97.1619 80.1418 98.1243 76.5637 98.1243 72.3191C98.1243 69.7033 97.6555 67.359 96.7177 65.2861C95.8294 63.2132 94.5955 61.461 93.0161 60.0298C91.4861 58.5492 89.7587 57.4386 87.8338 56.6984C85.9584 55.9086 84.0582 55.5138 82.1334 55.5138C80.258 55.5138 78.6785 55.7112 77.3953 56.1061C76.1614 56.5009 74.8536 57.3893 73.4716 58.7712L76.0628 57.6608L92.7941 38.9307L76.9512 38.9307Z" fill="#252525"/>
<path d="M103.871 46.8281L103.871 48.6974L109.604 48.6974L109.604 46.8281L103.871 46.8281ZM105.74 42.8403L105.74 58.293L107.734 58.293L107.734 42.8403L105.74 42.8403Z" fill="#252525"/>
<path d="M114.341 38.853L112.348 38.853L112.348 58.2935L114.341 58.2935L114.341 38.853ZM119.7 51.3149L119.7 58.2935L121.694 58.2935L121.694 51.0657C121.694 50.0687 121.528 49.238 121.196 48.5733C120.88 47.9087 120.423 47.4101 119.825 47.0778C119.243 46.7456 118.554 46.5794 117.756 46.5794C116.958 46.5794 116.252 46.7871 115.638 47.2025C115.039 47.6179 114.566 48.1829 114.217 48.8973C113.868 49.5952 113.694 50.4011 113.694 51.3149L114.341 51.3149C114.341 50.7665 114.458 50.2765 114.69 49.8444C114.94 49.4125 115.28 49.0718 115.712 48.8225C116.161 48.5733 116.676 48.4487 117.258 48.4487C118.072 48.4487 118.678 48.6896 119.077 49.1715C119.492 49.6533 119.7 50.3678 119.7 51.3149Z" fill="#252525"/>
<path d="M176.518 86.2438L171.334 72.5356L166.25 86.2438L161.615 73.408L159.246 73.408L166.1 91.7273L171.334 78.1684L176.569 91.7273L183.423 73.408L181.054 73.408L176.518 86.2438Z" fill="#252525"/>
<path d="M183.301 85.1224C183.301 86.2688 183.559 87.2991 184.075 88.2129C184.606 89.1106 185.321 89.8166 186.218 90.3312C187.114 90.8472 188.121 91.1037 189.233 91.1037C190.363 91.1037 191.368 90.8472 192.249 90.3312C193.146 89.8166 193.852 89.1106 194.368 88.2129C194.899 87.2991 195.165 86.2688 195.165 85.1224C195.165 83.9593 194.899 82.9291 194.368 82.0318C193.852 81.1346 193.146 80.4284 192.249 79.9133C191.368 79.3982 190.363 79.1406 189.233 79.1406C188.121 79.1406 187.114 79.3982 186.218 79.9133C185.321 80.4284 184.606 81.1346 184.075 82.0318C183.559 82.9291 183.301 83.9593 183.301 85.1224ZM185.321 85.1224C185.321 84.3249 185.487 83.6186 185.818 83.0038C186.167 82.3724 186.634 81.8822 187.215 81.5334C187.813 81.1844 188.485 81.01 189.233 81.01C189.98 81.01 190.645 81.1844 191.226 81.5334C191.825 81.8822 192.291 82.3724 192.623 83.0038C192.972 83.6186 193.146 84.3249 193.146 85.1224C193.146 85.9199 192.972 86.626 192.623 87.2408C192.291 87.8556 191.825 88.3458 191.226 88.7114C190.645 89.061 189.98 89.2354 189.233 89.2354C188.485 89.2354 187.813 89.061 187.215 88.7114C186.634 88.3458 186.167 87.8556 185.818 87.2408C185.487 86.626 185.321 85.9199 185.321 85.1224Z" fill="#252525"/>
<path d="M200.647 79.39L198.652 79.39L198.652 90.8543L200.647 90.8543L200.647 79.39ZM204.111 81.5833L205.207 79.9383C204.908 79.6225 204.576 79.4148 204.211 79.3151C203.862 79.1989 203.479 79.1406 203.064 79.1406C202.532 79.1406 202.009 79.3483 201.493 79.7638C200.979 80.1791 200.555 80.744 200.223 81.4585C199.907 82.1564 199.75 82.9623 199.75 83.8762L200.647 83.8762C200.647 83.3279 200.697 82.8377 200.796 82.4057C200.912 81.9737 201.112 81.633 201.394 81.3838C201.676 81.1346 202.067 81.01 202.565 81.01C202.898 81.01 203.172 81.0597 203.388 81.1595C203.604 81.2426 203.845 81.3838 204.111 81.5833Z" fill="#252525"/>
<path d="M207.941 71.4131L207.941 90.853L209.936 90.853L209.936 71.4131L207.941 71.4131Z" fill="#252525"/>
<path d="M223.033 71.4131L223.033 90.853L225.028 90.853L225.028 71.4131L223.033 71.4131ZM213.437 85.1211C213.437 86.3506 213.695 87.4141 214.21 88.3114C214.726 89.2086 215.415 89.8975 216.28 90.3795C217.143 90.8615 218.09 91.1025 219.121 91.1025C220.085 91.1025 220.924 90.8615 221.638 90.3795C222.353 89.8975 222.908 89.2086 223.308 88.3114C223.723 87.4141 223.93 86.3506 223.93 85.1211C223.93 83.8749 223.723 82.8115 223.308 81.9308C222.908 81.0337 222.353 80.344 221.638 79.8622C220.924 79.3803 220.085 79.1393 219.121 79.1393C218.09 79.1393 217.143 79.3803 216.28 79.8622C215.415 80.344 214.726 81.0337 214.21 81.9308C213.695 82.8115 213.437 83.8749 213.437 85.1211ZM215.458 85.1211C215.458 84.2405 215.632 83.4927 215.981 82.8779C216.346 82.2631 216.828 81.7979 217.425 81.4822C218.023 81.1665 218.673 81.0087 219.37 81.0087C219.951 81.0087 220.524 81.1665 221.09 81.4822C221.655 81.7979 222.12 82.2631 222.486 82.8779C222.85 83.4927 223.033 84.2405 223.033 85.1211C223.033 86.0017 222.85 86.7495 222.486 87.3642C222.12 87.979 221.655 88.4442 221.09 88.7599C220.524 89.0753 219.951 89.2341 219.37 89.2341C218.673 89.2341 218.023 89.0753 217.425 88.7599C216.828 88.4442 216.346 87.979 215.981 87.3642C215.632 86.7495 215.458 86.0017 215.458 85.1211Z" fill="#252525"/>
<path d="M162.229 110.652C162.229 109.289 162.528 108.101 163.126 107.087C163.742 106.058 164.538 105.252 165.519 104.67C166.499 104.089 167.563 103.798 168.709 103.798C169.539 103.798 170.296 103.906 170.977 104.122C171.676 104.339 172.307 104.645 172.872 105.045C173.436 105.426 173.918 105.875 174.317 106.39L174.317 103.599C173.587 102.951 172.789 102.469 171.924 102.153C171.06 101.837 169.989 101.679 168.709 101.679C167.497 101.679 166.358 101.903 165.295 102.353C164.248 102.785 163.326 103.407 162.528 104.221C161.73 105.019 161.108 105.966 160.658 107.063C160.21 108.159 159.986 109.355 159.986 110.652C159.986 111.948 160.21 113.145 160.658 114.24C161.108 115.338 161.73 116.293 162.528 117.107C163.326 117.905 164.248 118.527 165.295 118.977C166.358 119.409 167.497 119.624 168.709 119.624C169.989 119.624 171.06 119.467 171.924 119.151C172.789 118.835 173.587 118.353 174.317 117.705L174.317 114.914C173.918 115.428 173.436 115.886 172.872 116.285C172.307 116.667 171.676 116.966 170.977 117.182C170.296 117.397 169.539 117.507 168.709 117.507C167.563 117.507 166.499 117.214 165.519 116.633C164.538 116.052 163.742 115.247 163.126 114.216C162.528 113.186 162.229 111.998 162.229 110.652Z" fill="#252525"/>
<path d="M177.672 113.645C177.672 114.792 177.93 115.822 178.444 116.737C178.976 117.634 179.691 118.34 180.588 118.854C181.485 119.369 182.49 119.627 183.604 119.627C184.734 119.627 185.739 119.369 186.62 118.854C187.517 118.34 188.223 117.634 188.739 116.737C189.271 115.822 189.536 114.792 189.536 113.645C189.536 112.482 189.271 111.452 188.739 110.555C188.223 109.657 187.517 108.951 186.62 108.437C185.739 107.921 184.734 107.664 183.604 107.664C182.49 107.664 181.485 107.921 180.588 108.437C179.691 108.951 178.976 109.657 178.444 110.555C177.93 111.452 177.672 112.482 177.672 113.645ZM179.691 113.645C179.691 112.848 179.858 112.142 180.19 111.527C180.538 110.896 181.003 110.406 181.586 110.057C182.184 109.707 182.856 109.532 183.604 109.532C184.352 109.532 185.016 109.707 185.598 110.057C186.196 110.406 186.661 110.896 186.994 111.527C187.343 112.142 187.517 112.848 187.517 113.645C187.517 114.443 187.343 115.149 186.994 115.764C186.661 116.379 186.196 116.868 185.598 117.234C185.016 117.583 184.352 117.757 183.604 117.757C182.856 117.757 182.184 117.583 181.586 117.234C181.003 116.868 180.538 116.379 180.19 115.764C179.858 115.149 179.691 114.443 179.691 113.645Z" fill="#252525"/>
<path d="M200.376 112.399L200.376 119.378L202.37 119.378L202.37 112.149C202.37 110.771 202.012 109.683 201.298 108.885C200.6 108.071 199.645 107.664 198.432 107.664C197.684 107.664 197.02 107.83 196.438 108.162C195.873 108.495 195.399 109.009 195.017 109.707L195.017 107.914L193.023 107.914L193.023 119.378L195.017 119.378L195.017 112.399C195.017 111.835 195.133 111.336 195.367 110.903C195.615 110.472 195.956 110.139 196.387 109.907C196.837 109.657 197.351 109.532 197.933 109.532C198.731 109.532 199.337 109.773 199.753 110.255C200.168 110.737 200.376 111.452 200.376 112.399Z" fill="#252525"/>
<path d="M206.085 120.126C206.085 121.106 206.326 121.97 206.806 122.717C207.288 123.481 207.953 124.071 208.801 124.488C209.666 124.903 210.654 125.11 211.766 125.11C212.73 125.11 213.645 124.886 214.508 124.437C215.373 123.989 216.079 123.316 216.627 122.418C217.176 121.538 217.45 120.441 217.45 119.128L217.45 107.914L215.455 107.914L215.455 119.128C215.455 120.092 215.265 120.873 214.882 121.471C214.517 122.087 214.052 122.535 213.486 122.818C212.922 123.1 212.349 123.24 211.766 123.24C211.019 123.24 210.372 123.092 209.823 122.793C209.274 122.51 208.85 122.128 208.551 121.646C208.252 121.181 208.103 120.673 208.103 120.126L206.085 120.126ZM205.859 113.645C205.859 114.875 206.117 115.938 206.632 116.836C207.148 117.733 207.837 118.422 208.702 118.904C209.565 119.386 210.512 119.627 211.542 119.627C212.506 119.627 213.346 119.386 214.06 118.904C214.775 118.422 215.33 117.733 215.73 116.836C216.145 115.938 216.352 114.875 216.352 113.645C216.352 112.399 216.145 111.336 215.73 110.455C215.33 109.558 214.775 108.869 214.06 108.387C213.346 107.905 212.506 107.664 211.542 107.664C210.512 107.664 209.565 107.905 208.702 108.387C207.837 108.869 207.148 109.558 206.632 110.455C206.117 111.336 205.859 112.399 205.859 113.645ZM207.879 113.645C207.879 112.765 208.054 112.017 208.403 111.402C208.768 110.787 209.25 110.322 209.847 110.006C210.445 109.691 211.095 109.532 211.792 109.532C212.224 109.532 212.655 109.625 213.088 109.807C213.52 109.99 213.91 110.255 214.259 110.604C214.624 110.954 214.915 111.385 215.132 111.901C215.347 112.399 215.455 112.981 215.455 113.645C215.455 114.527 215.272 115.274 214.908 115.889C214.542 116.503 214.077 116.969 213.511 117.284C212.946 117.6 212.373 117.757 211.792 117.757C211.095 117.757 210.445 117.6 209.847 117.284C209.25 116.969 208.768 116.503 208.403 115.889C208.054 115.274 207.879 114.527 207.879 113.645Z" fill="#252525"/>
<path d="M223.825 107.914L221.83 107.914L221.83 119.378L223.825 119.378L223.825 107.914ZM227.289 110.107L228.385 108.461C228.086 108.146 227.754 107.938 227.388 107.838C227.04 107.722 226.657 107.664 226.242 107.664C225.71 107.664 225.187 107.871 224.672 108.286C224.156 108.702 223.732 109.267 223.401 109.982C223.085 110.679 222.927 111.486 222.927 112.399L223.825 112.399C223.825 111.852 223.874 111.361 223.973 110.929C224.09 110.496 224.29 110.156 224.572 109.907C224.855 109.657 225.245 109.532 225.744 109.532C226.076 109.532 226.349 109.583 226.566 109.683C226.782 109.766 227.023 109.907 227.289 110.107Z" fill="#252525"/>
<path d="M235.188 119.627C236.418 119.627 237.481 119.386 238.378 118.904C239.291 118.407 240.048 117.675 240.647 116.711L239.026 115.689C238.611 116.386 238.103 116.911 237.505 117.26C236.907 117.591 236.218 117.757 235.437 117.757C234.656 117.757 233.991 117.591 233.444 117.26C232.895 116.927 232.48 116.445 232.198 115.814C231.914 115.183 231.774 114.417 231.774 113.52C231.79 112.64 231.94 111.901 232.222 111.303C232.521 110.688 232.936 110.223 233.468 109.907C234.017 109.575 234.673 109.408 235.437 109.408C236.085 109.408 236.65 109.549 237.132 109.832C237.614 110.115 237.987 110.505 238.254 111.004C238.536 111.501 238.678 112.091 238.678 112.773C238.678 112.889 238.652 113.04 238.602 113.222C238.553 113.388 238.503 113.513 238.454 113.595L239.25 112.448L231.025 112.448L231.025 114.144L240.821 114.144C240.821 114.111 240.821 114.036 240.821 113.92C240.838 113.787 240.845 113.662 240.845 113.546C240.845 112.332 240.63 111.286 240.197 110.406C239.766 109.525 239.143 108.852 238.329 108.387C237.531 107.905 236.567 107.664 235.437 107.664C234.307 107.664 233.311 107.914 232.446 108.411C231.6 108.91 230.935 109.608 230.453 110.505C229.988 111.402 229.754 112.448 229.754 113.645C229.754 114.826 229.979 115.863 230.427 116.761C230.892 117.658 231.533 118.364 232.347 118.88C233.177 119.378 234.124 119.627 235.188 119.627Z" fill="#252525"/>
<path d="M244.803 115.863L243.232 116.836C243.448 117.284 243.764 117.725 244.179 118.157C244.612 118.588 245.135 118.945 245.75 119.229C246.365 119.494 247.054 119.627 247.818 119.627C248.998 119.627 249.945 119.295 250.659 118.63C251.391 117.966 251.756 117.135 251.756 116.138C251.756 115.457 251.591 114.899 251.257 114.468C250.943 114.036 250.51 113.67 249.962 113.371C249.413 113.055 248.808 112.765 248.143 112.499C247.743 112.332 247.362 112.158 246.996 111.975C246.63 111.792 246.331 111.585 246.099 111.353C245.866 111.12 245.75 110.854 245.75 110.555C245.75 110.173 245.899 109.89 246.198 109.707C246.497 109.525 246.854 109.433 247.27 109.433C247.868 109.433 248.4 109.575 248.866 109.857C249.346 110.139 249.746 110.496 250.062 110.929L251.657 109.907C251.425 109.474 251.1 109.093 250.685 108.76C250.269 108.428 249.787 108.162 249.239 107.963C248.707 107.763 248.134 107.664 247.519 107.664C246.904 107.664 246.307 107.772 245.725 107.987C245.16 108.204 244.695 108.536 244.33 108.985C243.981 109.433 243.805 109.999 243.805 110.679C243.805 111.344 243.972 111.901 244.304 112.349C244.653 112.782 245.077 113.139 245.576 113.421C246.09 113.687 246.598 113.92 247.095 114.118C247.545 114.286 247.969 114.468 248.367 114.667C248.765 114.85 249.09 115.082 249.339 115.366C249.604 115.631 249.738 115.964 249.738 116.362C249.738 116.81 249.572 117.168 249.239 117.434C248.924 117.684 248.483 117.808 247.918 117.808C247.453 117.808 247.022 117.725 246.622 117.559C246.241 117.376 245.899 117.135 245.6 116.836C245.301 116.537 245.036 116.212 244.803 115.863Z" fill="#252525"/>
<path d="M255.599 115.863L254.029 116.836C254.245 117.284 254.561 117.725 254.976 118.157C255.409 118.588 255.932 118.945 256.546 119.229C257.161 119.494 257.851 119.627 258.615 119.627C259.795 119.627 260.742 119.295 261.456 118.63C262.187 117.966 262.553 117.135 262.553 116.138C262.553 115.457 262.386 114.899 262.054 114.468C261.738 114.036 261.307 113.67 260.759 113.371C260.21 113.055 259.603 112.765 258.938 112.499C258.54 112.332 258.157 112.158 257.792 111.975C257.427 111.792 257.128 111.585 256.896 111.353C256.662 111.12 256.546 110.854 256.546 110.555C256.546 110.173 256.696 109.89 256.995 109.707C257.294 109.525 257.651 109.433 258.067 109.433C258.665 109.433 259.196 109.575 259.661 109.857C260.143 110.139 260.542 110.496 260.858 110.929L262.453 109.907C262.22 109.474 261.897 109.093 261.482 108.76C261.066 108.428 260.584 108.162 260.036 107.963C259.504 107.763 258.93 107.664 258.316 107.664C257.701 107.664 257.103 107.772 256.521 107.987C255.956 108.204 255.491 108.536 255.125 108.985C254.776 109.433 254.602 109.999 254.602 110.679C254.602 111.344 254.768 111.901 255.101 112.349C255.45 112.782 255.874 113.139 256.371 113.421C256.887 113.687 257.393 113.92 257.892 114.118C258.34 114.286 258.764 114.468 259.164 114.667C259.562 114.85 259.885 115.082 260.135 115.366C260.401 115.631 260.535 115.964 260.535 116.362C260.535 116.81 260.367 117.168 260.036 117.434C259.719 117.684 259.28 117.808 258.714 117.808C258.249 117.808 257.817 117.725 257.419 117.559C257.036 117.376 256.696 117.135 256.397 116.836C256.098 116.537 255.831 116.212 255.599 115.863Z" fill="#252525"/>
<path d="M163.4 48.7821L169.083 58.9509L174.766 48.7821L176.062 60.571L178.18 60.571L176.062 42.252L169.083 54.8883L162.104 42.252L159.986 60.571L162.104 60.571L163.4 48.7821Z" fill="#252525"/>
<path d="M188.137 56.6357L182.404 43.127L180.037 43.127L188.137 61.446L196.237 43.127L193.868 43.127L188.137 56.6357Z" fill="#252525"/>
<path d="M212.322 43.1243L212.322 56.1097L199.111 42.252L199.111 60.571L201.231 60.571L201.231 47.5858L214.44 61.4433L214.44 43.1243L212.322 43.1243Z" fill="#252525"/>
<path d="M220.426 51.8495C220.426 50.5369 220.708 49.3654 221.272 48.3352C221.855 47.3051 222.643 46.4909 223.641 45.8927C224.637 45.2945 225.767 44.9955 227.03 44.9955C228.309 44.9955 229.439 45.2945 230.42 45.8927C231.416 46.4909 232.197 47.3051 232.763 48.3352C233.344 49.3654 233.635 50.5369 233.635 51.8495C233.635 53.1621 233.344 54.3336 232.763 55.3637C232.197 56.3939 231.416 57.2081 230.42 57.8062C229.439 58.4044 228.309 58.7036 227.03 58.7036C225.767 58.7036 224.637 58.4044 223.641 57.8062C222.643 57.2081 221.855 56.3939 221.272 55.3637C220.708 54.3336 220.426 53.1621 220.426 51.8495ZM218.182 51.8495C218.182 53.1123 218.399 54.292 218.829 55.3887C219.279 56.4853 219.901 57.4408 220.699 58.2549C221.497 59.0524 222.436 59.6838 223.516 60.1491C224.596 60.5977 225.767 60.822 227.03 60.822C228.309 60.822 229.481 60.5977 230.544 60.1491C231.625 59.6838 232.563 59.0524 233.361 58.2549C234.158 57.4408 234.773 56.4853 235.205 55.3887C235.653 54.292 235.877 53.1123 235.877 51.8495C235.877 50.57 235.653 49.3903 235.205 48.3103C234.773 47.2136 234.158 46.2665 233.361 45.469C232.563 44.6549 231.625 44.0235 230.544 43.5748C229.481 43.1096 228.309 42.877 227.03 42.877C225.767 42.877 224.596 43.1096 223.516 43.5748C222.436 44.0235 221.497 44.6549 220.699 45.469C219.901 46.2665 219.279 47.2136 218.829 48.3103C218.399 49.3903 218.182 50.57 218.182 51.8495Z" fill="#252525"/>
<path d="M239.971 57.0584L238.4 58.0304C238.616 58.479 238.932 58.9193 239.347 59.3513C239.78 59.7833 240.303 60.1405 240.918 60.423C241.532 60.689 242.222 60.8218 242.986 60.8218C244.166 60.8218 245.113 60.4895 245.827 59.8248C246.559 59.1603 246.924 58.3294 246.924 57.3326C246.924 56.6513 246.758 56.0946 246.425 55.6627C246.111 55.2306 245.678 54.8651 245.13 54.566C244.581 54.2503 243.974 53.9596 243.311 53.6936C242.911 53.5275 242.53 53.353 242.164 53.1703C241.798 52.9875 241.499 52.7797 241.267 52.5472C241.034 52.3146 240.918 52.0487 240.918 51.7496C240.918 51.3674 241.067 51.085 241.366 50.9021C241.665 50.7194 242.022 50.628 242.438 50.628C243.036 50.628 243.567 50.7693 244.032 51.0517C244.514 51.3342 244.914 51.6914 245.229 52.1235L246.825 51.1016C246.591 50.6696 246.268 50.2875 245.853 49.955C245.437 49.6228 244.955 49.357 244.407 49.1575C243.875 48.9582 243.302 48.8584 242.687 48.8584C242.072 48.8584 241.474 48.9664 240.893 49.1825C240.328 49.3985 239.862 49.7308 239.498 50.1794C239.147 50.628 238.973 51.193 238.973 51.8742C238.973 52.5389 239.14 53.0956 239.472 53.5441C239.821 53.9762 240.245 54.3334 240.744 54.6158C241.258 54.8817 241.764 55.1143 242.263 55.3137C242.713 55.4798 243.135 55.6627 243.535 55.862C243.933 56.0448 244.258 56.2775 244.506 56.5598C244.772 56.8258 244.906 57.1581 244.906 57.5568C244.906 58.0055 244.74 58.3627 244.407 58.6285C244.091 58.8777 243.651 59.0023 243.086 59.0023C242.621 59.0023 242.188 58.9193 241.79 58.7531C241.407 58.5704 241.067 58.3294 240.768 58.0304C240.469 57.7313 240.204 57.4073 239.971 57.0584Z" fill="#252525"/>
<path d="M290.809 107.07L297.284 116.971L303.794 107.07L305.217 119.175L311.252 119.175L307.422 94.2554L297.284 108.732L287.181 94.2554L283.35 119.175L289.384 119.175L290.809 107.07Z" fill="#252525"/>
<path d="M325.851 109.615L320.053 95.4434L313.373 95.4434L325.851 120.668L338.361 95.4434L331.647 95.4434L325.851 109.615Z" fill="#252525"/>
<path d="M358.24 95.4419L358.24 108.8L341.865 94.2554L341.865 119.175L347.357 119.175L347.357 105.816L363.767 120.362L363.767 95.4419L358.24 95.4419Z" fill="#252525"/>
<path d="M373.599 119.177L385.567 119.177L385.567 114.463L373.599 114.463L373.599 119.177ZM373.599 100.155L385.567 100.155L385.567 95.4434L373.599 95.4434L373.599 100.155ZM373.599 109.005L384.888 109.005L384.888 104.394L373.599 104.394L373.599 109.005ZM369.801 95.4434L369.801 119.177L375.294 119.177L375.294 95.4434L369.801 95.4434Z" fill="#252525"/>
<path d="M292.752 57.5203L298.105 57.5203C300.092 57.5203 301.836 57.2478 303.334 56.703C304.86 56.131 306.058 55.3139 306.929 54.2516C307.828 53.1893 308.278 51.9091 308.278 50.411C308.278 48.7766 307.828 47.4282 306.929 46.366C306.058 45.2765 304.86 44.4728 303.334 43.9553C301.836 43.4105 300.092 43.1382 298.105 43.1382L287.604 43.1382L287.604 71.7389L298.798 71.7389C301.059 71.7389 303.021 71.4666 304.683 70.9218C306.344 70.3498 307.624 69.4782 308.523 68.3068C309.45 67.1356 309.912 65.5967 309.912 63.6899C309.912 62.2462 309.586 61.0204 308.931 60.0127C308.306 58.9776 307.461 58.1331 306.398 57.4794C305.336 56.7984 304.151 56.3081 302.844 56.0086C301.537 55.7089 300.187 55.559 298.798 55.559L292.752 55.559L292.752 59.318L298.023 59.318C298.703 59.318 299.317 59.3861 299.861 59.5223C300.433 59.6313 300.937 59.822 301.373 60.0943C301.809 60.3668 302.149 60.7209 302.395 61.1567C302.64 61.5924 302.762 62.11 302.762 62.7093C302.762 63.6354 302.545 64.3709 302.108 64.9157C301.7 65.4332 301.141 65.8145 300.433 66.0596C299.725 66.2775 298.921 66.3866 298.023 66.3866L294.509 66.3866L294.509 48.4905L297.369 48.4905C298.567 48.4905 299.493 48.7358 300.148 49.226C300.801 49.7163 301.127 50.4518 301.127 51.4323C301.127 52.0861 300.978 52.6445 300.678 53.1076C300.379 53.5434 299.944 53.8839 299.371 54.129C298.827 54.3742 298.159 54.4967 297.369 54.4967L292.752 54.4967L292.752 57.5203Z" fill="#252525"/>
<path d="M320.537 71.7389L334.959 71.7389L334.959 66.0596L320.537 66.0596L320.537 71.7389ZM320.537 48.8174L334.959 48.8174L334.959 43.1382L320.537 43.1382L320.537 48.8174ZM320.537 59.4815L334.143 59.4815L334.143 53.9247L320.537 53.9247L320.537 59.4815ZM315.961 43.1382L315.961 71.7389L322.58 71.7389L322.58 43.1382L315.961 43.1382Z" fill="#252525"/>
<path d="M344.948 61.6873L340.127 65.1603C340.782 66.5223 341.693 67.7753 342.866 68.9193C344.037 70.0633 345.412 70.9758 346.992 71.6568C348.598 72.3105 350.328 72.6373 352.181 72.6373C353.516 72.6373 354.809 72.433 356.062 72.0245C357.342 71.6431 358.473 71.0712 359.453 70.3084C360.461 69.5457 361.252 68.606 361.823 67.4892C362.423 66.3452 362.722 65.0514 362.722 63.6077C362.722 62.4092 362.532 61.3468 362.151 60.4207C361.769 59.4946 361.238 58.6774 360.557 57.9692C359.904 57.2611 359.14 56.6617 358.269 56.1715C357.397 55.6539 356.458 55.2044 355.45 54.8231C354.114 54.3601 352.97 53.9242 352.018 53.5157C351.091 53.1071 350.369 52.6576 349.852 52.1673C349.361 51.6771 349.116 51.1051 349.116 50.4513C349.116 49.8248 349.375 49.3073 349.893 48.8986C350.41 48.4628 351.159 48.2449 352.14 48.2449C352.875 48.2449 353.556 48.3948 354.182 48.6943C354.837 48.9668 355.423 49.3617 355.94 49.8793C356.484 50.3696 356.961 50.9552 357.37 51.6362L362.641 48.6943C362.151 47.7138 361.442 46.7468 360.516 45.7934C359.59 44.8401 358.418 44.0502 357.002 43.4236C355.613 42.7972 353.965 42.4839 352.059 42.4839C350.206 42.4839 348.518 42.8108 346.992 43.4646C345.494 44.091 344.295 45.0171 343.396 46.2429C342.524 47.4687 342.089 48.926 342.089 50.6147C342.089 52.0312 342.347 53.2432 342.866 54.2511C343.383 55.2317 344.037 56.0761 344.826 56.7843C345.616 57.4653 346.447 58.0237 347.318 58.4595C348.217 58.8954 349.007 59.2358 349.689 59.481C351.078 59.9986 352.195 60.4615 353.038 60.8701C353.883 61.2788 354.496 61.7145 354.877 62.1777C355.258 62.6134 355.45 63.199 355.45 63.9345C355.45 64.8062 355.122 65.5008 354.469 66.0183C353.815 66.5087 352.984 66.7538 351.977 66.7538C351.022 66.7538 350.111 66.5495 349.239 66.1409C348.394 65.7323 347.605 65.1467 346.869 64.384C346.162 63.6213 345.521 62.7224 344.948 61.6873Z" fill="#252525"/>
<path d="M365.703 49.3078L373.548 49.3078L373.548 71.7389L380.453 71.7389L380.453 49.3078L388.339 49.3078L388.339 43.1382L365.703 43.1382L365.703 49.3078Z" fill="#252525"/>
</svg>
