<svg width="190" height="187" viewBox="0 0 190 187" fill="none" xmlns="http://www.w3.org/2000/svg">
<path fill-rule="evenodd" clip-rule="evenodd" d="M28.9464 7.89753C29.5751 6.0075 30.3614 4.1117 31.7732 2.65793C32.5249 3.05262 32.851 3.78109 33.1783 4.51213C33.3329 4.85741 33.4877 5.20326 33.6877 5.51478C34.015 6.01846 34.19 6.58631 34.3652 7.15505L34.3652 7.15513C34.4813 7.53188 34.5975 7.90903 34.7582 8.26818C35.2928 9.58111 35.5167 10.973 35.7404 12.3635C35.8296 12.9181 35.9188 13.4724 36.0277 14.0215C36.0413 14.2873 36.0334 14.5534 36.0256 14.8196C36.0164 15.1308 36.0072 15.442 36.0323 15.7531C36.1862 17.3716 35.8694 18.9692 35.5546 20.5565C35.4717 20.9746 35.3889 21.3919 35.3149 21.8088C36.2837 20.4909 37.0964 19.0532 37.9051 17.6226L37.9054 17.6222L37.9056 17.6217C38.0401 17.3838 38.1745 17.1461 38.3094 16.9092C39.2252 14.3586 40.1783 11.8034 41.563 9.45741C43.1875 6.71273 45.0929 3.97219 47.8683 2.27103C48.8753 1.54269 50.0714 1.17766 51.2521 0.817294L51.2523 0.817243C51.4235 0.765002 51.5943 0.712859 51.7642 0.659722C53.5171 0.271785 55.3318 -0.100369 57.1239 0.261291C56.9529 1.8863 56.2763 3.35728 55.6027 4.82163L55.6025 4.82205L55.6023 4.82248L55.6021 4.8229C55.4921 5.06196 55.3822 5.30085 55.2747 5.5402C53.6313 8.62124 51.7558 11.71 48.9115 13.8369C48.4232 14.2869 47.8302 14.5635 47.2364 14.8404C46.8422 15.0242 46.4477 15.2082 46.0833 15.4432C45.6968 15.6928 45.263 15.8274 44.8285 15.9622C44.5258 16.0561 44.2227 16.1501 43.9352 16.2832C43.3047 16.5829 42.6309 16.7473 41.9568 16.9118C41.3868 17.0508 40.8166 17.19 40.2721 17.4109C39.4925 17.6876 38.671 18.0661 38.2649 18.8287C37.7007 19.7402 37.1754 20.6744 36.6501 21.6087L36.6501 21.6087L36.6501 21.6088L36.65 21.6088C36.125 22.5426 35.5999 23.4765 35.036 24.3876C34.6995 25.0148 34.4238 25.6726 34.156 26.3332C36.6459 23.5378 39.9985 21.714 43.4514 20.3842C43.8077 20.2974 44.1631 20.2046 44.5186 20.1118C45.2993 19.908 46.0807 19.7041 46.8753 19.5615C49.0143 19.4134 51.1796 19.427 53.2803 19.9014C52.3194 22.1101 50.6514 23.9261 48.8749 25.5216C46.7471 27.2842 44.234 28.5136 41.6018 29.3281C39.9584 29.848 38.2461 30.073 36.5418 30.2969H36.5418C36.2507 30.3351 35.9598 30.3733 35.6695 30.413C35.2484 30.3751 34.8238 30.373 34.3994 30.3708H34.3993H34.3993L34.3993 30.3708C33.6342 30.367 32.8699 30.3632 32.1287 30.1498C31.7772 31.0245 31.3789 31.8795 30.9807 32.7345C30.418 33.9426 29.8553 35.1506 29.4249 36.4137C28.9434 37.3753 28.5455 38.3809 28.3105 39.4298C28.7526 39.0542 29.1622 38.6423 29.5715 38.2307C30.2309 37.5676 30.8895 36.9053 31.6816 36.3973C33.2089 35.2679 34.9204 34.4288 36.6422 33.64C38.0807 33.2394 39.5344 32.8903 40.9893 32.5457C42.7436 32.4793 44.5034 32.7507 46.1778 33.2763C45.3391 35.6443 43.515 37.4825 41.6375 39.0793C38.7802 41.2503 35.2219 42.1906 31.7582 42.9129C30.0954 43.1508 28.3937 43.1486 26.74 42.8292C26.5287 43.3761 26.3362 43.9296 26.1438 44.4828C25.9094 45.1567 25.6752 45.8302 25.4072 46.4912C25.23 47.0252 25.0857 47.5683 24.9414 48.1112C24.7642 48.7782 24.587 49.445 24.349 50.0941C24.0469 51.243 23.8113 52.4071 23.5758 53.5704L23.5758 53.5705L23.5758 53.5706L23.5757 53.5707L23.5757 53.5708C23.4943 53.9729 23.4129 54.3749 23.3288 54.7762C23.8 54.1826 24.2206 53.5513 24.6406 52.9209L24.6408 52.9206C24.7871 52.701 24.9334 52.4815 25.0817 52.2637C26.5044 50.3265 28.2609 48.6614 30.2086 47.2563C30.778 46.7617 31.4407 46.4162 32.1046 46.0702C32.5461 45.84 32.9882 45.6096 33.4037 45.3348C35.2306 44.5703 37.1643 44.0385 39.1468 43.9296C39.5325 43.9922 39.9272 43.9921 40.3212 43.9919C40.9811 43.9917 41.6388 43.9914 42.2479 44.2859C41.9454 45.4969 41.3929 46.6094 40.8408 47.7212C40.6565 48.0923 40.4722 48.4633 40.2973 48.8379C39.256 50.7566 37.844 52.4388 36.233 53.9065C34.513 55.2763 32.5775 56.3469 30.5708 57.2309C30.3072 57.3001 30.0436 57.37 29.7798 57.44C28.4654 57.7887 27.1482 58.1381 25.8134 58.3919C25.3355 58.3974 24.8585 58.4212 24.3817 58.4451C23.7639 58.476 23.1464 58.5069 22.5272 58.4976C22.4262 59.8646 22.2318 61.2233 22.0373 62.5822C21.7705 64.4459 21.5038 66.3099 21.4782 68.1955C21.6845 67.9664 21.8011 67.6883 21.9179 67.41C21.9752 67.2737 22.0324 67.1373 22.1002 67.0065C24.5266 62.6384 28.3006 58.9739 32.889 56.9227C33.2705 56.8363 33.6511 56.7283 34.0326 56.6201C35.0663 56.3269 36.1062 56.0319 37.1872 56.1601C37.3836 56.1579 37.5801 56.1536 37.7765 56.1493C38.4149 56.1352 39.0534 56.1212 39.692 56.1802C39.5162 56.6544 39.3713 57.1398 39.2265 57.625L39.2264 57.6251C38.9547 58.5355 38.6831 59.4451 38.2086 60.2787C37.8411 61.3176 37.2716 62.253 36.7018 63.1888L36.7014 63.1895L36.7014 63.1895C36.5526 63.4339 36.4039 63.6782 36.2587 63.9244C34.0024 67.1107 30.6454 69.4429 26.9454 70.6542C26.4412 70.7708 25.9393 70.9025 25.4374 71.0343L25.4371 71.0344C24.0369 71.402 22.6356 71.7699 21.1806 71.81C21.1634 72.3167 21.1347 72.8233 21.1059 73.3297C21.0261 74.7371 20.9464 76.1435 21.1144 77.549C21.0249 78.4155 21.1281 79.275 21.2311 80.1333L21.2312 80.1335L21.2312 80.1336C21.2549 80.331 21.2786 80.5282 21.2999 80.7255C21.4396 81.3474 21.4807 81.9844 21.5218 82.6207C21.5796 83.5163 21.6374 84.4104 21.9698 85.2588C22.3809 84.23 22.7511 83.1837 23.1215 82.1371C23.8199 80.1633 24.5187 78.1887 25.4925 76.329C26.921 73.477 29.111 70.9177 31.9752 69.4346C34.1457 68.4736 36.5498 68.2569 38.8954 68.086C38.0964 71.5496 37.0234 74.9976 35.1364 78.0411C33.9232 79.8611 32.5548 81.6212 30.8086 82.9641C28.2713 84.9109 25.2645 86.1724 22.1718 86.97C22.3841 89.5961 23.269 92.1149 24.1377 94.5877L24.1732 94.6889C24.3896 95.165 24.5296 95.6696 24.6693 96.1734C24.876 96.9186 25.0822 97.6622 25.5347 98.309C25.8007 97.6608 26.0253 96.9918 26.1382 96.3003C27.1635 92.6624 28.4107 89.0242 30.5488 85.8674C31.9709 83.9376 33.854 82.2673 36.1924 81.5599C36.9117 81.3751 37.6333 81.1965 38.355 81.0178L38.3561 81.0175C39.0755 80.8394 39.7952 80.6611 40.5133 80.4768C40.3759 81.1242 40.2676 81.7789 40.1593 82.4338L40.1593 82.4339L40.1593 82.434C39.9538 83.6764 39.7482 84.9194 39.3431 86.1145C38.4575 89.2056 36.9934 92.1458 34.9901 94.6704C34.0298 95.9923 32.6793 96.9443 31.3515 97.8804C31.1983 97.9883 31.0455 98.096 30.8936 98.2041C29.3823 98.9185 27.8188 99.5498 26.2034 99.9948C26.2778 100.173 26.3496 100.351 26.4215 100.53L26.4215 100.53C26.7065 101.239 26.9907 101.947 27.432 102.581C27.9994 103.999 28.8101 105.291 29.6616 106.554C30.0636 107.287 30.481 108.014 31.0668 108.625C31.489 107.918 31.6603 107.131 31.8318 106.344L31.8318 106.344C31.9125 105.973 31.9932 105.602 32.1002 105.24C32.8824 101.413 33.8216 97.4236 36.3713 94.3394C37.851 92.6667 39.8801 91.6136 41.8998 90.7239C41.9937 90.6981 42.0876 90.6724 42.1815 90.6467L42.1857 90.6455L42.1901 90.6444C42.9379 90.4399 43.6865 90.2353 44.4037 89.9367C44.4779 91.2717 44.2975 92.6056 44.1179 93.9335C44.0762 94.2418 44.0346 94.5498 43.9962 94.8573C43.8518 95.3527 43.7304 95.8557 43.6089 96.3587C43.3439 97.4559 43.079 98.5532 42.5764 99.572C41.5062 102.505 39.7007 105.259 37.1087 107.066C36.7856 107.231 36.4773 107.424 36.1693 107.617L36.1692 107.617C35.6034 107.972 35.0387 108.326 34.3858 108.506C33.5684 108.968 32.7254 109.376 31.8699 109.763C33.6279 112.463 35.8782 114.782 38.1157 117.089L38.1186 117.092C38.3909 117.372 38.6629 117.653 38.9339 117.934C39.2538 117.393 39.2827 116.769 39.3114 116.148C39.3243 115.87 39.3371 115.593 39.3762 115.324C39.4627 114.774 39.4297 114.223 39.3967 113.672C39.365 113.141 39.3332 112.61 39.4081 112.081C39.3388 108.695 40.3018 105.241 42.3553 102.514C43.6461 100.684 45.7864 99.8158 47.7991 98.9995L48.0961 98.8789C48.05 101.019 47.8684 103.156 47.6871 105.29C47.6555 105.663 47.6238 106.035 47.593 106.407C47.4088 108.357 46.8563 110.261 46.1317 112.077C45.1469 114.306 43.4779 116.175 41.4599 117.53C41.048 117.781 40.6871 118.097 40.3262 118.413L40.3258 118.414L40.3254 118.414L40.3249 118.414C40.1824 118.539 40.0398 118.664 39.894 118.785C42.0881 120.74 44.3031 122.683 46.7182 124.367C46.7479 124.39 46.7776 124.413 46.8074 124.436C46.8367 124.459 46.8661 124.482 46.8956 124.505L46.9002 124.508C47.23 124.767 47.5687 125.034 48.0062 125.064C47.8788 124.023 47.6326 123.003 47.3863 121.982C47.2233 121.307 47.0603 120.631 46.9317 119.949C46.3843 116.544 46.6751 112.844 48.5569 109.867C49.6013 108.19 51.2552 107.017 52.9961 106.142C53.5295 107.833 53.8215 109.574 54.1137 111.316C54.1702 111.653 54.2268 111.991 54.2852 112.328C54.3346 114.973 54.1422 117.733 52.846 120.104C51.6948 122.152 50.1897 123.972 48.679 125.761C49.8984 126.652 51.1787 127.457 52.4583 128.261L52.4585 128.261L52.4589 128.261C52.8861 128.53 53.3131 128.798 53.7378 129.069C54.3527 129.4 54.9587 129.749 55.5649 130.099L55.5657 130.099L55.5665 130.1L55.5672 130.1C56.8012 130.812 58.0362 131.524 59.3486 132.079C58.3318 130.715 57.4182 129.254 56.9239 127.619C55.6253 124.956 55.0371 121.972 55.1861 119.022C55.2069 118.929 55.2276 118.836 55.2484 118.743C55.5097 117.569 55.7799 116.355 56.5303 115.386C57.2745 114.423 58.092 113.416 59.2754 112.981C60.1797 113.728 60.7429 114.728 61.3057 115.728C61.5017 116.076 61.6976 116.424 61.9078 116.761C63.0127 119.21 63.6096 121.875 63.8622 124.542C63.815 125.033 63.8028 125.524 63.7906 126.017C63.7824 126.344 63.7743 126.673 63.7558 127.001C63.5012 128.279 63.1681 129.552 62.6262 130.742C62.2951 131.32 61.9219 131.873 61.5488 132.427L61.5486 132.427C61.3837 132.672 61.2188 132.916 61.0577 133.163C64.2396 134.893 67.6034 136.321 71.0758 137.355C70.1196 136.062 69.3673 134.638 68.6164 133.218L68.6158 133.216C68.438 132.88 68.2602 132.544 68.0799 132.209C67.4649 130.287 66.9652 128.323 66.5674 126.344C66.4675 124.11 66.7192 121.634 68.3192 119.921C68.4562 119.815 68.5905 119.703 68.7251 119.591C69.1953 119.197 69.6696 118.801 70.2811 118.659C71.8586 120.447 73.0141 122.571 73.8706 124.781C74.0007 125.327 74.1494 125.874 74.2986 126.423L74.2987 126.423L74.2987 126.423L74.2988 126.423C74.8146 128.32 75.3359 130.236 75.1099 132.205C75.0694 134.237 74.3802 136.25 73.286 137.958C75.3519 138.769 77.5213 139.224 79.6877 139.678L79.6878 139.679L79.6879 139.679L79.688 139.679L79.689 139.679C80.3357 139.815 80.9821 139.95 81.6254 140.095L82.015 140.155L82.0153 140.155C85.0306 140.615 88.0456 141.076 91.067 141.482C91.3639 138.986 93.4958 137.05 96.0816 137.05C98.5652 137.05 100.63 138.836 101.052 141.189C103.364 140.861 105.672 140.508 107.981 140.155L107.985 140.155L108.375 140.095C109.018 139.95 109.664 139.815 110.311 139.679L110.312 139.679L110.312 139.679L110.312 139.679C112.479 139.224 114.648 138.769 116.714 137.958C115.62 136.25 114.931 134.237 114.89 132.205C114.664 130.236 115.185 128.32 115.701 126.423C115.85 125.875 115.999 125.328 116.129 124.781C116.986 122.571 118.141 120.447 119.719 118.659C120.33 118.801 120.805 119.197 121.275 119.591L121.275 119.591C121.41 119.703 121.544 119.815 121.681 119.921C123.281 121.634 123.532 124.11 123.433 126.344C123.035 128.323 122.535 130.287 121.92 132.209C121.74 132.544 121.562 132.88 121.384 133.216L121.384 133.217C120.633 134.638 119.88 136.062 118.924 137.355C122.397 136.321 125.76 134.893 128.942 133.163C128.781 132.916 128.616 132.672 128.451 132.427C128.078 131.874 127.705 131.32 127.374 130.742C126.832 129.552 126.499 128.279 126.244 127.001C126.226 126.673 126.218 126.345 126.209 126.017C126.197 125.525 126.185 125.033 126.138 124.542C126.39 121.875 126.987 119.21 128.092 116.761C128.302 116.424 128.498 116.076 128.694 115.728L128.694 115.728L128.694 115.728C129.257 114.728 129.82 113.728 130.725 112.981C131.908 113.416 132.725 114.423 133.47 115.386C134.221 116.356 134.491 117.571 134.753 118.745L134.754 118.751C134.774 118.841 134.794 118.932 134.814 119.022C134.963 121.972 134.375 124.956 133.076 127.619C132.582 129.254 131.668 130.715 130.651 132.079C131.963 131.525 133.196 130.813 134.429 130.102C135.037 129.752 135.645 129.401 136.262 129.069C136.686 128.799 137.112 128.531 137.538 128.263L137.539 128.263C138.819 127.458 140.101 126.653 141.322 125.761C139.81 123.972 138.305 122.152 137.154 120.104C135.857 117.733 135.666 114.973 135.715 112.328C135.772 111.998 135.827 111.667 135.883 111.337L135.883 111.333L135.883 111.333L135.883 111.333C136.176 109.585 136.469 107.838 137.004 106.142C138.745 107.017 140.399 108.19 141.443 109.867C143.325 112.844 143.616 116.544 143.068 119.949C142.939 120.634 142.776 121.312 142.612 121.989L142.612 121.99L142.612 121.99C142.367 123.008 142.121 124.026 141.994 125.064C142.431 125.034 142.77 124.767 143.1 124.508C143.161 124.46 143.221 124.413 143.282 124.367C145.697 122.683 147.912 120.74 150.105 118.785C149.959 118.663 149.816 118.538 149.673 118.413C149.312 118.097 148.952 117.781 148.54 117.53C146.522 116.175 144.853 114.306 143.868 112.077C143.144 110.261 142.592 108.357 142.406 106.407C142.376 106.039 142.345 105.67 142.313 105.302L142.312 105.292L142.312 105.291C142.131 103.157 141.95 101.019 141.903 98.8789L142.201 98.9999C144.214 99.8162 146.355 100.684 147.645 102.514C149.699 105.241 150.662 108.695 150.592 112.081C150.667 112.61 150.635 113.142 150.603 113.673C150.57 114.224 150.537 114.775 150.623 115.324C150.663 115.593 150.676 115.872 150.689 116.151C150.718 116.771 150.747 117.393 151.067 117.934C151.338 117.652 151.61 117.372 151.883 117.091L151.884 117.09L151.885 117.089C154.122 114.782 156.372 112.463 158.131 109.763C157.274 109.376 156.432 108.968 155.614 108.506C154.961 108.326 154.397 107.972 153.832 107.618C153.524 107.425 153.215 107.231 152.892 107.066C150.3 105.259 148.494 102.505 147.424 99.572C146.921 98.5517 146.655 97.4525 146.39 96.3537C146.269 95.8523 146.148 95.3511 146.004 94.8573C145.966 94.5523 145.925 94.247 145.883 93.9413C145.703 92.6108 145.521 91.2743 145.596 89.9367C146.314 90.2354 147.063 90.4402 147.812 90.6447C147.908 90.6711 148.004 90.6974 148.101 90.7239C150.12 91.6136 152.148 92.6667 153.629 94.3394C156.178 97.4236 157.117 101.413 157.899 105.24C158.007 105.603 158.088 105.975 158.169 106.347L158.169 106.347C158.34 107.134 158.511 107.919 158.933 108.625C159.519 108.014 159.936 107.287 160.338 106.554C161.19 105.291 162 103.999 162.568 102.581C163.01 101.946 163.295 101.237 163.58 100.526L163.581 100.525C163.652 100.348 163.723 100.171 163.797 99.9948C162.181 99.5498 160.617 98.9185 159.107 98.2041C159.033 98.1512 158.958 98.0984 158.883 98.0456L158.649 97.88C157.321 96.9441 155.971 95.9921 155.01 94.6704C153.007 92.1458 151.543 89.2056 150.657 86.1145C150.251 84.9176 150.045 83.6726 149.839 82.4283C149.731 81.7753 149.623 81.1224 149.487 80.4768C150.202 80.6605 150.919 80.838 151.636 81.0155L151.637 81.0159C152.362 81.1952 153.085 81.3745 153.807 81.5599C156.145 82.2673 158.03 83.9376 159.451 85.8674C161.589 89.0242 162.837 92.6624 163.862 96.3003C163.975 96.9918 164.199 97.6608 164.466 98.309C164.919 97.6617 165.125 96.9177 165.331 96.1719L165.332 96.1717C165.471 95.6684 165.611 95.1644 165.826 94.6889L165.864 94.5832C166.732 92.1119 167.616 89.5945 167.828 86.97C164.736 86.1724 161.729 84.9109 159.191 82.9641C157.445 81.6212 156.077 79.8611 154.863 78.0411C152.976 74.9976 151.903 71.5496 151.105 68.086C153.449 68.2569 155.855 68.4736 158.025 69.4346C160.889 70.9177 163.079 73.477 164.507 76.329C165.482 78.1908 166.182 80.1678 166.881 82.1439C167.25 83.1882 167.62 84.2322 168.03 85.2588C168.362 84.4107 168.42 83.517 168.478 82.6217V82.6216C168.519 81.985 168.56 81.3477 168.7 80.7255C168.722 80.5297 168.745 80.334 168.769 80.1381L168.769 80.1363C168.872 79.277 168.975 78.4165 168.886 77.549C169.054 76.1432 168.974 74.7366 168.894 73.3289C168.865 72.8228 168.836 72.3165 168.819 71.81C167.364 71.7698 165.962 71.4017 164.561 71.0339L164.561 71.0338L164.56 71.0338C164.059 70.9022 163.558 70.7706 163.055 70.6542C159.355 69.4429 155.997 67.1107 153.742 63.9244C153.597 63.6792 153.449 63.4358 153.301 63.1924L153.3 63.1912L153.3 63.1911L153.3 63.1909C152.729 62.2544 152.159 61.3184 151.792 60.2787C151.316 59.4433 151.044 58.5316 150.772 57.6192L150.772 57.619L150.771 57.6187C150.627 57.1356 150.483 56.6524 150.308 56.1802C150.947 56.1212 151.585 56.1352 152.223 56.1493C152.42 56.1536 152.616 56.1579 152.813 56.1601C153.893 56.0319 154.934 56.3269 155.968 56.6201C156.349 56.7283 156.73 56.8363 157.111 56.9227C161.699 58.9739 165.473 62.6384 167.899 67.0065C167.967 67.1368 168.024 67.2727 168.081 67.4086C168.199 67.6874 168.316 67.966 168.522 68.1955C168.497 66.3112 168.23 64.4486 167.964 62.5861C167.769 61.226 167.574 59.8659 167.473 58.4976C166.854 58.5069 166.236 58.476 165.618 58.445C165.141 58.4212 164.664 58.3973 164.187 58.3919C162.85 58.1376 161.529 57.7872 160.212 57.4378C160.066 57.3992 159.921 57.3607 159.775 57.3222C159.66 57.2917 159.544 57.2612 159.429 57.2309C157.423 56.3469 155.487 55.2763 153.767 53.9065C152.156 52.4388 150.743 50.7566 149.703 48.8379C149.528 48.463 149.344 48.0916 149.159 47.7201L149.159 47.7199L149.159 47.7198C148.607 46.6085 148.055 45.4964 147.752 44.2859C148.361 43.9914 149.019 43.9917 149.679 43.9919C150.073 43.9921 150.467 43.9922 150.853 43.9296C152.835 44.0385 154.77 44.5703 156.596 45.3348C157.012 45.6096 157.454 45.84 157.895 46.0701C158.559 46.4162 159.221 46.7616 159.791 47.2563C161.739 48.6614 163.496 50.3265 164.918 52.2637C165.067 52.4824 165.214 52.7028 165.361 52.9233L165.363 52.9264C165.782 53.5549 166.201 54.1843 166.671 54.7762C166.589 54.3844 166.51 53.9918 166.43 53.5992L166.429 53.5939C166.192 52.4227 165.956 51.2507 165.651 50.0941C165.413 49.4445 165.236 48.7772 165.059 48.1097L165.059 48.1096C164.915 47.5672 164.77 47.0246 164.594 46.4912C164.325 45.8302 164.091 45.1566 163.856 44.4827L163.856 44.4819L163.856 44.4815L163.856 44.4812C163.663 43.9285 163.471 43.3756 163.26 42.8292C161.607 43.1486 159.905 43.1508 158.242 42.9129C154.777 42.1906 151.219 41.2503 148.362 39.0793C146.485 37.4825 144.662 35.6443 143.822 33.2763C145.497 32.7507 147.257 32.4793 149.01 32.5457C150.466 32.8903 151.92 33.2394 153.357 33.64C155.08 34.4288 156.791 35.2679 158.319 36.3973C159.111 36.9053 159.77 37.5676 160.429 38.2308C160.838 38.6424 161.248 39.0543 161.69 39.4298C161.454 38.3809 161.056 37.3753 160.576 36.4137C160.145 35.1504 159.582 33.9423 159.019 32.734L159.019 32.7335C158.621 31.8788 158.222 31.0241 157.871 30.1498C157.13 30.3632 156.366 30.367 155.601 30.3708C155.176 30.373 154.752 30.3751 154.331 30.413C154.041 30.3734 153.75 30.3352 153.459 30.2969L153.458 30.2968C151.753 30.0729 150.041 29.8479 148.397 29.3281C145.765 28.5136 143.253 27.2842 141.126 25.5216C139.348 23.9261 137.681 22.1101 136.719 19.9014C138.82 19.427 140.985 19.4134 143.124 19.5615C143.919 19.7039 144.699 19.9077 145.479 20.1112C145.835 20.2042 146.191 20.2972 146.549 20.3842C150.001 21.714 153.355 23.5378 155.844 26.3332C155.576 25.6726 155.301 25.0148 154.964 24.3876C154.398 23.4732 153.871 22.5359 153.344 21.5987C152.821 20.6677 152.298 19.7369 151.736 18.8287C151.329 18.0661 150.507 17.6876 149.728 17.4109C149.184 17.19 148.614 17.0508 148.044 16.9118C147.369 16.7473 146.695 16.5829 146.065 16.2832C145.778 16.1501 145.474 16.0561 145.172 15.9622C144.737 15.8274 144.303 15.6928 143.917 15.4432C143.552 15.2081 143.158 15.0241 142.763 14.8402C142.17 14.5633 141.576 14.2868 141.089 13.8369C138.245 11.71 136.369 8.62124 134.725 5.5402C134.618 5.30149 134.508 5.06323 134.399 4.82481C133.724 3.35941 133.047 1.88748 132.876 0.261291C134.669 -0.100369 136.483 0.271785 138.236 0.659722C138.405 0.712684 138.575 0.764658 138.746 0.816725L138.746 0.816768C139.928 1.17731 141.124 1.54234 142.132 2.27103C144.908 3.97219 146.813 6.71273 148.438 9.45741C149.822 11.8034 150.774 14.3586 151.69 16.9092C151.829 17.154 151.968 17.3996 152.107 17.6453L152.108 17.6455C152.913 19.0686 153.721 20.4979 154.685 21.8088C154.611 21.3903 154.528 20.9713 154.445 20.5515C154.13 18.9659 153.814 17.3699 153.967 15.7531C153.993 15.439 153.984 15.1246 153.974 14.8104C153.967 14.5473 153.959 14.2843 153.972 14.0215C154.081 13.4704 154.171 12.914 154.261 12.3573C154.484 10.9688 154.708 9.57916 155.242 8.26818C155.403 7.90833 155.519 7.53042 155.636 7.15293C155.811 6.5849 155.985 6.01784 156.312 5.51478C156.512 5.20285 156.667 4.85651 156.822 4.51079C157.15 3.7802 157.476 3.05237 158.227 2.65793C159.638 4.1117 160.424 6.0075 161.053 7.89753C161.62 10.2744 161.954 12.7684 161.445 15.1909C161.327 18.0856 160.204 20.7777 159.103 23.4193C159.006 23.6523 158.909 23.885 158.813 24.1173C158.598 24.4371 158.408 24.7722 158.218 25.107C157.917 25.6382 157.616 26.1689 157.215 26.6377C157.984 28.0784 158.68 29.5568 159.377 31.0352L159.377 31.0355L159.377 31.0358L159.378 31.0362C160.187 32.7534 160.996 34.4708 161.918 36.1296L161.892 35.9075L161.845 35.5046C161.587 33.3233 161.327 31.1257 161.549 28.9307C161.627 28.5255 161.676 28.1161 161.725 27.7068C161.796 27.1152 161.867 26.524 162.024 25.9468C162.893 22.6047 164.254 19.3135 166.591 16.7159C166.703 16.8363 166.816 16.9559 166.93 17.0755L166.933 17.0787C167.276 17.4409 167.62 17.803 167.938 18.1871C168.135 18.5603 168.34 18.9295 168.544 19.2987C168.713 19.6039 168.882 19.9091 169.048 20.2168C169.751 21.8349 169.978 23.6098 170.082 25.3592C169.979 27.8522 169.386 30.2995 168.559 32.6499C168.081 34.9663 166.759 36.8998 165.444 38.824L165.444 38.8242C164.973 39.512 164.504 40.1986 164.074 40.9011C164.196 41.7833 164.523 42.6138 164.851 43.4452L164.851 43.4454L164.852 43.4457C165.081 44.0261 165.31 44.6068 165.469 45.2059C165.709 45.862 165.933 46.5247 166.156 47.1874L166.156 47.1879L166.156 47.1884C166.625 48.5802 167.095 49.9721 167.72 51.3038C167.868 50.5643 167.882 49.8137 167.895 49.0644V49.0642C167.912 48.1322 167.929 47.2023 168.205 46.2988C168.347 44.9381 168.729 43.6274 169.209 42.3514C169.363 41.6116 169.731 40.9656 170.1 40.3183C170.329 39.9161 170.559 39.5135 170.738 39.0876C172.177 36.7772 174.215 34.8046 176.622 33.5101C176.751 33.4656 176.888 33.4046 177.029 33.3417C177.497 33.1335 178.01 32.9048 178.436 33.1831C178.972 34.329 179.442 35.5184 179.613 36.7771L179.617 36.8204C179.797 38.5681 179.983 40.3719 179.462 42.082C179.402 42.329 179.344 42.5779 179.286 42.8274L179.286 42.8276C178.995 44.0819 178.7 45.3535 178.085 46.4865C178.019 46.6133 177.953 46.7406 177.887 46.8681C176.858 48.8551 175.799 50.9012 174.067 52.372C172.683 53.9004 170.776 54.8031 168.859 55.4795L169.026 56.4142C169.615 59.7058 170.204 62.9977 170.884 66.2701C171.234 65.1068 171.523 63.9283 171.812 62.7497L171.812 62.7491C172.016 61.917 172.22 61.0849 172.445 60.2582C172.577 59.8059 172.8 59.3944 173.023 58.9826L173.024 58.9825C173.178 58.6986 173.332 58.4146 173.456 58.1171C175.27 53.9755 179.444 50.9795 183.977 50.6376C183.919 51.0017 183.939 51.3673 183.96 51.7327C183.982 52.1048 184.003 52.4768 183.941 52.8469C183.826 53.3993 183.792 53.9604 183.757 54.5214C183.724 55.0579 183.691 55.5944 183.588 56.1233C183.257 57.7659 182.834 59.4049 182.082 60.9136C180.552 64.8667 177.614 68.1409 174.238 70.6583C173.648 71.1446 172.945 71.4314 172.244 71.7178L172.244 71.7178L172.244 71.7179C171.945 71.8399 171.647 71.9617 171.358 72.0988C171.51 72.8423 171.474 73.5929 171.437 74.3445C171.408 74.963 171.378 75.5821 171.453 76.1988C171.38 78.0405 171.327 79.8875 171.548 81.7211C171.828 80.5947 172.255 79.5164 172.833 78.5074C173.361 76.9091 174.156 75.4185 175.128 74.0463C177.217 70.584 180.864 68.1291 184.853 67.4231C185.913 67.1471 186.996 66.9085 188.091 67.1392C188.033 67.4698 187.98 67.8014 187.926 68.1331C187.772 69.0836 187.619 70.0346 187.371 70.9631C187.303 71.1341 187.232 71.3045 187.161 71.4749L187.161 71.4751C186.899 72.1033 186.637 72.7326 186.502 73.4039C186.401 73.9617 186.129 74.4479 185.856 74.9355C185.673 75.2622 185.49 75.5896 185.358 75.9394C185.059 76.7184 184.589 77.4006 184.119 78.0823L184.119 78.0828C183.948 78.3316 183.776 78.5804 183.613 78.8338C180.432 82.8356 175.966 86.1117 170.801 86.8555C170.563 87.6313 170.442 88.4303 170.321 89.2295C170.213 89.9435 170.104 90.6577 169.913 91.3559C169.738 92.0144 169.575 92.6766 169.412 93.3388L169.412 93.3389L169.412 93.3391C168.971 95.1313 168.53 96.9238 167.859 98.6461C168.845 97.57 169.608 96.3336 170.372 95.0965C171.016 94.052 171.661 93.007 172.441 92.0577C174.371 89.2889 177.172 87.0767 180.422 86.0653C182.175 85.3887 184.077 85.3382 185.934 85.3145C186.351 85.3846 186.777 85.4142 187.202 85.4438C188.028 85.5011 188.852 85.5584 189.615 85.9108C189.453 86.9272 188.943 87.8166 188.435 88.7014C188.263 89.0014 188.091 89.301 187.934 89.6048C186.333 92.6339 183.892 95.1647 181.091 97.127C176.923 99.9925 171.806 101.152 166.801 101.234C166.335 102.625 165.694 103.939 165.052 105.252C164.582 106.214 164.113 107.175 163.712 108.167C164.67 107.642 165.599 107.064 166.528 106.486L166.528 106.486L166.529 106.485L166.529 106.485C168.109 105.502 169.688 104.519 171.411 103.798C173.561 102.781 175.926 102.312 178.282 102.096C178.629 102.112 178.978 102.12 179.329 102.128C180.87 102.163 182.43 102.198 183.848 102.875C184.164 103.041 184.486 103.199 184.808 103.356C185.765 103.825 186.721 104.293 187.545 104.976C187.471 105.082 187.318 105.294 187.241 105.399C186.584 105.871 185.954 106.379 185.324 106.887L185.323 106.888L185.323 106.888C184.825 107.289 184.327 107.69 183.816 108.073C183.592 108.214 183.368 108.357 183.144 108.499L183.144 108.499C182.161 109.126 181.178 109.753 180.103 110.218C176.714 111.839 172.91 112.315 169.192 112.303C168.67 112.174 168.138 112.09 167.606 112.006L167.606 112.006C166.833 111.885 166.061 111.763 165.319 111.501C165.088 111.409 164.85 111.329 164.612 111.249C163.878 111.003 163.142 110.756 162.613 110.156C162.217 110.894 161.687 111.54 161.158 112.185C160.987 112.394 160.816 112.602 160.65 112.813C160.071 113.679 159.432 114.501 158.793 115.323L158.792 115.323C158.189 116.099 157.585 116.875 157.033 117.688C160.81 115.966 164.898 114.664 169.091 114.725C172.352 114.625 175.701 115.726 178.083 117.986C178.158 118.06 178.234 118.135 178.311 118.21C179.053 118.938 179.837 119.707 180.02 120.768C178.359 121.975 176.43 122.725 174.488 123.347C174.22 123.414 173.951 123.483 173.682 123.552C172.294 123.909 170.895 124.269 169.456 124.302C168.801 124.426 168.139 124.401 167.477 124.375C166.94 124.355 166.403 124.334 165.87 124.393C165.31 124.3 164.746 124.278 164.182 124.257C163.742 124.24 163.302 124.223 162.865 124.173C159.812 123.68 157.003 122.026 154.932 119.759C151.697 122.663 148.43 125.549 144.829 128.003C145.001 127.96 145.174 127.921 145.348 127.881C145.747 127.79 146.147 127.7 146.531 127.559C147.73 127.066 149 126.805 150.267 126.545L150.267 126.544L150.267 126.544C150.701 126.455 151.134 126.366 151.564 126.268C151.917 126.25 152.27 126.222 152.623 126.193L152.624 126.193C153.678 126.108 154.731 126.023 155.785 126.223C157.622 126.269 159.493 126.576 161.098 127.516C162.743 128.132 164.031 129.374 165.117 130.713C165.539 131.256 165.815 131.902 165.924 132.578C163.7 133.884 161.264 134.868 158.714 135.3C158.237 135.356 157.762 135.436 157.288 135.515H157.287H157.287C156.256 135.689 155.225 135.862 154.174 135.793C152.277 136.019 150.436 135.539 148.613 135.064C148.201 134.957 147.79 134.85 147.38 134.751C146.075 134.391 144.949 133.612 143.889 132.803C143.453 132.377 143.04 131.928 142.626 131.479C142.255 131.076 141.883 130.672 141.495 130.285C140.771 130.578 140.112 130.993 139.451 131.409C138.972 131.71 138.492 132.011 137.988 132.267C137.115 132.848 136.191 133.345 135.268 133.842C134.241 134.395 133.214 134.948 132.257 135.616C133.957 135.498 135.654 135.387 137.357 135.371C141.448 135.643 145.73 136.42 149.08 138.923C150.669 140.117 151.837 141.946 151.892 143.964C150.184 144.672 148.315 144.66 146.479 144.648C146.01 144.645 145.543 144.643 145.081 144.652C141.958 144.289 138.82 143.647 135.952 142.322L135.766 142.215C134.207 141.313 132.561 140.362 131.608 138.783C131.156 138.059 130.704 137.326 130.446 136.51C130.132 136.656 129.819 136.803 129.505 136.95L129.504 136.95C127.365 137.953 125.222 138.957 122.97 139.692C122.498 139.898 122.009 140.068 121.52 140.237L121.52 140.237L121.52 140.237L121.519 140.237C120.858 140.466 120.196 140.695 119.577 141.016C120.028 141.14 120.494 141.189 120.958 141.156C121.55 141.115 122.134 141.194 122.718 141.273C123.066 141.32 123.415 141.367 123.766 141.388C124.225 141.477 124.687 141.553 125.15 141.629L125.151 141.63H125.151C126.501 141.852 127.853 142.074 129.121 142.609C132.136 143.522 135.055 145.297 136.693 148.054C137.396 149.162 137.655 150.488 137.602 151.787C133.249 152.775 128.827 151.43 124.759 149.939C124.508 149.797 124.256 149.656 124.002 149.514C122.109 148.455 120.172 147.372 118.824 145.639C118.081 144.845 117.578 143.89 117.076 142.936L117.076 142.935C116.852 142.509 116.627 142.082 116.381 141.671C111.133 142.878 105.847 143.991 100.487 144.541C99.6221 146.074 97.9733 147.11 96.0816 147.11C94.3148 147.11 92.76 146.207 91.8576 144.838L91.7707 144.82C91.4589 144.757 91.148 144.693 90.8408 144.665C85.0255 144.174 79.2996 142.977 73.6185 141.671C73.3728 142.082 73.1485 142.509 72.9241 142.935L72.924 142.936L72.9239 142.936C72.4219 143.89 71.9194 144.845 71.1758 145.639C69.8276 147.372 67.8912 148.455 65.9979 149.514L65.9977 149.514C65.7442 149.656 65.4915 149.797 65.2411 149.939C61.1725 151.43 56.7506 152.775 52.3975 151.787C52.3451 150.488 52.6041 149.162 53.3068 148.054C54.9454 145.297 57.8639 143.522 60.879 142.609C62.1471 142.074 63.4995 141.852 64.8492 141.63L64.8493 141.63C65.3123 141.553 65.7751 141.477 66.234 141.388C66.5849 141.367 66.9338 141.32 67.2824 141.273C67.8664 141.194 68.45 141.115 69.0422 141.156C69.5064 141.189 69.9719 141.14 70.4229 141.016C69.8037 140.695 69.1421 140.466 68.4803 140.237C67.9912 140.068 67.5021 139.898 67.0297 139.692C64.7783 138.957 62.6348 137.953 60.4951 136.95C60.1813 136.803 59.8676 136.656 59.5536 136.51C59.2962 137.326 58.844 138.059 58.3919 138.783C57.4393 140.362 55.7933 141.314 54.2343 142.215L54.0484 142.322C51.1801 143.647 48.0415 144.289 44.919 144.652C44.4576 144.643 43.9908 144.645 43.522 144.648C41.6851 144.66 39.8164 144.672 38.1078 143.964C38.1637 141.946 39.3316 140.117 40.9196 138.923C44.2696 136.42 48.5519 135.643 52.6433 135.371C54.346 135.387 56.0438 135.498 57.7432 135.616C56.7861 134.948 55.7595 134.396 54.7329 133.843C53.8095 133.345 52.886 132.848 52.0129 132.267C51.5084 132.012 51.029 131.71 50.55 131.409C49.8891 130.994 49.2289 130.579 48.5042 130.285C48.1162 130.672 47.7448 131.076 47.3732 131.479C46.9603 131.928 46.5472 132.377 46.1112 132.803C45.0506 133.612 43.9248 134.391 42.6208 134.751C42.2107 134.85 41.8001 134.957 41.3886 135.064L41.3868 135.064C39.564 135.539 37.723 136.019 35.8263 135.793C34.7742 135.862 33.7436 135.689 32.7119 135.515C32.2376 135.436 31.7631 135.356 31.2862 135.3C28.7356 134.868 26.2992 133.884 24.0757 132.578C24.1851 131.902 24.4615 131.256 24.882 130.713C25.968 129.374 27.2569 128.132 28.9018 127.516C30.5082 126.576 32.3779 126.269 34.2146 126.223C35.2682 126.023 36.3222 126.108 37.3762 126.193H37.3764C37.7297 126.222 38.083 126.25 38.4363 126.268C38.8663 126.366 39.2996 126.455 39.733 126.544C41.0003 126.805 42.2698 127.066 43.4693 127.559C43.854 127.7 44.2544 127.791 44.6552 127.882C44.8276 127.921 45.0001 127.96 45.1714 128.003C41.5703 125.549 38.302 122.663 35.0679 119.759C32.9974 122.026 30.1884 123.68 27.1348 124.173C26.6973 124.223 26.2579 124.24 25.8184 124.257C25.2545 124.278 24.6905 124.3 24.1308 124.393C23.5964 124.334 23.0595 124.355 22.5229 124.375H22.5228C21.8606 124.401 21.1991 124.426 20.5441 124.302C19.1057 124.269 17.7082 123.91 16.3202 123.553L16.32 123.553C16.0502 123.483 15.7808 123.414 15.5115 123.347C13.5692 122.725 11.6404 121.975 9.98014 120.768C10.1631 119.707 10.9462 118.939 11.6871 118.212C11.7641 118.136 11.8407 118.061 11.9161 117.986C14.2998 115.726 17.6485 114.625 20.9094 114.725C25.102 114.664 29.1894 115.966 32.9678 117.688C32.4148 116.875 31.8114 116.099 31.2079 115.323C30.5688 114.501 29.9296 113.679 29.3501 112.813C29.1843 112.602 29.0139 112.395 28.8434 112.187C28.3136 111.541 27.7833 110.895 27.387 110.156C26.8573 110.756 26.1216 111.003 25.3881 111.249L25.388 111.249C25.1497 111.329 24.9117 111.409 24.6811 111.501C23.9397 111.763 23.167 111.885 22.3941 112.006L22.394 112.006C21.8621 112.09 21.3302 112.174 20.8082 112.303C17.0905 112.315 13.2861 111.839 9.89765 110.218C8.82165 109.754 7.83921 109.127 6.857 108.5C6.63301 108.357 6.40903 108.214 6.18395 108.073C5.67328 107.69 5.17551 107.289 4.6777 106.888L4.67761 106.888L4.67751 106.888L4.67737 106.888L4.67726 106.887L4.67717 106.887L4.67711 106.887C4.04669 106.379 3.41618 105.871 2.75928 105.399C2.68198 105.294 2.5296 105.082 2.45467 104.976C3.27841 104.293 4.23442 103.825 5.19003 103.357C5.5126 103.199 5.83512 103.042 6.1525 102.875C7.57 102.198 9.13019 102.163 10.6713 102.128H10.6713H10.6714H10.6715C11.0219 102.12 11.3714 102.112 11.718 102.096C14.0743 102.312 16.4387 102.781 18.5892 103.798C20.3121 104.519 21.8926 105.503 23.4729 106.486L23.4732 106.487C24.4016 107.064 25.33 107.642 26.2872 108.167C25.8866 107.174 25.416 106.21 24.9452 105.247C24.3047 103.935 23.6638 102.624 23.1981 101.234C18.1948 101.152 13.0769 99.9925 8.90891 97.127C6.10769 95.1647 3.6673 92.6339 2.06639 89.6048C1.90866 89.3012 1.73701 89.0019 1.56506 88.702L1.56495 88.7019C1.05744 87.8169 0.547333 86.9274 0.384766 85.9108C1.14756 85.5584 1.97209 85.5011 2.79722 85.4438H2.79733C3.2229 85.4142 3.64862 85.3846 4.06612 85.3145C5.92267 85.3382 7.82463 85.3887 9.57806 86.0653C12.8274 87.0767 15.629 89.2889 17.5599 92.0577C18.3395 93.0072 18.9843 94.0523 19.6289 95.097C20.3921 96.3339 21.1548 97.5701 22.1402 98.6461C21.4701 96.9242 21.0292 95.1322 20.5884 93.3404C20.4254 92.6777 20.2623 92.015 20.0877 91.3559C19.8955 90.6566 19.7871 89.9413 19.6786 89.2262C19.5576 88.428 19.4367 87.6302 19.1994 86.8555C14.0342 86.1117 9.56738 82.8356 6.38692 78.8338C6.22421 78.5812 6.05324 78.3332 5.88225 78.0852C5.41161 77.4025 4.94078 76.7195 4.6415 75.9394C4.50954 75.589 4.32598 75.2611 4.14275 74.9338C3.87007 74.4468 3.59811 73.961 3.49801 73.4039C3.36288 72.7321 3.1008 72.1024 2.83912 71.4737C2.76837 71.3037 2.69764 71.1337 2.62945 70.9631C2.38223 70.0388 2.22921 69.0922 2.07626 68.1461L2.07622 68.1458C2.02191 67.8099 1.96762 67.474 1.90912 67.1392C3.00438 66.9085 4.08748 67.1471 5.1464 67.4231C9.13666 68.1291 12.7836 70.584 14.8725 74.0463C15.8433 75.4185 16.639 76.9091 17.1673 78.5074C17.7449 79.5164 18.1712 80.5947 18.4528 81.7211C18.6734 79.8875 18.6203 78.0405 18.547 76.1988C18.6225 75.5819 18.5925 74.9625 18.5626 74.3438C18.5262 73.5924 18.4899 72.8421 18.6426 72.0988C18.3535 71.9619 18.0556 71.8403 17.7576 71.7186L17.7575 71.7186C17.0557 71.432 16.353 71.145 15.7629 70.6583C12.3849 68.1409 9.44824 64.8667 7.91854 60.9136C7.1666 59.4049 6.74375 57.7659 6.4117 56.1233C6.30923 55.5953 6.27611 55.0596 6.24298 54.5239C6.20824 53.9621 6.17349 53.4001 6.05873 52.8469C5.99717 52.4775 6.01836 52.1063 6.03957 51.735C6.06047 51.3688 6.08139 51.0024 6.02297 50.6376C10.556 50.9795 14.7302 53.9755 16.544 58.1171C16.668 58.4141 16.8219 58.6977 16.9757 58.9812C17.1994 59.3934 17.4229 59.8054 17.5543 60.2582C17.7795 61.0845 17.9834 61.9161 18.1873 62.7477C18.4764 63.9269 18.7655 65.1061 19.1156 66.2701C19.7967 62.9947 20.3862 59.6999 20.9757 56.4053L21.1414 55.4795C19.224 54.8031 17.3172 53.9004 15.933 52.372C14.199 50.8989 13.1381 48.8484 12.1085 46.8585L12.024 46.6952L11.9158 46.4865C11.3015 45.356 11.0067 44.0875 10.7158 42.8359L10.7157 42.8355L10.7157 42.8353L10.7155 42.8344C10.6569 42.5825 10.5985 42.3313 10.5377 42.082C10.0181 40.3724 10.2034 38.569 10.3828 36.8217L10.3874 36.7771C10.5576 35.5184 11.0275 34.329 11.5637 33.1831C11.9899 32.905 12.5024 33.1332 12.9698 33.3412C13.1114 33.4043 13.2489 33.4655 13.3786 33.5101C15.7848 34.8046 17.8239 36.7772 19.2629 39.0876C19.4413 39.5133 19.6706 39.9158 19.8996 40.3177C20.2684 40.9652 20.6364 41.6114 20.7902 42.3514C21.2711 43.6274 21.6521 44.9381 21.7948 46.2988C22.071 47.2032 22.088 48.134 22.1049 49.0669C22.1185 49.8153 22.1322 50.5652 22.2797 51.3038C22.9061 49.9699 23.3761 48.5755 23.846 47.1813C24.0687 46.5206 24.2913 45.86 24.5306 45.2059C24.69 44.6071 24.9191 44.0266 25.1481 43.4465C25.4764 42.6147 25.8044 41.7838 25.9259 40.9011C25.4965 40.1995 25.0277 39.5137 24.5581 38.8268L24.558 38.8267C23.2419 36.9016 21.9195 34.9674 21.4402 32.6499C20.6137 30.2995 20.0208 27.8522 19.9184 25.3592C20.0227 23.6098 20.2485 21.8349 20.9528 20.2168C21.1228 19.8996 21.297 19.5849 21.4713 19.2703C21.6706 18.9105 21.8698 18.5508 22.0626 18.1871C22.3804 17.8029 22.724 17.4406 23.0676 17.0783L23.0677 17.0783L23.0677 17.0783L23.0677 17.0783C23.182 16.9578 23.2963 16.8372 23.4097 16.7159C25.7462 19.3135 27.1068 22.6047 27.9758 25.9468C28.133 26.5248 28.204 27.1168 28.2752 27.7092C28.3242 28.1177 28.3732 28.5263 28.4506 28.9307C28.6729 31.1201 28.414 33.3123 28.157 35.4882C28.1317 35.7021 28.1065 35.916 28.0817 36.1296C29.0043 34.4703 29.8139 32.7524 30.6234 31.0346L30.6234 31.0345C31.32 29.5563 32.0166 28.0782 32.785 26.6377C32.3837 26.1683 32.0822 25.6367 31.7805 25.1048L31.7805 25.1047L31.7804 25.1047L31.7804 25.1046C31.5909 24.7705 31.4014 24.4364 31.1869 24.1173C31.0911 23.8856 30.9944 23.6537 30.8975 23.4213C29.7959 20.7791 28.6733 18.0863 28.5555 15.1909C28.0461 12.7684 28.3801 10.2744 28.9464 7.89753ZM60.4867 86.1371C60.6824 85.6397 60.7803 85.1473 60.7803 84.6596C60.7803 84.2111 60.702 83.816 60.5454 83.4748C60.3887 83.1236 60.1684 82.8361 59.8844 82.6117C59.6104 82.3874 59.2775 82.2167 58.8859 82.0998C58.504 81.9827 58.088 81.9242 57.6375 81.9242C56.913 81.9242 56.2914 82.0315 55.7725 82.246C55.2535 82.4605 54.7836 82.7239 54.3626 83.0359L55.2144 84.4988C55.469 84.2745 55.7725 84.094 56.1249 83.9575C56.4774 83.8111 56.8249 83.7381 57.1676 83.7381C57.7159 83.7381 58.1027 83.8697 58.3277 84.133C58.553 84.3866 58.6656 84.6986 58.6656 85.0693C58.6656 85.3812 58.5921 85.7226 58.4453 86.0933C58.2984 86.454 58.1076 86.8247 57.8725 87.2049C57.6375 87.5853 57.3635 87.9704 57.0501 88.3606C56.7466 88.7408 56.4334 89.1115 56.1102 89.4722C55.7872 89.8331 55.4641 90.1744 55.1409 90.4962L54.5393 91.0955L54.2891 91.3447L54.2891 92.3687L61.0006 92.3687L61.0006 90.6572L57.9607 90.6572L56.8298 90.8913L56.8298 90.8181L57.6669 90.2183C58.0194 89.838 58.3767 89.4235 58.739 88.9749C59.111 88.5263 59.4439 88.068 59.7377 87.5999C60.0411 87.122 60.2908 86.6344 60.4867 86.1371ZM63.9345 83.27C63.2686 84.1672 62.9358 85.4885 62.9358 87.2342C62.9358 88.0533 63.0141 88.7945 63.1708 89.4576C63.3273 90.111 63.5623 90.6718 63.8757 91.1398C64.1987 91.5983 64.6051 91.9541 65.0946 92.2077C65.584 92.4516 66.1618 92.5734 66.8275 92.5734C68.0806 92.5734 69.0451 92.12 69.7206 91.213C70.3961 90.2963 70.7339 88.9701 70.7339 87.2342C70.7339 85.4593 70.4157 84.133 69.7793 83.2553C69.1528 82.3679 68.1688 81.9242 66.8275 81.9242C65.5744 81.9242 64.61 82.3728 63.9345 83.27ZM65.4618 89.8965C65.1876 89.2432 65.0505 88.3557 65.0505 87.2342C65.0505 86.0542 65.1876 85.1619 65.4618 84.5572C65.7358 83.9428 66.1912 83.6357 66.8275 83.6357C67.1605 83.6357 67.4394 83.7186 67.6646 83.8843C67.8996 84.0501 68.0855 84.2891 68.2226 84.6011C68.3597 84.9132 68.4577 85.2936 68.5164 85.7421C68.585 86.1809 68.6192 86.6783 68.6192 87.2342C68.6192 88.4825 68.4821 89.3991 68.2079 89.9843C67.9339 90.5694 67.4737 90.862 66.8275 90.862C66.1912 90.862 65.7358 90.5401 65.4618 89.8965ZM73.0228 90.6574L75.2258 90.6574L75.2258 85.0256L75.4753 84.0162L74.7117 84.8939L73.2725 85.8301L72.4501 84.6305L76.0482 81.9537L77.2083 81.9537L77.2083 90.6574L79.3671 90.6574L79.3671 92.3689L73.0228 92.3689L73.0228 90.6574ZM81.6544 88.931C81.5565 89.1944 81.5075 89.4966 81.5075 89.838C81.5075 90.2378 81.5907 90.6084 81.7572 90.9496C81.9235 91.2813 82.1585 91.569 82.4621 91.8127C82.7655 92.0566 83.1327 92.2419 83.5635 92.3687C84.0041 92.5051 84.4887 92.5734 85.0173 92.5734C85.5559 92.5734 86.0454 92.5002 86.4861 92.3541C86.9364 92.2077 87.3183 92.0078 87.6315 91.7542C87.9546 91.491 88.2042 91.1789 88.3804 90.8181C88.5567 90.4572 88.6448 90.0575 88.6448 89.6185C88.6448 88.9847 88.4784 88.4679 88.1456 88.068C87.8126 87.6682 87.3329 87.2976 86.7062 86.9562C87.2644 86.6247 87.6755 86.2638 87.9399 85.8738C88.214 85.4739 88.3511 84.9863 88.3511 84.411C88.3511 84.0501 88.2727 83.7186 88.1162 83.4163C87.9693 83.1041 87.7539 82.8409 87.4699 82.6264C87.1959 82.402 86.8629 82.2313 86.4714 82.1144C86.0797 81.9876 85.6441 81.9242 85.1642 81.9242C84.6356 81.9242 84.1608 81.9974 83.7397 82.1437C83.3286 82.2801 82.9761 82.4752 82.6823 82.7288C82.3985 82.9725 82.1781 83.2602 82.0214 83.5918C81.8746 83.9233 81.8013 84.2745 81.8013 84.645C81.8013 85.2302 81.9431 85.7177 82.2271 86.1079C82.5209 86.4979 82.932 86.8442 83.4606 87.1464C83.1768 87.2927 82.9173 87.4536 82.6823 87.6292C82.4474 87.7949 82.2418 87.9851 82.0655 88.1996C81.8893 88.4142 81.7523 88.6579 81.6544 88.931ZM86.4861 89.0481C86.6132 89.2237 86.6769 89.4186 86.6769 89.6332C86.6769 90.0331 86.5301 90.3402 86.2363 90.5548C85.9426 90.7596 85.551 90.862 85.0614 90.862C84.5328 90.862 84.1216 90.7303 83.8279 90.467C83.5439 90.2036 83.402 89.8819 83.402 89.5015C83.402 89.2285 83.49 88.9408 83.6663 88.6384C83.8523 88.3362 84.1902 88.0582 84.6796 87.8046C84.9147 87.9119 85.1495 88.029 85.3846 88.1558C85.6196 88.2826 85.83 88.4191 86.016 88.5653C86.2119 88.7116 86.3685 88.8725 86.4861 89.0481ZM83.916 85.2887C83.8181 85.1131 83.7691 84.9083 83.7691 84.6742C83.7691 84.3915 83.8768 84.1477 84.0922 83.9428C84.3075 83.7382 84.6503 83.6357 85.1202 83.6357C85.4923 83.6357 85.8104 83.7382 86.0748 83.9428C86.3392 84.1379 86.4714 84.4305 86.4714 84.8205C86.4714 85.3959 86.1629 85.9274 85.5461 86.415C85.3209 86.3175 85.1006 86.215 84.8853 86.1079C84.6796 86.0006 84.4936 85.8835 84.3271 85.7567C84.1608 85.6202 84.0237 85.4641 83.916 85.2887ZM103.965 87.2339L104.2 85.1129L104.112 85.1129L103.407 86.722L101.028 90.5399L100.353 90.5399L97.8267 86.7074L97.1365 85.1275L97.0484 85.1275L97.3568 87.2193L97.3568 92.3685L95.3007 92.3685L95.3007 82.1288L97.2687 82.1288L100.235 86.8537L100.793 87.9799L100.867 87.9799L101.351 86.8244L104.186 82.1288L106.139 82.1288L106.139 92.3685L103.965 92.3685L103.965 87.2339ZM112.455 89.7792L112.161 88.0385L109.914 82.1288L107.388 82.1288L111.574 92.4416L113.131 92.4416L117.287 82.1288L114.996 82.1288L112.851 88.0238L112.528 89.7792L112.455 89.7792ZM121.315 87.0302L120.434 85.4943L120.36 85.4943L120.595 87.0449L120.595 92.3696L118.539 92.3696L118.539 82.0568L120.111 82.0568L124.355 87.5131L125.192 89.0051L125.28 89.0051L125.045 87.4984L125.045 82.13L127.101 82.13L127.101 92.4427L125.53 92.4427L121.315 87.0302ZM129.408 84.9961C129.193 85.6592 129.085 86.4101 129.085 87.2488C129.085 88.0387 129.183 88.7603 129.379 89.4137C129.575 90.0672 129.869 90.6279 130.26 91.0959C130.662 91.5641 131.156 91.9298 131.743 92.1931C132.341 92.4467 133.036 92.5734 133.829 92.5734C134.563 92.5734 135.224 92.4565 135.811 92.2224C136.399 91.9785 136.899 91.6324 137.31 91.1837C137.721 90.7255 138.034 90.1646 138.249 89.5015C138.474 88.8384 138.587 88.0875 138.587 87.2488C138.587 86.4589 138.485 85.7372 138.279 85.0839C138.083 84.4305 137.785 83.8697 137.382 83.4016C136.991 82.9336 136.497 82.5727 135.9 82.3191C135.313 82.0559 134.621 81.9242 133.829 81.9242C133.085 81.9242 132.419 82.0462 131.832 82.2898C131.244 82.5239 130.745 82.8702 130.334 83.3285C129.932 83.777 129.624 84.333 129.408 84.9961ZM131.538 88.6384C131.44 88.2192 131.391 87.7559 131.391 87.2488C131.391 86.0591 131.606 85.1912 132.037 84.645C132.468 84.0989 133.065 83.8258 133.829 83.8258C134.27 83.8258 134.642 83.9136 134.945 84.0891C135.258 84.255 135.513 84.4939 135.709 84.8059C135.914 85.1083 136.06 85.469 136.149 85.8884C136.237 86.3077 136.282 86.7613 136.282 87.2488C136.282 88.4776 136.066 89.3552 135.635 89.8819C135.204 90.4085 134.602 90.6718 133.829 90.6718C133.408 90.6718 133.041 90.5889 132.727 90.4231C132.424 90.2573 132.174 90.0233 131.979 89.721C131.783 89.4186 131.636 89.0578 131.538 88.6384ZM68.1548 106.593L67.3179 108.773L65.1443 108.773L69.1682 98.4604L70.769 98.4604L74.8076 108.773L72.5019 108.773L71.6208 106.593L68.1548 106.593ZM68.7571 104.882L71.1068 104.882L70.3138 102.746L69.9612 101.123L69.8878 101.123L69.5354 102.761L68.7571 104.882ZM78.6181 105.98L78.4125 104.166L76.9292 98.534L74.5501 98.534L77.6194 108.847L79.1614 108.847L81.1441 103.288L81.4085 101.694L81.5113 101.694L81.7756 103.274L83.7729 108.847L85.2415 108.847L88.3255 98.534L86.0933 98.534L84.7274 104.137L84.5072 105.98L84.4338 105.98L84.1987 104.166L82.275 98.534L80.865 98.534L78.9119 104.137L78.6768 105.98L78.6181 105.98ZM94.5471 106.593L91.0811 106.593L90.244 108.773L88.0705 108.773L92.0945 98.4604L93.6953 98.4604L97.7339 108.773L95.4282 108.773L94.5471 106.593ZM91.6834 104.882L94.0331 104.882L93.2401 102.746L92.8875 101.123L92.8141 101.123L92.4617 102.761L91.6834 104.882ZM99.8964 98.533C99.6224 98.5623 99.3678 98.5963 99.1327 98.6353L99.1327 108.773L101.306 108.773L101.306 104.633L102.452 104.808L105.007 108.773L107.533 108.773L104.963 104.896L104.185 104.443C104.919 104.248 105.492 103.882 105.903 103.346C106.324 102.799 106.534 102.107 106.534 101.268C106.534 100.703 106.412 100.235 106.167 99.8641C105.923 99.4837 105.599 99.1864 105.198 98.9718C104.806 98.7572 104.356 98.606 103.847 98.5184C103.348 98.4306 102.839 98.3867 102.32 98.3867C102.094 98.3867 101.845 98.3916 101.571 98.4013C101.306 98.4111 101.032 98.4257 100.748 98.4452C100.464 98.4647 100.18 98.494 99.8964 98.533ZM101.806 100.303C102.021 100.293 102.241 100.288 102.466 100.288C103.034 100.288 103.47 100.4 103.774 100.625C104.077 100.849 104.229 101.176 104.229 101.605C104.229 102.18 104.048 102.585 103.685 102.819C103.333 103.053 102.848 103.17 102.231 103.17L101.306 103.17L101.306 100.347C101.434 100.318 101.6 100.303 101.806 100.303ZM109.153 98.533C109.369 98.5037 109.613 98.4794 109.887 98.4599C110.171 98.4403 110.46 98.4257 110.754 98.416C111.057 98.4062 111.351 98.4013 111.635 98.4013C111.919 98.3916 112.173 98.3867 112.399 98.3867C113.378 98.3867 114.215 98.5184 114.91 98.7816C115.615 99.0352 116.188 99.3912 116.628 99.8495C117.079 100.308 117.406 100.854 117.612 101.488C117.818 102.122 117.921 102.814 117.921 103.565C117.921 104.248 117.818 104.911 117.612 105.554C117.416 106.198 117.093 106.773 116.643 107.281C116.193 107.778 115.605 108.178 114.881 108.48C114.156 108.782 113.265 108.933 112.208 108.933C112.041 108.933 111.811 108.929 111.518 108.919C111.234 108.909 110.935 108.895 110.622 108.875C110.318 108.865 110.029 108.851 109.755 108.831C109.491 108.821 109.29 108.807 109.153 108.787L109.153 98.533ZM112.56 100.288C112.335 100.288 112.105 100.293 111.87 100.303C111.635 100.303 111.454 100.313 111.327 100.332L111.327 106.973C111.376 106.983 111.449 106.993 111.547 107.003C111.655 107.003 111.762 107.007 111.87 107.017C111.987 107.017 112.095 107.022 112.193 107.032L112.428 107.032C113.055 107.032 113.574 106.934 113.985 106.739C114.396 106.544 114.719 106.286 114.954 105.964C115.199 105.642 115.37 105.276 115.468 104.867C115.566 104.457 115.615 104.033 115.615 103.594C115.615 103.233 115.571 102.858 115.483 102.468C115.395 102.078 115.233 101.722 114.998 101.4C114.773 101.078 114.464 100.815 114.073 100.61C113.681 100.396 113.177 100.288 112.56 100.288ZM124.339 105.247C124.594 105.422 124.721 105.661 124.721 105.964C124.721 106.354 124.55 106.641 124.207 106.827C123.874 107.012 123.385 107.105 122.738 107.105C122.464 107.105 122.19 107.085 121.916 107.046C121.652 107.007 121.402 106.958 121.167 106.9C120.932 106.832 120.717 106.763 120.521 106.695C120.335 106.627 120.188 106.563 120.08 106.505L119.361 108.333C119.498 108.402 119.679 108.475 119.904 108.553C120.139 108.621 120.408 108.689 120.712 108.758C121.015 108.816 121.343 108.865 121.696 108.904C122.058 108.953 122.44 108.977 122.841 108.977C123.439 108.977 123.987 108.914 124.486 108.787C124.986 108.66 125.411 108.465 125.764 108.202C126.126 107.929 126.405 107.587 126.601 107.178C126.797 106.768 126.895 106.281 126.895 105.715C126.895 105.149 126.767 104.686 126.513 104.325C126.258 103.964 125.94 103.667 125.558 103.433C125.186 103.189 124.78 102.994 124.339 102.848C123.899 102.692 123.487 102.541 123.106 102.394C122.734 102.238 122.42 102.073 122.166 101.897C121.911 101.712 121.784 101.468 121.784 101.166C121.784 100.863 121.916 100.629 122.18 100.463C122.455 100.288 122.836 100.2 123.326 100.2C123.6 100.2 123.869 100.22 124.134 100.259C124.398 100.288 124.648 100.332 124.883 100.39C125.118 100.439 125.323 100.502 125.499 100.58C125.686 100.649 125.837 100.717 125.955 100.785L126.645 98.9714C126.273 98.7666 125.793 98.6105 125.206 98.5034C124.628 98.3863 124.016 98.3278 123.37 98.3278C122.812 98.3278 122.298 98.3912 121.828 98.518C121.368 98.6446 120.971 98.8348 120.638 99.0884C120.315 99.3323 120.061 99.6491 119.875 100.039C119.699 100.42 119.61 100.863 119.61 101.37C119.61 101.965 119.738 102.448 119.992 102.819C120.247 103.189 120.56 103.496 120.932 103.74C121.314 103.984 121.725 104.179 122.166 104.325C122.606 104.472 123.013 104.618 123.385 104.764C123.767 104.91 124.085 105.071 124.339 105.247ZM40.8291 184.177L40.8291 177.577L43.425 177.577C43.9853 177.577 44.4963 177.651 44.9577 177.799C45.4193 177.93 45.8148 178.136 46.1443 178.415C46.4905 178.694 46.7541 179.039 46.9355 179.45C47.1168 179.859 47.2074 180.327 47.2074 180.852C47.2074 181.559 47.0426 182.159 46.7131 182.651C46.3998 183.143 45.9549 183.521 45.378 183.783C44.8176 184.046 44.1666 184.177 43.425 184.177L40.8291 184.177ZM45.7488 176.69C45.6467 176.664 45.5432 176.64 45.4384 176.618C45.5878 176.574 45.7325 176.525 45.8724 176.47C46.647 176.175 47.2487 175.739 47.6772 175.164C48.1056 174.59 48.3199 173.9 48.3199 173.096C48.3199 172.111 48.1056 171.307 47.6772 170.683C47.2487 170.043 46.647 169.567 45.8724 169.254C45.1144 168.942 44.2161 168.787 43.1777 168.787L38.7278 168.787L38.7278 186.025L43.425 186.025C44.5457 186.025 45.5429 185.843 46.4163 185.482C47.3064 185.104 48.0068 184.547 48.5177 183.808C49.0451 183.053 49.3088 182.108 49.3088 180.976C49.3088 180.189 49.1604 179.507 48.8638 178.932C48.5671 178.357 48.1469 177.889 47.603 177.528C47.0755 177.152 46.4576 176.872 45.7488 176.69ZM43.1777 175.755L40.8291 175.755L40.8291 170.634L43.1777 170.634C44.0513 170.634 44.7764 170.863 45.3532 171.323C45.9301 171.766 46.2185 172.399 46.2185 173.219C46.2185 173.761 46.0866 174.221 45.823 174.598C45.5593 174.976 45.1967 175.263 44.7353 175.459C44.2737 175.657 43.7546 175.755 43.1777 175.755ZM59.9541 185.556C59.0642 186.032 58.0093 186.27 56.7897 186.27C55.735 186.27 54.7955 186.025 53.9714 185.531C53.1639 185.023 52.5293 184.325 52.0678 183.438C51.6229 182.552 51.4003 181.526 51.4003 180.36C51.4003 179.178 51.631 178.145 52.0926 177.258C52.5705 176.371 53.2297 175.681 54.0704 175.189C54.9274 174.697 55.9163 174.45 57.0369 174.45C58.1577 174.45 59.1136 174.688 59.9047 175.164C60.7123 175.623 61.3303 176.288 61.7588 177.159C62.1874 178.029 62.4017 179.064 62.4017 180.262C62.4017 180.376 62.3933 180.5 62.3769 180.63L62.3769 180.852L53.427 180.852C53.478 181.478 53.6101 182.029 53.8231 182.503C54.1033 183.127 54.5154 183.602 55.0593 183.93C55.6031 184.259 56.2624 184.423 57.0369 184.423C57.8115 184.423 58.4955 184.259 59.0889 183.93C59.6822 183.586 60.1849 183.069 60.5969 182.379L62.2039 183.39C61.6105 184.341 60.8607 185.064 59.9541 185.556ZM53.4998 179.178C53.574 178.756 53.69 178.379 53.8478 178.046C54.1444 177.438 54.5566 176.979 55.0839 176.667C55.6278 176.339 56.2789 176.175 57.0369 176.175C57.6798 176.175 58.24 176.314 58.7181 176.593C59.196 176.872 59.5669 177.258 59.8306 177.75C60.0652 178.162 60.2015 178.639 60.2397 179.178L53.4998 179.178ZM65.5845 182.552L64.0269 183.512C64.2411 183.956 64.5543 184.39 64.9664 184.817C65.3949 185.244 65.914 185.597 66.5238 185.877C67.1336 186.138 67.8176 186.27 68.5758 186.27C69.7459 186.27 70.6854 185.942 71.394 185.286C72.1193 184.628 72.4819 183.808 72.4819 182.822C72.4819 182.15 72.317 181.6 71.9874 181.173C71.6742 180.746 71.2457 180.385 70.7019 180.09C70.158 179.778 69.5563 179.49 68.8971 179.228C68.5016 179.064 68.1225 178.891 67.7599 178.711C67.3974 178.53 67.1007 178.325 66.8699 178.094C66.6392 177.865 66.5238 177.602 66.5238 177.307C66.5238 176.93 66.6722 176.651 66.9688 176.47C67.2655 176.288 67.6198 176.198 68.0318 176.198C68.6252 176.198 69.1526 176.339 69.614 176.618C70.0921 176.896 70.4876 177.249 70.8007 177.676L72.3829 176.667C72.1522 176.24 71.8308 175.863 71.4188 175.533C71.0068 175.205 70.5287 174.942 69.985 174.746C69.4575 174.549 68.889 174.45 68.2792 174.45C67.6692 174.45 67.076 174.556 66.4992 174.771C65.9388 174.984 65.4773 175.312 65.1147 175.755C64.7686 176.198 64.5956 176.757 64.5956 177.429C64.5956 178.087 64.7603 178.637 65.09 179.08C65.4361 179.507 65.8563 179.859 66.3508 180.138C66.8616 180.401 67.3643 180.63 67.8588 180.828C68.3038 180.992 68.7241 181.173 69.1197 181.369C69.5152 181.551 69.8366 181.78 70.0838 182.06C70.3474 182.323 70.4793 182.651 70.4793 183.044C70.4793 183.487 70.3145 183.84 69.985 184.103C69.6718 184.349 69.235 184.473 68.6746 184.473C68.2131 184.473 67.7846 184.39 67.3891 184.226C67.01 184.046 66.6722 183.808 66.3754 183.512C66.0788 183.217 65.8152 182.896 65.5845 182.552ZM73.3571 176.541L73.3571 174.694L75.2111 174.694L75.2111 170.754L77.1889 170.754L77.1889 174.694L79.0431 174.694L79.0431 176.541L77.1889 176.541L77.1889 186.022L75.2111 186.022L75.2111 176.541L73.3571 176.541ZM90.9578 174.373L96.5944 184.42L102.231 174.373L103.517 186.022L105.618 186.022L103.517 167.923L96.5944 180.408L89.6724 167.923L87.571 186.022L89.6724 186.022L90.9578 174.373ZM109.067 168.787L114.753 182.133L120.439 168.787L122.787 168.787L114.753 186.886L106.718 168.787L109.067 168.787ZM137.997 168.784L137.997 181.614L124.895 167.923L124.895 186.022L126.997 186.022L126.997 173.191L140.1 186.884L140.1 168.784L137.997 168.784ZM153.951 186.025L146.163 186.025L145.224 186.025L144.062 186.025L144.062 168.787L145.224 168.787L146.163 168.787L153.951 168.787L153.951 170.757L146.163 170.757L146.163 175.681L153.457 175.681L153.457 177.651L146.163 177.651L146.163 184.055L153.951 184.055L153.951 186.025ZM110.074 8.28658L110.074 12.023L121.328 12.023L121.328 19.4963C121.328 26.5997 116.339 32.5224 109.669 34.0434C108.423 39.4728 104.214 43.7361 98.8197 45.126L98.8197 49.3893C98.8197 51.452 100.5 53.126 102.571 53.126L106.323 53.126L106.323 60.5992L83.8142 60.5992L83.8142 53.126L87.5656 53.126C89.6362 53.126 91.317 51.452 91.317 49.3893L91.317 45.126C85.9225 43.7321 81.713 39.4683 80.4679 34.0391C73.798 32.522 68.8087 26.5996 68.8087 19.4963L68.8087 12.023L80.0628 12.023L80.0628 8.28658L110.074 8.28658ZM72.5601 15.7597L72.5601 19.4963C72.5601 24.3614 75.7071 28.4681 80.0628 30.0185L80.0628 15.7597L72.5601 15.7597ZM110.074 30.0185C114.429 28.4678 117.577 24.3614 117.577 19.4963L117.577 15.7595L110.074 15.7595L110.074 30.0185Z" fill="#252525"/>
</svg>
