<svg width="267" height="161" viewBox="0 0 267 161" fill="none" xmlns="http://www.w3.org/2000/svg">
<path fill-rule="evenodd" clip-rule="evenodd" d="M116.955 6.94164C116.913 6.77276 116.896 6.59838 116.904 6.42446C116.904 5.25266 117.703 3.80952 118.785 3.80952C119.044 3.80952 119.341 4.00421 119.341 4.20852C119.341 4.23524 119.336 4.26181 119.325 4.28609C119.314 4.31036 119.297 4.3319 119.277 4.34915L118.063 5.62616C117.664 6.03859 117.294 6.47821 116.955 6.94164ZM126.441 3.51252C126.334 3.50901 126.23 3.54734 126.151 3.61957C126.071 3.69164 126.023 3.79196 126.017 3.89885C126.017 4.10827 126.13 4.25749 126.23 4.38866C126.308 4.49154 126.378 4.58331 126.378 4.68432C126.385 4.80755 126.343 4.92833 126.261 5.02056C126.179 5.11264 126.063 5.16868 125.94 5.17601C125.58 5.17601 125.316 4.86937 125.018 4.52355C124.633 4.07638 124.191 3.56368 123.411 3.56368C122.434 3.56368 121.145 4.59499 121.145 5.62616C121.132 5.74358 121.143 5.86223 121.177 5.97522C121.211 6.08822 121.267 6.19328 121.342 6.28459C121.417 6.37575 121.509 6.45118 121.613 6.50646C121.717 6.56173 121.832 6.59563 121.949 6.60647C122.23 6.60647 122.588 6.47866 122.588 6.13067C122.588 5.787 122.397 5.73412 122.196 5.67851C121.973 5.61686 121.738 5.55185 121.738 5.08347C121.756 4.85733 121.858 4.64615 122.025 4.49314C122.193 4.34014 122.412 4.25662 122.639 4.25967C122.987 4.25967 123.683 4.53102 123.76 4.80251C123.708 5.85933 123.517 6.9928 122.783 7.8166C122.381 8.26919 121.89 8.63368 121.34 8.88639C120.791 9.13926 120.194 9.27516 119.59 9.28524C119.235 9.28997 118.883 9.22416 118.554 9.09147C118.225 8.95877 117.926 8.7621 117.674 8.51259C117.413 8.26675 117.245 7.9386 117.198 7.58343C117.222 7.18855 117.391 6.81643 117.674 6.53944L118.293 5.80818L118.795 5.30381L121.464 2.76538C121.825 2.41738 122.648 1.59358 122.648 1.06357C122.648 0.690073 122.47 0.482556 122.198 0.482556C122.133 0.477212 122.068 0.485303 122.006 0.506223C121.944 0.527142 121.888 0.560434 121.839 0.604105C121.791 0.647776 121.752 0.700914 121.725 0.760161C121.697 0.819407 121.683 0.883541 121.681 0.948743C121.681 0.999826 121.704 1.08696 121.73 1.1837C121.763 1.30443 121.799 1.44011 121.799 1.53937C121.799 1.94953 121.209 2.52598 120.754 2.96987L120.754 2.96992C120.579 3.14109 120.424 3.29255 120.33 3.40716C120.105 3.20514 119.809 3.09963 119.507 3.11337C117.779 3.11337 116.116 5.30382 116.116 6.94485C116.116 8.94045 117.521 10.2431 119.35 10.2431C121.697 10.2431 122.843 8.86379 123.45 7.79415C123.883 6.94897 124.102 6.01065 124.088 5.06103C124.369 5.38032 124.772 5.78588 125.222 5.78588C126.007 5.78588 126.962 5.01003 126.962 4.18943C126.971 4.10957 126.964 4.0288 126.942 3.95153C126.92 3.87442 126.882 3.8025 126.832 3.74004C126.781 3.67759 126.718 3.62583 126.648 3.5878C126.577 3.54994 126.499 3.52642 126.419 3.51894L126.441 3.51252ZM102.192 2.69299H102.4L102.311 4.17126H102.046L102.041 4.08859C102.018 3.62026 102.003 3.33478 101.266 3.33478H99.7786V8.51991C99.7786 9.17132 100.152 9.19041 100.669 9.19041V9.42984C100.434 9.42984 100.218 9.42501 100.003 9.42022C99.7908 9.41547 99.5794 9.41075 99.3507 9.41075C99.1244 9.41075 98.8957 9.41538 98.6635 9.42007C98.4242 9.42492 98.1811 9.42984 97.9331 9.42984V9.19041C98.4504 9.18079 98.8207 9.15849 98.8207 8.51991V3.33478H97.5436C96.686 3.33478 96.6267 3.55242 96.4712 4.12323L96.4581 4.17126H96.2026L96.3112 2.69299H96.506C96.6146 2.95166 96.8763 2.95166 97.1221 2.95166H101.554C101.911 2.95166 102.154 2.8718 102.192 2.69299ZM71.9569 5.95975C71.9569 7.35815 72.819 9.27388 74.4888 9.27388C75.916 9.27388 76.8133 8.10209 76.8133 6.42594C76.8133 5.02738 75.9544 3.11164 74.2845 3.11164C72.8572 3.11164 71.9569 4.28023 71.9569 5.95975ZM73.0569 3.05805C73.4799 2.89023 73.9317 2.80762 74.3866 2.8148C75.2935 2.79831 76.1703 3.13959 76.8275 3.76443C77.4847 4.38942 77.8696 5.24803 77.8988 6.15444C77.9086 7.08604 77.5479 7.98314 76.896 8.64875C76.2443 9.3142 75.3549 9.69365 74.4234 9.70342C73.4918 9.71304 72.5947 9.35237 71.9291 8.70066C71.2636 8.04895 70.8842 7.15949 70.8744 6.22788C70.8804 5.773 70.9758 5.32377 71.1557 4.90583C71.3354 4.4879 71.5959 4.10952 71.9222 3.79237C72.2484 3.47537 72.6341 3.22571 73.0569 3.05805ZM60.0545 6.07942C59.8814 6.07816 59.7087 6.0632 59.5379 6.03469V3.31438C59.7308 3.27896 59.9262 3.26079 60.1223 3.26018C61.2748 3.26018 61.7187 3.85081 61.7187 4.66178C61.7187 5.32802 61.2508 6.07707 60.0545 6.07942ZM64.2315 9.19887C64.0153 9.19078 63.8037 9.13398 63.6125 9.03274C63.4212 8.93165 63.2552 8.78873 63.1268 8.6145C62.837 8.3072 62.5246 7.86102 62.0691 7.21059C61.8621 6.91502 61.6256 6.57726 61.3483 6.1912C62.1115 5.97727 62.734 5.3929 62.734 4.59475C62.734 3.93708 62.3254 2.95036 60.4799 2.95036C60.114 2.95036 59.8529 2.95773 59.6299 2.96402C59.4638 2.96871 59.3189 2.9728 59.1676 2.9728H59.1674C58.6885 2.9728 58.2097 2.9728 57.683 2.95036V3.19314C58.2001 3.19314 58.5738 3.21223 58.5738 3.86043V8.589C58.5738 9.11901 58.1714 9.22758 57.683 9.2117V9.45113C57.9307 9.45113 58.1735 9.44617 58.4127 9.44129H58.4127H58.4127H58.4128H58.4128H58.4128H58.4129H58.4129H58.4129H58.413H58.413H58.413H58.4131L58.4132 9.44129C58.6455 9.43656 58.8742 9.43189 59.1006 9.43189C59.3293 9.43189 59.5406 9.43665 59.7531 9.44144C59.9676 9.44627 60.1833 9.45113 60.4191 9.45113V9.2117C59.9019 9.2117 59.5315 9.19246 59.5315 8.54121V6.37642H60.4191C60.5424 6.56064 60.6641 6.74584 60.7858 6.93102L60.7859 6.93106L60.7859 6.9311L60.7859 6.93114L60.7859 6.93118L60.7859 6.93122L60.786 6.93126L60.786 6.9313L60.786 6.93134L60.786 6.93138L60.7861 6.9315L60.7862 6.93163L60.7863 6.93175L60.7864 6.93187C61.3585 7.80231 61.9304 8.67235 62.6542 9.4383C62.7915 9.4383 62.9305 9.43353 63.0694 9.42876L63.0694 9.42875C63.2083 9.42398 63.3471 9.41922 63.4844 9.41922C63.6254 9.41922 63.7505 9.42425 63.8721 9.42915L63.8721 9.42916C63.9872 9.43379 64.0992 9.4383 64.2187 9.4383L64.2315 9.19887ZM48.9445 6.29106H47.7536V8.54533C47.7536 9.19658 48.1239 9.21582 48.6412 9.21582V9.45525C48.1526 9.43601 47.6864 9.43601 47.2555 9.43601C47.0478 9.43601 46.8335 9.44048 46.6114 9.44511H46.6113H46.6113H46.6113H46.6112H46.6112H46.6112C46.3724 9.45009 46.1246 9.45525 45.8666 9.45525V9.21582C46.7159 9.21582 46.7957 9.06572 46.7957 8.16526V4.04657C46.7957 3.28659 46.6392 3.24827 45.8666 3.21956V2.98013C46.2106 2.98013 46.5601 2.98484 46.9121 2.98958C47.2689 2.99438 47.6282 2.99922 47.9866 2.99922C48.8774 2.99922 49.7745 2.99922 50.6463 2.98013L50.7037 4.28599L50.4803 4.32432C50.3812 3.53564 49.9694 3.27698 48.9062 3.27698H47.7536V5.91115H48.8997C49.7012 5.91115 49.7683 5.79938 49.8959 5.14171H50.1195C50.1195 5.21805 50.1122 5.3632 50.104 5.52729V5.52732V5.52738L50.104 5.5275C50.0934 5.7408 50.0812 5.98605 50.0812 6.15379C50.0812 6.45078 50.1002 6.8849 50.1195 7.13716H49.9311L49.9202 7.07793C49.8114 6.48273 49.7764 6.29106 48.9445 6.29106ZM174.523 30.4604V38.6555H178.586C179.877 38.6555 180.521 38.0102 180.521 36.7196V35.6981C180.521 35.2785 180.391 34.9618 180.13 34.748L179.631 34.3322L180.046 33.8335C180.205 33.6434 180.284 33.4137 180.284 33.1445V32.3963C180.284 31.1057 179.638 30.4604 178.348 30.4604H174.523ZM178.55 37.3371H175.972V35.0687H178.55C178.898 35.0687 179.072 35.2389 179.072 35.5794V36.8265C179.072 37.1669 178.898 37.3371 178.55 37.3371ZM178.313 33.7503H175.972V31.7787H178.313C178.661 31.7787 178.835 31.9489 178.835 32.2894V33.2278C178.835 33.5761 178.661 33.7503 178.313 33.7503ZM182.235 30.4604V38.6555H187.746V37.3371H183.685V35.0687H187.389V33.7503H183.685V31.7787H187.746V30.4604H182.235ZM188.991 38.1092V37.3371H192.661C193.009 37.3371 193.183 37.1669 193.183 36.8265V35.9238C193.183 35.623 193.048 35.4448 192.78 35.3893L190.369 34.9024C189.449 34.7202 188.991 34.1027 188.991 33.0496V32.3963C188.991 31.1057 189.636 30.4604 190.926 30.4604H193.694L194.395 31.0068V31.7787H190.963C190.614 31.7787 190.44 31.9489 190.44 32.2894V33.0851C190.44 33.3861 190.575 33.5643 190.844 33.6197L193.255 34.0948C194.172 34.2847 194.632 34.9024 194.632 35.9476V36.7196C194.632 38.0102 193.988 38.6555 192.696 38.6555H189.691L188.991 38.1092ZM195.572 30.4604V31.7787H198.15V38.6555H199.611V31.7787H202.188V30.4604H195.572ZM174.523 52.702V44.5069H178.467C179.757 44.5069 180.403 45.1522 180.403 46.4428V48.0224C180.403 49.3051 179.757 49.9465 178.467 49.9465H175.972V52.702H174.523ZM175.972 48.6282H178.43C178.78 48.6282 178.954 48.4539 178.954 48.1056V46.3359C178.954 45.9954 178.78 45.8251 178.43 45.8251H175.972V48.6282ZM182.065 44.5069V52.702H183.514V49.7089H185.247L186.768 52.702H188.003L188.18 52.3932L186.755 49.6021C187.548 49.3883 187.943 48.7825 187.943 47.7848V46.4428C187.943 45.1522 187.298 44.5069 186.007 44.5069H182.065ZM185.972 48.3906H183.514V45.8251H185.972C186.32 45.8251 186.494 45.9954 186.494 46.3359V47.868C186.494 48.2163 186.32 48.3906 185.972 48.3906ZM188.936 52.4169L191.464 44.5069H193.721L196.239 52.4169L196.062 52.702H194.838L194.28 50.8966H190.895L190.325 52.702H189.125L188.936 52.4169ZM191.298 49.5782H193.888L192.7 45.8251H192.475L191.298 49.5782ZM197.361 46.4428V50.7661C197.361 52.0567 198.006 52.702 199.298 52.702H202.527L203.228 52.1556V51.3836H199.333C198.985 51.3836 198.811 51.2133 198.811 50.873V46.3359C198.811 45.9954 198.985 45.8251 199.333 45.8251H203.228V45.0532L202.527 44.5069H199.298C198.006 44.5069 197.361 45.1522 197.361 46.4428ZM204.105 45.8251V44.5069H210.719V45.8251H208.142V52.702H206.682V45.8251H204.105ZM212.022 44.5069V52.702H213.471V44.5069H212.022ZM215.37 50.7661V46.4428C215.37 45.1522 216.016 44.5069 217.306 44.5069H220.537L221.238 45.0532V45.8251H217.341C216.993 45.8251 216.819 45.9954 216.819 46.3359V50.873C216.819 51.2133 216.993 51.3836 217.341 51.3836H221.238V52.1556L220.537 52.702H217.306C216.016 52.702 215.37 52.0567 215.37 50.7661ZM222.843 44.5069V52.702H228.354V51.3836H224.292V49.1151H227.997V47.7967H224.292V45.8251H228.354V44.5069H222.843ZM229.595 52.1556V51.3836H233.264C233.612 51.3836 233.786 51.2133 233.786 50.873V49.9702C233.786 49.6694 233.652 49.4912 233.383 49.4358L230.972 48.9488C230.053 48.7666 229.595 48.1491 229.595 47.096V46.4428C229.595 45.1522 230.239 44.5069 231.53 44.5069H234.298L234.999 45.0532V45.8251H231.566C231.218 45.8251 231.044 45.9954 231.044 46.3359V47.1316C231.044 47.4325 231.178 47.6107 231.447 47.6662L233.858 48.1412C234.776 48.3312 235.236 48.9488 235.236 49.994V50.7661C235.236 52.0567 234.591 52.702 233.299 52.702H230.296L229.595 52.1556ZM176.267 58.5575L173.737 66.4676L173.928 66.7526H175.127L175.696 64.9473H179.082L179.64 66.7526H180.864L181.042 66.4676L178.524 58.5575H176.267ZM178.691 63.6289H176.101L177.277 59.8758H177.503L178.691 63.6289ZM181.258 58.8426L181.459 58.5575H182.647L184.108 65.4343H184.238L185.794 59.3888H187.231L188.776 65.4343H188.918L190.38 58.5575H191.566L191.769 58.8426L190.07 66.7526H187.73L186.507 61.9306L185.296 66.7526H182.968L181.258 58.8426ZM194.511 58.5575L191.981 66.4676L192.172 66.7526H193.37L193.941 64.9473H197.325L197.884 66.7526H199.107L199.286 66.4676L196.768 58.5575H194.511ZM196.934 63.6289H194.344L195.52 59.8758H195.746L196.934 63.6289ZM200.526 66.7526V58.5575H204.47C205.76 58.5575 206.405 59.2028 206.405 60.4934V61.8355C206.405 62.8332 206.009 63.439 205.218 63.6527L206.643 66.4439L206.464 66.7526H205.229L203.71 63.7596H201.975V66.7526H200.526ZM201.975 62.4413H204.433C204.782 62.4413 204.957 62.267 204.957 61.9187V60.3866C204.957 60.046 204.782 59.8758 204.433 59.8758H201.975V62.4413ZM208.183 58.5575V66.7526H211.33C213.468 66.7526 214.537 65.6798 214.537 63.534V61.7763C214.537 59.6304 213.468 58.5575 211.33 58.5575H208.183ZM211.412 65.4343H209.63V59.8758H211.412C212.529 59.8758 213.087 60.434 213.087 61.5506V63.7596C213.087 64.876 212.529 65.4343 211.412 65.4343ZM64.3107 93.2807L66.1158 87.6373H67.7258L69.5224 93.2807L69.3952 93.4838H68.5224L68.1242 92.1964H65.709L65.3022 93.4838H64.4463L64.3107 93.2807ZM65.9971 91.2558H67.8444L66.9971 88.5779H66.836L65.9971 91.2558ZM70.4047 87.6373V93.4838H71.4386V91.1796H74.0825V90.2388H71.4386V88.5779H74.3368V87.6373H70.4047ZM75.3157 93.4838V87.6373H78.1292C79.0499 87.6373 79.5105 88.0977 79.5105 89.0186V89.9762C79.5105 90.6881 79.228 91.1202 78.663 91.2727L79.6799 93.2639L79.5528 93.4838H78.6714L77.5868 91.3491H76.3495V93.4838H75.3157ZM76.3495 90.4083H78.1037C78.3522 90.4083 78.4765 90.284 78.4765 90.0356V88.9423C78.4765 88.6995 78.3522 88.5779 78.1037 88.5779H76.3495V90.4083ZM80.7776 87.6373V93.4838H81.8116V87.6373H80.7776ZM83.1648 92.1032V89.0186C83.1648 88.0977 83.6252 87.6373 84.5461 87.6373H86.8511L87.351 88.0272V88.5779H84.5715C84.3229 88.5779 84.1987 88.6995 84.1987 88.9423V92.1794C84.1987 92.4224 84.3229 92.5439 84.5715 92.5439H87.351V93.0944L86.8511 93.4838H84.5461C83.6252 93.4838 83.1648 93.0242 83.1648 92.1032ZM89.7398 87.6373L87.935 93.2807L88.0704 93.4838H88.9264L89.3332 92.1964H91.7483L92.1467 93.4838H93.0195L93.1465 93.2807L91.35 87.6373H89.7398ZM91.4687 91.2558H89.6212L90.4603 88.5779H90.6212L91.4687 91.2558ZM94.0332 93.4838V87.6373H95.1602L97.7533 91.8066V87.6373H98.7871V93.4838H97.6686L95.0669 89.3152V93.4838H94.0332ZM102.267 87.6373V93.4838H103.301V89.3999L104.843 92.6879H105.733L107.275 89.3999V93.4838H108.317V87.6373H107.046L105.292 91.383L103.538 87.6373H102.267ZM109.672 92.1032V89.0186C109.672 88.0977 110.132 87.6373 111.053 87.6373H112.994C113.914 87.6373 114.375 88.0977 114.375 89.0186V92.1032C114.375 93.0242 113.914 93.4838 112.994 93.4838H111.053C110.132 93.4838 109.672 93.0242 109.672 92.1032ZM110.705 92.1794C110.705 92.4224 110.83 92.5439 111.078 92.5439H112.968C113.217 92.5439 113.341 92.4224 113.341 92.1794V88.9423C113.341 88.6995 113.217 88.5779 112.968 88.5779H111.078C110.83 88.5779 110.705 88.6995 110.705 88.9423V92.1794ZM115.731 87.6373V93.4838H118.63C119.551 93.4838 120.011 93.0242 120.011 92.1032V91.3744C120.011 91.075 119.918 90.849 119.731 90.6964L119.375 90.3999L119.672 90.044C119.785 89.9084 119.841 89.7445 119.841 89.5524V89.0186C119.841 88.0977 119.381 87.6373 118.46 87.6373H115.731ZM118.604 92.5439H116.765V90.9253H118.604C118.853 90.9253 118.977 91.0467 118.977 91.2897V92.1794C118.977 92.4224 118.853 92.5439 118.604 92.5439ZM118.435 89.9847H116.765V88.5779H118.435C118.683 88.5779 118.808 88.6995 118.808 88.9423V89.6118C118.808 89.8604 118.683 89.9847 118.435 89.9847ZM121.236 93.4838V87.6373H122.27V93.4838H121.236ZM123.709 87.6373V93.4838H127.386V92.5439H124.742V87.6373H123.709ZM128.312 93.4838V87.6373H132.244V88.5779H129.346V89.9847H131.99V90.9253H129.346V92.5439H132.244V93.4838H128.312ZM134.999 87.6373L134.863 87.8407L136.583 93.4838H138.261L139.99 87.8407L139.863 87.6373H138.956L137.507 92.5439H137.346L135.897 87.6373H134.999ZM140.863 93.4838V87.6373H141.897V93.4838H140.863ZM143.34 87.6373V93.4838H144.374V91.3491H145.611L146.696 93.4838H147.577L147.704 93.2639L146.687 91.2727C147.252 91.1202 147.535 90.6881 147.535 89.9762V89.0186C147.535 88.0977 147.074 87.6373 146.153 87.6373H143.34ZM146.128 90.4083H144.374V88.5779H146.128C146.377 88.5779 146.501 88.6995 146.501 88.9423V90.0356C146.501 90.284 146.377 90.4083 146.128 90.4083ZM148.285 88.5779V87.6373H153.005V88.5779H151.166V93.4838H150.124V88.5779H148.285ZM153.884 87.6373V92.1032C153.884 93.0242 154.343 93.4838 155.264 93.4838H157.035C157.956 93.4838 158.417 93.0242 158.417 92.1032V87.6373H157.384V92.1794C157.384 92.4224 157.258 92.5439 157.01 92.5439H155.29C155.041 92.5439 154.918 92.4224 154.918 92.1794V87.6373H153.884ZM159.252 93.2807L161.057 87.6373H162.666L164.463 93.2807L164.335 93.4838H163.463L163.065 92.1964H160.649L160.243 93.4838H159.386L159.252 93.2807ZM160.938 91.2558H162.785L161.938 88.5779H161.776L160.938 91.2558ZM165.346 87.6373V93.4838H169.023V92.5439H166.38V87.6373H165.346ZM171.982 93.4838V87.6373H173.109L175.702 91.8066V87.6373H176.735V93.4838H175.618L173.016 89.3152V93.4838H171.982ZM178.178 87.6373V93.4838H182.11V92.5439H179.212V90.9253H181.857V89.9847H179.212V88.5779H182.11V87.6373H178.178ZM182.735 88.5779V87.6373H187.455V88.5779H185.616V93.4838H184.574V88.5779H182.735ZM188.05 87.6373L187.907 87.8407L189.127 93.4838H190.788L191.652 90.044L192.526 93.4838H194.195L195.406 87.8407L195.262 87.6373H194.415L193.373 92.5439H193.271L192.17 88.2305H191.144L190.034 92.5439H189.941L188.898 87.6373H188.05ZM196.294 92.1032V89.0186C196.294 88.0977 196.753 87.6373 197.674 87.6373H199.615C200.536 87.6373 200.997 88.0977 200.997 89.0186V92.1032C200.997 93.0242 200.536 93.4838 199.615 93.4838H197.674C196.753 93.4838 196.294 93.0242 196.294 92.1032ZM197.328 92.1794C197.328 92.4224 197.451 92.5439 197.7 92.5439H199.589C199.838 92.5439 199.963 92.4224 199.963 92.1794V88.9423C199.963 88.6995 199.838 88.5779 199.589 88.5779H197.7C197.451 88.5779 197.328 88.6995 197.328 88.9423V92.1794ZM202.354 87.6373V93.4838H203.387V91.3491H204.624L205.71 93.4838H206.591L206.718 93.2639L205.701 91.2727C206.266 91.1202 206.548 90.6881 206.548 89.9762V89.0186C206.548 88.0977 206.089 87.6373 205.168 87.6373H202.354ZM205.142 90.4083H203.387V88.5779H205.142C205.391 88.5779 205.514 88.6995 205.514 88.9423V90.0356C205.514 90.284 205.391 90.4083 205.142 90.4083ZM207.816 93.4838V87.6373H208.849V90.1965L211.146 87.6373H212.112L212.213 87.8491L210.248 90.044L212.418 93.2731L212.316 93.4838H211.366L209.578 90.7981L208.849 91.5778V93.4838H207.816ZM48.3381 98.1743L48.2025 98.3774L49.9228 104.021H51.6006L53.3295 98.3774L53.2023 98.1743H52.2956L50.8465 103.08H50.6855L49.2364 98.1743H48.3381ZM54.2068 104.021V98.1743H55.2406V104.021H54.2068ZM56.4274 103.08V103.632L56.9274 104.021H59.0714C59.9921 104.021 60.4527 103.561 60.4527 102.641V102.089C60.4527 101.344 60.125 100.903 59.4696 100.767L57.7493 100.428C57.5572 100.39 57.4612 100.262 57.4612 100.048V99.4798C57.4612 99.237 57.5855 99.1149 57.8341 99.1149H60.2832V98.5636L59.7831 98.1743H57.8087C56.8878 98.1743 56.4274 98.6354 56.4274 99.5562V100.022C56.4274 100.773 56.7551 101.214 57.4103 101.344L59.1306 101.691C59.3227 101.731 59.4188 101.857 59.4188 102.073V102.717C59.4188 102.96 59.2945 103.08 59.0459 103.08H56.4274ZM61.6374 104.021V98.1743H62.6713V104.021H61.6374ZM64.0289 99.5562V102.641C64.0289 103.561 64.4893 104.021 65.4102 104.021H67.3508C68.2716 104.021 68.7321 103.561 68.7321 102.641V99.5562C68.7321 98.6354 68.2716 98.1743 67.3508 98.1743H65.4102C64.4893 98.1743 64.0289 98.6354 64.0289 99.5562ZM65.4355 103.08C65.1869 103.08 65.0628 102.96 65.0628 102.717V99.4798C65.0628 99.237 65.1869 99.1149 65.4355 99.1149H67.3253C67.5739 99.1149 67.6982 99.237 67.6982 99.4798V102.717C67.6982 102.96 67.5739 103.08 67.3253 103.08H65.4355ZM70.0887 104.021V98.1743H71.2157L73.8088 102.344V98.1743H74.8426V104.021H73.7241L71.1224 99.8524V104.021H70.0887ZM77.5307 98.1743L75.7257 103.818L75.8613 104.021H76.7171L77.1239 102.734H79.5391L79.9374 104.021H80.8102L80.9374 103.818L79.1408 98.1743H77.5307ZM79.2594 101.793H77.4121L78.251 99.1149H78.4119L79.2594 101.793ZM81.8239 104.021V98.1743H84.6374C85.5583 98.1743 86.0186 98.6354 86.0186 99.5562V100.514C86.0186 101.225 85.7362 101.657 85.1712 101.81L86.1881 103.801L86.0611 104.021H85.1797L84.095 101.886H82.8578V104.021H81.8239ZM82.8578 100.946H84.612C84.8604 100.946 84.9847 100.822 84.9847 100.573V99.4798C84.9847 99.237 84.8604 99.1149 84.612 99.1149H82.8578V100.946ZM86.8535 98.1743L86.7264 98.3774L88.5992 101.92V104.021H89.6415V101.92L91.5144 98.3774L91.3957 98.1743H90.5058L89.1161 100.827L87.7348 98.1743H86.8535ZM94.4261 104.021V98.1743H95.46V104.021H94.4261ZM96.9029 98.1743V104.021H97.9367V99.8524L100.538 104.021H101.657V98.1743H100.623V102.344L98.03 98.1743H96.9029ZM103.099 104.021V98.1743H104.226L106.82 102.344V98.1743H107.853V104.021H106.735L104.133 99.8524V104.021H103.099ZM109.215 99.5562V102.641C109.215 103.561 109.675 104.021 110.596 104.021H112.537C113.457 104.021 113.918 103.561 113.918 102.641V99.5562C113.918 98.6354 113.457 98.1743 112.537 98.1743H110.596C109.675 98.1743 109.215 98.6354 109.215 99.5562ZM110.621 103.08C110.373 103.08 110.248 102.96 110.248 102.717V99.4798C110.248 99.237 110.373 99.1149 110.621 99.1149H112.511C112.76 99.1149 112.884 99.237 112.884 99.4798V102.717C112.884 102.96 112.76 103.08 112.511 103.08H110.621ZM114.711 98.3774L114.846 98.1743H115.745L117.194 103.08H117.355L118.804 98.1743H119.711L119.838 98.3774L118.109 104.021H116.431L114.711 98.3774ZM121.628 98.1743L119.823 103.818L119.958 104.021H120.814L121.221 102.734H123.636L124.034 104.021H124.907L125.034 103.818L123.238 98.1743H121.628ZM123.356 101.793H121.509L122.348 99.1149H122.509L123.356 101.793ZM124.977 99.1149V98.1743H129.697V99.1149H127.858V104.021H126.816V99.1149H124.977ZM130.623 98.1743V104.021H131.656V98.1743H130.623ZM133.014 102.641V99.5562C133.014 98.6354 133.475 98.1743 134.395 98.1743H136.336C137.257 98.1743 137.717 98.6354 137.717 99.5562V102.641C137.717 103.561 137.257 104.021 136.336 104.021H134.395C133.475 104.021 133.014 103.561 133.014 102.641ZM134.048 102.717C134.048 102.96 134.172 103.08 134.421 103.08H136.311C136.559 103.08 136.683 102.96 136.683 102.717V99.4798C136.683 99.237 136.559 99.1149 136.311 99.1149H134.421C134.172 99.1149 134.048 99.237 134.048 99.4798V102.717ZM139.074 98.1743V104.021H140.108V99.8524L142.709 104.021H143.828V98.1743H142.794V102.344L140.201 98.1743H139.074ZM147.307 104.021V98.1743H148.341V103.08H150.985V104.021H147.307ZM151.907 98.1743V104.021H155.839V103.08H152.94V101.462H155.584V100.521H152.94V99.1149H155.839V98.1743H151.907ZM156.425 103.818L158.23 98.1743H159.839L161.636 103.818L161.51 104.021H160.636L160.238 102.734H157.822L157.416 104.021H156.561L156.425 103.818ZM158.111 101.793H159.958L159.111 99.1149H158.95L158.111 101.793ZM162.519 98.1743V104.021H164.763C166.289 104.021 167.052 103.256 167.052 101.726V100.471C167.052 98.9408 166.289 98.1743 164.763 98.1743H162.519ZM164.823 103.08H163.552V99.1149H164.823C165.62 99.1149 166.018 99.5134 166.018 100.311V101.886C166.018 102.683 165.62 103.08 164.823 103.08ZM168.322 104.021V98.1743H172.254V99.1149H169.356V100.521H171.999V101.462H169.356V103.08H172.254V104.021H168.322ZM173.391 98.1743V104.021H174.425V101.886H175.662L176.748 104.021H177.629L177.755 103.801L176.738 101.81C177.303 101.657 177.586 101.225 177.586 100.514V99.5562C177.586 98.6354 177.126 98.1743 176.205 98.1743H173.391ZM176.18 100.946H174.425V99.1149H176.18C176.428 99.1149 176.552 99.237 176.552 99.4798V100.573C176.552 100.822 176.428 100.946 176.18 100.946ZM178.601 103.632V103.08H181.218C181.467 103.08 181.593 102.96 181.593 102.717V102.073C181.593 101.857 181.496 101.731 181.304 101.691L179.583 101.344C178.928 101.214 178.601 100.773 178.601 100.022V99.5562C178.601 98.6354 179.061 98.1743 179.982 98.1743H181.956L182.457 98.5636V99.1149H180.008C179.759 99.1149 179.635 99.237 179.635 99.4798V100.048C179.635 100.262 179.731 100.39 179.922 100.428L181.643 100.767C182.298 100.903 182.626 101.344 182.626 102.089V102.641C182.626 103.561 182.165 104.021 181.244 104.021H179.101L178.601 103.632ZM183.811 98.1743V104.021H184.847V101.462H187.311V104.021H188.346V98.1743H187.311V100.521H184.847V98.1743H183.811ZM189.786 104.021V98.1743H190.819V104.021H189.786ZM192.262 98.1743V104.021H193.296V102.056H195.075C195.996 102.056 196.457 101.598 196.457 100.683V99.5562C196.457 98.6354 195.996 98.1743 195.075 98.1743H192.262ZM195.051 101.115H193.296V99.1149H195.051C195.3 99.1149 195.423 99.237 195.423 99.4798V100.743C195.423 100.992 195.3 101.115 195.051 101.115ZM199.117 103.818L200.921 98.1743H202.531L204.328 103.818L204.2 104.021H203.328L202.929 102.734H200.514L200.108 104.021H199.251L199.117 103.818ZM200.802 101.793H202.65L201.803 99.1149H201.641L200.802 101.793ZM204.624 98.1743L204.48 98.3774L205.7 104.021H207.362L208.226 100.581L209.098 104.021H210.768L211.979 98.3774L211.836 98.1743H210.988L209.945 103.08H209.845L208.742 98.7683H207.717L206.607 103.08H206.514L205.471 98.1743H204.624ZM212.133 103.818L213.938 98.1743H215.547L217.345 103.818L217.216 104.021H216.344L215.946 102.734H213.53L213.124 104.021H212.267L212.133 103.818ZM213.819 101.793H215.666L214.819 99.1149H214.657L213.819 101.793ZM218.231 98.1743V104.021H219.265V101.886H220.502L221.586 104.021H222.469L222.595 103.801L221.578 101.81C222.143 101.657 222.426 101.225 222.426 100.514V99.5562C222.426 98.6354 221.965 98.1743 221.044 98.1743H218.231ZM221.019 100.946H219.265V99.1149H221.019C221.267 99.1149 221.392 99.237 221.392 99.4798V100.573C221.392 100.822 221.267 100.946 221.019 100.946ZM223.693 104.021V98.1743H225.938C227.463 98.1743 228.227 98.9408 228.227 100.471V101.726C228.227 103.256 227.463 104.021 225.938 104.021H223.693ZM224.727 103.08H225.997C226.794 103.08 227.193 102.683 227.193 101.886V100.311C227.193 99.5134 226.794 99.1149 225.997 99.1149H224.727V103.08ZM49.8296 56.1088V67.4501H73.9621V61.7018H56.1993V55.9536C56.1993 54.6416 56.7861 53.8648 57.9601 53.6231L67.9031 51.6035C71.9424 50.7748 73.9621 48.0648 73.9621 43.473V40.1587C73.9621 34.5312 71.1484 31.7175 65.5209 31.7175H53.9206L50.8653 34.0997V37.4657H65.3654C66.8501 37.4657 67.5924 38.208 67.5924 39.6925V43.6283C67.5924 44.9403 67.0054 45.717 65.8316 45.9588L55.8886 47.9785C51.8493 48.807 49.8296 51.5171 49.8296 56.1088ZM79.7698 59.0089V40.1587C79.7698 34.5312 82.5836 31.7175 88.2111 31.7175H95.4611C101.089 31.7175 103.902 34.5312 103.902 40.1587V59.0089C103.902 64.6364 101.089 67.4501 95.4611 67.4501H88.2111C82.5836 67.4501 79.7698 64.6364 79.7698 59.0089ZM86.1396 59.475C86.1396 60.9596 86.8818 61.7018 88.3664 61.7018H95.3058C96.7903 61.7018 97.5326 60.9596 97.5326 59.475V39.6925C97.5326 38.208 96.7903 37.4657 95.3058 37.4657H88.3664C86.8818 37.4657 86.1396 38.208 86.1396 39.6925V59.475ZM111.162 61.7018V67.4501H133.223V61.7018H125.766V31.7175H115.719L112.664 34.0997V37.4657H119.448V61.7018H111.162ZM139.646 37.4657V31.7175H163.778V42.1265L150.469 67.4501H144.825L144.048 66.1036L157.409 40.78V37.4657H139.646ZM85.4606 9.28095C85.9315 9.48893 86.4401 9.59749 86.9549 9.60009C88.1075 9.60009 89.2505 8.92013 89.2505 7.71642C89.2505 6.59174 88.4168 6.19112 87.6272 5.81175C86.9172 5.47059 86.2429 5.14661 86.2429 4.32868C86.2317 4.17125 86.2543 4.01321 86.309 3.86509C86.3638 3.71713 86.4493 3.5823 86.5603 3.46991C86.6712 3.35753 86.8046 3.27019 86.952 3.21338C87.0993 3.15673 87.2571 3.13199 87.4147 3.141C87.7173 3.11489 88.0181 3.20758 88.2536 3.39952C88.489 3.59146 88.6405 3.86739 88.6758 4.16912H88.8993L88.7428 2.98449C88.3498 2.9089 87.9519 2.86187 87.5519 2.84401C86.3578 2.84401 85.4606 3.46671 85.4606 4.66401C85.4606 5.8246 86.2728 6.2268 87.0364 6.60497C87.714 6.94049 88.3533 7.25709 88.3533 8.06763C88.3516 8.23834 88.315 8.40707 88.2455 8.56312C88.1762 8.71933 88.0755 8.85951 87.95 8.97526C87.8243 9.091 87.6764 9.17987 87.5151 9.23621C87.3539 9.29271 87.1827 9.31547 87.0123 9.30325C86.2013 9.30325 85.6554 8.62634 85.4893 7.93035H85.2659L85.4606 9.28095ZM140.947 9.28095C141.418 9.48893 141.926 9.59749 142.441 9.60009C143.594 9.60009 144.737 8.92013 144.737 7.71642C144.737 6.59174 143.903 6.19112 143.113 5.81175C142.403 5.47059 141.729 5.14661 141.729 4.32868C141.718 4.17125 141.74 4.01321 141.795 3.86509C141.85 3.71713 141.936 3.5823 142.046 3.46991C142.157 3.35753 142.291 3.27019 142.438 3.21338C142.586 3.15673 142.743 3.13199 142.901 3.141C143.203 3.11489 143.504 3.20758 143.74 3.39952C143.975 3.59146 144.127 3.86739 144.162 4.16912H144.386L144.229 2.98449C143.836 2.9089 143.438 2.86187 143.038 2.84401C141.847 2.84401 140.947 3.46671 140.947 4.66401C140.947 5.8246 141.759 6.2268 142.523 6.60497C143.2 6.94049 143.839 7.25709 143.839 8.06763C143.838 8.23819 143.801 8.40646 143.732 8.56236C143.663 8.71826 143.562 8.85829 143.437 8.97403C143.312 9.08978 143.164 9.17865 143.003 9.2353C142.843 9.2918 142.672 9.31501 142.502 9.30325C141.688 9.30325 141.142 8.62634 140.975 7.93035H140.752L140.947 9.28095ZM157.74 2.98954C157.904 2.98481 158.066 2.98013 158.224 2.98013L158.218 3.22277C157.446 3.22277 157.445 3.5868 157.445 4.71706V7.38941C157.445 8.64107 156.612 9.59894 154.891 9.59894C153.278 9.59894 152.31 8.855 152.283 7.27764V3.89006C152.283 3.24186 151.912 3.22277 151.394 3.22277V2.98013C151.854 2.99922 152.292 2.99922 152.742 2.99922C152.963 2.99922 153.183 2.99464 153.408 2.98997C153.642 2.9851 153.881 2.98013 154.13 2.98013V3.22277C153.61 3.23239 153.24 3.25148 153.24 3.89006V7.04783C153.24 8.14938 153.633 9.21903 155.155 9.21903C156.778 9.21903 156.934 8.02799 156.934 7.38941V4.74577C156.934 3.25285 156.875 3.25095 156.056 3.22441L156.006 3.22277V2.98013C156.416 2.99922 156.826 2.99922 157.238 2.99922C157.405 2.99922 157.573 2.99436 157.74 2.98954ZM170.229 8.04082L170.015 8.00249C169.713 8.90279 169.319 9.16146 168.186 9.16146C166.801 9.16146 166.644 8.87409 166.644 8.20359V3.89006C166.644 3.25148 167.015 3.23239 167.531 3.22277V2.98013C167.283 2.98013 167.045 2.98509 166.811 2.98996C166.587 2.99463 166.367 2.99922 166.146 2.99922C165.695 2.99922 165.256 2.99922 164.799 2.98013V3.22277C165.312 3.22277 165.686 3.24186 165.686 3.89006V8.60916C165.686 9.13917 165.283 9.24774 164.799 9.2317V9.47113C165.657 9.45205 166.517 9.45204 167.384 9.45204C168.253 9.45204 169.035 9.45205 169.869 9.47113L170.229 8.04082ZM182.088 8.00249L182.306 8.04082L181.941 9.47113C181.112 9.45205 180.329 9.45204 179.461 9.45204C178.593 9.45204 177.73 9.45205 176.872 9.47113V9.2317C177.36 9.24774 177.762 9.13917 177.762 8.60916V3.89006C177.762 3.24186 177.389 3.22277 176.872 3.22277V2.98013C177.331 2.99922 177.768 2.99922 178.219 2.99922C178.439 2.99922 178.66 2.99464 178.885 2.98997C179.119 2.9851 179.359 2.98013 179.608 2.98013V3.22277C179.09 3.23239 178.716 3.25148 178.716 3.89006V8.20359C178.716 8.87409 178.874 9.16146 180.262 9.16146C181.396 9.16146 181.789 8.90279 182.088 8.00249ZM189.768 8.54838C189.768 9.18696 189.394 9.20941 188.876 9.21903V9.45846C189.124 9.45846 189.366 9.45351 189.606 9.44863L189.606 9.44863C189.838 9.44389 190.067 9.43922 190.295 9.43922C190.523 9.43922 190.735 9.44398 190.947 9.44877C191.161 9.4536 191.377 9.45846 191.612 9.45846V9.21903C191.095 9.21903 190.725 9.19979 190.725 8.54838V3.89006C190.725 3.25148 191.095 3.23239 191.612 3.22277V2.98013C191.363 2.98013 191.123 2.98594 190.889 2.99163C190.664 2.99708 190.444 3.00242 190.224 3.00242H190.224C189.774 3.00242 189.336 3.00242 188.876 2.98013V3.22277C189.394 3.22277 189.768 3.24186 189.768 3.89006V8.54838ZM201.768 9.59573H201.396L199.76 5.75464C199.643 5.4686 199.517 5.17158 199.392 4.8783L199.392 4.87754C199.256 4.55894 199.122 4.24476 199.005 3.95388C198.782 3.39516 198.619 3.21956 197.981 3.21956V2.98013C198.44 2.99601 198.897 2.99601 199.356 2.99601H199.356C199.563 2.99601 199.77 2.99204 199.978 2.98807C200.186 2.9841 200.393 2.98013 200.599 2.98013V3.21956C200.453 3.22918 200.311 3.2388 200.178 3.24826C200.044 3.25788 199.924 3.33133 199.924 3.47181C199.924 3.70627 200.237 4.41732 200.431 4.85859L200.432 4.8591L200.432 4.85936L200.432 4.85958L200.432 4.85978C200.491 4.99477 200.54 5.10439 200.564 5.16721L201.867 8.34087L202.607 6.50499C202.693 6.2873 202.783 6.07086 202.872 5.85477C203.031 5.47184 203.189 5.09 203.322 4.70424C203.475 4.36723 203.582 4.01206 203.641 3.64742C203.641 3.25373 203.309 3.23858 202.982 3.22368L202.935 3.22146L202.898 3.21956V2.98013C203.278 2.99601 203.67 2.99601 204.05 2.99601H204.05C204.2 2.99601 204.346 2.99214 204.494 2.98822C204.646 2.9842 204.799 2.98013 204.96 2.98013V3.21956C204.828 3.20994 204.693 3.2391 204.576 3.30369C204.458 3.36829 204.363 3.46555 204.299 3.58359C204.238 3.68254 203.574 5.2886 203.556 5.3364L201.768 9.59573ZM212.335 6.62021L213.292 3.89029H213.312L214.356 6.62021H212.335ZM216.215 8.93815C215.993 8.50236 215.807 8.04976 215.659 7.58449L213.791 2.69299H213.625C213.481 2.88264 213.284 3.02511 213.06 3.10161C213.077 3.18132 213.083 3.26301 213.078 3.34424C213.054 3.63101 212.985 3.91228 212.874 4.17767L211.623 7.49181C211.589 7.58319 211.555 7.67615 211.521 7.76967C211.429 8.02587 211.335 8.28623 211.22 8.52953C210.977 9.04993 210.869 9.12337 210.263 9.19041V9.42984C210.459 9.42984 210.657 9.42506 210.855 9.42029C211.053 9.41552 211.251 9.41075 211.447 9.41075C211.645 9.41075 211.838 9.41558 212.031 9.42038C212.221 9.42512 212.41 9.42984 212.6 9.42984V9.19041H212.376C212.351 9.18901 212.326 9.18781 212.301 9.18663C211.988 9.17166 211.709 9.15832 211.709 8.75308C211.748 8.3747 211.837 8.00304 211.974 7.64832L212.188 7.00974H214.486L214.975 8.35393C215.047 8.52709 215.095 8.70834 215.121 8.89356C215.121 9.15208 214.828 9.21285 214.582 9.21285H214.407V9.45228C214.648 9.45228 214.888 9.44743 215.127 9.4426C215.364 9.43781 215.6 9.43305 215.834 9.43305C216.019 9.43305 216.207 9.43785 216.395 9.44265C216.584 9.44746 216.773 9.45228 216.958 9.45228V9.21285C216.822 9.22705 216.683 9.21194 216.554 9.16857C216.424 9.12505 216.305 9.05405 216.204 8.9606L216.215 8.93815ZM231.248 3.19314C230.651 3.19314 230.332 3.24415 230.332 4.15101L230.329 9.51495H230.102L224.994 4.18918V7.65037C224.994 8.93074 225.102 9.19246 226.159 9.19246V9.43189C225.944 9.43189 225.726 9.42712 225.509 9.42235C225.292 9.41757 225.075 9.4128 224.859 9.4128C224.644 9.4128 224.425 9.41759 224.207 9.42237C223.99 9.42714 223.773 9.43189 223.56 9.43189V9.19246C224.154 9.19246 224.604 9.19246 224.604 8.01425V4.28187C224.604 3.48357 224.243 3.19635 223.403 3.19635V2.95356C223.707 2.9728 224.035 2.9728 224.301 2.9728C224.434 2.9728 224.569 2.96796 224.704 2.96314C224.838 2.95834 224.971 2.95356 225.102 2.95356C225.371 3.33452 225.868 3.83891 226.501 4.48296C226.813 4.79974 227.158 5.1503 227.526 5.53658C228.04 6.09188 228.601 6.65724 229.112 7.17202C229.411 7.4743 229.694 7.75913 229.94 8.01425V4.317C229.94 3.46449 229.735 3.19314 228.758 3.19314V2.95036C229.208 2.9696 229.668 2.9696 230.115 2.9696C230.307 2.9696 230.496 2.96477 230.684 2.95995C230.872 2.95515 231.059 2.95036 231.248 2.95036V3.19314ZM263.62 101.673C263.568 102.198 263.557 102.36 263.565 102.386C263.549 102.418 263.556 102.319 263.62 101.673ZM263.704 102.334C263.676 102.334 263.647 102.334 263.62 102.333C263.62 102.223 263.603 102.282 263.586 102.336C263.577 102.369 263.568 102.4 263.565 102.386C263.567 102.382 263.568 102.375 263.571 102.367C263.572 102.362 263.574 102.356 263.575 102.35C263.592 102.295 263.618 102.212 263.63 102.325L263.704 102.334ZM263.759 102.333C263.74 102.334 263.722 102.334 263.704 102.334L263.75 102.339C255.579 107.024 254.808 112.205 254.853 113.777C248.431 119.876 240.494 124.474 231.732 128.087C236.064 125.311 238.035 119.543 232.74 113.806C227.733 116.724 229.403 124.066 230.944 128.407C227.809 129.672 224.572 130.815 221.265 131.858C224.992 129.391 228.07 123.739 223.969 117.416C223.52 117.641 223.112 117.897 222.752 118.183C222.272 118.571 221.839 118.983 221.459 119.417C218.435 122.674 219.362 130.386 219.733 132.333C216.433 133.336 213.069 134.248 209.67 135.086C212.57 133.3 215.781 129.417 215.647 125.011C215.557 123.394 215.155 121.789 214.451 120.238C208.151 122.831 207.235 130.475 207.93 135.509C204.152 136.413 200.337 137.235 196.528 138.004C199.531 136.554 206.639 131.269 204.337 122.318C197.192 125.453 195.399 133.646 195.644 138.183C191.505 139.011 187.375 139.782 183.309 140.533C184.419 140.041 194.819 134.187 193.807 123.742C184.185 127.18 182.446 135.783 183.248 140.544C182.817 140.624 182.388 140.703 181.959 140.782L181.653 140.838L181.652 140.84H181.649L181.61 140.847C178.194 141.478 174.826 142.101 171.54 142.736C173.69 141.275 181.437 135.147 181.408 125.005C171.456 128.624 169.061 136.109 170.939 142.854C167.167 143.588 163.505 144.346 160.003 145.161C162.487 142.88 168.416 136.283 167.816 126.706C157.903 131.076 155.678 138.101 158.705 145.468C155.064 146.342 151.604 147.284 148.383 148.337C150.494 145.306 155.148 137.441 153.998 128.962C146.075 133.144 140.915 139.259 146.875 148.846C143.603 149.98 140.599 151.242 137.926 152.682C135.252 151.242 132.247 149.979 128.974 148.844C134.934 139.26 129.764 133.144 121.85 128.962C120.717 137.441 125.362 145.306 127.469 148.337C124.236 147.279 120.763 146.334 117.108 145.459C120.131 138.094 117.914 131.073 108.005 126.706C107.43 136.273 113.343 142.865 115.814 145.154C112.319 144.341 108.667 143.585 104.905 142.852C106.772 136.108 104.387 128.624 94.4249 125.005C94.3967 135.14 102.132 141.267 104.295 142.733C101.156 142.125 97.9422 141.531 94.6824 140.928L94.1971 140.838L93.4695 140.704L92.5878 140.542C93.4 135.78 91.6483 127.178 82.0394 123.742C81.0303 134.15 91.3142 140 92.513 140.528C88.4525 139.777 84.3301 139.008 80.1981 138.181C80.4426 133.645 78.6496 125.453 71.5052 122.318C69.2044 131.266 76.3155 136.551 79.3145 138.003C75.5044 137.233 71.6896 136.412 67.9109 135.508C68.6058 130.473 67.6883 122.831 61.39 120.238C60.6859 121.789 60.284 123.394 60.1942 125.011C60.0598 129.414 63.2662 133.295 66.1651 135.083C62.7734 134.245 59.4162 133.336 56.1236 132.335C56.4905 130.417 57.4217 122.669 54.39 119.403C54.012 118.972 53.5795 118.564 53.0973 118.183C52.7343 117.899 52.3262 117.642 51.8802 117.416C47.7566 123.759 50.8643 129.426 54.6221 131.87C51.2976 130.823 48.0443 129.675 44.8938 128.404C46.4339 124.062 48.1021 116.723 43.0958 113.806C37.7774 119.536 39.7636 125.295 44.0871 128.074C35.2064 124.411 27.1736 119.736 20.706 113.509L20.5855 113.57C20.5566 111.786 19.5299 106.834 11.6884 102.339L11.7349 102.334C11.7627 102.334 11.7905 102.334 11.8183 102.333C11.8183 102.223 11.8359 102.282 11.8516 102.336C11.8615 102.369 11.8706 102.4 11.8742 102.386C11.8882 102.418 11.8821 102.319 11.8183 101.673C11.8701 102.198 11.8804 102.36 11.8742 102.386C11.8715 102.38 11.8681 102.368 11.8642 102.356L11.8624 102.35L11.8617 102.347C11.8447 102.292 11.8203 102.214 11.8076 102.325L11.7349 102.334C11.7162 102.334 11.6975 102.334 11.6789 102.333C11.4341 102.192 11.1826 102.053 10.9243 101.914C10.9724 102.043 11.0892 102.156 11.2533 102.232C11.3792 102.292 11.5266 102.325 11.6789 102.333L11.6884 102.339C11.5015 102.351 11.3122 102.325 11.1473 102.264C10.9471 102.188 10.798 102.066 10.7304 101.92C7.97274 111.033 20.1236 114.246 20.5221 114.246L20.5237 114.243C22.1618 115.79 23.9299 117.276 25.8196 118.693C25.763 118.664 25.6671 118.622 25.5402 118.569C25.5092 118.556 25.4761 118.542 25.4414 118.527C25.3732 118.498 25.2982 118.465 25.2179 118.43L24.1406 117.963C13.3686 113.551 12.9916 113.509 0.851562 112.722C5.93595 118.778 15.0168 120.522 24.2484 119.006C24.7833 118.926 25.3078 118.823 25.8196 118.693C25.8814 118.74 25.9439 118.786 26.0062 118.832L26.049 118.864C28.8282 120.921 31.7368 122.771 34.7498 124.448C22.4318 121.073 19.8245 121.005 8.32464 121.976C18.1901 129.114 31.879 126.012 35.1122 124.648C38.321 126.413 41.6464 127.983 45.059 129.392C32.6783 127.279 27.5824 128.077 17.9605 130.182C29.434 135.885 42.3683 131.588 45.6665 129.641C49.1921 131.073 52.8083 132.339 56.4826 133.475C42.8014 132.606 38.3784 134.088 29.2796 137.281C41.1798 141.463 53.7147 136.424 57.1172 133.671C60.7331 134.773 64.4035 135.755 68.0977 136.653C54.4105 136.925 49.0293 139.615 42.7247 142.768C42.4161 142.923 42.1048 143.078 41.7906 143.235L41.7852 143.237C54.5464 146.328 66.4224 139.533 69.1039 136.896C72.5769 137.725 76.0683 138.484 79.5527 139.201C65.6928 140.883 61.1535 143.989 55.1946 148.066L55.1828 148.075C68.8279 149.692 78.4837 143.001 81.3589 139.571C84.3903 140.185 87.4131 140.773 90.4105 141.357L90.6748 141.408L91.0607 141.483C79.1022 143.158 74.0313 147.446 69.0519 151.933C81.3434 152.231 90.7469 144.744 93.5326 141.964C96.8386 142.61 100.106 143.257 103.312 143.935C90.5909 145.448 86.037 149.797 81.5658 154.819C92.9306 154.502 102.813 147.21 105.782 144.465C109.117 145.195 112.377 145.966 115.535 146.81C103.665 147.827 98.3929 151.306 92.6072 157.635C103.978 157.247 114.564 150.101 117.77 147.426C120.826 148.292 123.779 149.237 126.603 150.29C114.181 150.661 108.018 155.58 102.992 160.706C113.953 160.57 125.223 153.712 128.955 151.208C131.186 152.115 133.327 153.1 135.365 154.18C133.622 155.293 132.059 156.502 130.696 157.826C131.081 158.557 131.401 159.304 131.655 160.06C133.585 158.429 135.681 156.956 137.92 155.618C140.16 156.956 142.255 158.429 144.186 160.06C144.449 159.304 144.772 158.559 145.155 157.826C143.791 156.501 142.226 155.29 140.482 154.176C142.512 153.101 144.645 152.12 146.867 151.216C150.578 153.728 161.887 160.564 172.863 160.706C167.825 155.58 161.662 150.661 149.239 150.29C152.064 149.235 155.018 148.29 158.077 147.424C161.274 150.099 171.872 157.247 183.245 157.635C177.418 151.304 172.169 147.827 160.308 146.81C163.469 145.966 166.729 145.195 170.065 144.465C173.031 147.209 182.906 154.502 194.272 154.819C189.8 149.797 185.265 145.447 172.534 143.934C175.743 143.257 179.01 142.61 182.319 141.964C185.107 144.743 194.555 152.231 206.79 151.933C201.811 147.447 196.705 143.159 184.784 141.483L185.17 141.408C188.255 140.809 191.365 140.205 194.485 139.571C197.364 142.987 207.018 149.692 220.657 148.075L220.645 148.066L220.643 148.065C214.686 143.988 210.147 140.883 196.291 139.203C199.766 138.485 203.246 137.729 206.71 136.903C209.417 139.547 221.271 146.325 234.019 143.237C233.85 143.153 233.683 143.069 233.515 142.985C233.391 142.922 233.267 142.859 233.143 142.797C226.855 139.635 221.477 136.931 207.748 136.654C211.443 135.755 215.115 134.773 218.733 133.671C222.135 136.424 234.659 141.463 246.571 137.281C237.483 134.088 233.05 132.606 219.367 133.475C223.039 132.339 226.655 131.075 230.179 129.643C233.482 131.591 246.412 135.883 257.881 130.182C248.274 128.077 243.167 127.279 230.797 129.389C234.206 127.983 237.527 126.415 240.732 124.653C243.992 126.018 257.665 129.107 267.509 121.976C256.02 121.005 253.407 121.073 241.118 124.439C244.125 122.765 247.028 120.916 249.802 118.864C249.889 118.798 249.976 118.734 250.062 118.668C250.56 118.804 251.071 118.917 251.595 119.006C260.825 120.522 269.906 118.778 274.991 112.722C262.862 113.509 262.474 113.551 251.712 117.928L250.636 118.395L250.149 118.603C252.035 117.175 253.801 115.68 255.441 114.126C257.813 113.466 267.161 110.029 264.708 101.92C264.64 102.066 264.492 102.188 264.292 102.264C264.127 102.325 263.937 102.351 263.75 102.339L263.759 102.333ZM263.759 102.333C263.911 102.325 264.059 102.292 264.185 102.232C264.35 102.156 264.466 102.043 264.515 101.914C264.255 102.053 264.005 102.192 263.759 102.333ZM26.0483 116.663C29.2448 111.669 32.3327 106.845 28.6329 104.246C22.5145 107.566 20.2416 112.793 25.5306 117.473C25.7025 117.204 25.8751 116.934 26.0473 116.665L26.0483 116.663ZM35.2542 109.41C39.7461 112.133 36.8377 118.856 34.5863 123.458C29.8252 120.395 28.7694 114.439 35.2542 109.41ZM240.591 109.41C236.099 112.133 238.997 118.856 241.259 123.458C246.02 120.395 247.066 114.439 240.591 109.41ZM249.773 116.634L249.776 116.639C249.953 116.914 250.128 117.189 250.304 117.464L250.309 117.473C255.576 112.793 253.336 107.566 247.206 104.246C243.524 106.84 246.594 111.65 249.773 116.634Z" fill="#252525"/>
</svg>
