<svg width="215" height="203" viewBox="0 0 215 203" fill="none" xmlns="http://www.w3.org/2000/svg">
<path fill-rule="evenodd" clip-rule="evenodd" d="M177.31 3.50086C176.54 2.3592 175.673 1.24239 174.471 0.532715C173.726 1.95192 173.493 3.55786 173.49 5.14591C173.252 6.38334 173.379 7.62957 173.505 8.86978C173.538 9.19812 173.572 9.52603 173.598 9.85324C173.66 10.8468 173.99 11.7758 174.32 12.7032C174.431 13.0176 174.543 13.3319 174.644 13.6484C174.881 14.1286 175.12 14.6212 175.153 15.1672C174.766 14.7275 174.346 14.3164 173.926 13.9053C173.192 13.1873 172.458 12.4693 171.9 11.5997C170.131 8.8877 167.884 6.50281 165.311 4.55022C163.813 3.55786 162.067 2.85364 160.252 2.83575C158.643 2.74147 156.974 2.83045 155.48 3.49025C156.572 5.7754 158.277 7.69784 160.118 9.407C161.779 10.826 163.635 12.2186 165.854 12.5351C166.999 12.9001 168.192 12.9495 169.386 12.9989C170.041 13.0261 170.697 13.0532 171.345 13.1327C171.961 13.202 172.578 13.4207 173.003 13.8938C173.737 14.7338 174.501 15.5446 175.265 16.3552C175.887 17.0152 176.509 17.6751 177.114 18.3504C176.705 18.1911 176.321 17.9791 175.938 17.7673C175.491 17.5204 175.044 17.2737 174.558 17.111C173.027 16.4778 171.398 16.1667 169.781 15.8643C169.43 15.8669 169.076 15.8573 168.722 15.8476C167.674 15.8189 166.622 15.7901 165.608 16.0812C164.356 16.2999 163.141 16.7214 162.03 17.3439C162.968 18.6367 164.315 19.5794 165.7 20.3351C166.866 21.0671 168.199 21.4283 169.515 21.7846L169.547 21.7934C171.996 22.1775 174.526 22.2557 176.968 21.7721C177.313 21.6359 177.673 21.5506 178.033 21.4654C178.472 21.3613 178.911 21.2572 179.323 21.0607C179.723 21.4171 180.041 21.8443 180.36 22.2723C180.59 22.581 180.82 22.8902 181.082 23.1734C181.286 23.4458 181.493 23.717 181.699 23.9882C182.481 25.0145 183.263 26.0417 183.938 27.1445C183.758 27.0502 183.578 26.9574 183.398 26.8647C183.014 26.6674 182.63 26.4701 182.257 26.2572C180.634 25.2287 178.737 24.8148 176.89 24.4118L176.855 24.404C175.771 24.363 174.685 24.3766 173.603 24.3901L173.336 24.3934C172.01 24.6673 170.742 25.1866 169.599 25.9104C170.7 27.422 172.292 28.4641 173.919 29.3178C174.027 29.3541 174.136 29.3888 174.245 29.4236C174.574 29.5284 174.902 29.6332 175.217 29.7801C175.67 29.9402 176.143 30.0115 176.616 30.0829C176.958 30.1344 177.3 30.186 177.635 30.2711C178.391 30.4541 179.165 30.4427 179.938 30.4314C180.277 30.4264 180.615 30.4214 180.952 30.4328C181.535 30.4669 182.097 30.34 182.661 30.2129C183.009 30.1343 183.357 30.0557 183.712 30.0149C184.077 29.9692 184.42 29.8461 184.763 29.7227C185.075 29.6106 185.387 29.4983 185.717 29.4441C187.432 32.0636 189.135 34.7098 190.357 37.605C187.708 35.0317 184.421 33.0061 180.756 32.3908C179.16 32.2894 177.506 32.1917 175.97 32.7181C175.429 32.8124 174.909 33.0097 174.513 33.4028C176.363 35.9992 178.612 38.4907 181.618 39.7124C182.85 40.1669 184.138 40.4316 185.424 40.6958L185.536 40.719C186.034 40.7566 186.534 40.7507 187.035 40.7449C187.364 40.741 187.693 40.7372 188.021 40.7457C188.725 40.7913 189.406 40.6472 190.088 40.5028C190.575 40.3998 191.062 40.2967 191.558 40.262C191.76 40.6037 191.895 40.9754 192.03 41.3478C192.123 41.6035 192.215 41.8594 192.33 42.1062C192.509 42.5998 192.702 43.0886 192.896 43.5774C193.345 44.7157 193.795 45.8537 194.069 47.0518C192.399 45.1561 190.463 43.4524 188.156 42.3925C187.926 42.2969 187.698 42.1968 187.469 42.0966C186.635 41.731 185.801 41.3649 184.895 41.2169C184.021 40.8617 183.084 40.8917 182.156 40.9215C181.876 40.9304 181.596 40.9394 181.32 40.9377C180.437 41.2081 179.53 41.3984 178.615 41.5407C179.962 44.1087 181.84 46.481 184.343 47.9926C185.547 48.8178 186.952 49.2571 188.336 49.6679C189.684 50.0185 191.077 50.0066 192.462 49.9946C192.812 49.9916 193.162 49.9886 193.51 49.9915C193.856 49.9891 194.198 49.9315 194.54 49.8739C194.711 49.845 194.883 49.8161 195.055 49.7941L195.109 49.9694C195.619 51.5992 196.132 53.2375 196.369 54.9337C196.816 56.5876 196.929 58.3143 197.032 60.0164C196.51 59.2742 196.022 58.5102 195.535 57.7462C195.3 57.3787 195.065 57.0112 194.827 56.6462C193.206 54.4108 191.435 52.1238 188.93 50.8433C188.502 50.5828 188.026 50.4424 187.55 50.302C187.275 50.2211 187 50.1401 186.735 50.036C184.982 49.7978 183.143 49.7764 181.46 50.381C183.074 53.7314 185.297 56.9307 188.471 58.9529C191.069 60.5943 194.173 61.1686 197.204 61.2061C197.216 62.4099 197.214 63.6144 197.212 64.8187C197.211 65.5715 197.21 66.3242 197.213 67.0766C197.221 67.5877 197.124 68.087 197.027 68.586C196.914 69.1651 196.801 69.7438 196.854 70.3399C196.809 70.2741 196.762 70.2089 196.716 70.1437C196.553 69.9147 196.39 69.6858 196.269 69.4312C194.848 66.8186 193.255 64.2506 191.085 62.193C189.988 61.1207 188.605 60.3294 187.119 59.9612C185.986 59.7474 184.837 59.7587 183.689 59.7699C183.3 59.7738 182.911 59.7776 182.523 59.7726C182.751 60.2274 182.948 60.6984 183.145 61.1695C183.446 61.8924 183.748 62.6153 184.167 63.2796C185.089 64.9532 186.204 66.5306 187.594 67.843C189.033 69.4294 190.962 70.4857 192.981 71.1349C194.203 71.3713 195.445 71.5456 196.693 71.5687C196.444 72.2516 196.327 72.9666 196.21 73.6816C196.184 73.8399 196.158 73.9983 196.131 74.1562C195.685 75.8031 195.171 77.425 194.639 79.0451C193.975 78.0035 193.427 76.8972 192.88 75.7911C192.498 75.0199 192.117 74.2489 191.696 73.5001C190.769 72.0454 189.774 70.5871 188.401 69.5183C187.205 68.4957 185.633 68.0831 184.132 67.7541C183.59 67.5909 183.03 67.5889 182.471 67.5869C182.122 67.5857 181.772 67.5845 181.427 67.5442C182.119 70.6439 183.718 73.5037 185.772 75.9027C187.429 77.786 189.743 79.102 192.243 79.3865C192.882 79.5838 193.537 79.702 194.198 79.8212L194.253 79.8311C193.337 82.4116 191.989 84.8088 190.574 87.1403C190.51 87.0964 190.447 87.0529 190.385 87.0098C190.329 86.9708 190.273 86.932 190.217 86.8931C190.092 86.4333 189.959 85.9753 189.825 85.5172C189.526 84.4886 189.226 83.4589 189.021 82.4045C188.978 82.2898 188.935 82.1749 188.893 82.06C188.528 81.0746 188.162 80.0886 187.649 79.1696C186.736 77.8056 185.622 76.5287 184.164 75.7426C182.985 75.2038 181.704 74.7877 180.395 74.8855C180.657 75.9933 181.029 77.0657 181.419 78.1345C181.748 79.5679 182.298 80.9426 183.009 82.2302C183.865 83.7258 184.828 85.2747 186.35 86.164C187.051 86.7047 187.86 87.0402 188.669 87.3759C189.13 87.5669 189.591 87.758 190.032 87.9869C188.615 90.1476 187.111 92.2549 185.38 94.1756C184.976 93.1179 184.993 91.998 185.011 90.8838C185.016 90.5256 185.022 90.168 185.014 89.8132C184.979 88.5612 184.59 87.3715 184.186 86.1995C184.087 86.0204 183.99 85.8389 183.892 85.657C183.383 84.7065 182.866 83.742 182.052 83.0179C180.928 81.974 179.478 81.3303 177.98 81.0725C178.006 81.762 178.07 82.4491 178.134 83.1361C178.215 84.0047 178.296 84.8731 178.298 85.746C178.304 86.0627 178.399 86.3623 178.494 86.6621C178.546 86.827 178.599 86.992 178.636 87.1599C178.952 88.6537 179.742 89.9928 180.624 91.2163C181.868 92.6089 183.383 93.7292 184.91 94.7928C182.822 97.1917 180.583 99.4557 178.249 101.607C178.301 101.336 178.386 101.075 178.471 100.813C178.573 100.501 178.674 100.189 178.72 99.8612C178.76 99.5418 178.858 99.2367 178.955 98.9325C179.088 98.5185 179.22 98.1061 179.204 97.6612C179.376 96.6913 179.366 95.7096 179.356 94.7283C179.353 94.335 179.349 93.9418 179.356 93.5495C179.261 91.3925 178.338 89.1019 176.409 87.9814C175.899 87.5796 175.289 87.3253 174.639 87.3039C174.519 87.6923 174.365 88.0701 174.212 88.4478C173.95 89.092 173.689 89.7359 173.589 90.4321C173.543 90.8215 173.475 91.2101 173.408 91.599C173.243 92.5456 173.079 93.4935 173.223 94.4566C173.277 94.7643 173.325 95.0746 173.373 95.3852C173.562 96.6129 173.752 97.8468 174.338 98.9594C174.894 100.435 175.969 101.64 177.243 102.536C176.927 102.764 176.645 103.032 176.364 103.301C176.08 103.571 175.797 103.84 175.479 104.069C175.149 104.318 174.822 104.574 174.494 104.829C173.286 105.771 172.074 106.717 170.697 107.394C170.8 106.902 170.972 106.43 171.145 105.958C171.382 105.308 171.619 104.66 171.672 103.962C171.712 103.577 171.765 103.191 171.818 102.805C171.98 101.63 172.143 100.452 171.924 99.2743C171.865 98.9838 171.826 98.6874 171.788 98.3908C171.703 97.7358 171.618 97.0801 171.309 96.4875C170.87 95.5788 170.332 94.6451 169.436 94.1258C169.358 94.0846 169.28 94.0413 169.202 93.9978C168.745 93.7435 168.274 93.4816 167.736 93.5621C167.396 94.2288 167.144 94.9333 166.893 95.637C166.831 95.8099 166.77 95.9827 166.707 96.155C166.583 96.6027 166.515 97.0616 166.448 97.5205C166.39 97.9202 166.331 98.3199 166.235 98.7124C166.075 99.3696 166.082 100.048 166.089 100.721C166.09 100.83 166.091 100.938 166.092 101.046C166.085 101.518 166.184 101.977 166.283 102.436C166.358 102.787 166.434 103.138 166.462 103.496C166.744 105.417 167.89 107.044 169.122 108.481C164.482 111.186 159.521 113.265 154.489 115.106C154.572 115.572 154.744 116.008 154.915 116.445C155.035 116.749 155.155 117.053 155.244 117.368C155.933 117.24 156.581 116.983 157.23 116.727C157.636 116.566 158.042 116.405 158.459 116.276L158.772 116.146C161.964 114.826 165.161 113.503 168.23 111.903C168.393 111.812 168.566 111.738 168.739 111.665C169.057 111.529 169.376 111.393 169.635 111.15C170.583 112.564 171.877 113.733 173.401 114.488C174.344 114.99 175.375 115.265 176.401 115.539C176.633 115.6 176.864 115.662 177.094 115.726C179.132 115.952 181.207 116.13 183.25 115.822C184.555 115.789 185.787 115.248 186.972 114.729L186.997 114.718C186.671 112.955 185.297 111.623 183.802 110.773C182.336 109.985 180.701 109.539 179.034 109.521C177.643 109.263 176.253 109.444 174.866 109.625C174.363 109.691 173.861 109.756 173.358 109.801C173.212 109.833 173.067 109.873 172.921 109.913C172.549 110.014 172.176 110.116 171.787 110.105C171.971 109.941 172.16 109.781 172.373 109.649C173.937 108.643 175.431 107.53 176.91 106.4C177.07 106.271 177.227 106.137 177.384 106.003C177.883 105.579 178.383 105.152 178.964 104.849C179.799 106.014 180.93 107.019 182.304 107.485C183.487 108.026 184.775 108.211 186.058 108.321C187.853 108.346 189.657 108.362 191.424 108.022L191.431 108.02C192.883 107.662 194.351 107.299 195.68 106.58C196.043 106.176 195.739 105.655 195.493 105.231C195.45 105.158 195.41 105.088 195.374 105.022C194.529 103.786 193.144 103.02 191.73 102.637C191.512 102.599 191.294 102.559 191.075 102.519C189.37 102.207 187.634 101.89 185.919 102.315C183.883 102.555 181.9 103.101 179.983 103.83C180.663 103.15 181.352 102.479 182.041 101.809C183.254 100.628 184.466 99.4471 185.628 98.2143C185.953 98.0599 186.221 98.2785 186.471 98.4831C186.544 98.5425 186.615 98.6007 186.686 98.6482C186.832 98.7439 186.976 98.8442 187.121 98.9447C187.62 99.2926 188.124 99.643 188.718 99.8113C190.241 100.498 191.95 100.411 193.589 100.328C193.737 100.32 193.884 100.313 194.03 100.306C196.354 100.035 198.554 99.1551 200.605 98.0489C200.684 97.9994 200.763 97.9499 200.842 97.9004C202.058 97.1386 203.299 96.3613 204.166 95.1875C203.201 93.6813 201.52 92.6728 199.761 92.4435C198.926 92.2549 198.07 92.1269 197.216 92.191C195.228 92.4293 193.212 92.7885 191.448 93.7933C190.632 94.1643 189.874 94.6412 189.116 95.1182C188.737 95.3567 188.358 95.5953 187.972 95.8206C188.189 95.5372 188.408 95.2541 188.626 94.9709C190.42 92.6466 192.219 90.3146 193.671 87.7592C195.635 89.2175 198.153 89.8256 200.572 89.623C201.872 89.4349 203.139 89.1136 204.41 88.7914L204.49 88.7711C207.469 87.8712 210.266 86.2351 212.365 83.9054C210.548 81.5775 207.347 80.8057 204.528 81.1702C200.915 81.7003 197.705 83.6653 194.866 85.883C195.358 84.8015 195.81 83.702 196.261 82.6024C196.708 81.5159 197.154 80.4293 197.639 79.3598C197.704 79.3837 197.769 79.4087 197.834 79.4337C198.148 79.5541 198.465 79.6759 198.807 79.6818C199.066 79.6936 199.326 79.7187 199.585 79.7438C200.14 79.7974 200.696 79.8511 201.253 79.776C201.509 79.736 201.77 79.7238 202.031 79.7117C202.488 79.6903 202.945 79.669 203.379 79.4968C206.203 78.8014 208.976 77.5689 211.094 75.5168C211.906 74.7981 212.57 73.9452 213.233 73.0925C213.66 72.5441 214.086 71.9957 214.552 71.4834C214.54 71.2215 214.525 70.9613 214.51 70.7011L214.51 70.6973C214.004 70.4615 213.462 70.3445 212.922 70.2277C212.798 70.2009 212.674 70.1742 212.551 70.146C211.282 69.7566 209.905 69.8383 208.642 70.2101C207.268 70.3548 206.04 71.0148 204.839 71.6607C204.712 71.7288 204.586 71.7968 204.46 71.864C202.885 72.9079 201.369 74.0745 200.08 75.4652C199.685 75.7982 199.36 76.1966 199.036 76.5951C198.736 76.9628 198.436 77.3307 198.081 77.6473C198.149 76.6124 198.368 75.6029 198.586 74.5935C198.78 73.6984 198.974 72.8034 199.063 71.8906C199.421 71.7719 199.783 71.6662 200.146 71.5604C201.017 71.3064 201.888 71.0522 202.691 70.6191C205.355 69.4845 207.647 67.5833 209.492 65.3586C211.449 62.8351 212.474 59.7282 212.947 56.6C212.92 56.5684 212.883 56.5241 212.843 56.4772C212.785 56.4079 212.722 56.333 212.683 56.2853C212.29 56.3061 211.901 56.3681 211.513 56.4299C211.106 56.4948 210.699 56.5597 210.287 56.577C207.379 57.1282 204.62 58.7786 202.953 61.279C201.688 63.0496 201.012 65.1061 200.338 67.1593C200.033 68.088 199.728 69.016 199.369 69.9167C199.383 69.7731 199.398 69.6296 199.414 69.4861C199.474 68.9186 199.535 68.351 199.512 67.779C199.5 67.1452 199.506 66.5095 199.512 65.8735C199.528 64.097 199.544 62.3182 199.175 60.5711C200.92 59.9256 202.477 58.8106 203.733 57.4376C205.129 55.9367 206.345 54.2454 207.145 52.3462C207.372 51.9271 207.496 51.4719 207.62 51.0163C207.706 50.7024 207.792 50.3883 207.911 50.0858C208.084 49.4566 208.137 48.8111 208.189 48.1655C208.235 47.603 208.281 47.0404 208.407 46.4881C208.634 45.4735 208.529 44.4369 208.426 43.4117C208.404 43.1988 208.383 42.9864 208.364 42.7748C207.692 42.7695 207.071 42.9882 206.499 43.3226C204.66 44.0997 202.975 45.3232 201.811 46.9683C200.979 47.8923 200.529 49.0638 200.089 50.2125C200.041 50.3372 199.993 50.4617 199.945 50.5855C199.733 51.1019 199.633 51.6473 199.532 52.1935C199.452 52.6293 199.372 53.0656 199.235 53.4879C199.095 54.5299 198.989 55.5775 198.89 56.6267C198.721 56.4791 198.655 56.2674 198.634 56.0524C198.38 55.0536 198.142 54.051 197.903 53.0482C197.621 51.8637 197.339 50.6787 197.032 49.499C197.229 49.3293 197.434 49.1694 197.64 49.0095C198.072 48.6733 198.505 48.3369 198.855 47.9091C199.276 47.4066 199.648 46.8634 200.018 46.321C200.125 46.1647 200.232 46.0084 200.34 45.8532C200.512 45.5102 200.695 45.1716 200.878 44.8328C201.352 43.9558 201.827 43.0779 202.122 42.1221C202.34 41.6512 202.422 41.1446 202.503 40.6379C202.555 40.32 202.606 40.0021 202.691 39.6928C202.901 38.9961 202.887 38.2736 202.872 37.5523C202.866 37.2519 202.86 36.9517 202.87 36.6536C202.86 36.3362 202.865 36.0167 202.871 35.6968C202.885 34.9376 202.898 34.1766 202.698 33.4384C202.601 33.0342 202.534 32.6244 202.467 32.2143C202.416 31.9026 202.365 31.5907 202.3 31.2812C200.356 32.0227 198.494 33.2498 197.421 35.0869C196.703 36.0276 196.352 37.1638 196.007 38.2815C195.979 38.3745 195.95 38.4675 195.921 38.5601C195.398 40.8685 195.303 43.2746 195.62 45.622C195.175 44.5301 194.704 43.4489 194.17 42.3978C193.483 40.8168 192.79 39.2395 192.017 37.7011C193.48 36.8332 194.737 35.5867 195.544 34.075C196.384 32.8395 196.708 31.3713 197.026 29.9296C197.082 29.6758 197.138 29.4228 197.196 29.172C197.205 28.723 197.273 28.2799 197.341 27.8371C197.418 27.3399 197.494 26.8432 197.487 26.339C197.486 25.8865 197.408 25.4432 197.33 24.9997C197.275 24.6832 197.219 24.3666 197.192 24.0466C196.723 22.3341 196.15 20.4934 194.756 19.3037C193.305 20.0684 192.309 21.4839 191.429 22.8355C190.561 24.413 190.113 26.1806 189.797 27.943C189.778 28.5251 189.781 29.1079 189.784 29.6908C189.786 30.059 189.788 30.4274 189.785 30.7957C189.774 31.2514 189.872 31.6912 189.97 32.1314C190.055 32.5123 190.139 32.8934 190.154 33.2853C190.172 33.5539 190.253 33.808 190.334 34.0624C190.422 34.337 190.51 34.6119 190.519 34.9055C190.075 34.4759 189.762 33.9472 189.449 33.4181C189.232 33.0512 189.015 32.6842 188.754 32.3499C188.33 31.6905 187.897 31.0373 187.464 30.3841C186.917 29.5575 186.369 28.7308 185.839 27.8915L185.9 27.4505C186.442 26.4729 186.742 25.3926 187.042 24.3175C187.12 24.0353 187.199 23.7535 187.282 23.474C187.303 23.1523 187.387 22.8416 187.471 22.5313C187.575 22.1486 187.678 21.7665 187.664 21.3648C187.658 20.9108 187.695 20.458 187.732 20.0054C187.787 19.3322 187.841 18.6594 187.755 17.984C187.712 17.6967 187.701 17.4047 187.69 17.1131C187.671 16.618 187.653 16.1241 187.477 15.6562C187.065 14.0237 186.487 12.3609 185.307 11.1177C185.212 11.0183 185.116 10.9143 185.02 10.8091C184.494 10.2369 183.936 9.62955 183.14 9.53493C182.522 11.1011 182.156 12.7429 181.792 14.3785C181.75 14.5686 181.708 14.7586 181.665 14.9484C181.56 16.6184 181.469 18.3416 181.965 19.9598C182.169 21.3714 182.725 22.6929 183.275 24.0005C183.343 24.1625 183.411 24.3242 183.478 24.4859C183.137 24.3814 182.923 24.1102 182.709 23.8394C182.606 23.7089 182.502 23.5785 182.385 23.4668C181.797 22.7358 181.192 22.0186 180.586 21.3014C179.804 20.3752 179.021 19.4489 178.277 18.4927C178.321 18.2344 178.421 17.9918 178.521 17.7485C178.638 17.4658 178.755 17.1823 178.784 16.8725C178.812 16.5585 178.895 16.2547 178.978 15.9515C179.083 15.5647 179.188 15.1789 179.18 14.7741C179.176 14.4394 179.222 14.1094 179.267 13.7797C179.311 13.4665 179.354 13.1537 179.355 12.8375L179.355 12.7951C179.369 10.8933 179.382 8.9523 178.835 7.11988C178.6 5.82164 177.968 4.63025 177.31 3.50086ZM38.2737 3.93388C39.0834 2.65155 40.0099 1.39423 41.313 0.579817C41.791 1.01098 41.8954 1.61039 42.0002 2.21195C42.0497 2.49606 42.0992 2.78065 42.1883 3.04822C42.335 3.48149 42.3584 3.934 42.3817 4.38725V4.38729C42.3972 4.68755 42.4127 4.98813 42.4641 5.28366C42.6133 6.35435 42.5202 7.42589 42.4272 8.49645L42.4272 8.49662C42.3902 8.92324 42.3531 9.3497 42.3315 9.7759C42.2923 9.97517 42.2374 10.1706 42.1825 10.3662C42.1183 10.5947 42.054 10.8232 42.015 11.0581C41.8289 12.2843 41.3015 13.408 40.7775 14.5244L40.7775 14.5244L40.7774 14.5245C40.6395 14.8183 40.5019 15.1116 40.3707 15.4062C41.3241 14.6104 42.1852 13.697 43.0421 12.788L43.0422 12.7879C43.1848 12.6366 43.3273 12.4854 43.4701 12.3349C44.6123 10.617 45.7828 8.90267 47.231 7.42299C48.9283 5.69261 50.8307 4.0174 53.1788 3.27225C54.0509 2.91986 54.9945 2.87107 55.926 2.82291L55.9261 2.8229C56.0615 2.8159 56.1967 2.80891 56.3314 2.801C57.6876 2.83829 59.0861 2.89877 60.3326 3.4981C59.9072 4.6688 59.1396 5.63205 58.3754 6.59096L58.3753 6.59113C58.2503 6.74793 58.1255 6.90463 58.0022 7.06209C56.2288 9.03788 54.2839 10.9762 51.8068 12.0238C51.3659 12.2663 50.8802 12.3612 50.394 12.4562C50.0711 12.5193 49.748 12.5824 49.4375 12.6889C49.1082 12.8021 48.7654 12.8214 48.4221 12.8407C48.1829 12.8542 47.9435 12.8677 47.7083 12.9129C47.191 13.0179 46.667 13.0149 46.1426 13.0119C45.6992 13.0093 45.2556 13.0067 44.8157 13.0695C44.1933 13.13 43.5214 13.2579 43.083 13.747C42.5013 14.3169 41.944 14.9108 41.3866 15.5048L41.3865 15.5049C40.8291 16.0989 40.2717 16.6929 39.69 17.2628C39.3274 17.6648 39.0039 18.1004 38.6856 18.5397C41.0267 16.9321 43.8202 16.203 46.5962 15.858C46.8735 15.8597 47.1512 15.8568 47.429 15.8539C48.0385 15.8476 48.6486 15.8413 49.2571 15.8829C50.852 16.1692 52.4363 16.58 53.8878 17.3198C52.7757 18.7763 51.218 19.8113 49.6214 20.6631C47.7366 21.5736 45.6679 22.0183 43.5886 22.1338C42.2887 22.2143 40.9928 22.064 39.703 21.9144C39.4822 21.8887 39.2615 21.8631 39.0411 21.8387C38.7395 21.7327 38.4287 21.6525 38.118 21.5724C37.5581 21.4279 36.9988 21.2836 36.495 20.9885C36.076 21.5706 35.6263 22.1294 35.1767 22.6882L35.1767 22.6882L35.1766 22.6883C34.541 23.4783 33.9054 24.2682 33.3566 25.1234C32.8261 25.7457 32.3487 26.4163 31.9828 27.1489C32.3761 26.9528 32.7522 26.7238 33.1281 26.4951L33.1282 26.4951C33.734 26.1264 34.339 25.7582 35.0133 25.5288C36.3412 24.9757 37.7503 24.6717 39.1577 24.4067C40.2859 24.3764 41.4157 24.3872 42.5454 24.4013C43.8433 24.677 45.0826 25.2034 46.2126 25.9023C45.1605 27.4993 43.4843 28.5218 41.8135 29.356C39.3187 30.4337 36.5374 30.4709 33.8658 30.3642C32.6034 30.2327 31.3568 29.9162 30.2041 29.3737C29.9478 29.7397 29.7042 30.1141 29.4608 30.4883C29.1648 30.9431 28.869 31.3977 28.5509 31.8368C28.3226 32.1989 28.1166 32.5738 27.9107 32.9487C27.6575 33.4097 27.4044 33.8705 27.1098 34.307C26.6767 35.1004 26.2893 35.9174 25.9022 36.7339C25.7678 37.0172 25.6335 37.3005 25.4973 37.5827C25.952 37.2309 26.3766 36.8418 26.8007 36.4533C26.9488 36.3176 27.0968 36.182 27.246 36.048C28.6463 34.8778 30.2412 33.9708 31.9279 33.2915C32.4366 33.0308 32.9861 32.8979 33.5365 32.7647L33.5366 32.7646C33.9026 32.6761 34.2691 32.5874 34.6242 32.461C36.1043 32.2333 37.6195 32.1978 39.0923 32.4842C39.3632 32.6018 39.6524 32.6747 39.9411 32.7475L39.9411 32.7475C40.4248 32.8694 40.9069 32.991 41.2989 33.3218C40.8535 34.1616 40.2432 34.8826 39.6333 35.6031C39.4297 35.8437 39.2261 36.0842 39.0287 36.329C37.9113 37.556 36.5657 38.5395 35.114 39.3273C33.6005 40.0226 31.9844 40.4566 30.3507 40.7394C30.147 40.7418 29.9431 40.7447 29.7391 40.7477L29.7378 40.7477C28.7085 40.7625 27.6768 40.7774 26.6501 40.7181C26.2987 40.6335 25.9446 40.5629 25.5905 40.4923C25.1323 40.4008 24.6743 40.3095 24.2225 40.1881C23.896 41.1809 23.5025 42.1502 23.1091 43.1196C22.5693 44.4495 22.0294 45.7794 21.6623 47.17C21.8558 47.0387 21.9927 46.8544 22.1298 46.67C22.1969 46.5797 22.264 46.4895 22.3377 46.4053C24.9227 43.6221 28.3653 41.609 32.1065 40.9404C32.4021 40.9471 32.7009 40.9377 33.0005 40.9282C33.8121 40.9025 34.6286 40.8766 35.397 41.1716C35.5416 41.2063 35.6865 41.2396 35.8315 41.2728L35.8316 41.2728C36.3018 41.3805 36.772 41.4882 37.2288 41.6499C37.0125 41.9682 36.8167 42.3005 36.621 42.6326L36.6209 42.6327C36.2535 43.2561 35.8863 43.8791 35.3845 44.4082C34.9233 45.1089 34.3332 45.6957 33.7428 46.2828L33.7428 46.2828C33.5885 46.4362 33.4342 46.5896 33.2823 46.745C31.0403 48.6852 28.1494 49.7895 25.2144 50.0013C24.8233 49.9942 24.4312 49.9989 24.0389 50.0035H24.0387C22.9448 50.0163 21.8501 50.0292 20.7765 49.7895C20.6702 50.1615 20.5556 50.5312 20.4409 50.9008L20.4409 50.9009C20.1225 51.9273 19.8043 52.9531 19.6678 54.0239C19.4422 54.6482 19.3592 55.303 19.2762 55.9568C19.2571 56.1077 19.2379 56.2585 19.217 56.4088C19.2045 56.8948 19.117 57.3738 19.0295 57.8522C18.9065 58.5256 18.7836 59.198 18.8704 59.8873C19.3619 59.202 19.8266 58.4961 20.2913 57.7901C21.1677 56.459 22.0444 55.1273 23.1015 53.9315C24.6751 52.0854 26.7526 50.597 29.1255 50.0296C30.8935 49.7203 32.6953 50.0048 34.4457 50.3125C33.2205 52.7275 31.7971 55.0803 29.8522 56.9832C28.6269 58.1054 27.2991 59.1546 25.7714 59.825C23.5524 60.796 21.116 61.1732 18.7024 61.1909C18.3728 63.1733 18.5559 65.2007 18.7357 67.1912L18.7431 67.273C18.8137 67.6653 18.8231 68.0646 18.8324 68.4632C18.8462 69.053 18.86 69.6414 19.0721 70.2037C19.3867 69.7734 19.6749 69.3199 19.8854 68.8291C21.3086 66.3269 22.8947 63.8656 25.0447 61.9253C26.4432 60.7606 28.1318 59.8731 29.9759 59.7824C30.5363 59.7789 31.0972 59.7802 31.6582 59.7815H31.6584C32.2196 59.7829 32.781 59.7842 33.3424 59.7806C33.1222 60.2341 32.9219 60.6983 32.7217 61.1628C32.3415 62.0442 31.9611 62.9262 31.4434 63.7357C30.2235 65.8591 28.6074 67.7638 26.673 69.2612C25.7254 70.0614 24.5604 70.5158 23.4149 70.9626C23.2823 71.0143 23.1501 71.0659 23.0184 71.1179C21.7789 71.3668 20.5165 71.5447 19.2507 71.5749C19.2723 71.72 19.2919 71.8654 19.3115 72.0107L19.3115 72.0109C19.3893 72.5886 19.467 73.1648 19.6732 73.716C19.8269 74.8703 20.1824 75.9765 20.5732 77.0683C20.7323 77.6855 20.9038 78.3007 21.2203 78.8609C21.6602 78.416 21.931 77.8658 22.2021 77.315C22.3297 77.0556 22.4575 76.7961 22.603 76.5473C23.883 73.8602 25.3082 71.0822 27.7463 69.2718C29.1397 68.308 30.821 67.9043 32.4655 67.6198C32.5414 67.618 32.6174 67.6163 32.6933 67.6146H32.6937C33.2791 67.6016 33.8652 67.5887 34.4457 67.5005C34.2534 68.502 33.875 69.4555 33.4982 70.4047C33.4106 70.6253 33.3231 70.8456 33.2381 71.0663C33.0408 71.4063 32.8588 71.756 32.6768 72.1058C32.28 72.8686 31.8832 73.6315 31.3268 74.2923C30.0006 76.2645 28.1689 77.9682 25.9358 78.8253C25.6685 78.888 25.4069 78.9739 25.1455 79.0597C24.6654 79.2174 24.1862 79.3747 23.6744 79.3874C22.9901 79.5776 22.297 79.7234 21.5987 79.8515C22.3879 82.1741 23.6078 84.3062 24.821 86.4264C24.9696 86.686 25.1181 86.9455 25.2657 87.2052C25.6001 86.8638 25.7366 86.4073 25.8722 85.9536L25.8722 85.9535C25.933 85.7501 25.9937 85.5472 26.0719 85.3556C26.2367 84.9652 26.3144 84.5512 26.392 84.1372C26.4668 83.7385 26.5416 83.3397 26.6943 82.962C27.2689 80.4437 28.6127 78.0659 30.6214 76.4282C31.9052 75.3131 33.6338 75.0668 35.2594 74.8352L35.4995 74.8008C35.0703 76.3762 34.5423 77.9244 34.015 79.4708C33.9232 79.74 33.8315 80.0091 33.7402 80.2783C33.2452 81.6868 32.4884 82.9939 31.622 84.2032C30.4888 85.6705 28.9204 86.7445 27.1912 87.374C26.8433 87.4835 26.5208 87.6503 26.1983 87.8171C26.0701 87.8834 25.9419 87.9498 25.8121 88.0125C27.0585 89.8656 28.3228 91.7133 29.7815 93.4064C29.8176 93.4515 29.8531 93.4979 29.8888 93.5444C30.0825 93.7972 30.2815 94.0568 30.5965 94.1604C30.6954 93.3664 30.7035 92.5659 30.7116 91.7652V91.7651C30.7169 91.2352 30.7223 90.7052 30.754 90.1768C30.982 87.5555 31.8783 84.872 33.8074 83.017C34.8824 81.9696 36.311 81.4076 37.7485 81.0821C37.8271 82.432 37.7194 83.7743 37.6117 85.1175L37.6117 85.118C37.5909 85.3779 37.57 85.6379 37.5505 85.898C37.0978 87.865 36.4472 89.8709 35.0593 91.3861C33.8374 92.688 32.3983 93.7567 30.9607 94.8006C31.6893 95.6853 32.4784 96.517 33.267 97.3482L33.2678 97.3491C33.5316 97.6271 33.7953 97.9051 34.0567 98.185C34.4466 98.5437 34.8265 98.9148 35.2065 99.286C35.9794 100.041 36.753 100.797 37.6125 101.45C37.1191 100.253 36.7196 99.003 36.6594 97.7012C36.1996 95.4906 36.3199 93.1735 36.9741 91.0181C37.0065 90.9534 37.0388 90.8885 37.0713 90.8233C37.4796 90.0031 37.902 89.1546 38.6309 88.5763C39.3539 88.0019 40.1391 87.4078 41.0867 87.3048C41.6114 88.025 41.8392 88.8695 42.067 89.7134C42.1462 90.0072 42.2255 90.301 42.3173 90.5894C42.6744 92.6061 42.6197 94.6886 42.312 96.7088C42.1869 97.063 42.0872 97.4243 41.9874 97.786L41.9874 97.7861L41.9873 97.7863C41.9208 98.0275 41.8542 98.2689 41.7799 98.5086C41.3573 99.4067 40.8781 100.287 40.261 101.068C39.9115 101.434 39.5356 101.775 39.1599 102.115L39.1597 102.116L39.1589 102.116C38.9933 102.266 38.8277 102.416 38.6645 102.569C40.6765 104.438 42.8779 106.116 45.2312 107.525C44.7693 106.39 44.4808 105.197 44.1929 104.006L44.1928 104.006C44.1248 103.724 44.0567 103.443 43.9864 103.163C43.8909 101.626 43.8874 100.081 43.9617 98.5424C44.3011 96.8707 44.9429 95.0851 46.4317 94.1141C46.5516 94.0612 46.6706 94.003 46.7899 93.9447L46.7901 93.9446C47.2075 93.7407 47.6283 93.535 48.1026 93.5433C48.9283 95.1582 49.3827 96.9436 49.6019 98.7379C49.5964 99.1662 49.6044 99.5985 49.6124 100.032C49.6401 101.531 49.668 103.046 49.1387 104.461C48.7338 105.956 47.8568 107.319 46.7394 108.38C48.1026 109.362 49.6071 110.1 51.1096 110.836C51.5598 111.057 52.0098 111.278 52.4557 111.505L52.7769 111.641C55.6295 112.848 58.4819 114.054 61.3705 115.165C61.2965 115.469 61.1792 115.758 61.062 116.047C60.9018 116.442 60.7416 116.837 60.6916 117.269C60.0867 117.395 59.5498 117.136 59.0166 116.878C58.8001 116.774 58.5842 116.669 58.3647 116.591C54.1937 115.152 50.2191 113.207 46.2974 111.188C46.0414 111.448 45.7984 111.722 45.5553 111.995L45.5551 111.996C45.0108 112.609 44.466 113.223 43.7742 113.673C42.4655 114.707 40.8459 115.15 39.2625 115.583C39.0511 115.641 38.8402 115.698 38.6309 115.757C35.374 116.108 31.8854 116.284 28.8779 114.747C29.0796 113.776 29.5145 112.842 30.2341 112.152C31.9439 110.417 34.4104 109.643 36.7884 109.526C37.8146 109.365 38.8448 109.45 39.8731 109.535C40.2284 109.564 40.5836 109.594 40.9382 109.613C41.1999 109.662 41.4648 109.692 41.7295 109.722L41.7297 109.722C42.1716 109.772 42.6131 109.821 43.0387 109.961C43.3729 110.072 43.723 110.121 44.0765 110.113C43.6824 109.761 43.2403 109.469 42.798 109.178L42.7979 109.177C42.4705 108.961 42.143 108.745 41.8346 108.505C40.319 107.544 38.9327 106.403 37.5487 105.263C37.3472 105.098 37.1458 104.932 36.9441 104.767C36.6046 105.323 36.1379 105.782 35.6728 106.234C34.6832 107.226 33.3013 107.626 31.9924 108.004L31.836 108.05C29.4898 108.498 27.0709 108.393 24.7158 108.083C24.3781 107.991 24.0343 107.906 23.689 107.821C22.342 107.49 20.972 107.153 19.8518 106.314C20.2655 104.831 21.459 103.694 22.8433 103.104C25.7607 101.871 29.0423 102.089 32.0905 102.645C33.3353 102.972 34.5588 103.369 35.7824 103.771C35.2037 103.099 34.5529 102.499 33.9021 101.899C33.318 101.361 32.7339 100.822 32.2021 100.232C31.8796 99.9494 31.584 99.6376 31.2885 99.3262C30.881 98.8965 30.4739 98.4672 29.9972 98.1156C29.6417 98.3301 29.2953 98.5598 28.9488 98.7895C28.5629 99.0453 28.1769 99.3012 27.7781 99.5364C26.8516 99.9384 25.8828 100.307 24.8607 100.331C24.5411 100.328 24.2195 100.332 23.8971 100.335H23.897C22.4741 100.349 21.0369 100.364 19.689 99.8459C18.9057 99.7022 18.1828 99.3833 17.4592 99.0641L17.4589 99.064C17.1259 98.9171 16.7927 98.7702 16.4534 98.6402C14.6641 97.8488 13.0604 96.6697 11.6724 95.2914C11.8775 94.8114 12.1994 94.3845 12.6078 94.0608C13.651 93.2712 14.8251 92.59 16.144 92.4389C17.4949 92.0406 18.9217 92.1597 20.2762 92.4656C21.0851 92.5123 21.8415 92.7703 22.5982 93.0284L22.5982 93.0285L22.5983 93.0285C22.852 93.115 23.1057 93.2016 23.3614 93.2802C23.6582 93.4324 23.959 93.5783 24.26 93.7244L24.2601 93.7244C25.1408 94.1518 26.023 94.5799 26.8111 95.167C27.0666 95.3421 27.343 95.4834 27.6195 95.6248C27.7389 95.6858 27.8583 95.7469 27.9761 95.8107C25.7909 93.3282 23.929 90.5876 22.0954 87.84C20.1594 89.1347 17.7955 89.8389 15.4669 89.638C15.137 89.5943 14.8118 89.5255 14.4867 89.4566C14.0694 89.3683 13.6522 89.2799 13.2248 89.2449C12.8442 89.1025 12.4469 89.0184 12.0499 88.9344C11.56 88.8308 11.0705 88.7272 10.6133 88.514C9.56516 88.2236 8.60734 87.6988 7.65599 87.1776C7.47125 87.0764 7.28675 86.9753 7.10188 86.8761C5.79351 86.0562 4.51875 85.1441 3.52504 83.9436C3.85507 83.1927 4.57123 82.7688 5.24867 82.3678C5.31889 82.3262 5.38869 82.2849 5.4576 82.2435C7.62179 81.0129 10.2792 80.8172 12.6502 81.4947C15.7338 82.2256 18.4886 83.9454 20.9391 85.9194C20.6841 85.2154 20.3852 84.5294 20.0863 83.8434L20.0863 83.8433C19.7698 83.1169 19.4533 82.3904 19.1887 81.6423C19.1062 81.456 19.0198 81.2711 18.9334 81.086C18.6642 80.5099 18.3948 79.9332 18.241 79.3126C17.742 79.6589 17.1574 79.7053 16.5746 79.7516C16.3851 79.7667 16.1958 79.7817 16.0097 79.8071C15.4178 79.8639 14.829 79.8109 14.24 79.7579L14.2397 79.7579C13.8347 79.7215 13.4296 79.685 13.0233 79.6843C10.2969 79.0049 7.59693 77.9486 5.4133 76.1223C4.71117 75.5795 4.10735 74.9343 3.50373 74.2892L3.50367 74.2891C3.3656 74.1416 3.22754 73.994 3.08831 73.8477C2.78486 73.4695 2.49414 73.0806 2.20341 72.6916L2.20337 72.6915C1.83514 72.1989 1.46689 71.7062 1.07271 71.2352C1.03548 71.1427 0.962998 70.9578 0.927734 70.8653C1.65744 70.513 2.44453 70.3435 3.23129 70.1741C3.49675 70.1169 3.76218 70.0598 4.02536 69.9956C5.18931 69.7566 6.33926 70.0192 7.47504 70.2786L7.47596 70.2788C7.73392 70.3377 7.99115 70.3965 8.24765 70.4491C9.93443 71.045 11.5805 71.8292 12.9685 72.9798C14.0978 73.8323 15.0741 74.8527 16.0504 75.873L16.0506 75.8731C16.6242 76.4726 17.1978 77.0721 17.8024 77.6374C17.6923 76.8281 17.5254 76.028 17.3584 75.2276C17.1313 74.139 16.904 73.0499 16.8194 71.9359C13.1683 70.9489 9.63212 69.1437 7.10716 66.2521C5.41691 64.2817 4.09619 61.9574 3.48254 59.4196C3.42301 59.1656 3.35248 58.9122 3.28183 58.6584C3.07344 57.9097 2.86399 57.1572 2.93264 56.375C3.55681 56.2553 4.17179 56.3656 4.78716 56.4759H4.78719C5.10441 56.5328 5.42173 56.5897 5.74047 56.6151C7.09661 56.976 8.48108 57.3656 9.64086 58.1908C11.8352 59.5405 13.4795 61.6959 14.3829 64.102C14.7789 64.949 15.0584 65.8419 15.3378 66.7343C15.6686 67.7907 15.9991 68.8465 16.5224 69.8249C16.3494 68.4263 16.3574 67.0183 16.3654 65.6104C16.3683 65.0902 16.3712 64.5701 16.3651 64.0505C16.3534 63.4975 16.4061 62.9481 16.4587 62.3988C16.5175 61.7858 16.5762 61.1731 16.5455 60.5559C12.8978 59.0497 10.2296 55.7987 8.63841 52.2491C8.56579 52.0319 8.48626 51.8166 8.40672 51.6013C8.188 51.0091 7.96922 50.4168 7.89396 49.7842C7.86199 49.5005 7.78807 49.224 7.71429 48.948C7.60444 48.5371 7.49487 48.1273 7.52444 47.6964C7.54948 47.1742 7.47372 46.6597 7.39808 46.1459L7.39805 46.1458C7.37762 46.007 7.35721 45.8684 7.33878 45.7296C7.32833 44.9998 7.39109 44.2711 7.45382 43.5426C7.4761 43.284 7.49837 43.0254 7.51736 42.7667C8.36263 42.7987 9.11221 43.1758 9.83722 43.5759C12.6307 44.8368 14.8498 47.3283 15.7409 50.2769C16.1988 51.472 16.5064 52.7222 16.5983 54.0026C16.8354 54.8563 16.9486 55.733 16.9468 56.6186C17.4471 55.3026 17.7494 53.9262 18.0359 52.5497C18.2052 52.1071 18.2977 51.6431 18.3901 51.1797C18.5022 50.617 18.6142 50.0552 18.8634 49.5335C18.6767 49.3787 18.4808 49.2335 18.2848 49.0882C17.8235 48.7463 17.3617 48.404 17.0193 47.9347C15.0089 45.4468 13.4618 42.4804 13.0711 39.2722C12.7988 38.0167 12.7917 36.7256 12.8518 35.4487C12.8743 35.0389 12.9489 34.6363 13.0237 34.2337C13.102 33.8116 13.1803 33.3895 13.1984 32.9589C13.2216 32.6741 13.3057 32.4034 13.3898 32.1325C13.4727 31.8654 13.5557 31.5983 13.5803 31.3175C16.8389 32.4094 19.3442 35.3988 19.9083 38.7991C19.9443 39.0418 20.0047 39.28 20.065 39.5181C20.1528 39.8646 20.2405 40.2109 20.2531 40.5704C20.2655 41.2232 20.2613 41.876 20.2571 42.5287C20.2512 43.4552 20.2453 44.3816 20.2867 45.3081C21.3906 43.011 22.431 40.6826 23.4714 38.3544L23.7646 37.6984C22.4845 36.8429 21.2539 35.8222 20.5218 34.4349C19.5236 33.0243 19.125 31.311 18.7381 29.6483C18.7138 29.5441 18.6896 29.4401 18.6653 29.3364C18.424 28.3861 18.4423 27.3927 18.4604 26.4127L18.4604 26.4125C18.464 26.2151 18.4676 26.0182 18.4691 25.8223C18.4042 24.4602 18.8734 23.1595 19.328 21.8992L19.339 21.8689C19.6961 20.969 20.2602 20.1759 20.8649 19.4272C21.2285 19.3003 21.5619 19.5639 21.8659 19.8043L21.8659 19.8044C21.9581 19.8773 22.0476 19.948 22.1344 20.0051C23.6585 21.4083 24.7883 23.2453 25.4159 25.2211C25.4681 25.5691 25.5617 25.9092 25.6552 26.2489C25.8059 26.7964 25.9563 27.3428 25.9322 27.919C26.049 28.9522 26.0861 29.9926 25.9393 31.0259C25.9747 31.7463 25.8151 32.4382 25.6551 33.1317C25.5269 33.688 25.3983 34.2453 25.37 34.8192C26.0753 33.9481 26.6773 33.0033 27.2792 32.0587C27.5645 31.611 27.8498 31.1633 28.146 30.7235C28.3734 30.3099 28.6485 29.9227 28.9235 29.5358C29.3177 28.9811 29.7115 28.4269 29.9636 27.7962C29.7785 27.1975 29.5615 26.6032 29.3443 26.0078C28.7355 24.3399 28.1238 22.664 28.2007 20.8606C28.0292 18.9683 28.047 17.0477 28.4323 15.184C28.832 13.9088 29.3252 12.6373 30.1403 11.5702C30.3238 11.3666 30.51 11.1656 30.6962 10.9647L30.6963 10.9646C30.9084 10.7357 31.1205 10.5068 31.3286 10.2738C31.6318 10.0487 31.9499 9.8446 32.268 9.64048L32.268 9.64046C32.3747 9.57204 32.4813 9.50362 32.5874 9.4344C33.8198 11.789 34.2088 14.4761 34.2282 17.1099C34.2366 17.5666 34.1793 18.0178 34.122 18.4693C34.0825 18.7807 34.0429 19.0922 34.0249 19.4058C33.7833 21.0678 33.1882 22.6429 32.5977 24.206C32.5399 24.359 32.4821 24.5118 32.4248 24.6645C33.4074 23.6073 34.318 22.486 35.2285 21.3648C36.0121 20.3999 36.7956 19.4351 37.6248 18.5113C37.4174 18.0898 37.2947 17.6408 37.1719 17.1914L37.1719 17.1914L37.1719 17.1914C37.0947 16.9089 37.0175 16.6264 36.9192 16.3505C36.8917 16.1609 36.8637 15.9709 36.8355 15.7806C36.5165 13.622 36.1914 11.4222 36.64 9.25827C36.7141 7.37146 37.4197 5.58772 38.2737 3.93388ZM162.409 48.1723L162.409 54.6981C162.161 54.3234 161.859 54.0206 161.502 53.7895C161.02 53.4692 160.459 53.309 159.822 53.309C159.207 53.309 158.625 53.4636 158.077 53.773C157.527 54.0824 157.076 54.5296 156.725 55.1152C156.384 55.7006 156.214 56.4242 156.214 57.2857C156.214 58.1364 156.384 58.86 156.725 59.4565C157.076 60.042 157.527 60.4893 158.077 60.7987C158.625 61.108 159.207 61.2626 159.822 61.2626C160.459 61.2626 161.02 61.1024 161.502 60.7821C161.859 60.551 162.161 60.2482 162.409 59.8735L162.409 61.097L164.896 61.097L164.896 48.1723L162.409 48.1723ZM162.146 56.2418C162.32 56.5291 162.409 56.8771 162.409 57.2857C162.409 57.6945 162.32 58.048 162.146 58.3463C161.969 58.6335 161.745 58.8544 161.47 59.0092C161.207 59.1638 160.931 59.2411 160.646 59.2411C160.316 59.2411 160.015 59.1638 159.74 59.0092C159.466 58.8433 159.246 58.6169 159.08 58.3298C158.916 58.0315 158.835 57.6835 158.835 57.2857C158.835 56.8882 158.916 56.5457 159.08 56.2585C159.246 55.9602 159.466 55.7338 159.74 55.5792C160.015 55.4133 160.316 55.3306 160.646 55.3306C160.931 55.3306 161.207 55.4079 161.47 55.5625C161.745 55.7172 161.969 55.9437 162.146 56.2418ZM117.362 61.0982L118.437 58.8612L122.114 58.8612L123.194 61.0982L126.357 61.0982L120.278 48.7701L114.215 61.0982L117.362 61.0982ZM118.999 56.7237L121.564 56.7237L120.278 53.7577L118.999 56.7237ZM52.7471 60.0205L49.6005 55.1821L48.9086 61.0976L45.9761 61.0976L47.8377 48.9187L52.7471 55.994L57.673 48.9187L59.5346 61.0976L56.6021 61.0976L55.9101 55.1821L52.7471 60.0205ZM106.651 167.472L100.379 156.183L98.9488 169.27L96.6106 169.27L98.9488 148.934L106.651 162.961L114.353 148.934L116.692 169.27L114.353 169.27L112.923 156.183L106.651 167.472ZM44.6042 167.195L44.6042 159.779L47.4925 159.779C48.1161 159.779 48.6845 159.863 49.1979 160.028C49.7115 160.177 50.1516 160.407 50.5184 160.721C50.9036 161.035 51.197 161.421 51.3986 161.882C51.6004 162.344 51.7012 162.869 51.7012 163.46C51.7012 164.252 51.5178 164.925 51.1512 165.479C50.8026 166.032 50.3075 166.456 49.6657 166.752C49.0421 167.048 48.3177 167.195 47.4925 167.195L44.6042 167.195ZM50.0783 158.784C49.9645 158.754 49.8491 158.727 49.7321 158.702C49.8987 158.652 50.0599 158.596 50.2158 158.535C51.0778 158.203 51.7472 157.714 52.2238 157.068C52.7007 156.422 52.9391 155.648 52.9391 154.744C52.9391 153.638 52.7007 152.734 52.2238 152.032C51.7472 151.314 51.0778 150.779 50.2158 150.427C49.3722 150.077 48.3727 149.903 47.2175 149.903L42.2659 149.903L42.2659 169.27L47.4925 169.27C48.7395 169.27 49.849 169.067 50.821 168.662C51.8112 168.237 52.5906 167.61 53.1592 166.779C53.7461 165.932 54.0395 164.871 54.0395 163.598C54.0395 162.712 53.8745 161.947 53.5443 161.301C53.2142 160.656 52.7466 160.13 52.1414 159.725C51.5546 159.301 50.8668 158.987 50.0783 158.784ZM47.2175 157.732L44.6042 157.732L44.6042 151.978L47.2175 151.978C48.1893 151.978 48.9963 152.236 49.6381 152.752C50.28 153.25 50.601 153.96 50.601 154.882C50.601 155.491 50.4542 156.008 50.1608 156.431C49.8674 156.856 49.4639 157.178 48.9505 157.4C48.4369 157.621 47.8593 157.732 47.2175 157.732ZM62.3665 169.548C63.7235 169.548 64.8972 169.28 65.8876 168.745C66.8962 168.192 67.7306 167.381 68.3908 166.311L66.6028 165.177C66.1442 165.951 65.585 166.532 64.9247 166.92C64.2645 167.288 63.5035 167.473 62.6415 167.473C61.7797 167.473 61.0461 167.288 60.4408 166.92C59.8356 166.55 59.3772 166.015 59.0654 165.315C58.8285 164.781 58.6816 164.164 58.6247 163.461L68.5833 163.461L68.5833 163.213C68.6017 163.064 68.6108 162.926 68.6108 162.797C68.6108 161.45 68.3724 160.289 67.8956 159.311C67.4188 158.333 66.731 157.586 65.8326 157.069C64.9522 156.534 63.8885 156.267 62.6415 156.267C61.3945 156.267 60.2942 156.543 59.3406 157.098C58.4053 157.651 57.6717 158.426 57.1399 159.422C56.6263 160.417 56.3697 161.58 56.3697 162.908C56.3697 164.217 56.6173 165.369 57.1123 166.367C57.6259 167.363 58.332 168.146 59.2306 168.718C60.1474 169.271 61.1928 169.548 62.3665 169.548ZM59.093 160.307C58.9172 160.681 58.788 161.106 58.7055 161.58L66.2053 161.58C66.1631 160.974 66.0113 160.439 65.75 159.975C65.4566 159.422 65.044 158.988 64.5121 158.674C63.9803 158.361 63.3567 158.204 62.6415 158.204C61.7979 158.204 61.0736 158.388 60.4684 158.758C59.8816 159.108 59.423 159.625 59.093 160.307ZM70.4155 166.449L72.1485 165.369C72.4053 165.757 72.6987 166.117 73.0288 166.449C73.359 166.781 73.7348 167.049 74.1566 167.252C74.5968 167.435 75.0736 167.528 75.587 167.528C76.2106 167.528 76.6966 167.39 77.0451 167.113C77.4119 166.818 77.5951 166.421 77.5951 165.923C77.5951 165.48 77.4485 165.112 77.1551 164.816C76.8799 164.502 76.5223 164.245 76.0822 164.042C75.6421 163.82 75.1744 163.617 74.6792 163.434C74.1292 163.213 73.5698 162.953 73.0013 162.659C72.4511 162.346 71.9835 161.948 71.5983 161.469C71.2315 160.971 71.0483 160.352 71.0483 159.616C71.0483 158.859 71.2407 158.232 71.6259 157.733C72.0293 157.236 72.5428 156.866 73.1664 156.627C73.8082 156.387 74.4684 156.267 75.147 156.267C75.8255 156.267 76.4582 156.378 77.0451 156.599C77.6501 156.821 78.1821 157.116 78.6405 157.484C79.0989 157.853 79.4566 158.277 79.7133 158.758L77.9527 159.891C77.6043 159.413 77.1643 159.015 76.6324 158.702C76.1189 158.388 75.532 158.232 74.8718 158.232C74.4134 158.232 74.0192 158.333 73.689 158.536C73.359 158.74 73.1938 159.052 73.1938 159.476C73.1938 159.808 73.3222 160.104 73.579 160.361C73.8358 160.621 74.1658 160.851 74.5692 161.054C74.9728 161.257 75.3945 161.45 75.8346 161.635C76.5682 161.93 77.2375 162.253 77.8427 162.603C78.4479 162.935 78.9247 163.341 79.2732 163.82C79.64 164.301 79.8234 164.918 79.8234 165.674C79.8234 166.781 79.4199 167.704 78.6129 168.442C77.8245 169.179 76.7791 169.548 75.477 169.548C74.6334 169.548 73.8724 169.4 73.1938 169.106C72.5153 168.792 71.9377 168.395 71.4609 167.916C71.0023 167.435 70.6539 166.947 70.4155 166.449ZM80.7946 156.543L80.7946 158.618L82.8578 158.618L82.8578 169.27L85.0584 169.27L85.0584 158.618L87.1215 158.618L87.1215 156.543L85.0584 156.543L85.0584 152.117L82.8578 152.117L82.8578 156.543L80.7946 156.543ZM126.862 164.898L120.535 149.903L117.922 149.903L126.862 170.238L135.803 149.903L133.188 149.903L126.862 164.898ZM152.72 164.318L152.72 149.903L155.059 149.903L155.059 170.238L140.48 154.855L140.48 169.27L138.141 169.27L138.141 148.934L152.72 164.318ZM161.812 169.27L170.478 169.27L170.478 167.057L161.812 167.057L161.812 159.863L169.928 159.863L169.928 157.65L161.812 157.65L161.812 152.116L170.478 152.116L170.478 149.903L161.812 149.903L160.768 149.903L159.475 149.903L159.475 169.27L160.768 169.27L161.812 169.27ZM66.2701 180.803L71.9918 196.02L76.9983 181.772L79.6116 181.772L72.0468 202.107L66.2701 187.056L60.4934 202.107L52.9286 181.772L55.5419 181.772L60.6585 196.02L66.2701 180.803ZM82.0927 181.771L82.0927 201.138L84.431 201.138L84.431 181.771L82.0927 181.771ZM103.411 196.187L103.411 181.772L105.75 181.772L105.75 202.107L91.1702 186.724L91.1702 201.139L88.832 201.139L88.832 180.803L103.411 196.187ZM124.745 181.772L124.745 196.187L110.166 180.803L110.166 201.139L112.504 201.139L112.504 186.724L127.083 202.107L127.083 181.772L124.745 181.772ZM142.499 201.138L133.834 201.138L132.788 201.138L131.495 201.138L131.495 181.771L132.788 181.771L133.834 181.771L142.499 181.771L142.499 183.984L133.834 183.984L133.834 189.518L141.948 189.518L141.948 191.731L133.834 191.731L133.834 198.925L142.499 198.925L142.499 201.138ZM156.657 201.138L151.298 193.391L148.954 193.391L148.954 201.138L146.616 201.138L146.616 181.771L147.909 181.771L148.954 181.771L151.842 181.771C153.09 181.771 154.199 182.011 155.171 182.49C156.161 182.952 156.94 183.616 157.51 184.483C158.096 185.35 158.39 186.382 158.39 187.581C158.39 188.762 158.096 189.794 157.51 190.679C156.94 191.547 156.161 192.221 155.171 192.7C154.743 192.903 154.288 193.061 153.807 193.175L159.544 201.138L156.657 201.138ZM148.954 191.316L148.954 183.846L151.842 183.846C152.668 183.846 153.393 183.994 154.015 184.289C154.657 184.585 155.153 185.008 155.501 185.562C155.867 186.116 156.051 186.789 156.051 187.581C156.051 188.374 155.867 189.047 155.501 189.602C155.153 190.155 154.657 190.579 154.015 190.874C153.393 191.169 152.668 191.316 151.842 191.316L148.954 191.316ZM66.6269 56.4251L63.8097 49.4989L60.5644 49.4989L66.6269 61.827L72.7058 49.4989L69.4439 49.4989L66.6269 56.4251ZM82.3663 56.0271L82.3663 49.4986L85.0516 49.4986L85.0516 61.6775L77.0781 54.5689L77.0781 61.0976L74.4094 61.0976L74.4094 48.9187L82.3663 56.0271ZM90.2715 55.2969C90.2715 54.612 90.4034 54.01 90.6669 53.4908C90.9415 52.9605 91.3204 52.5462 91.8037 52.2481C92.298 51.9498 92.8745 51.8006 93.5334 51.8006C94.2034 51.8006 94.78 51.9498 95.2633 52.2481C95.7466 52.5462 96.1199 52.9605 96.3836 53.4908C96.6471 54.01 96.7789 54.612 96.7789 55.2969C96.7789 55.9818 96.6416 56.5893 96.367 57.1196C96.1034 57.6389 95.7246 58.0475 95.2303 58.3458C94.7471 58.6441 94.1814 58.7931 93.5334 58.7931C92.8745 58.7931 92.298 58.6441 91.8037 58.3458C91.3204 58.0475 90.9415 57.6389 90.6669 57.1196C90.4034 56.5893 90.2715 55.9818 90.2715 55.2969ZM87.3226 55.2969C87.3226 56.1916 87.4709 57.0147 87.7675 57.7659C88.0751 58.5169 88.5034 59.1687 89.0525 59.721C89.6127 60.2734 90.2715 60.7043 91.0294 61.0135C91.7872 61.3118 92.6218 61.461 93.5334 61.461C94.4341 61.461 95.2633 61.3118 96.0211 61.0135C96.7789 60.7043 97.4323 60.2734 97.9814 59.721C98.5416 59.1687 98.97 58.5169 99.2664 57.7659C99.574 57.0147 99.7277 56.1916 99.7277 55.2969C99.7277 54.4021 99.574 53.5847 99.2664 52.8445C98.959 52.1044 98.5252 51.4637 97.965 50.9224C97.4049 50.3811 96.746 49.9669 95.9881 49.6796C95.2413 49.3815 94.4231 49.2323 93.5334 49.2323C92.6548 49.2323 91.8367 49.3815 91.0788 49.6796C90.3209 49.9669 89.6621 50.3811 89.1019 50.9224C88.5418 51.4637 88.1025 52.1044 87.7839 52.8445C87.4765 53.5847 87.3226 54.4021 87.3226 55.2969ZM101.134 59.9861L102.172 58.3293C102.557 58.6495 102.903 58.9036 103.21 59.0914C103.529 59.2681 103.809 59.3951 104.05 59.4726C104.292 59.5388 104.501 59.5719 104.676 59.5719C104.929 59.5719 105.116 59.5167 105.236 59.4062C105.357 59.2957 105.418 59.1522 105.418 58.9754C105.418 58.8098 105.368 58.6717 105.27 58.5612C105.171 58.4396 105 58.3237 104.759 58.2132C104.528 58.1028 104.21 57.9867 103.803 57.8653C103.441 57.7327 103.095 57.5781 102.765 57.4013C102.447 57.2135 102.183 56.9649 101.975 56.6556C101.766 56.3464 101.662 55.9486 101.662 55.4625C101.662 54.9986 101.782 54.6064 102.024 54.2861C102.277 53.9657 102.612 53.7227 103.029 53.5571C103.457 53.3914 103.946 53.3085 104.495 53.3085C104.934 53.3085 105.341 53.3582 105.714 53.4576C106.099 53.5571 106.456 53.6895 106.785 53.8554C107.126 54.021 107.444 54.2143 107.741 54.4353L106.851 56.0591C106.533 55.7608 106.17 55.5178 105.764 55.33C105.357 55.1312 104.984 55.0317 104.643 55.0317C104.413 55.0317 104.237 55.076 104.116 55.1644C104.006 55.2527 103.951 55.3687 103.951 55.5122C103.951 55.6781 104.017 55.8161 104.149 55.9265C104.292 56.037 104.49 56.1419 104.742 56.2413C105.006 56.3297 105.324 56.4458 105.698 56.5893C106.093 56.733 106.456 56.8987 106.785 57.0865C107.126 57.2743 107.395 57.5117 107.592 57.7989C107.801 58.0861 107.905 58.4674 107.905 58.9422C107.905 59.7597 107.653 60.3784 107.148 60.7981C106.653 61.2069 105.956 61.4113 105.055 61.4113C104.506 61.4113 103.995 61.345 103.523 61.2124C103.062 61.0908 102.634 60.9252 102.238 60.7152C101.843 60.4944 101.475 60.2512 101.134 59.9861ZM129.807 61.5766L125.903 53.4738L128.506 53.4738L130.087 57.3843L132.262 52.8939L134.486 57.3843L136.067 53.4738L138.671 53.4738L134.767 61.5766L132.262 57.0364L129.807 61.5766ZM141.945 58.7098C141.945 58.522 141.988 58.3674 142.077 58.2459C142.165 58.1132 142.296 58.0138 142.472 57.9476C142.648 57.8813 142.884 57.8481 143.18 57.8481C143.565 57.8481 143.928 57.9035 144.268 58.0138C144.399 58.0509 144.524 58.0949 144.643 58.1458C144.626 58.4422 144.55 58.6964 144.416 58.9087C144.262 59.1517 144.065 59.334 143.822 59.4554C143.581 59.577 143.318 59.6378 143.033 59.6378C142.835 59.6378 142.653 59.6046 142.489 59.5384C142.324 59.461 142.192 59.356 142.094 59.2235C141.994 59.0798 141.945 58.9087 141.945 58.7098ZM144.516 60.2508C144.564 60.188 144.607 60.1228 144.647 60.0552L144.647 61.0959L147.035 61.0959L147.035 55.7273C147.035 55.1969 146.882 54.7496 146.574 54.3851C146.267 54.0205 145.849 53.7444 145.322 53.5566C144.794 53.3577 144.196 53.2583 143.527 53.2583C142.813 53.2583 142.154 53.3523 141.55 53.5399C140.946 53.7277 140.429 53.9266 140.001 54.1365L140.842 55.81C140.952 55.7438 141.126 55.6609 141.369 55.5615C141.61 55.4511 141.89 55.3571 142.208 55.2798C142.538 55.2025 142.873 55.1639 143.214 55.1639C143.444 55.1639 143.648 55.1859 143.822 55.2301C144.009 55.2742 144.163 55.3461 144.285 55.4455C144.406 55.5449 144.493 55.6665 144.547 55.81C144.614 55.9427 144.647 56.1027 144.647 56.2905L144.647 56.9623C144.63 56.9538 144.614 56.9453 144.597 56.9369C144.333 56.8042 144.015 56.6937 143.642 56.6054C143.28 56.517 142.867 56.4729 142.406 56.4729C141.462 56.4729 140.732 56.6883 140.215 57.1191C139.699 57.5389 139.442 58.1132 139.442 58.8423C139.442 59.3616 139.562 59.8035 139.803 60.168C140.056 60.5325 140.385 60.8087 140.792 60.9965C141.209 61.1732 141.66 61.2616 142.142 61.2616C142.626 61.2616 143.076 61.1787 143.494 61.013C143.911 60.8363 144.252 60.5823 144.516 60.2508ZM149.388 53.4762L151.843 53.4762L151.843 54.4189C152.04 54.135 152.27 53.8981 152.535 53.7082C152.919 53.4321 153.32 53.294 153.737 53.294C154.011 53.294 154.275 53.3492 154.528 53.4597C154.78 53.5702 154.973 53.7248 155.104 53.9236L154.034 56.0612C153.901 55.9285 153.76 55.8236 153.606 55.7463C153.463 55.669 153.282 55.6304 153.062 55.6304C152.821 55.6304 152.605 55.6966 152.42 55.8291C152.233 55.9617 152.09 56.155 151.99 56.4092C151.893 56.6632 151.843 56.9724 151.843 57.337L151.843 61.0985L149.388 61.0985L149.388 53.4762ZM166.695 59.9861L167.733 58.3293C168.117 58.6495 168.462 58.9036 168.77 59.0914C169.089 59.2681 169.37 59.3951 169.611 59.4726C169.852 59.5388 170.061 59.5719 170.236 59.5719C170.489 59.5719 170.676 59.5167 170.797 59.4062C170.917 59.2957 170.977 59.1522 170.977 58.9754C170.977 58.8098 170.929 58.6717 170.83 58.5612C170.73 58.4396 170.56 58.3237 170.319 58.2132C170.088 58.1028 169.77 57.9867 169.363 57.8653C169.002 57.7327 168.655 57.5781 168.325 57.4013C168.007 57.2135 167.743 56.9649 167.536 56.6556C167.326 56.3464 167.222 55.9486 167.222 55.4625C167.222 54.9986 167.343 54.6064 167.584 54.2861C167.837 53.9657 168.171 53.7227 168.589 53.5571C169.017 53.3914 169.507 53.3085 170.055 53.3085C170.495 53.3085 170.901 53.3582 171.274 53.4576C171.659 53.5571 172.016 53.6895 172.346 53.8554C172.686 54.021 173.004 54.2143 173.301 54.4353L172.411 56.0591C172.093 55.7608 171.731 55.5178 171.324 55.33C170.917 55.1312 170.543 55.0317 170.204 55.0317C169.972 55.0317 169.798 55.076 169.677 55.1644C169.567 55.2527 169.511 55.3687 169.511 55.5122C169.511 55.6781 169.577 55.8161 169.71 55.9265C169.852 56.037 170.051 56.1419 170.302 56.2413C170.566 56.3297 170.884 56.4458 171.258 56.5893C171.654 56.733 172.016 56.8987 172.346 57.0865C172.686 57.2743 172.955 57.5117 173.152 57.7989C173.362 58.0861 173.466 58.4674 173.466 58.9422C173.466 59.7597 173.212 60.3784 172.708 60.7981C172.213 61.2069 171.515 61.4113 170.616 61.4113C170.066 61.4113 169.556 61.345 169.083 61.2124C168.622 61.0908 168.194 60.9252 167.798 60.7152C167.403 60.4944 167.035 60.2512 166.695 59.9861ZM88.6663 77.0321L98.4356 77.0321L98.4356 74.4637L93.8228 74.4637L96.5081 72.0445C97.0023 71.6137 97.4031 71.1387 97.7107 70.6194C98.0183 70.0892 98.172 69.5093 98.172 68.8796C98.172 68.4378 98.0786 68.0014 97.8918 67.5706C97.7053 67.1397 97.4251 66.7476 97.0517 66.3941C96.6893 66.0295 96.2336 65.7423 95.6844 65.5325C95.1353 65.3115 94.5037 65.201 93.7898 65.201C92.8014 65.201 91.9612 65.4054 91.2692 65.8142C90.5883 66.223 90.0776 66.7697 89.7372 67.4547C89.3968 68.1395 89.2265 68.8961 89.2265 69.7247L91.9612 69.7247C91.9612 69.3049 92.0271 68.9348 92.1589 68.6145C92.3017 68.2941 92.5048 68.0457 92.7684 67.8689C93.0429 67.692 93.3559 67.6037 93.7075 67.6037C93.9711 67.6037 94.2017 67.6479 94.3994 67.7363C94.5971 67.8136 94.7618 67.9241 94.8937 68.0676C95.0254 68.2003 95.1242 68.3549 95.1901 68.5316C95.2561 68.7083 95.289 68.8851 95.289 69.0618C95.289 69.3712 95.2285 69.6639 95.1078 69.94C94.998 70.2051 94.8277 70.4759 94.5971 70.752C94.3774 71.0282 94.1138 71.3376 93.8064 71.68L88.6663 77.0321ZM103.134 69.7557C103.035 70.1975 102.985 70.6891 102.985 71.2303C102.985 71.7716 103.035 72.2688 103.134 72.7217C103.233 73.1635 103.375 73.5446 103.562 73.865C103.749 74.1742 103.968 74.4174 104.221 74.5941C104.485 74.7598 104.776 74.8427 105.094 74.8427C105.413 74.8427 105.698 74.7598 105.951 74.5941C106.214 74.4174 106.44 74.1742 106.626 73.865C106.813 73.5446 106.956 73.1635 107.055 72.7217C107.153 72.2688 107.203 71.7716 107.203 71.2303C107.203 70.6891 107.153 70.1975 107.055 69.7557C106.956 69.3028 106.813 68.9215 106.626 68.6123C106.44 68.2919 106.214 68.0489 105.951 67.8832C105.698 67.7065 105.413 67.6181 105.094 67.6181C104.776 67.6181 104.485 67.7065 104.221 67.8832C103.968 68.0489 103.749 68.2919 103.562 68.6123C103.375 68.9215 103.233 69.3028 103.134 69.7557ZM100.893 74.4615C100.498 73.5667 100.3 72.4896 100.3 71.2303C100.3 69.9711 100.498 68.894 100.893 67.9992C101.3 67.1045 101.865 66.4195 102.59 65.9446C103.315 65.4585 104.15 65.2155 105.094 65.2155C106.083 65.2155 106.934 65.4585 107.648 65.9446C108.362 66.4195 108.911 67.1045 109.295 67.9992C109.69 68.894 109.888 69.9711 109.888 71.2303C109.888 72.4896 109.69 73.5667 109.295 74.4615C108.911 75.3564 108.362 76.0466 107.648 76.5328C106.934 77.0078 106.083 77.2453 105.094 77.2453C104.15 77.2453 103.315 77.0078 102.59 76.5328C101.865 76.0466 101.3 75.3564 100.893 74.4615ZM112.166 68.778L115.016 68.0654L115.016 77.0299L117.701 77.0299L117.701 65.2155L112.166 66.3422L112.166 68.778ZM127.105 70.5371C127.28 70.2388 127.368 69.8964 127.368 69.5097C127.368 69.112 127.28 68.7696 127.105 68.4823C126.94 68.1842 126.709 67.9577 126.413 67.803C126.127 67.6373 125.803 67.5544 125.441 67.5544C125.067 67.5544 124.732 67.6373 124.436 67.803C124.15 67.9577 123.92 68.1842 123.744 68.4823C123.579 68.7696 123.497 69.112 123.497 69.5097C123.497 69.8964 123.579 70.2388 123.744 70.5371C123.92 70.8354 124.15 71.0673 124.436 71.233C124.732 71.3986 125.067 71.4815 125.441 71.4815C125.803 71.4815 126.127 71.3986 126.413 71.233C126.709 71.0673 126.94 70.8354 127.105 70.5371ZM128.785 72.7243L125.457 76.9828L121.932 76.9828L125.37 73.1285C125.36 73.1319 125.351 73.1353 125.342 73.1386C125.067 73.2269 124.721 73.271 124.304 73.271C123.876 73.271 123.447 73.1883 123.019 73.0226C122.602 72.8459 122.223 72.5973 121.882 72.2769C121.542 71.9455 121.267 71.5478 121.059 71.0838C120.85 70.6198 120.746 70.0952 120.746 69.5097C120.746 68.5487 120.954 67.7478 121.372 67.1071C121.8 66.4664 122.365 65.9859 123.068 65.6654C123.782 65.3341 124.573 65.1684 125.441 65.1684C126.297 65.1684 127.077 65.3341 127.78 65.6654C128.494 65.9859 129.059 66.4664 129.477 67.1071C129.905 67.7478 130.119 68.5487 130.119 69.5097C130.119 70.1283 129.988 70.7027 129.724 71.233C129.471 71.7632 129.158 72.2603 128.785 72.7243Z" fill="#252525"/>
</svg>
