<svg width="530" height="186" viewBox="0 0 530 186" fill="none" xmlns="http://www.w3.org/2000/svg">
<path d="M26.9928 114.068L39.5373 114.068L39.1643 109.695L27.3996 109.695L26.9928 114.068ZM33.1973 103.626L36.5537 111.322L36.3503 112.781L39.1982 118.645L45.7077 118.645L33.1973 93.4209L20.7207 118.645L27.1962 118.645L30.1459 112.543L29.8746 111.288L33.1973 103.626Z" fill="#252525"/>
<path d="M58.8365 109.151L58.8365 118.645L64.1594 118.645L64.1594 108.61C64.1594 106.733 63.7187 105.276 62.8371 104.237C61.9556 103.196 60.543 102.676 58.5992 102.676C57.4464 102.676 56.4745 102.914 55.6834 103.389C54.9149 103.862 54.3046 104.53 53.8527 105.389L53.8527 103.049L48.6992 103.049L48.6992 118.645L53.8527 118.645L53.8527 109.151C53.8527 108.542 53.9657 108.021 54.1916 107.592C54.4177 107.162 54.7342 106.835 55.141 106.61C55.5478 106.383 56.0225 106.271 56.565 106.271C57.3787 106.271 57.955 106.519 58.294 107.016C58.6556 107.514 58.8365 108.226 58.8365 109.151Z" fill="#252525"/>
<path d="M79.358 109.151L79.358 118.645L84.6809 118.645L84.6809 108.61C84.6809 106.733 84.2401 105.276 83.3585 104.237C82.4771 103.196 81.0645 102.676 79.1207 102.676C77.9679 102.676 76.996 102.914 76.2049 103.389C75.4364 103.862 74.8261 104.53 74.374 105.389L74.374 103.049L69.2207 103.049L69.2207 118.645L74.374 118.645L74.374 109.151C74.374 108.542 74.4872 108.021 74.7131 107.592C74.9392 107.162 75.2556 106.835 75.6625 106.61C76.0693 106.383 76.5439 106.271 77.0864 106.271C77.9001 106.271 78.4764 106.519 78.8155 107.016C79.1771 107.514 79.358 108.226 79.358 109.151Z" fill="#252525"/>
<path d="M95.095 112.539L95.095 103.045L89.7383 103.045L89.7383 113.082C89.7383 114.935 90.179 116.393 91.0606 117.455C91.9646 118.494 93.3886 119.014 95.3323 119.014C96.4851 119.014 97.4457 118.778 98.2143 118.303C98.9828 117.805 99.6042 117.139 100.079 116.303L100.079 118.642L105.198 118.642L105.198 103.045L100.079 103.045L100.079 112.539C100.079 113.15 99.9659 113.669 99.7399 114.098C99.5139 114.528 99.1974 114.855 98.7905 115.082C98.4064 115.308 97.9316 115.421 97.3666 115.421C96.5303 115.421 95.9426 115.173 95.6037 114.675C95.2646 114.155 95.095 113.443 95.095 112.539Z" fill="#252525"/>
<path d="M114.222 113.763C114.222 113.379 114.312 113.063 114.493 112.814C114.674 112.543 114.945 112.34 115.307 112.204C115.668 112.068 116.154 112 116.765 112C117.556 112 118.302 112.113 119.002 112.34C119.725 112.543 120.358 112.848 120.901 113.254L120.901 110.984C120.63 110.69 120.223 110.407 119.68 110.136C119.138 109.865 118.482 109.638 117.714 109.458C116.968 109.277 116.12 109.186 115.171 109.186C113.227 109.186 111.724 109.627 110.662 110.509C109.6 111.368 109.068 112.543 109.068 114.034C109.068 115.097 109.317 116.002 109.814 116.747C110.334 117.493 111.012 118.059 111.849 118.443C112.707 118.804 113.634 118.984 114.629 118.984C115.623 118.984 116.55 118.816 117.409 118.477C118.268 118.114 118.968 117.595 119.511 116.916C120.053 116.216 120.324 115.368 120.324 114.374L119.782 112.34C119.782 113.063 119.624 113.673 119.307 114.17C118.991 114.668 118.584 115.041 118.087 115.289C117.59 115.538 117.047 115.662 116.459 115.662C116.053 115.662 115.68 115.595 115.341 115.459C115.002 115.3 114.73 115.086 114.527 114.815C114.323 114.52 114.222 114.17 114.222 113.763ZM111.95 107.831C112.176 107.695 112.538 107.525 113.035 107.322C113.532 107.097 114.109 106.904 114.764 106.745C115.442 106.588 116.132 106.508 116.832 106.508C117.307 106.508 117.725 106.554 118.087 106.644C118.471 106.734 118.787 106.881 119.036 107.085C119.285 107.288 119.465 107.536 119.579 107.831C119.714 108.102 119.782 108.429 119.782 108.813L119.782 118.646L124.698 118.646L124.698 107.661C124.698 106.576 124.382 105.661 123.749 104.915C123.116 104.169 122.257 103.604 121.172 103.219C120.087 102.813 118.855 102.61 117.476 102.61C116.007 102.61 114.651 102.801 113.408 103.185C112.165 103.57 111.103 103.976 110.221 104.406L111.95 107.831Z" fill="#252525"/>
<path d="M129.551 92.1987L129.551 118.644L134.704 118.644L134.704 92.1987L129.551 92.1987Z" fill="#252525"/>
<path d="M40.5664 53.1625L53.374 49.979L53.374 90.0299L65.4412 90.0299L65.4412 37.2456L40.5664 42.2797L40.5664 53.1625Z" fill="#252525"/>
<path d="M81.8635 71.8191C81.8635 70.0917 82.2336 68.5617 82.9738 67.2292C83.7636 65.8965 84.8 64.8601 86.0832 64.1198C87.4158 63.3794 88.9212 63.0093 90.5992 63.0093C92.228 63.0093 93.6838 63.3794 94.9672 64.1198C96.2997 64.8601 97.3361 65.8965 98.0765 67.2292C98.8661 68.5617 99.261 70.0917 99.261 71.8191C99.261 73.5959 98.8661 75.1506 98.0765 76.4831C97.3361 77.7663 96.2997 78.7782 94.9672 79.5185C93.6838 80.2094 92.228 80.5549 90.5992 80.5549C88.9212 80.5549 87.4158 80.2094 86.0832 79.5185C84.8 78.7782 83.7636 77.7663 82.9738 76.4831C82.2336 75.1506 81.8635 73.5959 81.8635 71.8191ZM90.4512 38.4307L75.4967 57.4569C73.8185 59.5298 72.3873 61.7508 71.2028 64.1198C70.0676 66.4887 69.5 69.0553 69.5 71.8191C69.5 76.0637 70.4377 79.6418 72.3132 82.5538C74.2381 85.4163 76.7799 87.5879 79.9385 89.0693C83.1466 90.4996 86.7001 91.2155 90.5992 91.2155C94.4489 91.2155 97.953 90.4996 101.112 89.0693C104.32 87.5879 106.862 85.4163 108.737 82.5538C110.662 79.6418 111.624 76.0637 111.624 71.8191C111.624 69.2033 111.156 66.859 110.218 64.7861C109.329 62.7132 108.096 60.961 106.516 59.5298C104.986 58.0492 103.259 56.9386 101.334 56.1984C99.4584 55.4086 97.5582 55.0138 95.6334 55.0138C93.758 55.0138 92.1785 55.2112 90.8953 55.6061C89.6614 56.0009 88.3536 56.8893 86.9716 58.2712L89.5628 57.1608L106.294 38.4307L90.4512 38.4307Z" fill="#252525"/>
<path d="M117.371 46.3281L117.371 48.1974L123.104 48.1974L123.104 46.3281L117.371 46.3281ZM119.24 42.3403L119.24 57.793L121.234 57.793L121.234 42.3403L119.24 42.3403Z" fill="#252525"/>
<path d="M127.841 38.353L125.848 38.353L125.848 57.7935L127.841 57.7935L127.841 38.353ZM133.2 50.8149L133.2 57.7935L135.194 57.7935L135.194 50.5657C135.194 49.5687 135.028 48.738 134.696 48.0733C134.38 47.4087 133.923 46.9101 133.325 46.5778C132.743 46.2456 132.054 46.0794 131.256 46.0794C130.458 46.0794 129.752 46.2871 129.138 46.7025C128.539 47.1179 128.066 47.6829 127.717 48.3973C127.368 49.0952 127.194 49.9011 127.194 50.8149L127.841 50.8149C127.841 50.2665 127.958 49.7765 128.19 49.3444C128.44 48.9125 128.78 48.5718 129.212 48.3225C129.661 48.0733 130.176 47.9487 130.758 47.9487C131.572 47.9487 132.178 48.1896 132.577 48.6715C132.992 49.1533 133.2 49.8678 133.2 50.8149Z" fill="#252525"/>
<path d="M190.018 85.7438L184.834 72.0356L179.75 85.7438L175.115 72.908L172.746 72.908L179.6 91.2273L184.834 77.6684L190.069 91.2273L196.923 72.908L194.554 72.908L190.018 85.7438Z" fill="#252525"/>
<path d="M196.801 84.6224C196.801 85.7688 197.059 86.7991 197.575 87.7129C198.106 88.6106 198.821 89.3166 199.718 89.8312C200.614 90.3472 201.621 90.6037 202.733 90.6037C203.863 90.6037 204.868 90.3472 205.749 89.8312C206.646 89.3166 207.352 88.6106 207.868 87.7129C208.399 86.7991 208.665 85.7688 208.665 84.6224C208.665 83.4593 208.399 82.4291 207.868 81.5318C207.352 80.6346 206.646 79.9284 205.749 79.4133C204.868 78.8982 203.863 78.6406 202.733 78.6406C201.621 78.6406 200.614 78.8982 199.718 79.4133C198.821 79.9284 198.106 80.6346 197.575 81.5318C197.059 82.4291 196.801 83.4593 196.801 84.6224ZM198.821 84.6224C198.821 83.8249 198.987 83.1186 199.318 82.5038C199.667 81.8724 200.134 81.3822 200.715 81.0334C201.313 80.6844 201.985 80.51 202.733 80.51C203.48 80.51 204.145 80.6844 204.726 81.0334C205.325 81.3822 205.791 81.8724 206.123 82.5038C206.472 83.1186 206.646 83.8249 206.646 84.6224C206.646 85.4199 206.472 86.126 206.123 86.7408C205.791 87.3556 205.325 87.8458 204.726 88.2114C204.145 88.561 203.48 88.7354 202.733 88.7354C201.985 88.7354 201.313 88.561 200.715 88.2114C200.134 87.8458 199.667 87.3556 199.318 86.7408C198.987 86.126 198.821 85.4199 198.821 84.6224Z" fill="#252525"/>
<path d="M214.147 78.89L212.152 78.89L212.152 90.3543L214.147 90.3543L214.147 78.89ZM217.611 81.0833L218.707 79.4383C218.408 79.1225 218.076 78.9148 217.711 78.8151C217.362 78.6989 216.979 78.6406 216.564 78.6406C216.032 78.6406 215.509 78.8483 214.993 79.2638C214.479 79.6791 214.055 80.244 213.723 80.9585C213.407 81.6564 213.25 82.4623 213.25 83.3762L214.147 83.3762C214.147 82.8279 214.197 82.3377 214.296 81.9057C214.412 81.4737 214.612 81.133 214.894 80.8838C215.176 80.6346 215.567 80.51 216.065 80.51C216.398 80.51 216.672 80.5597 216.888 80.6595C217.104 80.7426 217.345 80.8838 217.611 81.0833Z" fill="#252525"/>
<path d="M221.441 70.9131L221.441 90.353L223.436 90.353L223.436 70.9131L221.441 70.9131Z" fill="#252525"/>
<path d="M236.533 70.9131L236.533 90.353L238.528 90.353L238.528 70.9131L236.533 70.9131ZM226.937 84.6211C226.937 85.8506 227.195 86.9141 227.71 87.8114C228.226 88.7086 228.915 89.3975 229.78 89.8795C230.643 90.3615 231.59 90.6025 232.621 90.6025C233.585 90.6025 234.424 90.3615 235.138 89.8795C235.853 89.3975 236.408 88.7086 236.808 87.8114C237.223 86.9141 237.43 85.8506 237.43 84.6211C237.43 83.3749 237.223 82.3115 236.808 81.4308C236.408 80.5337 235.853 79.844 235.138 79.3622C234.424 78.8803 233.585 78.6393 232.621 78.6393C231.59 78.6393 230.643 78.8803 229.78 79.3622C228.915 79.844 228.226 80.5337 227.71 81.4308C227.195 82.3115 226.937 83.3749 226.937 84.6211ZM228.958 84.6211C228.958 83.7405 229.132 82.9927 229.481 82.3779C229.846 81.7631 230.328 81.2979 230.925 80.9822C231.523 80.6665 232.173 80.5087 232.87 80.5087C233.451 80.5087 234.024 80.6665 234.59 80.9822C235.155 81.2979 235.62 81.7631 235.986 82.3779C236.35 82.9927 236.533 83.7405 236.533 84.6211C236.533 85.5017 236.35 86.2495 235.986 86.8642C235.62 87.479 235.155 87.9442 234.59 88.2599C234.024 88.5753 233.451 88.7341 232.87 88.7341C232.173 88.7341 231.523 88.5753 230.925 88.2599C230.328 87.9442 229.846 87.479 229.481 86.8642C229.132 86.2495 228.958 85.5017 228.958 84.6211Z" fill="#252525"/>
<path d="M175.729 110.152C175.729 108.789 176.028 107.601 176.626 106.587C177.242 105.558 178.038 104.752 179.019 104.17C179.999 103.589 181.063 103.298 182.209 103.298C183.039 103.298 183.796 103.406 184.477 103.622C185.176 103.839 185.807 104.145 186.372 104.545C186.936 104.926 187.418 105.375 187.817 105.89L187.817 103.099C187.087 102.451 186.289 101.969 185.424 101.653C184.56 101.337 183.489 101.179 182.209 101.179C180.997 101.179 179.858 101.403 178.795 101.853C177.748 102.285 176.826 102.907 176.028 103.721C175.23 104.519 174.608 105.466 174.158 106.563C173.71 107.659 173.486 108.855 173.486 110.152C173.486 111.448 173.71 112.645 174.158 113.74C174.608 114.838 175.23 115.793 176.028 116.607C176.826 117.405 177.748 118.027 178.795 118.477C179.858 118.909 180.997 119.124 182.209 119.124C183.489 119.124 184.56 118.967 185.424 118.651C186.289 118.335 187.087 117.853 187.817 117.205L187.817 114.414C187.418 114.928 186.936 115.386 186.372 115.785C185.807 116.167 185.176 116.466 184.477 116.682C183.796 116.897 183.039 117.007 182.209 117.007C181.063 117.007 179.999 116.714 179.019 116.133C178.038 115.552 177.242 114.747 176.626 113.716C176.028 112.686 175.729 111.498 175.729 110.152Z" fill="#252525"/>
<path d="M191.172 113.145C191.172 114.292 191.43 115.322 191.944 116.237C192.476 117.134 193.191 117.84 194.088 118.354C194.985 118.869 195.99 119.127 197.104 119.127C198.234 119.127 199.239 118.869 200.12 118.354C201.017 117.84 201.723 117.134 202.239 116.237C202.771 115.322 203.036 114.292 203.036 113.145C203.036 111.982 202.771 110.952 202.239 110.055C201.723 109.157 201.017 108.451 200.12 107.937C199.239 107.421 198.234 107.164 197.104 107.164C195.99 107.164 194.985 107.421 194.088 107.937C193.191 108.451 192.476 109.157 191.944 110.055C191.43 110.952 191.172 111.982 191.172 113.145ZM193.191 113.145C193.191 112.348 193.358 111.642 193.69 111.027C194.038 110.396 194.503 109.906 195.086 109.557C195.684 109.207 196.356 109.032 197.104 109.032C197.852 109.032 198.516 109.207 199.098 109.557C199.696 109.906 200.161 110.396 200.494 111.027C200.843 111.642 201.017 112.348 201.017 113.145C201.017 113.943 200.843 114.649 200.494 115.264C200.161 115.879 199.696 116.368 199.098 116.734C198.516 117.083 197.852 117.257 197.104 117.257C196.356 117.257 195.684 117.083 195.086 116.734C194.503 116.368 194.038 115.879 193.69 115.264C193.358 114.649 193.191 113.943 193.191 113.145Z" fill="#252525"/>
<path d="M213.876 111.899L213.876 118.878L215.87 118.878L215.87 111.649C215.87 110.271 215.512 109.183 214.798 108.385C214.1 107.571 213.145 107.164 211.932 107.164C211.184 107.164 210.52 107.33 209.938 107.662C209.373 107.995 208.899 108.509 208.517 109.207L208.517 107.414L206.523 107.414L206.523 118.878L208.517 118.878L208.517 111.899C208.517 111.335 208.633 110.836 208.867 110.403C209.115 109.972 209.456 109.639 209.887 109.407C210.337 109.157 210.851 109.032 211.433 109.032C212.231 109.032 212.837 109.273 213.253 109.755C213.668 110.237 213.876 110.952 213.876 111.899Z" fill="#252525"/>
<path d="M219.585 119.626C219.585 120.606 219.826 121.47 220.306 122.217C220.788 122.981 221.453 123.571 222.301 123.988C223.166 124.403 224.154 124.61 225.266 124.61C226.23 124.61 227.145 124.386 228.008 123.937C228.873 123.489 229.579 122.816 230.127 121.918C230.676 121.038 230.95 119.941 230.95 118.628L230.95 107.414L228.955 107.414L228.955 118.628C228.955 119.592 228.765 120.373 228.382 120.971C228.017 121.587 227.552 122.035 226.986 122.318C226.422 122.6 225.849 122.74 225.266 122.74C224.519 122.74 223.872 122.592 223.323 122.293C222.774 122.01 222.35 121.628 222.051 121.146C221.752 120.681 221.603 120.173 221.603 119.626L219.585 119.626ZM219.359 113.145C219.359 114.375 219.617 115.438 220.132 116.336C220.648 117.233 221.337 117.922 222.202 118.404C223.065 118.886 224.012 119.127 225.042 119.127C226.006 119.127 226.846 118.886 227.56 118.404C228.275 117.922 228.83 117.233 229.23 116.336C229.645 115.438 229.852 114.375 229.852 113.145C229.852 111.899 229.645 110.836 229.23 109.955C228.83 109.058 228.275 108.369 227.56 107.887C226.846 107.405 226.006 107.164 225.042 107.164C224.012 107.164 223.065 107.405 222.202 107.887C221.337 108.369 220.648 109.058 220.132 109.955C219.617 110.836 219.359 111.899 219.359 113.145ZM221.379 113.145C221.379 112.265 221.554 111.517 221.903 110.902C222.268 110.287 222.75 109.822 223.347 109.506C223.945 109.191 224.595 109.032 225.292 109.032C225.724 109.032 226.155 109.125 226.588 109.307C227.02 109.49 227.41 109.755 227.759 110.104C228.124 110.454 228.415 110.885 228.632 111.401C228.847 111.899 228.955 112.481 228.955 113.145C228.955 114.027 228.772 114.774 228.408 115.389C228.042 116.003 227.577 116.469 227.011 116.784C226.446 117.1 225.873 117.257 225.292 117.257C224.595 117.257 223.945 117.1 223.347 116.784C222.75 116.469 222.268 116.003 221.903 115.389C221.554 114.774 221.379 114.027 221.379 113.145Z" fill="#252525"/>
<path d="M237.325 107.414L235.33 107.414L235.33 118.878L237.325 118.878L237.325 107.414ZM240.789 109.607L241.885 107.961C241.586 107.646 241.254 107.438 240.888 107.338C240.54 107.222 240.157 107.164 239.742 107.164C239.21 107.164 238.687 107.371 238.172 107.786C237.656 108.202 237.232 108.767 236.901 109.482C236.585 110.179 236.427 110.986 236.427 111.899L237.325 111.899C237.325 111.352 237.374 110.861 237.473 110.429C237.59 109.996 237.79 109.656 238.072 109.407C238.355 109.157 238.745 109.032 239.244 109.032C239.576 109.032 239.849 109.083 240.066 109.183C240.282 109.266 240.523 109.407 240.789 109.607Z" fill="#252525"/>
<path d="M248.688 119.127C249.918 119.127 250.981 118.886 251.878 118.404C252.791 117.907 253.548 117.175 254.147 116.211L252.526 115.189C252.111 115.886 251.603 116.411 251.005 116.76C250.407 117.091 249.718 117.257 248.937 117.257C248.156 117.257 247.491 117.091 246.944 116.76C246.395 116.427 245.98 115.945 245.698 115.314C245.414 114.683 245.274 113.917 245.274 113.02C245.29 112.14 245.44 111.401 245.722 110.803C246.021 110.188 246.436 109.723 246.968 109.407C247.517 109.075 248.173 108.908 248.937 108.908C249.585 108.908 250.15 109.049 250.632 109.332C251.114 109.615 251.487 110.005 251.754 110.504C252.036 111.001 252.178 111.591 252.178 112.273C252.178 112.389 252.152 112.54 252.102 112.722C252.053 112.888 252.003 113.013 251.954 113.095L252.75 111.948L244.525 111.948L244.525 113.644L254.321 113.644C254.321 113.611 254.321 113.536 254.321 113.42C254.338 113.287 254.345 113.162 254.345 113.046C254.345 111.832 254.13 110.786 253.697 109.906C253.266 109.025 252.643 108.352 251.829 107.887C251.031 107.405 250.067 107.164 248.937 107.164C247.807 107.164 246.811 107.414 245.946 107.911C245.1 108.41 244.435 109.108 243.953 110.005C243.488 110.902 243.254 111.948 243.254 113.145C243.254 114.326 243.479 115.363 243.927 116.261C244.392 117.158 245.033 117.864 245.847 118.38C246.677 118.878 247.624 119.127 248.688 119.127Z" fill="#252525"/>
<path d="M258.303 115.363L256.732 116.336C256.948 116.784 257.264 117.225 257.679 117.657C258.112 118.088 258.635 118.445 259.25 118.729C259.865 118.994 260.554 119.127 261.318 119.127C262.498 119.127 263.445 118.795 264.159 118.13C264.891 117.466 265.256 116.635 265.256 115.638C265.256 114.957 265.091 114.399 264.757 113.968C264.443 113.536 264.01 113.17 263.462 112.871C262.913 112.555 262.308 112.265 261.643 111.999C261.243 111.832 260.862 111.658 260.496 111.475C260.13 111.292 259.831 111.085 259.599 110.853C259.366 110.62 259.25 110.354 259.25 110.055C259.25 109.673 259.399 109.39 259.698 109.207C259.997 109.025 260.354 108.933 260.77 108.933C261.368 108.933 261.9 109.075 262.366 109.357C262.846 109.639 263.246 109.996 263.562 110.429L265.157 109.407C264.925 108.974 264.6 108.593 264.185 108.26C263.769 107.928 263.287 107.662 262.739 107.463C262.207 107.263 261.634 107.164 261.019 107.164C260.404 107.164 259.807 107.272 259.225 107.487C258.66 107.704 258.195 108.036 257.83 108.485C257.481 108.933 257.305 109.499 257.305 110.179C257.305 110.844 257.472 111.401 257.804 111.849C258.153 112.282 258.577 112.639 259.076 112.921C259.59 113.187 260.098 113.42 260.595 113.618C261.045 113.786 261.469 113.968 261.867 114.167C262.265 114.35 262.59 114.582 262.839 114.866C263.104 115.131 263.238 115.464 263.238 115.862C263.238 116.31 263.072 116.668 262.739 116.934C262.424 117.184 261.983 117.308 261.418 117.308C260.953 117.308 260.522 117.225 260.122 117.059C259.741 116.876 259.399 116.635 259.1 116.336C258.801 116.037 258.536 115.712 258.303 115.363Z" fill="#252525"/>
<path d="M269.099 115.363L267.529 116.336C267.745 116.784 268.061 117.225 268.476 117.657C268.909 118.088 269.432 118.445 270.046 118.729C270.661 118.994 271.351 119.127 272.115 119.127C273.295 119.127 274.242 118.795 274.956 118.13C275.687 117.466 276.053 116.635 276.053 115.638C276.053 114.957 275.886 114.399 275.554 113.968C275.238 113.536 274.807 113.17 274.259 112.871C273.71 112.555 273.103 112.265 272.438 111.999C272.04 111.832 271.657 111.658 271.292 111.475C270.927 111.292 270.628 111.085 270.396 110.853C270.162 110.62 270.046 110.354 270.046 110.055C270.046 109.673 270.196 109.39 270.495 109.207C270.794 109.025 271.151 108.933 271.567 108.933C272.165 108.933 272.696 109.075 273.161 109.357C273.643 109.639 274.042 109.996 274.358 110.429L275.953 109.407C275.72 108.974 275.397 108.593 274.982 108.26C274.566 107.928 274.084 107.662 273.536 107.463C273.004 107.263 272.43 107.164 271.816 107.164C271.201 107.164 270.603 107.272 270.021 107.487C269.456 107.704 268.991 108.036 268.625 108.485C268.276 108.933 268.102 109.499 268.102 110.179C268.102 110.844 268.268 111.401 268.601 111.849C268.95 112.282 269.374 112.639 269.871 112.921C270.387 113.187 270.893 113.42 271.392 113.618C271.84 113.786 272.264 113.968 272.664 114.167C273.062 114.35 273.385 114.582 273.635 114.866C273.901 115.131 274.035 115.464 274.035 115.862C274.035 116.31 273.867 116.668 273.536 116.934C273.219 117.184 272.78 117.308 272.214 117.308C271.749 117.308 271.317 117.225 270.919 117.059C270.536 116.876 270.196 116.635 269.897 116.336C269.598 116.037 269.331 115.712 269.099 115.363Z" fill="#252525"/>
<path d="M176.9 48.2821L182.583 58.4509L188.266 48.2821L189.562 60.071L191.68 60.071L189.562 41.752L182.583 54.3883L175.604 41.752L173.486 60.071L175.604 60.071L176.9 48.2821Z" fill="#252525"/>
<path d="M201.637 56.1357L195.904 42.627L193.537 42.627L201.637 60.946L209.737 42.627L207.368 42.627L201.637 56.1357Z" fill="#252525"/>
<path d="M225.822 42.6243L225.822 55.6097L212.611 41.752L212.611 60.071L214.731 60.071L214.731 47.0858L227.94 60.9433L227.94 42.6243L225.822 42.6243Z" fill="#252525"/>
<path d="M233.926 51.3495C233.926 50.0369 234.208 48.8654 234.772 47.8352C235.355 46.8051 236.143 45.9909 237.141 45.3927C238.137 44.7945 239.267 44.4955 240.53 44.4955C241.809 44.4955 242.939 44.7945 243.92 45.3927C244.916 45.9909 245.697 46.8051 246.263 47.8352C246.844 48.8654 247.135 50.0369 247.135 51.3495C247.135 52.6621 246.844 53.8336 246.263 54.8637C245.697 55.8939 244.916 56.7081 243.92 57.3062C242.939 57.9044 241.809 58.2036 240.53 58.2036C239.267 58.2036 238.137 57.9044 237.141 57.3062C236.143 56.7081 235.355 55.8939 234.772 54.8637C234.208 53.8336 233.926 52.6621 233.926 51.3495ZM231.682 51.3495C231.682 52.6123 231.899 53.792 232.329 54.8887C232.779 55.9853 233.401 56.9408 234.199 57.7549C234.997 58.5524 235.936 59.1838 237.016 59.6491C238.096 60.0977 239.267 60.322 240.53 60.322C241.809 60.322 242.981 60.0977 244.044 59.6491C245.125 59.1838 246.063 58.5524 246.861 57.7549C247.658 56.9408 248.273 55.9853 248.705 54.8887C249.153 53.792 249.377 52.6123 249.377 51.3495C249.377 50.07 249.153 48.8903 248.705 47.8103C248.273 46.7136 247.658 45.7665 246.861 44.969C246.063 44.1549 245.125 43.5235 244.044 43.0748C242.981 42.6096 241.809 42.377 240.53 42.377C239.267 42.377 238.096 42.6096 237.016 43.0748C235.936 43.5235 234.997 44.1549 234.199 44.969C233.401 45.7665 232.779 46.7136 232.329 47.8103C231.899 48.8903 231.682 50.07 231.682 51.3495Z" fill="#252525"/>
<path d="M253.471 56.5584L251.9 57.5304C252.116 57.979 252.432 58.4193 252.847 58.8513C253.28 59.2833 253.803 59.6405 254.418 59.923C255.032 60.189 255.722 60.3218 256.486 60.3218C257.666 60.3218 258.613 59.9895 259.327 59.3248C260.059 58.6603 260.424 57.8294 260.424 56.8326C260.424 56.1513 260.258 55.5946 259.925 55.1627C259.611 54.7306 259.178 54.3651 258.63 54.066C258.081 53.7503 257.474 53.4596 256.811 53.1936C256.411 53.0275 256.03 52.853 255.664 52.6703C255.298 52.4875 254.999 52.2797 254.767 52.0472C254.534 51.8146 254.418 51.5487 254.418 51.2496C254.418 50.8674 254.567 50.585 254.866 50.4021C255.165 50.2194 255.522 50.128 255.938 50.128C256.536 50.128 257.067 50.2693 257.532 50.5517C258.014 50.8342 258.414 51.1914 258.729 51.6235L260.325 50.6016C260.091 50.1696 259.768 49.7875 259.353 49.455C258.937 49.1228 258.455 48.857 257.907 48.6575C257.375 48.4582 256.802 48.3584 256.187 48.3584C255.572 48.3584 254.974 48.4664 254.393 48.6825C253.828 48.8985 253.362 49.2308 252.998 49.6794C252.647 50.128 252.473 50.693 252.473 51.3742C252.473 52.0389 252.64 52.5956 252.972 53.0441C253.321 53.4762 253.745 53.8334 254.244 54.1158C254.758 54.3817 255.264 54.6143 255.763 54.8137C256.213 54.9798 256.635 55.1627 257.035 55.362C257.433 55.5448 257.758 55.7775 258.006 56.0598C258.272 56.3258 258.406 56.6581 258.406 57.0568C258.406 57.5055 258.24 57.8627 257.907 58.1285C257.591 58.3777 257.151 58.5023 256.586 58.5023C256.121 58.5023 255.688 58.4193 255.29 58.2531C254.907 58.0704 254.567 57.8294 254.268 57.5304C253.969 57.2313 253.704 56.9073 253.471 56.5584Z" fill="#252525"/>
<path d="M304.309 106.57L310.784 116.471L317.294 106.57L318.717 118.675L324.752 118.675L320.922 93.7554L310.784 108.232L300.681 93.7554L296.85 118.675L302.884 118.675L304.309 106.57Z" fill="#252525"/>
<path d="M339.351 109.115L333.553 94.9434L326.873 94.9434L339.351 120.168L351.861 94.9434L345.147 94.9434L339.351 109.115Z" fill="#252525"/>
<path d="M371.74 94.9419L371.74 108.3L355.365 93.7554L355.365 118.675L360.857 118.675L360.857 105.316L377.267 119.862L377.267 94.9419L371.74 94.9419Z" fill="#252525"/>
<path d="M387.099 118.677L399.067 118.677L399.067 113.963L387.099 113.963L387.099 118.677ZM387.099 99.6554L399.067 99.6554L399.067 94.9434L387.099 94.9434L387.099 99.6554ZM387.099 108.505L398.388 108.505L398.388 103.894L387.099 103.894L387.099 108.505ZM383.301 94.9434L383.301 118.677L388.794 118.677L388.794 94.9434L383.301 94.9434Z" fill="#252525"/>
<path d="M306.252 57.0203L311.605 57.0203C313.592 57.0203 315.336 56.7478 316.834 56.203C318.36 55.631 319.558 54.8139 320.429 53.7516C321.328 52.6893 321.778 51.4091 321.778 49.911C321.778 48.2766 321.328 46.9282 320.429 45.866C319.558 44.7765 318.36 43.9728 316.834 43.4553C315.336 42.9105 313.592 42.6382 311.605 42.6382L301.104 42.6382L301.104 71.2389L312.298 71.2389C314.559 71.2389 316.521 70.9666 318.183 70.4218C319.844 69.8498 321.124 68.9782 322.023 67.8068C322.95 66.6356 323.412 65.0967 323.412 63.1899C323.412 61.7462 323.086 60.5204 322.431 59.5127C321.806 58.4776 320.961 57.6331 319.898 56.9794C318.836 56.2984 317.651 55.8081 316.344 55.5086C315.037 55.2089 313.687 55.059 312.298 55.059L306.252 55.059L306.252 58.818L311.523 58.818C312.203 58.818 312.817 58.8861 313.361 59.0223C313.933 59.1313 314.437 59.322 314.873 59.5943C315.309 59.8668 315.649 60.2209 315.895 60.6567C316.14 61.0924 316.262 61.61 316.262 62.2093C316.262 63.1354 316.045 63.8709 315.608 64.4157C315.2 64.9332 314.641 65.3145 313.933 65.5596C313.225 65.7775 312.421 65.8866 311.523 65.8866L308.009 65.8866L308.009 47.9905L310.869 47.9905C312.067 47.9905 312.993 48.2358 313.648 48.726C314.301 49.2163 314.627 49.9518 314.627 50.9323C314.627 51.5861 314.478 52.1445 314.178 52.6076C313.879 53.0434 313.444 53.3839 312.871 53.629C312.327 53.8742 311.659 53.9967 310.869 53.9967L306.252 53.9967L306.252 57.0203Z" fill="#252525"/>
<path d="M334.037 71.2389L348.459 71.2389L348.459 65.5596L334.037 65.5596L334.037 71.2389ZM334.037 48.3174L348.459 48.3174L348.459 42.6382L334.037 42.6382L334.037 48.3174ZM334.037 58.9815L347.643 58.9815L347.643 53.4247L334.037 53.4247L334.037 58.9815ZM329.461 42.6382L329.461 71.2389L336.08 71.2389L336.08 42.6382L329.461 42.6382Z" fill="#252525"/>
<path d="M358.448 61.1873L353.627 64.6603C354.282 66.0223 355.193 67.2753 356.366 68.4193C357.537 69.5633 358.912 70.4758 360.492 71.1568C362.098 71.8105 363.828 72.1373 365.681 72.1373C367.016 72.1373 368.309 71.933 369.562 71.5245C370.842 71.1431 371.973 70.5712 372.953 69.8084C373.961 69.0457 374.752 68.106 375.323 66.9892C375.923 65.8452 376.222 64.5514 376.222 63.1077C376.222 61.9092 376.032 60.8468 375.651 59.9207C375.269 58.9946 374.738 58.1774 374.057 57.4692C373.404 56.7611 372.64 56.1617 371.769 55.6715C370.897 55.1539 369.958 54.7044 368.95 54.3231C367.614 53.8601 366.47 53.4242 365.518 53.0157C364.591 52.6071 363.869 52.1576 363.352 51.6673C362.861 51.1771 362.616 50.6051 362.616 49.9513C362.616 49.3248 362.875 48.8073 363.393 48.3986C363.91 47.9628 364.659 47.7449 365.64 47.7449C366.375 47.7449 367.056 47.8948 367.682 48.1943C368.337 48.4668 368.923 48.8617 369.44 49.3793C369.984 49.8696 370.461 50.4552 370.87 51.1362L376.141 48.1943C375.651 47.2138 374.942 46.2468 374.016 45.2934C373.09 44.3401 371.918 43.5502 370.502 42.9236C369.113 42.2972 367.465 41.9839 365.559 41.9839C363.706 41.9839 362.018 42.3108 360.492 42.9646C358.994 43.591 357.795 44.5171 356.896 45.7429C356.024 46.9687 355.589 48.426 355.589 50.1147C355.589 51.5312 355.847 52.7432 356.366 53.7511C356.883 54.7317 357.537 55.5761 358.326 56.2843C359.116 56.9653 359.947 57.5237 360.818 57.9595C361.717 58.3954 362.507 58.7358 363.189 58.981C364.578 59.4986 365.695 59.9615 366.538 60.3701C367.383 60.7788 367.996 61.2145 368.377 61.6777C368.758 62.1134 368.95 62.699 368.95 63.4345C368.95 64.3062 368.622 65.0008 367.969 65.5183C367.315 66.0087 366.484 66.2538 365.477 66.2538C364.522 66.2538 363.611 66.0495 362.739 65.6409C361.894 65.2323 361.105 64.6467 360.369 63.884C359.662 63.1213 359.021 62.2224 358.448 61.1873Z" fill="#252525"/>
<path d="M379.203 48.8078L387.048 48.8078L387.048 71.2389L393.953 71.2389L393.953 48.8078L401.839 48.8078L401.839 42.6382L379.203 42.6382L379.203 48.8078Z" fill="#252525"/>
</svg>
