<svg width="160" height="41" viewBox="0 0 160 41" fill="none" xmlns="http://www.w3.org/2000/svg">
<path d="M33.6199 0.148193H20.9813V25.0164H15.8879V0.148193H3.21039C1.7222 0.148193 0.515625 1.36199 0.515625 2.86211V29.4654C0.515625 30.1848 0.799668 30.8749 1.30463 31.3864L9.54673 39.6921C10.0517 40.2011 10.7363 40.4875 11.4525 40.4875H25.5696C26.2834 40.4875 26.968 40.2011 27.4754 39.6921L35.5281 31.5748C36.0331 31.0658 36.3171 30.3757 36.3171 29.6538V2.86211C36.3123 1.36199 35.1081 0.148193 33.6199 0.148193Z" fill="#252525"/>
<path d="M76.3857 9.48993L67.9081 0.946838C67.4007 0.435379 66.7137 0.149059 65.9951 0.149059L44.1092 0.144165C42.6138 0.144165 41.4023 1.36531 41.4023 2.87277V40.4442L56.6872 40.4859V15.6152H61.783V40.4834H74.4921C75.9876 40.4834 77.199 39.2598 77.199 37.7524L77.1772 11.4159C77.1772 10.6939 76.8907 10.0014 76.3857 9.48993Z" fill="#252525"/>
<path d="M158.3 9.49407L149.73 0.857983C149.252 0.37589 148.601 0.1067 147.924 0.109147L134.38 0.175221C133.712 0.177668 133.071 0.446858 132.598 0.924057L124.018 9.57238C123.542 10.052 123.275 10.703 123.275 11.3808V29.3162C123.275 29.999 123.545 30.6499 124.026 31.1296L132.593 39.6996C133.069 40.1743 133.71 40.4411 134.38 40.4411H147.929C148.601 40.4411 149.247 40.1719 149.723 39.6922L158.298 31.0488C158.773 30.5691 159.04 29.9182 159.04 29.2403V11.3025C159.043 10.6247 158.776 9.97371 158.3 9.49407ZM138.611 24.0499V10.2967H143.707V30.4076H138.611V24.0499Z" fill="#252525"/>
<path d="M117.413 9.51616L108.901 0.973067C108.394 0.464054 107.707 0.177734 106.993 0.177734H85.1146C83.6192 0.177734 82.4102 1.39888 82.4102 2.90389V37.7908C82.4102 39.2983 83.6216 40.517 85.1146 40.517H106.993C107.709 40.517 108.394 40.2307 108.901 39.7217L117.413 31.1786C117.923 30.6671 118.209 29.9721 118.209 29.2477V11.4494C118.209 10.7251 117.923 10.0276 117.413 9.51616ZM102.844 30.4053H97.7485V10.2944H102.844V30.4053Z" fill="#252525"/>
</svg>
