<svg width="260" height="65" viewBox="0 0 260 65" fill="none" xmlns="http://www.w3.org/2000/svg">
<path fill-rule="evenodd" clip-rule="evenodd" d="M32.0605 64.751C49.7663 64.751 64.115 50.4235 64.115 32.751C64.115 15.0784 49.7665 0.750977 32.0605 0.750977C14.3544 0.750977 0 15.0784 0 32.751C0 50.4235 14.3544 64.751 32.0605 64.751ZM14.3011 31.07C14.342 43.1222 23.5075 50.6244 32.3133 50.5945C43.1868 50.5594 49.6184 41.6464 49.5948 33.5096C49.5654 25.3789 45.1359 19.4998 35.3758 17.1246C35.3524 17.0246 35.3349 16.8071 35.3349 16.6014C35.3172 10.4578 39.9587 5.0372 45.7899 3.83198C45.2422 3.6439 44.3409 3.57331 43.481 3.57331C36.8133 3.597 29.4563 6.44831 24.0846 10.8812C18.5832 15.4316 14.2716 23.1037 14.3011 31.07Z" fill="#252525"/>
<path d="M84.817 46.0022L75.0156 22.6563H81.4185L87.5325 38.1595L93.4581 22.6563H99.5721L90.0595 46.0023L84.817 46.0022ZM116.63 34.2087C116.63 33.2386 116.518 32.3156 116.288 31.4396C116.065 30.5638 115.723 29.8112 115.27 29.1821C114.816 28.5471 114.268 28.0474 113.62 27.677C112.972 27.3009 112.212 27.1126 111.341 27.1126C110.469 27.1126 109.703 27.3009 109.061 27.677C108.413 28.0474 107.859 28.5471 107.412 29.1821C106.958 29.8112 106.617 30.5638 106.393 31.4396C106.163 32.3157 106.051 33.2386 106.051 34.2089C106.051 35.2141 106.163 36.1489 106.393 37.0072C106.617 37.8656 106.946 38.618 107.382 39.2648C107.818 39.9115 108.372 40.4229 109.038 40.7992C109.697 41.1695 110.469 41.3577 111.341 41.3577C112.212 41.3577 112.972 41.1695 113.62 40.7992C114.268 40.4229 114.816 39.9115 115.269 39.2648C115.723 38.618 116.065 37.8654 116.288 37.0072C116.518 36.1489 116.63 35.2141 116.63 34.2087ZM122.55 34.2344C122.55 35.757 122.314 37.2503 121.849 38.72C121.378 40.1898 120.683 41.5009 119.758 42.665C118.839 43.829 117.673 44.7638 116.265 45.4751C114.857 46.1866 113.214 46.5393 111.341 46.5393C109.462 46.5393 107.818 46.1864 106.416 45.4751C105.009 44.7638 103.842 43.829 102.918 42.665C101.999 41.5009 101.304 40.1898 100.832 38.72C100.367 37.2503 100.131 35.757 100.131 34.2344C100.131 32.7174 100.367 31.2361 100.832 29.7779C101.304 28.3259 101.999 27.0266 102.918 25.8802C103.842 24.7338 105.009 23.8166 106.416 23.1228C107.818 22.4292 109.462 22.0764 111.341 22.0764C113.214 22.0764 114.851 22.4293 116.241 23.1228C117.631 23.8166 118.798 24.7338 119.734 25.8802C120.677 27.0266 121.378 28.3259 121.849 29.7779C122.314 31.2361 122.55 32.7174 122.55 34.2344ZM140.627 27.7947C139.466 27.3419 138.388 27.1126 137.387 27.1126C136.362 27.1126 135.473 27.3128 134.737 27.7005C133.994 28.0883 133.382 28.6118 132.899 29.2762C132.416 29.9406 132.057 30.6871 131.815 31.5161C131.572 32.3448 131.449 33.204 131.45 34.0675C131.45 35.0376 131.556 35.9666 131.768 36.8602C131.974 37.7479 132.298 38.53 132.734 39.1942C133.164 39.8586 133.712 40.3935 134.371 40.7992C135.031 41.1989 135.815 41.4048 136.716 41.4048C137.458 41.4048 138.212 41.1991 138.983 40.7992C139.755 40.3935 140.303 39.9115 140.627 39.3648V27.7947ZM141.11 46.0022L140.868 44.2149C140.321 44.8264 139.596 45.3672 138.689 45.8318C137.788 46.302 136.722 46.5372 135.496 46.5372C133.888 46.5372 132.463 46.1963 131.244 45.5202C130.013 44.844 128.982 43.9386 128.145 42.8099C127.309 41.6811 126.667 40.37 126.231 38.8827C125.801 37.401 125.583 35.8491 125.583 34.2323C125.582 32.7216 125.809 31.2194 126.255 29.7759C126.708 28.3238 127.392 27.0246 128.31 25.8782C129.235 24.7316 130.384 23.8144 131.774 23.1208C133.158 22.427 134.79 22.0744 136.657 22.0744C137.882 22.0744 139.207 22.3035 140.627 22.7504V13.6965H146.641V46.0022H141.11ZM163.581 35.0553C162.933 35.0893 162.262 35.1497 161.578 35.226C160.924 35.3037 160.274 35.4096 159.629 35.5434C158.321 35.8019 157.42 36.243 156.913 36.8721C156.413 37.5071 156.159 38.1889 156.159 38.9355C156.159 39.7058 156.442 40.329 157.013 40.7992C157.585 41.2636 158.386 41.4989 159.428 41.4989C160.212 41.5001 160.987 41.3358 161.702 41.0169C162.432 40.6934 163.063 40.2878 163.581 39.8058V35.0553ZM164.064 45.9845L163.828 44.2385C163.175 44.9558 162.35 45.5202 161.343 45.9257C160.335 46.3316 159.234 46.5372 158.032 46.5372C157.025 46.5372 156.053 46.3666 155.134 46.0257C154.204 45.6909 153.385 45.2027 152.672 44.5736C151.96 43.9445 151.382 43.1742 150.946 42.2514C150.505 41.3283 150.287 40.2878 150.287 39.1237C150.287 37.9656 150.511 36.9365 150.97 36.0489C151.424 35.1612 152.036 34.4144 152.82 33.7973C153.597 33.1858 154.492 32.686 155.5 32.2981C156.501 31.9102 157.561 31.6161 158.663 31.422C159.44 31.2633 160.294 31.1457 161.219 31.0633C162.144 30.9809 162.915 30.9105 163.534 30.8457V30.5048C163.534 29.2113 163.204 28.2943 162.533 27.7417C161.867 27.1948 160.948 26.9185 159.782 26.9185C159.098 26.9185 158.445 27.0009 157.826 27.1656C157.208 27.3242 156.66 27.5244 156.171 27.7653C155.682 28.0122 155.252 28.2532 154.875 28.4943C154.504 28.7353 154.204 28.9528 153.974 29.1468L151.983 24.9373C152.242 24.7082 152.637 24.4376 153.173 24.1143C153.709 23.7909 154.351 23.4734 155.117 23.1677C155.877 22.8618 156.731 22.6033 157.685 22.3917C158.639 22.1801 159.67 22.0744 160.766 22.0744C162.061 22.0744 163.245 22.245 164.311 22.5858C165.377 22.9267 166.302 23.4558 167.08 24.1849C167.851 24.9081 168.458 25.8252 168.9 26.9422C169.336 28.0533 169.554 29.3996 169.554 30.9811V45.9845H164.064ZM188.143 19.0231C187.949 18.9291 187.572 18.788 187.006 18.6113C186.435 18.4352 185.687 18.3468 184.745 18.3468C183.908 18.3468 183.201 18.5999 182.636 19.0994C182.07 19.5991 181.788 20.4162 181.788 21.5452V22.6563H186.836V27.5006H181.835V46.0022H175.815V27.5006H172.711V22.6563H175.815V21.3981C175.815 19.8813 176.009 18.5997 176.398 17.5473C176.787 16.5009 177.329 15.6424 178.024 14.9839C178.719 14.3197 179.538 13.8318 180.474 13.526C181.417 13.22 182.436 13.0674 183.537 13.0674C184.992 13.0674 186.194 13.2027 187.148 13.4791C188.102 13.7556 188.661 13.9376 188.821 14.0376L188.143 19.0231ZM204.548 34.2087C204.548 33.2386 204.43 32.3156 204.206 31.4396C203.982 30.5638 203.64 29.8112 203.187 29.1821C202.733 28.5471 202.186 28.0474 201.538 27.677C200.89 27.3009 200.13 27.1126 199.258 27.1126C198.386 27.1126 197.621 27.3009 196.978 27.677C196.331 28.0474 195.777 28.5471 195.323 29.1821C194.876 29.8112 194.534 30.5638 194.304 31.4396C194.081 32.3157 193.969 33.2386 193.969 34.2089C193.969 35.2141 194.08 36.1489 194.304 37.0072C194.534 37.8656 194.864 38.618 195.3 39.2648C195.736 39.9115 196.289 40.4229 196.949 40.7992C197.615 41.1695 198.386 41.3577 199.258 41.3577C200.13 41.3577 200.889 41.1695 201.538 40.7992C202.186 40.4229 202.733 39.9115 203.187 39.2648C203.64 38.618 203.982 37.8654 204.206 37.0072C204.43 36.1489 204.548 35.2141 204.548 34.2087ZM210.467 34.2344C210.467 35.757 210.231 37.2503 209.76 38.72C209.295 40.1898 208.6 41.5009 207.675 42.665C206.756 43.829 205.59 44.7638 204.182 45.4751C202.775 46.1866 201.131 46.5393 199.258 46.5393C197.379 46.5393 195.736 46.1864 194.334 45.4751C192.926 44.7638 191.76 43.829 190.835 42.665C189.916 41.5009 189.221 40.1898 188.75 38.72C188.284 37.2704 188.047 35.7569 188.049 34.2344C188.049 32.7174 188.279 31.2361 188.75 29.7779C189.221 28.3259 189.916 27.0266 190.835 25.8802C191.76 24.7338 192.926 23.8166 194.334 23.1228C195.736 22.4292 197.379 22.0764 199.258 22.0764C201.131 22.0764 202.769 22.4293 204.159 23.1228C205.549 23.8166 206.715 24.7338 207.652 25.8802C208.594 27.0266 209.295 28.3259 209.76 29.7779C210.231 31.2361 210.467 32.7174 210.467 34.2344ZM229.145 46.0022V32.686C229.145 30.9105 228.774 29.5349 228.032 28.5648C227.284 27.6006 226.253 27.1128 224.922 27.1128C223.985 27.1128 223.119 27.3537 222.33 27.8417C221.535 28.3238 220.846 28.8587 220.263 29.4407V46.0022H214.249V22.6563H219.733L220.021 24.4965C220.969 23.7198 222.045 23.1149 223.202 22.7092C224.38 22.286 225.57 22.0801 226.765 22.0801C227.996 22.0801 229.127 22.2623 230.164 22.6327C231.201 23.009 232.09 23.5971 232.832 24.4023C233.58 25.2079 234.152 26.2602 234.558 27.5478C234.959 28.8411 235.165 30.3932 235.165 32.1981V46.0022H229.145ZM253.884 31.522C253.819 30.7166 253.648 30.0112 253.372 29.4172C253.095 28.8175 252.753 28.3355 252.347 27.9652C251.94 27.5888 251.504 27.3185 251.033 27.1362C250.556 26.96 250.079 26.8716 249.59 26.8716C248.547 26.8716 247.558 27.2595 246.615 28.0357C245.673 28.8118 245.119 29.97 244.954 31.5221L253.884 31.522ZM244.813 35.8314C244.943 37.8009 245.555 39.2236 246.662 40.0937C247.764 40.9638 249.195 41.4048 250.945 41.4048C251.757 41.4048 252.523 41.3283 253.236 41.1872C253.949 41.0404 254.585 40.8579 255.139 40.6287C255.692 40.4051 256.163 40.176 256.552 39.9525C256.941 39.7234 257.23 39.5117 257.43 39.3177L259.032 44.2149C258.802 44.3736 258.437 44.5911 257.936 44.8675C257.436 45.144 256.811 45.3966 256.069 45.6435C255.327 45.8845 254.449 46.0904 253.448 46.2726C252.447 46.4488 251.345 46.5372 250.149 46.5372C248.624 46.5372 247.181 46.2961 245.802 45.814C244.43 45.326 243.223 44.5734 242.192 43.5564C241.155 42.5394 240.331 41.2754 239.718 39.7586C239.099 38.2416 238.793 36.4309 238.793 34.3321C238.793 32.3626 239.076 30.6166 239.642 29.0997C240.207 27.5829 240.984 26.3072 241.968 25.2724C242.957 24.2435 244.106 23.4499 245.414 22.8973C246.727 22.3506 248.123 22.0742 249.614 22.0742C251.104 22.0742 252.476 22.3213 253.742 22.8033C255.003 23.2852 256.093 24.0378 257.017 25.0548C257.936 26.072 258.667 27.3889 259.197 29.0056C259.733 30.6166 259.998 32.539 259.998 34.7671V35.8313L244.813 35.8314Z" fill="#252525"/>
</svg>
