<svg width="243" height="65" viewBox="0 0 243 65" fill="none" xmlns="http://www.w3.org/2000/svg">
<path fill-rule="evenodd" clip-rule="evenodd" d="M63.9998 32.8994C63.9998 48.9947 54.4005 61.1354 39.7286 64.2602V12.3516L18.287 22.2945V24.3062C25.7591 21.3002 27.2384 21.4659 27.2384 28.923V45.8258V64.751C10.8777 62.6852 0 50.0329 0 32.8994C0 14.1388 13.0418 0.750977 32.0431 0.750977C50.958 0.750977 63.9998 14.1388 63.9998 32.8994ZM165.8 53.3386H160.837V10.2093H165.8V29.0562C167.691 25.6886 171.591 23.8571 175.846 23.8571C183.941 23.8571 189.731 29.8243 189.731 39.041C189.731 48.1986 183.941 54.2249 175.846 54.2249C171.473 54.2249 167.632 52.3933 165.8 49.0257V53.3386ZM165.8 35.2598V42.7631C167.219 47.1942 170.646 49.4984 174.841 49.4984C180.691 49.4984 184.532 45.1263 184.532 39.041C184.532 32.8965 180.691 28.5836 174.841 28.5836C170.705 28.5836 167.219 30.8877 165.8 35.2598ZM82.9373 53.3386H88.0189V21.1393L102.791 42.9403L117.563 21.0802V53.3386H122.645V11.9817H118.213L102.791 34.1963L87.369 11.9817H82.9373V53.3386ZM156.581 38.9819C156.581 47.9032 150.199 54.2249 141.572 54.2249C132.886 54.2249 126.505 47.9032 126.505 38.9819C126.505 30.0606 132.886 23.8571 141.572 23.8571C150.199 23.8571 156.581 30.0606 156.581 38.9819ZM141.572 28.5836C135.663 28.5836 131.764 32.8374 131.764 38.9819C131.764 45.1854 135.782 49.4984 141.572 49.4984C147.304 49.4984 151.381 45.1854 151.381 38.9819C151.381 32.8374 147.363 28.5836 141.572 28.5836ZM194.38 53.3386H199.343V24.7433H194.38V53.3386ZM205.614 53.3386H210.578V10.2093H205.614V53.3386ZM232.145 53.8326C239.665 52.5875 243.487 48.1817 242.484 42.1198C241.256 45.5569 237.455 47.923 233.2 48.6276C226.846 49.6797 221.583 47.5569 220.23 40.8341L242.149 37.2047C240.557 27.2279 234.821 22.6083 226.193 24.0369C217.449 25.4848 213.536 32.6003 214.994 41.4018C216.576 50.9609 223.459 55.2709 232.145 53.8326ZM219.68 37.1523C219.287 32.2469 221.856 28.5878 226.753 27.777C232.232 26.8696 235.619 30.3212 236.294 34.4013L219.68 37.1523Z" fill="#252525"/>
<path d="M196.654 17.4765C194.586 17.4765 192.99 15.9404 192.99 13.8725C192.99 11.8047 194.586 10.2095 196.654 10.2095C198.722 10.2095 200.317 11.8047 200.317 13.8725C200.317 15.9404 198.722 17.4765 196.654 17.4765Z" fill="#252525"/>
</svg>
