<svg width="96" height="57" viewBox="0 0 96 57" fill="none" xmlns="http://www.w3.org/2000/svg">
<rect y="0.934326" width="96" height="56" rx="28" fill="#333333"/>
<path fill-rule="evenodd" clip-rule="evenodd" d="M27.9707 21.9387C27.9707 21.1691 28.8037 20.688 29.4703 21.0725L41.5877 28.0616C42.2546 28.4462 42.255 29.4085 41.5884 29.7937L29.471 36.7953C28.8043 37.1805 27.9707 36.6994 27.9707 35.9294V21.9387ZM42.5376 21.0725C41.871 20.688 41.038 21.1692 41.038 21.9388V26.256C41.038 26.6137 41.229 26.9441 41.5389 27.1226L43.1676 28.0605C43.8356 28.4453 43.8355 29.4093 43.1673 29.7938L41.5392 30.7308C41.2291 30.9092 41.038 31.2397 41.038 31.5975V35.9297C41.038 36.6996 41.8716 37.1807 42.5383 36.7955L54.6557 29.7939C55.3223 29.4087 55.3219 28.4464 54.655 28.0618L42.5376 21.0725ZM55.4123 21.0725C54.7457 20.688 53.9127 21.1692 53.9127 21.9388V26.256C53.9127 26.6137 54.1037 26.9441 54.4136 27.1226L56.0423 28.0605C56.7103 28.4453 56.7102 29.4093 56.042 29.7938L54.4139 30.7308C54.1038 30.9092 53.9127 31.2397 53.9127 31.5975V35.9297C53.9127 36.6996 54.7463 37.1807 55.413 36.7955L67.5304 29.7939C68.197 29.4087 68.1966 28.4464 67.5298 28.0618L55.4123 21.0725Z" fill="white" fill-opacity="0.55"/>
<path fill-rule="evenodd" clip-rule="evenodd" d="M27.9707 21.9387C27.9707 21.1691 28.8037 20.688 29.4703 21.0725L41.5877 28.0616C42.2546 28.4462 42.255 29.4085 41.5884 29.7937L29.471 36.7953C28.8043 37.1805 27.9707 36.6994 27.9707 35.9294V21.9387ZM42.5376 21.0725C41.871 20.688 41.038 21.1692 41.038 21.9388V26.256C41.038 26.6137 41.229 26.9441 41.5389 27.1226L43.1676 28.0605C43.8356 28.4453 43.8355 29.4093 43.1673 29.7938L41.5392 30.7308C41.2291 30.9092 41.038 31.2397 41.038 31.5975V35.9297C41.038 36.6996 41.8716 37.1807 42.5383 36.7955L54.6557 29.7939C55.3223 29.4087 55.3219 28.4464 54.655 28.0618L42.5376 21.0725ZM55.4123 21.0725C54.7457 20.688 53.9127 21.1692 53.9127 21.9388V26.256C53.9127 26.6137 54.1037 26.9441 54.4136 27.1226L56.0423 28.0605C56.7103 28.4453 56.7102 29.4093 56.042 29.7938L54.4139 30.7308C54.1038 30.9092 53.9127 31.2397 53.9127 31.5975V35.9297C53.9127 36.6996 54.7463 37.1807 55.413 36.7955L67.5304 29.7939C68.197 29.4087 68.1966 28.4464 67.5298 28.0618L55.4123 21.0725Z" fill="url(#paint0_linear_1095_4703)"/>
<defs>
<linearGradient id="paint0_linear_1095_4703" x1="28.4658" y1="36.61" x2="65.5764" y2="16.4258" gradientUnits="userSpaceOnUse">
<stop stop-color="#2EE1E8"/>
<stop offset="1" stop-color="#DEF4BA"/>
</linearGradient>
</defs>
</svg>
