<svg width="96" height="57" viewBox="0 0 96 57" fill="none" xmlns="http://www.w3.org/2000/svg">
<rect y="0.934326" width="96" height="56" rx="28" fill="#333333"/>
<path fill-rule="evenodd" clip-rule="evenodd" d="M47.0514 30.2731C47.0514 30.3262 47.0724 30.377 47.1099 30.4145L54.9509 38.2554C55.029 38.3335 55.0291 38.4603 54.9496 38.537C52.904 40.5124 50.1195 41.7275 47.0514 41.7275C40.7712 41.7275 35.6797 36.636 35.6797 30.3559C35.6797 24.1422 40.663 19.093 46.8506 18.9859C46.9611 18.984 47.0514 19.0737 47.0514 19.1842V30.2731ZM49.1473 16.1428C49.0369 16.1409 48.9466 16.2307 48.9466 16.3411V27.3128C48.9466 27.4233 49.0361 27.5128 49.1466 27.5128H60.1183C60.2287 27.5128 60.3184 27.4225 60.3165 27.312C60.2108 21.1912 55.2686 16.2488 49.1473 16.1428ZM60.3165 29.6086C60.3184 29.4981 60.2287 29.4084 60.1183 29.4084H49.4294C49.2512 29.4084 49.162 29.6238 49.288 29.7498L56.8461 37.3079C56.9242 37.386 57.0509 37.3861 57.1277 37.3067C59.0601 35.3056 60.2649 32.5976 60.3165 29.6086Z" fill="white" fill-opacity="0.55"/>
<path fill-rule="evenodd" clip-rule="evenodd" d="M47.0514 30.2731C47.0514 30.3262 47.0724 30.377 47.1099 30.4145L54.9509 38.2554C55.029 38.3335 55.0291 38.4603 54.9496 38.537C52.904 40.5124 50.1195 41.7275 47.0514 41.7275C40.7712 41.7275 35.6797 36.636 35.6797 30.3559C35.6797 24.1422 40.663 19.093 46.8506 18.9859C46.9611 18.984 47.0514 19.0737 47.0514 19.1842V30.2731ZM49.1473 16.1428C49.0369 16.1409 48.9466 16.2307 48.9466 16.3411V27.3128C48.9466 27.4233 49.0361 27.5128 49.1466 27.5128H60.1183C60.2287 27.5128 60.3184 27.4225 60.3165 27.312C60.2108 21.1912 55.2686 16.2488 49.1473 16.1428ZM60.3165 29.6086C60.3184 29.4981 60.2287 29.4084 60.1183 29.4084H49.4294C49.2512 29.4084 49.162 29.6238 49.288 29.7498L56.8461 37.3079C56.9242 37.386 57.0509 37.3861 57.1277 37.3067C59.0601 35.3056 60.2649 32.5976 60.3165 29.6086Z" fill="url(#paint0_linear_1095_4710)"/>
<defs>
<linearGradient id="paint0_linear_1095_4710" x1="35.9842" y1="41.2137" x2="64.3221" y2="35.288" gradientUnits="userSpaceOnUse">
<stop stop-color="#2EE1E8"/>
<stop offset="1" stop-color="#DEF4BA"/>
</linearGradient>
</defs>
</svg>
