<svg width="96" height="57" viewBox="0 0 96 57" fill="none" xmlns="http://www.w3.org/2000/svg">
<rect y="0.434326" width="96" height="56" rx="28" fill="#333333"/>
<path fill-rule="evenodd" clip-rule="evenodd" d="M56.1995 24.1958C56.1995 23.6436 55.7518 23.1959 55.1995 23.1958L47.7049 23.1957C47.1443 23.1957 46.6094 22.9604 46.2306 22.5472L42.7442 18.7436C42.6266 18.6153 42.7176 18.4084 42.8916 18.4084H57.8624C59.7233 18.4084 61.2535 19.9381 61.2535 21.8656V31.1719C61.2535 31.7242 61.7012 32.1719 62.2535 32.1719H64.2674C64.4396 32.1719 64.5313 32.3751 64.4173 32.5042L59.4758 38.1035C59.0777 38.5546 58.3742 38.5546 57.9762 38.1034L53.0358 32.5042C52.9219 32.3751 53.0136 32.1719 53.1858 32.1719H55.1995C55.7518 32.1719 56.1995 31.7242 56.1995 31.1719V24.1958ZM39.8015 32.6727C39.8015 33.225 40.2492 33.6727 40.8014 33.6727L48.296 33.6728C48.8567 33.6728 49.3915 33.9081 49.7704 34.3214L53.2568 38.125C53.3744 38.2532 53.2834 38.4601 53.1094 38.4601H38.1386C36.2777 38.4601 34.7475 36.9304 34.7475 35.0029V25.6967C34.7475 25.1444 34.2998 24.6967 33.7475 24.6967H31.7336C31.5614 24.6967 31.4697 24.4935 31.5836 24.3643L36.5252 18.765C36.9233 18.3139 37.6267 18.314 38.0248 18.7651L42.9651 24.3644C43.0791 24.4935 42.9874 24.6967 42.8152 24.6967H40.8015C40.2492 24.6967 39.8015 25.1444 39.8015 25.6967V32.6727Z" fill="white" fill-opacity="0.55"/>
<path fill-rule="evenodd" clip-rule="evenodd" d="M56.1995 24.1958C56.1995 23.6436 55.7518 23.1959 55.1995 23.1958L47.7049 23.1957C47.1443 23.1957 46.6094 22.9604 46.2306 22.5472L42.7442 18.7436C42.6266 18.6153 42.7176 18.4084 42.8916 18.4084H57.8624C59.7233 18.4084 61.2535 19.9381 61.2535 21.8656V31.1719C61.2535 31.7242 61.7012 32.1719 62.2535 32.1719H64.2674C64.4396 32.1719 64.5313 32.3751 64.4173 32.5042L59.4758 38.1035C59.0777 38.5546 58.3742 38.5546 57.9762 38.1034L53.0358 32.5042C52.9219 32.3751 53.0136 32.1719 53.1858 32.1719H55.1995C55.7518 32.1719 56.1995 31.7242 56.1995 31.1719V24.1958ZM39.8015 32.6727C39.8015 33.225 40.2492 33.6727 40.8014 33.6727L48.296 33.6728C48.8567 33.6728 49.3915 33.9081 49.7704 34.3214L53.2568 38.125C53.3744 38.2532 53.2834 38.4601 53.1094 38.4601H38.1386C36.2777 38.4601 34.7475 36.9304 34.7475 35.0029V25.6967C34.7475 25.1444 34.2998 24.6967 33.7475 24.6967H31.7336C31.5614 24.6967 31.4697 24.4935 31.5836 24.3643L36.5252 18.765C36.9233 18.3139 37.6267 18.314 38.0248 18.7651L42.9651 24.3644C43.0791 24.4935 42.9874 24.6967 42.8152 24.6967H40.8015C40.2492 24.6967 39.8015 25.1444 39.8015 25.6967V32.6727Z" fill="url(#paint0_linear_1095_4688)"/>
<defs>
<linearGradient id="paint0_linear_1095_4688" x1="31.9402" y1="38.0574" x2="67.0141" y2="25.5477" gradientUnits="userSpaceOnUse">
<stop stop-color="#2EE1E8"/>
<stop offset="1" stop-color="#DEF4BA"/>
</linearGradient>
</defs>
</svg>
