<?xml version="1.0" encoding="utf-8"?>
<svg xmlns="http://www.w3.org/2000/svg"
	xmlns:xlink="http://www.w3.org/1999/xlink"
	width="168px" height="169px" viewBox="0 0 168 169">
<path fillRule="evenodd" d="M 147.96 133.87C 147.96 133.87 86.31 133.87 86.31 133.87 86.31 133.87 86.31 164.39 86.31 164.39 86.31 164.39 125.62 164.39 125.62 164.39 126.9 164.39 127.93 165.42 127.93 166.69 127.93 167.97 126.9 169 125.62 169 125.62 169 42.38 169 42.38 169 41.1 169 40.07 167.97 40.07 166.69 40.07 165.42 41.1 164.39 42.38 164.39 42.38 164.39 81.69 164.39 81.69 164.39 81.69 164.39 81.69 133.87 81.69 133.87 81.69 133.87 20.04 133.87 20.04 133.87 8.99 133.87 0 124.89 0 113.86 0 113.86 0 51.2 0 51.2 0 51.03 0.01 50.86 0.03 50.69 0.04 50.65 0.05 50.61 0.05 50.56 0.07 50.44 0.09 50.32 0.12 50.19 0.13 50.14 0.14 50.1 0.16 50.05 0.18 49.93 0.22 49.82 0.25 49.71 0.27 49.66 0.29 49.61 0.31 49.56 0.35 49.45 0.4 49.35 0.44 49.24 0.46 49.21 0.47 49.18 0.48 49.15 0.48 49.15 23.6 2.56 23.6 2.56 24.38 0.99 25.99-0 27.75-0 27.75-0 140.25-0 140.25-0 142.01-0 143.62 0.99 144.4 2.56 144.4 2.56 167.52 49.15 167.52 49.15 167.53 49.18 167.54 49.21 167.56 49.24 167.6 49.35 167.65 49.45 167.69 49.56 167.71 49.61 167.73 49.66 167.75 49.71 167.78 49.82 167.82 49.93 167.84 50.05 167.86 50.1 167.87 50.14 167.88 50.19 167.91 50.32 167.93 50.44 167.95 50.56 167.95 50.61 167.96 50.65 167.97 50.69 167.99 50.86 168 51.03 168 51.2 168 51.2 168 113.86 168 113.86 168 124.89 159.01 133.87 147.96 133.87ZM 137.39 9.23C 137.39 9.23 30.61 9.23 30.61 9.23 30.61 9.23 12.08 46.58 12.08 46.58 12.08 46.58 155.92 46.58 155.92 46.58 155.92 46.58 137.39 9.23 137.39 9.23ZM 158.75 55.82C 158.75 55.82 9.25 55.82 9.25 55.82 9.25 55.82 9.25 85.7 9.25 85.7 9.25 85.7 158.75 85.7 158.75 85.7 158.75 85.7 158.75 55.82 158.75 55.82ZM 158.75 94.93C 158.75 94.93 9.25 94.93 9.25 94.93 9.25 94.93 9.25 113.86 9.25 113.86 9.25 119.8 14.09 124.64 20.04 124.64 20.04 124.64 147.96 124.64 147.96 124.64 153.91 124.64 158.75 119.8 158.75 113.86 158.75 113.86 158.75 94.93 158.75 94.93ZM 140.5 114.47C 138.09 114.47 136.13 112.51 136.13 110.1 136.13 107.69 138.09 105.74 140.5 105.74 142.92 105.74 144.88 107.69 144.88 110.1 144.88 112.51 142.92 114.47 140.5 114.47ZM 140.5 108.81C 139.79 108.81 139.21 109.39 139.21 110.1 139.21 110.81 139.79 111.39 140.5 111.39 141.22 111.39 141.8 110.81 141.8 110.1 141.8 109.39 141.22 108.81 140.5 108.81ZM 122.79 114.47C 120.38 114.47 118.41 112.51 118.41 110.1 118.41 107.69 120.38 105.74 122.79 105.74 125.2 105.74 127.16 107.69 127.16 110.1 127.16 112.51 125.2 114.47 122.79 114.47ZM 122.79 108.81C 122.08 108.81 121.5 109.39 121.5 110.1 121.5 110.81 122.08 111.39 122.79 111.39 123.5 111.39 124.08 110.81 124.08 110.1 124.08 109.39 123.5 108.81 122.79 108.81ZM 104.84 114.47C 102.43 114.47 100.47 112.51 100.47 110.1 100.47 107.69 102.43 105.74 104.84 105.74 107.25 105.74 109.22 107.69 109.22 110.1 109.22 112.51 107.25 114.47 104.84 114.47ZM 104.84 108.81C 104.13 108.81 103.55 109.39 103.55 110.1 103.55 110.81 104.13 111.39 104.84 111.39 105.55 111.39 106.13 110.81 106.13 110.1 106.13 109.39 105.55 108.81 104.84 108.81ZM 25.69 120.91C 19.72 120.91 14.87 116.06 14.87 110.1 14.87 104.14 19.72 99.3 25.69 99.3 31.66 99.3 36.52 104.14 36.52 110.1 36.52 116.06 31.66 120.91 25.69 120.91ZM 25.69 103.91C 22.27 103.91 19.49 106.69 19.49 110.1 19.49 113.52 22.27 116.29 25.69 116.29 29.11 116.29 31.89 113.52 31.89 110.1 31.89 106.69 29.11 103.91 25.69 103.91ZM 25.69 59.17C 31.66 59.17 36.52 64.02 36.52 69.97 36.52 75.93 31.66 80.78 25.69 80.78 19.72 80.78 14.87 75.93 14.87 69.97 14.87 64.02 19.72 59.17 25.69 59.17ZM 25.69 76.16C 29.11 76.16 31.89 73.39 31.89 69.97 31.89 66.56 29.11 63.78 25.69 63.78 22.27 63.78 19.49 66.56 19.49 69.97 19.49 73.39 22.27 76.16 25.69 76.16ZM 104.84 65.61C 107.25 65.61 109.22 67.57 109.22 69.97 109.22 72.38 107.25 74.34 104.84 74.34 102.43 74.34 100.47 72.38 100.47 69.97 100.47 67.57 102.43 65.61 104.84 65.61ZM 104.84 71.26C 105.55 71.26 106.13 70.69 106.13 69.97 106.13 69.26 105.55 68.68 104.84 68.68 104.13 68.68 103.55 69.26 103.55 69.97 103.55 70.69 104.13 71.26 104.84 71.26ZM 122.79 65.61C 125.2 65.61 127.16 67.57 127.16 69.97 127.16 72.38 125.2 74.34 122.79 74.34 120.38 74.34 118.41 72.38 118.41 69.97 118.41 67.57 120.38 65.61 122.79 65.61ZM 122.79 71.26C 123.5 71.26 124.08 70.69 124.08 69.97 124.08 69.26 123.5 68.68 122.79 68.68 122.08 68.68 121.5 69.26 121.5 69.97 121.5 70.69 122.08 71.26 122.79 71.26ZM 140.5 65.61C 142.92 65.61 144.88 67.57 144.88 69.97 144.88 72.38 142.92 74.34 140.5 74.34 138.09 74.34 136.13 72.38 136.13 69.97 136.13 67.57 138.09 65.61 140.5 65.61ZM 140.5 71.26C 141.22 71.26 141.8 70.69 141.8 69.97 141.8 69.26 141.22 68.68 140.5 68.68 139.79 68.68 139.21 69.26 139.21 69.97 139.21 70.69 139.79 71.26 140.5 71.26ZM 6.17 164.39C 6.17 164.39 15.93 164.39 15.93 164.39 17.21 164.39 18.24 165.42 18.24 166.69 18.24 167.97 17.21 169 15.93 169 15.93 169 6.17 169 6.17 169 4.89 169 3.86 167.97 3.86 166.69 3.86 165.42 4.89 164.39 6.17 164.39ZM 23.89 164.39C 23.89 164.39 33.65 164.39 33.65 164.39 34.93 164.39 35.97 165.42 35.97 166.69 35.97 167.97 34.93 169 33.65 169 33.65 169 23.89 169 23.89 169 22.62 169 21.58 167.97 21.58 166.69 21.58 165.42 22.62 164.39 23.89 164.39ZM 133.83 164.39C 133.83 164.39 143.59 164.39 143.59 164.39 144.87 164.39 145.91 165.42 145.91 166.69 145.91 167.97 144.87 169 143.59 169 143.59 169 133.83 169 133.83 169 132.56 169 131.52 167.97 131.52 166.69 131.52 165.42 132.56 164.39 133.83 164.39ZM 150.53 164.39C 150.53 164.39 160.29 164.39 160.29 164.39 161.57 164.39 162.6 165.42 162.6 166.69 162.6 167.97 161.57 169 160.29 169 160.29 169 150.53 169 150.53 169 149.25 169 148.22 167.97 148.22 166.69 148.22 165.42 149.25 164.39 150.53 164.39Z" fill="rgb(255,255,255)"/></svg>