<svg id="Слой_1" data-name="Слой 1" xmlns="http://www.w3.org/2000/svg" viewBox="0 0 286.8 444"><defs><style>.cls-1{fill:#fff;}.cls-2{fill:#f7dc2a;}</style></defs><title>Deadline-02</title><path class="cls-1" d="M264.7,399.1a3,3,0,0,1-3-3V344.7a120.51,120.51,0,0,0-48.78-96.49l-35.4-26.1A3,3,0,0,1,178,217,150.61,150.61,0,0,0,261.7,81.6V47.9a3,3,0,1,1,6,0V81.6A157.31,157.31,0,0,1,185,220.14l31.52,23.24A126.54,126.54,0,0,1,267.7,344.7v51.4A3,3,0,0,1,264.7,399.1Z"/><path class="cls-1" d="M22.1,399.1a3,3,0,0,1-3-3V344.7A126.51,126.51,0,0,1,70.32,243.39l31.52-23.25A157.31,157.31,0,0,1,19.1,81.6V47.9a3,3,0,0,1,6,0V81.6A150.61,150.61,0,0,0,108.84,217a3,3,0,0,1,.44,5.09l-35.4,26.1A120.51,120.51,0,0,0,25.1,344.7v51.4A3,3,0,0,1,22.1,399.1Z"/><path class="cls-1" d="M144.76,207.54a22.71,22.71,0,0,1-11.12-2.92l-39.19-21.7A80.63,80.63,0,0,1,53.9,113.1a3,3,0,0,1,3-3l172.9-.1h0a3,3,0,0,1,3,3v1.2a80.17,80.17,0,0,1-41.86,70.63l-35.47,20A22.33,22.33,0,0,1,144.76,207.54ZM60,116.1a74.67,74.67,0,0,0,37.43,61.6l39.16,21.68a16.51,16.51,0,0,0,16,.18l35.46-20A74.17,74.17,0,0,0,226.78,116Z"/><path class="cls-2" d="M50.2,396.1,103,325.9a52,52,0,0,1,41.6-20.8h0A52.13,52.13,0,0,1,187,326.9l49.5,69.2"/><path class="cls-1" d="M269.3,38.6H17.5A17.52,17.52,0,0,1,0,21.1V17.5A17.52,17.52,0,0,1,17.5,0H269.3a17.52,17.52,0,0,1,17.5,17.5v3.6A17.52,17.52,0,0,1,269.3,38.6ZM17.5,6A11.51,11.51,0,0,0,6,17.5v3.6A11.51,11.51,0,0,0,17.5,32.6H269.3a11.51,11.51,0,0,0,11.5-11.5V17.5A11.51,11.51,0,0,0,269.3,6Z"/><path class="cls-1" d="M269.3,444H17.5A17.52,17.52,0,0,1,0,426.5v-3.6a17.52,17.52,0,0,1,17.5-17.5H269.3a17.52,17.52,0,0,1,17.5,17.5v3.6A17.52,17.52,0,0,1,269.3,444ZM17.5,411.4A11.51,11.51,0,0,0,6,422.9v3.6A11.51,11.51,0,0,0,17.5,438H269.3a11.51,11.51,0,0,0,11.5-11.5v-3.6a11.51,11.51,0,0,0-11.5-11.5Z"/></svg>