<svg id="Layer_1" data-name="Layer 1" xmlns="http://www.w3.org/2000/svg" viewBox="0 0 512 512"><defs><style>.cls-1{fill:#fff;}.cls-2{fill:#f7dc2a;}</style></defs><title>idea</title><path class="cls-1" d="M291.7,475.7H220.2a31.13,31.13,0,0,1-31.1-31.1V382.8a93.94,93.94,0,0,0-27.78-66.53A133.46,133.46,0,0,1,257,89.1a133.75,133.75,0,0,1,84.11,30.81,3.5,3.5,0,1,1-4.48,5.38A126.68,126.68,0,0,0,257,96.1H255.9a126.25,126.25,0,0,0-89.62,215.23A100.9,100.9,0,0,1,196.1,382.8v61.8a24.13,24.13,0,0,0,24.1,24.1h71.5a24.13,24.13,0,0,0,24.1-24.1V382.8a100.33,100.33,0,0,1,29.73-71.37,126.22,126.22,0,0,0,7-170.47,3.5,3.5,0,0,1,5.34-4.52,133.2,133.2,0,0,1-7.38,179.92A93.42,93.42,0,0,0,322.8,382.8v61.8A31.13,31.13,0,0,1,291.7,475.7Z"/><path class="cls-1" d="M317.1,389.6H191.6a3.5,3.5,0,0,1,0-7H317.1a3.5,3.5,0,0,1,0,7Z"/><path class="cls-1" d="M221.5,417.6h-29a3.5,3.5,0,0,1,0-7h29a3.5,3.5,0,0,1,0,7Z"/><path class="cls-1" d="M317.1,417.2h-82a3.5,3.5,0,1,1,0-7h82a3.5,3.5,0,0,1,0,7Z"/><path class="cls-1" d="M272.3,445.2H192.5a3.5,3.5,0,0,1,0-7h79.8a3.5,3.5,0,0,1,0,7Z"/><path class="cls-1" d="M317.1,445.2H291.6a3.5,3.5,0,0,1,0-7h25.5a3.5,3.5,0,0,1,0,7Z"/><path class="cls-1" d="M255.9,503.1a3.5,3.5,0,0,1-3.5-3.5V472.2a3.5,3.5,0,1,1,7,0v27.4A3.5,3.5,0,0,1,255.9,503.1Z"/><path class="cls-2" d="M255.9,261a38.7,38.7,0,1,1,38.7-38.7A38.74,38.74,0,0,1,255.9,261Zm0-70.4a31.7,31.7,0,1,0,31.7,31.7A31.74,31.74,0,0,0,255.9,190.6Z"/><path class="cls-1" d="M255.9,321.3a99,99,0,1,1,99-99A99.11,99.11,0,0,1,255.9,321.3Zm0-191a92,92,0,1,0,92,92A92.1,92.1,0,0,0,255.9,130.3Z"/><path class="cls-2" d="M255.9,225.8a3.5,3.5,0,0,1-2.48-6L351.72,121l-7.56-39.79a3.49,3.49,0,0,1,1-3.14l54-53.4a3.5,3.5,0,0,1,5.87,1.7l8.73,37.65,35.67,9.56a3.5,3.5,0,0,1,1.72,5.69l-47.7,54.5a3.51,3.51,0,0,1-3.33,1.12L356.65,126l-98.27,98.76A3.47,3.47,0,0,1,255.9,225.8ZM362.57,120.08l36.94,7.58,42.65-48.73L411.85,70.8Zm-11.18-38.3,6.31,33.27L407,65.8,399.6,34.1Z"/><path class="cls-2" d="M260.6,67.8a3.5,3.5,0,0,1-3.5-3.5V12.4a3.5,3.5,0,1,1,7,0V64.3A3.5,3.5,0,0,1,260.6,67.8Z"/><path class="cls-2" d="M457.9,211.9H406a3.5,3.5,0,0,1,0-7h51.9a3.5,3.5,0,0,1,0,7Z"/><path class="cls-2" d="M106,211.9H54.1a3.5,3.5,0,1,1,0-7H106a3.5,3.5,0,0,1,0,7Z"/><path class="cls-2" d="M151.5,106.3a3.48,3.48,0,0,1-2.48-1l-36.7-36.69a3.5,3.5,0,1,1,5-4.95L154,100.32a3.51,3.51,0,0,1-2.48,6Z"/><polygon class="cls-2" points="349.9 81.8 357.7 119.9 400.8 131.5 446.2 79.3 410.8 66.9 402.2 29.9 349.9 81.8"/></svg>