<svg id="Layer_1" data-name="Layer 1" xmlns="http://www.w3.org/2000/svg" viewBox="0 0 512 512"><defs><style>.cls-1{fill:#f8dd2a;}</style></defs><title>instagram 2</title><path class="cls-1" d="M373.66,0H138.34C62.06,0,0,62.06,0,138.34V373.66C0,449.94,62.06,512,138.34,512H373.66C449.94,512,512,449.94,512,373.66V138.34C512,62.06,449.94,0,373.66,0Zm97,373.66a97.1,97.1,0,0,1-97,97H138.34a97.1,97.1,0,0,1-97-97V138.34a97.1,97.1,0,0,1,97-97H373.66a97.1,97.1,0,0,1,97,97Z"/><path class="cls-1" d="M370.59,238.14a114.84,114.84,0,0,0-96.73-96.73A114.82,114.82,0,0,0,188.62,347.2a114,114,0,0,0,68.15,22.61,116,116,0,0,0,17.09-1.26,114.82,114.82,0,0,0,96.73-130.41Zm-102.8,89.49a73.44,73.44,0,1,1,61.88-83.42A73,73,0,0,1,267.79,327.63Z"/><path class="cls-1" d="M400.05,112a20.68,20.68,0,1,0,6.06,14.63A20.83,20.83,0,0,0,400.05,112Z"/></svg>