<svg id="Capa_1" data-name="Capa 1" xmlns="http://www.w3.org/2000/svg" viewBox="0 0 512.08 512.08"><defs><style>.cls-1{fill:#fff;}</style></defs><title>call</title><path class="cls-1" d="M498.64,395,395,325.92a30.24,30.24,0,0,0-40.5,6.58l-30.2,38.82a12.9,12.9,0,0,1-16.54,3.48L302,371.63c-19-10.37-42.73-23.29-90.46-71s-60.67-71.45-71.05-90.45l-3.15-5.74a12.92,12.92,0,0,1,3.42-16.61l38.79-30.18a30.27,30.27,0,0,0,6.59-40.51L117,13.45A30.11,30.11,0,0,0,76.46,4.32l-43.34,26A61.11,61.11,0,0,0,5.24,66.54c-15.6,56.86-3.86,155,140.71,299.6,115,115,200.62,145.92,259.46,145.92a151.68,151.68,0,0,0,40.11-5.24,61.11,61.11,0,0,0,36.18-27.88l26.06-43.32A30.1,30.1,0,0,0,498.64,395Zm-5.58,31.83-26,43.34a44.1,44.1,0,0,1-26,20.17c-52.5,14.42-144.21,2.48-283-136.32S7.29,123.56,21.7,71.05A44.24,44.24,0,0,1,41.9,45L85.24,19a13.07,13.07,0,0,1,17.61,4l37.54,56.37,31.52,47.27a13.15,13.15,0,0,1-2.85,17.58l-38.8,30.18a29.86,29.86,0,0,0-7.91,38.33l3.08,5.6c10.9,20,24.46,44.88,74,94.38s74.38,63,94.37,74l5.61,3.09a29.89,29.89,0,0,0,38.33-7.91L367.88,343a13.14,13.14,0,0,1,17.58-2.85L489.1,409.26A13.06,13.06,0,0,1,493.06,426.87Z"/><path class="cls-1" d="M290.16,85.39A145.24,145.24,0,0,1,435.23,230.46a8.53,8.53,0,0,0,17.06,0A162.31,162.31,0,0,0,290.16,68.32a8.54,8.54,0,0,0,0,17.07Z"/><path class="cls-1" d="M290.16,136.59A94,94,0,0,1,384,230.46a8.53,8.53,0,1,0,17.06,0A111.06,111.06,0,0,0,290.16,119.52a8.54,8.54,0,0,0,0,17.07Z"/><path class="cls-1" d="M290.16,187.79a42.72,42.72,0,0,1,42.67,42.67,8.53,8.53,0,1,0,17.06,0,59.8,59.8,0,0,0-59.73-59.74,8.54,8.54,0,0,0,0,17.07Z"/></svg>