<svg id="Слой_1" data-name="Слой 1" xmlns="http://www.w3.org/2000/svg" viewBox="0 0 512 512"><defs><style>.cls-1{fill:#fff;}.cls-2{fill:#f7dc2a;fill-rule:evenodd;}</style></defs><title>video-01</title><path class="cls-1" d="M402.9,500.9h-129a3.5,3.5,0,0,1,0-7h129a46.55,46.55,0,0,0,46.5-46.5V215.7H41V447.4a46.55,46.55,0,0,0,46.5,46.5H213.9a3.5,3.5,0,0,1,0,7H87.5A53.56,53.56,0,0,1,34,447.4V212.2a3.5,3.5,0,0,1,3.5-3.5H452.9a3.5,3.5,0,0,1,3.5,3.5V447.4A53.56,53.56,0,0,1,402.9,500.9Z"/><path class="cls-1" d="M37.4,216.4A3.5,3.5,0,0,1,34,213.84l-15.3-54.9A53.54,53.54,0,0,1,55.86,93l124.2-34.6L238,42.33h0l121.8-33.9a53.49,53.49,0,0,1,65.91,37.13l15.3,54.9a3.49,3.49,0,0,1-2.43,4.31L38.34,216.27A3.38,3.38,0,0,1,37.4,216.4Zm336.81-203a47,47,0,0,0-12.57,1.73l-121.8,33.9h0l-57.9,16.1L57.74,99.77a46.55,46.55,0,0,0-32.27,57.29l14.36,51.53L433.29,99,418.93,47.44a46.55,46.55,0,0,0-44.72-34ZM238.9,45.7h0Z"/><path class="cls-1" d="M450.8,309.2H37.5a3.5,3.5,0,0,1,0-7H450.8a3.5,3.5,0,0,1,0,7Z"/><circle class="cls-1" cx="243.9" cy="497.4" r="4.6"/><path class="cls-1" d="M96.9,309.2a3.45,3.45,0,0,1-1.8-.5,3.49,3.49,0,0,1-1.2-4.8l55.6-92.8a3.5,3.5,0,0,1,6,3.6L99.9,307.5A3.49,3.49,0,0,1,96.9,309.2Z"/><path class="cls-1" d="M155,182.8a3.49,3.49,0,0,1-2.39-.94L62,97.26a3.5,3.5,0,0,1,4.78-5.12l90.6,84.6A3.5,3.5,0,0,1,155,182.8Z"/><path class="cls-1" d="M231.3,162.1a3.49,3.49,0,0,1-2.39-.94l-90.6-84.5a3.5,3.5,0,1,1,4.78-5.12l90.6,84.5a3.5,3.5,0,0,1-2.39,6.06Z"/><path class="cls-1" d="M307.5,140.5a3.49,3.49,0,0,1-2.39-.94l-90.5-84.5a3.5,3.5,0,1,1,4.78-5.12l90.5,84.5a3.5,3.5,0,0,1-2.39,6.06Z"/><path class="cls-1" d="M383.4,118.6a3.49,3.49,0,0,1-2.39-.94l-90.6-84.6a3.5,3.5,0,0,1,4.78-5.12l90.6,84.6a3.5,3.5,0,0,1-2.39,6.06Z"/><path class="cls-1" d="M177.5,309.2a3.5,3.5,0,0,1-3-5.3L230,211.1a3.5,3.5,0,1,1,6,3.6l-55.5,92.8A3.49,3.49,0,0,1,177.5,309.2Z"/><path class="cls-1" d="M254.3,309.2a3.5,3.5,0,0,1-3-5.3l55.5-92.8a3.5,3.5,0,1,1,6,3.6l-55.5,92.8A3.49,3.49,0,0,1,254.3,309.2Z"/><path class="cls-1" d="M334.8,309.2a3.5,3.5,0,0,1-3-5.3l55.5-92.8a3.5,3.5,0,1,1,6,3.6l-55.5,92.8A3.49,3.49,0,0,1,334.8,309.2Z"/><path class="cls-2" d="M313.1,400.5a10,10,0,0,0-5-8.7l-87.9-50.7a9.93,9.93,0,0,0-10,0,10,10,0,0,0-5,8.7V451.2a10,10,0,0,0,5,8.7,10.27,10.27,0,0,0,10,0l87.9-50.7A10,10,0,0,0,313.1,400.5Z"/></svg>