<svg id="Capa_1" data-name="Capa 1" xmlns="http://www.w3.org/2000/svg" viewBox="0 0 512 512"><defs><style>.cls-1{fill:#fff;}</style></defs><title>youtube-logo</title><path id="YouTube" class="cls-1" d="M403.56,374.51H375.47l.13-16.32A13.25,13.25,0,0,1,388.83,345h1.79a13.27,13.27,0,0,1,13.27,13.19Zm-105.39-35c-7.13,0-13,4.79-13,10.65v79.38c0,5.85,5.83,10.63,13,10.63s13-4.78,13-10.63V350.19C311.17,344.32,305.33,339.54,298.17,339.54Zm171.16-44.41v151c0,36.22-31.41,65.86-69.8,65.86h-287c-38.41,0-69.81-29.64-69.81-65.86v-151c0-36.22,31.4-65.86,69.81-65.86h287C437.92,229.27,469.33,258.91,469.33,295.13ZM131.62,462.54l0-159.07h35.59V279.91l-94.86-.14v23.17l29.61.08V462.54ZM238.29,327.16H208.62V412.1c0,12.29.75,18.44,0,20.6-2.41,6.59-13.26,13.59-17.48.71-.72-2.25-.09-9.05-.1-20.72l-.12-85.53h-29.5l.09,84.19c0,12.9-.29,22.52.1,26.9.72,7.72.47,16.72,7.63,21.86,13.35,9.62,38.93-1.43,45.33-15.18l-.06,17.54,23.83,0V327.16Zm94.91,97.27-.06-70.69c0-26.95-20.18-43.08-47.54-21.28l.12-52.56-29.63,0-.15,181.42,24.37-.35,2.22-11.3C313.67,478.28,333.24,458.7,333.2,424.43Zm92.85-9.37-22.25.12c0,.88,0,1.9-.05,3V430.6a12.15,12.15,0,0,1-12.16,12.06h-4.36a12.15,12.15,0,0,1-12.17-12.06V398H426V378.78c0-14-.36-28-1.52-36-3.64-25.34-39.21-29.36-57.18-16.39a33.5,33.5,0,0,0-12.44,16.75q-3.8,10.94-3.79,29.89v42.15C351.08,485.24,436.2,475.34,426.05,415.06ZM311.94,186.21a20.25,20.25,0,0,0,7.13,9c3.19,2.24,7.26,3.37,12.14,3.37a18.91,18.91,0,0,0,11.37-3.54,27.22,27.22,0,0,0,8.32-10.64L350.34,196h33.07V55.41h-26V164.86a10.84,10.84,0,0,1-21.68,0V55.41H308.53v94.86c0,12.08.22,20.13.58,24.22A40.75,40.75,0,0,0,311.94,186.21ZM211.72,106.78q0-20.25,3.37-31.64a35.27,35.27,0,0,1,12.15-18.25Q236,50,249.66,50c7.65,0,14.21,1.5,19.68,4.44A32.81,32.81,0,0,1,282,66a45.7,45.7,0,0,1,6.12,14.64c1.11,5.07,1.65,12.71,1.65,23v35.56c0,13-.52,22.65-1.54,28.74A45.65,45.65,0,0,1,281.74,185,30.9,30.9,0,0,1,269,196.7a40.54,40.54,0,0,1-17.95,3.78c-7.53,0-13.88-1-19.12-3.22a26.21,26.21,0,0,1-12.19-9.75,43.2,43.2,0,0,1-6.22-15.77c-1.24-6.15-1.83-15.4-1.83-27.73V106.78Zm25.9,55.87c0,8,5.93,14.46,13.15,14.46s13.13-6.5,13.13-14.46V87.78c0-8-5.9-14.46-13.13-14.46s-13.15,6.51-13.15,14.46Zm-91.52,37.8h31.2l0-107.86L214.2.19H180.08l-19.6,68.63L140.6,0H106.83l39.22,92.64Z"/></svg>