<svg id="Слой_1" data-name="Слой 1" xmlns="http://www.w3.org/2000/svg" viewBox="0 0 531.5 512.6"><defs><style>.cls-1{fill:#fff;}.cls-2{fill:#f7dc2a;}</style></defs><title>Экономия времени</title><path class="cls-1" d="M74.2,405.6a3.45,3.45,0,0,1-2.3-1c-1.5-1.7-36.6-43.1-46.7-91.3C17.8,277.9,5.7,242,.8,228.2a16.42,16.42,0,0,1,.7-12.5,16,16,0,0,1,9.3-8.2,16.31,16.31,0,0,1,12.8.9,16.66,16.66,0,0,1,8.2,10c8,28,22.4,71.6,27.6,77.3,2.4,2.7,5,5.9,8.1,9.5,16.2,19.3,40.7,48.4,67.9,60.8a3,3,0,1,1-2.5,5.5c-28.4-12.9-53.5-42.7-70-62.4-3-3.6-5.7-6.8-8-9.4-7.4-8.2-24.6-64.9-28.8-79.7a10.19,10.19,0,0,0-5.2-6.3,10.37,10.37,0,0,0-8.1-.6,10.1,10.1,0,0,0-5.9,5.2,10.33,10.33,0,0,0-.5,7.9c4.9,13.9,17.1,50.1,24.6,85.9,9.7,46.7,45,88.3,45.3,88.7A3,3,0,0,1,76,405,2.61,2.61,0,0,1,74.2,405.6Z"/><path class="cls-1" d="M73.3,275.6a3,3,0,0,1-2.9-2.2L58,225.6a13,13,0,0,0-5.9-7.9,10.21,10.21,0,0,0-8-.8c-6,2-9.4,9-7.6,15.7l2.2,8.6a3,3,0,1,1-5.8,1.4L30.7,234c-2.6-9.6,2.6-19.9,11.6-22.9a15.93,15.93,0,0,1,12.8,1.2A18.8,18.8,0,0,1,64,223.9l12.4,47.8a3.05,3.05,0,0,1-2.2,3.7A1.83,1.83,0,0,1,73.3,275.6Z"/><path class="cls-1" d="M107.2,293.6a3,3,0,0,1-2.9-2.2L89.8,235.6a13,13,0,0,0-5.9-7.9,10.21,10.21,0,0,0-8-.8c-6,2-9.4,9-7.6,15.7a3,3,0,0,1-5.8,1.6c-2.6-9.7,2.6-19.9,11.5-22.9a15.93,15.93,0,0,1,12.8,1.2,18.8,18.8,0,0,1,8.9,11.6l14.5,55.8a3.07,3.07,0,0,1-2.1,3.7Z"/><path class="cls-1" d="M144.2,323.6a3,3,0,0,1-2.9-2.3l-18.6-74.8a12.14,12.14,0,0,0-5.9-7.8,10.21,10.21,0,0,0-8-.8c-6,2-9.4,9-7.6,15.7l2.2,8.5a3,3,0,1,1-5.9,1.5l-2.2-8.5c-2.6-9.6,2.6-19.9,11.6-22.9a15.93,15.93,0,0,1,12.8,1.2,18.8,18.8,0,0,1,8.9,11.6l18.6,74.8a3,3,0,0,1-2.2,3.6A1.34,1.34,0,0,1,144.2,323.6Z"/><path class="cls-1" d="M136.2,512.6a3,3,0,0,1-3-3V450.1c-19.8-4.5-36.6-25.7-37.4-26.6a3,3,0,1,1,4.7-3.7c.2.2,17.5,22.1,36.1,24.9a3,3,0,0,1,2.6,3v62A2.93,2.93,0,0,1,136.2,512.6Z"/><path class="cls-1" d="M222.2,512.6a3,3,0,0,1-3-3V444.3c0-.3,2.6-33.5-17.6-66.2-16.2-26.3-34.7-38.8-52.5-50.9-4.8-3.3-9.8-6.7-14.7-10.3a333.6,333.6,0,0,1-42.6-37.8,10.5,10.5,0,0,0-14.6-.8,10.54,10.54,0,0,0-.7,15.4l18,18.6a3,3,0,0,1-4.3,4.1l-18-18.6a16.41,16.41,0,0,1-4.7-12.3,16.64,16.64,0,0,1,28.7-10.7,320.68,320.68,0,0,0,41.8,37c4.8,3.5,9.7,6.9,14.5,10.1,18.4,12.4,37.3,25.3,54.2,52.7,20.8,33.7,18.7,66.9,18.4,69.7v64.9C225.2,511.3,223.9,512.6,222.2,512.6Z"/><path class="cls-1" d="M457.2,405.6a3.06,3.06,0,0,1-2-.7,2.91,2.91,0,0,1-.3-4.2c.4-.4,35.6-42,45.3-88.7,7.5-35.8,19.7-72,24.6-85.9a10.33,10.33,0,0,0-.5-7.9,10.1,10.1,0,0,0-5.9-5.2,10.37,10.37,0,0,0-8.1.6,10.51,10.51,0,0,0-5.2,6.3c-4.2,14.7-21.5,71.4-28.8,79.7-2.3,2.6-4.9,5.8-8,9.4-16.5,19.7-41.6,49.4-70,62.4a3,3,0,1,1-2.5-5.5c27.2-12.4,51.7-41.5,67.9-60.8,3.1-3.7,5.7-6.8,8.1-9.5,5.1-5.7,19.6-49.4,27.6-77.3a16.33,16.33,0,0,1,8.2-10,16.23,16.23,0,0,1,22.8,19.8c-4.9,13.8-17,49.7-24.4,85.1-10,48.2-45.2,89.6-46.7,91.3A2.48,2.48,0,0,1,457.2,405.6Z"/><path class="cls-1" d="M458.1,275.6a2.49,2.49,0,0,1-.8-.1,3.09,3.09,0,0,1-2.2-3.7L467.5,224a18.13,18.13,0,0,1,8.9-11.6,15.93,15.93,0,0,1,12.8-1.2c9,3,14.2,13.3,11.6,22.9l-2.2,8.6a3,3,0,1,1-5.8-1.4l2.2-8.6c1.8-6.7-1.6-13.7-7.6-15.7a9.77,9.77,0,0,0-8,.8,12.34,12.34,0,0,0-5.9,7.9L461,273.4A3,3,0,0,1,458.1,275.6Z"/><path class="cls-1" d="M424.2,293.6a2.2,2.2,0,0,1-.8-.1,3,3,0,0,1-2.1-3.7L435.8,234a18.13,18.13,0,0,1,8.9-11.6,15.93,15.93,0,0,1,12.8-1.2c9,3,14.2,13.3,11.6,22.9a3,3,0,1,1-5.8-1.6c1.8-6.6-1.6-13.7-7.7-15.7a9.77,9.77,0,0,0-8,.8,12.34,12.34,0,0,0-5.9,7.9l-14.5,55.8A3.18,3.18,0,0,1,424.2,293.6Z"/><path class="cls-1" d="M387.2,323.6a1.7,1.7,0,0,1-.7-.1,3,3,0,0,1-2.2-3.6l18.5-74.8a18.2,18.2,0,0,1,8.9-11.6,15.93,15.93,0,0,1,12.8-1.2c9,3,14.2,13.3,11.6,22.9l-2.2,8.5a3,3,0,0,1-3.7,2.2,3.09,3.09,0,0,1-2.2-3.7l2.2-8.5c1.8-6.7-1.6-13.7-7.6-15.7a9.77,9.77,0,0,0-8,.8,12.34,12.34,0,0,0-5.9,7.9l-18.5,74.8A3.26,3.26,0,0,1,387.2,323.6Z"/><path class="cls-1" d="M395.2,512.6a3,3,0,0,1-3-3v-62a3.1,3.1,0,0,1,2.6-3c18.6-2.8,35.9-24.7,36.1-24.9a3,3,0,0,1,4.7,3.7c-.7.9-17.5,22.1-37.4,26.6v59.5A3,3,0,0,1,395.2,512.6Z"/><path class="cls-1" d="M309.2,512.6a3,3,0,0,1-3-3V444.7c-.2-2.8-2.4-36,18.4-69.7,16.9-27.4,35.9-40.3,54.2-52.7,4.8-3.2,9.7-6.6,14.5-10.1a328.22,328.22,0,0,0,41.8-37,16.58,16.58,0,0,1,23-1.2,16.47,16.47,0,0,1,1.1,24.1l-18,18.6a3,3,0,0,1-4.3-4.1l18-18.6a10.1,10.1,0,0,0,3-7.9,10.68,10.68,0,0,0-3.7-7.6,10.53,10.53,0,0,0-14.7.8c-11.3,12.2-28.1,27-42.6,37.8-4.9,3.6-9.9,7-14.7,10.3-17.8,12.1-36.3,24.6-52.5,50.9-20.2,32.8-17.6,65.8-17.6,66.2v65.3A2.76,2.76,0,0,1,309.2,512.6Z"/><path class="cls-2" d="M262.6,262c-72.2,0-131-58.8-131-131S190.4,0,262.6,0s131,58.8,131,131S334.8,262,262.6,262Zm0-241a110,110,0,1,0,110,110A110.07,110.07,0,0,0,262.6,21Z"/><path class="cls-2" d="M262.6,282.6a3,3,0,0,1,0-6c80.3,0,145.6-65.3,145.6-145.6A145.5,145.5,0,0,0,351.9,16l3.1,8.6a3,3,0,1,1-5.6,2L342.9,8.8a3,3,0,0,1,4.5-3.5A151.71,151.71,0,0,1,414.2,131C414.2,214.6,346.2,282.6,262.6,282.6Z"/><path class="cls-2" d="M216.3,63.3a2.85,2.85,0,0,1-2.5-1.4,2.92,2.92,0,0,1,.9-4.1c3.2-2,6.1-3.7,9-5.2a3,3,0,0,1,2.7,5.3,83.76,83.76,0,0,0-8.4,4.8A2.93,2.93,0,0,1,216.3,63.3Z"/><path class="cls-2" d="M262.6,218.5a87.51,87.51,0,0,1-55.7-155,3,3,0,1,1,3.8,4.6,81.56,81.56,0,1,0,51.9-18.6,84.24,84.24,0,0,0-26.3,4.3,3,3,0,0,1-1.9-5.7,87.54,87.54,0,1,1,28.2,170.4Z"/><path class="cls-2" d="M262.2,150.6a20,20,0,1,1,20-20A20.06,20.06,0,0,1,262.2,150.6Zm0-34a14,14,0,1,0,14,14A14,14,0,0,0,262.2,116.6Z"/><path class="cls-2" d="M251.2,120.6a3,3,0,0,1-2.3-1.1l-20-24a3,3,0,1,1,4.6-3.8l20,24a2.91,2.91,0,0,1-.4,4.2A2.64,2.64,0,0,1,251.2,120.6Z"/><path class="cls-2" d="M262.2,116.6a3,3,0,0,1-3-3v-60a3,3,0,0,1,6,0v60A3,3,0,0,1,262.2,116.6Z"/><path class="cls-2" d="M335.2,133.6h-8a3,3,0,0,1,0-6h8a3,3,0,0,1,0,6Z"/><path class="cls-2" d="M196.2,133.6h-8a3,3,0,0,1,0-6h8a3,3,0,0,1,0,6Z"/><path class="cls-2" d="M262.2,206.6a3,3,0,0,1-3-3v-8a3,3,0,1,1,6,0v8A3,3,0,0,1,262.2,206.6Z"/><path class="cls-2" d="M366.2,11.6H366l-20-1a2.92,2.92,0,0,1-2.8-3.1,3,3,0,0,1,3.1-2.8l20,1a2.92,2.92,0,0,1,2.8,3.1A2.82,2.82,0,0,1,366.2,11.6Z"/></svg>