<svg id="Слой_1" data-name="Слой 1" xmlns="http://www.w3.org/2000/svg" viewBox="0 0 696.2 392.7"><defs><style>.cls-1{fill:#fff;}.cls-2{fill:#f7dc2a;}</style></defs><title>Эскизы-03</title><path class="cls-1" d="M479.5,140.3a3,3,0,0,1-3-3V110.8a3,3,0,1,1,6,0v26.5A3,3,0,0,1,479.5,140.3Z"/><path class="cls-1" d="M477.6,81.2a3,3,0,0,1-3-2.69C472.94,62.32,457.09,51.39,442.31,49l-.14,0c-13.22-2.82-25.72-2.76-38.95-2.7-4.17,0-8.48,0-12.87,0a3,3,0,0,1,0-6h.05c4.33.07,8.61,0,12.75,0,13.54-.06,26.33-.12,40.16,2.82,17,2.83,35.24,15.69,37.22,34.84a3,3,0,0,1-2.67,3.29A1.67,1.67,0,0,1,477.6,81.2Z"/><path class="cls-1" d="M320.14,46.24c-6.05,0-12.13,0-18.16,0a3,3,0,0,1,0-6h0c12.05.07,24.32,0,36.18,0l18.2,0a3,3,0,0,1,0,6l-18.19,0Z"/><path class="cls-1" d="M266.9,46.3h-50a3,3,0,0,1,0-6h50a3,3,0,0,1,0,6Z"/><path class="cls-1" d="M130.1,46.5a3,3,0,0,1,0-6c16.37,0,33.29,0,49.88-.1h0a3,3,0,0,1,0,6C163.41,46.5,146.48,46.5,130.1,46.5Z"/><path class="cls-1" d="M275.32,392.55c-80.93,0-156.1-.72-227.18-2.15-15.62,0-30.77-9-40.47-24.18C3,358.43.9,351.72.9,344.4c0-25.16-.21-50.74-.4-75.48C0,206.56-.52,142.07,2.2,78.57a3.16,3.16,0,0,1,.2-.95c7.85-20.43,20.08-32.56,36.37-36.05,14-2.8,27.33-2.28,40.22-1.77,5,.2,10.2.4,15.31.4a3,3,0,0,1,0,6c-5.23,0-10.47-.21-15.55-.41-12.54-.49-25.51-1-38.76,1.65C25.77,50.49,15.35,60.93,8.18,79.32,5.48,142.51,6,206.75,6.5,268.88c.19,24.74.4,50.33.4,75.52,0,6.25,1.76,11.83,5.87,18.65,8.54,13.34,21.8,21.35,35.43,21.35,115.79,2.33,242.38,2.76,387.07,1.3,8.24,0,17.63-3.87,25.82-10.63,4-3.87,7.19-7.2,9.37-11.59.46-1.17,1-2.38,1.49-3.62,2.13-5.08,4.55-10.85,4.55-15.36.87-36.26.57-72.55.29-107.65-.14-17.67-.29-35.94-.29-54a3,3,0,1,1,6,0c0,18.09.15,36.34.29,54,.28,35.15.58,71.49-.29,107.77,0,5.65-2.67,12-5,17.61-.52,1.24-1,2.46-1.49,3.63a2,2,0,0,1-.1.21c-2.82,5.76-7.19,10-10.7,13.43-.06.05-.11.11-.18.16-9.26,7.68-20.1,12.09-29.71,12.09C379.42,392.26,326.23,392.55,275.32,392.55Z"/><path class="cls-1" d="M116.1,76.8h-6.9a16,16,0,0,1-16-16V16a16,16,0,0,1,16-16h6.9a16,16,0,0,1,16,16V60.8A16,16,0,0,1,116.1,76.8ZM109.2,6a10,10,0,0,0-10,10V60.8a10,10,0,0,0,10,10h6.9a10,10,0,0,0,10-10V16a10,10,0,0,0-10-10Z"/><path class="cls-1" d="M202.1,76.8h-6.9a16,16,0,0,1-16-16V16a16,16,0,0,1,16-16h6.9a16,16,0,0,1,16,16V60.8A16,16,0,0,1,202.1,76.8ZM195.2,6a10,10,0,0,0-10,10V60.8a10,10,0,0,0,10,10h6.9a10,10,0,0,0,10-10V16a10,10,0,0,0-10-10Z"/><path class="cls-1" d="M288.1,76.8h-6.9a16,16,0,0,1-16-16V16a16,16,0,0,1,16-16h6.9a16,16,0,0,1,16,16V60.8A16,16,0,0,1,288.1,76.8ZM281.2,6a10,10,0,0,0-10,10V60.8a10,10,0,0,0,10,10h6.9a10,10,0,0,0,10-10V16a10,10,0,0,0-10-10Z"/><path class="cls-1" d="M376.7,76.8h-6.9a16,16,0,0,1-16-16V16a16,16,0,0,1,16-16h6.9a16,16,0,0,1,16,16V60.8A16,16,0,0,1,376.7,76.8ZM369.8,6a10,10,0,0,0-10,10V60.8a10,10,0,0,0,10,10h6.9a10,10,0,0,0,10-10V16a10,10,0,0,0-10-10Z"/><path class="cls-1" d="M154.6,241.2H47.9a11.61,11.61,0,0,1-11.6-11.6V122.9a11.24,11.24,0,0,1,3.25-8.1,11.61,11.61,0,0,1,8.35-3.5H154.6a11.61,11.61,0,0,1,11.6,11.6V229.6A11.61,11.61,0,0,1,154.6,241.2ZM47.9,117.3a5.64,5.64,0,0,0-4.06,1.7,5.32,5.32,0,0,0-1.54,3.84V229.6a5.6,5.6,0,0,0,5.6,5.6H154.6a5.6,5.6,0,0,0,5.6-5.6V122.9a5.6,5.6,0,0,0-5.6-5.6Z"/><path class="cls-1" d="M295,241.2H188.3a11.61,11.61,0,0,1-11.6-11.6V122.9a11.61,11.61,0,0,1,11.6-11.6H295a11.61,11.61,0,0,1,11.6,11.6V229.6A11.61,11.61,0,0,1,295,241.2ZM188.3,117.3a5.6,5.6,0,0,0-5.6,5.6V229.6a5.6,5.6,0,0,0,5.6,5.6H295a5.6,5.6,0,0,0,5.6-5.6V122.9a5.6,5.6,0,0,0-5.6-5.6Z"/><path class="cls-1" d="M435.4,241.2H328.7a11.61,11.61,0,0,1-11.6-11.6V122.9a11.61,11.61,0,0,1,11.6-11.6H435.4A11.61,11.61,0,0,1,447,122.9V229.6A11.61,11.61,0,0,1,435.4,241.2ZM328.7,117.3a5.6,5.6,0,0,0-5.6,5.6V229.6a5.6,5.6,0,0,0,5.6,5.6H435.4a5.6,5.6,0,0,0,5.6-5.6V122.9a5.6,5.6,0,0,0-5.6-5.6Z"/><path class="cls-1" d="M510.5,333.2a3.51,3.51,0,0,1-.55-.05,3,3,0,0,1-2.4-3.5l9.8-52.8a3,3,0,1,1,5.9,1.1l-9.8,52.8A3,3,0,0,1,510.5,333.2Z"/><path class="cls-1" d="M628.2,370.5a2.45,2.45,0,0,1-.46,0,3,3,0,0,1-2.5-3.42l9.89-64.2a3,3,0,1,1,5.93.92L631.17,368A3,3,0,0,1,628.2,370.5Z"/><path class="cls-1" d="M658.58,377.92a39,39,0,0,1-6.59-.56L546.09,359a3,3,0,0,1,1-5.92L653,371.44a31.69,31.69,0,0,0,36.6-24.9,1.92,1.92,0,0,1,0-.32,31.85,31.85,0,0,0-25.14-37.38l-144.1-28.26L454.6,299.05l53.12,44.35a3,3,0,0,1-3.84,4.6l-57.5-48a3,3,0,0,1,1.11-5.19l72-20.2a3.11,3.11,0,0,1,1.39-.05L665.68,303a37.84,37.84,0,0,1,29.91,44.17c0,.12,0,.24-.05.36A37.62,37.62,0,0,1,658.58,377.92Z"/><path class="cls-2" d="M469.4,321.8c20.2-12.6,10.8-36.7,10.8-36.7l-34.3,8a4,4,0,0,0-2.8,5,4.12,4.12,0,0,0,1.4,2.1Z"/><path class="cls-2" d="M179,322.71c-22.5,0-37.47-9.34-46.36-17.7a65.09,65.09,0,0,1-15.26-21.31,3,3,0,0,1,5.58-2.2h0a60.17,60.17,0,0,0,14,19.31c13.15,12.26,29.95,17.48,49.94,15.5,21.67-2.14,42.12-11,61.9-19.61,26.25-11.41,51-22.18,76.87-17,43.62,8.66,95.22,12.51,95.74,12.55a3,3,0,0,1-.44,6c-.52,0-52.49-3.91-96.46-12.65-24-4.76-47.95,5.64-73.32,16.66-20.2,8.78-41.09,17.85-63.7,20.09C184.56,322.58,181.74,322.71,179,322.71Z"/><path class="cls-1" d="M148.29,194.6c-4.89,0-9.7-.63-12.48-2.66a6.58,6.58,0,0,1-2.79-4.57,12.53,12.53,0,0,0-5.48-9,4.22,4.22,0,0,0-3.4-.63,10.75,10.75,0,0,0-.36,2.79c-.21,3.77-.61,10.79-10.29,12.4a6.94,6.94,0,0,1-5.92-1.44c-3.41-2.93-3.31-9-3.2-15.34.08-4.79.17-10.75-1.64-12.6A2.2,2.2,0,0,0,101,163c-2.89,0-3.75,2.51-4.89,10s-2.79,18.64-15.28,18c-17.48-1-38.2,1.94-38.41,2a3,3,0,0,1-.84-5.94c.87-.12,21.5-3,39.59-2,6.36.37,7.63-3.64,9-12.85C91.2,165.4,92.46,157,101,157a8.11,8.11,0,0,1,6,2.38c3.58,3.64,3.46,10.38,3.36,16.9-.07,3.82-.16,9.59,1.12,10.7.2.18.78.1,1,.06,4.94-.82,5.07-3.08,5.28-6.82.16-2.75.37-6.51,4.1-8a9.76,9.76,0,0,1,8.7,1A18.57,18.57,0,0,1,139,186.63c0,.07,0,.22.37.47,3.32,2.42,15.68,1.49,23.4.05a3,3,0,1,1,1.1,5.9A92.74,92.74,0,0,1,148.29,194.6Z"/><path class="cls-1" d="M287.29,194.6c-4.89,0-9.7-.63-12.48-2.66a6.58,6.58,0,0,1-2.79-4.57,12.53,12.53,0,0,0-5.48-9,4.22,4.22,0,0,0-3.4-.63,10.75,10.75,0,0,0-.36,2.79c-.21,3.77-.61,10.79-10.29,12.4a6.94,6.94,0,0,1-5.92-1.44c-3.41-2.93-3.31-9-3.2-15.34.08-4.79.17-10.75-1.64-12.6A2.2,2.2,0,0,0,240,163c-2.89,0-3.75,2.51-4.89,10s-2.79,18.64-15.28,18c-17.48-1-38.2,1.94-38.41,2a3,3,0,0,1-.84-5.94c.87-.12,21.5-3,39.59-2,6.36.37,7.63-3.64,9-12.85,1-6.75,2.28-15.15,10.82-15.15a8.11,8.11,0,0,1,6,2.38c3.58,3.64,3.46,10.38,3.36,16.9-.07,3.82-.16,9.59,1.12,10.7.2.18.78.1,1,.06,4.94-.82,5.07-3.08,5.28-6.82.16-2.75.37-6.51,4.1-8a9.76,9.76,0,0,1,8.7,1A18.57,18.57,0,0,1,278,186.63c0,.07,0,.22.37.47,3.32,2.42,15.68,1.49,23.4.05a3,3,0,0,1,1.1,5.9A92.74,92.74,0,0,1,287.29,194.6Z"/><path class="cls-1" d="M206.9,157a17,17,0,1,1,17-17A17,17,0,0,1,206.9,157Zm0-28a11,11,0,1,0,11,11A11,11,0,0,0,206.9,129Z"/></svg>