<?xml version="1.0" standalone="no"?>
<!DOCTYPE svg PUBLIC "-//W3C//DTD SVG 1.1//EN" "http://www.w3.org/Graphics/SVG/1.1/DTD/svg11.dtd" >
<svg>
<metadata>
Created by FontForge 20090914 at Tue Jun  4 09:57:55 2019
 By www-data
(c)Copyright ParaGraph International, 1992.
</metadata>
<defs>
<font id="FuturaLightC" horiz-adv-x="500" >
  <font-face 
    font-family="FuturaLightCTT"
    font-weight="400"
    font-stretch="normal"
    units-per-em="1000"
    panose-1="0 0 0 0 0 0 0 0 0 0"
    ascent="800"
    descent="-200"
    x-height="408"
    cap-height="667"
    bbox="-54.001 -250 970 854"
    underline-thickness="40"
    underline-position="-60"
    unicode-range="U+0020-U+F002"
  />
<missing-glyph horiz-adv-x="450" 
d="M50 0v512h400v-512h-400zM58 8h384v496h-384v-496z" />
    <glyph glyph-name=".notdef" horiz-adv-x="450" 
d="M50 0v512h400v-512h-400zM58 8h384v496h-384v-496z" />
    <glyph glyph-name="space" unicode=" " horiz-adv-x="233" 
 />
    <glyph glyph-name="space" unicode="&#x45d;" horiz-adv-x="233" 
 />
    <glyph glyph-name="space" unicode="&#x40d;" horiz-adv-x="233" 
 />
    <glyph glyph-name="space" unicode="&#xa0;" horiz-adv-x="233" 
 />
    <glyph glyph-name="exclam" unicode="!" horiz-adv-x="260" 
d="M152 119h-44v548h44v-548zM93 30c0 10 3.5 18.6689 10.5 26.002s15.833 11 26.5 11c10 0 18.667 -3.66699 26 -11s11 -16 11 -26c0 -10.667 -3.66699 -19.334 -11 -26.001s-16 -10.334 -26 -11.001c-10.667 0 -19.5 3.5 -26.5 10.5s-10.5 15.833 -10.5 26.5z" />
    <glyph glyph-name="quotedbl" unicode="&#x22;" horiz-adv-x="280" 
d="M104 667l-7 -269h-30l-7 269h44zM220 667l-7 -269h-30l-7 269h44z" />
    <glyph glyph-name="numbersign" unicode="#" horiz-adv-x="600" 
d="M375 0h-40l33 221h-164l-33 -221h-40l33 221h-118l6 38h118l24 161h-118l6 38h118l32 209h40l-32 -209h164l32 209h40l-32 -209h118l-6 -38h-118l-24 -161h118l-6 -38h-118zM374 259l24 161h-164l-24 -161h164z" />
    <glyph glyph-name="dollar" unicode="$" horiz-adv-x="512" 
d="M425 581l-32.001 -27c-11.333 22.667 -26.166 41 -44.499 55s-38.166 23 -59.499 27v-270l57 -28.5c16 -8.33301 30 -16.5 42 -24.5c24.667 -18 42.5 -37.333 53.5 -58s16.833 -44.334 17.5 -71.001c0 -45.333 -15.667 -86.833 -47 -124.5s-72.333 -60.167 -123 -67.5
v-99h-40v96c-30 0.666992 -58 6.5 -84 17.5s-49 28.5 -69 52.5c-10 10.667 -18.667 22.167 -26 34.5s-13 25.166 -17 38.499l38 18c3.33301 -10.667 8.33301 -22 15 -34s13.667 -22 21 -30c12.667 -16.667 29.667 -30.167 51 -40.5s45 -15.833 71 -16.5v310l-25 12
c-32.667 15.333 -56.834 28.833 -72.501 40.5s-28.5 25.834 -38.5 42.501c-8 12 -13.5 24.167 -16.5 36.5s-4.5 25.5 -4.5 39.5c0 45.333 14.5 83.666 43.5 114.999s66.833 48.333 113.5 51v89h40v-89c30 -3.33301 56.833 -13.666 80.5 -30.999s42.167 -38.666 55.5 -63.999
zM288.999 319v-286.999c37.333 7.33301 67.333 25.333 90 54s34 61 34 97c0 22 -5.5 41.667 -16.5 59s-27.167 32.666 -48.5 45.999c-4.66699 2 -12 5.66699 -22 11zM248.999 386.001l0.000976562 250c-34.667 -2 -61.834 -15.333 -81.501 -40s-29.5 -52.667 -29.5 -84
c0 -29.333 9 -53.833 27 -73.5s46 -37.167 84 -52.5z" />
    <glyph glyph-name="percent" unicode="%" horiz-adv-x="608" 
d="M169 673c40 0 72.333 -12.5 97 -37.5s37.334 -56.167 38.001 -93.5c-0.666992 -38 -13.334 -69.333 -38.001 -94s-57 -37 -97 -37c-40.667 -0.666992 -73.334 11.5 -98.001 36.5s-37 56.5 -37 94.5c0 37.333 12.333 68.5 37 93.5s57.334 37.5 98.001 37.5zM169 447
c27.333 0 50 8.83398 68 26.501s27 40.5 27 68.5c0 27.333 -9 50 -27 68s-40.667 27 -68 27c-28 -0.666992 -50.833 -9.83398 -68.5 -27.501s-26.5 -40.167 -26.5 -67.5c0 -28 8.83301 -50.833 26.5 -68.5s40.5 -26.5 68.5 -26.5zM92 1.00098l394 681l30 -16l-394 -681z
M439 256.001c40 0 72.5 -12.5 97.5 -37.5s37.5 -56.167 37.5 -93.5c0 -38 -12.5 -69.167 -37.5 -93.5s-57.5 -36.833 -97.5 -37.5c-40.667 0 -73.334 12.333 -98.001 37s-37 56 -37 94c0 37.333 12.333 68.5 37 93.5s57.334 37.5 98.001 37.5zM439 30.001
c27.333 0 50 8.83301 68 26.5s27 40.5 27 68.5c0 27.333 -9 50 -27 68s-40.667 27 -68 27c-28 0 -50.833 -9 -68.5 -27s-26.5 -40.667 -26.5 -68c0 -28 8.83301 -50.833 26.5 -68.5s40.5 -26.5 68.5 -26.5z" />
    <glyph glyph-name="ampersand" unicode="&#x26;" horiz-adv-x="628" 
d="M567 259l39.0029 -18.002c-14.667 -19.333 -29.667 -38 -45 -56s-31 -34.667 -47 -50l100 -135h-56l-77 105l-12 -10c-51.333 -43.333 -94.5 -72.166 -129.5 -86.499s-68.167 -21.5 -99.5 -21.5c-50.667 0 -92.334 16.167 -125.001 48.5s-49 73.5 -49 123.5
c0 40 9.83301 75.333 29.5 106s52.5 61 98.5 91l71 46l-27 42c-15.333 22.667 -25.833 42.167 -31.5 58.5s-8.5 31.833 -8.5 46.5c0 36 12.667 66.667 38 92s56.333 38 93 38c34 0 62.667 -12 86 -36s35 -53.333 35 -88c0 -17.333 -3.33301 -34 -10 -50
s-16.334 -31.333 -29.001 -46c-8.66699 -10 -19.334 -20.167 -32.001 -30.5s-30.334 -23.166 -53.001 -38.499l163 -220c12.667 12.667 24.834 25.667 36.501 39s25.5 30 41.5 50zM456.003 139.998l-166.999 228l-63 -41c-40.667 -26.667 -70 -52.667 -88 -78
s-26.667 -54.333 -26 -87c-0.666992 -39.333 11.166 -71.833 35.499 -97.5s55.5 -38.167 93.5 -37.5c32.667 0 68.667 10.833 108 32.5s75 48.5 107 80.5zM272.004 469.998l28.999 -46.002c15.333 8.66699 31.5 20 48.5 34s29.5 26.333 37.5 37
c6 8.66699 10.667 17.834 14 27.501s5 20.834 5 33.501c-0.666992 22.667 -8.5 41.667 -23.5 57s-34.167 23.333 -57.5 24c-22.667 0 -42.167 -9 -58.5 -27s-24.5 -39.333 -24.5 -64c0 -10 1.83301 -20.167 5.5 -30.5s11.834 -25.5 24.501 -45.5z" />
    <glyph glyph-name="quotesingle" unicode="'" horiz-adv-x="164" 
d="M104 667l-7 -269h-30l-7 269h44z" />
    <glyph glyph-name="parenleft" unicode="(" horiz-adv-x="278" 
d="M170 743l38 -23c-21.333 -69.333 -37 -142.166 -47 -218.499s-15 -148.5 -15 -216.5c0 -68.667 5 -140.5 15 -215.5s25.667 -148.5 47 -220.5l-40 -23c-20.667 59.333 -37.167 129.666 -49.5 210.999s-18.5 164 -18.5 248c-0.666992 80.667 5.33301 161.667 18 243
s30 153 52 215z" />
    <glyph glyph-name="parenright" unicode=")" horiz-adv-x="278" 
d="M70 720l38 23c21.333 -62 38.333 -133.667 51 -215s19 -162.333 19 -243c0 -84 -6.33301 -166.667 -19 -248s-29 -151.666 -49 -210.999l-40 23c20.667 72 36.167 145.5 46.5 220.5s15.5 146.833 15.5 215.5c0 68 -5.16699 140.167 -15.5 216.5
s-25.833 149.166 -46.5 218.499z" />
    <glyph glyph-name="asterisk" unicode="*" horiz-adv-x="548" 
d="M130 640l125 -44l-3 133h44l-3 -133l125 44l14 -41l-128 -38l81 -106l-35 -25l-76 110l-76 -110l-35 25l81 106l-128 38z" />
    <glyph glyph-name="plus" unicode="+" 
d="M33 310v38h197v182h40v-182h197v-38h-197v-182h-40v182h-197z" />
    <glyph glyph-name="comma" unicode="," horiz-adv-x="228" 
d="M38 -137l60 202l40 -12l-74 -200z" />
    <glyph glyph-name="hyphen" unicode="-" horiz-adv-x="280" 
d="M40 184v46h200v-46h-200z" />
    <glyph glyph-name="hyphen" unicode="&#xad;" horiz-adv-x="280" 
d="M40 184v46h200v-46h-200z" />
    <glyph glyph-name="period" unicode="." horiz-adv-x="202" 
d="M64 30c0 10 3.5 18.667 10.5 26s15.833 11 26.5 11c10 0 18.667 -3.66699 26 -11s11 -16 11 -26c0 -10.667 -3.66699 -19.5 -11 -26.5s-16 -10.5 -26 -10.5c-10.667 0 -19.5 3.5 -26.5 10.5s-10.5 15.833 -10.5 26.5z" />
    <glyph glyph-name="slash" unicode="/" horiz-adv-x="576" 
d="M20 -158l504 901l32 -16l-504 -901z" />
    <glyph glyph-name="zero" unicode="0" horiz-adv-x="548" 
d="M274 676c28 0 55.4961 -6.83301 82.4961 -20.5s51.833 -33.834 74.5 -60.501c26.667 -32.667 47.334 -71.167 62.001 -115.5s22.334 -93.166 23.001 -146.499c0 -54 -7.5 -103.333 -22.5 -148s-35.833 -82.667 -62.5 -114c-23.333 -27.333 -48.666 -47.833 -75.999 -61.5
s-54.333 -20.5 -81 -20.5c-27.333 0 -54.666 6.83301 -81.999 20.5s-52.333 34.167 -75 61.5c-27.333 31.333 -48.333 69.333 -63 114s-22 94 -22 148c0 53.333 7.33301 102.166 22 146.499s35.667 82.833 63 115.5c22 26.667 46.5 46.834 73.5 60.501
s54.833 20.5 83.5 20.5zM273.996 29c22 0 43.668 5.83301 65.001 17.5s41 28.5 59 50.5c22 28 39.5 61.5 52.5 100.5s19.5 84.167 19.5 135.5c-0.666992 46 -6.66699 89 -18 129s-29.333 75.667 -54 107c-17.333 20.667 -36.333 37 -57 49s-43 18 -67 18
c-24.667 0 -47.334 -6 -68.001 -18s-39.334 -28.333 -56.001 -49c-25.333 -31.333 -43.666 -67 -54.999 -107s-17 -83 -17 -129c0 -51.333 6.33301 -96.5 19 -135.5s30.334 -72.5 53.001 -100.5c17.333 -22 36.666 -38.833 57.999 -50.5s43.333 -17.5 66 -17.5z" />
    <glyph glyph-name="one" unicode="1" horiz-adv-x="548" 
d="M272 0v627h-104l20 40h128v-667h-44z" />
    <glyph glyph-name="two" unicode="2" horiz-adv-x="548" 
d="M471 0l-411 -0.000976562l256 282c22 24 37.667 42 47 54s18 24 26 36c12.667 19.333 22.167 38.333 28.5 57s9.83301 37.667 10.5 57c0 42 -14.667 77.5 -44 106.5s-66.333 43.5 -111 43.5c-24 0 -45.667 -4.16699 -65 -12.5s-36 -20.5 -50 -36.5
c-13.333 -14.667 -23.333 -31.5 -30 -50.5s-9.66699 -38.5 -9 -58.5h-44c-0.666992 25.333 3.5 50.333 12.5 75s22.5 46.334 40.5 65.001s39.5 33 64.5 43s52.833 15 83.5 15c56.667 0 103.834 -18.167 141.501 -54.5s56.5 -81.5 56.5 -135.5
c-0.666992 -24 -4.83398 -47.167 -12.501 -69.5s-19.5 -44.833 -35.5 -67.5c-7.33301 -10 -16.5 -21.667 -27.5 -35l-31.5 -37l-214 -237h318v-40z" />
    <glyph glyph-name="three" unicode="3" horiz-adv-x="548" 
d="M76 162l44.0029 -0.00292969c0 -13.333 1.83301 -26.166 5.5 -38.499s9.16699 -23.166 16.5 -32.499c12 -18.667 29.167 -33.667 51.5 -45s44.5 -17 66.5 -17c40.667 0 75.834 15.333 105.501 46s44.5 67 44.5 109c0 27.333 -5.83301 51.5 -17.5 72.5
s-26.834 37.5 -45.501 49.5c-12 6.66699 -25.333 11.834 -40 15.501s-29.667 5.16699 -45 4.5v40c16 0 31.833 2.5 47.5 7.5s29.834 12.833 42.501 23.5c14.667 12 26.5 27.667 35.5 47s13.5 40 13.5 62c0 36.667 -11.5 67.5 -34.5 92.5s-54.167 37.5 -93.5 37.5
c-22 -0.666992 -40.833 -4.33398 -56.5 -11.001s-28.834 -16 -39.501 -28c-10.667 -11.333 -19 -25 -25 -41s-9 -32 -9 -48h-42c0 23.333 4.5 45.333 13.5 66s20.833 38.667 35.5 54c16 16.667 34.167 28.834 54.5 36.501s43.166 11.5 68.499 11.5
c53.333 0 95.666 -16.167 126.999 -48.5s47 -71.833 47 -118.5c0 -37.333 -9.33301 -70.333 -28 -99s-44.334 -49.334 -77.001 -62.001c35.333 -12 63 -32.667 83 -62s30.333 -63 31 -101c0 -56 -19 -102.667 -57 -140s-84.333 -56 -139 -56c-32 0 -62.667 7.5 -92 22.5
s-52 36.5 -68 64.5c-8 12.667 -14 26.334 -18 41.001s-6 29.667 -6 45z" />
    <glyph glyph-name="four" unicode="4" horiz-adv-x="548" 
d="M415 689v-522h93v-40h-93v-127h-44v127h-359zM90 167h281v392z" />
    <glyph glyph-name="five" unicode="5" horiz-adv-x="548" 
d="M470 667l0.000976562 -40.0029h-224l-56 -180c7.33301 2 14.5 3.33301 21.5 4s14.833 1.33398 23.5 2.00098c69.333 0 125.333 -21.667 168 -65s64 -98.666 64 -165.999c0 -70.667 -22.833 -127 -68.5 -169s-101.834 -63.333 -168.501 -64c-44 0 -83.333 9.5 -118 28.5
s-62 46.167 -82 81.5l39 16c18 -28 41 -49.333 69 -64s59 -22 93 -22c54.667 0 100 18 136 54s54 82 54 138s-17.5 101.833 -52.5 137.5s-80.167 53.834 -135.5 54.501c-18.667 0 -36.5 -2.33301 -53.5 -7s-33.833 -12 -50.5 -22l86 283h255z" />
    <glyph glyph-name="six" unicode="6" horiz-adv-x="548" 
d="M301 676l34.002 -25.999l-148 -210c14.667 6 29.5 10.5 44.5 13.5s30.5 4.5 46.5 4.5c66 0 121.167 -22 165.5 -66s66.5 -99.667 66.5 -167c-0.666992 -68 -23.334 -124.167 -68.001 -168.5s-101.334 -66.833 -170.001 -67.5c-68 0 -124.333 22.167 -169 66.5
s-67 101.166 -67 170.499c0 25.333 3.66699 49.5 11 72.5s18 44.167 32 63.5zM273.002 29.001c54.667 0 100.167 18.668 136.5 56.001s54.5 83.666 54.5 138.999c0 56 -18.167 102.333 -54.5 139s-81.833 55 -136.5 55c-56 -0.666992 -101.833 -19.334 -137.5 -56.001
s-53.5 -82.667 -53.5 -138c0 -56 18 -102.667 54 -140s81.667 -55.666 137 -54.999z" />
    <glyph glyph-name="seven" unicode="7" horiz-adv-x="548" 
d="M22 14l432 613h-405v40h483l-477 -678z" />
    <glyph glyph-name="eight" unicode="8" horiz-adv-x="548" 
d="M358 346c34 -13.333 60.667 -35.5 80 -66.5s29 -65.167 29 -102.5c0 -56.667 -18.667 -102 -56 -136s-83 -51.333 -137 -52c-54.667 0 -100.5 17.167 -137.5 51.5s-55.5 79.833 -55.5 136.5c0 37.333 9.5 71.5 28.5 102.5s45.833 53.167 80.5 66.5
c-28.667 14.667 -51.334 35.167 -68.001 61.5s-25 57.166 -25 92.499c0 50 16.833 91.833 50.5 125.5s75.834 50.5 126.501 50.5c50 0 92 -16.833 126 -50.5s51 -75.5 51 -125.5c0 -35.333 -8.5 -66.166 -25.5 -92.499s-39.5 -46.833 -67.5 -61.5zM274 365
c36 -0.666992 66.667 11.8301 92 37.4971s38.333 58.167 39 97.5c0 38.667 -12.667 70.834 -38 96.501s-56.333 38.834 -93 39.501c-37.333 0 -68.5 -13 -93.5 -39s-37.5 -58.333 -37.5 -97c0 -39.333 12.667 -71.666 38 -96.999s56.333 -38 93 -38zM274 28.9971
c43.333 0 78.5 14.166 105.5 42.499s40.833 63.5 41.5 105.5c-0.666992 43.333 -14.667 79 -42 107s-62.333 42.333 -105 43c-43.333 0 -78.833 -14.167 -106.5 -42.5s-41.167 -64.166 -40.5 -107.499c0 -42 13.5 -77.167 40.5 -105.5s62.5 -42.5 106.5 -42.5z" />
    <glyph glyph-name="nine" unicode="9" horiz-adv-x="548" 
d="M247 -11l-34 26.001l148 211c-15.333 -6.66699 -30.5 -11.334 -45.5 -14.001s-30.167 -4 -45.5 -4c-66.667 0 -122 21.833 -166 65.5s-66 99.5 -66 167.5c0 66.667 22.333 122.5 67 167.5s101.667 67.5 171 67.5c67.333 0 123.5 -22.333 168.5 -67s67.5 -101 67.5 -169
c0 -26 -3.83301 -50.5 -11.5 -73.5s-18.167 -43.833 -31.5 -62.5zM275 636.001c-55.333 0 -101 -18.666 -137 -55.999s-54 -83.333 -54 -138c0 -56.667 18 -103.334 54 -140.001s81.667 -54.667 137 -54c54.667 0 100.167 18.333 136.5 55s54.5 83 54.5 139
c-0.666992 54.667 -19 100.5 -55 137.5s-81.333 55.833 -136 56.5z" />
    <glyph glyph-name="colon" unicode=":" horiz-adv-x="202" 
d="M64 380c0 10 3.5 18.667 10.5 26s15.833 11 26.5 11c10 -0.666992 18.667 -4.5 26 -11.5s11 -15.5 11 -25.5c-0.666992 -10.667 -4.5 -19.5 -11.5 -26.5s-15.5 -10.5 -25.5 -10.5c-10.667 0 -19.5 3.5 -26.5 10.5s-10.5 15.833 -10.5 26.5zM64 30
c0 10 3.5 18.667 10.5 26s15.833 11 26.5 11c10 0 18.667 -3.66699 26 -11s11 -16 11 -26c0 -10.667 -3.66699 -19.5 -11 -26.5s-16 -10.5 -26 -10.5c-10.667 0 -19.5 3.5 -26.5 10.5s-10.5 15.833 -10.5 26.5z" />
    <glyph glyph-name="semicolon" unicode=";" horiz-adv-x="228" 
d="M66 380c0 10 3.5 18.667 10.5 26s15.833 11 26.5 11c10 0 18.667 -3.66699 26 -11s11 -16 11 -26c0 -10.667 -3.66699 -19.5 -11 -26.5s-16 -10.5 -26 -10.5c-10.667 0 -19.5 3.5 -26.5 10.5s-10.5 15.833 -10.5 26.5zM38 -137l60 202l40 -12l-74 -200z" />
    <glyph glyph-name="less" unicode="&#x3c;" 
d="M33 347l434 192v-41l-390 -170l390 -170v-41l-434 192v38z" />
    <glyph glyph-name="equal" unicode="=" 
d="M33 381v38h434v-38h-434zM33 239v38h434v-38h-434z" />
    <glyph glyph-name="greater" unicode="&#x3e;" 
d="M467 309l-434 -192v41l390 170l-390 170v41l434 -192v-38z" />
    <glyph glyph-name="question" unicode="?" horiz-adv-x="466" 
d="M330 257l40.001 0.00390625c-0.666992 -16 -2.83398 -32 -6.50098 -48s-8.5 -29.333 -14.5 -40c-12 -19.333 -28 -33.833 -48 -43.5s-42 -14.5 -66 -14.5c-20 0 -39 3.16699 -57 9.5s-32.667 15.166 -44 26.499c-12.667 11.333 -22.5 26 -29.5 44s-10.5 37 -10.5 57
s3.83301 38.667 11.5 56s18.5 31.666 32.5 42.999c8.66699 7.33301 19.667 14 33 20s29.666 11.333 48.999 16c38 9.33301 62.5 17 73.5 23s20.167 13 27.5 21c8.66699 9.33301 15 21 19 35s6 29.667 6 47c0 20.667 -2.5 38 -7.5 52s-12.5 26.667 -22.5 38
c-11.333 11.333 -24.166 19.666 -38.499 24.999s-29.833 8.33301 -46.5 9c-18 -0.666992 -34.333 -4 -49 -10s-26.667 -14 -36 -24c-8.66699 -9.33301 -15.667 -21.666 -21 -36.999s-7.66602 -33 -6.99902 -53c0 -7.33301 0.5 -14.166 1.5 -20.499
s2.83301 -12.833 5.5 -19.5h-44c-2.66699 7.33301 -4.5 14.5 -5.5 21.5s-1.5 15.167 -1.5 24.5c-0.666992 26 2.66602 48.167 9.99902 66.5s18.666 34.833 33.999 49.5c13.333 12.667 30 22.834 50 30.501s42 11.5 66 11.5c22 0 43.333 -3.83301 64 -11.5
s38.334 -18.834 53.001 -33.501c14 -15.333 24.333 -32.5 31 -51.5s10 -40.833 10 -65.5c0 -23.333 -3 -43.5 -9 -60.5s-15 -32.167 -27 -45.5c-11.333 -12.667 -23.833 -23 -37.5 -31s-30.834 -14.667 -51.501 -20c-46.667 -13.333 -73.167 -21.5 -79.5 -24.5
s-11.5 -6.16699 -15.5 -9.5c-10.667 -8.66699 -19.167 -19.334 -25.5 -32.001s-9.16602 -26.667 -8.49902 -42c0 -13.333 2.16699 -26 6.5 -38s10.5 -22 18.5 -30c8 -9.33301 18 -16.5 30 -21.5s25.667 -7.5 41 -7.5c17.333 0 32.833 3.16699 46.5 9.5
s24.5 15.166 32.5 26.499c5.33301 8 9.5 18.667 12.5 32s4.5 26.666 4.5 39.999zM197.001 30.0039c0 10 3.5 18.6689 10.5 26.002s15.833 11 26.5 11c10 0 18.667 -3.66699 26 -11s11 -16 11 -26c0 -10.667 -3.66699 -19.334 -11 -26.001s-16 -10.334 -26 -11.001
c-10.667 0 -19.5 3.5 -26.5 10.5s-10.5 15.833 -10.5 26.5z" />
    <glyph glyph-name="at" unicode="@" horiz-adv-x="732" 
d="M489 413l14.9971 78.0029h32l-43 -222c-4 -19.333 -6.33301 -31.333 -7 -36s-0.666992 -9 0 -13c0 -16 4.16699 -28.833 12.5 -38.5s19.833 -14.5 34.5 -14.5c34 -0.666992 63.833 20.166 89.5 62.499s38.834 91.833 39.501 148.5c0 78.667 -27.5 142.667 -82.5 192
s-122.5 74 -202.5 74c-88 0 -161.833 -30 -221.5 -90s-89.5 -133.667 -89.5 -221c0 -64.667 16.667 -123.834 50 -177.501s79.333 -91.834 138 -114.501c19.333 -8 40.833 -14.167 64.5 -18.5s48.5 -6.16602 74.5 -5.49902c29.333 -0.666992 61.5 2.5 96.5 9.5
s64.5 16.5 88.5 28.5l20 9c4.66699 2 10.334 5 17.001 9l12 -29c-20.667 -10.667 -41 -19.667 -61 -27s-39.333 -13 -58 -17c-17.333 -3.33301 -36.666 -6.33301 -57.999 -9s-40.666 -4 -57.999 -4c-105.333 0.666992 -191.666 33 -258.999 97s-101 146.333 -101 247
c0 96.667 33.167 178 99.5 244s148.166 99 245.499 99c87.333 -0.666992 161.666 -28.5 222.999 -83.5s92 -125.833 92 -212.5c0 -68 -16.5 -124.833 -49.5 -170.5s-69.833 -68.5 -110.5 -68.5c-22 0 -39.667 6.66699 -53 20s-19.333 31 -18 53
c-14 -24.667 -32.167 -43.334 -54.5 -56.001s-46.166 -19 -71.499 -19c-42.667 0 -76.5 15.333 -101.5 46s-37.5 69 -37.5 115c0 56.667 16.5 105.167 49.5 145.5s74.833 60.5 125.5 60.5c30.667 -0.666992 56.167 -9 76.5 -25s34.166 -38 41.499 -66zM339.997 169.003
c36 0 66.833 17 92.5 51s38.5 79.333 38.5 136c-0.666992 34 -9 61.833 -25 83.5s-40 32.5 -72 32.5c-43.333 0 -78 -17.333 -104 -52s-39 -75 -39 -121c0 -41.333 10.667 -73.333 32 -96s47 -34 77 -34z" />
    <glyph glyph-name="A" unicode="A" horiz-adv-x="586" 
d="M524 0l-89 219h-284l-89 -219h-48l281 687l277 -687h-48zM167 259h252l-125 316z" />
    <glyph glyph-name="B" unicode="B" horiz-adv-x="534" 
d="M90 0l-0.000976562 666.998h146c56.667 0 101.5 -15.333 134.5 -46s49.5 -71 49.5 -121c0 -31.333 -6.5 -59.5 -19.5 -84.5s-32.5 -45.5 -58.5 -61.5c42.667 -7.33301 76.334 -26.166 101.001 -56.499s37 -67.166 37 -110.499c-0.666992 -58 -20 -103.667 -58 -137
s-87.667 -50 -149 -50h-183zM133.999 626.998l-0.000976562 -261.999h106c20.667 0 37.834 2 51.501 6s26.834 11.333 39.501 22c13.333 11.333 23.833 25.5 31.5 42.5s11.834 36.833 12.501 59.5c-0.666992 22 -4.83398 42 -12.501 60s-18.5 32.667 -32.5 44
c-12.667 9.33301 -27.334 16.166 -44.001 20.499s-39 6.83301 -67 7.5h-85zM133.998 324.999l-0.00195312 -285h112c38.667 0 68.334 3 89.001 9s39.334 16.333 56.001 31c14.667 12.667 25.5 27.667 32.5 45s10.5 36.333 10.5 57c0 30 -5.83301 55.333 -17.5 76
s-29.5 36.667 -53.5 48c-14.667 6.66699 -32.5 11.5 -53.5 14.5s-44.833 4.5 -71.5 4.5h-104z" />
    <glyph glyph-name="C" unicode="C" horiz-adv-x="678" 
d="M624 589l0.00292969 -58c-28.667 33.333 -62.667 59.166 -102 77.499s-80.333 27.5 -123 27.5c-85.333 0 -156.5 -29.833 -213.5 -89.5s-85.5 -131.834 -85.5 -216.501c0 -84 28.667 -155.167 86 -213.5s128.666 -87.5 213.999 -87.5c41.333 0 81.666 9 120.999 27
s73.666 42.667 102.999 74v-58c-29.333 -26 -63 -46.333 -101 -61s-78.333 -22 -121 -22c-98.667 0.666992 -181.5 34.334 -248.5 101.001s-100.167 147.334 -99.5 242.001c0 96 33.5 177.167 100.5 243.5s148.833 99.833 245.5 100.5c44.667 0 86 -8 124 -24
s71.333 -37 100 -63z" />
    <glyph glyph-name="D" unicode="D" horiz-adv-x="618" 
d="M222 0h-132v667h132c52 0 98.333 -8 139 -24s76.334 -39 107.001 -69c29.333 -30 52.666 -66.333 69.999 -109s26 -86.667 26 -132c0 -46 -8.66699 -90.167 -26 -132.5s-40.666 -78.166 -69.999 -107.499c-30.667 -30.667 -66.334 -53.834 -107.001 -69.501
s-87 -23.5 -139 -23.5zM134 627v-587h87c87.333 -0.666992 158.666 26.333 213.999 81s83 125.334 83 212.001c0 85.333 -27.667 155.666 -83 210.999s-126.666 83 -213.999 83h-87z" />
    <glyph glyph-name="E" unicode="E" horiz-adv-x="464" 
d="M410 667v-40h-276v-242h270v-40h-270v-305h276v-40h-320v667h320z" />
    <glyph glyph-name="F" unicode="F" horiz-adv-x="406" 
d="M360 667v-40h-226v-242h220v-40h-220v-345h-44v667h270z" />
    <glyph glyph-name="G" unicode="G" horiz-adv-x="772" 
d="M438 280v40.001h280c-0.666992 -41.333 -6.66699 -81 -18 -119s-28 -71.333 -50 -100c-29.333 -37.333 -65.666 -65.333 -108.999 -84s-90.666 -28 -141.999 -28c-98.667 0 -181 32.333 -247 97s-98.667 146.667 -98 246c0 98 33.5 179.833 100.5 245.5
s149.5 98.5 247.5 98.5c39.333 0 75.666 -5.83301 108.999 -17.5s66.666 -29.834 99.999 -54.501c16.667 -13.333 31.167 -26.666 43.5 -39.999s24.5 -28 36.5 -44l-35 -28c-8 12.667 -17.667 25.5 -29 38.5s-23 24.833 -35 35.5c-26.667 22 -56.5 39.167 -89.5 51.5
s-66.833 18.5 -101.5 18.5c-85.333 0 -157 -29.667 -215 -89s-86.667 -131.666 -86 -216.999c-0.666992 -84.667 27.5 -156 84.5 -214s128.167 -87 213.5 -87c47.333 -0.666992 92 9.16602 134 29.499s74.667 48.166 98 83.499c12 18.667 22 40.667 30 66
s12.667 49.333 14 72h-236z" />
    <glyph glyph-name="H" unicode="H" horiz-adv-x="672" 
d="M134 667v-283h404v283h44v-667h-44v344h-404v-344h-44v667h44z" />
    <glyph glyph-name="I" unicode="I" horiz-adv-x="224" 
d="M90 667h44v-667h-44v667z" />
    <glyph glyph-name="J" unicode="J" horiz-adv-x="264" 
d="M130 667l43.998 0.000976562v-665c0 -48.667 -10.333 -84.167 -31 -106.5s-49 -33.833 -85 -34.5c-26.667 0 -49.167 6.66699 -67.5 20s-33.166 30.666 -44.499 51.999l31 24c9.33301 -17.333 21.333 -31 36 -41s30.334 -15 47.001 -15c24 0 41.667 8.33301 53 25
s17 42 17 76v665z" />
    <glyph glyph-name="K" unicode="K" horiz-adv-x="540" 
d="M134 667v-314l315 314h58l-323 -319l342 -348h-60l-314 318l-18 -17v-301h-44v667h44z" />
    <glyph glyph-name="L" unicode="L" horiz-adv-x="334" 
d="M90 667h44v-627h186v-40h-230v667z" />
    <glyph glyph-name="M" unicode="M" horiz-adv-x="896" 
d="M127 0h-44l76 690l289 -617l289 617l76 -690h-44l-59 536l-262 -560l-262 560z" />
    <glyph glyph-name="N" unicode="N" horiz-adv-x="784" 
d="M134 0h-44v674l560 -586v579h44v-684l-560 586v-569z" />
    <glyph glyph-name="O" unicode="O" horiz-adv-x="800" 
d="M400 676c97.333 0 179.335 -33.333 246.002 -100s100 -148 100 -244c-0.666992 -96.667 -34.334 -178 -101.001 -244s-148.334 -99 -245.001 -99c-97.333 0 -179.333 33 -246 99s-100 147.333 -100 244c0 96 33.167 177.167 99.5 243.5s148.5 99.833 246.5 100.5z
M400.002 29c85.333 0 156.667 29 214 87s86 130 86 216c-0.666992 85.333 -29.5 157.333 -86.5 216s-128.167 88 -213.5 88c-86 0 -157.5 -29.333 -214.5 -88s-85.5 -130.667 -85.5 -216c0 -86 28.5 -158 85.5 -216s128.5 -87 214.5 -87z" />
    <glyph glyph-name="P" unicode="P" horiz-adv-x="446" 
d="M220 317l-86.001 0.000976562v-317h-44v667h129c56.667 0 103.334 -15.333 140.001 -46s55 -73.334 55 -128.001c0 -55.333 -17.833 -98.5 -53.5 -129.5s-82.5 -46.5 -140.5 -46.5zM133.999 627.001v-270h88c43.333 0 78.5 12 105.5 36s40.5 57 40.5 99
c0 41.333 -13.5 74 -40.5 98s-64.5 36.333 -112.5 37h-81z" />
    <glyph glyph-name="Q" unicode="Q" horiz-adv-x="800" 
d="M736 0l-58 -0.000976562l-59 64c-30.667 -24.667 -64.5 -43.167 -101.5 -55.5s-76.167 -18.833 -117.5 -19.5c-97.333 0.666992 -179.333 33.834 -246 99.501s-100 146.834 -100 243.501c0 96 33.167 177.333 99.5 244s148.5 100 246.5 100
c96.667 0 178.5 -33.333 245.5 -100s100.5 -148 100.5 -244c-0.666992 -46 -9 -89.333 -25 -130s-39.667 -77.334 -71 -110.001zM400 28.999c34.667 0 68.165 5.33203 100.498 15.999s62.5 27 90.5 49l-167 179h58l139 -150c26.667 30 46.5 62.5 59.5 97.5
s19.5 72.167 19.5 111.5c0 85.333 -28.667 157.333 -86 216s-128.666 88 -213.999 88c-86 0 -157.667 -29.333 -215 -88s-85.666 -130.667 -84.999 -216c0 -85.333 28.5 -157.166 85.5 -215.499s128.5 -87.5 214.5 -87.5z" />
    <glyph glyph-name="R" unicode="R" horiz-adv-x="468" 
d="M420 0l-50 -0.000976562l-216 315h-20v-315h-44v667h96c32.667 0 59.667 -2.66699 81 -8s41.333 -14 60 -26c22 -15.333 39 -35 51 -59s18 -52 18 -84c0 -40.667 -10 -75 -30 -103s-47.333 -47.667 -82 -59c-12.667 -4.66699 -26 -8.16699 -40 -10.5
s-28 -3.16602 -42 -2.49902zM134 626.999l0.000976562 -272h64c47.333 -0.666992 84.5 11 111.5 35s40.5 57.667 40.5 101c0 27.333 -5.5 51 -16.5 71s-25.167 35 -42.5 45c-12 6 -27.333 10.833 -46 14.5s-37.334 5.5 -56.001 5.5h-55z" />
    <glyph glyph-name="S" unicode="S" horiz-adv-x="514" 
d="M426 581l-31.999 -27c-13.333 24.667 -31.166 44.5 -53.499 59.5s-48.166 22.5 -77.499 22.5c-38 0 -68.167 -12 -90.5 -36s-33.5 -53.333 -33.5 -88c0 -27.333 7 -49.666 21 -66.999s46 -38 96 -62c63.333 -31.333 99.166 -49.5 107.499 -54.5l25.5 -15.5
c24.667 -18 42.667 -37.333 54 -58s17 -44.334 17 -71.001c0 -55.333 -20.333 -101.666 -61 -138.999s-89.667 -56 -147 -56c-31.333 0 -59.833 5.5 -85.5 16.5s-48.834 28.833 -69.501 53.5c-10 10.667 -18.667 22.167 -26 34.5s-13 25.166 -17 38.499l38 18
c3.33301 -10.667 8.33301 -22 15 -34s13.667 -22 21 -30c14.667 -18.667 33 -32.834 55 -42.501s45.333 -14.5 70 -14.5c45.333 -0.666992 83.5 13.833 114.5 43.5s46.5 66.5 46.5 110.5c0 22 -5.5 41.667 -16.5 59s-27.167 32.666 -48.5 45.999l-34.5 17.5l-89.5 45.5
c-37.333 18 -63 32.667 -77 44s-25.333 24.333 -34 39c-8 12 -13.5 24.167 -16.5 36.5s-4.5 25.5 -4.5 39.5c0 48.667 16 88.334 48 119.001s73 46.334 123 47.001c34 0 65.167 -8.16699 93.5 -24.5s51.166 -39.833 68.499 -70.5z" />
    <glyph glyph-name="T" unicode="T" horiz-adv-x="418" 
d="M404 627h-173v-627h-44v627h-173v40h390v-40z" />
    <glyph glyph-name="U" unicode="U" horiz-adv-x="634" 
d="M90 667h44v-417c-0.666992 -38.667 1.16602 -68.167 5.49902 -88.5s11.833 -38.833 22.5 -55.5c16 -26 37.833 -45.333 65.5 -58s57.5 -19 89.5 -19c31.333 0 60.833 6.33301 88.5 19s49.834 32 66.501 58c10 16.667 17.167 35.167 21.5 55.5s6.5 49.833 6.5 88.5v417h44
v-417c-0.666992 -45.333 -3.66699 -80 -9 -104s-15 -46.333 -29 -67c-21.333 -30.667 -48.166 -53.334 -80.499 -68.001s-68.5 -22 -108.5 -22c-40.667 0 -77.167 7.33301 -109.5 22s-58.833 37.334 -79.5 68.001c-14.667 20.667 -24.834 43 -30.501 67
s-8.16699 58.667 -7.5 104v417z" />
    <glyph glyph-name="V" unicode="V" horiz-adv-x="510" 
d="M14 667h48l196 -568l190 568h48l-238 -694z" />
    <glyph glyph-name="W" unicode="W" horiz-adv-x="984" 
d="M14 667h48l184 -566l241 602l226 -602l209 566h48l-257 -692l-226 606l-248 -606z" />
    <glyph glyph-name="X" unicode="X" horiz-adv-x="470" 
d="M23 0l183 340l-175 327h48l151 -285l152 285h48l-174 -327l183 -340h-48l-161 300l-159 -300h-48z" />
    <glyph glyph-name="Y" unicode="Y" horiz-adv-x="516" 
d="M233 0v285l-219 382h50l192 -337l196 337h50l-225 -382v-285h-44z" />
    <glyph glyph-name="Z" unicode="Z" horiz-adv-x="554" 
d="M517 667l-406 -627h395v-40h-469l406 627h-367v40h441z" />
    <glyph glyph-name="bracketleft" unicode="[" horiz-adv-x="278" 
d="M238 689h-106v-809h106v-40h-150v889h150v-40z" />
    <glyph glyph-name="backslash" unicode="\" horiz-adv-x="576" 
d="M556 -158l-32 -16l-504 901l32 16z" />
    <glyph glyph-name="bracketright" unicode="]" horiz-adv-x="278" 
d="M40 -120h106v809h-106v40h150v-889h-150v40z" />
    <glyph glyph-name="asciicircum" unicode="^" 
d="M250 636l-167 -254h-46l186 285h54l186 -285h-46z" />
    <glyph glyph-name="underscore" unicode="_" 
d="M0 -116v38h500v-38h-500z" />
    <glyph glyph-name="grave" unicode="`" 
d="M248 467l-105 128l43 25l92 -137z" />
    <glyph glyph-name="a" unicode="a" horiz-adv-x="516" 
d="M404 337l-0.000976562 71.001h40v-408h-40v73c-18 -26.667 -40.667 -47.167 -68 -61.5s-57.666 -21.833 -90.999 -22.5c-56 0 -103.167 19.5 -141.5 58.5s-57.5 91.167 -57.5 156.5c0 63.333 18.167 114.666 54.5 153.999s84.5 59 144.5 59
c32.667 0 62.5 -6.66699 89.5 -20s50.167 -33.333 69.5 -60zM246.999 379.001c-43.333 -0.666992 -80.668 -16.332 -112.001 -46.999s-47 -72.334 -47 -125.001c0 -49.333 14.333 -91.666 43 -126.999s67.667 -53 117 -53c48.667 -0.666992 87.167 16.666 115.5 51.999
s42.5 78 42.5 128s-15.167 91.167 -45.5 123.5s-68.166 48.5 -113.499 48.5z" />
    <glyph glyph-name="b" unicode="b" horiz-adv-x="516" 
d="M72 729h40.001v-392c18.667 26 41.667 45.833 69 59.5s57.666 20.5 90.999 20.5c60 0 108 -20 144 -60s54 -90 54 -150c0 -62 -18.333 -113.833 -55 -155.5s-85 -62.5 -145 -62.5c-36 0 -67.333 7.5 -94 22.5s-48 35.5 -64 61.5v-73h-40v729zM269.001 27
c49.333 0 88 16.832 116 50.499s42.333 76.834 43 129.501c0 53.333 -15.333 95.333 -46 126s-68 46 -112 46s-81.667 -15 -113 -45s-47 -71.667 -47 -125s14 -97 42 -131s67 -51 117 -51z" />
    <glyph glyph-name="c" unicode="c" horiz-adv-x="442" 
d="M399 365l0.000976562 -52.999c-18.667 20.667 -40 37 -64 49s-49.667 18 -77 18c-50 0 -90.833 -17 -122.5 -51s-47.5 -76 -47.5 -126s15.667 -91.667 47 -125s71.666 -50 120.999 -50c26.667 -0.666992 52.667 5.5 78 18.5s48.666 31.167 69.999 54.5v-54
c-20 -18 -42.5 -31.833 -67.5 -41.5s-52.167 -14.834 -81.5 -15.501c-61.333 0 -111.5 20 -150.5 60s-58.5 90.667 -58.5 152s19.167 112.5 57.5 153.5s89.833 61.833 154.5 62.5c26 0 50.833 -4.5 74.5 -13.5s45.834 -21.833 66.501 -38.5z" />
    <glyph glyph-name="d" unicode="d" horiz-adv-x="516" 
d="M404 337l0.00195312 392.001h40v-729h-40v73c-18 -26.667 -40.667 -47.334 -68 -62.001s-57.333 -22 -90 -22c-55.333 0 -102.5 19 -141.5 57s-58.5 91.333 -58.5 160c0 62.667 17.833 113.5 53.5 152.5s84.5 58.5 146.5 58.5c31.333 0 60.666 -6.66699 87.999 -20
s50.666 -33.333 69.999 -60zM246.002 379.001c-44.667 0 -82.167 -15.167 -112.5 -45.5s-45.5 -72.5 -45.5 -126.5c0 -56.667 15.667 -100.834 47 -132.501s69 -47.5 113 -47.5c42.667 0 79.667 15.833 111 47.5s47 75.834 47 132.501c0 48.667 -14.5 89.5 -43.5 122.5
s-67.833 49.5 -116.5 49.5z" />
    <glyph glyph-name="e" unicode="e" horiz-adv-x="483" 
d="M437 199l-348.999 -0.00195312c-2.66699 -50 12.333 -91.167 45 -123.5s71.667 -48.5 117 -48.5c32 0 60.167 8.33301 84.5 25s43.5 39.334 57.5 68.001l34 -20c-18 -34 -42.167 -61 -72.5 -81s-65.833 -30 -106.5 -30c-62 0.666992 -111 20.834 -147 60.501
s-54 90.5 -54 152.5c-0.666992 66.667 18.666 119.167 57.999 157.5s86 57.5 140 57.5c56 0 102.667 -20.5 140 -61.5s55 -93.167 53 -156.5zM91.001 236.998h304c-5.33301 40.667 -22 74.5 -50 101.5s-61.667 40.5 -101 40.5c-40.667 0 -75 -13.5 -103 -40.5
s-44.667 -60.833 -50 -101.5z" />
    <glyph glyph-name="f" unicode="f" horiz-adv-x="214" 
d="M214 370h-102v-370h-40v370h-46v38h46v194c-0.666992 46.667 8.5 81.5 27.5 104.5s45.5 34.5 79.5 34.5c6 0 11.833 -0.5 17.5 -1.5s11.5 -2.5 17.5 -4.5v-37c-5.33301 1.33301 -10.333 2.5 -15 3.5s-10 1.5 -16 1.5c-24 0 -41.833 -8.5 -53.5 -25.5
s-17.5 -44.833 -17.5 -83.5v-186h102v-38z" />
    <glyph glyph-name="g" unicode="g" horiz-adv-x="520" 
d="M408 408l39.999 -0.00292969v-400c0 -76.667 -18.167 -136 -54.5 -178s-86.5 -63.333 -150.5 -64c-56 0.666992 -102.833 16.5 -140.5 47.5s-57.5 73.5 -59.5 127.5h42c3.33301 -42 19.333 -75.333 48 -100s65.334 -37 110.001 -37c50 0 90 16.833 120 50.5
s45 84.834 45 153.501v62c-20 -27.333 -44.167 -47.666 -72.5 -60.999s-57.833 -20 -88.5 -20c-54.667 0.666992 -101.834 19.834 -141.501 57.501s-59.5 90.167 -59.5 157.5c0 60.667 18.667 111.334 56 152.001s87.333 61 150 61
c32.667 -0.666992 62.334 -7.83398 89.001 -21.501s49 -33.167 67 -58.5v71zM247.999 378.997c-48.667 0 -87.4971 -17.332 -116.497 -51.999s-43.5 -76.334 -43.5 -125.001c-0.666992 -50 13.666 -91.833 42.999 -125.5s67.666 -50.167 114.999 -49.5
c48.667 0 88 17 118 51s45.333 76.667 46 128c0 48.667 -14.833 89.667 -44.5 123s-68.834 50 -117.501 50z" />
    <glyph glyph-name="h" unicode="h" horiz-adv-x="442" 
d="M72 0l0.00292969 729.004h40v-385c12.667 22.667 29.5 40.5 50.5 53.5s45.833 19.5 74.5 19.5c25.333 0 47.666 -5.33301 66.999 -16s34.666 -24.334 45.999 -41.001c6 -10.667 10.667 -23.834 14 -39.501s5.33301 -36.834 6 -63.501v-257h-40v257
c0 21.333 -1.33301 38.166 -4 50.499s-6.66699 22.833 -12 31.5c-8.66699 12.667 -19.834 22.334 -33.501 29.001s-29.167 10.334 -46.5 11.001c-23.333 -0.666992 -43.333 -5.83398 -60 -15.501s-30 -23.5 -40 -41.5c-8 -13.333 -13.667 -28.833 -17 -46.5
s-5 -38.834 -5 -63.501v-212h-40z" />
    <glyph glyph-name="i" unicode="i" horiz-adv-x="184" 
d="M72 408h40v-408h-40v408zM92 507c-10.667 -0.666992 -19.334 2.5 -26.001 9.5s-10 16.167 -10 27.5c0 10.667 3.33301 19.5 10 26.5s15.334 10.5 26.001 10.5c10 0 18.5 -3.5 25.5 -10.5s10.5 -15.833 10.5 -26.5c0 -11.333 -3.5 -20.333 -10.5 -27s-15.5 -10 -25.5 -10z
" />
    <glyph glyph-name="j" unicode="j" horiz-adv-x="184" 
d="M72 408h40v-647h-40v647zM92 507c-10.667 -0.666992 -19.334 2.5 -26.001 9.5s-10 16.167 -10 27.5c0 10.667 3.33301 19.5 10 26.5s15.334 10.5 26.001 10.5c10 0 18.5 -3.5 25.5 -10.5s10.5 -15.833 10.5 -26.5c0 -11.333 -3.5 -20.333 -10.5 -27s-15.5 -10 -25.5 -10z
" />
    <glyph glyph-name="k" unicode="k" horiz-adv-x="396" 
d="M72 729h40v-496l168 175h52l-172 -177l228 -231h-54l-201 202l-21 -21v-181h-40v729z" />
    <glyph glyph-name="l" unicode="l" horiz-adv-x="184" 
d="M72 729h40v-729h-40v729z" />
    <glyph glyph-name="m" unicode="m" horiz-adv-x="652" 
d="M72 0v408.003h40v-51c11.333 19.333 25.666 34.166 42.999 44.499s38.333 15.5 63 15.5c28 0 51.667 -6.66699 71 -20s33.666 -31.333 42.999 -54c11.333 24 27.333 42.333 48 55s45 19 73 19c18.667 -0.666992 35.834 -3.83398 51.501 -9.50098
s29.167 -13.834 40.5 -24.501c11.333 -12.667 20 -27.667 26 -45s9 -39.333 9 -66v-272h-40v272c0 21.333 -2 38.5 -6 51.5s-10 23.833 -18 32.5c-8 7.33301 -17 13 -27 17s-21.333 6 -34 6c-34 0 -60.667 -11 -80 -33s-29 -55.333 -29 -100v-246h-40v262
c0 40 -8.16699 69.5 -24.5 88.5s-38.166 28.5 -65.499 28.5c-34.667 0 -60.667 -13.333 -78 -40s-26 -61 -26 -103v-236h-40z" />
    <glyph glyph-name="n" unicode="n" horiz-adv-x="442" 
d="M72 0l0.00292969 408.004h40v-64c12.667 22.667 29.5 40.5 50.5 53.5s45.833 19.5 74.5 19.5c25.333 0 47.666 -5.33301 66.999 -16s34.666 -24.334 45.999 -41.001c6 -10.667 10.667 -23.834 14 -39.501s5.33301 -36.834 6 -63.501v-257h-40v257
c0 21.333 -1.33301 38.166 -4 50.499s-6.66699 22.833 -12 31.5c-8.66699 12.667 -19.834 22.334 -33.501 29.001s-29.167 10.334 -46.5 11.001c-23.333 -0.666992 -43.333 -5.83398 -60 -15.501s-30 -23.5 -40 -41.5c-8 -13.333 -13.667 -28.833 -17 -46.5
s-5 -38.834 -5 -63.501v-212h-40z" />
    <glyph glyph-name="o" unicode="o" horiz-adv-x="520" 
d="M260 417c60.667 0 111.5 -20.5 152.5 -61.5s61.5 -91.833 61.5 -152.5c0 -61.333 -20.5 -112.333 -61.5 -153s-91.833 -61 -152.5 -61c-61.333 0 -112.333 20.333 -153 61s-61 91.667 -61 153c0 60.667 20.333 111.5 61 152.5s91.667 61.5 153 61.5zM260 27
c48.667 -0.666992 89.5 16 122.5 50s49.5 76 49.5 126c0 49.333 -16.5 91 -49.5 125s-73.833 51 -122.5 51c-49.333 0 -90.5 -17 -123.5 -51s-49.167 -75.667 -48.5 -125c0 -50 16.333 -91.833 49 -125.5s73.667 -50.5 123 -50.5z" />
    <glyph glyph-name="p" unicode="p" horiz-adv-x="516" 
d="M112 73l0.000976562 -312h-40v647h40v-71c18.667 26 41.667 45.833 69 59.5s57.666 20.5 90.999 20.5c60 0 108 -20 144 -60s54 -90 54 -150c0 -62 -18.333 -113.833 -55 -155.5s-85 -62.5 -145 -62.5c-36 0 -67.333 7.5 -94 22.5s-48 35.5 -64 61.5zM269.001 27
c49.333 0 88 16.832 116 50.499s42.333 76.834 43 129.501c0 53.333 -15.333 95.333 -46 126s-68 46 -112 46s-81.667 -15 -113 -45s-47 -71.667 -47 -125s14 -97 42 -131s67 -51 117 -51z" />
    <glyph glyph-name="q" unicode="q" horiz-adv-x="516" 
d="M444 -239l-39.998 0.000976562v312c-18 -26.667 -40.667 -47.334 -68 -62.001s-57.333 -22 -90 -22c-55.333 0 -102.5 19 -141.5 57s-58.5 91.333 -58.5 160c0 62.667 17.833 113.5 53.5 152.5s84.5 58.5 146.5 58.5c31.333 0 60.666 -6.66699 87.999 -20
s50.666 -33.333 69.999 -60v71h40v-647zM246.002 379.001c-44.667 0 -82.167 -15.167 -112.5 -45.5s-45.5 -72.5 -45.5 -126.5c0 -56.667 15.667 -100.834 47 -132.501s69 -47.5 113 -47.5c42.667 0 79.667 15.833 111 47.5s47 75.834 47 132.501
c0 48.667 -14.5 89.5 -43.5 122.5s-67.833 49.5 -116.5 49.5z" />
    <glyph glyph-name="r" unicode="r" horiz-adv-x="260" 
d="M72 0l-0.000976562 408h40v-53c8 18 19.667 32.667 35 44s33.666 17.333 54.999 18c6.66699 0 13.834 -1 21.501 -3s14.834 -4.33301 21.501 -7l-20 -36c-4 2.66699 -8.5 4.66699 -13.5 6s-10.5 2 -16.5 2c-29.333 0 -50.5 -13.167 -63.5 -39.5s-19.5 -66.5 -19.5 -120.5
v-219h-40z" />
    <glyph glyph-name="s" unicode="s" horiz-adv-x="342" 
d="M288 351l-34 -18.0059c-6.66699 14.667 -16.5 26 -29.5 34s-26.833 12 -41.5 12c-20 0 -36.5 -6.16699 -49.5 -18.5s-19.5 -27.833 -19.5 -46.5c0 -14 4.16699 -26 12.5 -36s30.833 -22 67.5 -36c37.333 -15.333 61 -26.5 71 -33.5s18.667 -14.833 26 -23.5
c6.66699 -9.33301 11.834 -19.166 15.501 -29.499s5.5 -22.5 5.5 -36.5c0 -39.333 -12.333 -70.833 -37 -94.5s-56.667 -35.5 -96 -35.5c-34.667 0 -64.834 9.5 -90.501 28.5s-42.5 45.5 -50.5 79.5l39 12c6.66699 -26.667 19.334 -47.167 38.001 -61.5
s40 -21.166 64 -20.499c26 0 47.667 8.33301 65 25s26 38.334 26 65.001c0 19.333 -5.5 34.833 -16.5 46.5s-31.5 23.834 -61.5 36.501c-38.667 15.333 -63.834 26.833 -75.501 34.5s-20.5 15.834 -26.5 24.501c-6 7.33301 -10.5 15.5 -13.5 24.5s-4.5 18.5 -4.5 28.5
c0 30.667 10.167 55.834 30.5 75.501s46.5 29.5 78.5 29.5c24 -0.666992 45.333 -6.5 64 -17.5s33 -27.167 43 -48.5z" />
    <glyph glyph-name="t" unicode="t" horiz-adv-x="194" 
d="M186 370h-71v-370h-40v370h-45v38h45v146h40v-146h71v-38z" />
    <glyph glyph-name="u" unicode="u" horiz-adv-x="438" 
d="M72 408l39.998 -0.000976562v-246c0 -26 2 -46.833 6 -62.5s10.667 -28.834 20 -39.501c8.66699 -11.333 19.834 -19.666 33.501 -24.999s29.5 -8 47.5 -8c17.333 -0.666992 32.833 1.83301 46.5 7.5s25.167 14.167 34.5 25.5c8.66699 10.667 15.167 23.834 19.5 39.501
s6.5 36.5 6.5 62.5v246h40v-257c0 -26.667 -2.66699 -48.834 -8 -66.501s-13 -32.834 -23 -45.501c-13.333 -16.667 -30 -29.167 -50 -37.5s-42 -12.5 -66 -12.5c-24.667 0 -47 4.16699 -67 12.5s-36.333 20.833 -49 37.5c-10.667 12.667 -18.667 27.834 -24 45.501
s-7.66602 39.834 -6.99902 66.501v257z" />
    <glyph glyph-name="v" unicode="v" horiz-adv-x="390" 
d="M8 408h44l144 -339l142 339h44l-186 -433z" />
    <glyph glyph-name="w" unicode="w" horiz-adv-x="672" 
d="M8 408h44l141 -337l141 362l141 -362l145 337h44l-189 -433l-141 362l-141 -362z" />
    <glyph glyph-name="x" unicode="x" horiz-adv-x="400" 
d="M8 0l165 214l-151 194h49l129 -168l127 168h49l-148 -194l164 -214h-49l-143 188l-143 -188h-49z" />
    <glyph glyph-name="y" unicode="y" horiz-adv-x="428" 
d="M102 -239l100 232l-194 415h46l171 -363l149 363h46l-272 -647h-46z" />
    <glyph glyph-name="z" unicode="z" horiz-adv-x="452" 
d="M434 408l-330 -370h328v-38h-414l334 370h-282v38h364z" />
    <glyph glyph-name="braceleft" unicode="{" horiz-adv-x="278" 
d="M40 270l0.00195312 29.001c20 5.33301 34.833 15 44.5 29s14.5 37.667 14.5 71v194c-0.666992 28.667 1.66602 50.667 6.99902 66s13.333 28 24 38c10.667 10.667 24.834 18.5 42.501 23.5s36.167 7.83301 55.5 8.5h12v-40
c-14.667 1.33301 -29.5 -0.333984 -44.5 -5.00098s-26.167 -11 -33.5 -19s-12.333 -17.667 -15 -29s-4 -26.666 -4 -45.999v-194c-0.666992 -35.333 -6 -60.833 -16 -76.5s-26 -27.5 -48 -35.5c21.333 -8 37.166 -21.5 47.499 -40.5s15.833 -44.167 16.5 -75.5v-182
c0 -20 1.5 -37 4.5 -51s7.83301 -24.667 14.5 -32c7.33301 -8.66699 18.5 -15 33.5 -19s29.833 -5.33301 44.5 -4v-40h-9c-26 0 -47 3 -63 9s-29 14.333 -39 25c-10.667 11.333 -18.334 26.333 -23.001 45s-7 43.667 -7 75v176c0 30.667 -4.83301 53.667 -14.5 69
s-24.5 25.666 -44.5 30.999z" />
    <glyph glyph-name="bar" unicode="|" 
d="M230 -250v1000h40v-1000h-40z" />
    <glyph glyph-name="braceright" unicode="}" horiz-adv-x="278" 
d="M238 299l-0.000976562 -29.001c-20.667 -5.33301 -35.667 -15.666 -45 -30.999s-14 -38.333 -14 -69v-176c-0.666992 -31.333 -3.33398 -56.333 -8.00098 -75s-12 -33.667 -22 -45c-10.667 -10.667 -24 -19 -40 -25s-36.667 -9 -62 -9h-9v40c14 -1.33301 28.5 0 43.5 4
s26.5 10.333 34.5 19c6 7.33301 10.667 18 14 32s5 31 5 51v182c0 31.333 5.16699 56.5 15.5 75.5s26.5 32.5 48.5 40.5c-22.667 8 -39 19.833 -49 35.5s-15 41.167 -15 76.5v194c0 19.333 -1.5 34.666 -4.5 45.999s-7.83301 21 -14.5 29c-8 8 -19.5 14.333 -34.5 19
s-29.5 6.33398 -43.5 5.00098v40h12c18.667 0 36.834 -2.66699 54.501 -8s32.167 -13.333 43.5 -24c10 -10 17.5 -22.667 22.5 -38s7.83301 -37.333 8.5 -66v-194c-0.666992 -33.333 3.83301 -57 13.5 -71s24.834 -23.667 45.501 -29z" />
    <glyph glyph-name="asciitilde" unicode="~" horiz-adv-x="600" 
d="M89 596l-27.001 16.001c6 12 13.167 24 21.5 36s16.833 22.333 25.5 31c11.333 11.333 24 20 38 26s29.667 9 47 9c11.333 0 24.333 -2.33301 39 -7s39.334 -15.667 74.001 -33c28.667 -15.333 50 -25.333 64 -30s27 -7 39 -7c12.667 0 24.167 2 34.5 6s20.5 11 30.5 21
c6 6 12.167 13.5 18.5 22.5s12.166 18.5 17.499 28.5l27 -16c-5.33301 -10.667 -11.333 -21.167 -18 -31.5s-13.667 -19.166 -21 -26.499c-14 -14.667 -28.833 -25.334 -44.5 -32.001s-32.5 -10 -50.5 -10c-16.667 0 -35.5 3.83301 -56.5 11.5s-47.167 20.5 -78.5 38.5
c-22 11.333 -38 18.666 -48 21.999s-20 5 -30 5c-12.667 0 -24.167 -2.16699 -34.5 -6.5s-20.166 -10.833 -29.499 -19.5c-8 -7.33301 -15.333 -15.833 -22 -25.5s-12 -19.167 -16 -28.5z" />
    <glyph glyph-name="afii10051" horiz-adv-x="670" 
d="M424 627l-199.998 -0.00292969v-250c18 2.66699 42.667 5.16699 74 7.5s57.333 3.5 78 3.5c30.667 0 58.834 -2.5 84.501 -7.5s47.5 -11.833 65.5 -20.5c32 -16.667 56.333 -39.667 73 -69s25 -63.333 25 -102c0 -60.667 -16.833 -109.167 -50.5 -145.5
s-76.167 -54.5 -127.5 -54.5c-20.667 0 -41.334 2.33301 -62.001 7s-40 12.334 -58 23.001l16 39c15.333 -9.33301 32.166 -16.666 50.499 -21.999s36.5 -7.66602 54.5 -6.99902c38.667 0 70.167 14.333 94.5 43s36.5 67 36.5 115c0 32 -6.33301 59.833 -19 83.5
s-33 42.167 -61 55.5c-16 6.66699 -34 12 -54 16s-42.667 6 -68 6c-20.667 0 -44.834 -1.16699 -72.501 -3.5s-54.167 -4.83301 -79.5 -7.5v-337h-44v627h-166v40h410v-40z" />
    <glyph glyph-name="afii10051" unicode="&#x402;" horiz-adv-x="670" 
d="M424 627l-199.998 -0.00292969v-250c18 2.66699 42.667 5.16699 74 7.5s57.333 3.5 78 3.5c30.667 0 58.834 -2.5 84.501 -7.5s47.5 -11.833 65.5 -20.5c32 -16.667 56.333 -39.667 73 -69s25 -63.333 25 -102c0 -60.667 -16.833 -109.167 -50.5 -145.5
s-76.167 -54.5 -127.5 -54.5c-20.667 0 -41.334 2.33301 -62.001 7s-40 12.334 -58 23.001l16 39c15.333 -9.33301 32.166 -16.666 50.499 -21.999s36.5 -7.66602 54.5 -6.99902c38.667 0 70.167 14.333 94.5 43s36.5 67 36.5 115c0 32 -6.33301 59.833 -19 83.5
s-33 42.167 -61 55.5c-16 6.66699 -34 12 -54 16s-42.667 6 -68 6c-20.667 0 -44.834 -1.16699 -72.501 -3.5s-54.167 -4.83301 -79.5 -7.5v-337h-44v627h-166v40h410v-40z" />
    <glyph glyph-name="afii10052" horiz-adv-x="400" 
d="M90 0v667h296v-40h-252v-627h-44zM316 854l50 -25l-134 -126l-32 18z" />
    <glyph glyph-name="afii10052" unicode="&#x403;" horiz-adv-x="400" 
d="M90 0v667h296v-40h-252v-627h-44zM316 854l50 -25l-134 -126l-32 18z" />
    <glyph glyph-name="afii10061" horiz-adv-x="540" 
d="M134 667v-314l315 314h58l-323 -319l342 -348h-60l-314 318l-18 -17v-301h-44v667h44zM336 854l50 -25l-134 -126l-32 18z" />
    <glyph glyph-name="afii10061" unicode="&#x40c;" horiz-adv-x="540" 
d="M134 667v-314l315 314h58l-323 -319l342 -348h-60l-314 318l-18 -17v-301h-44v667h44zM336 854l50 -25l-134 -126l-32 18z" />
    <glyph glyph-name="afii10060" horiz-adv-x="670" 
d="M424 627l-200 -0.00195312v-243h170c32.667 0 59.5 -1.83301 80.5 -5.5s39.5 -9.16699 55.5 -16.5c26 -13.333 44 -30.666 54 -51.999s15.333 -53.666 16 -96.999v-213h-44v213c0 37.333 -4.5 63.833 -13.5 79.5s-22.5 27.834 -40.5 36.501
c-12.667 5.33301 -28.167 9.16602 -46.5 11.499s-43.5 3.5 -75.5 3.5h-156v-344h-44v627h-166v40h410v-40z" />
    <glyph glyph-name="afii10060" unicode="&#x40b;" horiz-adv-x="670" 
d="M424 627l-200 -0.00195312v-243h170c32.667 0 59.5 -1.83301 80.5 -5.5s39.5 -9.16699 55.5 -16.5c26 -13.333 44 -30.666 54 -51.999s15.333 -53.666 16 -96.999v-213h-44v213c0 37.333 -4.5 63.833 -13.5 79.5s-22.5 27.834 -40.5 36.501
c-12.667 5.33301 -28.167 9.16602 -46.5 11.499s-43.5 3.5 -75.5 3.5h-156v-344h-44v627h-166v40h410v-40z" />
    <glyph glyph-name="afii10145" horiz-adv-x="666" 
d="M90 0v667h44v-627h398v627h44v-667h-221v-180h-44v180h-221z" />
    <glyph glyph-name="afii10145" unicode="&#x40f;" horiz-adv-x="666" 
d="M90 0v667h44v-627h398v627h44v-667h-221v-180h-44v180h-221z" />
    <glyph glyph-name="afii10099" horiz-adv-x="442" 
d="M72 0l0.00292969 562.004h-72v38h72v129h40v-129h180v-38h-180v-218c12.667 22.667 29.5 40.5 50.5 53.5s45.833 19.5 74.5 19.5c25.333 0 47.666 -5.33301 66.999 -16s34.666 -24.334 45.999 -41.001c6 -10.667 10.667 -23.834 14 -39.501s5.33301 -36.834 6 -63.501
v-357c-0.666992 -46.667 -10.334 -81.5 -29.001 -104.5s-44.667 -34.5 -78 -34.5c-6.66699 0 -12.834 0.5 -18.501 1.5s-11.167 2.5 -16.5 4.5v37c4.66699 -1.33301 9.33398 -2.5 14.001 -3.5s10.334 -1.5 17.001 -1.5c23.333 0 41 8.5 53 25.5s18 44.833 18 83.5v349
c0 21.333 -1.33301 38.166 -4 50.499s-6.66699 22.833 -12 31.5c-8.66699 12.667 -19.834 22.334 -33.501 29.001s-29.167 10.334 -46.5 11.001c-23.333 -0.666992 -43.333 -5.83398 -60 -15.501s-30 -23.5 -40 -41.5c-8 -13.333 -13.667 -28.833 -17 -46.5
s-5 -38.834 -5 -63.501v-212h-40z" />
    <glyph glyph-name="afii10099" unicode="&#x452;" horiz-adv-x="442" 
d="M72 0l0.00292969 562.004h-72v38h72v129h40v-129h180v-38h-180v-218c12.667 22.667 29.5 40.5 50.5 53.5s45.833 19.5 74.5 19.5c25.333 0 47.666 -5.33301 66.999 -16s34.666 -24.334 45.999 -41.001c6 -10.667 10.667 -23.834 14 -39.501s5.33301 -36.834 6 -63.501
v-357c-0.666992 -46.667 -10.334 -81.5 -29.001 -104.5s-44.667 -34.5 -78 -34.5c-6.66699 0 -12.834 0.5 -18.501 1.5s-11.167 2.5 -16.5 4.5v37c4.66699 -1.33301 9.33398 -2.5 14.001 -3.5s10.334 -1.5 17.001 -1.5c23.333 0 41 8.5 53 25.5s18 44.833 18 83.5v349
c0 21.333 -1.33301 38.166 -4 50.499s-6.66699 22.833 -12 31.5c-8.66699 12.667 -19.834 22.334 -33.501 29.001s-29.167 10.334 -46.5 11.001c-23.333 -0.666992 -43.333 -5.83398 -60 -15.501s-30 -23.5 -40 -41.5c-8 -13.333 -13.667 -28.833 -17 -46.5
s-5 -38.834 -5 -63.501v-212h-40z" />
    <glyph glyph-name="afii10109" horiz-adv-x="396" 
d="M72 408h40v-194l206 194h54l-208 -194l224 -214h-58l-196 187l-22 -21v-166h-40v408zM253 620l43 -25l-105 -128l-30 16z" />
    <glyph glyph-name="afii10109" unicode="&#x45c;" horiz-adv-x="396" 
d="M72 408h40v-194l206 194h54l-208 -194l224 -214h-58l-196 187l-22 -21v-166h-40v408zM253 620l43 -25l-105 -128l-30 16z" />
    <glyph glyph-name="afii10108" horiz-adv-x="442" 
d="M72 0l0.00292969 562.004h-72v38h72v129h40v-129h180v-38h-180v-218c12.667 22.667 29.5 40.5 50.5 53.5s45.833 19.5 74.5 19.5c25.333 0 47.666 -5.33301 66.999 -16s34.666 -24.334 45.999 -41.001c6 -10.667 10.667 -23.834 14 -39.501s5.33301 -36.834 6 -63.501
v-257h-40v257c0 21.333 -1.33301 38.166 -4 50.499s-6.66699 22.833 -12 31.5c-8.66699 12.667 -19.834 22.334 -33.501 29.001s-29.167 10.334 -46.5 11.001c-23.333 -0.666992 -43.333 -5.83398 -60 -15.501s-30 -23.5 -40 -41.5c-8 -13.333 -13.667 -28.833 -17 -46.5
s-5 -38.834 -5 -63.501v-212h-40z" />
    <glyph glyph-name="afii10108" unicode="&#x45b;" horiz-adv-x="442" 
d="M72 0l0.00292969 562.004h-72v38h72v129h40v-129h180v-38h-180v-218c12.667 22.667 29.5 40.5 50.5 53.5s45.833 19.5 74.5 19.5c25.333 0 47.666 -5.33301 66.999 -16s34.666 -24.334 45.999 -41.001c6 -10.667 10.667 -23.834 14 -39.501s5.33301 -36.834 6 -63.501
v-257h-40v257c0 21.333 -1.33301 38.166 -4 50.499s-6.66699 22.833 -12 31.5c-8.66699 12.667 -19.834 22.334 -33.501 29.001s-29.167 10.334 -46.5 11.001c-23.333 -0.666992 -43.333 -5.83398 -60 -15.501s-30 -23.5 -40 -41.5c-8 -13.333 -13.667 -28.833 -17 -46.5
s-5 -38.834 -5 -63.501v-212h-40z" />
    <glyph glyph-name="afii10062" unicode="&#xa1;" horiz-adv-x="550" 
d="M14 667h50l231 -432l195 432h46l-305 -667h-46l85 186zM145 803l35 19c9.33301 -21.333 23 -37.333 41 -48s39.333 -16 64 -16c24 0 45 5.33301 63 16s32 26.667 42 48l35 -19c-12.667 -28.667 -31.667 -50 -57 -64s-53 -21 -83 -21c-30.667 0 -58.667 7 -84 21
s-44 35.333 -56 64z" />
    <glyph glyph-name="afii10062" unicode="&#x40e;" horiz-adv-x="550" 
d="M14 667h50l231 -432l195 432h46l-305 -667h-46l85 186zM145 803l35 19c9.33301 -21.333 23 -37.333 41 -48s39.333 -16 64 -16c24 0 45 5.33301 63 16s32 26.667 42 48l35 -19c-12.667 -28.667 -31.667 -50 -57 -64s-53 -21 -83 -21c-30.667 0 -58.667 7 -84 21
s-44 35.333 -56 64z" />
    <glyph glyph-name="afii10110" unicode="&#xa2;" horiz-adv-x="428" 
d="M102 -239l100 232l-194 415h46l171 -363l149 363h46l-272 -647h-46zM90 573l33.999 17c5.33301 -21.333 16.333 -38.833 33 -52.5s37.667 -20.5 63 -20.5c24.667 0 45.334 6.83301 62.001 20.5s28 31.167 34 52.5l34 -17c-10 -31.333 -26.333 -54.833 -49 -70.5
s-49.667 -23.5 -81 -23.5c-32 0 -59.333 7.83301 -82 23.5s-38.667 39.167 -48 70.5z" />
    <glyph glyph-name="afii10110" unicode="&#x45e;" horiz-adv-x="428" 
d="M102 -239l100 232l-194 415h46l171 -363l149 363h46l-272 -647h-46zM90 573l33.999 17c5.33301 -21.333 16.333 -38.833 33 -52.5s37.667 -20.5 63 -20.5c24.667 0 45.334 6.83301 62.001 20.5s28 31.167 34 52.5l34 -17c-10 -31.333 -26.333 -54.833 -49 -70.5
s-49.667 -23.5 -81 -23.5c-32 0 -59.333 7.83301 -82 23.5s-38.667 39.167 -48 70.5z" />
    <glyph glyph-name="afii10057" unicode="&#xa3;" horiz-adv-x="264" 
d="M130 667l43.998 0.000976562v-665c0 -48.667 -10.333 -84.167 -31 -106.5s-49 -33.833 -85 -34.5c-26.667 0 -49.167 6.66699 -67.5 20s-33.166 30.666 -44.499 51.999l31 24c9.33301 -17.333 21.333 -31 36 -41s30.334 -15 47.001 -15c24 0 41.667 8.33301 53 25
s17 42 17 76v665z" />
    <glyph glyph-name="afii10057" unicode="&#x408;" horiz-adv-x="264" 
d="M130 667l43.998 0.000976562v-665c0 -48.667 -10.333 -84.167 -31 -106.5s-49 -33.833 -85 -34.5c-26.667 0 -49.167 6.66699 -67.5 20s-33.166 30.666 -44.499 51.999l31 24c9.33301 -17.333 21.333 -31 36 -41s30.334 -15 47.001 -15c24 0 41.667 8.33301 53 25
s17 42 17 76v665z" />
    <glyph glyph-name="currency" unicode="&#xa4;" horiz-adv-x="666" 
d="M99 90l-24.0039 25l90 89c-19.333 20.667 -33.5 43.667 -42.5 69s-13.5 51 -13.5 77c-0.666992 26 3.5 51.167 12.5 75.5s22.5 46.833 40.5 67.5l-90 90l24 24l90 -89c20 18.667 42.833 32.667 68.5 42s51.834 14 78.501 14c26 0 51.833 -4.66699 77.5 -14
s48.834 -23.333 69.501 -42l90 89l24 -24l-90 -90c18 -20 31.5 -42 40.5 -66s13.5 -50 13.5 -78c0 -26 -4.33301 -50.667 -13 -74s-22.667 -46.333 -42 -69l91 -91l-24 -24l-91 91c-20 -18 -42 -31.667 -66 -41s-50 -14 -78 -14c-29.333 0 -56.166 4.5 -80.499 13.5
s-46.166 22.167 -65.499 39.5zM519.996 350c0 51.333 -18.332 95.5 -54.999 132.5s-80.667 55.5 -132 55.5s-95.333 -18.5 -132 -55.5s-54.667 -81.167 -54 -132.5c0 -52 18.167 -96.167 54.5 -132.5s80.166 -54.5 131.499 -54.5c51.333 -0.666992 95.333 17.333 132 54
s55 81 55 133z" />
    <glyph glyph-name="CyrHardG" unicode="&#xa5;" horiz-adv-x="400" 
d="M90 0v667h254v133h42v-173h-252v-627h-44z" />
    <glyph glyph-name="CyrHardG" unicode="&#x490;" horiz-adv-x="400" 
d="M90 0v667h254v133h42v-173h-252v-627h-44z" />
    <glyph glyph-name="brokenbar" unicode="&#xa6;" 
d="M230 390v360h40v-360h-40zM230 -250v360h40v-360h-40z" />
    <glyph glyph-name="section" unicode="&#xa7;" horiz-adv-x="548" 
d="M209 441c-27.333 11.333 -49.668 29.002 -67.001 53.002s-25.666 53.333 -24.999 88c0 46 14.833 83 44.5 111s69.834 42 120.501 42c39.333 0 72 -9.16699 98 -27.5s43.333 -41.166 52 -68.499c2 -8 4 -19.333 6 -34s3.33301 -28.667 4 -42h-44
c0.666992 10.667 0.166992 21.667 -1.5 33s-3.83398 21.666 -6.50098 30.999c-8 21.333 -21.167 37.833 -39.5 49.5s-41.166 17.834 -68.499 18.501c-37.333 -0.666992 -66.5 -11 -87.5 -31s-31.5 -48 -31.5 -84c0 -27.333 8.83301 -51 26.5 -71s53.5 -38 107.5 -54
c26.667 -8.66699 47.334 -16.667 62.001 -24s27.667 -15.666 39 -24.999c16 -14.667 28.167 -32.334 36.5 -53.001s12.833 -44.334 13.5 -71.001c0 -36.667 -9.33301 -69 -28 -97s-46 -48.667 -82 -62c30 -12 53.833 -30.333 71.5 -55s26.834 -54.667 27.501 -90
c0 -50.667 -15.5 -88.334 -46.5 -113.001s-69.833 -37.334 -116.5 -38.001c-38 0.666992 -68.833 7.83398 -92.5 21.501s-40.5 31.834 -50.5 54.501c-5.33301 12 -9.5 27.167 -12.5 45.5s-3.83301 35.5 -2.5 51.5h44c-0.666992 -12 -0.166992 -24.5 1.5 -37.5
s4.16699 -23.833 7.5 -32.5c7.33301 -20.667 20.5 -36.334 39.5 -47.001s40.833 -16 65.5 -16c35.333 0 63.666 10.167 84.999 30.5s32 47.5 32 81.5c0 29.333 -9 54.333 -27 75s-45.333 36.334 -82 47.001c-54.667 15.333 -88.334 26.666 -101.001 33.999
s-23.667 15.666 -33 24.999c-16.667 15.333 -28.834 33 -36.501 53s-11.5 42.667 -11.5 68c0 36 9 68 27 96s45.333 49.333 82 64zM273.998 411.002c-38 -0.666992 -69 -13.168 -93 -37.501s-35.667 -54.833 -35 -91.5c0 -37.333 11.833 -68.166 35.5 -92.499
s54.5 -36.5 92.5 -36.5c37.333 0 68 12.167 92 36.5s36 55.166 36 92.499c0 36.667 -12 67.334 -36 92.001s-54.667 37 -92 37z" />
    <glyph glyph-name="afii10023" unicode="&#xa8;" horiz-adv-x="464" 
d="M410 667v-40h-276v-242h270v-40h-270v-305h276v-40h-320v667h320zM121 780c0 10 3.66699 18.833 11 26.5s16.333 11.5 27 11.5c10 0 18.833 -3.83301 26.5 -11.5s11.5 -16.5 11.5 -26.5c0 -10.667 -3.83301 -19.667 -11.5 -27s-16.5 -11 -26.5 -11
c-10.667 0 -19.667 3.66699 -27 11s-11 16.333 -11 27zM307 780c0 10 3.66699 18.832 11 26.499s16.333 11.5 27 11.5c10 0 18.833 -3.83301 26.5 -11.5s11.5 -16.5 11.5 -26.5c0 -10.667 -3.83301 -19.667 -11.5 -27s-16.5 -11 -26.5 -11
c-10.667 -0.666992 -19.667 2.83301 -27 10.5s-11 16.834 -11 27.501z" />
    <glyph glyph-name="afii10023" unicode="&#x401;" horiz-adv-x="464" 
d="M410 667v-40h-276v-242h270v-40h-270v-305h276v-40h-320v667h320zM121 780c0 10 3.66699 18.833 11 26.5s16.333 11.5 27 11.5c10 0 18.833 -3.83301 26.5 -11.5s11.5 -16.5 11.5 -26.5c0 -10.667 -3.83301 -19.667 -11.5 -27s-16.5 -11 -26.5 -11
c-10.667 0 -19.667 3.66699 -27 11s-11 16.333 -11 27zM307 780c0 10 3.66699 18.832 11 26.499s16.333 11.5 27 11.5c10 0 18.833 -3.83301 26.5 -11.5s11.5 -16.5 11.5 -26.5c0 -10.667 -3.83301 -19.667 -11.5 -27s-16.5 -11 -26.5 -11
c-10.667 -0.666992 -19.667 2.83301 -27 10.5s-11 16.834 -11 27.501z" />
    <glyph glyph-name="copyright" unicode="&#xa9;" horiz-adv-x="740" 
d="M27 333c0 94.667 33.333 175.667 100 243s147.667 101 243 101c94.667 -0.666992 175.5 -34.5 242.5 -101.5s100.5 -147.833 100.5 -242.5s-33.5 -175.5 -100.5 -242.5s-147.833 -100.5 -242.5 -100.5c-95.333 0 -176.333 33.5 -243 100.5s-100 147.833 -100 242.5z
M679 333c-0.666992 86 -31.1689 159.833 -91.502 221.5s-132.833 92.5 -217.5 92.5c-85.333 0 -158.166 -30.833 -218.499 -92.5s-90.5 -135.5 -90.5 -221.5c-0.666992 -86.667 29.333 -160.5 90 -221.5s133.667 -91.5 219 -91.5c84.667 0 157.334 30.5 218.001 91.5
s91 134.833 91 221.5zM512.998 474v-53.001c-16 20.667 -35 37.167 -57 49.5s-46.333 18.5 -73 18.5c-46 0 -83.833 -15.333 -113.5 -46s-44.5 -69 -44.5 -115c0 -45.333 15 -83 45 -113s68 -45 114 -45c24 0 47.167 5.33301 69.5 16s42.166 27 59.499 49v-52
c-19.333 -16 -39.833 -28.167 -61.5 -36.5s-44.167 -12.5 -67.5 -12.5c-56.667 0 -103.667 18.333 -141 55s-56 83.334 -56 140.001c0 56 18.667 102.667 56 140s84.333 56 141 56c24 0 46.833 -4.5 68.5 -13.5s41.834 -21.5 60.501 -37.5z" />
    <glyph glyph-name="afii10053" unicode="&#xaa;" horiz-adv-x="678" 
d="M624 589l0.00292969 -58.001c-28.667 33.333 -62.667 59.166 -102 77.499s-80.333 27.5 -123 27.5c-76.667 0 -143.5 -25.833 -200.5 -77.5s-89.167 -116.5 -96.5 -194.5h442v-40h-444c1.33301 -89.333 32.666 -160.833 93.999 -214.5s130 -80.5 206 -80.5
c41.333 0 81.666 9 120.999 27s73.666 42.667 102.999 74v-58c-29.333 -26 -63 -46.333 -101 -61s-78.333 -22 -121 -22c-98.667 0.666992 -181.5 34.334 -248.5 101.001s-100.167 147.334 -99.5 242.001c0 96 33.5 177.167 100.5 243.5s148.833 99.833 245.5 100.5
c44.667 0 86 -8 124 -24s71.333 -37 100 -63z" />
    <glyph glyph-name="afii10053" unicode="&#x404;" horiz-adv-x="678" 
d="M624 589l0.00292969 -58.001c-28.667 33.333 -62.667 59.166 -102 77.499s-80.333 27.5 -123 27.5c-76.667 0 -143.5 -25.833 -200.5 -77.5s-89.167 -116.5 -96.5 -194.5h442v-40h-444c1.33301 -89.333 32.666 -160.833 93.999 -214.5s130 -80.5 206 -80.5
c41.333 0 81.666 9 120.999 27s73.666 42.667 102.999 74v-58c-29.333 -26 -63 -46.333 -101 -61s-78.333 -22 -121 -22c-98.667 0.666992 -181.5 34.334 -248.5 101.001s-100.167 147.334 -99.5 242.001c0 96 33.5 177.167 100.5 243.5s148.833 99.833 245.5 100.5
c44.667 0 86 -8 124 -24s71.333 -37 100 -63z" />
    <glyph glyph-name="guillemotleft" unicode="&#xab;" horiz-adv-x="348" 
d="M80 207l108 -126l-26 -24l-130 150l130 150l26 -24zM186 207l108 -126l-26 -24l-130 150l130 150l26 -24z" />
    <glyph glyph-name="logicalnot" unicode="&#xac;" 
d="M467 0h-40v229h-394v38h434v-267z" />
    <glyph glyph-name="registered" unicode="&#xae;" horiz-adv-x="740" 
d="M27 333c0 94.667 33.333 175.667 100 243s147.667 101 243 101c94.667 -0.666992 175.5 -34.5 242.5 -101.5s100.5 -147.833 100.5 -242.5s-33.5 -175.5 -100.5 -242.5s-147.833 -100.5 -242.5 -100.5c-95.333 0 -176.333 33.5 -243 100.5s-100 147.833 -100 242.5z
M679 333c-0.666992 86 -31.1689 159.833 -91.502 221.5s-132.833 92.5 -217.5 92.5c-85.333 0 -158.166 -30.833 -218.499 -92.5s-90.5 -135.5 -90.5 -221.5c-0.666992 -86.667 29.333 -160.5 90 -221.5s133.667 -91.5 219 -91.5c84.667 0 157.334 30.5 218.001 91.5
s91 134.833 91 221.5zM494.998 135l-39.999 -0.00195312l-117 171h-7v-171h-34v370h62c40 -0.666992 69.667 -8.66699 89 -24s29 -41 29 -77c0 -22.667 -5.33301 -41.5 -16 -56.5s-26.667 -26.5 -48 -34.5c-8.66699 -3.33301 -15.334 -5.16602 -20.001 -5.49902
s-10 -1.16602 -16 -2.49902zM330.999 473.998v-137h34c26.667 0 46.167 6 58.5 18s18.5 28.667 18.5 50c-0.666992 22 -6.5 39 -17.5 51s-32.5 18 -64.5 18h-29z" />
    <glyph glyph-name="afii10056" unicode="&#xaf;" horiz-adv-x="224" 
d="M90 667h44v-667h-44v667zM10 780c0 10 3.66699 18.668 11 26.001s16.333 11.333 27 12c10 0 18.833 -3.83301 26.5 -11.5s11.5 -16.5 11.5 -26.5c0 -10.667 -3.83301 -19.834 -11.5 -27.501s-16.5 -11.167 -26.5 -10.5c-10.667 0 -19.667 3.66699 -27 11
s-11 16.333 -11 27zM138 780.001c0 10 3.66699 18.833 11 26.5s16.333 11.5 27 11.5c10 0 18.667 -3.83301 26 -11.5s11.333 -16.5 12 -26.5c0 -10.667 -3.83301 -19.667 -11.5 -27s-16.5 -11 -26.5 -11c-10.667 0 -19.667 3.66699 -27 11s-11 16.333 -11 27z" />
    <glyph glyph-name="afii10056" unicode="&#x407;" horiz-adv-x="224" 
d="M90 667h44v-667h-44v667zM10 780c0 10 3.66699 18.668 11 26.001s16.333 11.333 27 12c10 0 18.833 -3.83301 26.5 -11.5s11.5 -16.5 11.5 -26.5c0 -10.667 -3.83301 -19.834 -11.5 -27.501s-16.5 -11.167 -26.5 -10.5c-10.667 0 -19.667 3.66699 -27 11
s-11 16.333 -11 27zM138 780.001c0 10 3.66699 18.833 11 26.5s16.333 11.5 27 11.5c10 0 18.667 -3.83301 26 -11.5s11.333 -16.5 12 -26.5c0 -10.667 -3.83301 -19.667 -11.5 -27s-16.5 -11 -26.5 -11c-10.667 0 -19.667 3.66699 -27 11s-11 16.333 -11 27z" />
    <glyph glyph-name="degree" unicode="&#xb0;" 
d="M250 675c39.333 0 71.666 -12.332 96.999 -36.999s38 -56 38 -94c0 -38.667 -12.667 -70.334 -38 -95.001s-57.666 -36.667 -96.999 -36c-40 0 -72.5 12.167 -97.5 36.5s-37.5 55.833 -37.5 94.5c0 38 12.5 69.333 37.5 94s57.5 37 97.5 37zM250 647.001
c-31.333 0 -56.333 -9.83301 -75 -29.5s-28 -44.167 -28 -73.5c-0.666992 -30 8.5 -54.667 27.5 -74s44.167 -29 75.5 -29c30.667 0 55.5 9.66699 74.5 29s28.5 44 28.5 74c0 29.333 -9.5 53.833 -28.5 73.5s-43.833 29.5 -74.5 29.5z" />
    <glyph glyph-name="plusminus" unicode="&#xb1;" 
d="M33 339v38h197v181h40v-181h197v-38h-197v-181h-40v181h-197zM33 76v38h434v-38h-434z" />
    <glyph glyph-name="afii10055" unicode="&#xb2;" horiz-adv-x="224" 
d="M90 667h44v-667h-44v667z" />
    <glyph glyph-name="afii10055" unicode="&#x406;" horiz-adv-x="224" 
d="M90 667h44v-667h-44v667z" />
    <glyph glyph-name="afii10103" unicode="&#xb3;" horiz-adv-x="184" 
d="M72 408h40v-408h-40v408zM92 507c-10.667 -0.666992 -19.334 2.5 -26.001 9.5s-10 16.167 -10 27.5c0 10.667 3.33301 19.5 10 26.5s15.334 10.5 26.001 10.5c10 0 18.5 -3.5 25.5 -10.5s10.5 -15.833 10.5 -26.5c0 -11.333 -3.5 -20.333 -10.5 -27s-15.5 -10 -25.5 -10z
" />
    <glyph glyph-name="afii10103" unicode="&#x456;" horiz-adv-x="184" 
d="M72 408h40v-408h-40v408zM92 507c-10.667 -0.666992 -19.334 2.5 -26.001 9.5s-10 16.167 -10 27.5c0 10.667 3.33301 19.5 10 26.5s15.334 10.5 26.001 10.5c10 0 18.5 -3.5 25.5 -10.5s10.5 -15.833 10.5 -26.5c0 -11.333 -3.5 -20.333 -10.5 -27s-15.5 -10 -25.5 -10z
" />
    <glyph glyph-name="cyrhardg" unicode="&#xb4;" horiz-adv-x="300" 
d="M72 0v408h182v110h38v-148h-180v-370h-40z" />
    <glyph glyph-name="cyrhardg" unicode="&#x491;" horiz-adv-x="300" 
d="M72 0v408h182v110h38v-148h-180v-370h-40z" />
    <glyph glyph-name="mu" unicode="&#xb5;" 
d="M112 -164l-40 -0.00390625v572h40v-207c-0.666992 -37.333 2.16602 -65.666 8.49902 -84.999s16.5 -35.666 30.5 -48.999c12.667 -14 27 -24.333 43 -31s32.667 -9.66699 50 -9c39.333 -0.666992 73 15.666 101 48.999s42.333 79 43 137v195h40v-408h-40v90
c-4.66699 -12.667 -10.5 -24.167 -17.5 -34.5s-15.5 -20.166 -25.5 -29.499c-14.667 -13.333 -30.167 -22.666 -46.5 -27.999s-35.166 -8.33301 -56.499 -9c-29.333 0 -55 6.83301 -77 20.5s-39.667 33.834 -53 60.501v-234z" />
    <glyph glyph-name="paragraph" unicode="&#xb6;" horiz-adv-x="531" 
d="M257 -102l-36.001 -0.000976562v413h-17c-54 -0.666992 -98.667 15.5 -134 48.5s-52.666 75.5 -51.999 127.5c0 54.667 17.667 98.334 53 131.001s89 49 161 49h231v-33h-53v-736h-36v736h-117v-736z" />
    <glyph glyph-name="afii10071" unicode="&#xb8;" horiz-adv-x="483" 
d="M437 199l-348.999 -0.00195312c-2.66699 -50 12.333 -91.167 45 -123.5s71.667 -48.5 117 -48.5c32 0 60.167 8.33301 84.5 25s43.5 39.334 57.5 68.001l34 -20c-18 -34 -42.167 -61 -72.5 -81s-65.833 -30 -106.5 -30c-62 0.666992 -111 20.834 -147 60.501
s-54 90.5 -54 152.5c-0.666992 66.667 18.666 119.167 57.999 157.5s86 57.5 140 57.5c56 0 102.667 -20.5 140 -61.5s55 -93.167 53 -156.5zM91.001 236.998h304c-5.33301 40.667 -22 74.5 -50 101.5s-61.667 40.5 -101 40.5c-40.667 0 -75 -13.5 -103 -40.5
s-44.667 -60.833 -50 -101.5zM127.001 525.998c0 9.33301 3.49902 17.666 10.499 24.999s15.5 11 25.5 11c9.33301 0 17.5 -3.66699 24.5 -11s10.833 -15.666 11.5 -24.999c0 -10 -3.66699 -18.5 -11 -25.5s-15.666 -10.5 -24.999 -10.5c-10 0 -18.5 3.5 -25.5 10.5
s-10.5 15.5 -10.5 25.5zM293 525.998c0 9.33301 3.5 17.667 10.5 25s15.5 11 25.5 11c9.33301 0 17.666 -3.66699 24.999 -11s11 -15.666 11 -24.999c0 -10 -3.66699 -18.5 -11 -25.5s-15.666 -10.5 -24.999 -10.5c-10 -0.666992 -18.5 2.66602 -25.5 9.99902
s-10.5 16 -10.5 26z" />
    <glyph glyph-name="afii10071" unicode="&#x451;" horiz-adv-x="483" 
d="M437 199l-348.999 -0.00195312c-2.66699 -50 12.333 -91.167 45 -123.5s71.667 -48.5 117 -48.5c32 0 60.167 8.33301 84.5 25s43.5 39.334 57.5 68.001l34 -20c-18 -34 -42.167 -61 -72.5 -81s-65.833 -30 -106.5 -30c-62 0.666992 -111 20.834 -147 60.501
s-54 90.5 -54 152.5c-0.666992 66.667 18.666 119.167 57.999 157.5s86 57.5 140 57.5c56 0 102.667 -20.5 140 -61.5s55 -93.167 53 -156.5zM91.001 236.998h304c-5.33301 40.667 -22 74.5 -50 101.5s-61.667 40.5 -101 40.5c-40.667 0 -75 -13.5 -103 -40.5
s-44.667 -60.833 -50 -101.5zM127.001 525.998c0 9.33301 3.49902 17.666 10.499 24.999s15.5 11 25.5 11c9.33301 0 17.5 -3.66699 24.5 -11s10.833 -15.666 11.5 -24.999c0 -10 -3.66699 -18.5 -11 -25.5s-15.666 -10.5 -24.999 -10.5c-10 0 -18.5 3.5 -25.5 10.5
s-10.5 15.5 -10.5 25.5zM293 525.998c0 9.33301 3.5 17.667 10.5 25s15.5 11 25.5 11c9.33301 0 17.666 -3.66699 24.999 -11s11 -15.666 11 -24.999c0 -10 -3.66699 -18.5 -11 -25.5s-15.666 -10.5 -24.999 -10.5c-10 -0.666992 -18.5 2.66602 -25.5 9.99902
s-10.5 16 -10.5 26z" />
    <glyph glyph-name="afii61352" unicode="&#xb9;" horiz-adv-x="940" 
d="M134 0h-44v674l448 -564v557h44v-684l-448 564v-547zM773 667c40 0 72.333 -12.5 97 -37.5s37.334 -56.167 38.001 -93.5c0 -38 -12.5 -69.333 -37.5 -94s-57.5 -37 -97.5 -37c-40.667 -0.666992 -73.334 11.5 -98.001 36.5s-37 56.5 -37 94.5
c-0.666992 37.333 11.5 68.5 36.5 93.5s57.833 37.5 98.5 37.5zM773 441c27.333 -0.666992 50 8 68 26s27 41 27 69c0 27.333 -9 50 -27 68s-40.667 27 -68 27c-28 0 -50.833 -9 -68.5 -27s-26.5 -40.667 -26.5 -68c0 -28 8.83301 -51 26.5 -69s40.5 -26.667 68.5 -26z
M658 279v46h230v-46h-230z" />
    <glyph glyph-name="afii61352" unicode="&#x2116;" horiz-adv-x="940" 
d="M134 0h-44v674l448 -564v557h44v-684l-448 564v-547zM773 667c40 0 72.333 -12.5 97 -37.5s37.334 -56.167 38.001 -93.5c0 -38 -12.5 -69.333 -37.5 -94s-57.5 -37 -97.5 -37c-40.667 -0.666992 -73.334 11.5 -98.001 36.5s-37 56.5 -37 94.5
c-0.666992 37.333 11.5 68.5 36.5 93.5s57.833 37.5 98.5 37.5zM773 441c27.333 -0.666992 50 8 68 26s27 41 27 69c0 27.333 -9 50 -27 68s-40.667 27 -68 27c-28 0 -50.833 -9 -68.5 -27s-26.5 -40.667 -26.5 -68c0 -28 8.83301 -51 26.5 -69s40.5 -26.667 68.5 -26z
M658 279v46h230v-46h-230z" />
    <glyph glyph-name="afii10101" unicode="&#xba;" horiz-adv-x="441" 
d="M398 365v-53.001c-18.667 20.667 -40 37 -64 49s-49.667 18 -77 18c-45.333 0 -83.833 -14.5 -115.5 -43.5s-49.5 -64.833 -53.5 -107.5h238v-38h-238c1.33301 -48.667 18.5 -88 51.5 -118s71.5 -45 115.5 -45c26.667 -0.666992 52.667 5.5 78 18.5
s48.666 31.167 69.999 54.5v-54c-22 -19.333 -45.667 -33.666 -71 -42.999s-51.333 -14 -78 -14c-61.333 0 -111.333 20 -150 60s-58 90.667 -58 152s19.167 112.5 57.5 153.5s89.5 61.833 153.5 62.5c26 0 50.833 -4.5 74.5 -13.5s45.834 -21.833 66.501 -38.5z" />
    <glyph glyph-name="afii10101" unicode="&#x454;" horiz-adv-x="441" 
d="M398 365v-53.001c-18.667 20.667 -40 37 -64 49s-49.667 18 -77 18c-45.333 0 -83.833 -14.5 -115.5 -43.5s-49.5 -64.833 -53.5 -107.5h238v-38h-238c1.33301 -48.667 18.5 -88 51.5 -118s71.5 -45 115.5 -45c26.667 -0.666992 52.667 5.5 78 18.5
s48.666 31.167 69.999 54.5v-54c-22 -19.333 -45.667 -33.666 -71 -42.999s-51.333 -14 -78 -14c-61.333 0 -111.333 20 -150 60s-58 90.667 -58 152s19.167 112.5 57.5 153.5s89.5 61.833 153.5 62.5c26 0 50.833 -4.5 74.5 -13.5s45.834 -21.833 66.501 -38.5z" />
    <glyph glyph-name="guillemotright" unicode="&#xbb;" horiz-adv-x="348" 
d="M162 207l-108 126l26 24l130 -150l-130 -150l-26 24zM268 207l-108 126l26 24l130 -150l-130 -150l-26 24z" />
    <glyph glyph-name="afii10105" unicode="&#xbc;" horiz-adv-x="184" 
d="M72 408h40v-647h-40v647zM92 507c-10.667 -0.666992 -19.334 2.5 -26.001 9.5s-10 16.167 -10 27.5c0 10.667 3.33301 19.5 10 26.5s15.334 10.5 26.001 10.5c10 0 18.5 -3.5 25.5 -10.5s10.5 -15.833 10.5 -26.5c0 -11.333 -3.5 -20.333 -10.5 -27s-15.5 -10 -25.5 -10z
" />
    <glyph glyph-name="afii10105" unicode="&#x458;" horiz-adv-x="184" 
d="M72 408h40v-647h-40v647zM92 507c-10.667 -0.666992 -19.334 2.5 -26.001 9.5s-10 16.167 -10 27.5c0 10.667 3.33301 19.5 10 26.5s15.334 10.5 26.001 10.5c10 0 18.5 -3.5 25.5 -10.5s10.5 -15.833 10.5 -26.5c0 -11.333 -3.5 -20.333 -10.5 -27s-15.5 -10 -25.5 -10z
" />
    <glyph glyph-name="afii10054" unicode="&#xbd;" horiz-adv-x="514" 
d="M426 581l-31.999 -27c-13.333 24.667 -31.166 44.5 -53.499 59.5s-48.166 22.5 -77.499 22.5c-38 0 -68.167 -12 -90.5 -36s-33.5 -53.333 -33.5 -88c0 -27.333 7 -49.666 21 -66.999s46 -38 96 -62c63.333 -31.333 99.166 -49.5 107.499 -54.5l25.5 -15.5
c24.667 -18 42.667 -37.333 54 -58s17 -44.334 17 -71.001c0 -55.333 -20.333 -101.666 -61 -138.999s-89.667 -56 -147 -56c-31.333 0 -59.833 5.5 -85.5 16.5s-48.834 28.833 -69.501 53.5c-10 10.667 -18.667 22.167 -26 34.5s-13 25.166 -17 38.499l38 18
c3.33301 -10.667 8.33301 -22 15 -34s13.667 -22 21 -30c14.667 -18.667 33 -32.834 55 -42.501s45.333 -14.5 70 -14.5c45.333 -0.666992 83.5 13.833 114.5 43.5s46.5 66.5 46.5 110.5c0 22 -5.5 41.667 -16.5 59s-27.167 32.666 -48.5 45.999l-34.5 17.5l-89.5 45.5
c-37.333 18 -63 32.667 -77 44s-25.333 24.333 -34 39c-8 12 -13.5 24.167 -16.5 36.5s-4.5 25.5 -4.5 39.5c0 48.667 16 88.334 48 119.001s73 46.334 123 47.001c34 0 65.167 -8.16699 93.5 -24.5s51.166 -39.833 68.499 -70.5z" />
    <glyph glyph-name="afii10054" unicode="&#x405;" horiz-adv-x="514" 
d="M426 581l-31.999 -27c-13.333 24.667 -31.166 44.5 -53.499 59.5s-48.166 22.5 -77.499 22.5c-38 0 -68.167 -12 -90.5 -36s-33.5 -53.333 -33.5 -88c0 -27.333 7 -49.666 21 -66.999s46 -38 96 -62c63.333 -31.333 99.166 -49.5 107.499 -54.5l25.5 -15.5
c24.667 -18 42.667 -37.333 54 -58s17 -44.334 17 -71.001c0 -55.333 -20.333 -101.666 -61 -138.999s-89.667 -56 -147 -56c-31.333 0 -59.833 5.5 -85.5 16.5s-48.834 28.833 -69.501 53.5c-10 10.667 -18.667 22.167 -26 34.5s-13 25.166 -17 38.499l38 18
c3.33301 -10.667 8.33301 -22 15 -34s13.667 -22 21 -30c14.667 -18.667 33 -32.834 55 -42.501s45.333 -14.5 70 -14.5c45.333 -0.666992 83.5 13.833 114.5 43.5s46.5 66.5 46.5 110.5c0 22 -5.5 41.667 -16.5 59s-27.167 32.666 -48.5 45.999l-34.5 17.5l-89.5 45.5
c-37.333 18 -63 32.667 -77 44s-25.333 24.333 -34 39c-8 12 -13.5 24.167 -16.5 36.5s-4.5 25.5 -4.5 39.5c0 48.667 16 88.334 48 119.001s73 46.334 123 47.001c34 0 65.167 -8.16699 93.5 -24.5s51.166 -39.833 68.499 -70.5z" />
    <glyph glyph-name="afii10102" unicode="&#xbe;" horiz-adv-x="342" 
d="M288 351l-34 -18.0059c-6.66699 14.667 -16.5 26 -29.5 34s-26.833 12 -41.5 12c-20 0 -36.5 -6.16699 -49.5 -18.5s-19.5 -27.833 -19.5 -46.5c0 -14 4.16699 -26 12.5 -36s30.833 -22 67.5 -36c37.333 -15.333 61 -26.5 71 -33.5s18.667 -14.833 26 -23.5
c6.66699 -9.33301 11.834 -19.166 15.501 -29.499s5.5 -22.5 5.5 -36.5c0 -39.333 -12.333 -70.833 -37 -94.5s-56.667 -35.5 -96 -35.5c-34.667 0 -64.834 9.5 -90.501 28.5s-42.5 45.5 -50.5 79.5l39 12c6.66699 -26.667 19.334 -47.167 38.001 -61.5
s40 -21.166 64 -20.499c26 0 47.667 8.33301 65 25s26 38.334 26 65.001c0 19.333 -5.5 34.833 -16.5 46.5s-31.5 23.834 -61.5 36.501c-38.667 15.333 -63.834 26.833 -75.501 34.5s-20.5 15.834 -26.5 24.501c-6 7.33301 -10.5 15.5 -13.5 24.5s-4.5 18.5 -4.5 28.5
c0 30.667 10.167 55.834 30.5 75.501s46.5 29.5 78.5 29.5c24 -0.666992 45.333 -6.5 64 -17.5s33 -27.167 43 -48.5z" />
    <glyph glyph-name="afii10102" unicode="&#x455;" horiz-adv-x="342" 
d="M288 351l-34 -18.0059c-6.66699 14.667 -16.5 26 -29.5 34s-26.833 12 -41.5 12c-20 0 -36.5 -6.16699 -49.5 -18.5s-19.5 -27.833 -19.5 -46.5c0 -14 4.16699 -26 12.5 -36s30.833 -22 67.5 -36c37.333 -15.333 61 -26.5 71 -33.5s18.667 -14.833 26 -23.5
c6.66699 -9.33301 11.834 -19.166 15.501 -29.499s5.5 -22.5 5.5 -36.5c0 -39.333 -12.333 -70.833 -37 -94.5s-56.667 -35.5 -96 -35.5c-34.667 0 -64.834 9.5 -90.501 28.5s-42.5 45.5 -50.5 79.5l39 12c6.66699 -26.667 19.334 -47.167 38.001 -61.5
s40 -21.166 64 -20.499c26 0 47.667 8.33301 65 25s26 38.334 26 65.001c0 19.333 -5.5 34.833 -16.5 46.5s-31.5 23.834 -61.5 36.501c-38.667 15.333 -63.834 26.833 -75.501 34.5s-20.5 15.834 -26.5 24.501c-6 7.33301 -10.5 15.5 -13.5 24.5s-4.5 18.5 -4.5 28.5
c0 30.667 10.167 55.834 30.5 75.501s46.5 29.5 78.5 29.5c24 -0.666992 45.333 -6.5 64 -17.5s33 -27.167 43 -48.5z" />
    <glyph glyph-name="afii10104" unicode="&#xbf;" horiz-adv-x="184" 
d="M71 408h40v-408h-40v408zM0 526c0 9.33301 3.5 17.666 10.5 24.999s15.5 11 25.5 11c9.33301 0 17.666 -3.66699 24.999 -11s11 -15.666 11 -24.999c0 -10 -3.66699 -18.5 -11 -25.5s-15.666 -10.5 -24.999 -10.5c-10 0 -18.5 3.5 -25.5 10.5s-10.5 15.5 -10.5 25.5z
M112 526c0 9.33301 3.50098 17.666 10.501 24.999s15.5 11 25.5 11c9.33301 0 17.666 -3.66699 24.999 -11s11 -15.666 11 -24.999c-0.666992 -10 -4.5 -18.667 -11.5 -26s-15.167 -10.666 -24.5 -9.99902c-10 -0.666992 -18.5 2.66602 -25.5 9.99902s-10.5 16 -10.5 26z
" />
    <glyph glyph-name="afii10104" unicode="&#x457;" horiz-adv-x="184" 
d="M71 408h40v-408h-40v408zM0 526c0 9.33301 3.5 17.666 10.5 24.999s15.5 11 25.5 11c9.33301 0 17.666 -3.66699 24.999 -11s11 -15.666 11 -24.999c0 -10 -3.66699 -18.5 -11 -25.5s-15.666 -10.5 -24.999 -10.5c-10 0 -18.5 3.5 -25.5 10.5s-10.5 15.5 -10.5 25.5z
M112 526c0 9.33301 3.50098 17.666 10.501 24.999s15.5 11 25.5 11c9.33301 0 17.666 -3.66699 24.999 -11s11 -15.666 11 -24.999c-0.666992 -10 -4.5 -18.667 -11.5 -26s-15.167 -10.666 -24.5 -9.99902c-10 -0.666992 -18.5 2.66602 -25.5 9.99902s-10.5 16 -10.5 26z
" />
    <glyph glyph-name="afii10017" unicode="&#xc0;" horiz-adv-x="586" 
d="M524 0l-89 219h-284l-89 -219h-48l281 687l277 -687h-48zM167 259h252l-125 316z" />
    <glyph glyph-name="afii10017" unicode="&#x410;" horiz-adv-x="586" 
d="M524 0l-89 219h-284l-89 -219h-48l281 687l277 -687h-48zM167 259h252l-125 316z" />
    <glyph glyph-name="afii10018" unicode="&#xc1;" horiz-adv-x="534" 
d="M90 0l-0.000976562 667h321v-40h-277v-247h116c76 0 133.333 -15.5 172 -46.5s58 -76.5 58 -136.5c0 -62.667 -19.667 -111.167 -59 -145.5s-91.666 -51.5 -156.999 -51.5h-174zM133.999 340l0.00195312 -300.001h112c36.667 -0.666992 66 2.5 88 9.5
s41.333 18.5 58 34.5c13.333 13.333 23.666 29.5 30.999 48.5s11 40.5 11 64.5c0 30 -5.83301 55 -17.5 75s-28.834 36 -51.501 48c-14.667 7.33301 -31 12.333 -49 15s-44 4.33398 -78 5.00098h-104z" />
    <glyph glyph-name="afii10018" unicode="&#x411;" horiz-adv-x="534" 
d="M90 0l-0.000976562 667h321v-40h-277v-247h116c76 0 133.333 -15.5 172 -46.5s58 -76.5 58 -136.5c0 -62.667 -19.667 -111.167 -59 -145.5s-91.666 -51.5 -156.999 -51.5h-174zM133.999 340l0.00195312 -300.001h112c36.667 -0.666992 66 2.5 88 9.5
s41.333 18.5 58 34.5c13.333 13.333 23.666 29.5 30.999 48.5s11 40.5 11 64.5c0 30 -5.83301 55 -17.5 75s-28.834 36 -51.501 48c-14.667 7.33301 -31 12.333 -49 15s-44 4.33398 -78 5.00098h-104z" />
    <glyph glyph-name="afii10019" unicode="&#xc2;" horiz-adv-x="534" 
d="M90 0l-0.000976562 666.998h146c56.667 0 101.5 -15.333 134.5 -46s49.5 -71 49.5 -121c0 -31.333 -6.5 -59.5 -19.5 -84.5s-32.5 -45.5 -58.5 -61.5c42.667 -7.33301 76.334 -26.166 101.001 -56.499s37 -67.166 37 -110.499c-0.666992 -58 -20 -103.667 -58 -137
s-87.667 -50 -149 -50h-183zM133.999 626.998l-0.000976562 -261.999h106c20.667 0 37.834 2 51.501 6s26.834 11.333 39.501 22c13.333 11.333 23.833 25.5 31.5 42.5s11.834 36.833 12.501 59.5c-0.666992 22 -4.83398 42 -12.501 60s-18.5 32.667 -32.5 44
c-12.667 9.33301 -27.334 16.166 -44.001 20.499s-39 6.83301 -67 7.5h-85zM133.998 324.999l-0.00195312 -285h112c38.667 0 68.334 3 89.001 9s39.334 16.333 56.001 31c14.667 12.667 25.5 27.667 32.5 45s10.5 36.333 10.5 57c0 30 -5.83301 55.333 -17.5 76
s-29.5 36.667 -53.5 48c-14.667 6.66699 -32.5 11.5 -53.5 14.5s-44.833 4.5 -71.5 4.5h-104z" />
    <glyph glyph-name="afii10019" unicode="&#x412;" horiz-adv-x="534" 
d="M90 0l-0.000976562 666.998h146c56.667 0 101.5 -15.333 134.5 -46s49.5 -71 49.5 -121c0 -31.333 -6.5 -59.5 -19.5 -84.5s-32.5 -45.5 -58.5 -61.5c42.667 -7.33301 76.334 -26.166 101.001 -56.499s37 -67.166 37 -110.499c-0.666992 -58 -20 -103.667 -58 -137
s-87.667 -50 -149 -50h-183zM133.999 626.998l-0.000976562 -261.999h106c20.667 0 37.834 2 51.501 6s26.834 11.333 39.501 22c13.333 11.333 23.833 25.5 31.5 42.5s11.834 36.833 12.501 59.5c-0.666992 22 -4.83398 42 -12.501 60s-18.5 32.667 -32.5 44
c-12.667 9.33301 -27.334 16.166 -44.001 20.499s-39 6.83301 -67 7.5h-85zM133.998 324.999l-0.00195312 -285h112c38.667 0 68.334 3 89.001 9s39.334 16.333 56.001 31c14.667 12.667 25.5 27.667 32.5 45s10.5 36.333 10.5 57c0 30 -5.83301 55.333 -17.5 76
s-29.5 36.667 -53.5 48c-14.667 6.66699 -32.5 11.5 -53.5 14.5s-44.833 4.5 -71.5 4.5h-104z" />
    <glyph glyph-name="afii10020" unicode="&#xc3;" horiz-adv-x="400" 
d="M90 0v667h296v-40h-252v-627h-44z" />
    <glyph glyph-name="afii10020" unicode="&#x413;" horiz-adv-x="400" 
d="M90 0v667h296v-40h-252v-627h-44z" />
    <glyph glyph-name="afii10021" unicode="&#xc4;" horiz-adv-x="610" 
d="M144 667h375.999v-627h76v-174h-42v134h-498v-134h-42v174c20 -1.33301 39.667 5.83398 59 21.501s35 38.5 47 68.5c8 20.667 13.833 45.167 17.5 73.5s5.83398 62.166 6.50098 101.499v362zM187.999 627v-322c0 -45.333 -2 -82.333 -6 -111s-10 -53.667 -18 -75
c-6.66699 -16 -14.167 -30.5 -22.5 -43.5s-17.833 -24.833 -28.5 -35.5h363v587h-288z" />
    <glyph glyph-name="afii10021" unicode="&#x414;" horiz-adv-x="610" 
d="M144 667h375.999v-627h76v-174h-42v134h-498v-134h-42v174c20 -1.33301 39.667 5.83398 59 21.501s35 38.5 47 68.5c8 20.667 13.833 45.167 17.5 73.5s5.83398 62.166 6.50098 101.499v362zM187.999 627v-322c0 -45.333 -2 -82.333 -6 -111s-10 -53.667 -18 -75
c-6.66699 -16 -14.167 -30.5 -22.5 -43.5s-17.833 -24.833 -28.5 -35.5h363v587h-288z" />
    <glyph glyph-name="afii10022" unicode="&#xc5;" horiz-adv-x="464" 
d="M410 667v-40h-276v-242h270v-40h-270v-305h276v-40h-320v667h320z" />
    <glyph glyph-name="afii10022" unicode="&#x415;" horiz-adv-x="464" 
d="M410 667v-40h-276v-242h270v-40h-270v-305h276v-40h-320v667h320z" />
    <glyph glyph-name="afii10024" unicode="&#xc6;" horiz-adv-x="796" 
d="M376 667h44v-314l282 314h58l-296 -323l318 -344h-58l-291 314l-13 -13v-301h-44v301l-13 13l-291 -314h-58l318 344l-296 323h58l282 -314v314z" />
    <glyph glyph-name="afii10024" unicode="&#x416;" horiz-adv-x="796" 
d="M376 667h44v-314l282 314h58l-296 -323l318 -344h-58l-291 314l-13 -13v-301h-44v301l-13 13l-291 -314h-58l318 344l-296 323h58l282 -314v314z" />
    <glyph glyph-name="afii10025" unicode="&#xc7;" horiz-adv-x="554" 
d="M136 554l-32.0029 26.998c18.667 31.333 43.334 55 74.001 71s66.334 24 107.001 24c24 0 46 -3.5 66 -10.5s38.333 -17.833 55 -32.5c16 -16 28 -34 36 -54s12 -42 12 -66c0 -31.333 -7.5 -59.666 -22.5 -84.999s-36.833 -45.666 -65.5 -60.999
c42.667 -10.667 75.667 -32 99 -64s35 -69.333 35 -112c-0.666992 -33.333 -7.66699 -64 -21 -92s-31.666 -50.667 -54.999 -68c-19.333 -14.667 -42.333 -25.167 -69 -31.5s-52 -9.83301 -76 -10.5c-50 0.666992 -94.833 13 -134.5 37s-69.834 58.667 -90.501 104l42 20
c14.667 -36.667 39.167 -66 73.5 -88s71.833 -33 112.5 -33c19.333 0 39.833 3.16699 61.5 9.5s39.5 14.833 53.5 25.5c18.667 14 32.667 32 42 54s14.333 46.333 15 73c0 46 -15.833 82.167 -47.5 108.5s-75.167 39.5 -130.5 39.5h-60v40h60
c34.667 0 65.334 12.167 92.001 36.5s40 56.833 40 97.5c0 18 -2.66699 34 -8 48s-13 26.667 -23 38c-11.333 12 -25 21.167 -41 27.5s-34.667 9.5 -56 9.5c-31.333 0 -59 -7 -83 -21s-44.333 -34.333 -61 -61z" />
    <glyph glyph-name="afii10025" unicode="&#x417;" horiz-adv-x="554" 
d="M136 554l-32.0029 26.998c18.667 31.333 43.334 55 74.001 71s66.334 24 107.001 24c24 0 46 -3.5 66 -10.5s38.333 -17.833 55 -32.5c16 -16 28 -34 36 -54s12 -42 12 -66c0 -31.333 -7.5 -59.666 -22.5 -84.999s-36.833 -45.666 -65.5 -60.999
c42.667 -10.667 75.667 -32 99 -64s35 -69.333 35 -112c-0.666992 -33.333 -7.66699 -64 -21 -92s-31.666 -50.667 -54.999 -68c-19.333 -14.667 -42.333 -25.167 -69 -31.5s-52 -9.83301 -76 -10.5c-50 0.666992 -94.833 13 -134.5 37s-69.834 58.667 -90.501 104l42 20
c14.667 -36.667 39.167 -66 73.5 -88s71.833 -33 112.5 -33c19.333 0 39.833 3.16699 61.5 9.5s39.5 14.833 53.5 25.5c18.667 14 32.667 32 42 54s14.333 46.333 15 73c0 46 -15.833 82.167 -47.5 108.5s-75.167 39.5 -130.5 39.5h-60v40h60
c34.667 0 65.334 12.167 92.001 36.5s40 56.833 40 97.5c0 18 -2.66699 34 -8 48s-13 26.667 -23 38c-11.333 12 -25 21.167 -41 27.5s-34.667 9.5 -56 9.5c-31.333 0 -59 -7 -83 -21s-44.333 -34.333 -61 -61z" />
    <glyph glyph-name="afii10026" unicode="&#xc8;" horiz-adv-x="700" 
d="M566 0v556l-476 -573v684h44v-566l476 573v-674h-44z" />
    <glyph glyph-name="afii10026" unicode="&#x418;" horiz-adv-x="700" 
d="M566 0v556l-476 -573v684h44v-566l476 573v-674h-44z" />
    <glyph glyph-name="afii10027" unicode="&#xc9;" horiz-adv-x="700" 
d="M566 0v556l-476 -573v684h44v-566l476 573v-674h-44zM350 718c-30.667 0 -58.667 7 -84 21s-44 35.333 -56 64l35 19c9.33301 -21.333 23 -37.5 41 -48.5s39.333 -16.167 64 -15.5c24 0 45 5.33301 63 16s32 26.667 42 48l35 -19c-12.667 -28.667 -31.667 -50 -57 -64
s-53 -21 -83 -21z" />
    <glyph glyph-name="afii10027" unicode="&#x419;" horiz-adv-x="700" 
d="M566 0v556l-476 -573v684h44v-566l476 573v-674h-44zM350 718c-30.667 0 -58.667 7 -84 21s-44 35.333 -56 64l35 19c9.33301 -21.333 23 -37.5 41 -48.5s39.333 -16.167 64 -15.5c24 0 45 5.33301 63 16s32 26.667 42 48l35 -19c-12.667 -28.667 -31.667 -50 -57 -64
s-53 -21 -83 -21z" />
    <glyph glyph-name="afii10028" unicode="&#xca;" horiz-adv-x="540" 
d="M134 667v-314l315 314h58l-323 -319l342 -348h-60l-314 318l-18 -17v-301h-44v667h44z" />
    <glyph glyph-name="afii10028" unicode="&#x41a;" horiz-adv-x="540" 
d="M134 667v-314l315 314h58l-323 -319l342 -348h-60l-314 318l-18 -17v-301h-44v667h44z" />
    <glyph glyph-name="afii10029" unicode="&#xcb;" horiz-adv-x="620" 
d="M154 667h376v-667h-44v627h-288v-388c0 -61.333 -3.66699 -106.333 -11 -135s-19.333 -52 -36 -70c-12.667 -13.333 -27.5 -23.333 -44.5 -30s-34.5 -10 -52.5 -10c-5.33301 0 -11.5 0.666992 -18.5 2l-21.5 4v40c6 -2 12.167 -3.5 18.5 -4.5s12.5 -1.5 18.5 -1.5
c12 0 23.667 2.16699 35 6.5s21.333 10.833 30 19.5c12.667 12 22 29.333 28 52s9.33301 65 10 127v428z" />
    <glyph glyph-name="afii10029" unicode="&#x41b;" horiz-adv-x="620" 
d="M154 667h376v-667h-44v627h-288v-388c0 -61.333 -3.66699 -106.333 -11 -135s-19.333 -52 -36 -70c-12.667 -13.333 -27.5 -23.333 -44.5 -30s-34.5 -10 -52.5 -10c-5.33301 0 -11.5 0.666992 -18.5 2l-21.5 4v40c6 -2 12.167 -3.5 18.5 -4.5s12.5 -1.5 18.5 -1.5
c12 0 23.667 2.16699 35 6.5s21.333 10.833 30 19.5c12.667 12 22 29.333 28 52s9.33301 65 10 127v428z" />
    <glyph glyph-name="afii10030" unicode="&#xcc;" horiz-adv-x="896" 
d="M127 0h-44l76 690l289 -617l289 617l76 -690h-44l-59 536l-262 -560l-262 560z" />
    <glyph glyph-name="afii10030" unicode="&#x41c;" horiz-adv-x="896" 
d="M127 0h-44l76 690l289 -617l289 617l76 -690h-44l-59 536l-262 -560l-262 560z" />
    <glyph glyph-name="afii10031" unicode="&#xcd;" horiz-adv-x="672" 
d="M134 667v-283h404v283h44v-667h-44v344h-404v-344h-44v667h44z" />
    <glyph glyph-name="afii10031" unicode="&#x41d;" horiz-adv-x="672" 
d="M134 667v-283h404v283h44v-667h-44v344h-404v-344h-44v667h44z" />
    <glyph glyph-name="afii10032" unicode="&#xce;" horiz-adv-x="800" 
d="M400 676c97.333 0 179.335 -33.333 246.002 -100s100 -148 100 -244c-0.666992 -96.667 -34.334 -178 -101.001 -244s-148.334 -99 -245.001 -99c-97.333 0 -179.333 33 -246 99s-100 147.333 -100 244c0 96 33.167 177.167 99.5 243.5s148.5 99.833 246.5 100.5z
M400.002 29c85.333 0 156.667 29 214 87s86 130 86 216c-0.666992 85.333 -29.5 157.333 -86.5 216s-128.167 88 -213.5 88c-86 0 -157.5 -29.333 -214.5 -88s-85.5 -130.667 -85.5 -216c0 -86 28.5 -158 85.5 -216s128.5 -87 214.5 -87z" />
    <glyph glyph-name="afii10032" unicode="&#x41e;" horiz-adv-x="800" 
d="M400 676c97.333 0 179.335 -33.333 246.002 -100s100 -148 100 -244c-0.666992 -96.667 -34.334 -178 -101.001 -244s-148.334 -99 -245.001 -99c-97.333 0 -179.333 33 -246 99s-100 147.333 -100 244c0 96 33.167 177.167 99.5 243.5s148.5 99.833 246.5 100.5z
M400.002 29c85.333 0 156.667 29 214 87s86 130 86 216c-0.666992 85.333 -29.5 157.333 -86.5 216s-128.167 88 -213.5 88c-86 0 -157.5 -29.333 -214.5 -88s-85.5 -130.667 -85.5 -216c0 -86 28.5 -158 85.5 -216s128.5 -87 214.5 -87z" />
    <glyph glyph-name="afii10033" unicode="&#xcf;" horiz-adv-x="672" 
d="M90 667h492v-667h-44v627h-404v-627h-44v667z" />
    <glyph glyph-name="afii10033" unicode="&#x41f;" horiz-adv-x="672" 
d="M90 667h492v-667h-44v627h-404v-627h-44v667z" />
    <glyph glyph-name="afii10034" unicode="&#xd0;" horiz-adv-x="446" 
d="M220 317l-86.001 0.000976562v-317h-44v667h129c56.667 0 103.334 -15.333 140.001 -46s55 -73.334 55 -128.001c0 -55.333 -17.833 -98.5 -53.5 -129.5s-82.5 -46.5 -140.5 -46.5zM133.999 627.001v-270h88c43.333 0 78.5 12 105.5 36s40.5 57 40.5 99
c0 41.333 -13.5 74 -40.5 98s-64.5 36.333 -112.5 37h-81z" />
    <glyph glyph-name="afii10034" unicode="&#x420;" horiz-adv-x="446" 
d="M220 317l-86.001 0.000976562v-317h-44v667h129c56.667 0 103.334 -15.333 140.001 -46s55 -73.334 55 -128.001c0 -55.333 -17.833 -98.5 -53.5 -129.5s-82.5 -46.5 -140.5 -46.5zM133.999 627.001v-270h88c43.333 0 78.5 12 105.5 36s40.5 57 40.5 99
c0 41.333 -13.5 74 -40.5 98s-64.5 36.333 -112.5 37h-81z" />
    <glyph glyph-name="afii10035" unicode="&#xd1;" horiz-adv-x="678" 
d="M624 589l0.00292969 -58c-28.667 33.333 -62.667 59.166 -102 77.499s-80.333 27.5 -123 27.5c-85.333 0 -156.5 -29.833 -213.5 -89.5s-85.5 -131.834 -85.5 -216.501c0 -84 28.667 -155.167 86 -213.5s128.666 -87.5 213.999 -87.5c41.333 0 81.666 9 120.999 27
s73.666 42.667 102.999 74v-58c-29.333 -26 -63 -46.333 -101 -61s-78.333 -22 -121 -22c-98.667 0.666992 -181.5 34.334 -248.5 101.001s-100.167 147.334 -99.5 242.001c0 96 33.5 177.167 100.5 243.5s148.833 99.833 245.5 100.5c44.667 0 86 -8 124 -24
s71.333 -37 100 -63z" />
    <glyph glyph-name="afii10035" unicode="&#x421;" horiz-adv-x="678" 
d="M624 589l0.00292969 -58c-28.667 33.333 -62.667 59.166 -102 77.499s-80.333 27.5 -123 27.5c-85.333 0 -156.5 -29.833 -213.5 -89.5s-85.5 -131.834 -85.5 -216.501c0 -84 28.667 -155.167 86 -213.5s128.666 -87.5 213.999 -87.5c41.333 0 81.666 9 120.999 27
s73.666 42.667 102.999 74v-58c-29.333 -26 -63 -46.333 -101 -61s-78.333 -22 -121 -22c-98.667 0.666992 -181.5 34.334 -248.5 101.001s-100.167 147.334 -99.5 242.001c0 96 33.5 177.167 100.5 243.5s148.833 99.833 245.5 100.5c44.667 0 86 -8 124 -24
s71.333 -37 100 -63z" />
    <glyph glyph-name="afii10036" unicode="&#xd2;" horiz-adv-x="418" 
d="M404 627h-173v-627h-44v627h-173v40h390v-40z" />
    <glyph glyph-name="afii10036" unicode="&#x422;" horiz-adv-x="418" 
d="M404 627h-173v-627h-44v627h-173v40h390v-40z" />
    <glyph glyph-name="afii10037" unicode="&#xd3;" horiz-adv-x="550" 
d="M14 667h50l231 -432l195 432h46l-305 -667h-46l85 186z" />
    <glyph glyph-name="afii10037" unicode="&#x423;" horiz-adv-x="550" 
d="M14 667h50l231 -432l195 432h46l-305 -667h-46l85 186z" />
    <glyph glyph-name="afii10038" unicode="&#xd4;" horiz-adv-x="820" 
d="M388 0l0.000976562 94h-28c-102 -0.666992 -178.5 23.166 -229.5 71.499s-76.5 111.166 -76.5 188.499c0 76.667 25.5 139 76.5 187s127.5 72.333 229.5 73h28v80h44v-80h28c101.333 -0.666992 177.666 -25 228.999 -73s77 -110.333 77 -187
c-0.666992 -77.333 -26.5 -140.166 -77.5 -188.499s-127.167 -72.166 -228.5 -71.499h-28v-94h-44zM388.001 134v440h-30c-85.333 0 -149.666 -20.167 -192.999 -60.5s-65 -93.5 -65 -159.5c0 -66.667 21.667 -120 65 -160s107.666 -60 192.999 -60h30zM432.001 574v-440h30
c84.667 0 148.834 20 192.501 60s65.5 93.333 65.5 160c0 66 -21.833 119 -65.5 159s-107.834 60.333 -192.501 61h-30z" />
    <glyph glyph-name="afii10038" unicode="&#x424;" horiz-adv-x="820" 
d="M388 0l0.000976562 94h-28c-102 -0.666992 -178.5 23.166 -229.5 71.499s-76.5 111.166 -76.5 188.499c0 76.667 25.5 139 76.5 187s127.5 72.333 229.5 73h28v80h44v-80h28c101.333 -0.666992 177.666 -25 228.999 -73s77 -110.333 77 -187
c-0.666992 -77.333 -26.5 -140.166 -77.5 -188.499s-127.167 -72.166 -228.5 -71.499h-28v-94h-44zM388.001 134v440h-30c-85.333 0 -149.666 -20.167 -192.999 -60.5s-65 -93.5 -65 -159.5c0 -66.667 21.667 -120 65 -160s107.666 -60 192.999 -60h30zM432.001 574v-440h30
c84.667 0 148.834 20 192.501 60s65.5 93.333 65.5 160c0 66 -21.833 119 -65.5 159s-107.834 60.333 -192.501 61h-30z" />
    <glyph glyph-name="afii10039" unicode="&#xd5;" horiz-adv-x="470" 
d="M23 0l183 340l-175 327h48l151 -285l152 285h48l-174 -327l183 -340h-48l-161 300l-159 -300h-48z" />
    <glyph glyph-name="afii10039" unicode="&#x425;" horiz-adv-x="470" 
d="M23 0l183 340l-175 327h48l151 -285l152 285h48l-174 -327l183 -340h-48l-161 300l-159 -300h-48z" />
    <glyph glyph-name="afii10040" unicode="&#xd6;" horiz-adv-x="666" 
d="M90 0v667h44v-627h398v627h44v-627h76v-174h-42v134h-520z" />
    <glyph glyph-name="afii10040" unicode="&#x426;" horiz-adv-x="666" 
d="M90 0v667h44v-627h398v627h44v-627h76v-174h-42v134h-520z" />
    <glyph glyph-name="afii10041" unicode="&#xd7;" horiz-adv-x="580" 
d="M446 0v299.999c-25.333 -2 -55.333 -3.66699 -90 -5s-61.334 -2 -80.001 -2c-33.333 0 -60.5 1.66699 -81.5 5s-39.167 9 -54.5 17c-26.667 12.667 -45.167 29.667 -55.5 51s-15.166 54 -14.499 98v203h44v-203c0 -38 4.33301 -64.833 13 -80.5
s22.334 -27.5 41.001 -35.5c12 -6 27.167 -10.167 45.5 -12.5s43.833 -3.16602 76.5 -2.49902c26 0 50.667 0.5 74 1.5s50.666 2.83301 81.999 5.5v327h44v-667h-44z" />
    <glyph glyph-name="afii10041" unicode="&#x427;" horiz-adv-x="580" 
d="M446 0v299.999c-25.333 -2 -55.333 -3.66699 -90 -5s-61.334 -2 -80.001 -2c-33.333 0 -60.5 1.66699 -81.5 5s-39.167 9 -54.5 17c-26.667 12.667 -45.167 29.667 -55.5 51s-15.166 54 -14.499 98v203h44v-203c0 -38 4.33301 -64.833 13 -80.5
s22.334 -27.5 41.001 -35.5c12 -6 27.167 -10.167 45.5 -12.5s43.833 -3.16602 76.5 -2.49902c26 0 50.667 0.5 74 1.5s50.666 2.83301 81.999 5.5v327h44v-667h-44z" />
    <glyph glyph-name="afii10042" unicode="&#xd8;" horiz-adv-x="920" 
d="M90 0v667h44v-627h304v627h44v-627h304v627h44v-667h-740z" />
    <glyph glyph-name="afii10042" unicode="&#x428;" horiz-adv-x="920" 
d="M90 0v667h44v-627h304v627h44v-627h304v627h44v-667h-740z" />
    <glyph glyph-name="afii10043" unicode="&#xd9;" horiz-adv-x="920" 
d="M90 0v667h44v-627h304v627h44v-627h304v627h44v-627h76v-174h-42v134h-774z" />
    <glyph glyph-name="afii10043" unicode="&#x429;" horiz-adv-x="920" 
d="M90 0v667h44v-627h304v627h44v-627h304v627h44v-627h76v-174h-42v134h-774z" />
    <glyph glyph-name="afii10044" unicode="&#xda;" horiz-adv-x="610" 
d="M174 0l-0.000976562 627h-160v40h204v-287h116c76 0 133.333 -15.5 172 -46.5s58 -76.5 58 -136.5c0 -62.667 -19.667 -111.167 -59 -145.5s-91.666 -51.5 -156.999 -51.5h-174zM217.999 340l0.000976562 -300h112c36.667 -0.666992 66 2.5 88 9.5s41.333 18.5 58 34.5
c13.333 13.333 23.666 29.5 30.999 48.5s11 40.5 11 64.5c0 30 -5.83301 55 -17.5 75s-28.834 36 -51.501 48c-14.667 7.33301 -30.667 12.5 -48 15.5s-43.666 4.5 -78.999 4.5h-104z" />
    <glyph glyph-name="afii10044" unicode="&#x42a;" horiz-adv-x="610" 
d="M174 0l-0.000976562 627h-160v40h204v-287h116c76 0 133.333 -15.5 172 -46.5s58 -76.5 58 -136.5c0 -62.667 -19.667 -111.167 -59 -145.5s-91.666 -51.5 -156.999 -51.5h-174zM217.999 340l0.000976562 -300h112c36.667 -0.666992 66 2.5 88 9.5s41.333 18.5 58 34.5
c13.333 13.333 23.666 29.5 30.999 48.5s11 40.5 11 64.5c0 30 -5.83301 55 -17.5 75s-28.834 36 -51.501 48c-14.667 7.33301 -30.667 12.5 -48 15.5s-43.666 4.5 -78.999 4.5h-104z" />
    <glyph glyph-name="afii10045" unicode="&#xdb;" horiz-adv-x="690" 
d="M90 0l-0.000976562 667h44v-287h116c76 0 133.333 -15.5 172 -46.5s58 -76.5 58 -136.5c0 -62.667 -19.667 -111.167 -59 -145.5s-91.666 -51.5 -156.999 -51.5h-174zM133.999 340l0.000976562 -300h112c36.667 -0.666992 66 2.5 88 9.5s41.333 18.5 58 34.5
c13.333 13.333 23.666 29.5 30.999 48.5s11 40.5 11 64.5c0 30 -5.83301 55 -17.5 75s-28.834 36 -51.501 48c-14.667 7.33301 -30.667 12.5 -48 15.5s-43.666 4.5 -78.999 4.5h-104zM556 667h44v-667h-44v667z" />
    <glyph glyph-name="afii10045" unicode="&#x42b;" horiz-adv-x="690" 
d="M90 0l-0.000976562 667h44v-287h116c76 0 133.333 -15.5 172 -46.5s58 -76.5 58 -136.5c0 -62.667 -19.667 -111.167 -59 -145.5s-91.666 -51.5 -156.999 -51.5h-174zM133.999 340l0.000976562 -300h112c36.667 -0.666992 66 2.5 88 9.5s41.333 18.5 58 34.5
c13.333 13.333 23.666 29.5 30.999 48.5s11 40.5 11 64.5c0 30 -5.83301 55 -17.5 75s-28.834 36 -51.501 48c-14.667 7.33301 -30.667 12.5 -48 15.5s-43.666 4.5 -78.999 4.5h-104zM556 667h44v-667h-44v667z" />
    <glyph glyph-name="afii10046" unicode="&#xdc;" horiz-adv-x="526" 
d="M90 0l-0.000976562 667h44v-287h116c76 0 133.333 -15.5 172 -46.5s58 -76.5 58 -136.5c0 -62.667 -19.667 -111.167 -59 -145.5s-91.666 -51.5 -156.999 -51.5h-174zM133.999 340l0.000976562 -300h112c36.667 -0.666992 66 2.5 88 9.5s41.333 18.5 58 34.5
c13.333 13.333 23.666 29.5 30.999 48.5s11 40.5 11 64.5c0 30 -5.83301 55 -17.5 75s-28.834 36 -51.501 48c-14.667 7.33301 -30.667 12.5 -48 15.5s-43.666 4.5 -78.999 4.5h-104z" />
    <glyph glyph-name="afii10046" unicode="&#x42c;" horiz-adv-x="526" 
d="M90 0l-0.000976562 667h44v-287h116c76 0 133.333 -15.5 172 -46.5s58 -76.5 58 -136.5c0 -62.667 -19.667 -111.167 -59 -145.5s-91.666 -51.5 -156.999 -51.5h-174zM133.999 340l0.000976562 -300h112c36.667 -0.666992 66 2.5 88 9.5s41.333 18.5 58 34.5
c13.333 13.333 23.666 29.5 30.999 48.5s11 40.5 11 64.5c0 30 -5.83301 55 -17.5 75s-28.834 36 -51.501 48c-14.667 7.33301 -30.667 12.5 -48 15.5s-43.666 4.5 -78.999 4.5h-104z" />
    <glyph glyph-name="afii10047" unicode="&#xdd;" horiz-adv-x="678" 
d="M54 72v58c28.667 -31.333 62.667 -56 102 -74s80 -27 122 -27c75.333 -0.666992 143.5 26.166 204.5 80.499s92.833 125.833 95.5 214.5h-444v40h442c-8 78 -40.5 142.833 -97.5 194.5s-123.5 77.5 -199.5 77.5c-43.333 0 -84.666 -9.16699 -123.999 -27.5
s-73 -44.166 -101 -77.499v58c28 26 61 47 99 63s79.667 24 125 24c96 0 177.667 -33.333 245 -100s101 -148 101 -244c-0.666992 -94.667 -34.334 -175.5 -101.001 -242.5s-149 -100.5 -247 -100.5c-43.333 0 -84 7.33301 -122 22s-71.333 35 -100 61z" />
    <glyph glyph-name="afii10047" unicode="&#x42d;" horiz-adv-x="678" 
d="M54 72v58c28.667 -31.333 62.667 -56 102 -74s80 -27 122 -27c75.333 -0.666992 143.5 26.166 204.5 80.499s92.833 125.833 95.5 214.5h-444v40h442c-8 78 -40.5 142.833 -97.5 194.5s-123.5 77.5 -199.5 77.5c-43.333 0 -84.666 -9.16699 -123.999 -27.5
s-73 -44.166 -101 -77.499v58c28 26 61 47 99 63s79.667 24 125 24c96 0 177.667 -33.333 245 -100s101 -148 101 -244c-0.666992 -94.667 -34.334 -175.5 -101.001 -242.5s-149 -100.5 -247 -100.5c-43.333 0 -84 7.33301 -122 22s-71.333 35 -100 61z" />
    <glyph glyph-name="afii10048" unicode="&#xde;" horiz-adv-x="960" 
d="M134 372h102c10 88 46.667 160.667 110 218s138 86 224 86c94 0 173.5 -33.333 238.5 -100s97.5 -148 97.5 -244c0 -96.667 -32.5 -178 -97.5 -244s-144.5 -99 -238.5 -99c-95.333 0 -175 33.167 -239 99.5s-96.333 147.5 -97 243.5h-100v-332h-44v667h44v-295zM570 29
c82.667 0 151.667 29 207 87s83 130 83 216c-0.666992 85.333 -28.5 157.333 -83.5 216s-123.833 88 -206.5 88c-83.333 0 -152.5 -29.333 -207.5 -88s-82.5 -130.667 -82.5 -216c0 -86 27.5 -158 82.5 -216s124.167 -87 207.5 -87z" />
    <glyph glyph-name="afii10048" unicode="&#x42e;" horiz-adv-x="960" 
d="M134 372h102c10 88 46.667 160.667 110 218s138 86 224 86c94 0 173.5 -33.333 238.5 -100s97.5 -148 97.5 -244c0 -96.667 -32.5 -178 -97.5 -244s-144.5 -99 -238.5 -99c-95.333 0 -175 33.167 -239 99.5s-96.333 147.5 -97 243.5h-100v-332h-44v667h44v-295zM570 29
c82.667 0 151.667 29 207 87s83 130 83 216c-0.666992 85.333 -28.5 157.333 -83.5 216s-123.833 88 -206.5 88c-83.333 0 -152.5 -29.333 -207.5 -88s-82.5 -130.667 -82.5 -216c0 -86 27.5 -158 82.5 -216s124.167 -87 207.5 -87z" />
    <glyph glyph-name="afii10049" unicode="&#xdf;" horiz-adv-x="470" 
d="M34 0l202 299.001c-13.333 0 -26.5 1.33301 -39.5 4s-24.833 6.33398 -35.5 11.001c-31.333 12 -57 32.333 -77 61s-30 64.667 -30 108c0 35.333 8 66.666 24 93.999s37 48.666 63 63.999c16 8.66699 34 15.167 54 19.5s43.667 6.5 71 6.5h114v-667h-44v299h-50
l-200 -299h-52zM336 627.001h-70c-20 -0.666992 -37.333 -2.16699 -52 -4.5s-27.667 -6.16602 -39 -11.499c-24 -11.333 -42.5 -28.333 -55.5 -51s-19.5 -48.334 -19.5 -77.001c0 -24 3.83301 -45.333 11.5 -64s18.5 -33.667 32.5 -45c13.333 -12 29.5 -21 48.5 -27
s41.5 -8.66699 67.5 -8h76v288z" />
    <glyph glyph-name="afii10049" unicode="&#x42f;" horiz-adv-x="470" 
d="M34 0l202 299.001c-13.333 0 -26.5 1.33301 -39.5 4s-24.833 6.33398 -35.5 11.001c-31.333 12 -57 32.333 -77 61s-30 64.667 -30 108c0 35.333 8 66.666 24 93.999s37 48.666 63 63.999c16 8.66699 34 15.167 54 19.5s43.667 6.5 71 6.5h114v-667h-44v299h-50
l-200 -299h-52zM336 627.001h-70c-20 -0.666992 -37.333 -2.16699 -52 -4.5s-27.667 -6.16602 -39 -11.499c-24 -11.333 -42.5 -28.333 -55.5 -51s-19.5 -48.334 -19.5 -77.001c0 -24 3.83301 -45.333 11.5 -64s18.5 -33.667 32.5 -45c13.333 -12 29.5 -21 48.5 -27
s41.5 -8.66699 67.5 -8h76v288z" />
    <glyph glyph-name="afii10065" unicode="&#xe0;" horiz-adv-x="516" 
d="M404 337l-0.000976562 71.001h40v-408h-40v73c-18 -26.667 -40.667 -47.167 -68 -61.5s-57.666 -21.833 -90.999 -22.5c-56 0 -103.167 19.5 -141.5 58.5s-57.5 91.167 -57.5 156.5c0 63.333 18.167 114.666 54.5 153.999s84.5 59 144.5 59
c32.667 0 62.5 -6.66699 89.5 -20s50.167 -33.333 69.5 -60zM246.999 379.001c-43.333 -0.666992 -80.668 -16.332 -112.001 -46.999s-47 -72.334 -47 -125.001c0 -49.333 14.333 -91.666 43 -126.999s67.667 -53 117 -53c48.667 -0.666992 87.167 16.666 115.5 51.999
s42.5 78 42.5 128s-15.167 91.167 -45.5 123.5s-68.166 48.5 -113.499 48.5z" />
    <glyph glyph-name="afii10065" unicode="&#x430;" horiz-adv-x="516" 
d="M404 337l-0.000976562 71.001h40v-408h-40v73c-18 -26.667 -40.667 -47.167 -68 -61.5s-57.666 -21.833 -90.999 -22.5c-56 0 -103.167 19.5 -141.5 58.5s-57.5 91.167 -57.5 156.5c0 63.333 18.167 114.666 54.5 153.999s84.5 59 144.5 59
c32.667 0 62.5 -6.66699 89.5 -20s50.167 -33.333 69.5 -60zM246.999 379.001c-43.333 -0.666992 -80.668 -16.332 -112.001 -46.999s-47 -72.334 -47 -125.001c0 -49.333 14.333 -91.666 43 -126.999s67.667 -53 117 -53c48.667 -0.666992 87.167 16.666 115.5 51.999
s42.5 78 42.5 128s-15.167 91.167 -45.5 123.5s-68.166 48.5 -113.499 48.5z" />
    <glyph glyph-name="afii10066" unicode="&#xe1;" horiz-adv-x="520" 
d="M87 311h1.99609c13.333 31.333 35.833 56.833 67.5 76.5s68.834 29.5 111.501 29.5c61.333 0 111 -19.833 149 -59.5s57 -90.834 57 -153.501c-0.666992 -66 -21.334 -118.333 -62.001 -157s-91.667 -58 -153 -58c-29.333 0 -56.166 4.33301 -80.499 13
s-45.166 21.334 -62.499 38.001c-24.667 22 -42.667 50.5 -54 85.5s-16.666 79.167 -15.999 132.5c0 82 10.833 150.5 32.5 205.5s53.5 96.167 95.5 123.5c13.333 8.66699 28.333 16 45 22s54.334 15.333 113.001 28c25.333 4.66699 45 11.167 59 19.5s24.333 19.5 31 33.5
h50c-11.333 -26 -27.833 -46.167 -49.5 -60.5s-54.5 -26.166 -98.5 -35.499c-42.667 -9.33301 -73.667 -18 -93 -26s-36 -17.667 -50 -29c-28 -22.667 -50.167 -54.334 -66.5 -95.001s-25.5 -85 -27.5 -133zM258.996 27c52 0 93.833 16.3291 125.5 48.9961
s47.5 75.334 47.5 128.001c0 46.667 -14.667 87.5 -44 122.5s-69.333 52.5 -120 52.5c-49.333 0 -91 -16.5 -125 -49.5s-51 -74.833 -51 -125.5c0 -21.333 3.5 -42.666 10.5 -63.999s16.5 -39.333 28.5 -54c14 -19.333 31.333 -34.166 52 -44.499s46 -15.166 76 -14.499z
" />
    <glyph glyph-name="afii10066" unicode="&#x431;" horiz-adv-x="520" 
d="M87 311h1.99609c13.333 31.333 35.833 56.833 67.5 76.5s68.834 29.5 111.501 29.5c61.333 0 111 -19.833 149 -59.5s57 -90.834 57 -153.501c-0.666992 -66 -21.334 -118.333 -62.001 -157s-91.667 -58 -153 -58c-29.333 0 -56.166 4.33301 -80.499 13
s-45.166 21.334 -62.499 38.001c-24.667 22 -42.667 50.5 -54 85.5s-16.666 79.167 -15.999 132.5c0 82 10.833 150.5 32.5 205.5s53.5 96.167 95.5 123.5c13.333 8.66699 28.333 16 45 22s54.334 15.333 113.001 28c25.333 4.66699 45 11.167 59 19.5s24.333 19.5 31 33.5
h50c-11.333 -26 -27.833 -46.167 -49.5 -60.5s-54.5 -26.166 -98.5 -35.499c-42.667 -9.33301 -73.667 -18 -93 -26s-36 -17.667 -50 -29c-28 -22.667 -50.167 -54.334 -66.5 -95.001s-25.5 -85 -27.5 -133zM258.996 27c52 0 93.833 16.3291 125.5 48.9961
s47.5 75.334 47.5 128.001c0 46.667 -14.667 87.5 -44 122.5s-69.333 52.5 -120 52.5c-49.333 0 -91 -16.5 -125 -49.5s-51 -74.833 -51 -125.5c0 -21.333 3.5 -42.666 10.5 -63.999s16.5 -39.333 28.5 -54c14 -19.333 31.333 -34.166 52 -44.499s46 -15.166 76 -14.499z
" />
    <glyph glyph-name="afii10067" unicode="&#xe2;" horiz-adv-x="414" 
d="M72 408l132.999 0.00195312c20 0 36.833 -2 50.5 -6s25.834 -10 36.501 -18c10.667 -9.33301 19.167 -20.5 25.5 -33.5s9.83301 -27.833 10.5 -44.5c0 -18.667 -3.83301 -35.334 -11.5 -50.001s-18.834 -26.334 -33.501 -35.001c8.66699 -2 17.334 -5 26.001 -9
s16.667 -8.66699 24 -14c11.333 -10 20 -22 26 -36s9 -29.333 9 -46c-0.666992 -19.333 -4.5 -36.333 -11.5 -51s-16.833 -27 -29.5 -37c-12 -9.33301 -26.167 -16.333 -42.5 -21s-35.5 -7 -57.5 -7h-155v408zM111.999 230.002h93.001c12.667 0 23.667 1.33301 33 4
s17.666 7 24.999 13s13.333 13.5 18 22.5s7 19.5 7 31.5c0 10.667 -2.33301 20.667 -7 30s-10.667 17 -18 23c-7.33301 4.66699 -15.833 8.5 -25.5 11.5s-20.5 4.5 -32.5 4.5h-93v-140zM112 38.002l114.997 -0.000976562c14.667 0 27.834 1.33301 39.501 4
s21.834 7.33398 30.501 14.001c8.66699 6 15.667 14.167 21 24.5s8 22.5 8 36.5c-0.666992 12 -3.16699 22.833 -7.5 32.5s-10.833 17.834 -19.5 24.501c-8 5.33301 -17.667 9.66602 -29 12.999s-25.666 5 -42.999 5h-115v-154z" />
    <glyph glyph-name="afii10067" unicode="&#x432;" horiz-adv-x="414" 
d="M72 408l132.999 0.00195312c20 0 36.833 -2 50.5 -6s25.834 -10 36.501 -18c10.667 -9.33301 19.167 -20.5 25.5 -33.5s9.83301 -27.833 10.5 -44.5c0 -18.667 -3.83301 -35.334 -11.5 -50.001s-18.834 -26.334 -33.501 -35.001c8.66699 -2 17.334 -5 26.001 -9
s16.667 -8.66699 24 -14c11.333 -10 20 -22 26 -36s9 -29.333 9 -46c-0.666992 -19.333 -4.5 -36.333 -11.5 -51s-16.833 -27 -29.5 -37c-12 -9.33301 -26.167 -16.333 -42.5 -21s-35.5 -7 -57.5 -7h-155v408zM111.999 230.002h93.001c12.667 0 23.667 1.33301 33 4
s17.666 7 24.999 13s13.333 13.5 18 22.5s7 19.5 7 31.5c0 10.667 -2.33301 20.667 -7 30s-10.667 17 -18 23c-7.33301 4.66699 -15.833 8.5 -25.5 11.5s-20.5 4.5 -32.5 4.5h-93v-140zM112 38.002l114.997 -0.000976562c14.667 0 27.834 1.33301 39.501 4
s21.834 7.33398 30.501 14.001c8.66699 6 15.667 14.167 21 24.5s8 22.5 8 36.5c-0.666992 12 -3.16699 22.833 -7.5 32.5s-10.833 17.834 -19.5 24.501c-8 5.33301 -17.667 9.66602 -29 12.999s-25.666 5 -42.999 5h-115v-154z" />
    <glyph glyph-name="glyph146" unicode="&#xe3;" horiz-adv-x="300" 
d="M72 0v408h220v-38h-180v-370h-40z" />
    <glyph glyph-name="glyph146" unicode="&#x433;" horiz-adv-x="300" 
d="M72 0v408h220v-38h-180v-370h-40z" />
    <glyph glyph-name="afii10069" unicode="&#xe4;" horiz-adv-x="440" 
d="M100 408l268 -0.000976562v-370h60v-148h-38v110h-344v-110h-38v148c15.333 0.666992 29.666 5.83398 42.999 15.501s24 22.5 32 38.5c5.33301 12 9.33301 26.667 12 44s4.33398 39.333 5.00098 66v206zM328 37.999l-0.000976562 332h-188v-180
c-0.666992 -38 -5.16699 -69.167 -13.5 -93.5s-21.166 -43.833 -38.499 -58.5h240z" />
    <glyph glyph-name="afii10069" unicode="&#x434;" horiz-adv-x="440" 
d="M100 408l268 -0.000976562v-370h60v-148h-38v110h-344v-110h-38v148c15.333 0.666992 29.666 5.83398 42.999 15.501s24 22.5 32 38.5c5.33301 12 9.33301 26.667 12 44s4.33398 39.333 5.00098 66v206zM328 37.999l-0.000976562 332h-188v-180
c-0.666992 -38 -5.16699 -69.167 -13.5 -93.5s-21.166 -43.833 -38.499 -58.5h240z" />
    <glyph glyph-name="afii10070" unicode="&#xe5;" horiz-adv-x="483" 
d="M437 199l-348.999 -0.00195312c-2.66699 -50 12.333 -91.167 45 -123.5s71.667 -48.5 117 -48.5c32 0 60.167 8.33301 84.5 25s43.5 39.334 57.5 68.001l34 -20c-18 -34 -42.167 -61 -72.5 -81s-65.833 -30 -106.5 -30c-62 0.666992 -111 20.834 -147 60.501
s-54 90.5 -54 152.5c-0.666992 66.667 18.666 119.167 57.999 157.5s86 57.5 140 57.5c56 0 102.667 -20.5 140 -61.5s55 -93.167 53 -156.5zM91.001 236.998h304c-5.33301 40.667 -22 74.5 -50 101.5s-61.667 40.5 -101 40.5c-40.667 0 -75 -13.5 -103 -40.5
s-44.667 -60.833 -50 -101.5z" />
    <glyph glyph-name="afii10070" unicode="&#x435;" horiz-adv-x="483" 
d="M437 199l-348.999 -0.00195312c-2.66699 -50 12.333 -91.167 45 -123.5s71.667 -48.5 117 -48.5c32 0 60.167 8.33301 84.5 25s43.5 39.334 57.5 68.001l34 -20c-18 -34 -42.167 -61 -72.5 -81s-65.833 -30 -106.5 -30c-62 0.666992 -111 20.834 -147 60.501
s-54 90.5 -54 152.5c-0.666992 66.667 18.666 119.167 57.999 157.5s86 57.5 140 57.5c56 0 102.667 -20.5 140 -61.5s55 -93.167 53 -156.5zM91.001 236.998h304c-5.33301 40.667 -22 74.5 -50 101.5s-61.667 40.5 -101 40.5c-40.667 0 -75 -13.5 -103 -40.5
s-44.667 -60.833 -50 -101.5z" />
    <glyph glyph-name="afii10072" unicode="&#xe6;" horiz-adv-x="560" 
d="M260 408h40v-194l184 194h52l-190 -196l206 -212h-54l-178 186l-20 -20v-166h-40v166l-20 20l-178 -186h-54l206 212l-190 196h52l184 -194v194z" />
    <glyph glyph-name="afii10072" unicode="&#x436;" horiz-adv-x="560" 
d="M260 408h40v-194l184 194h52l-190 -196l206 -212h-54l-178 186l-20 -20v-166h-40v166l-20 20l-178 -186h-54l206 212l-190 196h52l184 -194v194z" />
    <glyph glyph-name="afii10073" unicode="&#xe7;" horiz-adv-x="400" 
d="M105 322l-32.999 22.998c14 24 32 42 54 54s47 18 75 18c18.667 0 35.5 -2.33301 50.5 -7s28.167 -12 39.5 -22c10.667 -10 18.834 -21.667 24.501 -35s8.5 -28 8.5 -44c0 -20 -4.16699 -37.167 -12.5 -51.5s-19.833 -25.5 -34.5 -33.5
c8.66699 -2.66699 17.167 -6.33398 25.5 -11.001s15.833 -10 22.5 -16c8.66699 -9.33301 15.5 -20.833 20.5 -34.5s7.83301 -28.167 8.5 -43.5c0 -20.667 -4.33301 -39.667 -13 -57s-20.334 -31.666 -35.001 -42.999c-13.333 -10 -29 -17.5 -47 -22.5s-37 -7.5 -57 -7.5
c-22 0.666992 -41.667 3.33398 -59 8.00098s-32.666 12 -45.999 22c-10.667 6.66699 -20.334 15.167 -29.001 25.5s-16 21.833 -22 34.5l36 23c4.66699 -11.333 10.667 -21.333 18 -30s15.666 -16 24.999 -22c10.667 -8 22.334 -13.833 35.001 -17.5s26.667 -5.5 42 -5.5
c16.667 0 31.5 2 44.5 6s24.167 9.66699 33.5 17c10 8 17.833 18.167 23.5 30.5s8.5 25.5 8.5 39.5c0 12.667 -2.66699 24.167 -8 34.5s-12 18.833 -20 25.5c-8.66699 6 -18.667 10.5 -30 13.5s-26.333 4.5 -45 4.5h-42v38h31c14 0 25.667 1.33301 35 4s18 7 26 13
s14.167 13.167 18.5 21.5s6.5 18.5 6.5 30.5c0 10.667 -2 20.5 -6 29.5s-9 16.833 -15 23.5c-7.33301 6 -16.333 10.833 -27 14.5s-22.667 5.83398 -36 6.50098c-20.667 0 -39.334 -5 -56.001 -15s-29.667 -24 -39 -42z" />
    <glyph glyph-name="afii10073" unicode="&#x437;" horiz-adv-x="400" 
d="M105 322l-32.999 22.998c14 24 32 42 54 54s47 18 75 18c18.667 0 35.5 -2.33301 50.5 -7s28.167 -12 39.5 -22c10.667 -10 18.834 -21.667 24.501 -35s8.5 -28 8.5 -44c0 -20 -4.16699 -37.167 -12.5 -51.5s-19.833 -25.5 -34.5 -33.5
c8.66699 -2.66699 17.167 -6.33398 25.5 -11.001s15.833 -10 22.5 -16c8.66699 -9.33301 15.5 -20.833 20.5 -34.5s7.83301 -28.167 8.5 -43.5c0 -20.667 -4.33301 -39.667 -13 -57s-20.334 -31.666 -35.001 -42.999c-13.333 -10 -29 -17.5 -47 -22.5s-37 -7.5 -57 -7.5
c-22 0.666992 -41.667 3.33398 -59 8.00098s-32.666 12 -45.999 22c-10.667 6.66699 -20.334 15.167 -29.001 25.5s-16 21.833 -22 34.5l36 23c4.66699 -11.333 10.667 -21.333 18 -30s15.666 -16 24.999 -22c10.667 -8 22.334 -13.833 35.001 -17.5s26.667 -5.5 42 -5.5
c16.667 0 31.5 2 44.5 6s24.167 9.66699 33.5 17c10 8 17.833 18.167 23.5 30.5s8.5 25.5 8.5 39.5c0 12.667 -2.66699 24.167 -8 34.5s-12 18.833 -20 25.5c-8.66699 6 -18.667 10.5 -30 13.5s-26.333 4.5 -45 4.5h-42v38h31c14 0 25.667 1.33301 35 4s18 7 26 13
s14.167 13.167 18.5 21.5s6.5 18.5 6.5 30.5c0 10.667 -2 20.5 -6 29.5s-9 16.833 -15 23.5c-7.33301 6 -16.333 10.833 -27 14.5s-22.667 5.83398 -36 6.50098c-20.667 0 -39.334 -5 -56.001 -15s-29.667 -24 -39 -42z" />
    <glyph glyph-name="afii10074" unicode="&#xe8;" horiz-adv-x="474" 
d="M72 408h40v-327l290 350v-431h-40v325l-290 -350v433z" />
    <glyph glyph-name="afii10074" unicode="&#x438;" horiz-adv-x="474" 
d="M72 408h40v-327l290 350v-431h-40v325l-290 -350v433z" />
    <glyph glyph-name="afii10075" unicode="&#xe9;" horiz-adv-x="474" 
d="M72 408h40v-327l290 350v-431h-40v325l-290 -350v433zM248 517c24.667 0 45.333 6.83301 62 20.5s28 31.167 34 52.5l34 -17c-10 -31.333 -26.333 -54.833 -49 -70.5s-49.667 -23.5 -81 -23.5c-32 0 -59.333 7.83301 -82 23.5s-38.667 39.167 -48 70.5l34 17
c5.33301 -21.333 16.333 -38.833 33 -52.5s37.667 -20.5 63 -20.5z" />
    <glyph glyph-name="afii10075" unicode="&#x439;" horiz-adv-x="474" 
d="M72 408h40v-327l290 350v-431h-40v325l-290 -350v433zM248 517c24.667 0 45.333 6.83301 62 20.5s28 31.167 34 52.5l34 -17c-10 -31.333 -26.333 -54.833 -49 -70.5s-49.667 -23.5 -81 -23.5c-32 0 -59.333 7.83301 -82 23.5s-38.667 39.167 -48 70.5l34 17
c5.33301 -21.333 16.333 -38.833 33 -52.5s37.667 -20.5 63 -20.5z" />
    <glyph glyph-name="glyph177" unicode="&#xea;" horiz-adv-x="396" 
d="M72 408h40v-194l206 194h54l-208 -194l224 -214h-58l-196 187l-22 -21v-166h-40v408z" />
    <glyph glyph-name="glyph177" unicode="&#x43a;" horiz-adv-x="396" 
d="M72 408h40v-194l206 194h54l-208 -194l224 -214h-58l-196 187l-22 -21v-166h-40v408z" />
    <glyph glyph-name="afii10077" unicode="&#xeb;" horiz-adv-x="430" 
d="M358 408l-0.00390625 -408.001h-40v370h-188v-236c0 -24.667 -2 -44.667 -6 -60s-10 -28.333 -18 -39c-9.33301 -12 -20.666 -21.167 -33.999 -27.5s-28 -9.5 -44 -9.5c-3.33301 0 -6.66602 0.333008 -9.99902 1s-6.66602 1 -9.99902 1v38
c2 -0.666992 4.33301 -1.16699 7 -1.5s5.33398 -0.5 8.00098 -0.5c11.333 0 21.5 2.33301 30.5 7s16.5 11.334 22.5 20.001c4.66699 6.66699 8.16699 15.167 10.5 25.5s3.5 25.5 3.5 45.5v274h268z" />
    <glyph glyph-name="afii10077" unicode="&#x43b;" horiz-adv-x="430" 
d="M358 408l-0.00390625 -408.001h-40v370h-188v-236c0 -24.667 -2 -44.667 -6 -60s-10 -28.333 -18 -39c-9.33301 -12 -20.666 -21.167 -33.999 -27.5s-28 -9.5 -44 -9.5c-3.33301 0 -6.66602 0.333008 -9.99902 1s-6.66602 1 -9.99902 1v38
c2 -0.666992 4.33301 -1.16699 7 -1.5s5.33398 -0.5 8.00098 -0.5c11.333 0 21.5 2.33301 30.5 7s16.5 11.334 22.5 20.001c4.66699 6.66699 8.16699 15.167 10.5 25.5s3.5 25.5 3.5 45.5v274h268z" />
    <glyph glyph-name="afii10078" unicode="&#xec;" horiz-adv-x="566" 
d="M24 0l96 433l163 -368l163 368l96 -433h-42l-66 319l-151 -344l-151 344l-66 -319h-42z" />
    <glyph glyph-name="afii10078" unicode="&#x43c;" horiz-adv-x="566" 
d="M24 0l96 433l163 -368l163 368l96 -433h-42l-66 319l-151 -344l-151 344l-66 -319h-42z" />
    <glyph glyph-name="afii10079" unicode="&#xed;" horiz-adv-x="454" 
d="M72 0v408h40v-180h230v180h40v-408h-40v190h-230v-190h-40z" />
    <glyph glyph-name="afii10079" unicode="&#x43d;" horiz-adv-x="454" 
d="M72 0v408h40v-180h230v180h40v-408h-40v190h-230v-190h-40z" />
    <glyph glyph-name="afii10080" unicode="&#xee;" horiz-adv-x="520" 
d="M260 417c60.667 0 111.5 -20.5 152.5 -61.5s61.5 -91.833 61.5 -152.5c0 -61.333 -20.5 -112.333 -61.5 -153s-91.833 -61 -152.5 -61c-61.333 0 -112.333 20.333 -153 61s-61 91.667 -61 153c0 60.667 20.333 111.5 61 152.5s91.667 61.5 153 61.5zM260 27
c48.667 -0.666992 89.5 16 122.5 50s49.5 76 49.5 126c0 49.333 -16.5 91 -49.5 125s-73.833 51 -122.5 51c-49.333 0 -90.5 -17 -123.5 -51s-49.167 -75.667 -48.5 -125c0 -50 16.333 -91.833 49 -125.5s73.667 -50.5 123 -50.5z" />
    <glyph glyph-name="afii10080" unicode="&#x43e;" horiz-adv-x="520" 
d="M260 417c60.667 0 111.5 -20.5 152.5 -61.5s61.5 -91.833 61.5 -152.5c0 -61.333 -20.5 -112.333 -61.5 -153s-91.833 -61 -152.5 -61c-61.333 0 -112.333 20.333 -153 61s-61 91.667 -61 153c0 60.667 20.333 111.5 61 152.5s91.667 61.5 153 61.5zM260 27
c48.667 -0.666992 89.5 16 122.5 50s49.5 76 49.5 126c0 49.333 -16.5 91 -49.5 125s-73.833 51 -122.5 51c-49.333 0 -90.5 -17 -123.5 -51s-49.167 -75.667 -48.5 -125c0 -50 16.333 -91.833 49 -125.5s73.667 -50.5 123 -50.5z" />
    <glyph glyph-name="afii10081" unicode="&#xef;" horiz-adv-x="448" 
d="M72 0v408h304v-408h-40v370h-224v-370h-40z" />
    <glyph glyph-name="afii10081" unicode="&#x43f;" horiz-adv-x="448" 
d="M72 0v408h304v-408h-40v370h-224v-370h-40z" />
    <glyph glyph-name="afii10082" unicode="&#xf0;" horiz-adv-x="516" 
d="M112 73l0.000976562 -312h-40v647h40v-71c18.667 26 41.667 45.833 69 59.5s57.666 20.5 90.999 20.5c60 0 108 -20 144 -60s54 -90 54 -150c0 -62 -18.333 -113.833 -55 -155.5s-85 -62.5 -145 -62.5c-36 0 -67.333 7.5 -94 22.5s-48 35.5 -64 61.5zM269.001 27
c49.333 0 88 16.832 116 50.499s42.333 76.834 43 129.501c0 53.333 -15.333 95.333 -46 126s-68 46 -112 46s-81.667 -15 -113 -45s-47 -71.667 -47 -125s14 -97 42 -131s67 -51 117 -51z" />
    <glyph glyph-name="afii10082" unicode="&#x440;" horiz-adv-x="516" 
d="M112 73l0.000976562 -312h-40v647h40v-71c18.667 26 41.667 45.833 69 59.5s57.666 20.5 90.999 20.5c60 0 108 -20 144 -60s54 -90 54 -150c0 -62 -18.333 -113.833 -55 -155.5s-85 -62.5 -145 -62.5c-36 0 -67.333 7.5 -94 22.5s-48 35.5 -64 61.5zM269.001 27
c49.333 0 88 16.832 116 50.499s42.333 76.834 43 129.501c0 53.333 -15.333 95.333 -46 126s-68 46 -112 46s-81.667 -15 -113 -45s-47 -71.667 -47 -125s14 -97 42 -131s67 -51 117 -51z" />
    <glyph glyph-name="afii10083" unicode="&#xf1;" horiz-adv-x="442" 
d="M399 365l0.000976562 -52.999c-18.667 20.667 -40 37 -64 49s-49.667 18 -77 18c-50 0 -90.833 -17 -122.5 -51s-47.5 -76 -47.5 -126s15.667 -91.667 47 -125s71.666 -50 120.999 -50c26.667 -0.666992 52.667 5.5 78 18.5s48.666 31.167 69.999 54.5v-54
c-20 -18 -42.5 -31.833 -67.5 -41.5s-52.167 -14.834 -81.5 -15.501c-61.333 0 -111.5 20 -150.5 60s-58.5 90.667 -58.5 152s19.167 112.5 57.5 153.5s89.833 61.833 154.5 62.5c26 0 50.833 -4.5 74.5 -13.5s45.834 -21.833 66.501 -38.5z" />
    <glyph glyph-name="afii10083" unicode="&#x441;" horiz-adv-x="442" 
d="M399 365l0.000976562 -52.999c-18.667 20.667 -40 37 -64 49s-49.667 18 -77 18c-50 0 -90.833 -17 -122.5 -51s-47.5 -76 -47.5 -126s15.667 -91.667 47 -125s71.666 -50 120.999 -50c26.667 -0.666992 52.667 5.5 78 18.5s48.666 31.167 69.999 54.5v-54
c-20 -18 -42.5 -31.833 -67.5 -41.5s-52.167 -14.834 -81.5 -15.501c-61.333 0 -111.5 20 -150.5 60s-58.5 90.667 -58.5 152s19.167 112.5 57.5 153.5s89.833 61.833 154.5 62.5c26 0 50.833 -4.5 74.5 -13.5s45.834 -21.833 66.501 -38.5z" />
    <glyph glyph-name="afii10084" unicode="&#xf2;" horiz-adv-x="340" 
d="M150 0v370h-142v38h324v-38h-142v-370h-40z" />
    <glyph glyph-name="afii10084" unicode="&#x442;" horiz-adv-x="340" 
d="M150 0v370h-142v38h324v-38h-142v-370h-40z" />
    <glyph glyph-name="glyph190" unicode="&#xf3;" horiz-adv-x="428" 
d="M102 -239l100 232l-194 415h46l171 -363l149 363h46l-272 -647h-46z" />
    <glyph glyph-name="glyph190" unicode="&#x443;" horiz-adv-x="428" 
d="M102 -239l100 232l-194 415h46l171 -363l149 363h46l-272 -647h-46z" />
    <glyph glyph-name="afii10086" unicode="&#xf4;" horiz-adv-x="600" 
d="M280 -239v232c-34 0 -65 4.5 -93 13.5s-52 22.167 -72 39.5c-23.333 19.333 -40.666 42 -51.999 68s-17 56 -17 90c0 32 5.5 61.5 16.5 88.5s28.5 50.5 52.5 70.5c20.667 17.333 45 30.166 73 38.499s58.667 12.5 92 12.5v253h40v-253c32.667 0 63 -4.16699 91 -12.5
s52.667 -21.166 74 -38.499c23.333 -20 40.666 -43.5 51.999 -70.5s17 -56.5 17 -88.5c-0.666992 -34 -6.66699 -64 -18 -90s-28.333 -48.667 -51 -68c-20.667 -17.333 -45 -30.5 -73 -39.5s-58.667 -13.5 -92 -13.5v-232h-40zM280 31v344.998
c-26 0.666992 -51.167 -2.66602 -75.5 -9.99902s-44.833 -18 -61.5 -32c-18.667 -16 -32.5 -35 -41.5 -57s-13.5 -46.333 -13.5 -73c0 -27.333 4.5 -52.166 13.5 -74.499s22.833 -40.833 41.5 -55.5c16 -13.333 36.5 -23.833 61.5 -31.5s50.167 -11.5 75.5 -11.5z
M320 375.998l-0.00195312 -344.998c24.667 0 49.5 3.83301 74.5 11.5s45.833 18.167 62.5 31.5c18 14.667 31.667 33.167 41 55.5s14 47.166 14 74.499c0 26.667 -4.66699 51 -14 73s-23 41 -41 57c-17.333 14 -38.166 24.667 -62.499 32s-49.166 10.666 -74.499 9.99902z
" />
    <glyph glyph-name="afii10086" unicode="&#x444;" horiz-adv-x="600" 
d="M280 -239v232c-34 0 -65 4.5 -93 13.5s-52 22.167 -72 39.5c-23.333 19.333 -40.666 42 -51.999 68s-17 56 -17 90c0 32 5.5 61.5 16.5 88.5s28.5 50.5 52.5 70.5c20.667 17.333 45 30.166 73 38.499s58.667 12.5 92 12.5v253h40v-253c32.667 0 63 -4.16699 91 -12.5
s52.667 -21.166 74 -38.499c23.333 -20 40.666 -43.5 51.999 -70.5s17 -56.5 17 -88.5c-0.666992 -34 -6.66699 -64 -18 -90s-28.333 -48.667 -51 -68c-20.667 -17.333 -45 -30.5 -73 -39.5s-58.667 -13.5 -92 -13.5v-232h-40zM280 31v344.998
c-26 0.666992 -51.167 -2.66602 -75.5 -9.99902s-44.833 -18 -61.5 -32c-18.667 -16 -32.5 -35 -41.5 -57s-13.5 -46.333 -13.5 -73c0 -27.333 4.5 -52.166 13.5 -74.499s22.833 -40.833 41.5 -55.5c16 -13.333 36.5 -23.833 61.5 -31.5s50.167 -11.5 75.5 -11.5z
M320 375.998l-0.00195312 -344.998c24.667 0 49.5 3.83301 74.5 11.5s45.833 18.167 62.5 31.5c18 14.667 31.667 33.167 41 55.5s14 47.166 14 74.499c0 26.667 -4.66699 51 -14 73s-23 41 -41 57c-17.333 14 -38.166 24.667 -62.499 32s-49.166 10.666 -74.499 9.99902z
" />
    <glyph glyph-name="afii10087" unicode="&#xf5;" horiz-adv-x="400" 
d="M8 0l165 214l-151 194h49l129 -168l127 168h49l-148 -194l164 -214h-49l-143 188l-143 -188h-49z" />
    <glyph glyph-name="afii10087" unicode="&#x445;" horiz-adv-x="400" 
d="M8 0l165 214l-151 194h49l129 -168l127 168h49l-148 -194l164 -214h-49l-143 188l-143 -188h-49z" />
    <glyph glyph-name="afii10088" unicode="&#xf6;" horiz-adv-x="444" 
d="M72 0v408h40v-370h220v370h40v-370h60v-148h-38v110h-322z" />
    <glyph glyph-name="afii10088" unicode="&#x446;" horiz-adv-x="444" 
d="M72 0v408h40v-370h220v370h40v-370h60v-148h-38v110h-322z" />
    <glyph glyph-name="afii10089" unicode="&#xf7;" horiz-adv-x="412" 
d="M300 0l0.000976562 168.999c-20.667 -3.33301 -40.667 -6 -60 -8s-35 -2.66699 -47 -2c-20.667 0 -39.334 1.83301 -56.001 5.5s-30 9.16699 -40 16.5c-12.667 8.66699 -22.167 20.334 -28.5 35.001s-9.16602 37.667 -8.49902 69v123h40v-123c0 -20 2 -36 6 -48
s11 -21 21 -27c6 -4.66699 14 -8 24 -10s22.333 -3 37 -3c12.667 0 30.167 0.833008 52.5 2.5s42.166 4.16699 59.499 7.5v201h40v-408h-40z" />
    <glyph glyph-name="afii10089" unicode="&#x447;" horiz-adv-x="412" 
d="M300 0l0.000976562 168.999c-20.667 -3.33301 -40.667 -6 -60 -8s-35 -2.66699 -47 -2c-20.667 0 -39.334 1.83301 -56.001 5.5s-30 9.16699 -40 16.5c-12.667 8.66699 -22.167 20.334 -28.5 35.001s-9.16602 37.667 -8.49902 69v123h40v-123c0 -20 2 -36 6 -48
s11 -21 21 -27c6 -4.66699 14 -8 24 -10s22.333 -3 37 -3c12.667 0 30.167 0.833008 52.5 2.5s42.166 4.16699 59.499 7.5v201h40v-408h-40z" />
    <glyph glyph-name="afii10090" unicode="&#xf8;" horiz-adv-x="644" 
d="M72 0v408h40v-370h190v370h40v-370h190v370h40v-408h-500z" />
    <glyph glyph-name="afii10090" unicode="&#x448;" horiz-adv-x="644" 
d="M72 0v408h40v-370h190v370h40v-370h190v370h40v-408h-500z" />
    <glyph glyph-name="afii10091" unicode="&#xf9;" horiz-adv-x="644" 
d="M72 0v408h40v-370h190v370h40v-370h190v370h40v-370h60v-148h-38v110h-522z" />
    <glyph glyph-name="afii10091" unicode="&#x449;" horiz-adv-x="644" 
d="M72 0v408h40v-370h190v370h40v-370h190v370h40v-370h60v-148h-38v110h-522z" />
    <glyph glyph-name="afii10092" unicode="&#xfa;" horiz-adv-x="416" 
d="M8 408h139.997v-170h97c24.667 0 45.334 -3.33301 62.001 -10s30.667 -16 42 -28c9.33301 -10.667 16.5 -23.334 21.5 -38.001s7.5 -29 7.5 -43c-0.666992 -17.333 -4 -33.666 -10 -48.999s-14.667 -28.333 -26 -39s-24.666 -18.5 -39.999 -23.5
s-34.666 -7.5 -57.999 -7.5h-136v370h-100v38zM147.997 38h96c14.667 -0.666992 27 0.666016 37 3.99902s19 8.33301 27 15s14.667 15.334 20 26.001s8 22.667 8 36s-2.66699 25.5 -8 36.5s-12.333 19.833 -21 26.5c-8 5.33301 -17.5 9.5 -28.5 12.5
s-23.167 4.83301 -36.5 5.5h-94v-162z" />
    <glyph glyph-name="afii10092" unicode="&#x44a;" horiz-adv-x="416" 
d="M8 408h139.997v-170h97c24.667 0 45.334 -3.33301 62.001 -10s30.667 -16 42 -28c9.33301 -10.667 16.5 -23.334 21.5 -38.001s7.5 -29 7.5 -43c-0.666992 -17.333 -4 -33.666 -10 -48.999s-14.667 -28.333 -26 -39s-24.666 -18.5 -39.999 -23.5
s-34.666 -7.5 -57.999 -7.5h-136v370h-100v38zM147.997 38h96c14.667 -0.666992 27 0.666016 37 3.99902s19 8.33301 27 15s14.667 15.334 20 26.001s8 22.667 8 36s-2.66699 25.5 -8 36.5s-12.333 19.833 -21 26.5c-8 5.33301 -17.5 9.5 -28.5 12.5
s-23.167 4.83301 -36.5 5.5h-94v-162z" />
    <glyph glyph-name="afii10093" unicode="&#xfb;" 
d="M72 408h39.9961v-170h97c24.667 0 45.334 -3.33301 62.001 -10s30.667 -16 42 -28c9.33301 -10.667 16.5 -23.334 21.5 -38.001s7.5 -29 7.5 -43c0 -17.333 -3.16699 -33.666 -9.5 -48.999s-15.166 -28.333 -26.499 -39s-24.666 -18.5 -39.999 -23.5
s-34.666 -7.5 -57.999 -7.5h-136v408zM111.996 38h96c14.667 -0.666992 27 0.666016 37 3.99902s19 8.33301 27 15s14.667 15.334 20 26.001s8 22.667 8 36s-2.66699 25.5 -8 36.5s-12.333 19.833 -21 26.5c-8 5.33301 -17.5 9.5 -28.5 12.5s-23.167 4.83301 -36.5 5.5h-94
v-162zM387.996 408h40v-408h-40v408z" />
    <glyph glyph-name="afii10093" unicode="&#x44b;" 
d="M72 408h39.9961v-170h97c24.667 0 45.334 -3.33301 62.001 -10s30.667 -16 42 -28c9.33301 -10.667 16.5 -23.334 21.5 -38.001s7.5 -29 7.5 -43c0 -17.333 -3.16699 -33.666 -9.5 -48.999s-15.166 -28.333 -26.499 -39s-24.666 -18.5 -39.999 -23.5
s-34.666 -7.5 -57.999 -7.5h-136v408zM111.996 38h96c14.667 -0.666992 27 0.666016 37 3.99902s19 8.33301 27 15s14.667 15.334 20 26.001s8 22.667 8 36s-2.66699 25.5 -8 36.5s-12.333 19.833 -21 26.5c-8 5.33301 -17.5 9.5 -28.5 12.5s-23.167 4.83301 -36.5 5.5h-94
v-162zM387.996 408h40v-408h-40v408z" />
    <glyph glyph-name="afii10094" unicode="&#xfc;" horiz-adv-x="380" 
d="M72 408h39.9961v-170h97c24.667 0 45.334 -3.33301 62.001 -10s30.667 -16 42 -28c9.33301 -10.667 16.5 -23.334 21.5 -38.001s7.5 -29 7.5 -43c0 -17.333 -3.16699 -33.666 -9.5 -48.999s-15.166 -28.333 -26.499 -39s-24.666 -18.5 -39.999 -23.5
s-34.666 -7.5 -57.999 -7.5h-136v408zM111.996 38h96c14.667 -0.666992 27 0.666016 37 3.99902s19 8.33301 27 15s14.667 15.334 20 26.001s8 22.667 8 36s-2.66699 25.5 -8 36.5s-12.333 19.833 -21 26.5c-8 5.33301 -17.5 9.5 -28.5 12.5s-23.167 4.83301 -36.5 5.5h-94
v-162z" />
    <glyph glyph-name="afii10094" unicode="&#x44c;" horiz-adv-x="380" 
d="M72 408h39.9961v-170h97c24.667 0 45.334 -3.33301 62.001 -10s30.667 -16 42 -28c9.33301 -10.667 16.5 -23.334 21.5 -38.001s7.5 -29 7.5 -43c0 -17.333 -3.16699 -33.666 -9.5 -48.999s-15.166 -28.333 -26.499 -39s-24.666 -18.5 -39.999 -23.5
s-34.666 -7.5 -57.999 -7.5h-136v408zM111.996 38h96c14.667 -0.666992 27 0.666016 37 3.99902s19 8.33301 27 15s14.667 15.334 20 26.001s8 22.667 8 36s-2.66699 25.5 -8 36.5s-12.333 19.833 -21 26.5c-8 5.33301 -17.5 9.5 -28.5 12.5s-23.167 4.83301 -36.5 5.5h-94
v-162z" />
    <glyph glyph-name="afii10095" unicode="&#xfd;" horiz-adv-x="412" 
d="M38 10l-0.000976562 41.999c14.667 -8.66699 31.5 -15 50.5 -19s38.833 -6 59.5 -6c26 0 50.333 4.5 73 13.5s42.334 22.167 59.001 39.5c12.667 14 22.834 30.5 30.501 49.5s12.167 39.167 13.5 60.5h-239v38h239c-3.33301 25.333 -11 48 -23 68s-26.667 36.667 -44 50
c-16 11.333 -33.167 19.5 -51.5 24.5s-38.5 7.83301 -60.5 8.5c-21.333 0 -40.5 -1.83301 -57.5 -5.5s-32.167 -8.83398 -45.5 -15.501v40c18 6.66699 35.167 11.5 51.5 14.5s33.5 4.5 51.5 4.5c30 0 57.833 -4.16699 83.5 -12.5s48.834 -21.166 69.501 -38.499
c22 -20 38.667 -43.667 50 -71s17.333 -57.333 18 -90c0 -32.667 -5.33301 -62.5 -16 -89.5s-25.667 -49.833 -45 -68.5c-18.667 -18 -41.334 -32.167 -68.001 -42.5s-56.334 -15.5 -89.001 -15.5c-21.333 0 -41.5 1.83301 -60.5 5.5s-35.5 8.83398 -49.5 15.501z" />
    <glyph glyph-name="afii10095" unicode="&#x44d;" horiz-adv-x="412" 
d="M38 10l-0.000976562 41.999c14.667 -8.66699 31.5 -15 50.5 -19s38.833 -6 59.5 -6c26 0 50.333 4.5 73 13.5s42.334 22.167 59.001 39.5c12.667 14 22.834 30.5 30.501 49.5s12.167 39.167 13.5 60.5h-239v38h239c-3.33301 25.333 -11 48 -23 68s-26.667 36.667 -44 50
c-16 11.333 -33.167 19.5 -51.5 24.5s-38.5 7.83301 -60.5 8.5c-21.333 0 -40.5 -1.83301 -57.5 -5.5s-32.167 -8.83398 -45.5 -15.501v40c18 6.66699 35.167 11.5 51.5 14.5s33.5 4.5 51.5 4.5c30 0 57.833 -4.16699 83.5 -12.5s48.834 -21.166 69.501 -38.499
c22 -20 38.667 -43.667 50 -71s17.333 -57.333 18 -90c0 -32.667 -5.33301 -62.5 -16 -89.5s-25.667 -49.833 -45 -68.5c-18.667 -18 -41.334 -32.167 -68.001 -42.5s-56.334 -15.5 -89.001 -15.5c-21.333 0 -41.5 1.83301 -60.5 5.5s-35.5 8.83398 -49.5 15.501z" />
    <glyph glyph-name="afii10096" unicode="&#xfe;" horiz-adv-x="640" 
d="M112 228h69.999c5.33301 54 27.333 99 66 135s85.334 54 140.001 54c58 0 106.833 -20.5 146.5 -61.5s59.5 -91.833 59.5 -152.5c0 -61.333 -19.833 -112.333 -59.5 -153s-88.5 -61 -146.5 -61c-54.667 0 -102 18.5 -142 55.5s-61.333 85.5 -64 145.5h-70v-190h-40v408
h40v-180zM387.999 27c46.667 0 85.667 16.834 117 50.501s47 75.5 47 125.5c0 49.333 -15.667 91 -47 125s-70.333 51 -117 51c-47.333 -0.666992 -86.5 -17.834 -117.5 -51.501s-46.5 -75.167 -46.5 -124.5c0 -50 15.5 -91.833 46.5 -125.5s70.167 -50.5 117.5 -50.5z" />
    <glyph glyph-name="afii10096" unicode="&#x44e;" horiz-adv-x="640" 
d="M112 228h69.999c5.33301 54 27.333 99 66 135s85.334 54 140.001 54c58 0 106.833 -20.5 146.5 -61.5s59.5 -91.833 59.5 -152.5c0 -61.333 -19.833 -112.333 -59.5 -153s-88.5 -61 -146.5 -61c-54.667 0 -102 18.5 -142 55.5s-61.333 85.5 -64 145.5h-70v-190h-40v408
h40v-180zM387.999 27c46.667 0 85.667 16.834 117 50.501s47 75.5 47 125.5c0 49.333 -15.667 91 -47 125s-70.333 51 -117 51c-47.333 -0.666992 -86.5 -17.834 -117.5 -51.501s-46.5 -75.167 -46.5 -124.5c0 -50 15.5 -91.833 46.5 -125.5s70.167 -50.5 117.5 -50.5z" />
    <glyph glyph-name="afii10097" unicode="&#xff;" horiz-adv-x="386" 
d="M28 0l130 178.002c-15.333 0 -30 2.66699 -44 8s-26 12.666 -36 21.999c-12.667 10 -21.5 21.667 -26.5 35s-7.5 28.666 -7.5 45.999c0 18.667 2.83301 35.5 8.5 50.5s15.167 28.167 28.5 39.5c10.667 9.33301 23.5 16.5 38.5 21.5s34.5 7.5 58.5 7.5h136v-408h-40v176
h-70l-128 -176h-48zM274 214.002v155.997h-96c-14.667 0 -27.334 -1.5 -38.001 -4.5s-19.667 -7.5 -27 -13.5c-9.33301 -7.33301 -16.333 -16.166 -21 -26.499s-6.66699 -22.166 -6 -35.499c0 -13.333 2.16699 -24.833 6.5 -34.5s10.833 -17.5 19.5 -23.5
c6.66699 -6 15.834 -10.667 27.501 -14s24.5 -4.66602 38.5 -3.99902h96z" />
    <glyph glyph-name="afii10097" unicode="&#x44f;" horiz-adv-x="386" 
d="M28 0l130 178.002c-15.333 0 -30 2.66699 -44 8s-26 12.666 -36 21.999c-12.667 10 -21.5 21.667 -26.5 35s-7.5 28.666 -7.5 45.999c0 18.667 2.83301 35.5 8.5 50.5s15.167 28.167 28.5 39.5c10.667 9.33301 23.5 16.5 38.5 21.5s34.5 7.5 58.5 7.5h136v-408h-40v176
h-70l-128 -176h-48zM274 214.002v155.997h-96c-14.667 0 -27.334 -1.5 -38.001 -4.5s-19.667 -7.5 -27 -13.5c-9.33301 -7.33301 -16.333 -16.166 -21 -26.499s-6.66699 -22.166 -6 -35.499c0 -13.333 2.16699 -24.833 6.5 -34.5s10.833 -17.5 19.5 -23.5
c6.66699 -6 15.834 -10.667 27.501 -14s24.5 -4.66602 38.5 -3.99902h96z" />
    <glyph glyph-name="afii10059" unicode="&#x152;" horiz-adv-x="974" 
d="M134 667v-287h404v287h44v-287h116c76 0 133.333 -15.5 172 -46.5s58 -76.5 58 -136.5c-0.666992 -62.667 -20.5 -111.167 -59.5 -145.5s-91.167 -51.5 -156.5 -51.5h-174v340h-404v-340h-44v667h44zM582 340l0.000976562 -300h112c36.667 -0.666992 66 2.5 88 9.5
s41.333 18.5 58 34.5c13.333 13.333 23.666 29.5 30.999 48.5s11 40.5 11 64.5c0 30 -5.83301 55 -17.5 75s-28.834 36 -51.501 48c-14.667 7.33301 -30.667 12.5 -48 15.5s-43.666 4.5 -78.999 4.5h-104z" />
    <glyph glyph-name="afii10059" unicode="&#x40a;" horiz-adv-x="974" 
d="M134 667v-287h404v287h44v-287h116c76 0 133.333 -15.5 172 -46.5s58 -76.5 58 -136.5c-0.666992 -62.667 -20.5 -111.167 -59.5 -145.5s-91.167 -51.5 -156.5 -51.5h-174v340h-404v-340h-44v667h44zM582 340l0.000976562 -300h112c36.667 -0.666992 66 2.5 88 9.5
s41.333 18.5 58 34.5c13.333 13.333 23.666 29.5 30.999 48.5s11 40.5 11 64.5c0 30 -5.83301 55 -17.5 75s-28.834 36 -51.501 48c-14.667 7.33301 -30.667 12.5 -48 15.5s-43.666 4.5 -78.999 4.5h-104z" />
    <glyph glyph-name="afii10107" unicode="&#x153;" horiz-adv-x="650" 
d="M72 0l-0.00390625 408h40v-170h230v170h40v-170h97c24.667 0 45.334 -3.33301 62.001 -10s30.667 -16 42 -28c9.33301 -10.667 16.5 -23.334 21.5 -38.001s7.5 -29 7.5 -43c0 -17.333 -3.16699 -33.666 -9.5 -48.999s-15.166 -28.333 -26.499 -39
s-24.666 -18.5 -39.999 -23.5s-34.666 -7.5 -57.999 -7.5h-136v200h-230v-200h-40zM381.996 38h96c14.667 -0.666992 27 0.666016 37 3.99902s19 8.33301 27 15s14.667 15.334 20 26.001s8 22.667 8 36s-2.66699 25.5 -8 36.5s-12.333 19.833 -21 26.5
c-8 5.33301 -17.5 9.5 -28.5 12.5s-23.167 4.83301 -36.5 5.5h-94v-162z" />
    <glyph glyph-name="afii10107" unicode="&#x45a;" horiz-adv-x="650" 
d="M72 0l-0.00390625 408h40v-170h230v170h40v-170h97c24.667 0 45.334 -3.33301 62.001 -10s30.667 -16 42 -28c9.33301 -10.667 16.5 -23.334 21.5 -38.001s7.5 -29 7.5 -43c0 -17.333 -3.16699 -33.666 -9.5 -48.999s-15.166 -28.333 -26.499 -39
s-24.666 -18.5 -39.999 -23.5s-34.666 -7.5 -57.999 -7.5h-136v200h-230v-200h-40zM381.996 38h96c14.667 -0.666992 27 0.666016 37 3.99902s19 8.33301 27 15s14.667 15.334 20 26.001s8 22.667 8 36s-2.66699 25.5 -8 36.5s-12.333 19.833 -21 26.5
c-8 5.33301 -17.5 9.5 -28.5 12.5s-23.167 4.83301 -36.5 5.5h-94v-162z" />
    <glyph glyph-name="afii10058" unicode="&#x160;" horiz-adv-x="922" 
d="M154 667h375.999v-287h116c76 0 133.333 -15.5 172 -46.5s58 -76.5 58 -136.5c0 -62.667 -19.667 -111.167 -59 -145.5s-91.666 -51.5 -156.999 -51.5h-174v627h-288v-388c0 -61.333 -3.66699 -106.333 -11 -135s-19.333 -52 -36 -70
c-12.667 -13.333 -27.5 -23.333 -44.5 -30s-34.5 -10 -52.5 -10c-5.33301 0 -11.5 0.666992 -18.5 2l-21.5 4v40c6 -2 12.167 -3.5 18.5 -4.5s12.5 -1.5 18.5 -1.5c12 0 23.667 2.16699 35 6.5s21.333 10.833 30 19.5c12.667 12 22 29.333 28 52s9.33301 65 10 127v428z
M529.999 340v-300h112c36.667 -0.666992 66 2.5 88 9.5s41.333 18.5 58 34.5c13.333 13.333 23.5 29.5 30.5 48.5s10.833 40.5 11.5 64.5c0 30 -5.83301 55 -17.5 75s-28.834 36 -51.501 48c-14.667 7.33301 -30.667 12.5 -48 15.5s-43.666 4.5 -78.999 4.5h-104z" />
    <glyph glyph-name="afii10058" unicode="&#x409;" horiz-adv-x="922" 
d="M154 667h375.999v-287h116c76 0 133.333 -15.5 172 -46.5s58 -76.5 58 -136.5c0 -62.667 -19.667 -111.167 -59 -145.5s-91.666 -51.5 -156.999 -51.5h-174v627h-288v-388c0 -61.333 -3.66699 -106.333 -11 -135s-19.333 -52 -36 -70
c-12.667 -13.333 -27.5 -23.333 -44.5 -30s-34.5 -10 -52.5 -10c-5.33301 0 -11.5 0.666992 -18.5 2l-21.5 4v40c6 -2 12.167 -3.5 18.5 -4.5s12.5 -1.5 18.5 -1.5c12 0 23.667 2.16699 35 6.5s21.333 10.833 30 19.5c12.667 12 22 29.333 28 52s9.33301 65 10 127v428z
M529.999 340v-300h112c36.667 -0.666992 66 2.5 88 9.5s41.333 18.5 58 34.5c13.333 13.333 23.5 29.5 30.5 48.5s10.833 40.5 11.5 64.5c0 30 -5.83301 55 -17.5 75s-28.834 36 -51.501 48c-14.667 7.33301 -30.667 12.5 -48 15.5s-43.666 4.5 -78.999 4.5h-104z" />
    <glyph glyph-name="afii10106" unicode="&#x161;" horiz-adv-x="626" 
d="M358 408l-0.0078125 -170.001h97c24.667 0 45.334 -3.33301 62.001 -10s30.667 -16 42 -28c9.33301 -10.667 16.5 -23.334 21.5 -38.001s7.5 -29 7.5 -43c0 -17.333 -3.16699 -33.666 -9.5 -48.999s-15.166 -28.333 -26.499 -39s-24.666 -18.5 -39.999 -23.5
s-34.666 -7.5 -57.999 -7.5h-136v370h-188v-236c0 -24.667 -2 -44.667 -6 -60s-10 -28.333 -18 -39c-9.33301 -12 -20.666 -21.167 -33.999 -27.5s-28 -9.5 -44 -9.5c-3.33301 0 -6.66602 0.333008 -9.99902 1s-6.66602 1 -9.99902 1v38
c2 -0.666992 4.33301 -1.16699 7 -1.5s5.33398 -0.5 8.00098 -0.5c11.333 0 21.5 2.33301 30.5 7s16.5 11.334 22.5 20.001c4.66699 6.66699 8.16699 15.167 10.5 25.5s3.5 25.5 3.5 45.5v274h268zM357.992 37.999h96c14.667 -0.666992 27 0.666016 37 3.99902
s19 8.33301 27 15s14.667 15.334 20 26.001s8 22.667 8 36c-0.666992 13.333 -3.5 25.5 -8.5 36.5s-11.833 19.833 -20.5 26.5c-8 5.33301 -17.5 9.5 -28.5 12.5s-23.167 4.83301 -36.5 5.5h-94v-162z" />
    <glyph glyph-name="afii10106" unicode="&#x459;" horiz-adv-x="626" 
d="M358 408l-0.0078125 -170.001h97c24.667 0 45.334 -3.33301 62.001 -10s30.667 -16 42 -28c9.33301 -10.667 16.5 -23.334 21.5 -38.001s7.5 -29 7.5 -43c0 -17.333 -3.16699 -33.666 -9.5 -48.999s-15.166 -28.333 -26.499 -39s-24.666 -18.5 -39.999 -23.5
s-34.666 -7.5 -57.999 -7.5h-136v370h-188v-236c0 -24.667 -2 -44.667 -6 -60s-10 -28.333 -18 -39c-9.33301 -12 -20.666 -21.167 -33.999 -27.5s-28 -9.5 -44 -9.5c-3.33301 0 -6.66602 0.333008 -9.99902 1s-6.66602 1 -9.99902 1v38
c2 -0.666992 4.33301 -1.16699 7 -1.5s5.33398 -0.5 8.00098 -0.5c11.333 0 21.5 2.33301 30.5 7s16.5 11.334 22.5 20.001c4.66699 6.66699 8.16699 15.167 10.5 25.5s3.5 25.5 3.5 45.5v274h268zM357.992 37.999h96c14.667 -0.666992 27 0.666016 37 3.99902
s19 8.33301 27 15s14.667 15.334 20 26.001s8 22.667 8 36c-0.666992 13.333 -3.5 25.5 -8.5 36.5s-11.833 19.833 -20.5 26.5c-8 5.33301 -17.5 9.5 -28.5 12.5s-23.167 4.83301 -36.5 5.5h-94v-162z" />
    <glyph glyph-name="afii10193" unicode="&#x178;" horiz-adv-x="444" 
d="M72 0v408h40v-370h220v370h40v-408h-130v-130h-40v130h-130z" />
    <glyph glyph-name="afii10193" unicode="&#x45f;" horiz-adv-x="444" 
d="M72 0v408h40v-370h220v370h40v-408h-130v-130h-40v130h-130z" />
    <glyph glyph-name="afii10100" unicode="&#x192;" horiz-adv-x="300" 
d="M72 0v408h220v-38h-180v-370h-40zM235 620l43 -25l-105 -128l-30 16z" />
    <glyph glyph-name="afii10100" unicode="&#x453;" horiz-adv-x="300" 
d="M72 0v408h220v-38h-180v-370h-40zM235 620l43 -25l-105 -128l-30 16z" />
    <glyph glyph-name="circumflex" unicode="&#x2c6;" 
d="M250 535l-90 -68l-32 25l122 94l122 -94l-32 -25z" />
    <glyph glyph-name="tilde" unicode="&#x2dc;" 
d="M149 487l-25.9971 18.9961c2 6.66699 5 13.5 9 20.5s8.66699 12.833 14 17.5c6 6 13 10.5 21 13.5s16.333 4.83301 25 5.5c6.66699 0 14 -1 22 -3s20.667 -6.66699 38 -14c19.333 -8.66699 32.5 -13.834 39.5 -15.501s13.5 -2.5 19.5 -2.5c6 -0.666992 11 0 15 2
s8 5.33301 12 10c2 2.66699 4.33301 6.33398 7 11.001s5 9.33398 7 14.001l25 -20c-2.66699 -8 -6.33398 -15.5 -11.001 -22.5s-9.66699 -12.833 -15 -17.5c-6.66699 -5.33301 -13.834 -9.5 -21.501 -12.5s-15.5 -4.5 -23.5 -4.5
c-6.66699 -0.666992 -14.167 0.333008 -22.5 3s-20.166 7.33398 -35.499 14.001c-20.667 8 -34.167 13 -40.5 15s-12.5 3 -18.5 3c-6.66699 0 -12.334 -1.16699 -17.001 -3.5s-8.33398 -5.16602 -11.001 -8.49902s-5.16699 -7.16602 -7.5 -11.499s-3.83301 -8.5 -4.5 -12.5z
" />
    <glyph glyph-name="endash" unicode="&#x2013;" 
d="M50 188v38h400v-38h-400z" />
    <glyph glyph-name="emdash" unicode="&#x2014;" horiz-adv-x="700" 
d="M50 188v38h600v-38h-600z" />
    <glyph glyph-name="quoteleft" unicode="&#x2018;" horiz-adv-x="228" 
d="M164 695l-60 -202l-40 12l74 200z" />
    <glyph glyph-name="quoteright" unicode="&#x2019;" horiz-adv-x="254" 
d="M64 503l60 202l40 -12l-74 -200z" />
    <glyph glyph-name="quotesinglbase" unicode="&#x201a;" horiz-adv-x="254" 
d="M64 -137l60 202l40 -12l-74 -200z" />
    <glyph glyph-name="quotedblleft" unicode="&#x201c;" horiz-adv-x="344" 
d="M164 695l-60 -202l-40 12l74 200zM280 695l-60 -202l-40 12l74 200z" />
    <glyph glyph-name="quotedblright" unicode="&#x201d;" horiz-adv-x="370" 
d="M64 503l60 202l40 -12l-74 -200zM180 503l60 202l40 -12l-74 -200z" />
    <glyph glyph-name="quotedblbase" unicode="&#x201e;" horiz-adv-x="370" 
d="M64 -137l60 202l40 -12l-74 -200zM180 -137l60 202l40 -12l-74 -200z" />
    <glyph glyph-name="dagger" unicode="&#x2020;" horiz-adv-x="548" 
d="M252 553v176h44v-176h160v-40h-160v-673h-44v673h-160v40h160z" />
    <glyph glyph-name="daggerdbl" unicode="&#x2021;" horiz-adv-x="548" 
d="M252 553v176h44v-176h160v-40h-160v-378h160v-40h-160v-255h-44v255h-160v40h160v378h-160v40h160z" />
    <glyph glyph-name="bullet" unicode="&#x2022;" horiz-adv-x="668" 
d="M194 340c0 38 13.667 70.834 41 98.501s60.333 41.5 99 41.5c38 0 70.833 -13.833 98.5 -41.5s41.5 -60.5 41.5 -98.5c0 -38.667 -13.833 -71.834 -41.5 -99.501s-60.5 -41.167 -98.5 -40.5c-38.667 0 -71.667 13.667 -99 41s-41 60.333 -41 99z" />
    <glyph glyph-name="bullet" unicode="&#xf000;" horiz-adv-x="668" 
d="M194 340c0 38 13.667 70.834 41 98.501s60.333 41.5 99 41.5c38 0 70.833 -13.833 98.5 -41.5s41.5 -60.5 41.5 -98.5c0 -38.667 -13.833 -71.834 -41.5 -99.501s-60.5 -41.167 -98.5 -40.5c-38.667 0 -71.667 13.667 -99 41s-41 60.333 -41 99z" />
    <glyph glyph-name="ellipsis" unicode="&#x2026;" horiz-adv-x="606" 
d="M64 30c0 10 3.5 18.667 10.5 26s15.833 11 26.5 11c10 0 18.667 -3.66699 26 -11s11 -16 11 -26c0 -10.667 -3.66699 -19.5 -11 -26.5s-16 -10.5 -26 -10.5c-10.667 0 -19.5 3.5 -26.5 10.5s-10.5 15.833 -10.5 26.5zM266 30c0 10 3.5 18.6689 10.5 26.002
s15.833 11 26.5 11c10 0 18.667 -3.66699 26 -11s11 -16 11 -26c-0.666992 -10.667 -4.5 -19.334 -11.5 -26.001s-15.5 -10.334 -25.5 -11.001c-10.667 0 -19.5 3.5 -26.5 10.5s-10.5 15.833 -10.5 26.5zM468 30.002c-0.666992 10 2.66699 18.667 10 26s16.333 11 27 11
c10 0 18.667 -3.66699 26 -11s11 -16 11 -26c0 -10.667 -3.66699 -19.5 -11 -26.5s-16 -10.5 -26 -10.5c-10.667 0 -19.5 3.5 -26.5 10.5s-10.5 15.833 -10.5 26.5z" />
    <glyph glyph-name="perthousand" unicode="&#x2030;" horiz-adv-x="930" 
d="M169 673c40 0 72.333 -12.5 97 -37.5s37.334 -56.167 38.001 -93.5c-0.666992 -38 -13.334 -69.333 -38.001 -94s-57 -37 -97 -37c-40.667 -0.666992 -73.334 11.5 -98.001 36.5s-37 56.5 -37 94.5c0 37.333 12.333 68.5 37 93.5s57.334 37.5 98.001 37.5zM169 447
c27.333 0 50 8.83398 68 26.501s27 40.5 27 68.5c0 27.333 -9 50 -27 68s-40.667 27 -68 27c-28 -0.666992 -50.833 -9.83398 -68.5 -27.501s-26.5 -40.167 -26.5 -67.5c0 -28 8.83301 -50.833 26.5 -68.5s40.5 -26.5 68.5 -26.5zM92 1.00098l394 681l30 -16l-394 -681z
M439 256.001c40 0 72.5 -12.5 97.5 -37.5s37.5 -56.167 37.5 -93.5c0 -38 -12.5 -69.167 -37.5 -93.5s-57.5 -36.833 -97.5 -37.5c-40.667 0 -73.334 12.333 -98.001 37s-37 56 -37 94c0 37.333 12.333 68.5 37 93.5s57.334 37.5 98.001 37.5zM439 30.001
c27.333 0 50 8.83301 68 26.5s27 40.5 27 68.5c0 27.333 -9 50 -27 68s-40.667 27 -68 27c-28 0 -50.833 -9 -68.5 -27s-26.5 -40.667 -26.5 -68c0 -28 8.83301 -50.833 26.5 -68.5s40.5 -26.5 68.5 -26.5zM761 256.001c40 0 72.332 -12.5 96.999 -37.5
s37.334 -56.167 38.001 -93.5c0 -38 -12.5 -69.333 -37.5 -94s-57.5 -37 -97.5 -37c-40.667 0.666992 -73.334 13.167 -98.001 37.5s-37 55.5 -37 93.5c0 37.333 12.333 68.5 37 93.5s57.334 37.5 98.001 37.5zM760.999 30.001c27.333 0 50 8.83301 68 26.5s27 40.5 27 68.5
c0 27.333 -9 50 -27 68s-40.667 27 -68 27c-28 0 -50.833 -9 -68.5 -27s-26.5 -40.667 -26.5 -68c0 -28 8.83301 -50.833 26.5 -68.5s40.5 -26.5 68.5 -26.5z" />
    <glyph glyph-name="guilsinglleft" unicode="&#x2039;" horiz-adv-x="242" 
d="M188 333l-108 -126l108 -126l-26 -24l-130 150l130 150z" />
    <glyph glyph-name="guilsinglright" unicode="&#x203a;" horiz-adv-x="242" 
d="M54 81l108 126l-108 126l26 24l130 -150l-130 -150z" />
    <glyph glyph-name="trademark" unicode="&#x2122;" horiz-adv-x="720" 
d="M226 631h-93v-344h-40v344h-93v36h226v-36zM303 287h-38l45 410l163 -348l164 348l45 -410h-38l-31 277l-140 -299l-140 299z" />
    <glyph glyph-name="periodcentered" unicode="&#x2219;" horiz-adv-x="200" 
d="M52 340c0 13.333 4.5 24.5 13.5 33.5s20.5 13.833 34.5 14.5c13.333 -0.666992 24.666 -5.5 33.999 -14.5s14 -20.167 14 -33.5c0 -14 -4.66699 -25.5 -14 -34.5s-20.666 -13.5 -33.999 -13.5c-14 0 -25.5 4.5 -34.5 13.5s-13.5 20.5 -13.5 34.5z" />
    <glyph glyph-name="fi" unicode="&#xf001;" horiz-adv-x="442" 
d="M214 370h-102.003v-370h-40v370h-46v38h46v163c0 27.333 1.33301 49 4 65s8.66699 30.667 18 44c14 20 30.833 35.167 50.5 45.5s45.167 15.5 76.5 15.5c30.667 0 55.834 -5.16699 75.501 -15.5s36.834 -25.5 51.501 -45.5c8.66699 -13.333 14.334 -28 17.001 -44
s4.33398 -37.667 5.00098 -65v-17h-40v17c-0.666992 24.667 -2.33398 43.167 -5.00098 55.5s-6.66699 23.166 -12 32.499c-9.33301 14 -21.5 24.667 -36.5 32s-33.5 11.333 -55.5 12c-22.667 0 -41.5 -3.83301 -56.5 -11.5s-26.833 -18.5 -35.5 -32.5
c-6 -9.33301 -10.333 -20.166 -13 -32.499s-4 -30.833 -4 -55.5v-163h102v-38zM329.997 408h40v-408h-40v408z" />
    <glyph glyph-name="uniF002" unicode="&#xf002;" horiz-adv-x="442" 
d="M214 370l-102.002 0.000976562v-370h-40v370h-46v38h46v163c0 27.333 1.33301 49 4 65s8.66699 30.667 18 44c14 20 30.833 35.167 50.5 45.5s45.167 15.5 76.5 15.5c30.667 0 55.834 -5.16699 75.501 -15.5s36.834 -25.5 51.501 -45.5
c8.66699 -13.333 14.334 -28 17.001 -44s4.33398 -37.667 5.00098 -65v-571h-40v571c-0.666992 24.667 -2.33398 43.167 -5.00098 55.5s-6.66699 23.166 -12 32.499c-9.33301 14 -21.5 24.833 -36.5 32.5s-33.5 11.5 -55.5 11.5c-21.333 0 -39.833 -3.66699 -55.5 -11
s-27.834 -18.333 -36.501 -33c-7.33301 -11.333 -12.5 -25.333 -15.5 -42s-3.5 -32 -1.5 -46v-163h102v-38z" />
    <glyph glyph-name="glyph1" horiz-adv-x="0" 
 />
    <glyph glyph-name="glyph2" horiz-adv-x="260" 
 />
    <glyph glyph-name="sterling" horiz-adv-x="546" 
d="M131 211l0.00195312 39.999h98c-5.33301 11.333 -10.333 21.5 -15 30.5s-23.334 39.833 -56.001 92.5c-20.667 32 -33.834 57.167 -39.501 75.5s-8.5 36.5 -8.5 54.5c0 47.333 17.167 87.5 51.5 120.5s76.166 49.5 125.499 49.5s90 -16.833 122 -50.5
s48.333 -75.834 49 -126.501h-44c0.666992 41.333 -11.333 74.5 -36 99.5s-54.667 37.5 -90 37.5c-38 0 -69.5 -12.833 -94.5 -38.5s-37.5 -56.5 -37.5 -92.5c0 -14.667 2.5 -29.834 7.5 -45.501s15.167 -35.167 30.5 -58.5l30 -49.5l16 -25.5
c6.66699 -12 12.5 -23.167 17.5 -33.5s10.833 -23.5 17.5 -39.5h121v-40h-112l2 -14c0.666992 -4.66699 1 -10.334 1 -17.001c0 -20.667 -4.66699 -40.167 -14 -58.5s-22 -35.5 -38 -51.5l65 -22c21.333 -8 36.5 -13 45.5 -15s17.833 -2.66699 26.5 -2
c19.333 -0.666992 37.333 5.33301 54 18s30 29.667 40 51l36 -22c-14.667 -28 -33.167 -50.167 -55.5 -66.5s-45.5 -24.5 -69.5 -24.5c-8 0.666992 -17 1.83398 -27 3.50098s-37.333 9.83398 -82 24.501c-30.667 10 -50.667 15.833 -60 17.5
s-17.666 2.83398 -24.999 3.50098c-14.667 0 -29 -3.66699 -43 -11s-30 -19 -48 -35l-24 32c17.333 18.667 36 32.834 56 42.501s41 14.5 63 14.5c16.667 14.667 30.167 31 40.5 49s15.5 37 15.5 57c0 4.66699 -0.333008 9 -1 13s-1.66699 8.33301 -3 13h-108z" />
    <glyph glyph-name="NotEqual" 
d="M33 381v38h243l55 117h36l-55 -117h155v-38h-173l-49 -104h222v-38h-240l-58 -123h-36l58 123h-158v38h176l49 104h-225z" />
    <glyph glyph-name="glyph144" 
d="M316 854l50 -25l-134 -126l-32 18z" />
    <glyph glyph-name="glyph147" 
d="M305 620l43 -25l-105 -128l-30 16z" />
    <glyph glyph-name="infinity" horiz-adv-x="667" 
d="M334 312c-20.667 -38 -46.333 -67.6689 -77 -89.002s-61.667 -31.666 -93 -30.999c-42 0 -76.5 14 -103.5 42s-40.5 64 -40.5 108c0 42 13.667 76.833 41 104.5s62 41.5 104 41.5c33.333 -0.666992 65 -12.167 95 -34.5s54.333 -50.5 73 -84.5c19.333 36 44 64.667 74 86
s62.333 32.333 97 33c42 0 76.333 -13.833 103 -41.5s40 -63.167 40 -106.5c0 -44 -13.333 -79.667 -40 -107s-61 -41 -103 -41c-34 0 -66 10.833 -96 32.5s-54.667 50.834 -74 87.501zM354.001 340.998c16 -32.667 37.502 -59.668 64.502 -81.001s54.833 -32 83.5 -32
c31.333 0 56.666 10.667 75.999 32s29 48 29 80c0 32.667 -10 59.334 -30 80.001s-45.333 31.334 -76 32.001c-26.667 0 -51.834 -8.83301 -75.501 -26.5s-47.5 -45.834 -71.5 -84.501zM313.003 339.997c-20 36 -43.168 63.5 -69.501 82.5s-52.5 28.833 -78.5 29.5
c-31.333 0 -56.666 -10.5 -75.999 -31.5s-29 -47.5 -29 -79.5c0 -34 9.83301 -61.333 29.5 -82s45.167 -31 76.5 -31c25.333 -0.666992 50 7.83301 74 25.5s48.333 46.5 73 86.5z" />
    <glyph glyph-name="lessequal" 
d="M33 378l434 192v-41l-390 -170l390 -170v-41l-434 192v38zM33 118h434v-38h-434v38z" />
    <glyph glyph-name="greaterequal" 
d="M467 340l-434 -192v41l390 170l-390 170v41l434 -192v-38zM33 118h434v-38h-434v38z" />
    <glyph glyph-name="radical" horiz-adv-x="668" 
d="M427 827h241v-38h-208l-244 -789h-43l-96 315h-77v38h109l84 -286h3z" />
    <glyph glyph-name="florin" horiz-adv-x="546" 
d="M184 391l6.99902 38.001h62l38 200c8 42.667 20.167 72 36.5 88s39.833 24 70.5 24c10.667 0 19.834 -1.16699 27.501 -3.5s17.167 -5.83301 28.5 -10.5l-8 -36c-8.66699 4 -16.667 7 -24 9s-15.333 3 -24 3c-18 0 -32.5 -4.83301 -43.5 -14.5s-18.167 -24.5 -21.5 -44.5
l-40 -215h101l-7 -38h-101l-65 -348c-7.33301 -36.667 -14.166 -64.834 -20.499 -84.501s-13.833 -35.167 -22.5 -46.5c-10 -11.333 -21.333 -20 -34 -26s-28 -9 -46 -9c-13.333 0 -25.333 1.16699 -36 3.5s-21.334 5.83301 -32.001 10.5l8 37
c9.33301 -4 19 -7.16699 29 -9.5s20 -3.5 30 -3.5c22 0 38.333 7 49 21s20 40.667 28 80l72 375h-62z" />
    <glyph glyph-name="approxequal" 
d="M39 342l-27.001 16c6 12 13.167 24 21.5 36s16.833 22.333 25.5 31c11.333 11.333 24 20 38 26s29.667 9 47 9c11.333 0 24.333 -2.33301 39 -7s39.334 -15.667 74.001 -33c28.667 -15.333 50 -25.5 64 -30.5s27 -7.16699 39 -6.5c12.667 0 24.167 2 34.5 6
s20.5 11 30.5 21c6 6 12.167 13.5 18.5 22.5s12.166 18.5 17.499 28.5l27 -16c-5.33301 -10.667 -11.333 -21.167 -18 -31.5s-13.667 -19.166 -21 -26.499c-14 -14.667 -28.833 -25.334 -44.5 -32.001s-32.5 -10 -50.5 -10c-16.667 0 -35.5 3.83301 -56.5 11.5
s-47.167 20.5 -78.5 38.5c-22 11.333 -38 18.5 -48 21.5s-20 4.83301 -30 5.5c-12.667 -0.666992 -24.167 -3 -34.5 -7s-20.166 -10.333 -29.499 -19c-8 -7.33301 -15.333 -15.833 -22 -25.5s-12 -19.167 -16 -28.5zM38.999 195l-27.001 16.001c6 12 13.167 24 21.5 36
s16.833 22.333 25.5 31c11.333 11.333 24 20 38 26s29.667 9 47 9c11.333 0 24.333 -2.33301 39 -7s39.334 -15.667 74.001 -33c28.667 -15.333 50 -25.333 64 -30s27 -7 39 -7c12.667 0 24.167 2 34.5 6s20.5 11 30.5 21c6 6 12.167 13.5 18.5 22.5
s12.166 18.5 17.499 28.5l27 -16c-5.33301 -10.667 -11.333 -21.167 -18 -31.5s-13.667 -19.166 -21 -26.499c-14 -14.667 -28.833 -25.334 -44.5 -32.001s-32.5 -10 -50.5 -10c-16.667 0 -35.5 3.83301 -56.5 11.5s-47.167 20.5 -78.5 38.5
c-22 11.333 -38 18.666 -48 21.999s-20 5 -30 5c-12.667 0 -24.167 -2.16699 -34.5 -6.5s-20.166 -10.833 -29.499 -19.5c-8 -7.33301 -15.333 -15.833 -22 -25.5s-12 -19.167 -16 -28.5z" />
    <glyph glyph-name="Delta" horiz-adv-x="628" 
d="M614 0h-600l280 667h40zM314 603l-234 -563h468z" />
    <glyph glyph-name="divide" 
d="M215 518c-0.666992 9.33301 2.5 17.5 9.5 24.5s15.5 10.5 25.5 10.5c9.33301 0 17.5 -3.5 24.5 -10.5s10.5 -15.167 10.5 -24.5c0 -10 -3.5 -18.333 -10.5 -25s-15.167 -10 -24.5 -10c-10 0 -18.333 3.33301 -25 10s-10 15 -10 25zM215 140
c0 9.33301 3.33301 17.5 10 24.5s15 10.5 25 10.5c9.33301 0 17.5 -3.5 24.5 -10.5s10.5 -15.167 10.5 -24.5c0 -10 -3.5 -18.333 -10.5 -25s-15.167 -10 -24.5 -10c-10 0 -18.333 3.33301 -25 10s-10 15 -10 25zM33 310v38h434v-38h-434z" />
    <glyph glyph-name="glyph188" 
d="M110 803l35 19c9.33301 -21.333 23 -37.333 41 -48s39.333 -16 64 -16c24 0 45 5.33301 63 16s32 26.667 42 48l35 -19c-12.667 -28.667 -31.667 -50 -57 -64s-53 -21 -83 -21c-30.667 0 -58.667 7 -84 21s-44 35.333 -56 64z" />
    <glyph glyph-name="glyph191" 
d="M120 573l33.999 17c5.33301 -21.333 16.333 -38.833 33 -52.5s37.667 -20.5 63 -20.5c24.667 0 45.334 6.83301 62.001 20.5s28 31.167 34 52.5l34 -17c-10 -31.333 -26.333 -54.833 -49 -70.5s-49.667 -23.5 -81 -23.5c-32 0 -59.333 7.83301 -82 23.5
s-38.667 39.167 -48 70.5z" />
    </font>
</defs>
</svg>
