<?xml version="1.0" standalone="no"?>
<!DOCTYPE svg PUBLIC "-//W3C//DTD SVG 1.1//EN" "http://www.w3.org/Graphics/SVG/1.1/DTD/svg11.dtd" >
<svg>
<metadata>
Created by FontForge 20090914 at Tue Jun  4 09:58:05 2019
 By www-data
(c)Copyright ParaGraph International, 1992.
</metadata>
<defs>
<font id="FuturaMediumC" horiz-adv-x="500" >
  <font-face 
    font-family="FuturaMediumCTT"
    font-weight="400"
    font-stretch="normal"
    units-per-em="1000"
    panose-1="0 0 0 0 0 0 0 0 0 0"
    ascent="800"
    descent="-200"
    x-height="421"
    cap-height="667"
    bbox="-17.999 -250 1167 906"
    underline-thickness="40"
    underline-position="-60"
    unicode-range="U+0020-U+F002"
  />
<missing-glyph horiz-adv-x="450" 
d="M50 0v512h400v-512h-400zM58 8h384v496h-384v-496z" />
    <glyph glyph-name=".notdef" horiz-adv-x="450" 
d="M50 0v512h400v-512h-400zM58 8h384v496h-384v-496z" />
    <glyph glyph-name="space" unicode=" " horiz-adv-x="233" 
 />
    <glyph glyph-name="space" unicode="&#x45d;" horiz-adv-x="233" 
 />
    <glyph glyph-name="space" unicode="&#x40d;" horiz-adv-x="233" 
 />
    <glyph glyph-name="space" unicode="&#xa0;" horiz-adv-x="233" 
 />
    <glyph glyph-name="exclam" unicode="!" horiz-adv-x="252" 
d="M175 149h-98v518h98v-518zM66 48c0 16 5.83301 30 17.5 42s25.834 18 42.501 18c16 0 30 -6 42 -18s18 -26 18 -42c0 -16.667 -6 -30.834 -18 -42.501s-26 -17.5 -42 -17.5c-16.667 0 -30.834 5.83301 -42.501 17.5s-17.5 25.834 -17.5 42.501z" />
    <glyph glyph-name="quotedbl" unicode="&#x22;" horiz-adv-x="366" 
d="M156 667l-18 -268h-72l-18 268h108zM318 667l-18 -268h-72l-18 268h108z" />
    <glyph glyph-name="numbersign" unicode="#" horiz-adv-x="600" 
d="M407 0h-98l31 196h-114l-31 -196h-98l31 196h-108l14 88h108l18 112h-108l14 88h108l29 183h98l-29 -183h114l29 183h98l-29 -183h108l-14 -88h-108l-18 -112h108l-14 -88h-108zM354 284l18 112h-114l-18 -112h114z" />
    <glyph glyph-name="dollar" unicode="$" horiz-adv-x="568" 
d="M476 567l-81.999 -48c-3.33301 8.66699 -7.66602 16.334 -12.999 23.001s-11 13 -17 19c-10.667 8 -21.834 14 -33.501 18s-24.5 6 -38.5 6c-30 0 -53.167 -7.66699 -69.5 -23s-24.5 -34.333 -24.5 -57c0 -18 6 -33.667 18 -47s30 -24.666 54 -33.999l67 -27
c52 -21.333 91 -47.833 117 -79.5s39.333 -70.5 40 -116.5c-0.666992 -54.667 -16.5 -101.167 -47.5 -139.5s-71.167 -61.833 -120.5 -70.5v-91h-74v88c-25.333 2.66699 -48.666 9 -69.999 19s-41.333 25.667 -60 47c-17.333 18.667 -30.5 39 -39.5 61s-14.5 45 -16.5 69
l101 22c0 -16.667 2.5 -32.334 7.5 -47.001s11.833 -27.334 20.5 -38.001c9.33301 -12.667 21.166 -22.5 35.499 -29.5s31.5 -10.5 51.5 -10.5c31.333 0 57.5 10.333 78.5 31s31.5 47.667 31.5 81c-0.666992 24.667 -8 46 -22 64s-38.667 34.667 -74 50l-64 27
c-47.333 19.333 -81.833 43.166 -103.5 71.499s-32.5 60.833 -32.5 97.5c0 44 14.667 82.167 44 114.5s66.666 51.833 111.999 58.5v85h74v-84c20.667 -3.33301 39 -8.5 55 -15.5s30.667 -16.167 44 -27.5c9.33301 -8.66699 18.5 -18.667 27.5 -30
s16.833 -23.666 23.5 -36.999z" />
    <glyph glyph-name="percent" unicode="%" horiz-adv-x="810" 
d="M194 673c43.333 0 81 -15.5 113 -46.5s48 -67.833 48 -110.5s-15.833 -79.5 -47.5 -110.5s-69.5 -46.5 -113.5 -46.5c-44.667 0 -82.667 15.5 -114 46.5s-47 67.833 -47 110.5s15.833 79.5 47.5 110.5s69.5 46.5 113.5 46.5zM194 431
c22.667 -0.666992 42 7.16602 58 23.499s24.333 36.833 25 61.5c0 24 -8.16699 44.167 -24.5 60.5s-35.833 24.5 -58.5 24.5c-23.333 0 -43 -8.16699 -59 -24.5s-24 -36.5 -24 -60.5c0 -24.667 8 -45.167 24 -61.5s35.667 -24.166 59 -23.499zM191 18l381 660l47 -27
l-381 -662zM616 307c43.333 0 81 -15.502 113 -46.502s48 -67.833 48 -110.5c-0.666992 -42.667 -16.667 -79.5 -48 -110.5s-69 -46.5 -113 -46.5c-44.667 0 -82.667 15.5 -114 46.5s-47 67.833 -47 110.5s15.833 79.334 47.5 110.001s69.5 46.334 113.5 47.001zM616 64.998
c22.667 0 42 8 58 24s24.333 36.333 25 61c0 24 -8.16699 44 -24.5 60s-35.833 24.333 -58.5 25c-23.333 0 -43 -8.16699 -59 -24.5s-24 -36.5 -24 -60.5c0 -24.667 8 -45 24 -61s35.667 -24 59 -24z" />
    <glyph glyph-name="ampersand" unicode="&#x26;" horiz-adv-x="646" 
d="M537 313l65.001 -68.001l-79 -91l123 -154h-124l-66 82c-8.66699 -8.66699 -17.834 -17.334 -27.501 -26.001s-19.167 -16.334 -28.5 -23.001c-24 -17.333 -47.667 -29.333 -71 -36s-48.333 -10 -75 -10c-61.333 0 -110 17.833 -146 53.5s-54 81.5 -54 137.5
c0 36 7.5 67.333 22.5 94s39.5 52.667 73.5 78c6 4.66699 13.833 10.334 23.5 17.001l29.5 20c-22 21.333 -38.5 43.833 -49.5 67.5s-16.5 47.167 -16.5 70.5c0 46.667 14.667 84 44 112s67.333 42 114 42c44.667 0 82.5 -13.333 113.5 -40s46.5 -61.334 46.5 -104.001
c0 -16 -2.33301 -31.167 -7 -45.5s-12 -28.166 -22 -41.499c-8.66699 -11.333 -19.5 -23.166 -32.5 -35.499s-29.833 -26.166 -50.5 -41.499l118 -144zM395.001 153.999l-132 160.001c-14 -8 -27.667 -17 -41 -27s-24 -19.333 -32 -28c-12 -12.667 -21 -26.334 -27 -41.001
s-9 -29.334 -9 -44.001c0 -28 9.66699 -51.833 29 -71.5s44.333 -29.5 75 -29.5c12.667 -0.666992 25.167 1.33301 37.5 6s24.833 11.334 37.5 20.001c8 5.33301 17.833 13.333 29.5 24zM284.001 442l37.001 27c12 8.66699 21.667 18.667 29 30s11 23.333 11 36
c0 18 -6.16699 32.5 -18.5 43.5s-28.166 16.5 -47.499 16.5c-20.667 0 -36.5 -5.5 -47.5 -16.5s-16.5 -25.167 -16.5 -42.5c-0.666992 -10 1.16602 -20.167 5.49902 -30.5s10.166 -19.5 17.499 -27.5z" />
    <glyph glyph-name="quotesingle" unicode="'" horiz-adv-x="204" 
d="M156 667l-18 -268h-72l-18 268h108z" />
    <glyph glyph-name="parenleft" unicode="(" horiz-adv-x="324" 
d="M264 -150l-90.002 -34.999c-14 29.333 -26 58.333 -36 87s-18.667 58.667 -26 90c-10.667 43.333 -18.667 89.833 -24 139.5s-8 97.834 -8 144.501c0 46 2.66699 93.833 8 143.5s13.333 96.5 24 140.5c7.33301 31.333 16 61.333 26 90s22 57.667 36 87l90 -35
c-11.333 -24.667 -22 -51.334 -32 -80.001s-17.667 -55 -23 -79c-9.33301 -36.667 -16.666 -79.5 -21.999 -128.5s-7.66602 -95.167 -6.99902 -138.5c0 -44 2.5 -90.5 7.5 -139.5s12.167 -91.5 21.5 -127.5c5.33301 -24 13 -50.333 23 -79s20.667 -55.334 32 -80.001z" />
    <glyph glyph-name="parenright" unicode=")" horiz-adv-x="324" 
d="M60 702l90 34.999c13.333 -29.333 25 -58.333 35 -87s19 -58.667 27 -90c10 -44 17.667 -90.833 23 -140.5s8.33301 -97.5 9 -143.5c-0.666992 -46.667 -3.66699 -94.834 -9 -144.501s-13 -96.167 -23 -139.5c-8 -31.333 -17 -61.333 -27 -90s-21.667 -57.667 -35 -87
l-90 35c10.667 24.667 21 51.334 31 80.001s18 55 24 79c8.66699 36 15.667 78.5 21 127.5s8 95.5 8 139.5c0 43.333 -2.66699 89.5 -8 138.5s-12.333 91.833 -21 128.5c-6 24 -14 50.333 -24 79s-20.333 55.334 -31 80.001z" />
    <glyph glyph-name="asterisk" unicode="*" horiz-adv-x="568" 
d="M138 655l109 -42l-7 116h88l-7 -116l109 42l27 -82l-113 -30l74 -91l-70 -50l-64 98l-64 -98l-70 50l74 91l-113 30z" />
    <glyph glyph-name="plus" unicode="+" 
d="M33 291v90h170v170h94v-170h170v-90h-170v-170h-94v170h-170z" />
    <glyph glyph-name="comma" unicode="," horiz-adv-x="320" 
d="M10 -129l102 254l88 -34l-124 -247z" />
    <glyph glyph-name="hyphen" unicode="-" horiz-adv-x="320" 
d="M40 162v102h240v-102h-240z" />
    <glyph glyph-name="hyphen" unicode="&#xad;" horiz-adv-x="320" 
d="M40 162v102h240v-102h-240z" />
    <glyph glyph-name="period" unicode="." horiz-adv-x="252" 
d="M66 48c0 16 5.83301 30 17.5 42s25.834 18 42.501 18c16 0 30 -6 42 -18s18 -26 18 -42c0 -16.667 -6 -30.834 -18 -42.501s-26 -17.5 -42 -17.5c-16.667 0 -30.834 5.83301 -42.501 17.5s-17.5 25.834 -17.5 42.501z" />
    <glyph glyph-name="slash" unicode="/" horiz-adv-x="540" 
d="M0 -147l382 884l80 -36l-382 -884z" />
    <glyph glyph-name="zero" unicode="0" horiz-adv-x="568" 
d="M284 -11c-30 0 -57.5 5.83203 -82.5 17.499s-47.833 29.834 -68.5 54.501c-29.333 32.667 -51 71.667 -65 117s-20.667 97 -20 155c0 56.667 6.83301 108 20.5 154s35.167 85.667 64.5 119c20.667 24 43.5 42 68.5 54s52.5 18 82.5 18c29.333 0 56.5 -6 81.5 -18
s48.167 -30 69.5 -54c28.667 -33.333 50 -73 64 -119s21 -97.333 21 -154c0 -58 -7 -109.667 -21 -155s-35.333 -84.333 -64 -117c-21.333 -24.667 -44.5 -42.667 -69.5 -54s-52.167 -17.333 -81.5 -18zM284 587.999c-17.333 0 -33.666 -4.66699 -48.999 -14
s-29 -23 -41 -41c-15.333 -23.333 -26.833 -52.5 -34.5 -87.5s-11.5 -72.167 -11.5 -111.5c0 -40.667 3.83301 -78.5 11.5 -113.5s19.167 -63.833 34.5 -86.5c12 -18.667 25.667 -32.5 41 -41.5s31.666 -13.5 48.999 -13.5c16.667 0 32.667 4.5 48 13.5
s29.333 22.833 42 41.5c14.667 22.667 26 51.5 34 86.5s12 72.833 12 113.5c0 39.333 -4 76.5 -12 111.5s-19.333 64.167 -34 87.5c-12.667 18 -26.667 31.667 -42 41s-31.333 14 -48 14z" />
    <glyph glyph-name="one" unicode="1" horiz-adv-x="568" 
d="M250 0v573h-116l56 94h162v-667h-102z" />
    <glyph glyph-name="two" unicode="2" horiz-adv-x="568" 
d="M482 94l0.000976562 -93.999h-448l231 280l45 56.5c14 18.333 25.667 34.166 35 47.499c12 18 20.833 34.333 26.5 49s8.5 30.334 8.5 47.001c0 29.333 -9.83301 54.666 -29.5 75.999s-46.834 32 -81.501 32c-32 0 -59.167 -10.833 -81.5 -32.5
s-34.5 -51.167 -36.5 -88.5h-98c0.666992 26.667 6 53 16 79s23.333 48.333 40 67c19.333 22 42.5 38.333 69.5 49s55.833 16 86.5 16c67.333 0 119.833 -19.667 157.5 -59s56.834 -86.666 57.501 -141.999c0 -23.333 -3.83301 -46.333 -11.5 -69
s-19.834 -46.334 -36.501 -71.001c-9.33301 -13.333 -20 -27.833 -32 -43.5s-33 -41.167 -63 -76.5l-104 -123h249z" />
    <glyph glyph-name="three" unicode="3" horiz-adv-x="568" 
d="M166 497l-98.001 0.000976562c0 17.333 2.83301 35.166 8.5 53.499s13.834 35.166 24.501 50.499c16 24.667 38.167 43.667 66.5 57s60.833 20 97.5 20c59.333 0 107.166 -17 143.499 -51s54.5 -78.333 54.5 -133c0 -30.667 -6.33301 -58.167 -19 -82.5
s-30.667 -44.166 -54 -59.499c27.333 -14.667 48.166 -35.167 62.499 -61.5s21.5 -56.833 21.5 -91.5c-0.666992 -61.333 -19.167 -111.666 -55.5 -150.999s-89.166 -59 -158.499 -59c-51.333 0 -93.166 10.5 -125.499 31.5s-55.833 50.167 -70.5 87.5
c-5.33301 11.333 -9.33301 23.166 -12 35.499s-4 24.833 -4 37.5h98c3.33301 -32 15.5 -57 36.5 -75s47.167 -27 78.5 -27c34 0 61.667 10.833 83 32.5s32 51.5 32 89.5c0 34.667 -11 61.5 -33 80.5s-49.667 28.5 -83 28.5h-20v86h20c34 0 60 7.66699 78 23s27 38 27 68
c0 32 -9.5 56.667 -28.5 74s-43.5 26.333 -73.5 27c-27.333 0 -49.833 -8.16699 -67.5 -24.5s-27.5 -38.5 -29.5 -66.5z" />
    <glyph glyph-name="four" unicode="4" horiz-adv-x="568" 
d="M448 716v-527h72v-94h-72v-95h-98v95h-330zM200 189h150v222z" />
    <glyph glyph-name="five" unicode="5" horiz-adv-x="568" 
d="M477 667v-94h-206l-33 -111c5.33301 0.666992 10.166 1.16699 14.499 1.5s8.83301 0.5 13.5 0.5c27.333 0 53.5 -4.33301 78.5 -13s47.5 -21 67.5 -37c24 -21.333 42.667 -47.333 56 -78s20 -64.334 20 -101.001c-0.666992 -75.333 -24.167 -135.166 -70.5 -179.499
s-106.166 -66.5 -179.499 -66.5c-45.333 0 -85.833 10.167 -121.5 30.5s-65.167 51.833 -88.5 94.5l77 64c13.333 -32 32 -56.5 56 -73.5s52.333 -25.5 85 -25.5c44 -0.666992 78.667 13.333 104 42s38 64.667 38 108c0 42 -12.5 76.667 -37.5 104s-59.5 41 -103.5 41
c-25.333 0 -47.833 -4.83301 -67.5 -14.5s-36.167 -24.167 -49.5 -43.5h-33l104 351h276z" />
    <glyph glyph-name="six" unicode="6" horiz-adv-x="568" 
d="M358 690l74.001 -55.001l-159 -217c5.33301 0.666992 11 1.33398 17 2.00098s12.333 1 19 1c57.333 0 104.666 -19.667 141.999 -59s56.333 -89.666 57 -150.999c0 -64.667 -20.167 -117.667 -60.5 -159s-94.166 -62.333 -161.499 -63c-64.667 0 -118.5 19.667 -161.5 59
s-64.5 91.333 -64.5 156c0 25.333 4.66699 51.166 14 77.499s26.666 56.833 51.999 91.5zM282.001 332.999c-35.333 0 -64.498 -12 -87.498 -36s-34.5 -54.333 -34.5 -91c0 -37.333 11.667 -68 35 -92s53 -35.667 89 -35c35.333 0 64.666 11.833 87.999 35.5
s35.333 54.167 36 91.5c0 36.667 -11.833 67 -35.5 91s-53.834 36 -90.501 36z" />
    <glyph glyph-name="seven" unicode="7" horiz-adv-x="568" 
d="M50 27l332 546h-328v94h496l-420 -690z" />
    <glyph glyph-name="eight" unicode="8" horiz-adv-x="568" 
d="M404 347c26.667 -14 48.167 -34.166 64.5 -60.499s24.833 -58.5 25.5 -96.5c0 -62 -20.667 -110.833 -62 -146.5s-90.666 -53.834 -147.999 -54.501c-58 0 -107.5 18 -148.5 54s-61.5 85 -61.5 147c0 38 8.16699 70.167 24.5 96.5s38.166 46.5 65.499 60.5
c-24.667 16.667 -43 37 -55 61s-18 50.667 -18 80c0 57.333 18.5 103.333 55.5 138s82.833 52 137.5 52c54 0 99.667 -17.333 137 -52s56 -80.667 56 -138c0 -29.333 -6.16699 -56 -18.5 -80s-30.5 -44.333 -54.5 -61zM284 387.001c28.667 0 52.667 9.16699 72 27.5
s29 42.5 29 72.5c0 29.333 -9.5 53.5 -28.5 72.5s-43.167 28.5 -72.5 28.5c-30 0 -54.333 -9.5 -73 -28.5s-28 -43.167 -28 -72.5c0 -30 9.5 -54.167 28.5 -72.5s43.167 -27.5 72.5 -27.5zM284 79.001c32 0 58.333 10.5 79 31.5s31 48.167 31 81.5
c-0.666992 31.333 -11.167 57.666 -31.5 78.999s-46.5 32 -78.5 32c-32.667 0 -59.167 -10.667 -79.5 -32s-30.5 -47.666 -30.5 -78.999c0 -33.333 10.167 -60.5 30.5 -81.5s46.833 -31.5 79.5 -31.5z" />
    <glyph glyph-name="nine" unicode="9" horiz-adv-x="568" 
d="M210 -23l-73.998 55.001l159 217c-6 -1.33301 -11.5 -2.16602 -16.5 -2.49902s-9.83301 -0.5 -14.5 -0.5c-58.667 0 -107.334 20.167 -146.001 60.5s-58 90.166 -58 149.499c0 63.333 20.167 116.166 60.5 158.499s94.166 63.5 161.499 63.5
c64 0 117.667 -19.833 161 -59.5s65 -91.5 65 -155.5c-0.666992 -26 -5.66699 -52.167 -15 -78.5s-26.333 -56.5 -51 -90.5zM286.002 334.001c34.667 0 63.668 11.833 87.001 35.5s35 54.167 35 91.5c0 36.667 -11.833 67 -35.5 91s-53.167 36 -88.5 36
c-36 0 -65.667 -12 -89 -36s-35 -54.333 -35 -91c0 -37.333 11.667 -67.833 35 -91.5s53.666 -35.5 90.999 -35.5z" />
    <glyph glyph-name="colon" unicode=":" horiz-adv-x="252" 
d="M66 372c0 16 5.83301 30.001 17.5 42.001s25.834 18 42.501 18c16 -0.666992 30 -6.83398 42 -18.501s18 -25.5 18 -41.5c0 -16.667 -6 -30.834 -18 -42.501s-26 -17.5 -42 -17.5c-16.667 0 -30.834 5.83301 -42.501 17.5s-17.5 25.834 -17.5 42.501zM66 48.001
c0 16 5.83301 30 17.5 42s25.834 18 42.501 18c16 0 30 -6 42 -18s18 -26 18 -42c0 -16.667 -6 -30.834 -18 -42.501s-26 -17.5 -42 -17.5c-16.667 0 -30.834 5.83301 -42.501 17.5s-17.5 25.834 -17.5 42.501z" />
    <glyph glyph-name="semicolon" unicode=";" horiz-adv-x="320" 
d="M90 372c0 16 5.83398 29.832 17.501 41.499s25.834 17.834 42.501 18.501c16 0 30 -6 42 -18s18 -26 18 -42c-0.666992 -16.667 -6.83398 -30.834 -18.501 -42.501s-25.5 -17.5 -41.5 -17.5c-16.667 0 -30.834 5.83301 -42.501 17.5s-17.5 25.834 -17.5 42.501z
M10.001 -129.001l102 254l88 -34l-124 -247z" />
    <glyph glyph-name="less" unicode="&#x3c;" 
d="M137 332l330 -156v-96l-434 211v82l434 211v-96z" />
    <glyph glyph-name="equal" unicode="=" 
d="M33 380v84h434v-84h-434zM33 218v84h434v-84h-434z" />
    <glyph glyph-name="greater" unicode="&#x3e;" 
d="M363 332l-330 156v96l434 -211v-82l-434 -211v96z" />
    <glyph glyph-name="question" unicode="?" horiz-adv-x="434" 
d="M158 482l-102.002 0.000976562c-1.33301 9.33301 -2 16.666 -2 21.999v12c0 49.333 15.333 88.333 46 117s69.667 43 117 43s86.166 -14.167 116.499 -42.5s45.833 -67.5 46.5 -117.5c-0.666992 -26.667 -5.5 -49.5 -14.5 -68.5s-23.833 -35.833 -44.5 -50.5
c-10.667 -8 -22.167 -15 -34.5 -21s-34.166 -14.667 -65.499 -26c-20.667 -8 -35 -16.333 -43 -25s-12 -19.667 -12 -33c0 -15.333 4.66699 -27.333 14 -36s21.333 -13 36 -13c10 -0.666992 18.333 1.16602 25 5.49902s12.334 10.5 17.001 18.5
c3.33301 6 5.83301 12.833 7.5 20.5s2.16699 15.5 1.5 23.5h98c-0.666992 -20 -3.16699 -37.667 -7.5 -53s-10.5 -29 -18.5 -41c-14.667 -21.333 -33.167 -37.333 -55.5 -48s-45.5 -16 -69.5 -16c-40.667 0 -75.667 13 -105 39s-43.666 62.333 -42.999 109
c0 30.667 8.16699 56.5 24.5 77.5s47.833 40.5 94.5 58.5c34 12.667 53.667 20.334 59 23.001s10 6 14 10c6.66699 6 12 13.167 16 21.5s6 17.833 6 28.5c0 20 -5.83301 36 -17.5 48s-26.834 18 -45.501 18c-19.333 0 -34.666 -6.16699 -45.999 -18.5s-17 -29.833 -17 -52.5
c0 -4.66699 0.333008 -10 1 -16s1.66699 -11.667 3 -17zM157.998 48.001c0 16 5.83398 30 17.501 42s25.834 18 42.501 18c16 0 30 -6 42 -18s18 -26 18 -42c-0.666992 -16.667 -6.83398 -30.834 -18.501 -42.501s-25.5 -17.5 -41.5 -17.5
c-16.667 0 -30.834 5.83301 -42.501 17.5s-17.5 25.834 -17.5 42.501z" />
    <glyph glyph-name="at" unicode="@" horiz-adv-x="732" 
d="M474 439l9.99902 52.002h68l-39 -201c-3.33301 -15.333 -5.16602 -25.666 -5.49902 -30.999s-0.5 -10 -0.5 -14c0 -12.667 3 -22.5 9 -29.5s13.667 -10.5 23 -10.5s19.666 3.83301 30.999 11.5s21 17.167 29 28.5c9.33301 14 17.5 34.167 24.5 60.5
s10.5 51.166 10.5 74.499c0 69.333 -23.5 126.166 -70.5 170.499s-106.5 66.5 -178.5 66.5c-81.333 0 -149.666 -27.833 -204.999 -83.5s-82.666 -124.167 -81.999 -205.5c0 -58.667 15.333 -111.667 46 -159s72.667 -81 126 -101c17.333 -7.33301 35.5 -12.5 54.5 -15.5
s38.833 -4.5 59.5 -4.5c32.667 -0.666992 66.834 2.5 102.501 9.5s69.167 17.5 100.5 31.5l17 -62c-30.667 -12.667 -64.334 -22.334 -101.001 -29.001s-74.667 -10 -114 -10c-48 0 -92.333 6.5 -133 19.5s-77 33.5 -109 61.5c-34.667 29.333 -62.167 65.833 -82.5 109.5
s-30.5 93.834 -30.5 150.501c0 100 33 183 99 249s149 99 249 99c90 0 165.167 -26.833 225.5 -80.5s90.5 -125.5 90.5 -215.5c-0.666992 -34 -5.33398 -66.167 -14.001 -96.5s-20 -54.833 -34 -73.5s-31.333 -33.834 -52 -45.501s-41.667 -17.5 -63 -17.5
s-38.5 5.66699 -51.5 17s-21.167 26.333 -24.5 45c-14 -21.333 -32 -38 -54 -50s-45.333 -18 -70 -18c-40 0 -73.667 14 -101 42s-40.666 67.333 -39.999 118c0 56 16.5 103.5 49.5 142.5s74.833 58.5 125.5 58.5c23.333 0 44.166 -5.5 62.499 -16.5
s32.5 -26.833 42.5 -47.5zM344.999 212.002c28 -0.666992 53 11.667 75 37s33 58 33 98c0 25.333 -6.83301 46 -20.5 62s-32.167 24 -55.5 24c-29.333 0 -54.333 -11.833 -75 -35.5s-31 -55.167 -31 -94.5c0 -30 7 -52.667 21 -68s31.667 -23 53 -23z" />
    <glyph glyph-name="A" unicode="A" horiz-adv-x="656" 
d="M542 0l-70 161h-285l-73 -161h-110l332 706l316 -706h-110zM229 257h202l-99 226z" />
    <glyph glyph-name="B" unicode="B" horiz-adv-x="526" 
d="M80 667l101 -0.00195312c41.333 0 73.666 -2.66699 96.999 -8s44.333 -14.333 63 -27c26 -18.667 45.333 -40.667 58 -66s19 -53.666 19 -84.999c0 -27.333 -5 -51.166 -15 -71.499s-23.667 -37.166 -41 -50.499c36.667 -11.333 65.167 -31.333 85.5 -60
s30.5 -60.334 30.5 -95.001c0 -34 -5.66699 -64.167 -17 -90.5s-28 -48.5 -50 -66.5c-20.667 -16.667 -43.167 -28.667 -67.5 -36s-61.166 -11 -110.499 -11h-153v667zM182 570.998v-191h31c37.333 -0.666992 64.666 7.83301 81.999 25.5s26.333 41.834 27 72.501
c0 29.333 -8.66699 52.166 -26 68.499s-43.666 24.5 -78.999 24.5h-35zM182 295.998v-200.001h62c46 0 79.833 8.83301 101.5 26.5s32.5 41.834 32.5 72.501c0 32 -11 56.833 -33 74.5s-55 26.5 -99 26.5h-64z" />
    <glyph glyph-name="C" unicode="C" horiz-adv-x="620" 
d="M574 631l-0.00292969 -120.003c-26.667 24 -55 42.333 -85 55s-62 19 -96 19c-72 0 -130.667 -24 -176 -72s-67.666 -108.667 -66.999 -182c0 -71.333 22.833 -130.833 68.5 -178.5s104.167 -71.5 175.5 -71.5c32.667 -0.666992 64.334 5.83301 95.001 19.5
s59 32.834 85 57.501v-121c-28 -16.667 -57.833 -29.167 -89.5 -37.5s-62.834 -12.5 -93.501 -12.5c-44 0 -86.167 7.5 -126.5 22.5s-76.833 38.167 -109.5 69.5c-38 35.333 -65.5 73.833 -82.5 115.5s-25.167 87.167 -24.5 136.5c0 51.333 9 99.333 27 144
s44.667 83.667 80 117c32.667 30.667 68.834 52.834 108.501 66.501s83.834 20.5 132.501 20.5c36 0 68.333 -4.16699 97 -12.5s55.667 -20.166 81 -35.499z" />
    <glyph glyph-name="D" unicode="D" horiz-adv-x="644" 
d="M80 667l139.999 0.000976562c58 0 106 -5.16699 144 -15.5s72.667 -26.833 104 -49.5c40.667 -30.667 72 -69.334 94 -116.001s33.333 -97.667 34 -153c0 -56.667 -11.5 -108 -34.5 -154s-56.167 -84.333 -99.5 -115c-33.333 -23.333 -68.166 -39.833 -104.499 -49.5
s-82.833 -14.5 -139.5 -14.5h-138v667zM181.999 571.001l-0.000976562 -474.999h44c41.333 0 75.833 3.83301 103.5 11.5s52.167 19.5 73.5 35.5c28.667 21.333 51 48.666 67 81.999s24 69.333 24 108c-0.666992 37.333 -8.66699 73.333 -24 108s-37.333 62.667 -66 84
c-21.333 15.333 -46.166 26.833 -74.499 34.5s-62.833 11.5 -103.5 11.5h-44z" />
    <glyph glyph-name="E" unicode="E" 
d="M448 667v-96h-266v-159h258v-96h-258v-220h266v-96h-368v667h368z" />
    <glyph glyph-name="F" unicode="F" horiz-adv-x="450" 
d="M414 667v-96h-232v-159h224v-96h-224v-316h-102v667h334z" />
    <glyph glyph-name="G" unicode="G" horiz-adv-x="748" 
d="M425 253l-0.00195312 93.9961h275v-21c0 -48.667 -5 -90 -15 -124s-24.667 -64.333 -44 -91c-29.333 -40.667 -66.166 -71.334 -110.499 -92.001s-91.5 -31.334 -141.5 -32.001c-46 0.666992 -88.833 8.33398 -128.5 23.001s-76.5 39.334 -110.5 74.001
c-34.667 34 -60.334 71.833 -77.001 113.5s-25 86.834 -25 135.501c-0.666992 46 7 89.833 23 131.5s40 79.167 72 112.5c32.667 34 70.334 59.333 113.001 76s89 25.334 139 26.001c37.333 0 72.666 -5.16699 105.999 -15.5s65.666 -26.5 96.999 -48.5
c14.667 -11.333 27.834 -22.666 39.501 -33.999s22.834 -23.666 33.501 -36.999l-72 -69c-26 36.667 -56.667 64.167 -92 82.5s-72.666 27.5 -111.999 27.5c-70.667 0 -129.167 -24 -175.5 -72s-69.5 -108.333 -69.5 -181c0 -71.333 23 -131 69 -179s103.667 -72 173 -72
c52 0 96.167 16 132.5 48s58.5 73.333 66.5 124h-166z" />
    <glyph glyph-name="H" unicode="H" horiz-adv-x="650" 
d="M182 667v-260h286v260h102v-667h-102v311h-286v-311h-102v667h102z" />
    <glyph glyph-name="I" unicode="I" horiz-adv-x="262" 
d="M80 667h102v-667h-102v667z" />
    <glyph glyph-name="J" unicode="J" horiz-adv-x="362" 
d="M180 667h102v-432c0 -40 -2.16699 -71.167 -6.5 -93.5s-10.5 -41.833 -18.5 -58.5c-14.667 -30 -35.167 -53.5 -61.5 -70.5s-58.166 -25.5 -95.499 -25.5c-22 0 -43 2.66699 -63 8s-38.333 14 -55 26l50 86c8.66699 -8 18.667 -14 30 -18s24.666 -6 39.999 -6
c16 0 29.5 3.66699 40.5 11s19.833 18.666 26.5 33.999c3.33301 9.33301 6 22.333 8 39s3 39.334 3 68.001v432z" />
    <glyph glyph-name="K" unicode="K" horiz-adv-x="586" 
d="M182 667v-266l258 266h134l-301 -302l303 -365h-136l-238 296l-20 -20v-276h-102v667h102z" />
    <glyph glyph-name="L" unicode="L" horiz-adv-x="394" 
d="M80 667h102v-571h196v-96h-298v667z" />
    <glyph glyph-name="M" unicode="M" horiz-adv-x="852" 
d="M164 0h-104l140 717l232 -518l234 518l126 -717h-104l-68 402l-194 -433l-192 434z" />
    <glyph glyph-name="N" unicode="N" horiz-adv-x="746" 
d="M182 0h-102v712l484 -507v462h102v-708l-484 507v-466z" />
    <glyph glyph-name="O" unicode="O" horiz-adv-x="790" 
d="M395 679c99.333 0 182 -33.167 248 -99.5s99 -148.5 99 -246.5c0 -98.667 -33 -181 -99 -247s-148.667 -99 -248 -99c-100 0 -182.833 33 -248.5 99s-98.5 148.333 -98.5 247c0 98 32.833 180 98.5 246s148.5 99.333 248.5 100zM395 81c71.333 0 130 23.5 176 70.5
s69 107.5 69 181.5c0 73.333 -23 133.666 -69 180.999s-104.667 71 -176 71c-72 0 -130.833 -23.667 -176.5 -71s-68.5 -107.666 -68.5 -180.999c0 -74 22.833 -134.5 68.5 -181.5s104.5 -70.5 176.5 -70.5z" />
    <glyph glyph-name="P" unicode="P" horiz-adv-x="480" 
d="M80 667h147c32 -0.666992 59.833 -4 83.5 -10s44.5 -14.667 62.5 -26c26.667 -18 47.167 -41.5 61.5 -70.5s21.5 -59.5 21.5 -91.5c-0.666992 -28.667 -6.16699 -55.5 -16.5 -80.5s-26.5 -46.833 -48.5 -65.5c-20 -16.667 -43 -29.5 -69 -38.5s-57.333 -13.5 -94 -13.5
h-46v-271h-102v667zM182 573v-208h46c42 -0.666992 74.167 8.5 96.5 27.5s33.5 44.833 33.5 77.5c0 33.333 -11.5 58.833 -34.5 76.5s-55.167 26.5 -96.5 26.5h-45z" />
    <glyph glyph-name="Q" unicode="Q" horiz-adv-x="790" 
d="M632 -13l-50 50c-27.333 -17.333 -56 -30 -86 -38s-63.667 -12 -101 -12c-100 0 -182.833 32.833 -248.5 98.5s-98.5 148.167 -98.5 247.5c0 98 32.833 180.167 98.5 246.5s148.5 99.5 248.5 99.5c99.333 0 182 -33.167 248 -99.5s99 -148.5 99 -246.5
c0 -44.667 -7.5 -87.167 -22.5 -127.5s-38.167 -77.5 -69.5 -111.5l108 -107h-126zM479 264l102 -100.999c20 22.667 34.833 47.667 44.5 75s14.5 59 14.5 95c0 73.333 -23 133.5 -69 180.5s-104.667 70.833 -176 71.5c-72 -0.666992 -130.833 -24.5 -176.5 -71.5
s-68.5 -107.167 -68.5 -180.5c-0.666992 -74.667 22 -135.334 68 -182.001s105 -70 177 -70c20.667 0 40.5 2 59.5 6s37.5 10.667 55.5 20l-158 157h127z" />
    <glyph glyph-name="R" unicode="R" horiz-adv-x="534" 
d="M80 667l118.999 -0.000976562c40.667 0 74.834 -3 102.501 -9s52.167 -16 73.5 -30c25.333 -18 44.833 -40.667 58.5 -68s20.5 -57 20.5 -89c0 -48 -13.5 -88.667 -40.5 -122s-62.833 -54.666 -107.5 -63.999l208 -285h-123l-191 273h-18v-273h-102v667zM181.999 572.999
v-212h32c47.333 0 82.833 9.66699 106.5 29s35.5 46 35.5 80c0 33.333 -11.667 58.833 -35 76.5s-58 26.5 -104 26.5h-35z" />
    <glyph glyph-name="S" unicode="S" horiz-adv-x="516" 
d="M450 567l-81.999 -48c-3.33301 8.66699 -7.66602 16.334 -12.999 23.001s-11 13 -17 19c-10.667 8 -21.834 14 -33.501 18s-24.5 6 -38.5 6c-30 0 -53.167 -7.66699 -69.5 -23s-24.5 -34.333 -24.5 -57c0 -18 6 -33.667 18 -47s30 -24.666 54 -33.999l67 -27
c52 -21.333 91 -47.833 117 -79.5s39.333 -70.5 40 -116.5c0 -63.333 -20.167 -114.833 -60.5 -154.5s-91.833 -59.5 -154.5 -59.5c-32.667 0 -61.834 5.16699 -87.501 15.5s-48.834 27.5 -69.501 51.5c-17.333 19.333 -30.5 39.666 -39.5 60.999s-14.5 44.333 -16.5 69
l101 22c0 -16.667 2.5 -32.334 7.5 -47.001s11.833 -27.334 20.5 -38.001c9.33301 -12.667 21.166 -22.5 35.499 -29.5s31.5 -10.5 51.5 -10.5c31.333 0 57.333 10.333 78 31s31.334 47.667 32.001 81c0 24.667 -7.16699 46 -21.5 64s-39.166 34.667 -74.499 50l-64 27
c-47.333 19.333 -81.833 43.166 -103.5 71.499s-32.5 60.833 -32.5 97.5c0 47.333 17.5 88.5 52.5 123.5s82.5 52.5 142.5 52.5c26 0 50.333 -3.66699 73 -11s43 -18.666 61 -33.999c9.33301 -8.66699 18.5 -18.667 27.5 -30s16.833 -23.666 23.5 -36.999z" />
    <glyph glyph-name="T" unicode="T" horiz-adv-x="428" 
d="M418 571h-153v-571h-102v571h-153v96h408v-96z" />
    <glyph glyph-name="U" unicode="U" horiz-adv-x="654" 
d="M80 667h101.998v-402c0 -30 1.5 -53.5 4.5 -70.5s8.5 -31.833 16.5 -44.5c12 -21.333 29.333 -38.166 52 -50.499s46.667 -18.5 72 -18.5c24.667 0 48.334 6.16699 71.001 18.5s40.334 29.166 53.001 50.499c7.33301 12.667 12.5 27.5 15.5 44.5s4.83301 40.5 5.5 70.5
v402h102v-429c0 -34.667 -5.16699 -66.5 -15.5 -95.5s-25.833 -54.833 -46.5 -77.5c-23.333 -25.333 -50.5 -44.666 -81.5 -57.999s-65.5 -20 -103.5 -20c-38.667 0 -73.5 6.66699 -104.5 20s-57.833 32.666 -80.5 57.999c-21.333 22.667 -37 48.5 -47 77.5
s-15 60.833 -15 95.5v429z" />
    <glyph glyph-name="V" unicode="V" horiz-adv-x="600" 
d="M4 667h110l186 -465l186 465h110l-296 -710z" />
    <glyph glyph-name="W" unicode="W" horiz-adv-x="940" 
d="M4 667h110l176 -446l180 478l174 -478l182 446h110l-298 -710l-174 473l-176 -473z" />
    <glyph glyph-name="X" unicode="X" horiz-adv-x="546" 
d="M10 0l210 348l-184 319h114l130 -226l133 226h114l-192 -319l201 -348h-114l-146 255l-152 -255h-114z" />
    <glyph glyph-name="Y" unicode="Y" horiz-adv-x="540" 
d="M219 0v288l-219 379h116l154 -267l154 267h116l-219 -379v-288h-102z" />
    <glyph glyph-name="Z" unicode="Z" horiz-adv-x="554" 
d="M524 667l-328 -571h320v-96h-486l328 571h-274v96h440z" />
    <glyph glyph-name="bracketleft" unicode="[" horiz-adv-x="316" 
d="M270 639h-84v-726h84v-90h-182v906h182v-90z" />
    <glyph glyph-name="backslash" unicode="\" horiz-adv-x="540" 
d="M540 -147l-80 -36l-382 884l80 36z" />
    <glyph glyph-name="bracketright" unicode="]" horiz-adv-x="316" 
d="M46 -87h84v726h-84v90h182v-906h-182v90z" />
    <glyph glyph-name="asciicircum" unicode="^" 
d="M250 592l-130 -240h-104l171 317h126l171 -317h-104z" />
    <glyph glyph-name="underscore" unicode="_" horiz-adv-x="400" 
d="M0 -144v86h400v-86h-400z" />
    <glyph glyph-name="grave" unicode="`" 
d="M241 485l-156 144l90 46l120 -156z" />
    <glyph glyph-name="a" unicode="a" horiz-adv-x="530" 
d="M370 372v49.002h98v-421h-98v44c-16 -18.667 -34.667 -32.834 -56 -42.501s-44.666 -14.5 -69.999 -14.5c-62.667 0 -112.334 21.833 -149.001 65.5s-55 96.5 -55 158.5c0 66 19.667 119.333 59 160s88 61 146 61c26 0 49.667 -5.33301 71 -16s39.333 -25.334 54 -44.001
zM257 344.002c-35.333 0 -63.667 -13 -85 -39s-32 -58 -32 -96c-0.666992 -38 9.83301 -69.833 31.5 -95.5s50.167 -38.5 85.5 -38.5c32.667 0 60.667 11.667 84 35s35 56 35 98c0 43.333 -11.667 76.833 -35 100.5s-51.333 35.5 -84 35.5z" />
    <glyph glyph-name="b" unicode="b" horiz-adv-x="530" 
d="M160 729l-0.000976562 -357.002c14 18.667 31.667 33.334 53 44.001s45.333 16 72 16c57.333 -0.666992 105.833 -21.167 145.5 -61.5s59.5 -93.5 59.5 -159.5c0 -62 -18.5 -114.833 -55.5 -158.5s-86.5 -65.5 -148.5 -65.5c-26 0 -49.667 4.83301 -71 14.5
s-39.666 23.834 -54.999 42.501v-44h-98v729h98zM272.999 343.998c-33.333 0 -61.5 -11.833 -84.5 -35.5s-34.5 -57.167 -34.5 -100.5c0 -42 11.5 -74.667 34.5 -98s51.167 -35 84.5 -35c34.667 0 62.834 12.833 84.501 38.5s32.5 57.5 32.5 95.5s-10.833 70 -32.5 96
s-49.834 39 -84.501 39z" />
    <glyph glyph-name="c" unicode="c" horiz-adv-x="420" 
d="M388 402l0.000976562 -128.998c-13.333 22 -30.833 39.333 -52.5 52s-44.834 19 -69.501 19c-34 0 -63.5 -12 -88.5 -36s-37.5 -56.667 -37.5 -98c0 -38.667 11.5 -70.834 34.5 -96.501s53.167 -38.5 90.5 -38.5c24 0 47.167 6.16699 69.5 18.5
s40.166 30.166 53.499 53.499v-129c-19.333 -11.333 -38.333 -19.333 -57 -24s-38.334 -7 -59.001 -7c-37.333 0.666992 -70 5.83398 -98 15.501s-52.667 25.834 -74 48.501c-19.333 19.333 -34.166 42.166 -44.499 68.499s-15.5 56.166 -15.5 89.499
c0 34 5.83301 64.833 17.5 92.5s28.5 52.167 50.5 73.5c21.333 20 44.333 34.5 69 43.5s55.334 13.5 92.001 13.5c23.333 0 44.5 -2.5 63.5 -7.5s37.5 -12.5 55.5 -22.5z" />
    <glyph glyph-name="d" unicode="d" horiz-adv-x="530" 
d="M370 372v357.002h98v-729h-98v44c-16 -18.667 -34.667 -32.834 -56 -42.501s-44.666 -14.5 -69.999 -14.5c-62.667 0 -112.334 21.833 -149.001 65.5s-55 96.5 -55 158.5c0 66 19.667 119.333 59 160s88 61 146 61c26 0 49.667 -5.33301 71 -16
s39.333 -25.334 54 -44.001zM257 344.002c-35.333 0 -63.667 -13 -85 -39s-32 -58 -32 -96c-0.666992 -38 9.83301 -69.833 31.5 -95.5s50.167 -38.5 85.5 -38.5c32.667 0 60.667 11.667 84 35s35 56 35 98c0 43.333 -11.667 76.833 -35 100.5s-51.333 35.5 -84 35.5z" />
    <glyph glyph-name="e" unicode="e" horiz-adv-x="486" 
d="M364 156l82 -46.001c-7.33301 -13.333 -15.833 -26.5 -25.5 -39.5s-19.5 -23.833 -29.5 -32.5c-19.333 -17.333 -41.666 -30.166 -66.999 -38.499s-50 -12.5 -74 -12.5c-64.667 0.666992 -115.834 21.5 -153.501 62.5s-56.5 93.833 -56.5 158.5
c0 66 18.667 119.833 56 161.5s87 62.5 149 62.5c32 0 61.833 -6.5 89.5 -19.5s50.5 -32.167 68.5 -57.5c12.667 -18.667 22.167 -41.167 28.5 -67.5s9.83301 -54.833 10.5 -85.5v-15h-302c0.666992 -32.667 11.667 -59.5 33 -80.5s48.333 -31.5 81 -31.5
c11.333 0 22.833 1.83301 34.5 5.5s22.5 9.5 32.5 17.5c8 6 15.833 14.167 23.5 24.5s14.167 21.5 19.5 33.5zM147 266.999l195 -0.000976562c-6 23.333 -17.667 41.833 -35 55.5s-38 20.834 -62 21.501c-24 0 -44.833 -7.16699 -62.5 -21.5s-29.5 -32.833 -35.5 -55.5z" />
    <glyph glyph-name="f" unicode="f" horiz-adv-x="262" 
d="M268 331l-105.999 0.00195312v-331h-98v331h-34v90h34v162c0 31.333 3.5 57 10.5 77s18.167 36.667 33.5 50c10 9.33301 23 16.833 39 22.5s33 8.5 51 8.5c10.667 0 22.167 -1.33301 34.5 -4s24.166 -6.33398 35.499 -11.001v-99c-10.667 6 -21.667 10.667 -33 14
s-21 5.33301 -29 6c-7.33301 0 -14 -1.33301 -20 -4s-10.667 -6.33398 -14 -11.001c-4 -5.33301 -6.66699 -11.833 -8 -19.5s-2 -17.167 -2 -28.5v-163h106v-90z" />
    <glyph glyph-name="g" unicode="g" horiz-adv-x="530" 
d="M370 375l0.00292969 46.001h98v-411c-0.666992 -43.333 -3.66699 -76.333 -9 -99s-14.333 -43 -27 -61c-19.333 -25.333 -43.833 -44.833 -73.5 -58.5s-61.5 -20.834 -95.5 -21.501c-61.333 0 -111.333 18.833 -150 56.5s-56.667 87.167 -54 148.5h95
c-2 -34 7.16699 -62 27.5 -84s47.5 -33 81.5 -33c36.667 0.666992 63.5 12.667 80.5 36s25.833 56 26.5 98v55c-16 -19.333 -34.5 -34.166 -55.5 -44.499s-44.5 -15.5 -70.5 -15.5c-62.667 0 -112.334 21.833 -149.001 65.5s-55 96.5 -55 158.5
c0 66 19.667 119.167 59 159.5s88 60.833 146 61.5c25.333 -0.666992 48.666 -5.83398 69.999 -15.501s39.666 -23.5 54.999 -41.5zM257.003 344.001c-35.333 0 -63.667 -13 -85 -39s-32 -58 -32 -96c-0.666992 -38 9.83301 -69.833 31.5 -95.5s50.167 -38.5 85.5 -38.5
c32.667 0 60.667 11.667 84 35s35 56 35 98c0 43.333 -11.667 76.833 -35 100.5s-51.333 35.5 -84 35.5z" />
    <glyph glyph-name="h" unicode="h" horiz-adv-x="486" 
d="M62 0v729.001h98v-344c14.667 15.333 31.334 27 50.001 35s39.667 12 63 12c27.333 0 51.666 -5.16699 72.999 -15.5s38.333 -24.166 51 -41.499c9.33301 -14 16.166 -30 20.499 -48s6.5 -41 6.5 -69v-258h-98v249c0 20 -1.5 35.167 -4.5 45.5s-7.83301 19.5 -14.5 27.5
c-6.66699 6.66699 -15 12 -25 16s-20 6 -30 6c-14 -0.666992 -27.667 -4 -41 -10s-23.666 -14.333 -30.999 -25s-12.5 -24.334 -15.5 -41.001s-4.5 -38.334 -4.5 -65.001v-203h-98z" />
    <glyph glyph-name="i" unicode="i" horiz-adv-x="222" 
d="M62 421h98v-421h-98v421zM48 595c0 18 5.83301 33.001 17.5 45.001s26.834 18 45.501 18c18 -0.666992 33 -6.83398 45 -18.501s18 -26.5 18 -44.5c0 -18.667 -6 -33.834 -18 -45.501s-27 -17.5 -45 -17.5c-18.667 0 -33.834 5.83301 -45.501 17.5
s-17.5 26.834 -17.5 45.501z" />
    <glyph glyph-name="j" unicode="j" horiz-adv-x="222" 
d="M62 421h98v-650h-98v650zM48 595c0 18 5.83301 33.001 17.5 45.001s26.834 18 45.501 18c18 -0.666992 33 -6.83398 45 -18.501s18 -26.5 18 -44.5c0 -18.667 -6 -33.834 -18 -45.501s-27 -17.5 -45 -17.5c-18.667 0 -33.834 5.83301 -45.501 17.5
s-17.5 26.834 -17.5 45.501z" />
    <glyph glyph-name="k" unicode="k" horiz-adv-x="442" 
d="M62 729h98v-449l137 141h130l-181 -175l194 -246h-124l-138 180l-18 -18v-162h-98v729z" />
    <glyph glyph-name="l" unicode="l" horiz-adv-x="222" 
d="M62 729h98v-729h-98v729z" />
    <glyph glyph-name="m" unicode="m" horiz-adv-x="702" 
d="M62 0l0.00195312 420.996h98v-39c13.333 16 28.833 28.167 46.5 36.5s36.834 12.833 57.501 13.5c22 0 42.667 -5.33301 62 -16s35 -26 47 -46c14 20 32 35.333 54 46s45.667 16 71 16s48.666 -5.83301 69.999 -17.5s38 -27.834 50 -48.501
c7.33301 -13.333 12.833 -28.833 16.5 -46.5s5.5 -37.5 5.5 -59.5v-260h-98v232c-0.666992 16.667 -1.66699 31.334 -3 44.001s-3.33301 23 -6 31c-5.33301 12 -12.833 21.167 -22.5 27.5s-20.834 9.5 -33.501 9.5c-12 -0.666992 -23.167 -3.66699 -33.5 -9
s-18.5 -12.666 -24.5 -21.999c-6.66699 -9.33301 -11.5 -21.166 -14.5 -35.499s-4.5 -34.5 -4.5 -60.5v-217h-98v232c0 16.667 -0.833008 31.334 -2.5 44.001s-3.83398 23 -6.50098 31c-5.33301 12 -12.833 21.167 -22.5 27.5s-20.834 9.5 -33.501 9.5
c-12 0 -23.167 -2.83301 -33.5 -8.5s-18.5 -13.167 -24.5 -22.5c-6.66699 -9.33301 -11.667 -21.166 -15 -35.499s-4.66602 -34.5 -3.99902 -60.5v-217h-98z" />
    <glyph glyph-name="n" unicode="n" horiz-adv-x="485" 
d="M61 0v421.001h98v-39c14.667 16.667 31.334 29.167 50.001 37.5s40 12.5 64 12.5c27.333 -0.666992 51.5 -5.83398 72.5 -15.501s38.167 -23.5 51.5 -41.5c9.33301 -14.667 15.833 -31 19.5 -49s5.83398 -40.667 6.50098 -68v-258h-98v234
c-0.666992 38.667 -6.33398 66.667 -17.001 84s-30.667 26 -60 26c-34.667 0 -58.334 -11.333 -71.001 -34s-18.667 -58.667 -18 -108v-202h-98z" />
    <glyph glyph-name="o" unicode="o" horiz-adv-x="530" 
d="M265 432c64 0 117.5 -21 160.5 -63s64.5 -95 64.5 -159c0 -64.667 -21.5 -118 -64.5 -160s-96.5 -63 -160.5 -63c-64.667 0 -118.334 21 -161.001 63s-64 95.333 -64 160c0 64 21.333 117 64 159s96.334 63 161.001 63zM265 75c38 0 68.333 12 91 36s34 56.667 34 98
c0 40 -11.333 72.5 -34 97.5s-53 37.5 -91 37.5c-38.667 0 -69.167 -12.5 -91.5 -37.5s-33.5 -57.5 -33.5 -97.5c0 -41.333 11.167 -74 33.5 -98s52.833 -36 91.5 -36z" />
    <glyph glyph-name="p" unicode="p" horiz-adv-x="530" 
d="M160 49l-0.000976562 -278.001h-98v650h98v-46c14.667 18 32.667 32 54 42s45 15 71 15c57.333 0 105.833 -20.167 145.5 -60.5s59.5 -93.166 59.5 -158.499c0 -68 -20.667 -122.667 -62 -164s-88.666 -62 -141.999 -62c-23.333 0 -46.333 5.33301 -69 16
s-41.667 26 -57 46zM272.999 343.999c-33.333 0 -61.5 -11.833 -84.5 -35.5s-34.5 -57.167 -34.5 -100.5c0 -42 11.5 -74.667 34.5 -98s51.167 -35 84.5 -35c34.667 0 62.834 12.833 84.501 38.5s32.5 57.5 32.5 95.5s-10.833 70 -32.5 96s-49.834 39 -84.501 39z" />
    <glyph glyph-name="q" unicode="q" horiz-adv-x="530" 
d="M370 375l0.00292969 46h98v-650h-98v276c-16 -19.333 -34.5 -34.166 -55.5 -44.499s-44.5 -15.5 -70.5 -15.5c-62.667 0 -112.334 21.833 -149.001 65.5s-55 96.5 -55 158.5c0 66 19.667 119.167 59 159.5s88 60.833 146 61.5
c25.333 -0.666992 48.666 -5.83398 69.999 -15.501s39.666 -23.5 54.999 -41.5zM257.003 344c-35.333 0 -63.667 -13 -85 -39s-32 -58 -32 -96c-0.666992 -38 9.83301 -69.833 31.5 -95.5s50.167 -38.5 85.5 -38.5c32.667 0 60.667 11.667 84 35s35 56 35 98
c0 43.333 -11.667 76.833 -35 100.5s-51.333 35.5 -84 35.5z" />
    <glyph glyph-name="r" unicode="r" horiz-adv-x="332" 
d="M62 0l-0.00195312 421.001h98v-38c13.333 16.667 28.333 29 45 37s34.667 12 54 12c12.667 0 25.834 -2.16699 39.501 -6.5s26.834 -10.5 39.501 -18.5l-44 -89c-10 6 -19.333 10.833 -28 14.5s-17.667 5.5 -27 5.5c-14 0 -26.167 -2.83301 -36.5 -8.5
s-18.833 -13.834 -25.5 -24.501c-6 -9.33301 -10.333 -20.833 -13 -34.5s-4 -31.167 -4 -52.5v-218h-98z" />
    <glyph glyph-name="s" unicode="s" horiz-adv-x="360" 
d="M307 349l-80.9961 -43c-4.66699 11.333 -11.334 20.5 -20.001 27.5s-17.667 10.5 -27 10.5c-9.33301 -0.666992 -17 -3.33398 -23 -8.00098s-9 -11 -9 -19c-0.666992 -8.66699 2 -16.334 8 -23.001s22 -15.667 48 -27c19.333 -9.33301 35.5 -17.5 48.5 -24.5
s23.5 -13.167 31.5 -18.5c17.333 -13.333 30.166 -27.666 38.499 -42.999s12.5 -32.333 12.5 -51c0 -40.667 -14.833 -74.667 -44.5 -102s-66.167 -41 -109.5 -41c-34 0 -64 9.33301 -90 28s-44.667 44 -56 76l82 38c5.33301 -17.333 14.166 -30.666 26.499 -39.999
s26.5 -14 42.5 -14c14.667 0 26.334 4 35.001 12s13.334 19 14.001 33c0 10.667 -3.33301 20 -10 28s-18.334 16.333 -35.001 25c-58 28 -86.333 41.5 -85 40.5s1.66602 -0.833008 0.999023 0.5c-18 10.667 -30.833 23.5 -38.5 38.5s-11.5 32.833 -11.5 53.5
c-0.666992 38.667 11.666 69.167 36.999 91.5s57 33.833 95 34.5c26 0 49.5 -7.16699 70.5 -21.5s37.5 -34.833 49.5 -61.5z" />
    <glyph glyph-name="t" unicode="t" horiz-adv-x="242" 
d="M238 331h-75v-331h-98v331h-41v90h41v154h98v-154h75v-90z" />
    <glyph glyph-name="u" unicode="u" horiz-adv-x="484" 
d="M62 421h98.002v-241c-0.666992 -20.667 0.5 -36.5 3.5 -47.5s7.83301 -20.5 14.5 -28.5c6.66699 -9.33301 15.5 -16.5 26.5 -21.5s23.5 -7.5 37.5 -7.5c13.333 0 25.5 2.5 36.5 7.5s20.167 12.167 27.5 21.5c6 8 10.5 17.5 13.5 28.5s4.5 26.833 4.5 47.5v241h98v-244
c-0.666992 -34 -4.33398 -61.5 -11.001 -82.5s-18 -39.5 -34 -55.5c-16.667 -16.667 -36.667 -29.5 -60 -38.5s-49 -13.5 -77 -13.5c-26.667 0 -51.5 4.5 -74.5 13.5s-42.5 21.833 -58.5 38.5c-16.667 16 -28.334 34.5 -35.001 55.5s-10 48.5 -10 82.5v244z" />
    <glyph glyph-name="v" unicode="v" horiz-adv-x="448" 
d="M6 421h110l108 -240l108 240h110l-218 -451z" />
    <glyph glyph-name="w" unicode="w" horiz-adv-x="686" 
d="M6 421h110l109 -241l118 277l118 -277l109 241h110l-219 -451l-118 269l-118 -269z" />
    <glyph glyph-name="x" unicode="x" horiz-adv-x="496" 
d="M6 0l186 228l-150 193h116l93 -123l94 123h120l-155 -193l180 -228h-118l-121 157l-125 -157h-120z" />
    <glyph glyph-name="y" unicode="y" horiz-adv-x="482" 
d="M31 -229l162 307l-187 343h118l124 -237l118 237h110l-335 -650h-110z" />
    <glyph glyph-name="z" unicode="z" horiz-adv-x="480" 
d="M472 421l-271 -331h250v-90h-443l273 331h-215v90h406z" />
    <glyph glyph-name="braceleft" unicode="{" 
d="M288 512l0.00292969 -148.001c-0.666992 -16.667 -2 -31.334 -4 -44.001s-4.66699 -22.667 -8 -30c-5.33301 -10 -12.5 -19.167 -21.5 -27.5s-18.5 -14.833 -28.5 -19.5c10 -5.33301 19.5 -12.166 28.5 -20.499s16.167 -17.166 21.5 -26.499
c3.33301 -8 6.16602 -18.333 8.49902 -31s3.5 -27 3.5 -43v-148c-0.666992 -18 0.5 -31.667 3.5 -41s7.5 -17 13.5 -23c5.33301 -5.33301 13.333 -9.33301 24 -12s26.334 -4 47.001 -4h8v-84h-47c-24.667 0 -45.5 2.16699 -62.5 6.5s-30.5 10.166 -40.5 17.499
c-15.333 11.333 -26.5 26.333 -33.5 45s-10.5 42 -10.5 70v171c-0.666992 24.667 -5.5 43.834 -14.5 57.501s-22.833 22.167 -41.5 25.5v80c18.667 2.66699 32.5 10.834 41.5 24.501s13.833 33.167 14.5 58.5v171c-0.666992 28 2.66602 51.333 9.99902 70
s18.666 33.667 33.999 45c10 7.33301 23.5 13.166 40.5 17.499s37.833 6.5 62.5 6.5h47v-84h-8c-20.667 0 -36.334 -1.33301 -47.001 -4s-18.667 -6.66699 -24 -12c-6 -6 -10.333 -13.667 -13 -23s-4 -23 -4 -41z" />
    <glyph glyph-name="bar" unicode="|" 
d="M202 -250v1000h96v-1000h-96z" />
    <glyph glyph-name="braceright" unicode="}" 
d="M230 -26l-0.000976562 148.002c-0.666992 16 0.166016 30.333 2.49902 43s5.5 23 9.5 31c4.66699 9.33301 11.5 18.166 20.5 26.499s18.833 15.166 29.5 20.499c-10.667 4.66699 -20.5 11.167 -29.5 19.5s-15.833 17.5 -20.5 27.5c-4 7.33301 -7 17.333 -9 30
s-3 27.334 -3 44.001v148c-0.666992 18 -2.33398 31.667 -5.00098 41s-6.66699 17 -12 23c-6 5.33301 -14.333 9.33301 -25 12s-26 4 -46 4h-8v84h47c24 -0.666992 44.5 -3 61.5 -7s30.833 -9.66699 41.5 -17c14.667 -11.333 25.667 -26.333 33 -45s11 -42 11 -70v-171
c0 -25.333 4.5 -44.833 13.5 -58.5s23.167 -21.834 42.5 -24.501v-80c-19.333 -3.33301 -33.666 -11.833 -42.999 -25.5s-13.666 -32.834 -12.999 -57.501v-171c-0.666992 -28 -4.5 -51.333 -11.5 -70s-17.833 -33.667 -32.5 -45
c-10.667 -7.33301 -24.5 -13.166 -41.5 -17.499s-37.5 -6.5 -61.5 -6.5h-47v84h8c20 0 35.333 1.33301 46 4s19 6.66699 25 12c5.33301 6 9.33301 13.667 12 23s4.33398 23 5.00098 41z" />
    <glyph glyph-name="asciitilde" unicode="~" horiz-adv-x="668" 
d="M519 736l56.998 -32.9961c-8 -18.667 -17.667 -36.334 -29 -53.001s-23.666 -30 -36.999 -40s-26.666 -17.167 -39.999 -21.5s-27.666 -6.5 -42.999 -6.5c-13.333 0 -26.666 1.66699 -39.999 5s-37.333 12.333 -72 27c-24.667 10 -43.167 16.833 -55.5 20.5
s-22.833 5.5 -31.5 5.5c-10.667 0 -20.167 -1.83301 -28.5 -5.5s-15.833 -9.16699 -22.5 -16.5c-6 -6 -11.5 -13 -16.5 -21s-9.16699 -16 -12.5 -24l-56 36c6 15.333 13.333 30.166 22 44.499s18 27.166 28 38.499c12.667 14 26.834 24.5 42.501 31.5s32.167 10.5 49.5 10.5
c12.667 0 28.167 -2.66699 46.5 -8s39.5 -13 63.5 -23c31.333 -14 52.166 -22.167 62.499 -24.5s20.5 -3.5 30.5 -3.5c9.33301 0 17.666 1.16699 24.999 3.5s15.333 7.16602 24 14.499c7.33301 6.66699 13.666 13.5 18.999 20.5s10 14.5 14 22.5z" />
    <glyph glyph-name="afii10051" horiz-adv-x="700" 
d="M486 571l-220.001 -0.000976562v-178c22 2 44 3.5 66 4.5s43.333 1.83301 64 2.5c36 -0.666992 66.167 -3.5 90.5 -8.5s46.5 -12.5 66.5 -22.5c30.667 -16.667 54.834 -40 72.501 -70s26.5 -66.333 26.5 -109c0 -61.333 -18.5 -110 -55.5 -146s-84.5 -54.333 -142.5 -55
c-22.667 0 -44.667 2.33301 -66 7s-42 12.334 -62 23.001l24 93c14.667 -9.33301 31.334 -16.5 50.001 -21.5s37 -7.5 55 -7.5c28.667 0 51.667 9.33301 69 28s26 44 26 76c0 23.333 -4.83301 43.666 -14.5 60.999s-24.834 31 -45.501 41
c-12.667 5.33301 -26.5 9.33301 -41.5 12s-34.167 4.33398 -57.5 5.00098c-20 0 -40.833 -0.666992 -62.5 -2s-42.5 -3 -62.5 -5v-299h-102v571h-154v96h476v-96z" />
    <glyph glyph-name="afii10051" unicode="&#x402;" horiz-adv-x="700" 
d="M486 571l-220.001 -0.000976562v-178c22 2 44 3.5 66 4.5s43.333 1.83301 64 2.5c36 -0.666992 66.167 -3.5 90.5 -8.5s46.5 -12.5 66.5 -22.5c30.667 -16.667 54.834 -40 72.501 -70s26.5 -66.333 26.5 -109c0 -61.333 -18.5 -110 -55.5 -146s-84.5 -54.333 -142.5 -55
c-22.667 0 -44.667 2.33301 -66 7s-42 12.334 -62 23.001l24 93c14.667 -9.33301 31.334 -16.5 50.001 -21.5s37 -7.5 55 -7.5c28.667 0 51.667 9.33301 69 28s26 44 26 76c0 23.333 -4.83301 43.666 -14.5 60.999s-24.834 31 -45.501 41
c-12.667 5.33301 -26.5 9.33301 -41.5 12s-34.167 4.33398 -57.5 5.00098c-20 0 -40.833 -0.666992 -62.5 -2s-42.5 -3 -62.5 -5v-299h-102v571h-154v96h476v-96z" />
    <glyph glyph-name="afii10052" horiz-adv-x="428" 
d="M80 0v667h334v-96h-232v-571h-102zM234 727l-48 40l138 139l86 -60z" />
    <glyph glyph-name="afii10052" unicode="&#x403;" horiz-adv-x="428" 
d="M80 0v667h334v-96h-232v-571h-102zM234 727l-48 40l138 139l86 -60z" />
    <glyph glyph-name="afii10061" horiz-adv-x="586" 
d="M182 667v-266l258 266h134l-301 -302l303 -365h-136l-238 296l-20 -20v-276h-102v667h102zM277 727l-48 40l138 139l86 -60z" />
    <glyph glyph-name="afii10061" unicode="&#x40c;" horiz-adv-x="586" 
d="M182 667v-266l258 266h134l-301 -302l303 -365h-136l-238 296l-20 -20v-276h-102v667h102zM277 727l-48 40l138 139l86 -60z" />
    <glyph glyph-name="afii10060" horiz-adv-x="690" 
d="M486 571h-220.002v-178c21.333 2 42.5 3.66699 63.5 5s42.833 2 65.5 2c42.667 0 77.334 -3.5 104.001 -10.5s48.667 -17.167 66 -30.5c22 -18 38.167 -40.667 48.5 -68s15.833 -58.666 16.5 -93.999v-197h-102v182c0 29.333 -3.16699 51.5 -9.5 66.5
s-15.166 27.167 -26.499 36.5c-10 7.33301 -23.167 12.666 -39.5 15.999s-38.5 5 -66.5 5c-20.667 0 -41.167 -0.666992 -61.5 -2s-39.833 -3 -58.5 -5v-299h-102v571h-154v96h476v-96z" />
    <glyph glyph-name="afii10060" unicode="&#x40b;" horiz-adv-x="690" 
d="M486 571h-220.002v-178c21.333 2 42.5 3.66699 63.5 5s42.833 2 65.5 2c42.667 0 77.334 -3.5 104.001 -10.5s48.667 -17.167 66 -30.5c22 -18 38.167 -40.667 48.5 -68s15.833 -58.666 16.5 -93.999v-197h-102v182c0 29.333 -3.16699 51.5 -9.5 66.5
s-15.166 27.167 -26.499 36.5c-10 7.33301 -23.167 12.666 -39.5 15.999s-38.5 5 -66.5 5c-20.667 0 -41.167 -0.666992 -61.5 -2s-39.833 -3 -58.5 -5v-299h-102v571h-154v96h476v-96z" />
    <glyph glyph-name="afii10145" horiz-adv-x="640" 
d="M80 0v667h102v-571h276v571h102v-667h-192v-180h-96v180h-192z" />
    <glyph glyph-name="afii10145" unicode="&#x40f;" horiz-adv-x="640" 
d="M80 0v667h102v-571h276v571h102v-667h-192v-180h-96v180h-192z" />
    <glyph glyph-name="afii10099" horiz-adv-x="486" 
d="M62 0l-0.00292969 552.003h-72v76h72v101h98v-101h200v-76h-200v-167c14.667 15.333 31.334 27 50.001 35s39.667 12 63 12c27.333 0 51.666 -5.16699 72.999 -15.5s38.333 -24.166 51 -41.499c9.33301 -14 16.166 -30 20.499 -48s6.5 -41 6.5 -69v-348
c-0.666992 -30 -4.66699 -54 -12 -72s-18 -33 -32 -45c-11.333 -8.66699 -24.833 -15.334 -40.5 -20.001s-32.167 -7 -49.5 -7c-12.667 0.666992 -24.667 1.66699 -36 3s-21.333 3.33301 -30 6v88c6.66699 -2.66699 14.167 -4.83398 22.5 -6.50098s16.5 -2.5 24.5 -2.5
c10.667 0 19.834 1.83301 27.501 5.5s13.834 9.16699 18.501 16.5c2.66699 5.33301 4.83398 11.833 6.50098 19.5s2.5 21.167 2.5 40.5v313c0 20 -1.5 35.167 -4.5 45.5s-7.83301 19.5 -14.5 27.5c-6.66699 6.66699 -15 12 -25 16s-20 6 -30 6
c-14 -0.666992 -27.667 -4 -41 -10s-23.666 -14.333 -30.999 -25s-12.5 -24.334 -15.5 -41.001s-4.5 -38.334 -4.5 -65.001v-203h-98z" />
    <glyph glyph-name="afii10099" unicode="&#x452;" horiz-adv-x="486" 
d="M62 0l-0.00292969 552.003h-72v76h72v101h98v-101h200v-76h-200v-167c14.667 15.333 31.334 27 50.001 35s39.667 12 63 12c27.333 0 51.666 -5.16699 72.999 -15.5s38.333 -24.166 51 -41.499c9.33301 -14 16.166 -30 20.499 -48s6.5 -41 6.5 -69v-348
c-0.666992 -30 -4.66699 -54 -12 -72s-18 -33 -32 -45c-11.333 -8.66699 -24.833 -15.334 -40.5 -20.001s-32.167 -7 -49.5 -7c-12.667 0.666992 -24.667 1.66699 -36 3s-21.333 3.33301 -30 6v88c6.66699 -2.66699 14.167 -4.83398 22.5 -6.50098s16.5 -2.5 24.5 -2.5
c10.667 0 19.834 1.83301 27.501 5.5s13.834 9.16699 18.501 16.5c2.66699 5.33301 4.83398 11.833 6.50098 19.5s2.5 21.167 2.5 40.5v313c0 20 -1.5 35.167 -4.5 45.5s-7.83301 19.5 -14.5 27.5c-6.66699 6.66699 -15 12 -25 16s-20 6 -30 6
c-14 -0.666992 -27.667 -4 -41 -10s-23.666 -14.333 -30.999 -25s-12.5 -24.334 -15.5 -41.001s-4.5 -38.334 -4.5 -65.001v-203h-98z" />
    <glyph glyph-name="afii10109" horiz-adv-x="442" 
d="M62 421h98v-150l140 150h130l-184 -184l194 -237h-124l-140 173l-16 -16v-157h-98v421zM296 675l90 -46l-156 -144l-54 34z" />
    <glyph glyph-name="afii10109" unicode="&#x45c;" horiz-adv-x="442" 
d="M62 421h98v-150l140 150h130l-184 -184l194 -237h-124l-140 173l-16 -16v-157h-98v421zM296 675l90 -46l-156 -144l-54 34z" />
    <glyph glyph-name="afii10108" horiz-adv-x="486" 
d="M62 0v552.001h-72v76h72v101h98v-101h200v-76h-200v-167c14.667 15.333 31.334 27 50.001 35s39.667 12 63 12c27.333 0 51.666 -5.16699 72.999 -15.5s38.333 -24.166 51 -41.499c9.33301 -14 16.166 -30 20.499 -48s6.5 -41 6.5 -69v-258h-98v249
c0 20 -1.5 35.167 -4.5 45.5s-7.83301 19.5 -14.5 27.5c-6.66699 6.66699 -15 12 -25 16s-20 6 -30 6c-14 -0.666992 -27.667 -4 -41 -10s-23.666 -14.333 -30.999 -25s-12.5 -24.334 -15.5 -41.001s-4.5 -38.334 -4.5 -65.001v-203h-98z" />
    <glyph glyph-name="afii10108" unicode="&#x45b;" horiz-adv-x="486" 
d="M62 0v552.001h-72v76h72v101h98v-101h200v-76h-200v-167c14.667 15.333 31.334 27 50.001 35s39.667 12 63 12c27.333 0 51.666 -5.16699 72.999 -15.5s38.333 -24.166 51 -41.499c9.33301 -14 16.166 -30 20.499 -48s6.5 -41 6.5 -69v-258h-98v249
c0 20 -1.5 35.167 -4.5 45.5s-7.83301 19.5 -14.5 27.5c-6.66699 6.66699 -15 12 -25 16s-20 6 -30 6c-14 -0.666992 -27.667 -4 -41 -10s-23.666 -14.333 -30.999 -25s-12.5 -24.334 -15.5 -41.001s-4.5 -38.334 -4.5 -65.001v-203h-98z" />
    <glyph glyph-name="afii10062" unicode="&#xa1;" horiz-adv-x="570" 
d="M6 667h124l175 -346l153 346h106l-301 -667h-106l90 199zM129 832l80.001 36c4.66699 -17.333 14.5 -31 29.5 -41s33.5 -15 55.5 -15c21.333 0 39.5 5 54.5 15s25.167 23.667 30.5 41l80 -36c-14 -34.667 -35.833 -60.334 -65.5 -77.001s-62.834 -25 -99.501 -25
c-37.333 0 -70.833 8.33301 -100.5 25s-51.167 42.334 -64.5 77.001z" />
    <glyph glyph-name="afii10062" unicode="&#x40e;" horiz-adv-x="570" 
d="M6 667h124l175 -346l153 346h106l-301 -667h-106l90 199zM129 832l80.001 36c4.66699 -17.333 14.5 -31 29.5 -41s33.5 -15 55.5 -15c21.333 0 39.5 5 54.5 15s25.167 23.667 30.5 41l80 -36c-14 -34.667 -35.833 -60.334 -65.5 -77.001s-62.834 -25 -99.501 -25
c-37.333 0 -70.833 8.33301 -100.5 25s-51.167 42.334 -64.5 77.001z" />
    <glyph glyph-name="afii10110" unicode="&#xa2;" horiz-adv-x="482" 
d="M31 -229l162 307l-187 343h118l124 -237l118 237h110l-335 -650h-110zM79 603l80.001 23c6 -21.333 15.833 -37.5 29.5 -48.5s31.167 -16.5 52.5 -16.5s38.5 5.16699 51.5 15.5s23.167 26.833 30.5 49.5l80 -23c-10 -34.667 -30.333 -63 -61 -85
s-64.334 -33 -101.001 -33c-37.333 0 -71.333 11 -102 33s-50.667 50.333 -60 85z" />
    <glyph glyph-name="afii10110" unicode="&#x45e;" horiz-adv-x="482" 
d="M31 -229l162 307l-187 343h118l124 -237l118 237h110l-335 -650h-110zM79 603l80.001 23c6 -21.333 15.833 -37.5 29.5 -48.5s31.167 -16.5 52.5 -16.5s38.5 5.16699 51.5 15.5s23.167 26.833 30.5 49.5l80 -23c-10 -34.667 -30.333 -63 -61 -85
s-64.334 -33 -101.001 -33c-37.333 0 -71.333 11 -102 33s-50.667 50.333 -60 85z" />
    <glyph glyph-name="afii10057" unicode="&#xa3;" horiz-adv-x="362" 
d="M180 667h102v-432c0 -40 -2.16699 -71.167 -6.5 -93.5s-10.5 -41.833 -18.5 -58.5c-14.667 -30 -35.167 -53.5 -61.5 -70.5s-58.166 -25.5 -95.499 -25.5c-22 0 -43 2.66699 -63 8s-38.333 14 -55 26l50 86c8.66699 -8 18.667 -14 30 -18s24.666 -6 39.999 -6
c16 0 29.5 3.66699 40.5 11s19.833 18.666 26.5 33.999c3.33301 9.33301 6 22.333 8 39s3 39.334 3 68.001v432z" />
    <glyph glyph-name="afii10057" unicode="&#x408;" horiz-adv-x="362" 
d="M180 667h102v-432c0 -40 -2.16699 -71.167 -6.5 -93.5s-10.5 -41.833 -18.5 -58.5c-14.667 -30 -35.167 -53.5 -61.5 -70.5s-58.166 -25.5 -95.499 -25.5c-22 0 -43 2.66699 -63 8s-38.333 14 -55 26l50 86c8.66699 -8 18.667 -14 30 -18s24.666 -6 39.999 -6
c16 0 29.5 3.66699 40.5 11s19.833 18.666 26.5 33.999c3.33301 9.33301 6 22.333 8 39s3 39.334 3 68.001v432z" />
    <glyph glyph-name="currency" unicode="&#xa4;" horiz-adv-x="668" 
d="M92 660l99 -98.999c20.667 16.667 43 28.667 67 36s49.333 11.333 76 12c26 0 51 -3.83301 75 -11.5s46.667 -19.834 68 -36.501l99 99l54 -54l-99 -99c14.667 -20 25.834 -41.833 33.501 -65.5s11.5 -48.5 11.5 -74.5c0 -26.667 -3.83301 -51.834 -11.5 -75.501
s-18.834 -45.167 -33.501 -64.5l99 -99l-54 -54l-99 99c-21.333 -17.333 -44 -29.833 -68 -37.5s-49 -11.167 -75 -10.5c-26.667 -0.666992 -52 2.83301 -76 10.5s-46.333 20.167 -67 37.5l-99 -99l-54 54l99 99c-15.333 19.333 -26.666 40.833 -33.999 64.5
s-11 48.834 -11 75.501c0 26 3.66699 50.833 11 74.5s18.666 45.5 33.999 65.5l-99 99zM334 211.001c43.333 0 79.332 14.667 107.999 44s43.334 66.666 44.001 111.999c0 44.667 -14.5 81.834 -43.5 111.501s-65.167 44.5 -108.5 44.5c-44 0 -80.333 -14.833 -109 -44.5
s-43 -66.834 -43 -111.501c0 -45.333 14.333 -82.666 43 -111.999s65 -44 109 -44z" />
    <glyph glyph-name="CyrHardG" unicode="&#xa5;" horiz-adv-x="428" 
d="M80 0v667h238v150h96v-246h-232v-571h-102z" />
    <glyph glyph-name="CyrHardG" unicode="&#x490;" horiz-adv-x="428" 
d="M80 0v667h238v150h96v-246h-232v-571h-102z" />
    <glyph glyph-name="brokenbar" unicode="&#xa6;" 
d="M202 390v360h96v-360h-96zM202 -250v360h96v-360h-96z" />
    <glyph glyph-name="section" unicode="&#xa7;" horiz-adv-x="568" 
d="M484 533h-94.0029c0.666992 12 -0.5 24.5 -3.5 37.5s-7.5 24.5 -13.5 34.5c-8 12 -18.333 21.333 -31 28s-27 10 -43 10c-27.333 0 -50 -8.5 -68 -25.5s-27 -38.5 -27 -64.5c0 -18.667 5.16699 -34.334 15.5 -47.001s28.833 -23.667 55.5 -33
c58.667 -21.333 96 -36 112 -44s29.333 -16 40 -24c18 -14.667 31.833 -32.5 41.5 -53.5s14.834 -44.833 15.501 -71.5c0 -34 -8 -64.333 -24 -91s-39.333 -47.667 -70 -63c23.333 -12.667 41.5 -29.834 54.5 -51.501s19.5 -48.167 19.5 -79.5
c-0.666992 -56 -19 -100.333 -55 -133s-80.333 -49 -133 -49c-40 0 -75.167 9 -105.5 27s-52.833 43 -67.5 75c-6.66699 14 -11.667 28.833 -15 44.5s-4.66602 31.834 -3.99902 48.501h94c0 -10.667 1.5 -21.5 4.5 -32.5s7.16699 -20.5 12.5 -28.5
c7.33301 -12 18 -21.667 32 -29s30.333 -11 49 -11c26.667 0 48.667 8 66 24s26 37.667 26 65c0 11.333 -2.83301 22 -8.5 32s-13.167 19.333 -22.5 28c-7.33301 6 -15.666 11.333 -24.999 16s-30.666 13 -63.999 25c-23.333 7.33301 -43.666 15.333 -60.999 24
s-31.333 17.667 -42 27c-18.667 14.667 -32.667 33 -42 55s-13.666 47 -12.999 75c0 36.667 8.66699 67.834 26 93.501s40.666 44.834 69.999 57.501c-26.667 14.667 -46.334 33.167 -59.001 55.5s-19 47.166 -19 74.499c-0.666992 52 16.833 94.667 52.5 128
s81.5 50 137.5 50c33.333 0 63.5 -6.5 90.5 -19.5s48.833 -32.5 65.5 -58.5c10 -16.667 17.667 -36.5 23 -59.5s7.66602 -45.167 6.99902 -66.5zM286.997 377c-28 0 -51.167 -9.33301 -69.5 -28s-27.5 -42 -27.5 -70c-0.666992 -28.667 8.33301 -52.167 27 -70.5
s42 -27.5 70 -27.5c27.333 0 50.333 9.33301 69 28s28 42 28 70c0 27.333 -9.33301 50.5 -28 69.5s-41.667 28.5 -69 28.5z" />
    <glyph glyph-name="afii10023" unicode="&#xa8;" 
d="M448 667v-96h-266v-159h258v-96h-258v-220h266v-96h-368v667h368zM104 795c-0.666992 17.333 5 32.001 17 44.001s27 18 45 18c17.333 -0.666992 32 -6.83398 44 -18.501s18 -26.167 18 -43.5c0 -18 -6 -32.833 -18 -44.5s-26.667 -17.5 -44 -17.5
c-18 0 -32.833 5.83301 -44.5 17.5s-17.5 26.5 -17.5 44.5zM300 795.001c0 17.333 5.83301 31.832 17.5 43.499s26.5 17.834 44.5 18.501c17.333 0 32 -6 44 -18s18 -26.667 18 -44c0 -18 -6 -32.833 -18 -44.5s-26.667 -17.5 -44 -17.5c-18 0 -32.833 5.83301 -44.5 17.5
s-17.5 26.5 -17.5 44.5z" />
    <glyph glyph-name="afii10023" unicode="&#x401;" 
d="M448 667v-96h-266v-159h258v-96h-258v-220h266v-96h-368v667h368zM104 795c-0.666992 17.333 5 32.001 17 44.001s27 18 45 18c17.333 -0.666992 32 -6.83398 44 -18.501s18 -26.167 18 -43.5c0 -18 -6 -32.833 -18 -44.5s-26.667 -17.5 -44 -17.5
c-18 0 -32.833 5.83301 -44.5 17.5s-17.5 26.5 -17.5 44.5zM300 795.001c0 17.333 5.83301 31.832 17.5 43.499s26.5 17.834 44.5 18.501c17.333 0 32 -6 44 -18s18 -26.667 18 -44c0 -18 -6 -32.833 -18 -44.5s-26.667 -17.5 -44 -17.5c-18 0 -32.833 5.83301 -44.5 17.5
s-17.5 26.5 -17.5 44.5z" />
    <glyph glyph-name="copyright" unicode="&#xa9;" horiz-adv-x="758" 
d="M33 333c0 99.333 32.668 181.833 98.001 247.5s148 98.834 248 99.501c99.333 -0.666992 181.666 -33.834 246.999 -99.501s98.333 -148.167 99 -247.5c0 -100 -32.833 -182.667 -98.5 -248s-148.167 -98.333 -247.5 -99c-100 0.666992 -182.667 33.667 -248 99
s-98 148 -98 248zM669.001 333c0 83.333 -27.5 153.666 -82.5 210.999s-124.167 86 -207.5 86c-84 0 -153.333 -28.667 -208 -86s-82 -127.666 -82 -210.999c0 -84 27.333 -154.5 82 -211.5s124 -85.5 208 -85.5c83.333 0 152.5 28.5 207.5 85.5s82.5 127.5 82.5 211.5z
M512.001 510l0.000976562 -86.998c-17.333 16 -36.5 28.333 -57.5 37s-41.167 13 -60.5 13c-40.667 0 -74 -13.5 -100 -40.5s-39 -60.5 -39 -100.5c0 -40.667 13 -73.834 39 -99.501s59.667 -38.5 101 -38.5c20 0 39.833 4.16699 59.5 12.5s38.834 21.166 57.501 38.499v-88
c-18 -10 -37 -17.667 -57 -23s-40.333 -8 -61 -8c-62 0 -113.333 19.5 -154 58.5s-61 88.167 -61 147.5c0 60.667 20.667 110.667 62 150s93.666 59 156.999 59c21.333 0 41.166 -2.66699 59.499 -8s36.5 -13 54.5 -23z" />
    <glyph glyph-name="afii10053" unicode="&#xaa;" horiz-adv-x="620" 
d="M574 631l-0.00292969 -120.002c-26.667 24 -55.167 42.333 -85.5 55s-62.166 19 -95.499 19c-39.333 0 -73.833 -6.33301 -103.5 -19s-54.5 -29.667 -74.5 -51c-16 -17.333 -29 -37 -39 -59s-16.667 -44 -20 -66h328v-96h-331c2 -28 8.5 -53.833 19.5 -77.5
s24.833 -44.167 41.5 -61.5c21.333 -23.333 47.333 -41.5 78 -54.5s64.667 -19.5 102 -19.5c32.667 0 64.334 6.66699 95.001 20s59 32.333 85 57v-121c-28 -16.667 -57.833 -29.167 -89.5 -37.5s-62.834 -12.5 -93.501 -12.5c-44 0 -86.167 7.5 -126.5 22.5
s-76.833 38.167 -109.5 69.5c-38 35.333 -65.5 73.833 -82.5 115.5s-25.167 87.167 -24.5 136.5c0 51.333 9 99.333 27 144s44.667 83.667 80 117c32.667 30.667 68.834 52.834 108.501 66.501s83.834 20.5 132.501 20.5c36 0 68.333 -4.16699 97 -12.5
s55.667 -20.166 81 -35.499z" />
    <glyph glyph-name="afii10053" unicode="&#x404;" horiz-adv-x="620" 
d="M574 631l-0.00292969 -120.002c-26.667 24 -55.167 42.333 -85.5 55s-62.166 19 -95.499 19c-39.333 0 -73.833 -6.33301 -103.5 -19s-54.5 -29.667 -74.5 -51c-16 -17.333 -29 -37 -39 -59s-16.667 -44 -20 -66h328v-96h-331c2 -28 8.5 -53.833 19.5 -77.5
s24.833 -44.167 41.5 -61.5c21.333 -23.333 47.333 -41.5 78 -54.5s64.667 -19.5 102 -19.5c32.667 0 64.334 6.66699 95.001 20s59 32.333 85 57v-121c-28 -16.667 -57.833 -29.167 -89.5 -37.5s-62.834 -12.5 -93.501 -12.5c-44 0 -86.167 7.5 -126.5 22.5
s-76.833 38.167 -109.5 69.5c-38 35.333 -65.5 73.833 -82.5 115.5s-25.167 87.167 -24.5 136.5c0 51.333 9 99.333 27 144s44.667 83.667 80 117c32.667 30.667 68.834 52.834 108.501 66.501s83.834 20.5 132.501 20.5c36 0 68.333 -4.16699 97 -12.5
s55.667 -20.166 81 -35.499z" />
    <glyph glyph-name="guillemotleft" unicode="&#xab;" horiz-adv-x="510" 
d="M140 217l130 -169l-65 -47l-165 216l165 216l65 -47zM326 217l130 -169l-65 -47l-165 216l165 216l65 -47z" />
    <glyph glyph-name="logicalnot" unicode="&#xac;" 
d="M467 0h-98v179h-336v88h434v-267z" />
    <glyph glyph-name="registered" unicode="&#xae;" horiz-adv-x="758" 
d="M33 333c0 99.333 32.668 181.833 98.001 247.5s148 98.834 248 99.501c99.333 -0.666992 181.666 -33.834 246.999 -99.501s98.333 -148.167 99 -247.5c0 -100 -32.833 -182.667 -98.5 -248s-148.167 -98.333 -247.5 -99c-100 0.666992 -182.667 33.667 -248 99
s-98 148 -98 248zM669.001 333c0 83.333 -27.5 153.666 -82.5 210.999s-124.167 86 -207.5 86c-84 0 -153.333 -28.667 -208 -86s-82 -127.666 -82 -210.999c0 -84 27.333 -154.5 82 -211.5s124 -85.5 208 -85.5c83.333 0 152.5 28.5 207.5 85.5s82.5 127.5 82.5 211.5z
M548.001 153l-87 -0.000976562l-116 148v-148h-71v374h99c42.667 0 75.667 -10 99 -30s35 -47.333 35 -82c0 -27.333 -7.5 -50.166 -22.5 -68.499s-35.167 -30.833 -60.5 -37.5zM345.001 463.999l0.000976562 -104.002h14c25.333 -0.666992 44.666 3.83301 57.999 13.5
s20 22.834 20 39.501s-6.33301 29.334 -19 38.001s-31.667 13 -57 13h-16z" />
    <glyph glyph-name="afii10056" unicode="&#xaf;" horiz-adv-x="262" 
d="M80 667h102v-667h-102v667zM0 795c0 14.667 5.5 27.5 16.5 38.5s24.167 16.833 39.5 17.5c14.667 0 27.5 -5.66699 38.5 -17s16.833 -24.333 17.5 -39c-0.666992 -15.333 -6.5 -28.5 -17.5 -39.5s-23.833 -16.5 -38.5 -16.5c-15.333 0 -28.5 5.5 -39.5 16.5
s-16.5 24.167 -16.5 39.5zM150 795c0 14.667 5.5 27.667 16.5 39s24.167 17 39.5 17c14.667 0 27.667 -5.66699 39 -17s17 -24.333 17 -39c0 -15.333 -5.66699 -28.5 -17 -39.5s-24.333 -16.5 -39 -16.5c-15.333 0 -28.5 5.5 -39.5 16.5s-16.5 24.167 -16.5 39.5z" />
    <glyph glyph-name="afii10056" unicode="&#x407;" horiz-adv-x="262" 
d="M80 667h102v-667h-102v667zM0 795c0 14.667 5.5 27.5 16.5 38.5s24.167 16.833 39.5 17.5c14.667 0 27.5 -5.66699 38.5 -17s16.833 -24.333 17.5 -39c-0.666992 -15.333 -6.5 -28.5 -17.5 -39.5s-23.833 -16.5 -38.5 -16.5c-15.333 0 -28.5 5.5 -39.5 16.5
s-16.5 24.167 -16.5 39.5zM150 795c0 14.667 5.5 27.667 16.5 39s24.167 17 39.5 17c14.667 0 27.667 -5.66699 39 -17s17 -24.333 17 -39c0 -15.333 -5.66699 -28.5 -17 -39.5s-24.333 -16.5 -39 -16.5c-15.333 0 -28.5 5.5 -39.5 16.5s-16.5 24.167 -16.5 39.5z" />
    <glyph glyph-name="degree" unicode="&#xb0;" 
d="M104 522c0 40.667 13.998 75.002 41.998 103.002s62.667 42 104 42c40.667 -0.666992 75.167 -14.834 103.5 -42.501s42.5 -61.834 42.5 -102.501c0 -41.333 -14.167 -75.833 -42.5 -103.5s-62.833 -41.5 -103.5 -41.5c-41.333 0 -76.166 13.833 -104.499 41.5
s-42.166 62.167 -41.499 103.5zM165.998 522.002c0 -25.333 8.00098 -46.167 24.001 -62.5s36 -24.5 60 -24.5c23.333 0 43.166 8.16699 59.499 24.5s24.5 37.166 24.5 62.499c-0.666992 24.667 -9 45.334 -25 62.001s-35.667 25 -59 25
c-24 -0.666992 -44 -9.16699 -60 -25.5s-24 -36.833 -24 -61.5z" />
    <glyph glyph-name="plusminus" unicode="&#xb1;" 
d="M33 350v90h170v163h94v-163h170v-90h-170v-163h-94v163h-170zM33 60v90h434v-90h-434z" />
    <glyph glyph-name="afii10055" unicode="&#xb2;" horiz-adv-x="262" 
d="M80 667h102v-667h-102v667z" />
    <glyph glyph-name="afii10055" unicode="&#x406;" horiz-adv-x="262" 
d="M80 667h102v-667h-102v667z" />
    <glyph glyph-name="afii10103" unicode="&#xb3;" horiz-adv-x="222" 
d="M62 421h98v-421h-98v421zM48 595c0 18 5.83301 33.001 17.5 45.001s26.834 18 45.501 18c18 -0.666992 33 -6.83398 45 -18.501s18 -26.5 18 -44.5c0 -18.667 -6 -33.834 -18 -45.501s-27 -17.5 -45 -17.5c-18.667 0 -33.834 5.83301 -45.501 17.5
s-17.5 26.834 -17.5 45.501z" />
    <glyph glyph-name="afii10103" unicode="&#x456;" horiz-adv-x="222" 
d="M62 421h98v-421h-98v421zM48 595c0 18 5.83301 33.001 17.5 45.001s26.834 18 45.501 18c18 -0.666992 33 -6.83398 45 -18.501s18 -26.5 18 -44.5c0 -18.667 -6 -33.834 -18 -45.501s-27 -17.5 -45 -17.5c-18.667 0 -33.834 5.83301 -45.501 17.5
s-17.5 26.834 -17.5 45.501z" />
    <glyph glyph-name="cyrhardg" unicode="&#xb4;" horiz-adv-x="328" 
d="M62 0v421h168v120h90v-210h-160v-331h-98z" />
    <glyph glyph-name="cyrhardg" unicode="&#x491;" horiz-adv-x="328" 
d="M62 0v421h168v120h90v-210h-160v-331h-98z" />
    <glyph glyph-name="mu" unicode="&#xb5;" horiz-adv-x="524" 
d="M160 -170l-98.001 -0.00292969v591h98v-205c-0.666992 -19.333 0.5 -36.666 3.5 -51.999s7.5 -28.333 13.5 -39c8 -16.667 19.5 -29 34.5 -37s31.5 -12 49.5 -12c16.667 0 32.334 4.33301 47.001 13s26.667 21 36 37c6.66699 12 11.667 25.833 15 41.5s5 33.834 5 54.501
v199h98v-421h-98v73c-8 -26 -21.667 -46.667 -41 -62s-41 -23 -65 -23c-22 0 -41.667 6.33301 -59 19s-30.333 29.334 -39 50.001v-227z" />
    <glyph glyph-name="paragraph" unicode="&#xb6;" horiz-adv-x="616" 
d="M301 -96l-83 -0.000976562v413h-13c-54 0 -97.667 15.833 -131 47.5s-50 73.167 -50 124.5c0 37.333 9.5 70.666 28.5 99.999s45.833 50 80.5 62c16.667 4.66699 34.5 8.33398 53.5 11.001s39.5 4.33398 61.5 5.00098h297v-76h-66v-687h-82v687h-96v-687z" />
    <glyph glyph-name="afii10071" unicode="&#xb8;" horiz-adv-x="488" 
d="M366 156l81.999 -45.999c-7.33301 -13.333 -15.666 -26.333 -24.999 -39s-19.333 -23.667 -30 -33c-18.667 -16.667 -39.834 -29.334 -63.501 -38.001s-49.834 -13 -78.501 -13c-64.667 0 -116 20.167 -154 60.5s-57 93.833 -57 160.5s18.667 120.667 56 162
s87 62 149 62c32.667 0 63 -6.5 91 -19.5s51 -32.167 69 -57.5c12.667 -18.667 22.334 -41.167 29.001 -67.5s10 -54.833 10 -85.5v-15h-302c0.666992 -34 11.5 -61.167 32.5 -81.5s48.167 -30.5 81.5 -30.5c12.667 0 24.334 1.66699 35.001 5s21.334 9.33301 32.001 18
c8.66699 6.66699 16.667 15 24 25s13.666 21 18.999 33zM148.999 267.001l195 -0.000976562c-6 23.333 -17.667 41.833 -35 55.5s-38 20.834 -62 21.501c-24 -0.666992 -44.833 -8 -62.5 -22s-29.5 -32.333 -35.5 -55zM101.999 547c-0.666992 17.333 5 32.001 17 44.001
s27 18 45 18c17.333 -0.666992 31.833 -6.83398 43.5 -18.501s17.834 -26.167 18.501 -43.5c-0.666992 -18 -6.83398 -33 -18.501 -45s-26.167 -17.667 -43.5 -17c-18 -0.666992 -32.833 5 -44.5 17s-17.5 27 -17.5 45zM281.999 547.001
c0 17.333 5.83301 32.001 17.5 44.001s26.5 18 44.5 18c17.333 -0.666992 31.833 -6.83398 43.5 -18.501s17.834 -26.167 18.501 -43.5c-0.666992 -18 -6.83398 -32.833 -18.501 -44.5s-26.167 -17.5 -43.5 -17.5c-18 0 -32.833 5.83301 -44.5 17.5s-17.5 26.5 -17.5 44.5z
" />
    <glyph glyph-name="afii10071" unicode="&#x451;" horiz-adv-x="488" 
d="M366 156l81.999 -45.999c-7.33301 -13.333 -15.666 -26.333 -24.999 -39s-19.333 -23.667 -30 -33c-18.667 -16.667 -39.834 -29.334 -63.501 -38.001s-49.834 -13 -78.501 -13c-64.667 0 -116 20.167 -154 60.5s-57 93.833 -57 160.5s18.667 120.667 56 162
s87 62 149 62c32.667 0 63 -6.5 91 -19.5s51 -32.167 69 -57.5c12.667 -18.667 22.334 -41.167 29.001 -67.5s10 -54.833 10 -85.5v-15h-302c0.666992 -34 11.5 -61.167 32.5 -81.5s48.167 -30.5 81.5 -30.5c12.667 0 24.334 1.66699 35.001 5s21.334 9.33301 32.001 18
c8.66699 6.66699 16.667 15 24 25s13.666 21 18.999 33zM148.999 267.001l195 -0.000976562c-6 23.333 -17.667 41.833 -35 55.5s-38 20.834 -62 21.501c-24 -0.666992 -44.833 -8 -62.5 -22s-29.5 -32.333 -35.5 -55zM101.999 547c-0.666992 17.333 5 32.001 17 44.001
s27 18 45 18c17.333 -0.666992 31.833 -6.83398 43.5 -18.501s17.834 -26.167 18.501 -43.5c-0.666992 -18 -6.83398 -33 -18.501 -45s-26.167 -17.667 -43.5 -17c-18 -0.666992 -32.833 5 -44.5 17s-17.5 27 -17.5 45zM281.999 547.001
c0 17.333 5.83301 32.001 17.5 44.001s26.5 18 44.5 18c17.333 -0.666992 31.833 -6.83398 43.5 -18.501s17.834 -26.167 18.501 -43.5c-0.666992 -18 -6.83398 -32.833 -18.501 -44.5s-26.167 -17.5 -43.5 -17.5c-18 0 -32.833 5.83301 -44.5 17.5s-17.5 26.5 -17.5 44.5z
" />
    <glyph glyph-name="afii61352" unicode="&#xb9;" horiz-adv-x="1060" 
d="M182 0h-102v712l444 -483v438h102v-708l-444 483v-442zM857 667c43.333 0 81 -15.502 113 -46.502s48 -67.833 48 -110.5c-0.666992 -42.667 -16.667 -79.5 -48 -110.5s-69 -46.5 -113 -46.5c-44.667 0 -82.667 15.5 -114 46.5s-47 67.833 -47 110.5
s15.833 79.334 47.5 110.001s69.5 46.334 113.5 47.001zM857 424.998c22.667 0 42.167 8 58.5 24s24.5 36.333 24.5 61c-0.666992 24 -9 44 -25 60s-35.333 24.333 -58 25c-23.333 0 -43 -8.16699 -59 -24.5s-24 -36.5 -24 -60.5c0 -24.667 8 -45 24 -61s35.667 -24 59 -24z
M716 202.998v80h282v-80h-282z" />
    <glyph glyph-name="afii61352" unicode="&#x2116;" horiz-adv-x="1060" 
d="M182 0h-102v712l444 -483v438h102v-708l-444 483v-442zM857 667c43.333 0 81 -15.502 113 -46.502s48 -67.833 48 -110.5c-0.666992 -42.667 -16.667 -79.5 -48 -110.5s-69 -46.5 -113 -46.5c-44.667 0 -82.667 15.5 -114 46.5s-47 67.833 -47 110.5
s15.833 79.334 47.5 110.001s69.5 46.334 113.5 47.001zM857 424.998c22.667 0 42.167 8 58.5 24s24.5 36.333 24.5 61c-0.666992 24 -9 44 -25 60s-35.333 24.333 -58 25c-23.333 0 -43 -8.16699 -59 -24.5s-24 -36.5 -24 -60.5c0 -24.667 8 -45 24 -61s35.667 -24 59 -24z
M716 202.998v80h282v-80h-282z" />
    <glyph glyph-name="afii10101" unicode="&#xba;" horiz-adv-x="428" 
d="M388 404l-0.00292969 -104c-15.333 13.333 -32.833 23.833 -52.5 31.5s-40.5 11.834 -62.5 12.501c-29.333 0 -55.5 -7.33301 -78.5 -22s-37.833 -34.667 -44.5 -60h192v-90h-195c4 -30.667 17.833 -54.5 41.5 -71.5s51.834 -25.5 84.501 -25.5
c22.667 0 43.834 4 63.501 12s36.834 19.333 51.501 34v-104c-16.667 -10.667 -34.167 -18.167 -52.5 -22.5s-40.833 -6.83301 -67.5 -7.5c-36.667 0 -68.834 5.33301 -96.501 16s-51.5 26.667 -71.5 48c-19.333 19.333 -34.166 42.166 -44.499 68.499
s-15.5 56.166 -15.5 89.499s5.66699 64 17 92s28.333 52.667 51 74c20 18.667 42.667 32.834 68 42.501s56.333 14.5 93 14.5c23.333 0 44.5 -2.5 63.5 -7.5s37.5 -11.833 55.5 -20.5z" />
    <glyph glyph-name="afii10101" unicode="&#x454;" horiz-adv-x="428" 
d="M388 404l-0.00292969 -104c-15.333 13.333 -32.833 23.833 -52.5 31.5s-40.5 11.834 -62.5 12.501c-29.333 0 -55.5 -7.33301 -78.5 -22s-37.833 -34.667 -44.5 -60h192v-90h-195c4 -30.667 17.833 -54.5 41.5 -71.5s51.834 -25.5 84.501 -25.5
c22.667 0 43.834 4 63.501 12s36.834 19.333 51.501 34v-104c-16.667 -10.667 -34.167 -18.167 -52.5 -22.5s-40.833 -6.83301 -67.5 -7.5c-36.667 0 -68.834 5.33301 -96.501 16s-51.5 26.667 -71.5 48c-19.333 19.333 -34.166 42.166 -44.499 68.499
s-15.5 56.166 -15.5 89.499s5.66699 64 17 92s28.333 52.667 51 74c20 18.667 42.667 32.834 68 42.501s56.333 14.5 93 14.5c23.333 0 44.5 -2.5 63.5 -7.5s37.5 -11.833 55.5 -20.5z" />
    <glyph glyph-name="guillemotright" unicode="&#xbb;" horiz-adv-x="510" 
d="M184 217l-130 169l65 47l165 -216l-165 -216l-65 47zM370 217l-130 169l65 47l165 -216l-165 -216l-65 47z" />
    <glyph glyph-name="afii10105" unicode="&#xbc;" horiz-adv-x="222" 
d="M62 421h98v-650h-98v650zM48 595c0 18 5.83301 33.001 17.5 45.001s26.834 18 45.501 18c18 -0.666992 33 -6.83398 45 -18.501s18 -26.5 18 -44.5c0 -18.667 -6 -33.834 -18 -45.501s-27 -17.5 -45 -17.5c-18.667 0 -33.834 5.83301 -45.501 17.5
s-17.5 26.834 -17.5 45.501z" />
    <glyph glyph-name="afii10105" unicode="&#x458;" horiz-adv-x="222" 
d="M62 421h98v-650h-98v650zM48 595c0 18 5.83301 33.001 17.5 45.001s26.834 18 45.501 18c18 -0.666992 33 -6.83398 45 -18.501s18 -26.5 18 -44.5c0 -18.667 -6 -33.834 -18 -45.501s-27 -17.5 -45 -17.5c-18.667 0 -33.834 5.83301 -45.501 17.5
s-17.5 26.834 -17.5 45.501z" />
    <glyph glyph-name="afii10054" unicode="&#xbd;" horiz-adv-x="516" 
d="M450 567l-81.999 -48c-3.33301 8.66699 -7.66602 16.334 -12.999 23.001s-11 13 -17 19c-10.667 8 -21.834 14 -33.501 18s-24.5 6 -38.5 6c-30 0 -53.167 -7.66699 -69.5 -23s-24.5 -34.333 -24.5 -57c0 -18 6 -33.667 18 -47s30 -24.666 54 -33.999l67 -27
c52 -21.333 91 -47.833 117 -79.5s39.333 -70.5 40 -116.5c0 -63.333 -20.167 -114.833 -60.5 -154.5s-91.833 -59.5 -154.5 -59.5c-32.667 0 -61.834 5.16699 -87.501 15.5s-48.834 27.5 -69.501 51.5c-17.333 19.333 -30.5 39.666 -39.5 60.999s-14.5 44.333 -16.5 69
l101 22c0 -16.667 2.5 -32.334 7.5 -47.001s11.833 -27.334 20.5 -38.001c9.33301 -12.667 21.166 -22.5 35.499 -29.5s31.5 -10.5 51.5 -10.5c31.333 0 57.333 10.333 78 31s31.334 47.667 32.001 81c0 24.667 -7.16699 46 -21.5 64s-39.166 34.667 -74.499 50l-64 27
c-47.333 19.333 -81.833 43.166 -103.5 71.499s-32.5 60.833 -32.5 97.5c0 47.333 17.5 88.5 52.5 123.5s82.5 52.5 142.5 52.5c26 0 50.333 -3.66699 73 -11s43 -18.666 61 -33.999c9.33301 -8.66699 18.5 -18.667 27.5 -30s16.833 -23.666 23.5 -36.999z" />
    <glyph glyph-name="afii10054" unicode="&#x405;" horiz-adv-x="516" 
d="M450 567l-81.999 -48c-3.33301 8.66699 -7.66602 16.334 -12.999 23.001s-11 13 -17 19c-10.667 8 -21.834 14 -33.501 18s-24.5 6 -38.5 6c-30 0 -53.167 -7.66699 -69.5 -23s-24.5 -34.333 -24.5 -57c0 -18 6 -33.667 18 -47s30 -24.666 54 -33.999l67 -27
c52 -21.333 91 -47.833 117 -79.5s39.333 -70.5 40 -116.5c0 -63.333 -20.167 -114.833 -60.5 -154.5s-91.833 -59.5 -154.5 -59.5c-32.667 0 -61.834 5.16699 -87.501 15.5s-48.834 27.5 -69.501 51.5c-17.333 19.333 -30.5 39.666 -39.5 60.999s-14.5 44.333 -16.5 69
l101 22c0 -16.667 2.5 -32.334 7.5 -47.001s11.833 -27.334 20.5 -38.001c9.33301 -12.667 21.166 -22.5 35.499 -29.5s31.5 -10.5 51.5 -10.5c31.333 0 57.333 10.333 78 31s31.334 47.667 32.001 81c0 24.667 -7.16699 46 -21.5 64s-39.166 34.667 -74.499 50l-64 27
c-47.333 19.333 -81.833 43.166 -103.5 71.499s-32.5 60.833 -32.5 97.5c0 47.333 17.5 88.5 52.5 123.5s82.5 52.5 142.5 52.5c26 0 50.333 -3.66699 73 -11s43 -18.666 61 -33.999c9.33301 -8.66699 18.5 -18.667 27.5 -30s16.833 -23.666 23.5 -36.999z" />
    <glyph glyph-name="afii10102" unicode="&#xbe;" horiz-adv-x="360" 
d="M307 349l-80.9961 -43c-4.66699 11.333 -11.334 20.5 -20.001 27.5s-17.667 10.5 -27 10.5c-9.33301 -0.666992 -17 -3.33398 -23 -8.00098s-9 -11 -9 -19c-0.666992 -8.66699 2 -16.334 8 -23.001s22 -15.667 48 -27c19.333 -9.33301 35.5 -17.5 48.5 -24.5
s23.5 -13.167 31.5 -18.5c17.333 -13.333 30.166 -27.666 38.499 -42.999s12.5 -32.333 12.5 -51c0 -40.667 -14.833 -74.667 -44.5 -102s-66.167 -41 -109.5 -41c-34 0 -64 9.33301 -90 28s-44.667 44 -56 76l82 38c5.33301 -17.333 14.166 -30.666 26.499 -39.999
s26.5 -14 42.5 -14c14.667 0 26.334 4 35.001 12s13.334 19 14.001 33c0 10.667 -3.33301 20 -10 28s-18.334 16.333 -35.001 25c-58 28 -86.333 41.5 -85 40.5s1.66602 -0.833008 0.999023 0.5c-18 10.667 -30.833 23.5 -38.5 38.5s-11.5 32.833 -11.5 53.5
c-0.666992 38.667 11.666 69.167 36.999 91.5s57 33.833 95 34.5c26 0 49.5 -7.16699 70.5 -21.5s37.5 -34.833 49.5 -61.5z" />
    <glyph glyph-name="afii10102" unicode="&#x455;" horiz-adv-x="360" 
d="M307 349l-80.9961 -43c-4.66699 11.333 -11.334 20.5 -20.001 27.5s-17.667 10.5 -27 10.5c-9.33301 -0.666992 -17 -3.33398 -23 -8.00098s-9 -11 -9 -19c-0.666992 -8.66699 2 -16.334 8 -23.001s22 -15.667 48 -27c19.333 -9.33301 35.5 -17.5 48.5 -24.5
s23.5 -13.167 31.5 -18.5c17.333 -13.333 30.166 -27.666 38.499 -42.999s12.5 -32.333 12.5 -51c0 -40.667 -14.833 -74.667 -44.5 -102s-66.167 -41 -109.5 -41c-34 0 -64 9.33301 -90 28s-44.667 44 -56 76l82 38c5.33301 -17.333 14.166 -30.666 26.499 -39.999
s26.5 -14 42.5 -14c14.667 0 26.334 4 35.001 12s13.334 19 14.001 33c0 10.667 -3.33301 20 -10 28s-18.334 16.333 -35.001 25c-58 28 -86.333 41.5 -85 40.5s1.66602 -0.833008 0.999023 0.5c-18 10.667 -30.833 23.5 -38.5 38.5s-11.5 32.833 -11.5 53.5
c-0.666992 38.667 11.666 69.167 36.999 91.5s57 33.833 95 34.5c26 0 49.5 -7.16699 70.5 -21.5s37.5 -34.833 49.5 -61.5z" />
    <glyph glyph-name="afii10104" unicode="&#xbf;" horiz-adv-x="222" 
d="M62 421h98v-421h-98v421zM0 547c0 13.333 4.5 24.665 13.5 33.998s20.5 14 34.5 14c13.333 0 24.666 -4.66699 33.999 -14s14 -20.666 14 -33.999c0 -14 -4.66699 -25.667 -14 -35s-20.666 -13.666 -33.999 -12.999c-14 0 -25.5 4.5 -34.5 13.5s-13.5 20.5 -13.5 34.5z
M126 546.999c-0.666992 13.333 3.66699 24.666 13 33.999s21 14 35 14c13.333 0 24.666 -4.66699 33.999 -14s14 -20.666 14 -33.999c0 -14 -4.66699 -25.5 -14 -34.5s-20.666 -13.5 -33.999 -13.5c-14 0 -25.5 4.5 -34.5 13.5s-13.5 20.5 -13.5 34.5z" />
    <glyph glyph-name="afii10104" unicode="&#x457;" horiz-adv-x="222" 
d="M62 421h98v-421h-98v421zM0 547c0 13.333 4.5 24.665 13.5 33.998s20.5 14 34.5 14c13.333 0 24.666 -4.66699 33.999 -14s14 -20.666 14 -33.999c0 -14 -4.66699 -25.667 -14 -35s-20.666 -13.666 -33.999 -12.999c-14 0 -25.5 4.5 -34.5 13.5s-13.5 20.5 -13.5 34.5z
M126 546.999c-0.666992 13.333 3.66699 24.666 13 33.999s21 14 35 14c13.333 0 24.666 -4.66699 33.999 -14s14 -20.666 14 -33.999c0 -14 -4.66699 -25.5 -14 -34.5s-20.666 -13.5 -33.999 -13.5c-14 0 -25.5 4.5 -34.5 13.5s-13.5 20.5 -13.5 34.5z" />
    <glyph glyph-name="afii10017" unicode="&#xc0;" horiz-adv-x="656" 
d="M542 0l-70 161h-285l-73 -161h-110l332 706l316 -706h-110zM229 257h202l-99 226z" />
    <glyph glyph-name="afii10017" unicode="&#x410;" horiz-adv-x="656" 
d="M542 0l-70 161h-285l-73 -161h-110l332 706l316 -706h-110zM229 257h202l-99 226z" />
    <glyph glyph-name="afii10018" unicode="&#xc1;" horiz-adv-x="526" 
d="M80 0l0.00195312 667h334v-96h-232v-173h66c33.333 0 64.166 -4.33301 92.499 -13s53.166 -22 74.499 -40c19.333 -17.333 34.5 -38.833 45.5 -64.5s16.833 -53.167 17.5 -82.5c-0.666992 -32.667 -8 -63.5 -22 -92.5s-34.333 -52.167 -61 -69.5
c-18 -12 -38.833 -21 -62.5 -27s-51.5 -9 -83.5 -9h-169zM182.002 302l-0.000976562 -206h62c45.333 -0.666992 78.833 8 100.5 26s32.834 43 33.501 75c0 32.667 -11 58.167 -33 76.5s-55 27.833 -99 28.5h-64z" />
    <glyph glyph-name="afii10018" unicode="&#x411;" horiz-adv-x="526" 
d="M80 0l0.00195312 667h334v-96h-232v-173h66c33.333 0 64.166 -4.33301 92.499 -13s53.166 -22 74.499 -40c19.333 -17.333 34.5 -38.833 45.5 -64.5s16.833 -53.167 17.5 -82.5c-0.666992 -32.667 -8 -63.5 -22 -92.5s-34.333 -52.167 -61 -69.5
c-18 -12 -38.833 -21 -62.5 -27s-51.5 -9 -83.5 -9h-169zM182.002 302l-0.000976562 -206h62c45.333 -0.666992 78.833 8 100.5 26s32.834 43 33.501 75c0 32.667 -11 58.167 -33 76.5s-55 27.833 -99 28.5h-64z" />
    <glyph glyph-name="afii10019" unicode="&#xc2;" horiz-adv-x="526" 
d="M80 667l101 -0.00195312c41.333 0 73.666 -2.66699 96.999 -8s44.333 -14.333 63 -27c26 -18.667 45.333 -40.667 58 -66s19 -53.666 19 -84.999c0 -27.333 -5 -51.166 -15 -71.499s-23.667 -37.166 -41 -50.499c36.667 -11.333 65.167 -31.333 85.5 -60
s30.5 -60.334 30.5 -95.001c0 -34 -5.66699 -64.167 -17 -90.5s-28 -48.5 -50 -66.5c-20.667 -16.667 -43.167 -28.667 -67.5 -36s-61.166 -11 -110.499 -11h-153v667zM182 570.998v-191h31c37.333 -0.666992 64.666 7.83301 81.999 25.5s26.333 41.834 27 72.501
c0 29.333 -8.66699 52.166 -26 68.499s-43.666 24.5 -78.999 24.5h-35zM182 295.998v-200.001h62c46 0 79.833 8.83301 101.5 26.5s32.5 41.834 32.5 72.501c0 32 -11 56.833 -33 74.5s-55 26.5 -99 26.5h-64z" />
    <glyph glyph-name="afii10019" unicode="&#x412;" horiz-adv-x="526" 
d="M80 667l101 -0.00195312c41.333 0 73.666 -2.66699 96.999 -8s44.333 -14.333 63 -27c26 -18.667 45.333 -40.667 58 -66s19 -53.666 19 -84.999c0 -27.333 -5 -51.166 -15 -71.499s-23.667 -37.166 -41 -50.499c36.667 -11.333 65.167 -31.333 85.5 -60
s30.5 -60.334 30.5 -95.001c0 -34 -5.66699 -64.167 -17 -90.5s-28 -48.5 -50 -66.5c-20.667 -16.667 -43.167 -28.667 -67.5 -36s-61.166 -11 -110.499 -11h-153v667zM182 570.998v-191h31c37.333 -0.666992 64.666 7.83301 81.999 25.5s26.333 41.834 27 72.501
c0 29.333 -8.66699 52.166 -26 68.499s-43.666 24.5 -78.999 24.5h-35zM182 295.998v-200.001h62c46 0 79.833 8.83301 101.5 26.5s32.5 41.834 32.5 72.501c0 32 -11 56.833 -33 74.5s-55 26.5 -99 26.5h-64z" />
    <glyph glyph-name="afii10020" unicode="&#xc3;" horiz-adv-x="428" 
d="M80 0v667h334v-96h-232v-571h-102z" />
    <glyph glyph-name="afii10020" unicode="&#x413;" horiz-adv-x="428" 
d="M80 0v667h334v-96h-232v-571h-102z" />
    <glyph glyph-name="afii10021" unicode="&#xc4;" horiz-adv-x="650" 
d="M144 667h415.999v-571h76v-246h-96v150h-430v-150h-96v246c20 -1.33301 39.667 5.83398 59 21.501s35 38.5 47 68.5c8 20.667 13.833 45.167 17.5 73.5s5.83398 62.166 6.50098 101.499v306zM245.999 571v-210c0 -43.333 -2 -80 -6 -110s-9.66699 -55.333 -17 -76
c-6 -16 -13.333 -30.5 -22 -43.5s-18.667 -24.833 -30 -35.5h287v475h-212z" />
    <glyph glyph-name="afii10021" unicode="&#x414;" horiz-adv-x="650" 
d="M144 667h415.999v-571h76v-246h-96v150h-430v-150h-96v246c20 -1.33301 39.667 5.83398 59 21.501s35 38.5 47 68.5c8 20.667 13.833 45.167 17.5 73.5s5.83398 62.166 6.50098 101.499v306zM245.999 571v-210c0 -43.333 -2 -80 -6 -110s-9.66699 -55.333 -17 -76
c-6 -16 -13.333 -30.5 -22 -43.5s-18.667 -24.833 -30 -35.5h287v475h-212z" />
    <glyph glyph-name="afii10022" unicode="&#xc5;" 
d="M448 667v-96h-266v-159h258v-96h-258v-220h266v-96h-368v667h368z" />
    <glyph glyph-name="afii10022" unicode="&#x415;" 
d="M448 667v-96h-266v-159h258v-96h-258v-220h266v-96h-368v667h368z" />
    <glyph glyph-name="afii10024" unicode="&#xc6;" horiz-adv-x="846" 
d="M372 667h102v-269l238 269h124l-275 -306l281 -361h-126l-226 294l-16 -18v-276h-102v276l-16 18l-226 -294h-126l281 361l-275 306h124l238 -269v269z" />
    <glyph glyph-name="afii10024" unicode="&#x416;" horiz-adv-x="846" 
d="M372 667h102v-269l238 269h124l-275 -306l281 -361h-126l-226 294l-16 -18v-276h-102v276l-16 18l-226 -294h-126l281 361l-275 306h124l238 -269v269z" />
    <glyph glyph-name="afii10025" unicode="&#xc7;" horiz-adv-x="570" 
d="M143 516l-66.999 65.0049c24.667 31.333 53.667 55.333 87 72s71.333 25 114 25c32 0 60.167 -4 84.5 -12s45.5 -19.667 63.5 -35c18 -16 31.667 -34.333 41 -55s14 -43.334 14 -68.001c-0.666992 -30 -7.83398 -57.333 -21.501 -82s-33.834 -44.334 -60.501 -59.001
c38 -10 68.167 -30.167 90.5 -60.5s33.5 -67.5 33.5 -111.5c0 -36.667 -7.5 -68.334 -22.5 -95.001s-36.5 -49.334 -64.5 -68.001c-22 -14.667 -46.667 -25.5 -74 -32.5s-55.333 -10.833 -84 -11.5c-56.667 0.666992 -106.834 14.5 -150.501 41.5s-77.167 66.5 -100.5 118.5
l90 46c13.333 -35.333 34.5 -62.833 63.5 -82.5s62.5 -29.5 100.5 -29.5c16.667 -0.666992 33.167 1 49.5 5s30.5 9.66699 42.5 17c15.333 9.33301 27.5 21.5 36.5 36.5s13.5 32.167 13.5 51.5c0 38 -14 66.167 -42 84.5s-67.333 27.5 -118 27.5h-60v96h60
c36 0 64.833 9 86.5 27s32.834 42.333 33.501 73c-0.666992 12.667 -2.83398 23.667 -6.50098 33s-9.16699 17.666 -16.5 24.999c-9.33301 8.66699 -20.666 15.167 -33.999 19.5s-28.666 6.5 -45.999 6.5c-30 0 -56.167 -5.83301 -78.5 -17.5s-41.5 -28.5 -57.5 -50.5z" />
    <glyph glyph-name="afii10025" unicode="&#x417;" horiz-adv-x="570" 
d="M143 516l-66.999 65.0049c24.667 31.333 53.667 55.333 87 72s71.333 25 114 25c32 0 60.167 -4 84.5 -12s45.5 -19.667 63.5 -35c18 -16 31.667 -34.333 41 -55s14 -43.334 14 -68.001c-0.666992 -30 -7.83398 -57.333 -21.501 -82s-33.834 -44.334 -60.501 -59.001
c38 -10 68.167 -30.167 90.5 -60.5s33.5 -67.5 33.5 -111.5c0 -36.667 -7.5 -68.334 -22.5 -95.001s-36.5 -49.334 -64.5 -68.001c-22 -14.667 -46.667 -25.5 -74 -32.5s-55.333 -10.833 -84 -11.5c-56.667 0.666992 -106.834 14.5 -150.501 41.5s-77.167 66.5 -100.5 118.5
l90 46c13.333 -35.333 34.5 -62.833 63.5 -82.5s62.5 -29.5 100.5 -29.5c16.667 -0.666992 33.167 1 49.5 5s30.5 9.66699 42.5 17c15.333 9.33301 27.5 21.5 36.5 36.5s13.5 32.167 13.5 51.5c0 38 -14 66.167 -42 84.5s-67.333 27.5 -118 27.5h-60v96h60
c36 0 64.833 9 86.5 27s32.834 42.333 33.501 73c-0.666992 12.667 -2.83398 23.667 -6.50098 33s-9.16699 17.666 -16.5 24.999c-9.33301 8.66699 -20.666 15.167 -33.999 19.5s-28.666 6.5 -45.999 6.5c-30 0 -56.167 -5.83301 -78.5 -17.5s-41.5 -28.5 -57.5 -50.5z" />
    <glyph glyph-name="afii10026" unicode="&#xc8;" horiz-adv-x="712" 
d="M530 0v449l-450 -479v697h102v-451l450 479v-695h-102z" />
    <glyph glyph-name="afii10026" unicode="&#x418;" horiz-adv-x="712" 
d="M530 0v449l-450 -479v697h102v-451l450 479v-695h-102z" />
    <glyph glyph-name="afii10027" unicode="&#xc9;" horiz-adv-x="712" 
d="M530 0v449l-450 -479v697h102v-451l450 479v-695h-102zM191 832l80 35.998c4.66699 -17.333 14.5 -31.166 29.5 -41.499s33.5 -15.166 55.5 -14.499c21.333 0 39.5 5 54.5 15s25.167 23.667 30.5 41l80 -36c-12 -31.333 -32.5 -56.166 -61.5 -74.499
s-63.5 -27.5 -103.5 -27.5c-40.667 0 -75.5 9.16699 -104.5 27.5s-49.167 43.166 -60.5 74.499z" />
    <glyph glyph-name="afii10027" unicode="&#x419;" horiz-adv-x="712" 
d="M530 0v449l-450 -479v697h102v-451l450 479v-695h-102zM191 832l80 35.998c4.66699 -17.333 14.5 -31.166 29.5 -41.499s33.5 -15.166 55.5 -14.499c21.333 0 39.5 5 54.5 15s25.167 23.667 30.5 41l80 -36c-12 -31.333 -32.5 -56.166 -61.5 -74.499
s-63.5 -27.5 -103.5 -27.5c-40.667 0 -75.5 9.16699 -104.5 27.5s-49.167 43.166 -60.5 74.499z" />
    <glyph glyph-name="afii10028" unicode="&#xca;" horiz-adv-x="586" 
d="M182 667v-266l258 266h134l-301 -302l303 -365h-136l-238 296l-20 -20v-276h-102v667h102z" />
    <glyph glyph-name="afii10028" unicode="&#x41a;" horiz-adv-x="586" 
d="M182 667v-266l258 266h134l-301 -302l303 -365h-136l-238 296l-20 -20v-276h-102v667h102z" />
    <glyph glyph-name="afii10029" unicode="&#xcb;" horiz-adv-x="650" 
d="M144 667h426v-667h-102v571h-222v-332c-0.666992 -59.333 -6.16699 -103.666 -16.5 -132.999s-26.833 -53.333 -49.5 -72c-16.667 -14 -35.5 -24.167 -56.5 -30.5s-42.5 -9.5 -64.5 -9.5l-23 2c-7.33301 0.666992 -14.666 2 -21.999 4v94
c6 -2.66699 12.167 -4.33398 18.5 -5.00098s12.5 -1 18.5 -1c12 0 23.167 2 33.5 6s19.166 9.66699 26.499 17c10.667 10.667 18.667 26.167 24 46.5s8.33301 57.5 9 111.5v398z" />
    <glyph glyph-name="afii10029" unicode="&#x41b;" horiz-adv-x="650" 
d="M144 667h426v-667h-102v571h-222v-332c-0.666992 -59.333 -6.16699 -103.666 -16.5 -132.999s-26.833 -53.333 -49.5 -72c-16.667 -14 -35.5 -24.167 -56.5 -30.5s-42.5 -9.5 -64.5 -9.5l-23 2c-7.33301 0.666992 -14.666 2 -21.999 4v94
c6 -2.66699 12.167 -4.33398 18.5 -5.00098s12.5 -1 18.5 -1c12 0 23.167 2 33.5 6s19.166 9.66699 26.499 17c10.667 10.667 18.667 26.167 24 46.5s8.33301 57.5 9 111.5v398z" />
    <glyph glyph-name="afii10030" unicode="&#xcc;" horiz-adv-x="852" 
d="M164 0h-104l140 717l232 -518l234 518l126 -717h-104l-68 402l-194 -433l-192 434z" />
    <glyph glyph-name="afii10030" unicode="&#x41c;" horiz-adv-x="852" 
d="M164 0h-104l140 717l232 -518l234 518l126 -717h-104l-68 402l-194 -433l-192 434z" />
    <glyph glyph-name="afii10031" unicode="&#xcd;" horiz-adv-x="650" 
d="M182 667v-260h286v260h102v-667h-102v311h-286v-311h-102v667h102z" />
    <glyph glyph-name="afii10031" unicode="&#x41d;" horiz-adv-x="650" 
d="M182 667v-260h286v260h102v-667h-102v311h-286v-311h-102v667h102z" />
    <glyph glyph-name="afii10032" unicode="&#xce;" horiz-adv-x="790" 
d="M395 679c99.333 0 182 -33.167 248 -99.5s99 -148.5 99 -246.5c0 -98.667 -33 -181 -99 -247s-148.667 -99 -248 -99c-100 0 -182.833 33 -248.5 99s-98.5 148.333 -98.5 247c0 98 32.833 180 98.5 246s148.5 99.333 248.5 100zM395 81c71.333 0 130 23.5 176 70.5
s69 107.5 69 181.5c0 73.333 -23 133.666 -69 180.999s-104.667 71 -176 71c-72 0 -130.833 -23.667 -176.5 -71s-68.5 -107.666 -68.5 -180.999c0 -74 22.833 -134.5 68.5 -181.5s104.5 -70.5 176.5 -70.5z" />
    <glyph glyph-name="afii10032" unicode="&#x41e;" horiz-adv-x="790" 
d="M395 679c99.333 0 182 -33.167 248 -99.5s99 -148.5 99 -246.5c0 -98.667 -33 -181 -99 -247s-148.667 -99 -248 -99c-100 0 -182.833 33 -248.5 99s-98.5 148.333 -98.5 247c0 98 32.833 180 98.5 246s148.5 99.333 248.5 100zM395 81c71.333 0 130 23.5 176 70.5
s69 107.5 69 181.5c0 73.333 -23 133.666 -69 180.999s-104.667 71 -176 71c-72 0 -130.833 -23.667 -176.5 -71s-68.5 -107.666 -68.5 -180.999c0 -74 22.833 -134.5 68.5 -181.5s104.5 -70.5 176.5 -70.5z" />
    <glyph glyph-name="afii10033" unicode="&#xcf;" horiz-adv-x="650" 
d="M80 667h490v-667h-102v571h-286v-571h-102v667z" />
    <glyph glyph-name="afii10033" unicode="&#x41f;" horiz-adv-x="650" 
d="M80 667h490v-667h-102v571h-286v-571h-102v667z" />
    <glyph glyph-name="afii10034" unicode="&#xd0;" horiz-adv-x="480" 
d="M80 667h147c32 -0.666992 59.833 -4 83.5 -10s44.5 -14.667 62.5 -26c26.667 -18 47.167 -41.5 61.5 -70.5s21.5 -59.5 21.5 -91.5c-0.666992 -28.667 -6.16699 -55.5 -16.5 -80.5s-26.5 -46.833 -48.5 -65.5c-20 -16.667 -43 -29.5 -69 -38.5s-57.333 -13.5 -94 -13.5
h-46v-271h-102v667zM182 573v-208h46c42 -0.666992 74.167 8.5 96.5 27.5s33.5 44.833 33.5 77.5c0 33.333 -11.5 58.833 -34.5 76.5s-55.167 26.5 -96.5 26.5h-45z" />
    <glyph glyph-name="afii10034" unicode="&#x420;" horiz-adv-x="480" 
d="M80 667h147c32 -0.666992 59.833 -4 83.5 -10s44.5 -14.667 62.5 -26c26.667 -18 47.167 -41.5 61.5 -70.5s21.5 -59.5 21.5 -91.5c-0.666992 -28.667 -6.16699 -55.5 -16.5 -80.5s-26.5 -46.833 -48.5 -65.5c-20 -16.667 -43 -29.5 -69 -38.5s-57.333 -13.5 -94 -13.5
h-46v-271h-102v667zM182 573v-208h46c42 -0.666992 74.167 8.5 96.5 27.5s33.5 44.833 33.5 77.5c0 33.333 -11.5 58.833 -34.5 76.5s-55.167 26.5 -96.5 26.5h-45z" />
    <glyph glyph-name="afii10035" unicode="&#xd1;" horiz-adv-x="620" 
d="M574 631l-0.00292969 -120.003c-26.667 24 -55 42.333 -85 55s-62 19 -96 19c-72 0 -130.667 -24 -176 -72s-67.666 -108.667 -66.999 -182c0 -71.333 22.833 -130.833 68.5 -178.5s104.167 -71.5 175.5 -71.5c32.667 -0.666992 64.334 5.83301 95.001 19.5
s59 32.834 85 57.501v-121c-28 -16.667 -57.833 -29.167 -89.5 -37.5s-62.834 -12.5 -93.501 -12.5c-44 0 -86.167 7.5 -126.5 22.5s-76.833 38.167 -109.5 69.5c-38 35.333 -65.5 73.833 -82.5 115.5s-25.167 87.167 -24.5 136.5c0 51.333 9 99.333 27 144
s44.667 83.667 80 117c32.667 30.667 68.834 52.834 108.501 66.501s83.834 20.5 132.501 20.5c36 0 68.333 -4.16699 97 -12.5s55.667 -20.166 81 -35.499z" />
    <glyph glyph-name="afii10035" unicode="&#x421;" horiz-adv-x="620" 
d="M574 631l-0.00292969 -120.003c-26.667 24 -55 42.333 -85 55s-62 19 -96 19c-72 0 -130.667 -24 -176 -72s-67.666 -108.667 -66.999 -182c0 -71.333 22.833 -130.833 68.5 -178.5s104.167 -71.5 175.5 -71.5c32.667 -0.666992 64.334 5.83301 95.001 19.5
s59 32.834 85 57.501v-121c-28 -16.667 -57.833 -29.167 -89.5 -37.5s-62.834 -12.5 -93.501 -12.5c-44 0 -86.167 7.5 -126.5 22.5s-76.833 38.167 -109.5 69.5c-38 35.333 -65.5 73.833 -82.5 115.5s-25.167 87.167 -24.5 136.5c0 51.333 9 99.333 27 144
s44.667 83.667 80 117c32.667 30.667 68.834 52.834 108.501 66.501s83.834 20.5 132.501 20.5c36 0 68.333 -4.16699 97 -12.5s55.667 -20.166 81 -35.499z" />
    <glyph glyph-name="afii10036" unicode="&#xd2;" horiz-adv-x="428" 
d="M418 571h-153v-571h-102v571h-153v96h408v-96z" />
    <glyph glyph-name="afii10036" unicode="&#x422;" horiz-adv-x="428" 
d="M418 571h-153v-571h-102v571h-153v96h408v-96z" />
    <glyph glyph-name="afii10037" unicode="&#xd3;" horiz-adv-x="570" 
d="M6 667h124l175 -346l153 346h106l-301 -667h-106l90 199z" />
    <glyph glyph-name="afii10037" unicode="&#x423;" horiz-adv-x="570" 
d="M6 667h124l175 -346l153 346h106l-301 -667h-106l90 199z" />
    <glyph glyph-name="afii10038" unicode="&#xd4;" horiz-adv-x="826" 
d="M362 0v94h-18c-89.333 -0.666992 -161 21.166 -215 65.499s-81 109.166 -81 194.499c0 84.667 27 149 81 193s125.667 66.333 215 67h18v80h102v-80h18c88.667 -0.666992 160.167 -23 214.5 -67s81.5 -108.333 81.5 -193c0 -85.333 -27.167 -150.166 -81.5 -194.499
s-125.833 -66.166 -214.5 -65.499h-18v-94h-102zM362 188l0.000976562 331.999h-20c-64 -0.666992 -112 -16.167 -144 -46.5s-48 -70.166 -48 -119.499c-0.666992 -50 15.166 -90.167 47.499 -120.5s80.5 -45.5 144.5 -45.5h20zM464.001 519.999v-332h20
c63.333 0 111 15.167 143 45.5s48.333 70.5 49 120.5c-0.666992 49.333 -17 89.333 -49 120s-79.667 46 -143 46h-20z" />
    <glyph glyph-name="afii10038" unicode="&#x424;" horiz-adv-x="826" 
d="M362 0v94h-18c-89.333 -0.666992 -161 21.166 -215 65.499s-81 109.166 -81 194.499c0 84.667 27 149 81 193s125.667 66.333 215 67h18v80h102v-80h18c88.667 -0.666992 160.167 -23 214.5 -67s81.5 -108.333 81.5 -193c0 -85.333 -27.167 -150.166 -81.5 -194.499
s-125.833 -66.166 -214.5 -65.499h-18v-94h-102zM362 188l0.000976562 331.999h-20c-64 -0.666992 -112 -16.167 -144 -46.5s-48 -70.166 -48 -119.499c-0.666992 -50 15.166 -90.167 47.499 -120.5s80.5 -45.5 144.5 -45.5h20zM464.001 519.999v-332h20
c63.333 0 111 15.167 143 45.5s48.333 70.5 49 120.5c-0.666992 49.333 -17 89.333 -49 120s-79.667 46 -143 46h-20z" />
    <glyph glyph-name="afii10039" unicode="&#xd5;" horiz-adv-x="546" 
d="M10 0l210 348l-184 319h114l130 -226l133 226h114l-192 -319l201 -348h-114l-146 255l-152 -255h-114z" />
    <glyph glyph-name="afii10039" unicode="&#x425;" horiz-adv-x="546" 
d="M10 0l210 348l-184 319h114l130 -226l133 226h114l-192 -319l201 -348h-114l-146 255l-152 -255h-114z" />
    <glyph glyph-name="afii10040" unicode="&#xd6;" horiz-adv-x="660" 
d="M80 0v667h102v-571h276v571h102v-571h86v-246h-96v150h-470z" />
    <glyph glyph-name="afii10040" unicode="&#x426;" horiz-adv-x="660" 
d="M80 0v667h102v-571h276v571h102v-571h86v-246h-96v150h-470z" />
    <glyph glyph-name="afii10041" unicode="&#xd7;" horiz-adv-x="606" 
d="M424 0l0.00488281 274c-20.667 -2 -44.834 -3.66699 -72.501 -5s-48.834 -2 -63.501 -2c-38.667 0 -71.334 3.33301 -98.001 10s-48.334 17 -65.001 31c-22.667 17.333 -39.167 39.666 -49.5 66.999s-15.5 59 -15.5 95v197h102v-182c0 -30 3 -52.5 9 -67.5
s15 -26.833 27 -35.5c9.33301 -8 22.166 -13.667 38.499 -17s38.833 -4.66602 67.5 -3.99902c21.333 0 41.833 0.5 61.5 1.5s39.167 2.83301 58.5 5.5v299h102v-667h-102z" />
    <glyph glyph-name="afii10041" unicode="&#x427;" horiz-adv-x="606" 
d="M424 0l0.00488281 274c-20.667 -2 -44.834 -3.66699 -72.501 -5s-48.834 -2 -63.501 -2c-38.667 0 -71.334 3.33301 -98.001 10s-48.334 17 -65.001 31c-22.667 17.333 -39.167 39.666 -49.5 66.999s-15.5 59 -15.5 95v197h102v-182c0 -30 3 -52.5 9 -67.5
s15 -26.833 27 -35.5c9.33301 -8 22.166 -13.667 38.499 -17s38.833 -4.66602 67.5 -3.99902c21.333 0 41.833 0.5 61.5 1.5s39.167 2.83301 58.5 5.5v299h102v-667h-102z" />
    <glyph glyph-name="afii10042" unicode="&#xd8;" horiz-adv-x="938" 
d="M80 0v667h102v-571h236v571h102v-571h236v571h102v-667h-778z" />
    <glyph glyph-name="afii10042" unicode="&#x428;" horiz-adv-x="938" 
d="M80 0v667h102v-571h236v571h102v-571h236v571h102v-667h-778z" />
    <glyph glyph-name="afii10043" unicode="&#xd9;" horiz-adv-x="958" 
d="M80 0v667h102v-571h236v571h102v-571h236v571h102v-571h86v-246h-96v150h-768z" />
    <glyph glyph-name="afii10043" unicode="&#x429;" horiz-adv-x="958" 
d="M80 0v667h102v-571h236v571h102v-571h236v571h102v-571h86v-246h-96v150h-768z" />
    <glyph glyph-name="afii10044" unicode="&#xda;" horiz-adv-x="592" 
d="M160 0l0.00292969 571h-150v96h252v-269h76c33.333 0 64.166 -4.33301 92.499 -13s53.166 -22 74.499 -40c19.333 -17.333 34.666 -38.833 45.999 -64.5s17 -53.167 17 -82.5c0 -32.667 -7.16699 -63.5 -21.5 -92.5s-34.833 -52.167 -61.5 -69.5
c-18 -12 -38.833 -21 -62.5 -27s-51.5 -9 -83.5 -9h-179zM262.003 302l-0.000976562 -206h72c45.333 -0.666992 78.833 8 100.5 26s32.834 43 33.501 75c0 32.667 -11 58.167 -33 76.5s-55 27.833 -99 28.5h-74z" />
    <glyph glyph-name="afii10044" unicode="&#x42a;" horiz-adv-x="592" 
d="M160 0l0.00292969 571h-150v96h252v-269h76c33.333 0 64.166 -4.33301 92.499 -13s53.166 -22 74.499 -40c19.333 -17.333 34.666 -38.833 45.999 -64.5s17 -53.167 17 -82.5c0 -32.667 -7.16699 -63.5 -21.5 -92.5s-34.833 -52.167 -61.5 -69.5
c-18 -12 -38.833 -21 -62.5 -27s-51.5 -9 -83.5 -9h-179zM262.003 302l-0.000976562 -206h72c45.333 -0.666992 78.833 8 100.5 26s32.834 43 33.501 75c0 32.667 -11 58.167 -33 76.5s-55 27.833 -99 28.5h-74z" />
    <glyph glyph-name="afii10045" unicode="&#xdb;" horiz-adv-x="740" 
d="M80 0l0.00292969 667h102v-269h76c33.333 -0.666992 64.166 -5.16699 92.499 -13.5s53.166 -21.5 74.499 -39.5c19.333 -17.333 34.666 -38.833 45.999 -64.5s17 -53.167 17 -82.5c0 -32.667 -7.16699 -63.5 -21.5 -92.5s-34.833 -52.167 -61.5 -69.5
c-18 -12 -38.833 -21 -62.5 -27s-51.5 -9 -83.5 -9h-179zM182.003 302v-206.001h72c45.333 -0.666992 79 8 101 26s33 43 33 75c0 32.667 -11 58.334 -33 77.001s-55 28 -99 28h-74zM558.003 666.999h102v-667h-102v667z" />
    <glyph glyph-name="afii10045" unicode="&#x42b;" horiz-adv-x="740" 
d="M80 0l0.00292969 667h102v-269h76c33.333 -0.666992 64.166 -5.16699 92.499 -13.5s53.166 -21.5 74.499 -39.5c19.333 -17.333 34.666 -38.833 45.999 -64.5s17 -53.167 17 -82.5c0 -32.667 -7.16699 -63.5 -21.5 -92.5s-34.833 -52.167 -61.5 -69.5
c-18 -12 -38.833 -21 -62.5 -27s-51.5 -9 -83.5 -9h-179zM182.003 302v-206.001h72c45.333 -0.666992 79 8 101 26s33 43 33 75c0 32.667 -11 58.334 -33 77.001s-55 28 -99 28h-74zM558.003 666.999h102v-667h-102v667z" />
    <glyph glyph-name="afii10046" unicode="&#xdc;" horiz-adv-x="512" 
d="M80 0l0.00292969 667h102v-269h76c33.333 -0.666992 64.166 -5.16699 92.499 -13.5s53.166 -21.5 74.499 -39.5c19.333 -17.333 34.666 -38.833 45.999 -64.5s17 -53.167 17 -82.5c0 -32.667 -7.16699 -63.5 -21.5 -92.5s-34.833 -52.167 -61.5 -69.5
c-18 -12 -38.833 -21 -62.5 -27s-51.5 -9 -83.5 -9h-179zM182.003 302v-206.001h72c45.333 -0.666992 79 8 101 26s33 43 33 75c0 32.667 -11 58.334 -33 77.001s-55 28 -99 28h-74z" />
    <glyph glyph-name="afii10046" unicode="&#x42c;" horiz-adv-x="512" 
d="M80 0l0.00292969 667h102v-269h76c33.333 -0.666992 64.166 -5.16699 92.499 -13.5s53.166 -21.5 74.499 -39.5c19.333 -17.333 34.666 -38.833 45.999 -64.5s17 -53.167 17 -82.5c0 -32.667 -7.16699 -63.5 -21.5 -92.5s-34.833 -52.167 -61.5 -69.5
c-18 -12 -38.833 -21 -62.5 -27s-51.5 -9 -83.5 -9h-179zM182.003 302v-206.001h72c45.333 -0.666992 79 8 101 26s33 43 33 75c0 32.667 -11 58.334 -33 77.001s-55 28 -99 28h-74z" />
    <glyph glyph-name="afii10047" unicode="&#xdd;" horiz-adv-x="622" 
d="M48 511l0.00292969 119.998c26 16 54.333 28 85 36s65.667 12 105 12c49.333 0 93.5 -7.16699 132.5 -21.5s73.833 -36.166 104.5 -65.499c33.333 -32.667 58.166 -71.167 74.499 -115.5s24.5 -92.833 24.5 -145.5c0 -54.667 -8.66699 -102.667 -26 -144
s-41.666 -77.333 -72.999 -108c-33.333 -33.333 -69.5 -57 -108.5 -71s-81.833 -21 -128.5 -21c-34.667 0 -67.834 4 -99.501 12s-61.834 20.667 -90.501 38v121c26 -25.333 54.667 -44.5 86 -57.5s63.666 -19.5 96.999 -19.5c38 0 72.5 6.33301 103.5 19s56.5 30 76.5 52
c16 17.333 29.167 38.333 39.5 63s16.5 51 18.5 79h-331v96h328c-4 25.333 -11.333 49.333 -22 72s-23.667 42.334 -39 59.001c-20.667 20.667 -44.5 36.5 -71.5 47.5s-59.167 16.5 -96.5 16.5s-71.333 -6.5 -102 -19.5s-59.667 -31.167 -87 -54.5z" />
    <glyph glyph-name="afii10047" unicode="&#x42d;" horiz-adv-x="622" 
d="M48 511l0.00292969 119.998c26 16 54.333 28 85 36s65.667 12 105 12c49.333 0 93.5 -7.16699 132.5 -21.5s73.833 -36.166 104.5 -65.499c33.333 -32.667 58.166 -71.167 74.499 -115.5s24.5 -92.833 24.5 -145.5c0 -54.667 -8.66699 -102.667 -26 -144
s-41.666 -77.333 -72.999 -108c-33.333 -33.333 -69.5 -57 -108.5 -71s-81.833 -21 -128.5 -21c-34.667 0 -67.834 4 -99.501 12s-61.834 20.667 -90.501 38v121c26 -25.333 54.667 -44.5 86 -57.5s63.666 -19.5 96.999 -19.5c38 0 72.5 6.33301 103.5 19s56.5 30 76.5 52
c16 17.333 29.167 38.333 39.5 63s16.5 51 18.5 79h-331v96h328c-4 25.333 -11.333 49.333 -22 72s-23.667 42.334 -39 59.001c-20.667 20.667 -44.5 36.5 -71.5 47.5s-59.167 16.5 -96.5 16.5s-71.333 -6.5 -102 -19.5s-59.667 -31.167 -87 -54.5z" />
    <glyph glyph-name="afii10048" unicode="&#xde;" horiz-adv-x="1000" 
d="M182 402h100c5.33301 34.667 15.666 67 30.999 97s34.666 57 57.999 81c31.333 32.667 67.666 57.167 108.999 73.5s86.333 24.833 135 25.5c96.667 0 176.834 -33.167 240.501 -99.5s95.834 -148.5 96.501 -246.5c0 -98.667 -32 -181 -96 -247s-144.333 -99 -241 -99
c-56 0.666992 -106.167 11 -150.5 31s-81.166 48.667 -110.499 86c-23.333 28 -41 59.5 -53 94.5s-18.333 70.833 -19 107.5h-100v-306h-102v667h102v-265zM615 81c68.667 0 125.002 23.5 169.002 70.5s66 107.5 66 181.5c-0.666992 73.333 -22.834 133.666 -66.501 180.999
s-99.834 71 -168.501 71c-69.333 0 -125.833 -23.667 -169.5 -71s-65.5 -107.666 -65.5 -180.999c-0.666992 -74 21 -134.5 65 -181.5s100.667 -70.5 170 -70.5z" />
    <glyph glyph-name="afii10048" unicode="&#x42e;" horiz-adv-x="1000" 
d="M182 402h100c5.33301 34.667 15.666 67 30.999 97s34.666 57 57.999 81c31.333 32.667 67.666 57.167 108.999 73.5s86.333 24.833 135 25.5c96.667 0 176.834 -33.167 240.501 -99.5s95.834 -148.5 96.501 -246.5c0 -98.667 -32 -181 -96 -247s-144.333 -99 -241 -99
c-56 0.666992 -106.167 11 -150.5 31s-81.166 48.667 -110.499 86c-23.333 28 -41 59.5 -53 94.5s-18.333 70.833 -19 107.5h-100v-306h-102v667h102v-265zM615 81c68.667 0 125.002 23.5 169.002 70.5s66 107.5 66 181.5c-0.666992 73.333 -22.834 133.666 -66.501 180.999
s-99.834 71 -168.501 71c-69.333 0 -125.833 -23.667 -169.5 -71s-65.5 -107.666 -65.5 -180.999c-0.666992 -74 21 -134.5 65 -181.5s100.667 -70.5 170 -70.5z" />
    <glyph glyph-name="afii10049" unicode="&#xdf;" horiz-adv-x="534" 
d="M20 0l198.001 278.001c-18 2 -36.167 6.83301 -54.5 14.5s-34.5 17.834 -48.5 30.501c-20 16.667 -34.5 36.667 -43.5 60s-13.5 50.666 -13.5 81.999c0 29.333 4.16699 55.166 12.5 77.499s21.166 42.833 38.499 61.5c20.667 22 45 38 73 48s64 15 108 15h164v-667h-102
v267h-24l-182 -267h-126zM352.001 573.001h-50.001c-30 -0.666992 -53.667 -3.33398 -71 -8.00098s-31.666 -12.334 -42.999 -23.001c-10 -9.33301 -18 -20.666 -24 -33.999s-8.66699 -27.666 -8 -42.999c0 -18.667 3.33301 -34.667 10 -48s16 -24 28 -32
c10.667 -8 25.167 -14 43.5 -18s37.833 -6 58.5 -6h56v212z" />
    <glyph glyph-name="afii10049" unicode="&#x42f;" horiz-adv-x="534" 
d="M20 0l198.001 278.001c-18 2 -36.167 6.83301 -54.5 14.5s-34.5 17.834 -48.5 30.501c-20 16.667 -34.5 36.667 -43.5 60s-13.5 50.666 -13.5 81.999c0 29.333 4.16699 55.166 12.5 77.499s21.166 42.833 38.499 61.5c20.667 22 45 38 73 48s64 15 108 15h164v-667h-102
v267h-24l-182 -267h-126zM352.001 573.001h-50.001c-30 -0.666992 -53.667 -3.33398 -71 -8.00098s-31.666 -12.334 -42.999 -23.001c-10 -9.33301 -18 -20.666 -24 -33.999s-8.66699 -27.666 -8 -42.999c0 -18.667 3.33301 -34.667 10 -48s16 -24 28 -32
c10.667 -8 25.167 -14 43.5 -18s37.833 -6 58.5 -6h56v212z" />
    <glyph glyph-name="afii10065" unicode="&#xe0;" horiz-adv-x="530" 
d="M370 372v49.002h98v-421h-98v44c-16 -18.667 -34.667 -32.834 -56 -42.501s-44.666 -14.5 -69.999 -14.5c-62.667 0 -112.334 21.833 -149.001 65.5s-55 96.5 -55 158.5c0 66 19.667 119.333 59 160s88 61 146 61c26 0 49.667 -5.33301 71 -16s39.333 -25.334 54 -44.001
zM257 344.002c-35.333 0 -63.667 -13 -85 -39s-32 -58 -32 -96c-0.666992 -38 9.83301 -69.833 31.5 -95.5s50.167 -38.5 85.5 -38.5c32.667 0 60.667 11.667 84 35s35 56 35 98c0 43.333 -11.667 76.833 -35 100.5s-51.333 35.5 -84 35.5z" />
    <glyph glyph-name="afii10065" unicode="&#x430;" horiz-adv-x="530" 
d="M370 372v49.002h98v-421h-98v44c-16 -18.667 -34.667 -32.834 -56 -42.501s-44.666 -14.5 -69.999 -14.5c-62.667 0 -112.334 21.833 -149.001 65.5s-55 96.5 -55 158.5c0 66 19.667 119.333 59 160s88 61 146 61c26 0 49.667 -5.33301 71 -16s39.333 -25.334 54 -44.001
zM257 344.002c-35.333 0 -63.667 -13 -85 -39s-32 -58 -32 -96c-0.666992 -38 9.83301 -69.833 31.5 -95.5s50.167 -38.5 85.5 -38.5c32.667 0 60.667 11.667 84 35s35 56 35 98c0 43.333 -11.667 76.833 -35 100.5s-51.333 35.5 -84 35.5z" />
    <glyph glyph-name="afii10066" unicode="&#xe1;" horiz-adv-x="530" 
d="M380 710l100 0.00488281c-7.33301 -34.667 -22.833 -64.834 -46.5 -90.501s-52.167 -42.834 -85.5 -51.501l-66 -18c-32 -8.66699 -55.5 -17.667 -70.5 -27s-27.833 -21.333 -38.5 -36c-10 -13.333 -18.167 -30.5 -24.5 -51.5s-9.83301 -41.833 -10.5 -62.5h1
c13.333 18 32 32.333 56 43s53 16 87 16c30.667 0 58.167 -5.33301 82.5 -16s45.833 -25.334 64.5 -44.001c18.667 -20 33.5 -43.5 44.5 -70.5s16.5 -56.833 16.5 -89.5c0 -66 -21.5 -119.833 -64.5 -161.5s-96.5 -62.834 -160.5 -63.501
c-31.333 0 -60.166 4.83301 -86.499 14.5s-48.833 23.5 -67.5 41.5c-25.333 22.667 -43.5 51 -54.5 85s-16.5 77.667 -16.5 131c0 65.333 4.83301 121.166 14.5 167.499s26.167 86.833 49.5 121.5c15.333 23.333 33.166 42.333 53.499 57s44.5 25.667 72.5 33l70 17
c22 5.33301 39.667 12.333 53 21s22.333 20 27 34zM265 75.0049c38 0 68.333 12 91 36s34 56.667 34 98c0 40 -11.333 72.5 -34 97.5s-53 37.5 -91 37.5c-38.667 0 -69.167 -12.5 -91.5 -37.5s-33.5 -57.5 -33.5 -97.5c0 -41.333 11.167 -74 33.5 -98s52.833 -36 91.5 -36z
" />
    <glyph glyph-name="afii10066" unicode="&#x431;" horiz-adv-x="530" 
d="M380 710l100 0.00488281c-7.33301 -34.667 -22.833 -64.834 -46.5 -90.501s-52.167 -42.834 -85.5 -51.501l-66 -18c-32 -8.66699 -55.5 -17.667 -70.5 -27s-27.833 -21.333 -38.5 -36c-10 -13.333 -18.167 -30.5 -24.5 -51.5s-9.83301 -41.833 -10.5 -62.5h1
c13.333 18 32 32.333 56 43s53 16 87 16c30.667 0 58.167 -5.33301 82.5 -16s45.833 -25.334 64.5 -44.001c18.667 -20 33.5 -43.5 44.5 -70.5s16.5 -56.833 16.5 -89.5c0 -66 -21.5 -119.833 -64.5 -161.5s-96.5 -62.834 -160.5 -63.501
c-31.333 0 -60.166 4.83301 -86.499 14.5s-48.833 23.5 -67.5 41.5c-25.333 22.667 -43.5 51 -54.5 85s-16.5 77.667 -16.5 131c0 65.333 4.83301 121.166 14.5 167.499s26.167 86.833 49.5 121.5c15.333 23.333 33.166 42.333 53.499 57s44.5 25.667 72.5 33l70 17
c22 5.33301 39.667 12.333 53 21s22.333 20 27 34zM265 75.0049c38 0 68.333 12 91 36s34 56.667 34 98c0 40 -11.333 72.5 -34 97.5s-53 37.5 -91 37.5c-38.667 0 -69.167 -12.5 -91.5 -37.5s-33.5 -57.5 -33.5 -97.5c0 -41.333 11.167 -74 33.5 -98s52.833 -36 91.5 -36z
" />
    <glyph glyph-name="afii10067" unicode="&#xe2;" horiz-adv-x="442" 
d="M62 421l165 0.00488281c22.667 -0.666992 41.334 -2.83398 56.001 -6.50098s28 -9.83398 40 -18.501c12.667 -10 22.334 -22 29.001 -36s10 -29 10 -45c-0.666992 -18 -5.16699 -34.167 -13.5 -48.5s-20.5 -25.5 -36.5 -33.5c10 -2.66699 20 -6.33398 30 -11.001
s19 -10.334 27 -17.001c10.667 -10.667 18.667 -22.834 24 -36.501s8.33301 -28.5 9 -44.5c0 -21.333 -4.16699 -40 -12.5 -56s-19.5 -29.333 -33.5 -40c-12.667 -10 -27.334 -17.167 -44.001 -21.5s-34.334 -6.5 -53.001 -6.5h-197v421zM160 257.005h49.999
c7.33301 0 14.333 0.666992 21 2s12.667 3.66602 18 6.99902c6 3.33301 10.667 8 14 14s5 12.667 5 20c0 6.66699 -1.66699 12.834 -5 18.501s-7.33301 10.5 -12 14.5c-4.66699 2.66699 -9.66699 4.66699 -15 6s-14.666 2 -27.999 2h-48v-84zM159.999 80.0049
l73 -0.000976562c10.667 0 20.167 0.833008 28.5 2.5s15.833 4.83398 22.5 9.50098c6 4 10.833 9.16699 14.5 15.5s5.5 13.5 5.5 21.5c-0.666992 7.33301 -2.5 14.166 -5.5 20.499s-7.5 11.833 -13.5 16.5c-6 3.33301 -12.833 5.83301 -20.5 7.5
s-17.167 2.83398 -28.5 3.50098h-76v-97z" />
    <glyph glyph-name="afii10067" unicode="&#x432;" horiz-adv-x="442" 
d="M62 421l165 0.00488281c22.667 -0.666992 41.334 -2.83398 56.001 -6.50098s28 -9.83398 40 -18.501c12.667 -10 22.334 -22 29.001 -36s10 -29 10 -45c-0.666992 -18 -5.16699 -34.167 -13.5 -48.5s-20.5 -25.5 -36.5 -33.5c10 -2.66699 20 -6.33398 30 -11.001
s19 -10.334 27 -17.001c10.667 -10.667 18.667 -22.834 24 -36.501s8.33301 -28.5 9 -44.5c0 -21.333 -4.16699 -40 -12.5 -56s-19.5 -29.333 -33.5 -40c-12.667 -10 -27.334 -17.167 -44.001 -21.5s-34.334 -6.5 -53.001 -6.5h-197v421zM160 257.005h49.999
c7.33301 0 14.333 0.666992 21 2s12.667 3.66602 18 6.99902c6 3.33301 10.667 8 14 14s5 12.667 5 20c0 6.66699 -1.66699 12.834 -5 18.501s-7.33301 10.5 -12 14.5c-4.66699 2.66699 -9.66699 4.66699 -15 6s-14.666 2 -27.999 2h-48v-84zM159.999 80.0049
l73 -0.000976562c10.667 0 20.167 0.833008 28.5 2.5s15.833 4.83398 22.5 9.50098c6 4 10.833 9.16699 14.5 15.5s5.5 13.5 5.5 21.5c-0.666992 7.33301 -2.5 14.166 -5.5 20.499s-7.5 11.833 -13.5 16.5c-6 3.33301 -12.833 5.83301 -20.5 7.5
s-17.167 2.83398 -28.5 3.50098h-76v-97z" />
    <glyph glyph-name="glyph146" unicode="&#xe3;" horiz-adv-x="328" 
d="M62 0v421h258v-90h-160v-331h-98z" />
    <glyph glyph-name="glyph146" unicode="&#x433;" horiz-adv-x="328" 
d="M62 0v421h258v-90h-160v-331h-98z" />
    <glyph glyph-name="afii10069" unicode="&#xe4;" horiz-adv-x="486" 
d="M98 421l316 -0.00292969v-331h64v-210h-90v120h-294v-120h-90v210c16 0.666992 30.833 5.83398 44.5 15.501s24.5 22.834 32.5 39.501c6 12 10.333 26.833 13 44.5s4 39.834 4 66.501v165zM316 89.9971v241h-124v-112c0 -30.667 -4.16699 -56.667 -12.5 -78
s-20.5 -38.333 -36.5 -51h173z" />
    <glyph glyph-name="afii10069" unicode="&#x434;" horiz-adv-x="486" 
d="M98 421l316 -0.00292969v-331h64v-210h-90v120h-294v-120h-90v210c16 0.666992 30.833 5.83398 44.5 15.501s24.5 22.834 32.5 39.501c6 12 10.333 26.833 13 44.5s4 39.834 4 66.501v165zM316 89.9971v241h-124v-112c0 -30.667 -4.16699 -56.667 -12.5 -78
s-20.5 -38.333 -36.5 -51h173z" />
    <glyph glyph-name="afii10070" unicode="&#xe5;" horiz-adv-x="486" 
d="M364 156l82 -46.001c-7.33301 -13.333 -15.833 -26.5 -25.5 -39.5s-19.5 -23.833 -29.5 -32.5c-19.333 -17.333 -41.666 -30.166 -66.999 -38.499s-50 -12.5 -74 -12.5c-64.667 0.666992 -115.834 21.5 -153.501 62.5s-56.5 93.833 -56.5 158.5
c0 66 18.667 119.833 56 161.5s87 62.5 149 62.5c32 0 61.833 -6.5 89.5 -19.5s50.5 -32.167 68.5 -57.5c12.667 -18.667 22.167 -41.167 28.5 -67.5s9.83301 -54.833 10.5 -85.5v-15h-302c0.666992 -32.667 11.667 -59.5 33 -80.5s48.333 -31.5 81 -31.5
c11.333 0 22.833 1.83301 34.5 5.5s22.5 9.5 32.5 17.5c8 6 15.833 14.167 23.5 24.5s14.167 21.5 19.5 33.5zM147 266.999l195 -0.000976562c-6 23.333 -17.667 41.833 -35 55.5s-38 20.834 -62 21.501c-24 0 -44.833 -7.16699 -62.5 -21.5s-29.5 -32.833 -35.5 -55.5z" />
    <glyph glyph-name="afii10070" unicode="&#x435;" horiz-adv-x="486" 
d="M364 156l82 -46.001c-7.33301 -13.333 -15.833 -26.5 -25.5 -39.5s-19.5 -23.833 -29.5 -32.5c-19.333 -17.333 -41.666 -30.166 -66.999 -38.499s-50 -12.5 -74 -12.5c-64.667 0.666992 -115.834 21.5 -153.501 62.5s-56.5 93.833 -56.5 158.5
c0 66 18.667 119.833 56 161.5s87 62.5 149 62.5c32 0 61.833 -6.5 89.5 -19.5s50.5 -32.167 68.5 -57.5c12.667 -18.667 22.167 -41.167 28.5 -67.5s9.83301 -54.833 10.5 -85.5v-15h-302c0.666992 -32.667 11.667 -59.5 33 -80.5s48.333 -31.5 81 -31.5
c11.333 0 22.833 1.83301 34.5 5.5s22.5 9.5 32.5 17.5c8 6 15.833 14.167 23.5 24.5s14.167 21.5 19.5 33.5zM147 266.999l195 -0.000976562c-6 23.333 -17.667 41.833 -35 55.5s-38 20.834 -62 21.501c-24 0 -44.833 -7.16699 -62.5 -21.5s-29.5 -32.833 -35.5 -55.5z" />
    <glyph glyph-name="afii10072" unicode="&#xe6;" horiz-adv-x="624" 
d="M263 421h98v-156l127 156h118l-163 -192l179 -229h-122l-127 169l-12 -14v-155h-98v155l-12 14l-127 -169h-122l179 229l-163 192h118l127 -156v156z" />
    <glyph glyph-name="afii10072" unicode="&#x436;" horiz-adv-x="624" 
d="M263 421h98v-156l127 156h118l-163 -192l179 -229h-122l-127 169l-12 -14v-155h-98v155l-12 14l-127 -169h-122l179 229l-163 192h118l127 -156v156z" />
    <glyph glyph-name="afii10073" unicode="&#xe7;" horiz-adv-x="440" 
d="M127 312l-63.0039 54.998c7.33301 8 15.5 15.5 24.5 22.5s18.833 13.5 29.5 19.5c14 7.33301 29 13 45 17s34.333 6 55 6c24 0 44.667 -2.5 62 -7.5s33 -12.5 47 -22.5c14.667 -11.333 25.334 -23.666 32.001 -36.999s10.334 -27.666 11.001 -42.999
c0 -21.333 -5.33301 -39.666 -16 -54.999s-24.667 -26.666 -42 -33.999c10 -2 19.667 -5.33301 29 -10s18 -10.334 26 -17.001c10.667 -10 18.834 -21.167 24.501 -33.5s8.5 -25.833 8.5 -40.5c-0.666992 -22.667 -6.33398 -44 -17.001 -64s-24.667 -36 -42 -48
c-15.333 -10.667 -34.333 -18.667 -57 -24s-45 -8.33301 -67 -9c-22 0 -43.667 2.83301 -65 8.5s-40 14.5 -56 26.5c-11.333 7.33301 -21.833 16.833 -31.5 28.5s-17.834 23.834 -24.501 36.501l78 40c3.33301 -8.66699 7.83301 -16.667 13.5 -24s12.167 -13.333 19.5 -18
c8.66699 -6.66699 18 -11.334 28 -14.001s21 -4 33 -4c12.667 0 24.5 1.16699 35.5 3.5s20.167 5.83301 27.5 10.5s13.333 11.167 18 19.5s7 17.833 7 28.5c0 8.66699 -1.83301 16.5 -5.5 23.5s-8.5 12.833 -14.5 17.5c-6 3.33301 -13 6 -21 8s-19.667 3 -35 3h-51v80h44
c8 0 15.833 0.833008 23.5 2.5s13.834 4.16699 18.501 7.5s8.66699 8 12 14s5 12.667 5 20s-1.66699 14.166 -5 20.499s-7.66602 11.5 -12.999 15.5c-5.33301 3.33301 -11.666 6 -18.999 8s-16 3 -26 3c-10.667 0 -20.5 -1.16699 -29.5 -3.5s-17.167 -5.5 -24.5 -9.5
c-6.66699 -3.33301 -12.667 -7.33301 -18 -12s-10 -9.66699 -14 -15z" />
    <glyph glyph-name="afii10073" unicode="&#x437;" horiz-adv-x="440" 
d="M127 312l-63.0039 54.998c7.33301 8 15.5 15.5 24.5 22.5s18.833 13.5 29.5 19.5c14 7.33301 29 13 45 17s34.333 6 55 6c24 0 44.667 -2.5 62 -7.5s33 -12.5 47 -22.5c14.667 -11.333 25.334 -23.666 32.001 -36.999s10.334 -27.666 11.001 -42.999
c0 -21.333 -5.33301 -39.666 -16 -54.999s-24.667 -26.666 -42 -33.999c10 -2 19.667 -5.33301 29 -10s18 -10.334 26 -17.001c10.667 -10 18.834 -21.167 24.501 -33.5s8.5 -25.833 8.5 -40.5c-0.666992 -22.667 -6.33398 -44 -17.001 -64s-24.667 -36 -42 -48
c-15.333 -10.667 -34.333 -18.667 -57 -24s-45 -8.33301 -67 -9c-22 0 -43.667 2.83301 -65 8.5s-40 14.5 -56 26.5c-11.333 7.33301 -21.833 16.833 -31.5 28.5s-17.834 23.834 -24.501 36.501l78 40c3.33301 -8.66699 7.83301 -16.667 13.5 -24s12.167 -13.333 19.5 -18
c8.66699 -6.66699 18 -11.334 28 -14.001s21 -4 33 -4c12.667 0 24.5 1.16699 35.5 3.5s20.167 5.83301 27.5 10.5s13.333 11.167 18 19.5s7 17.833 7 28.5c0 8.66699 -1.83301 16.5 -5.5 23.5s-8.5 12.833 -14.5 17.5c-6 3.33301 -13 6 -21 8s-19.667 3 -35 3h-51v80h44
c8 0 15.833 0.833008 23.5 2.5s13.834 4.16699 18.501 7.5s8.66699 8 12 14s5 12.667 5 20s-1.66699 14.166 -5 20.499s-7.66602 11.5 -12.999 15.5c-5.33301 3.33301 -11.666 6 -18.999 8s-16 3 -26 3c-10.667 0 -20.5 -1.16699 -29.5 -3.5s-17.167 -5.5 -24.5 -9.5
c-6.66699 -3.33301 -12.667 -7.33301 -18 -12s-10 -9.66699 -14 -15z" />
    <glyph glyph-name="afii10074" unicode="&#xe8;" horiz-adv-x="510" 
d="M62 421h98v-239l288 277v-459h-98v245l-288 -277v453z" />
    <glyph glyph-name="afii10074" unicode="&#x438;" horiz-adv-x="510" 
d="M62 421h98v-239l288 277v-459h-98v245l-288 -277v453z" />
    <glyph glyph-name="afii10075" unicode="&#xe9;" horiz-adv-x="510" 
d="M62 421h98v-239l288 277v-459h-98v245l-288 -277v453zM94 603l80.001 23c6 -21.333 15.833 -37.5 29.5 -48.5s31.167 -16.5 52.5 -16.5s38.5 5.16699 51.5 15.5s23.167 26.833 30.5 49.5l80 -23c-10 -34.667 -30.333 -63 -61 -85s-64.334 -33 -101.001 -33
c-37.333 0 -71.333 11 -102 33s-50.667 50.333 -60 85z" />
    <glyph glyph-name="afii10075" unicode="&#x439;" horiz-adv-x="510" 
d="M62 421h98v-239l288 277v-459h-98v245l-288 -277v453zM94 603l80.001 23c6 -21.333 15.833 -37.5 29.5 -48.5s31.167 -16.5 52.5 -16.5s38.5 5.16699 51.5 15.5s23.167 26.833 30.5 49.5l80 -23c-10 -34.667 -30.333 -63 -61 -85s-64.334 -33 -101.001 -33
c-37.333 0 -71.333 11 -102 33s-50.667 50.333 -60 85z" />
    <glyph glyph-name="glyph177" unicode="&#xea;" horiz-adv-x="442" 
d="M62 421h98v-150l140 150h130l-184 -184l194 -237h-124l-140 173l-16 -16v-157h-98v421z" />
    <glyph glyph-name="glyph177" unicode="&#x43a;" horiz-adv-x="442" 
d="M62 421h98v-150l140 150h130l-184 -184l194 -237h-124l-140 173l-16 -16v-157h-98v421z" />
    <glyph glyph-name="afii10077" unicode="&#xeb;" horiz-adv-x="470" 
d="M408 421l-0.000976562 -421h-98v331h-124v-167c0 -28.667 -3.5 -52.5 -10.5 -71.5s-16.833 -35.5 -29.5 -49.5c-16.667 -18 -37 -30.667 -61 -38s-49.667 -9 -77 -5v90c13.333 -3.33301 26.333 -3 39 1s22.667 10 30 18c4.66699 5.33301 8.33398 12.5 11.001 21.5
s4 20.167 4 33.5v257h316z" />
    <glyph glyph-name="afii10077" unicode="&#x43b;" horiz-adv-x="470" 
d="M408 421l-0.000976562 -421h-98v331h-124v-167c0 -28.667 -3.5 -52.5 -10.5 -71.5s-16.833 -35.5 -29.5 -49.5c-16.667 -18 -37 -30.667 -61 -38s-49.667 -9 -77 -5v90c13.333 -3.33301 26.333 -3 39 1s22.667 10 30 18c4.66699 5.33301 8.33398 12.5 11.001 21.5
s4 20.167 4 33.5v257h316z" />
    <glyph glyph-name="afii10078" unicode="&#xec;" horiz-adv-x="580" 
d="M14 0l102 459l174 -321l174 321l102 -459h-100l-42 211l-134 -243l-134 243l-42 -211h-100z" />
    <glyph glyph-name="afii10078" unicode="&#x43c;" horiz-adv-x="580" 
d="M14 0l102 459l174 -321l174 321l102 -459h-100l-42 211l-134 -243l-134 243l-42 -211h-100z" />
    <glyph glyph-name="afii10079" unicode="&#xed;" horiz-adv-x="494" 
d="M62 0v421h98v-156h174v156h98v-421h-98v175h-174v-175h-98z" />
    <glyph glyph-name="afii10079" unicode="&#x43d;" horiz-adv-x="494" 
d="M62 0v421h98v-156h174v156h98v-421h-98v175h-174v-175h-98z" />
    <glyph glyph-name="afii10080" unicode="&#xee;" horiz-adv-x="530" 
d="M265 432c64 0 117.5 -21 160.5 -63s64.5 -95 64.5 -159c0 -64.667 -21.5 -118 -64.5 -160s-96.5 -63 -160.5 -63c-64.667 0 -118.334 21 -161.001 63s-64 95.333 -64 160c0 64 21.333 117 64 159s96.334 63 161.001 63zM265 75c38 0 68.333 12 91 36s34 56.667 34 98
c0 40 -11.333 72.5 -34 97.5s-53 37.5 -91 37.5c-38.667 0 -69.167 -12.5 -91.5 -37.5s-33.5 -57.5 -33.5 -97.5c0 -41.333 11.167 -74 33.5 -98s52.833 -36 91.5 -36z" />
    <glyph glyph-name="afii10080" unicode="&#x43e;" horiz-adv-x="530" 
d="M265 432c64 0 117.5 -21 160.5 -63s64.5 -95 64.5 -159c0 -64.667 -21.5 -118 -64.5 -160s-96.5 -63 -160.5 -63c-64.667 0 -118.334 21 -161.001 63s-64 95.333 -64 160c0 64 21.333 117 64 159s96.334 63 161.001 63zM265 75c38 0 68.333 12 91 36s34 56.667 34 98
c0 40 -11.333 72.5 -34 97.5s-53 37.5 -91 37.5c-38.667 0 -69.167 -12.5 -91.5 -37.5s-33.5 -57.5 -33.5 -97.5c0 -41.333 11.167 -74 33.5 -98s52.833 -36 91.5 -36z" />
    <glyph glyph-name="afii10081" unicode="&#xef;" horiz-adv-x="490" 
d="M62 421h366v-421h-98v331h-170v-331h-98v421z" />
    <glyph glyph-name="afii10081" unicode="&#x43f;" horiz-adv-x="490" 
d="M62 421h366v-421h-98v331h-170v-331h-98v421z" />
    <glyph glyph-name="afii10082" unicode="&#xf0;" horiz-adv-x="530" 
d="M160 49l-0.000976562 -278.001h-98v650h98v-46c14.667 18 32.667 32 54 42s45 15 71 15c57.333 0 105.833 -20.167 145.5 -60.5s59.5 -93.166 59.5 -158.499c0 -68 -20.667 -122.667 -62 -164s-88.666 -62 -141.999 -62c-23.333 0 -46.333 5.33301 -69 16
s-41.667 26 -57 46zM272.999 343.999c-33.333 0 -61.5 -11.833 -84.5 -35.5s-34.5 -57.167 -34.5 -100.5c0 -42 11.5 -74.667 34.5 -98s51.167 -35 84.5 -35c34.667 0 62.834 12.833 84.501 38.5s32.5 57.5 32.5 95.5s-10.833 70 -32.5 96s-49.834 39 -84.501 39z" />
    <glyph glyph-name="afii10082" unicode="&#x440;" horiz-adv-x="530" 
d="M160 49l-0.000976562 -278.001h-98v650h98v-46c14.667 18 32.667 32 54 42s45 15 71 15c57.333 0 105.833 -20.167 145.5 -60.5s59.5 -93.166 59.5 -158.499c0 -68 -20.667 -122.667 -62 -164s-88.666 -62 -141.999 -62c-23.333 0 -46.333 5.33301 -69 16
s-41.667 26 -57 46zM272.999 343.999c-33.333 0 -61.5 -11.833 -84.5 -35.5s-34.5 -57.167 -34.5 -100.5c0 -42 11.5 -74.667 34.5 -98s51.167 -35 84.5 -35c34.667 0 62.834 12.833 84.501 38.5s32.5 57.5 32.5 95.5s-10.833 70 -32.5 96s-49.834 39 -84.501 39z" />
    <glyph glyph-name="afii10083" unicode="&#xf1;" horiz-adv-x="420" 
d="M388 402l0.000976562 -128.998c-13.333 22 -30.833 39.333 -52.5 52s-44.834 19 -69.501 19c-34 0 -63.5 -12 -88.5 -36s-37.5 -56.667 -37.5 -98c0 -38.667 11.5 -70.834 34.5 -96.501s53.167 -38.5 90.5 -38.5c24 0 47.167 6.16699 69.5 18.5
s40.166 30.166 53.499 53.499v-129c-19.333 -11.333 -38.333 -19.333 -57 -24s-38.334 -7 -59.001 -7c-37.333 0.666992 -70 5.83398 -98 15.501s-52.667 25.834 -74 48.501c-19.333 19.333 -34.166 42.166 -44.499 68.499s-15.5 56.166 -15.5 89.499
c0 34 5.83301 64.833 17.5 92.5s28.5 52.167 50.5 73.5c21.333 20 44.333 34.5 69 43.5s55.334 13.5 92.001 13.5c23.333 0 44.5 -2.5 63.5 -7.5s37.5 -12.5 55.5 -22.5z" />
    <glyph glyph-name="afii10083" unicode="&#x441;" horiz-adv-x="420" 
d="M388 402l0.000976562 -128.998c-13.333 22 -30.833 39.333 -52.5 52s-44.834 19 -69.501 19c-34 0 -63.5 -12 -88.5 -36s-37.5 -56.667 -37.5 -98c0 -38.667 11.5 -70.834 34.5 -96.501s53.167 -38.5 90.5 -38.5c24 0 47.167 6.16699 69.5 18.5
s40.166 30.166 53.499 53.499v-129c-19.333 -11.333 -38.333 -19.333 -57 -24s-38.334 -7 -59.001 -7c-37.333 0.666992 -70 5.83398 -98 15.501s-52.667 25.834 -74 48.501c-19.333 19.333 -34.166 42.166 -44.499 68.499s-15.5 56.166 -15.5 89.499
c0 34 5.83301 64.833 17.5 92.5s28.5 52.167 50.5 73.5c21.333 20 44.333 34.5 69 43.5s55.334 13.5 92.001 13.5c23.333 0 44.5 -2.5 63.5 -7.5s37.5 -12.5 55.5 -22.5z" />
    <glyph glyph-name="afii10084" unicode="&#xf2;" horiz-adv-x="360" 
d="M352 331h-123v-331h-98v331h-123v90h344v-90z" />
    <glyph glyph-name="afii10084" unicode="&#x442;" horiz-adv-x="360" 
d="M352 331h-123v-331h-98v331h-123v90h344v-90z" />
    <glyph glyph-name="glyph190" unicode="&#xf3;" horiz-adv-x="482" 
d="M31 -229l162 307l-187 343h118l124 -237l118 237h110l-335 -650h-110z" />
    <glyph glyph-name="glyph190" unicode="&#x443;" horiz-adv-x="482" 
d="M31 -229l162 307l-187 343h118l124 -237l118 237h110l-335 -650h-110z" />
    <glyph glyph-name="afii10086" unicode="&#xf4;" horiz-adv-x="670" 
d="M286 -229l0.00292969 222c-34 0 -65.833 4.33301 -95.5 13s-55.5 22.667 -77.5 42c-24 19.333 -41.833 42.833 -53.5 70.5s-17.5 58.5 -17.5 92.5c-0.666992 32 4.83301 61.833 16.5 89.5s29.5 51.834 53.5 72.501c21.333 18 46.666 31.667 75.999 41s62 14 98 14v239h98
v-239c35.333 0 67.666 -4.66699 96.999 -14s55 -23 77 -41c23.333 -20.667 40.833 -44.834 52.5 -72.501s17.5 -57.5 17.5 -89.5c0 -34 -6 -64.833 -18 -92.5s-29.667 -51.167 -53 -70.5c-22.667 -19.333 -48.834 -33.333 -78.501 -42s-61.167 -13 -94.5 -13v-222h-98z
M286.003 81l0.00292969 258.999c-17.333 0 -34.333 -2 -51 -6s-30.334 -9.33301 -41.001 -16c-16.667 -10.667 -29.5 -25.167 -38.5 -43.5s-13.5 -39.5 -13.5 -63.5c0 -22.667 4 -43 12 -61s20.333 -32.667 37 -44c11.333 -8.66699 25.666 -15.167 42.999 -19.5
s34.666 -6.16602 51.999 -5.49902zM384.006 339.999l0.000976562 -258.999c16.667 -0.666992 33.667 1.16602 51 5.49902s32 10.833 44 19.5c16 11.333 28.167 26 36.5 44s12.5 38.333 12.5 61c-0.666992 24 -5.5 45.167 -14.5 63.5s-21.5 32.833 -37.5 43.5
c-11.333 6.66699 -25.333 12 -42 16s-33.334 6 -50.001 6z" />
    <glyph glyph-name="afii10086" unicode="&#x444;" horiz-adv-x="670" 
d="M286 -229l0.00292969 222c-34 0 -65.833 4.33301 -95.5 13s-55.5 22.667 -77.5 42c-24 19.333 -41.833 42.833 -53.5 70.5s-17.5 58.5 -17.5 92.5c-0.666992 32 4.83301 61.833 16.5 89.5s29.5 51.834 53.5 72.501c21.333 18 46.666 31.667 75.999 41s62 14 98 14v239h98
v-239c35.333 0 67.666 -4.66699 96.999 -14s55 -23 77 -41c23.333 -20.667 40.833 -44.834 52.5 -72.501s17.5 -57.5 17.5 -89.5c0 -34 -6 -64.833 -18 -92.5s-29.667 -51.167 -53 -70.5c-22.667 -19.333 -48.834 -33.333 -78.501 -42s-61.167 -13 -94.5 -13v-222h-98z
M286.003 81l0.00292969 258.999c-17.333 0 -34.333 -2 -51 -6s-30.334 -9.33301 -41.001 -16c-16.667 -10.667 -29.5 -25.167 -38.5 -43.5s-13.5 -39.5 -13.5 -63.5c0 -22.667 4 -43 12 -61s20.333 -32.667 37 -44c11.333 -8.66699 25.666 -15.167 42.999 -19.5
s34.666 -6.16602 51.999 -5.49902zM384.006 339.999l0.000976562 -258.999c16.667 -0.666992 33.667 1.16602 51 5.49902s32 10.833 44 19.5c16 11.333 28.167 26 36.5 44s12.5 38.333 12.5 61c-0.666992 24 -5.5 45.167 -14.5 63.5s-21.5 32.833 -37.5 43.5
c-11.333 6.66699 -25.333 12 -42 16s-33.334 6 -50.001 6z" />
    <glyph glyph-name="afii10087" unicode="&#xf5;" horiz-adv-x="496" 
d="M6 0l186 228l-150 193h116l93 -123l94 123h120l-155 -193l180 -228h-118l-121 157l-125 -157h-120z" />
    <glyph glyph-name="afii10087" unicode="&#x445;" horiz-adv-x="496" 
d="M6 0l186 228l-150 193h116l93 -123l94 123h120l-155 -193l180 -228h-118l-121 157l-125 -157h-120z" />
    <glyph glyph-name="afii10088" unicode="&#xf6;" horiz-adv-x="502" 
d="M62 0v421h98v-331h166v331h98v-331h70v-210h-90v120h-342z" />
    <glyph glyph-name="afii10088" unicode="&#x446;" horiz-adv-x="502" 
d="M62 0v421h98v-331h166v331h98v-331h70v-210h-90v120h-342z" />
    <glyph glyph-name="afii10089" unicode="&#xf7;" horiz-adv-x="450" 
d="M290 0l0.00195312 162.999c-14.667 -3.33301 -29.5 -5.83301 -44.5 -7.5s-28.833 -2.16699 -41.5 -1.5c-26 0 -48 2.66699 -66 8s-33 13 -45 23c-14.667 10.667 -25.334 24 -32.001 40s-9.66699 36.333 -9 61v135h98v-115c0 -15.333 2 -27.666 6 -36.999
s10.333 -16.333 19 -21c5.33301 -3.33301 12.166 -5.83301 20.499 -7.5s17.833 -2.5 28.5 -2.5c10.667 -0.666992 21.5 0 32.5 2s22.167 5 33.5 9v172h98v-421h-98z" />
    <glyph glyph-name="afii10089" unicode="&#x447;" horiz-adv-x="450" 
d="M290 0l0.00195312 162.999c-14.667 -3.33301 -29.5 -5.83301 -44.5 -7.5s-28.833 -2.16699 -41.5 -1.5c-26 0 -48 2.66699 -66 8s-33 13 -45 23c-14.667 10.667 -25.334 24 -32.001 40s-9.66699 36.333 -9 61v135h98v-115c0 -15.333 2 -27.666 6 -36.999
s10.333 -16.333 19 -21c5.33301 -3.33301 12.166 -5.83301 20.499 -7.5s17.833 -2.5 28.5 -2.5c10.667 -0.666992 21.5 0 32.5 2s22.167 5 33.5 9v172h98v-421h-98z" />
    <glyph glyph-name="afii10090" unicode="&#xf8;" horiz-adv-x="698" 
d="M62 0v421h98v-331h140v331h98v-331h140v331h98v-421h-574z" />
    <glyph glyph-name="afii10090" unicode="&#x448;" horiz-adv-x="698" 
d="M62 0v421h98v-331h140v331h98v-331h140v331h98v-421h-574z" />
    <glyph glyph-name="afii10091" unicode="&#xf9;" horiz-adv-x="714" 
d="M62 0v421h98v-331h140v331h98v-331h140v331h98v-331h70v-210h-90v120h-554z" />
    <glyph glyph-name="afii10091" unicode="&#x449;" horiz-adv-x="714" 
d="M62 0v421h98v-331h140v331h98v-331h140v331h98v-331h70v-210h-90v120h-554z" />
    <glyph glyph-name="afii10092" unicode="&#xfa;" horiz-adv-x="436" 
d="M98 0l-0.000976562 331.001h-90v90h188v-149h56c33.333 0 59.333 -3.5 78 -10.5s35 -17.833 49 -32.5c11.333 -12.667 19.5 -26.834 24.5 -42.501s7.83301 -32.167 8.5 -49.5c-0.666992 -20.667 -4.16699 -39.834 -10.5 -57.501s-15.5 -32.167 -27.5 -43.5
c-14 -13.333 -29.667 -22.666 -47 -27.999s-42.666 -8 -75.999 -8h-153zM195.999 84.001l45.002 -0.00195312c14 -0.666992 24.667 -0.166992 32 1.5s13.666 4.16699 18.999 7.5c6.66699 4 12 9.66699 16 17s6 16 6 26c0 8.66699 -1.83301 16.5 -5.5 23.5
s-8.83398 13.167 -15.501 18.5c-5.33301 2.66699 -11.5 4.83398 -18.5 6.50098s-17.833 2.83398 -32.5 3.50098h-46v-104z" />
    <glyph glyph-name="afii10092" unicode="&#x44a;" horiz-adv-x="436" 
d="M98 0l-0.000976562 331.001h-90v90h188v-149h56c33.333 0 59.333 -3.5 78 -10.5s35 -17.833 49 -32.5c11.333 -12.667 19.5 -26.834 24.5 -42.501s7.83301 -32.167 8.5 -49.5c-0.666992 -20.667 -4.16699 -39.834 -10.5 -57.501s-15.5 -32.167 -27.5 -43.5
c-14 -13.333 -29.667 -22.666 -47 -27.999s-42.666 -8 -75.999 -8h-153zM195.999 84.001l45.002 -0.00195312c14 -0.666992 24.667 -0.166992 32 1.5s13.666 4.16699 18.999 7.5c6.66699 4 12 9.66699 16 17s6 16 6 26c0 8.66699 -1.83301 16.5 -5.5 23.5
s-8.83398 13.167 -15.501 18.5c-5.33301 2.66699 -11.5 4.83398 -18.5 6.50098s-17.833 2.83398 -32.5 3.50098h-46v-104z" />
    <glyph glyph-name="afii10093" unicode="&#xfb;" horiz-adv-x="580" 
d="M62 0v421.001h98v-149h56c33.333 0 59.333 -3.5 78 -10.5s35 -17.833 49 -32.5c11.333 -12.667 19.666 -26.834 24.999 -42.501s8 -32.167 8 -49.5c0 -20.667 -3.33301 -39.834 -10 -57.501s-16 -32.167 -28 -43.5c-14 -13.333 -29.667 -22.666 -47 -27.999
s-42.666 -8 -75.999 -8h-153zM160 84.001l45.002 -0.00195312c14 -0.666992 24.667 -0.166992 32 1.5s13.666 4.16699 18.999 7.5c6.66699 4 12 9.66699 16 17s6 16 6 26c0 8.66699 -1.83301 16.5 -5.5 23.5s-8.83398 13.167 -15.501 18.5
c-5.33301 2.66699 -11.5 4.83398 -18.5 6.50098s-17.833 2.83398 -32.5 3.50098h-46v-104zM420.002 -0.000976562v421h98v-421h-98z" />
    <glyph glyph-name="afii10093" unicode="&#x44b;" horiz-adv-x="580" 
d="M62 0v421.001h98v-149h56c33.333 0 59.333 -3.5 78 -10.5s35 -17.833 49 -32.5c11.333 -12.667 19.666 -26.834 24.999 -42.501s8 -32.167 8 -49.5c0 -20.667 -3.33301 -39.834 -10 -57.501s-16 -32.167 -28 -43.5c-14 -13.333 -29.667 -22.666 -47 -27.999
s-42.666 -8 -75.999 -8h-153zM160 84.001l45.002 -0.00195312c14 -0.666992 24.667 -0.166992 32 1.5s13.666 4.16699 18.999 7.5c6.66699 4 12 9.66699 16 17s6 16 6 26c0 8.66699 -1.83301 16.5 -5.5 23.5s-8.83398 13.167 -15.501 18.5
c-5.33301 2.66699 -11.5 4.83398 -18.5 6.50098s-17.833 2.83398 -32.5 3.50098h-46v-104zM420.002 -0.000976562v421h98v-421h-98z" />
    <glyph glyph-name="afii10094" unicode="&#xfc;" horiz-adv-x="400" 
d="M62 0v421.001h98v-149h56c33.333 0 59.333 -3.5 78 -10.5s35 -17.833 49 -32.5c11.333 -12.667 19.666 -26.834 24.999 -42.501s8 -32.167 8 -49.5c0 -20.667 -3.33301 -39.834 -10 -57.501s-16 -32.167 -28 -43.5c-14 -13.333 -29.667 -22.666 -47 -27.999
s-42.666 -8 -75.999 -8h-153zM160 84.001l45.002 -0.00195312c14 -0.666992 24.667 -0.166992 32 1.5s13.666 4.16699 18.999 7.5c6.66699 4 12 9.66699 16 17s6 16 6 26c0 8.66699 -1.83301 16.5 -5.5 23.5s-8.83398 13.167 -15.501 18.5
c-5.33301 2.66699 -11.5 4.83398 -18.5 6.50098s-17.833 2.83398 -32.5 3.50098h-46v-104z" />
    <glyph glyph-name="afii10094" unicode="&#x44c;" horiz-adv-x="400" 
d="M62 0v421.001h98v-149h56c33.333 0 59.333 -3.5 78 -10.5s35 -17.833 49 -32.5c11.333 -12.667 19.666 -26.834 24.999 -42.501s8 -32.167 8 -49.5c0 -20.667 -3.33301 -39.834 -10 -57.501s-16 -32.167 -28 -43.5c-14 -13.333 -29.667 -22.666 -47 -27.999
s-42.666 -8 -75.999 -8h-153zM160 84.001l45.002 -0.00195312c14 -0.666992 24.667 -0.166992 32 1.5s13.666 4.16699 18.999 7.5c6.66699 4 12 9.66699 16 17s6 16 6 26c0 8.66699 -1.83301 16.5 -5.5 23.5s-8.83398 13.167 -15.501 18.5
c-5.33301 2.66699 -11.5 4.83398 -18.5 6.50098s-17.833 2.83398 -32.5 3.50098h-46v-104z" />
    <glyph glyph-name="afii10095" unicode="&#xfd;" horiz-adv-x="428" 
d="M40 317l-0.00292969 93.002c16.667 7.33301 34 12.833 52 16.5s38.667 5.5 62 5.5c72.667 0 129.834 -20.833 171.501 -62.5s62.5 -95.5 62.5 -161.5c0 -65.333 -20.833 -118.5 -62.5 -159.5s-95.167 -61.5 -160.5 -61.5c-26 0 -49.333 2.16699 -70 6.5
s-39 10.166 -55 17.499v93c18 -10 37.5 -17.333 58.5 -22s40.833 -7 59.5 -7c30 0 56.833 8.5 80.5 25.5s37.834 40.833 42.501 71.5h-195v90h192c-7.33301 25.333 -22.333 45.333 -45 60s-48 22 -76 22c-17.333 -0.666992 -36.666 -3.33398 -57.999 -8.00098
s-41 -11 -59 -19z" />
    <glyph glyph-name="afii10095" unicode="&#x44d;" horiz-adv-x="428" 
d="M40 317l-0.00292969 93.002c16.667 7.33301 34 12.833 52 16.5s38.667 5.5 62 5.5c72.667 0 129.834 -20.833 171.501 -62.5s62.5 -95.5 62.5 -161.5c0 -65.333 -20.833 -118.5 -62.5 -159.5s-95.167 -61.5 -160.5 -61.5c-26 0 -49.333 2.16699 -70 6.5
s-39 10.166 -55 17.499v93c18 -10 37.5 -17.333 58.5 -22s40.833 -7 59.5 -7c30 0 56.833 8.5 80.5 25.5s37.834 40.833 42.501 71.5h-195v90h192c-7.33301 25.333 -22.333 45.333 -45 60s-48 22 -76 22c-17.333 -0.666992 -36.666 -3.33398 -57.999 -8.00098
s-41 -11 -59 -19z" />
    <glyph glyph-name="afii10096" unicode="&#xfe;" horiz-adv-x="700" 
d="M160 265h67c3.33301 19.333 9.5 37.833 18.5 55.5s21.167 34.167 36.5 49.5c20 20 43.167 35.333 69.5 46s55.5 16 87.5 16c62.667 0 115.167 -21 157.5 -63s63.5 -95 63.5 -159c0 -64.667 -21.167 -118 -63.5 -160s-94.833 -63 -157.5 -63c-32 0 -62 5.5 -90 16.5
s-52 27.833 -72 50.5c-14.667 16 -26.5 34.167 -35.5 54.5s-14.5 42.5 -16.5 66.5h-65v-175h-98v421h98v-156zM439 344c-38 0 -67.667 -12.5 -89 -37.5s-32 -57.5 -32 -97.5c0 -40.667 10.667 -73.167 32 -97.5s51 -36.5 89 -36.5c37.333 0 66.833 12.167 88.5 36.5
s32.5 56.833 32.5 97.5c0 40 -10.833 72.5 -32.5 97.5s-51.167 37.5 -88.5 37.5z" />
    <glyph glyph-name="afii10096" unicode="&#x44e;" horiz-adv-x="700" 
d="M160 265h67c3.33301 19.333 9.5 37.833 18.5 55.5s21.167 34.167 36.5 49.5c20 20 43.167 35.333 69.5 46s55.5 16 87.5 16c62.667 0 115.167 -21 157.5 -63s63.5 -95 63.5 -159c0 -64.667 -21.167 -118 -63.5 -160s-94.833 -63 -157.5 -63c-32 0 -62 5.5 -90 16.5
s-52 27.833 -72 50.5c-14.667 16 -26.5 34.167 -35.5 54.5s-14.5 42.5 -16.5 66.5h-65v-175h-98v421h98v-156zM439 344c-38 0 -67.667 -12.5 -89 -37.5s-32 -57.5 -32 -97.5c0 -40.667 10.667 -73.167 32 -97.5s51 -36.5 89 -36.5c37.333 0 66.833 12.167 88.5 36.5
s32.5 56.833 32.5 97.5c0 40 -10.833 72.5 -32.5 97.5s-51.167 37.5 -88.5 37.5z" />
    <glyph glyph-name="afii10097" unicode="&#xff;" horiz-adv-x="418" 
d="M8 0l131.999 167c-13.333 2 -25.833 5.83301 -37.5 11.5s-21.5 12.5 -29.5 20.5c-12 10.667 -20.833 23.167 -26.5 37.5s-8.5 30.833 -8.5 49.5c0 20.667 3.33301 39 10 55s16.334 30 29.001 42c13.333 12 29 21.167 47 27.5s43 9.83301 75 10.5h157v-421h-98v155h-20
l-115 -155h-115zM257.999 235l-0.000976562 102h-57c-14 -0.666992 -24.833 -1.66699 -32.5 -3s-13.834 -3.33301 -18.501 -6c-7.33301 -4.66699 -13.166 -10.667 -17.499 -18s-6.5 -15.333 -6.5 -24c-0.666992 -9.33301 0.833008 -17.5 4.5 -24.5
s8.83398 -12.5 15.501 -16.5c4.66699 -4 11.167 -6.66699 19.5 -8s19.833 -2 34.5 -2h58z" />
    <glyph glyph-name="afii10097" unicode="&#x44f;" horiz-adv-x="418" 
d="M8 0l131.999 167c-13.333 2 -25.833 5.83301 -37.5 11.5s-21.5 12.5 -29.5 20.5c-12 10.667 -20.833 23.167 -26.5 37.5s-8.5 30.833 -8.5 49.5c0 20.667 3.33301 39 10 55s16.334 30 29.001 42c13.333 12 29 21.167 47 27.5s43 9.83301 75 10.5h157v-421h-98v155h-20
l-115 -155h-115zM257.999 235l-0.000976562 102h-57c-14 -0.666992 -24.833 -1.66699 -32.5 -3s-13.834 -3.33301 -18.501 -6c-7.33301 -4.66699 -13.166 -10.667 -17.499 -18s-6.5 -15.333 -6.5 -24c-0.666992 -9.33301 0.833008 -17.5 4.5 -24.5
s8.83398 -12.5 15.501 -16.5c4.66699 -4 11.167 -6.66699 19.5 -8s19.833 -2 34.5 -2h58z" />
    <glyph glyph-name="afii10059" unicode="&#x152;" horiz-adv-x="900" 
d="M182 667l0.00292969 -269h286v269h102v-269h76c33.333 0 64.166 -4.33301 92.499 -13s53.166 -22 74.499 -40c19.333 -17.333 34.666 -38.833 45.999 -64.5s17 -53.167 17 -82.5c0 -32.667 -7.16699 -63.5 -21.5 -92.5s-34.833 -52.167 -61.5 -69.5
c-18 -12 -38.833 -21 -62.5 -27s-51.5 -9 -83.5 -9h-179v302h-286v-302h-102v667h102zM570.003 302v-206h72c45.333 -0.666992 79 8 101 26s33 43 33 75c0 32.667 -11 58.167 -33 76.5s-55 27.833 -99 28.5h-74z" />
    <glyph glyph-name="afii10059" unicode="&#x40a;" horiz-adv-x="900" 
d="M182 667l0.00292969 -269h286v269h102v-269h76c33.333 0 64.166 -4.33301 92.499 -13s53.166 -22 74.499 -40c19.333 -17.333 34.666 -38.833 45.999 -64.5s17 -53.167 17 -82.5c0 -32.667 -7.16699 -63.5 -21.5 -92.5s-34.833 -52.167 -61.5 -69.5
c-18 -12 -38.833 -21 -62.5 -27s-51.5 -9 -83.5 -9h-179v302h-286v-302h-102v667h102zM570.003 302v-206h72c45.333 -0.666992 79 8 101 26s33 43 33 75c0 32.667 -11 58.167 -33 76.5s-55 27.833 -99 28.5h-74z" />
    <glyph glyph-name="afii10107" unicode="&#x153;" horiz-adv-x="672" 
d="M62 0v421.001h98v-149h174v149h98v-149h56c33.333 0 59.333 -3.5 78 -10.5s35 -17.833 49 -32.5c11.333 -12.667 19.666 -26.834 24.999 -42.501s8 -32.167 8 -49.5c0 -20.667 -3.33301 -39.834 -10 -57.501s-16 -32.167 -28 -43.5
c-14 -13.333 -29.667 -22.666 -47 -27.999s-42.666 -8 -75.999 -8h-153v188h-174v-188h-98zM432 84.001l45.002 -0.00195312c14 -0.666992 24.667 -0.166992 32 1.5s13.666 4.16699 18.999 7.5c6.66699 4 12 9.66699 16 17s6 16 6 26c0 8.66699 -1.83301 16.5 -5.5 23.5
s-8.83398 13.167 -15.501 18.5c-5.33301 2.66699 -11.5 4.83398 -18.5 6.50098s-17.833 2.83398 -32.5 3.50098h-46v-104z" />
    <glyph glyph-name="afii10107" unicode="&#x45a;" horiz-adv-x="672" 
d="M62 0v421.001h98v-149h174v149h98v-149h56c33.333 0 59.333 -3.5 78 -10.5s35 -17.833 49 -32.5c11.333 -12.667 19.666 -26.834 24.999 -42.501s8 -32.167 8 -49.5c0 -20.667 -3.33301 -39.834 -10 -57.501s-16 -32.167 -28 -43.5
c-14 -13.333 -29.667 -22.666 -47 -27.999s-42.666 -8 -75.999 -8h-153v188h-174v-188h-98zM432 84.001l45.002 -0.00195312c14 -0.666992 24.667 -0.166992 32 1.5s13.666 4.16699 18.999 7.5c6.66699 4 12 9.66699 16 17s6 16 6 26c0 8.66699 -1.83301 16.5 -5.5 23.5
s-8.83398 13.167 -15.501 18.5c-5.33301 2.66699 -11.5 4.83398 -18.5 6.50098s-17.833 2.83398 -32.5 3.50098h-46v-104z" />
    <glyph glyph-name="afii10058" unicode="&#x160;" horiz-adv-x="900" 
d="M144 667h426.003v-269h76c33.333 0 64.166 -4.33301 92.499 -13s53.166 -22 74.499 -40c19.333 -17.333 34.666 -38.833 45.999 -64.5s17 -53.167 17 -82.5c0 -32.667 -7.16699 -63.5 -21.5 -92.5s-34.833 -52.167 -61.5 -69.5c-18 -12 -38.833 -21 -62.5 -27
s-51.5 -9 -83.5 -9h-179v571h-222v-332c-0.666992 -59.333 -6.16699 -103.666 -16.5 -132.999s-26.833 -53.333 -49.5 -72c-16.667 -14 -35.5 -24.167 -56.5 -30.5s-42.5 -9.5 -64.5 -9.5l-23 2c-7.33301 0.666992 -14.666 2 -21.999 4v94
c6 -2.66699 12.167 -4.33398 18.5 -5.00098s12.5 -1 18.5 -1c12 0 23.167 2 33.5 6s19.166 9.66699 26.499 17c10.667 10.667 18.667 26.167 24 46.5s8.33301 57.5 9 111.5v398zM570.003 302v-206h72c45.333 -0.666992 79 8 101 26s33 43 33 75
c0 32.667 -11 58.167 -33 76.5s-55 27.833 -99 28.5h-74z" />
    <glyph glyph-name="afii10058" unicode="&#x409;" horiz-adv-x="900" 
d="M144 667h426.003v-269h76c33.333 0 64.166 -4.33301 92.499 -13s53.166 -22 74.499 -40c19.333 -17.333 34.666 -38.833 45.999 -64.5s17 -53.167 17 -82.5c0 -32.667 -7.16699 -63.5 -21.5 -92.5s-34.833 -52.167 -61.5 -69.5c-18 -12 -38.833 -21 -62.5 -27
s-51.5 -9 -83.5 -9h-179v571h-222v-332c-0.666992 -59.333 -6.16699 -103.666 -16.5 -132.999s-26.833 -53.333 -49.5 -72c-16.667 -14 -35.5 -24.167 -56.5 -30.5s-42.5 -9.5 -64.5 -9.5l-23 2c-7.33301 0.666992 -14.666 2 -21.999 4v94
c6 -2.66699 12.167 -4.33398 18.5 -5.00098s12.5 -1 18.5 -1c12 0 23.167 2 33.5 6s19.166 9.66699 26.499 17c10.667 10.667 18.667 26.167 24 46.5s8.33301 57.5 9 111.5v398zM570.003 302v-206h72c45.333 -0.666992 79 8 101 26s33 43 33 75
c0 32.667 -11 58.167 -33 76.5s-55 27.833 -99 28.5h-74z" />
    <glyph glyph-name="afii10106" unicode="&#x161;" horiz-adv-x="648" 
d="M408 421l0.000976562 -149.001h56c33.333 0 59.333 -3.5 78 -10.5s35 -17.833 49 -32.5c11.333 -12.667 19.666 -26.834 24.999 -42.501s8 -32.167 8 -49.5c0 -20.667 -3.33301 -39.834 -10 -57.501s-16 -32.167 -28 -43.5c-14 -13.333 -29.667 -22.666 -47 -27.999
s-42.666 -8 -75.999 -8h-153v331h-124v-167c0 -28.667 -3.5 -52.5 -10.5 -71.5s-16.833 -35.5 -29.5 -49.5c-14 -15.333 -30.833 -26.666 -50.5 -33.999s-40.5 -11 -62.5 -11c-4.66699 0 -9 0.333008 -13 1s-8 1 -12 1v90c2.66699 -1.33301 5.66699 -2 9 -2h10
c9.33301 0 18.666 1.83301 27.999 5.5s16.666 8.83398 21.999 15.501c4.66699 5.33301 8.33398 12.5 11.001 21.5s4 20.167 4 33.5v257h316zM408.001 83.999l45.002 -0.00195312c14 -0.666992 24.667 -0.166992 32 1.5s13.666 4.16699 18.999 7.5
c6.66699 4 12 9.66699 16 17s6 16 6 26c0 8.66699 -1.83301 16.5 -5.5 23.5s-8.83398 13.167 -15.501 18.5c-5.33301 2.66699 -11.5 4.83398 -18.5 6.50098s-17.833 2.83398 -32.5 3.50098h-46v-104z" />
    <glyph glyph-name="afii10106" unicode="&#x459;" horiz-adv-x="648" 
d="M408 421l0.000976562 -149.001h56c33.333 0 59.333 -3.5 78 -10.5s35 -17.833 49 -32.5c11.333 -12.667 19.666 -26.834 24.999 -42.501s8 -32.167 8 -49.5c0 -20.667 -3.33301 -39.834 -10 -57.501s-16 -32.167 -28 -43.5c-14 -13.333 -29.667 -22.666 -47 -27.999
s-42.666 -8 -75.999 -8h-153v331h-124v-167c0 -28.667 -3.5 -52.5 -10.5 -71.5s-16.833 -35.5 -29.5 -49.5c-14 -15.333 -30.833 -26.666 -50.5 -33.999s-40.5 -11 -62.5 -11c-4.66699 0 -9 0.333008 -13 1s-8 1 -12 1v90c2.66699 -1.33301 5.66699 -2 9 -2h10
c9.33301 0 18.666 1.83301 27.999 5.5s16.666 8.83398 21.999 15.501c4.66699 5.33301 8.33398 12.5 11.001 21.5s4 20.167 4 33.5v257h316zM408.001 83.999l45.002 -0.00195312c14 -0.666992 24.667 -0.166992 32 1.5s13.666 4.16699 18.999 7.5
c6.66699 4 12 9.66699 16 17s6 16 6 26c0 8.66699 -1.83301 16.5 -5.5 23.5s-8.83398 13.167 -15.501 18.5c-5.33301 2.66699 -11.5 4.83398 -18.5 6.50098s-17.833 2.83398 -32.5 3.50098h-46v-104z" />
    <glyph glyph-name="afii10193" unicode="&#x178;" horiz-adv-x="486" 
d="M62 0v421h98v-331h166v331h98v-421h-136v-140h-90v140h-136z" />
    <glyph glyph-name="afii10193" unicode="&#x45f;" horiz-adv-x="486" 
d="M62 0v421h98v-331h166v331h98v-421h-136v-140h-90v140h-136z" />
    <glyph glyph-name="afii10100" unicode="&#x192;" horiz-adv-x="328" 
d="M62 0v421h258v-90h-160v-331h-98zM265 675l90 -46l-156 -144l-54 34z" />
    <glyph glyph-name="afii10100" unicode="&#x453;" horiz-adv-x="328" 
d="M62 0v421h258v-90h-160v-331h-98zM265 675l90 -46l-156 -144l-54 34z" />
    <glyph glyph-name="circumflex" unicode="&#x2c6;" 
d="M250 571l-88 -86l-66 52l154 138l154 -138l-66 -52z" />
    <glyph glyph-name="tilde" unicode="&#x2dc;" 
d="M372 622l58 -45.999c-13.333 -29.333 -30 -51 -50 -65s-42 -21 -66 -21c-9.33301 0 -17.666 0.833008 -24.999 2.5s-17.333 6.16699 -30 13.5c-9.33301 4 -18 8.16699 -26 12.5s-13.333 7.5 -16 9.5c-7.33301 2.66699 -14.166 5 -20.499 7s-11.833 3 -16.5 3
c-12.667 0 -23.334 -4.33301 -32.001 -13s-15 -19.667 -19 -33l-59 41c5.33301 10 11.833 19.833 19.5 29.5s15.167 17.834 22.5 24.501c10 8 20.833 14.5 32.5 19.5s24.167 7.5 37.5 7.5c8 0 16 -1 24 -3s16.333 -4.33301 25 -7
c6.66699 -2.66699 13.667 -5.83398 21 -9.50098s15.666 -8.16699 24.999 -13.5c10 -6.66699 17.833 -10.834 23.5 -12.501s11.5 -2.5 17.5 -2.5c12.667 0 23.667 5 33 15s16.333 23.667 21 41z" />
    <glyph glyph-name="endash" unicode="&#x2013;" horiz-adv-x="580" 
d="M50 168v90h480v-90h-480z" />
    <glyph glyph-name="emdash" unicode="&#x2014;" horiz-adv-x="800" 
d="M50 168v90h700v-90h-700z" />
    <glyph glyph-name="quoteleft" unicode="&#x2018;" horiz-adv-x="290" 
d="M240 669l-102 -254l-88 34l124 247z" />
    <glyph glyph-name="quoteright" unicode="&#x2019;" horiz-adv-x="340" 
d="M50 442l102 254l88 -34l-124 -247z" />
    <glyph glyph-name="quotesinglbase" unicode="&#x201a;" horiz-adv-x="340" 
d="M50 -129l102 254l88 -34l-124 -247z" />
    <glyph glyph-name="quotedblleft" unicode="&#x201c;" horiz-adv-x="462" 
d="M412 669l-102 -254l-86 34l123 247zM238 669l-102 -254l-86 34l123 247z" />
    <glyph glyph-name="quotedblright" unicode="&#x201d;" horiz-adv-x="512" 
d="M50 442l102 254l86 -34l-123 -247zM224 442l102 254l86 -34l-123 -247z" />
    <glyph glyph-name="quotedblbase" unicode="&#x201e;" horiz-adv-x="512" 
d="M50 -129l102 254l86 -34l-123 -247zM224 -129l102 254l86 -34l-123 -247z" />
    <glyph glyph-name="dagger" unicode="&#x2020;" horiz-adv-x="568" 
d="M235 575v154h98v-154h138v-94h-138v-658h-98v658h-138v94h138z" />
    <glyph glyph-name="daggerdbl" unicode="&#x2021;" horiz-adv-x="568" 
d="M235 575v154h98v-154h138v-94h-138v-262h138v-94h-138v-302h-98v302h-138v94h138v262h-138v94h138z" />
    <glyph glyph-name="bullet" unicode="&#x2022;" horiz-adv-x="668" 
d="M194 340c0 38 13.667 70.834 41 98.501s60.333 41.5 99 41.5c38 0 70.833 -13.833 98.5 -41.5s41.5 -60.5 41.5 -98.5c0 -38.667 -13.833 -71.834 -41.5 -99.501s-60.5 -41.167 -98.5 -40.5c-38.667 0 -71.667 13.667 -99 41s-41 60.333 -41 99z" />
    <glyph glyph-name="bullet" unicode="&#xf000;" horiz-adv-x="668" 
d="M194 340c0 38 13.667 70.834 41 98.501s60.333 41.5 99 41.5c38 0 70.833 -13.833 98.5 -41.5s41.5 -60.5 41.5 -98.5c0 -38.667 -13.833 -71.834 -41.5 -99.501s-60.5 -41.167 -98.5 -40.5c-38.667 0 -71.667 13.667 -99 41s-41 60.333 -41 99z" />
    <glyph glyph-name="ellipsis" unicode="&#x2026;" horiz-adv-x="800" 
d="M80 48c0 16 5.83203 30 17.499 42s25.834 18 42.501 18c16 0 29.833 -6 41.5 -18s17.834 -26 18.501 -42c0 -16.667 -6 -30.834 -18 -42.501s-26 -17.5 -42 -17.5c-16.667 0 -30.834 5.83301 -42.501 17.5s-17.5 25.834 -17.5 42.501zM339.999 48
c-0.666992 16 5.00098 29.832 17.001 41.499s26.333 17.834 43 18.501c16 0 30 -6 42 -18s18 -26 18 -42c0 -16.667 -6 -30.834 -18 -42.501s-26 -17.5 -42 -17.5c-16.667 0 -30.834 5.83301 -42.501 17.5s-17.5 25.834 -17.5 42.501zM600 47.999
c0 16 5.83301 30.001 17.5 42.001s25.834 18 42.501 18c16 0 30 -6 42 -18s18 -26 18 -42c0 -16.667 -6 -30.834 -18 -42.501s-26 -17.5 -42 -17.5c-16.667 0.666992 -30.834 6.66699 -42.501 18s-17.5 25.333 -17.5 42z" />
    <glyph glyph-name="perthousand" unicode="&#x2030;" horiz-adv-x="1200" 
d="M194 673c43.333 0 81 -15.5 113 -46.5s48 -67.833 48 -110.5s-15.833 -79.5 -47.5 -110.5s-69.5 -46.5 -113.5 -46.5c-44.667 0 -82.667 15.5 -114 46.5s-47 67.833 -47 110.5s15.833 79.5 47.5 110.5s69.5 46.5 113.5 46.5zM194 431
c22.667 -0.666992 42 7.16602 58 23.499s24.333 36.833 25 61.5c0 24 -8.16699 44.167 -24.5 60.5s-35.833 24.5 -58.5 24.5c-23.333 0 -43 -8.16699 -59 -24.5s-24 -36.5 -24 -60.5c0 -24.667 8 -45.167 24 -61.5s35.667 -24.166 59 -23.499zM191 18l381 660l47 -27
l-381 -662zM616 307c43.333 0 81 -15.502 113 -46.502s48 -67.833 48 -110.5c-0.666992 -42.667 -16.667 -79.5 -48 -110.5s-69 -46.5 -113 -46.5c-44.667 0 -82.667 15.5 -114 46.5s-47 67.833 -47 110.5s15.833 79.334 47.5 110.001s69.5 46.334 113.5 47.001zM616 64.998
c22.667 0 42 8 58 24s24.333 36.333 25 61c0 24 -8.16699 44 -24.5 60s-35.833 24.333 -58.5 25c-23.333 0 -43 -8.16699 -59 -24.5s-24 -36.5 -24 -60.5c0 -24.667 8 -45 24 -61s35.667 -24 59 -24zM1006 306.998c43.333 0 81 -15.502 113 -46.502s48 -67.833 48 -110.5
c-0.666992 -42.667 -16.667 -79.5 -48 -110.5s-69 -46.5 -113 -46.5c-44.667 0.666992 -82.667 16.334 -114 47.001s-47 67.334 -47 110.001s15.833 79.5 47.5 110.5s69.5 46.5 113.5 46.5zM1006 64.9961c22.667 0 42.167 8 58.5 24s24.5 36.333 24.5 61
c-0.666992 24 -9 44.167 -25 60.5s-35.333 24.5 -58 24.5c-23.333 0 -43 -8.16699 -59 -24.5s-24 -36.5 -24 -60.5c0 -24.667 8 -45 24 -61s35.667 -24 59 -24z" />
    <glyph glyph-name="guilsinglleft" unicode="&#x2039;" horiz-adv-x="324" 
d="M140 217l130 -169l-65 -47l-165 216l165 216l65 -47z" />
    <glyph glyph-name="guilsinglright" unicode="&#x203a;" horiz-adv-x="324" 
d="M184 217l-130 169l65 47l165 -216l-165 -216l-65 47z" />
    <glyph glyph-name="trademark" unicode="&#x2122;" horiz-adv-x="710" 
d="M238 601h-84v-314h-70v314h-84v66h238v-66zM331 287h-71l82 414l126 -280l127 280l81 -414h-71l-35 206l-102 -213l-102 213z" />
    <glyph glyph-name="periodcentered" unicode="&#x2219;" horiz-adv-x="200" 
d="M22 340c0 21.333 7.5 39.667 22.5 55s33.5 23 55.5 23c21.333 -0.666992 39.666 -8.5 54.999 -23.5s23 -33.167 23 -54.5c0 -22 -7.66699 -40.5 -23 -55.5s-33.666 -22.5 -54.999 -22.5c-22 0 -40.5 7.5 -55.5 22.5s-22.5 33.5 -22.5 55.5z" />
    <glyph glyph-name="fi" unicode="&#xf001;" horiz-adv-x="470" 
d="M268 331l-106 0.000976562v-331h-98v331h-34v90h34v140c-0.666992 30.667 1 54.167 5 70.5s11 31.166 21 44.499c14 20.667 33.333 36.667 58 48s54 17 88 17c34.667 -0.666992 64.167 -6.33398 88.5 -17.001s43.5 -26.667 57.5 -48
c9.33301 -15.333 15.833 -30.833 19.5 -46.5s5.83398 -38.5 6.50098 -68.5v-29h-98v18c0 18.667 -1 32.334 -3 41.001s-5 16.667 -9 24c-6.66699 10 -15.167 17.833 -25.5 23.5s-22.5 8.5 -36.5 8.5c-14.667 -0.666992 -27.167 -3.5 -37.5 -8.5s-18.5 -12.833 -24.5 -23.5
c-4.66699 -7.33301 -7.83398 -16.5 -9.50098 -27.5s-2.5 -23.5 -2.5 -37.5v-129h106v-90zM310 421.001h98v-421h-98v421z" />
    <glyph glyph-name="uniF002" unicode="&#xf002;" horiz-adv-x="470" 
d="M268 331l-105.999 0.000976562v-331h-98v331h-34v90h34v140c-0.666992 30.667 1 54.167 5 70.5s11 31.166 21 44.499c14 20.667 33.333 36.667 58 48s54 17 88 17c34.667 0 64 -5.5 88 -16.5s43.333 -27.167 58 -48.5c8.66699 -14 15.167 -29.167 19.5 -45.5
s6.5 -39.5 6.5 -69.5v-561h-98v550c0 15.333 -1 28 -3 38s-5 19 -9 27c-6 10 -14.167 17.833 -24.5 23.5s-22.833 8.5 -37.5 8.5s-27.167 -2.66699 -37.5 -8s-18.5 -13.333 -24.5 -24c-4.66699 -7.33301 -7.83398 -16.5 -9.50098 -27.5s-2.5 -23.5 -2.5 -37.5v-129h106v-90z
" />
    <glyph glyph-name="glyph1" horiz-adv-x="0" 
 />
    <glyph glyph-name="glyph2" horiz-adv-x="252" 
 />
    <glyph glyph-name="sterling" horiz-adv-x="568" 
d="M516 461l-98.002 -36.0039c0.666992 24.667 -1.33301 47.334 -6 68.001s-11.334 37.334 -20.001 50.001c-10 12.667 -22.5 22.667 -37.5 30s-31.833 11 -50.5 11c-37.333 0 -66.666 -11 -87.999 -33s-32 -50.333 -32 -85c-0.666992 -19.333 3.33301 -40.333 12 -63
s21.667 -47 39 -73h130v-72h-101c3.33301 -10.667 6.16602 -21.834 8.49902 -33.501s3.5 -22.167 3.5 -31.5c0 -11.333 -1.33301 -22.666 -4 -33.999s-6 -21.666 -10 -30.999l53 -19c26 -10 43.333 -15.833 52 -17.5s16.667 -2.5 24 -2.5c14 0 27 5.33301 39 16
s22 26.334 30 47.001l82 -48c-6.66699 -13.333 -14.5 -26.833 -23.5 -40.5s-18.167 -25.167 -27.5 -34.5c-12.667 -12.667 -26.667 -22.167 -42 -28.5s-33.666 -9.5 -54.999 -9.5c-14.667 0 -30.167 1.5 -46.5 4.5s-38.166 9.83301 -65.499 20.5
c-34 12 -57.167 19.667 -69.5 23s-22.833 5 -31.5 5c-15.333 0 -29 -5.16699 -41 -15.5s-21 -24.833 -27 -43.5l-87 44c7.33301 16.667 17.333 32.834 30 48.501s26 28.5 40 38.5c9.33301 6.66699 19.333 11.667 30 15s21.667 5.66602 33 6.99902
c5.33301 8.66699 9.16602 17.5 11.499 26.5s3.5 20.5 3.5 34.5c0 13.333 -1.33301 24.333 -4 33s-6.33398 17.334 -11.001 26.001h-114v72h78c-13.333 26.667 -23.666 52.167 -30.999 76.5s-10.666 45.833 -9.99902 64.5c0 60 21 109.5 63 148.5s95 58.5 159 58.5
c34.667 0 65.834 -6.16699 93.501 -18.5s51.167 -30.5 70.5 -54.5c15.333 -20 27 -42.833 35 -68.5s12.333 -50.834 13 -75.501z" />
    <glyph glyph-name="NotEqual" 
d="M33 380v84h238l52 110h78l-52 -110h118v-84h-158l-37 -78h195v-84h-235l-55 -116h-78l55 116h-121v84h161l37 78h-198z" />
    <glyph glyph-name="glyph144" 
d="M234 727l-48 40l138 139l86 -60z" />
    <glyph glyph-name="glyph147" 
d="M325 675l90 -46l-156 -144l-54 34z" />
    <glyph glyph-name="infinity" horiz-adv-x="670" 
d="M335 275c-22 -30.667 -46.999 -53.833 -74.999 -69.5s-57 -23.5 -87 -23.5c-46 -0.666992 -83.333 13.666 -112 42.999s-43 67.333 -43 114s14.5 84.834 43.5 114.501s66.5 44.5 112.5 44.5c30 0 59.167 -8.16699 87.5 -24.5s52.833 -39.166 73.5 -68.499
c20 29.333 44.167 52.166 72.5 68.499s57.833 24.5 88.5 24.5c45.333 0 82.666 -14.833 111.999 -44.5s44 -67.834 44 -114.501s-14.5 -84.5 -43.5 -113.5s-66.167 -43.5 -111.5 -43.5c-30.667 0 -60 7.83301 -88 23.5s-52.667 38.834 -74 69.501zM482.001 410.001
c-16.667 0 -34 -6.5 -52 -19.5s-33.333 -29.833 -46 -50.5c10.667 -20 25 -36.667 43 -50s36.333 -20 55 -20c20 0 36.833 6.66699 50.5 20s20.5 30 20.5 50c0 19.333 -7 35.833 -21 49.5s-30.667 20.5 -50 20.5zM188.001 270.001c18 0 36 6.66699 54 20s32.667 30 44 50
c-13.333 20.667 -29 37.5 -47 50.5s-35 19.5 -51 19.5c-20 0 -36.833 -6.83301 -50.5 -20.5s-20.5 -30.167 -20.5 -49.5c0 -20 6.66699 -36.667 20 -50s30.333 -20 51 -20z" />
    <glyph glyph-name="lessequal" 
d="M137 391l330 -149v-92l-434 200v82l434 200v-92zM467 32h-434v90h434v-90z" />
    <glyph glyph-name="greaterequal" 
d="M363 391l-330 149v92l434 -200v-82l-434 -200v92zM467 32h-434v90h434v-90z" />
    <glyph glyph-name="radical" horiz-adv-x="668" 
d="M394 827h274v-88h-190l-193 -739h-126l-71 286h-88v88h168l50 -251h8z" />
    <glyph glyph-name="florin" horiz-adv-x="568" 
d="M502 696l-18.0029 -92.9961c-7.33301 2.66699 -14.833 4.83398 -22.5 6.50098s-14.834 2.83398 -21.501 3.50098c-10.667 0 -19.667 -1.5 -27 -4.5s-14 -7.16699 -20 -12.5c-8.66699 -8 -15.5 -18.167 -20.5 -30.5s-9.16699 -28.833 -12.5 -49.5l-16 -95h112l-14 -78
h-112l-46 -262c-7.33301 -40.667 -14.166 -70.834 -20.499 -90.501s-13.5 -37.5 -21.5 -53.5c-7.33301 -12.667 -15 -23.667 -23 -33s-17.667 -18.333 -29 -27c-17.333 -11.333 -37.166 -20.333 -59.499 -27s-46.166 -10 -71.499 -10
c-8.66699 0 -15.334 0.166992 -20.001 0.5s-9 0.5 -13 0.5l16 93c18.667 -0.666992 36.667 1.16602 54 5.49902s31.333 11.5 42 21.5c8.66699 9.33301 16.667 23.166 24 41.499s14 44.166 20 77.499l46 263h-85l14 78h85l19 109c4.66699 27.333 11.834 52.666 21.501 75.999
s21.834 42 36.501 56c14 13.333 31.167 23.833 51.5 31.5s42.166 11.5 65.499 11.5c8.66699 0 18.834 -0.833008 30.501 -2.5s23.5 -3.83398 35.5 -6.50098z" />
    <glyph glyph-name="approxequal" 
d="M435 505l56.998 -32.9961c-8 -18.667 -17.667 -36.334 -29 -53.001s-23.666 -30 -36.999 -40s-26.666 -17.167 -39.999 -21.5s-27.666 -6.5 -42.999 -6.5c-13.333 0 -26.666 1.66699 -39.999 5s-37.333 12.333 -72 27c-24.667 10 -43.167 16.667 -55.5 20
s-22.833 5.33301 -31.5 6c-10.667 0 -20.167 -1.83301 -28.5 -5.5s-15.833 -9.16699 -22.5 -16.5c-6 -6 -11.5 -13 -16.5 -21s-9.16699 -16 -12.5 -24l-56 36c6 15.333 13.333 30.166 22 44.499s18 27.166 28 38.499c12.667 14 26.834 24.5 42.501 31.5
s32.167 10.5 49.5 10.5c12.667 0 28.167 -2.66699 46.5 -8s39.5 -13 63.5 -23c31.333 -14 52.166 -22.167 62.499 -24.5s20.5 -3.5 30.5 -3.5c9.33301 0 17.666 1.16699 24.999 3.5s15.333 7.16602 24 14.499c7.33301 6.66699 13.666 13.5 18.999 20.5s10 14.5 14 22.5z
M434.998 323.004l56.998 -32.9961c-8 -18.667 -17.667 -36.334 -29 -53.001s-23.666 -30 -36.999 -40s-26.666 -17.167 -39.999 -21.5s-27.666 -6.5 -42.999 -6.5c-13.333 0 -26.666 1.66699 -39.999 5s-37.333 12.333 -72 27c-24.667 10 -43.167 16.833 -55.5 20.5
s-22.833 5.5 -31.5 5.5c-10.667 0 -20.167 -1.83301 -28.5 -5.5s-15.833 -9.16699 -22.5 -16.5c-6 -6 -11.5 -13 -16.5 -21s-9.16699 -16 -12.5 -24l-56 36c6 15.333 13.333 30.166 22 44.499s18 27.166 28 38.499c12.667 14 26.834 24.5 42.501 31.5s32.167 10.5 49.5 10.5
c12.667 0 28.167 -2.66699 46.5 -8s39.5 -13 63.5 -23c31.333 -14 52.166 -22.167 62.499 -24.5s20.5 -3.5 30.5 -3.5c9.33301 0 17.666 1.16699 24.999 3.5s15.333 7.16602 24 14.499c7.33301 6.66699 13.666 13.5 18.999 20.5s10 14.5 14 22.5z" />
    <glyph glyph-name="Delta" horiz-adv-x="668" 
d="M644 0h-620l256 667h104zM332 529l-160 -433h320z" />
    <glyph glyph-name="divide" 
d="M190 513c0 16 5.83301 29.833 17.5 41.5s25.834 17.834 42.501 18.501c16 -0.666992 30 -6.83398 42 -18.501s18 -25.5 18 -41.5c0 -16.667 -6 -30.834 -18 -42.501s-26 -17.5 -42 -17.5c-16.667 0 -30.834 5.83301 -42.501 17.5s-17.5 25.834 -17.5 42.501zM190 159
c0 16 5.83301 30 17.5 42s25.834 18 42.501 18c16 0 30 -6 42 -18s18 -26 18 -42c0 -16.667 -6 -30.834 -18 -42.501s-26 -17.5 -42 -17.5c-16.667 0 -30.834 5.83301 -42.501 17.5s-17.5 25.834 -17.5 42.501zM33 291v90h434v-90h-434z" />
    <glyph glyph-name="glyph188" 
d="M85 832l80.001 36c4.66699 -17.333 14.5 -31 29.5 -41s33.5 -15 55.5 -15c21.333 0 39.5 5 54.5 15s25.167 23.667 30.5 41l80 -36c-14 -34.667 -35.833 -60.334 -65.5 -77.001s-62.834 -25 -99.501 -25c-37.333 0 -70.833 8.33301 -100.5 25
s-51.167 42.334 -64.5 77.001z" />
    <glyph glyph-name="glyph191" 
d="M88 603l80.001 23c6 -21.333 15.833 -37.5 29.5 -48.5s31.167 -16.5 52.5 -16.5s38.5 5.16699 51.5 15.5s23.167 26.833 30.5 49.5l80 -23c-10 -34.667 -30.333 -63 -61 -85s-64.334 -33 -101.001 -33c-37.333 0 -71.333 11 -102 33s-50.667 50.333 -60 85z" />
    </font>
</defs>
</svg>
